MeshVersionFormatted 1
Dimension
3
Vertices
542
0.000000000000000e+00 0.000000000000000e+00 1.800000000000000e+00 1
2.601478807740391e-01 1.077567804392260e-01 1.777839013071248e+00 1
1.077567804392260e-01 2.601478807740391e-01 1.777839013071248e+00 1
-1.077567804392259e-01 2.601478807740391e-01 1.777839013071248e+00 1
-2.601478807740391e-01 1.077567804392260e-01 1.777839013071248e+00 1
-2.601478807740392e-01 -1.077567804392259e-01 1.777839013071248e+00 1
-1.077567804392261e-01 -2.601478807740391e-01 1.777839013071248e+00 1
1.077567804392260e-01 -2.601478807740391e-01 1.777839013071248e+00 1
2.601478807740391e-01 -1.077567804392261e-01 1.777839013071248e+00 1
5.562305898749054e-01 0.000000000000000e+00 1.711901729331276e+00 1
5.011464448522883e-01 2.413394081464889e-01 1.711901729331276e+00 1
3.468041002688713e-01 4.348785866759640e-01 1.711901729331276e+00 1
1.237729503540356e-01 5.422847276784057e-01 1.711901729331276e+00 1
-1.237729503540356e-01 5.422847276784057e-01 1.711901729331276e+00 1
-3.468041002688712e-01 4.348785866759640e-01 1.711901729331276e+00 1
-5.011464448522882e-01 2.413394081464890e-01 1.711901729331276e+00 1
-5.562305898749054e-01 6.811860114781471e-17 1.711901729331276e+00 1
-5.011464448522883e-01 -2.413394081464889e-01 1.711901729331276e+00 1
-3.468041002688713e-01 -4.348785866759639e-01 1.711901729331276e+00 1
-1.237729503540357e-01 -5.422847276784057e-01 1.711901729331276e+00 1
1.237729503540350e-01 -5.422847276784059e-01 1.711901729331276e+00 1
3.468041002688712e-01 -4.348785866759640e-01 1.711901729331276e+00 1
5.011464448522884e-01 -2.413394081464886e-01 1.711901729331276e+00 1
8.071220220006785e-01 1.278355697281855e-01 1.603811743539062e+00 1
7.281152949374526e-01 3.709932729367741e-01 1.603811743539062e+00 1
5.778355697281855e-01 5.778355697281854e-01 1.603811743539062e+00 1
3.709932729367741e-01 7.281152949374525e-01 1.603811743539062e+00 1
1.278355697281856e-01 8.071220220006785e-01 1.603811743539062e+00 1
-1.278355697281853e-01 8.071220220006785e-01 1.603811743539062e+00 1
-3.709932729367741e-01 7.281152949374526e-01 1.603811743539062e+00 1
-5.778355697281854e-01 5.778355697281855e-01 1.603811743539062e+00 1
-7.281152949374525e-01 3.709932729367742e-01 1.603811743539062e+00 1
-8.071220220006784e-01 1.278355697281856e-01 1.603811743539062e+00 1
-8.071220220006785e-01 -1.278355697281854e-01 1.603811743539062e+00 1
-7.281152949374526e-01 -3.709932729367741e-01 1.603811743539062e+00 1
-5.778355697281856e-01 -5.778355697281854e-01 1.603811743539062e+00 1
-3.709932729367743e-01 -7.281152949374525e-01 1.603811743539062e+00 1
-1.278355697281857e-01 -8.071220220006784e-01 1.603811743539062e+00 1
1.278355697281854e-01 -8.071220220006785e-01 1.603811743539062e+00 1
3.709932729367740e-01 -7.281152949374526e-01 1.603811743539062e+00 1
5.778355697281854e-01 -5.778355697281856e-01 1.603811743539062e+00 1
7.281152949374525e-01 -3.709932729367743e-01 1.603811743539062e+00 1
8.071220220006784e-01 -1.278355697281857e-01 1.603811743539062e+00 1
1.058013454126452e+00 0.000000000000000e+00 1.456230589874906e+00 1
1.024774015914421e+00 2.631172465256055e-01 1.456230589874906e+00 1
9.271442574272915e-01 5.097018687744648e-01 1.456230589874906e+00 1
7.712586154479460e-01 7.242600480558778e-01 1.456230589874906e+00 1
5.669119581692341e-01 8.933103048758083e-01 1.456230589874906e+00 1
3.269441376024124e-01 1.006230589874905e+00 1.456230589874906e+00 1
6.643321445360342e-02 1.055925706254918e+00 1.456230589874906e+00 1
-1.982519518835977e-01 1.039273127087836e+00 1.456230589874906e+00 1
-4.504802189642761e-01 9.573191951666293e-01 1.456230589874906e+00 1
-6.744031571370751e-01 8.152133774393860e-01 1.456230589874906e+00 1
-8.559508646656382e-01 6.218847050625474e-01 1.456230589874906e+00 1
-9.837160314001828e-01 3.894807295346712e-01 1.456230589874906e+00 1
-1.049670702027363e+00 1.326042473602072e-01 1.456230589874906e+00 1
-1.049670702027364e+00 -1.326042473602069e-01 1.456230589874906e+00 1
-9.837160314001829e-01 -3.894807295346710e-01 1.456230589874906e+00 1
-8.559508646656386e-01 -6.218847050625469e-01 1.456230589874906e+00 1
-6.744031571370749e-01 -8.152133774393862e-01 1.456230589874906e+00 1
-4.504802189642755e-01 -9.573191951666297e-01 1.456230589874906e+00 1
-1.982519518835978e-01 -1.039273127087836e+00 1.456230589874906e+00 1
6.643321445360269e-02 -1.055925706254918e+00 1.456230589874906e+00 1
3.269441376024122e-01 -1.006230589874906e+00 1.456230589874906e+00 1
5.669119581692345e-01 -8.933103048758082e-01 1.456230589874906e+00 1
7.712586154479457e-01 -7.242600480558782e-01 1.456230589874906e+00 1
9.271442574272909e-01 -5.097018687744655e-01 1.456230589874906e+00 1
1.024774015914420e+00 -2.631172465256061e-01 1.456230589874906e+00 1
1.265819717256127e+00 1.330430133664200e-01 1.272792206135786e+00 1
1.210497321535123e+00 3.933144220039389e-01 1.272792206135786e+00 1
1.102270384252430e+00 6.363961030678926e-01 1.272792206135786e+00 1
9.458689418977659e-01 8.516642206604670e-01 1.272792206135786e+00 1
7.481284879994161e-01 1.029710525071832e+00 1.272792206135786e+00 1
5.176912292567115e-01 1.162753538438252e+00 1.272792206135786e+00 1
2.646283796373571e-01 1.244978642664406e+00 1.272792206135786e+00 1
3.605526876242739e-16 1.272792206135785e+00 1.272792206135786e+00 1
-2.646283796373572e-01 1.244978642664406e+00 1.272792206135786e+00 1
-5.176912292567111e-01 1.162753538438252e+00 1.272792206135786e+00 1
-7.481284879994160e-01 1.029710525071832e+00 1.272792206135786e+00 1
-9.458689418977656e-01 8.516642206604672e-01 1.272792206135786e+00 1
-1.102270384252430e+00 6.363961030678926e-01 1.272792206135786e+00 1
-1.210497321535123e+00 3.933144220039391e-01 1.272792206135786e+00 1
-1.265819717256127e+00 1.330430133664199e-01 1.272792206135786e+00 1
-1.265819717256127e+00 -1.330430133664195e-01 1.272792206135786e+00 1
-1.210497321535123e+00 -3.933144220039388e-01 1.272792206135786e+00 1
-1.102270384252430e+00 -6.363961030678924e-01 1.272792206135786e+00 1
-9.458689418977659e-01 -8.516642206604670e-01 1.272792206135786e+00 1
-7.481284879994163e-01 -1.029710525071831e+00 1.272792206135786e+00 1
-5.176912292567122e-01 -1.162753538438251e+00 1.272792206135786e+00 1
-2.646283796373578e-01 -1.244978642664406e+00 1.272792206135786e+00 1
-2.338081351835832e-16 -1.272792206135785e+00 1.272792206135786e+00 1
2.646283796373574e-01 -1.244978642664406e+00 1.272792206135786e+00 1
5.176912292567107e-01 -1.162753538438252e+00 1.272792206135786e+00 1
7.481284879994159e-01 -1.029710525071832e+00 1.272792206135786e+00 1
9.458689418977659e-01 -8.516642206604669e-01 1.272792206135786e+00 1
1.102270384252430e+00 -6.363961030678923e-01 1.272792206135786e+00 1
1.210497321535123e+00 -3.933144220039392e-01 1.272792206135786e+00 1
1.265819717256127e+00 -1.330430133664200e-01 1.272792206135786e+00 1
1.456230589874906e+00 0.000000000000000e+00 1.058013454126452e+00 1
1.431435496783853e+00 2.675816687192537e-01 1.058013454126452e+00 1
1.357894584667473e+00 5.260511646391114e-01 1.058013454126452e+00 1
1.238112201085289e+00 7.666066190760140e-01 1.058013454126452e+00 1
1.076167391447056e+00 9.810562045435801e-01 1.058013454126452e+00 1
8.775749920136138e-01 1.162097097612640e+00 1.058013454126452e+00 1
6.490978287623389e-01 1.303564167804344e+00 1.058013454126452e+00 1
3.985164174595998e-01 1.400639923714365e+00 1.058013454126452e+00 1
1.343640075280341e-01 1.450018566904721e+00 1.058013454126452e+00 1
-1.343640075280339e-01 1.450018566904721e+00 1.058013454126452e+00 1
-3.985164174595996e-01 1.400639923714365e+00 1.058013454126452e+00 1
-6.490978287623381e-01 1.303564167804345e+00 1.058013454126452e+00 1
-8.775749920136136e-01 1.162097097612640e+00 1.058013454126452e+00 1
-1.076167391447056e+00 9.810562045435800e-01 1.058013454126452e+00 1
-1.238112201085288e+00 7.666066190760146e-01 1.058013454126452e+00 1
-1.357894584667473e+00 5.260511646391119e-01 1.058013454126452e+00 1
-1.431435496783853e+00 2.675816687192537e-01 1.058013454126452e+00 1
-1.456230589874906e+00 1.783368130710765e-16 1.058013454126452e+00 1
-1.431435496783853e+00 -2.675816687192534e-01 1.058013454126452e+00 1
-1.357894584667473e+00 -5.260511646391111e-01 1.058013454126452e+00 1
-1.238112201085289e+00 -7.666066190760142e-01 1.058013454126452e+00 1
-1.076167391447056e+00 -9.810562045435801e-01 1.058013454126452e+00 1
-8.775749920136149e-01 -1.162097097612639e+00 1.058013454126452e+00 1
-6.490978287623397e-01 -1.303564167804344e+00 1.058013454126452e+00 1
-3.985164174596000e-01 -1.400639923714365e+00 1.058013454126452e+00 1
-1.343640075280340e-01 -1.450018566904721e+00 1.058013454126452e+00 1
1.343640075280347e-01 -1.450018566904721e+00 1.058013454126452e+00 1
3.985164174595995e-01 -1.400639923714365e+00 1.058013454126452e+00 1
6.490978287623380e-01 -1.303564167804345e+00 1.058013454126452e+00 1
8.775749920136134e-01 -1.162097097612640e+00 1.058013454126452e+00 1
1.076167391447055e+00 -9.810562045435809e-01 1.058013454126452e+00 1
1.238112201085288e+00 -7.666066190760147e-01 1.058013454126452e+00 1
1.357894584667473e+00 -5.260511646391116e-01 1.058013454126452e+00 1
1.431435496783853e+00 -2.675816687192533e-01 1.058013454126452e+00 1
1.598033993357332e+00 1.360127375955084e-01 8.171828995311843e-01 1
1.552061464901609e+00 4.041253739636704e-01 8.171828995311843e-01 1
1.461438953931863e+00 6.606120591121138e-01 8.171828995311843e-01 1
1.328773505092703e+00 8.980941380932501e-01 8.171828995311843e-01 1
1.157881661803857e+00 1.109739683877325e+00 8.171828995311843e-01 1
9.536796712547485e-01 1.289460039454205e+00 8.171828995311843e-01 1
7.220420529238475e-01 1.432084977409973e+00 8.171828995311843e-01 1
4.696325993489843e-01 1.533511437956210e+00 8.171828995311843e-01 1
2.037126709487717e-01 1.590821566489694e+00 8.171828995311843e-01 1
-6.806770009590991e-02 1.602366654956805e+00 8.171828995311843e-01 1
-3.378898873393826e-01 1.567814572182433e+00 8.171828995311843e-01 1
-5.979915977186701e-01 1.488159318679179e+00 8.171828995311843e-01 1
-8.408901785921529e-01 1.365692431062376e+00 8.171828995311843e-01 1
-1.059597880032434e+00 1.203937058713859e+00 8.171828995311843e-01 1
-1.247822879669186e+00 1.007546609188829e+00 8.171828995311843e-01 1
-1.400150286963253e+00 7.821708781529306e-01 8.171828995311843e-01 1
-1.512197919748598e+00 5.342935150475046e-01 8.171828995311843e-01 1
-1.580742371634598e+00 2.710455002999166e-01 8.171828995311843e-01 1
-1.603811743539062e+00 1.964102918160048e-16 8.171828995311843e-01 1
-1.580742371634598e+00 -2.710455002999162e-01 8.171828995311843e-01 1
-1.512197919748598e+00 -5.342935150475042e-01 8.171828995311843e-01 1
-1.400150286963253e+00 -7.821708781529296e-01 8.171828995311843e-01 1
-1.247822879669186e+00 -1.007546609188829e+00 8.171828995311843e-01 1
-1.059597880032434e+00 -1.203937058713859e+00 8.171828995311843e-01 1
-8.408901785921538e-01 -1.365692431062376e+00 8.171828995311843e-01 1
-5.979915977186705e-01 -1.488159318679179e+00 8.171828995311843e-01 1
-3.378898873393822e-01 -1.567814572182433e+00 8.171828995311843e-01 1
-6.806770009591066e-02 -1.602366654956805e+00 8.171828995311843e-01 1
2.037126709487706e-01 -1.590821566489694e+00 8.171828995311843e-01 1
4.696325993489836e-01 -1.533511437956210e+00 8.171828995311843e-01 1
7.220420529238475e-01 -1.432084977409973e+00 8.171828995311843e-01 1
9.536796712547488e-01 -1.289460039454205e+00 8.171828995311843e-01 1
1.157881661803857e+00 -1.109739683877325e+00 8.171828995311843e-01 1
1.328773505092703e+00 -8.980941380932512e-01 8.171828995311843e-01 1
1.461438953931863e+00 -6.606120591121143e-01 8.171828995311843e-01 1
1.552061464901609e+00 -4.041253739636703e-01 8.171828995311843e-01 1
1.598033993357332e+00 -1.360127375955091e-01 8.171828995311843e-01 1
1.711901729331276e+00 0.000000000000000e+00 5.562305898749055e-01 1
1.690825378305155e+00 2.678004312293843e-01 5.562305898749055e-01 1
1.628115294937453e+00 5.290067270632257e-01 5.562305898749055e-01 1
1.525315609603517e+00 7.771871216041004e-01 5.562305898749055e-01 1
1.384957591728864e+00 1.006230589874905e+00 5.562305898749055e-01 1
1.210497321535123e+00 1.210497321535123e+00 5.562305898749055e-01 1
1.006230589874905e+00 1.384957591728864e+00 5.562305898749055e-01 1
7.771871216041005e-01 1.525315609603517e+00 5.562305898749055e-01 1
5.290067270632258e-01 1.628115294937453e+00 5.562305898749055e-01 1
2.678004312293844e-01 1.690825378305155e+00 5.562305898749055e-01 1
1.048237486640183e-16 1.711901729331276e+00 5.562305898749055e-01 1
-2.678004312293839e-01 1.690825378305155e+00 5.562305898749055e-01 1
-5.290067270632256e-01 1.628115294937453e+00 5.562305898749055e-01 1
-7.771871216041004e-01 1.525315609603517e+00 5.562305898749055e-01 1
-1.006230589874905e+00 1.384957591728864e+00 5.562305898749055e-01 1
-1.210497321535123e+00 1.210497321535123e+00 5.562305898749055e-01 1
-1.384957591728864e+00 1.006230589874906e+00 5.562305898749055e-01 1
-1.525315609603517e+00 7.771871216041006e-01 5.562305898749055e-01 1
-1.628115294937453e+00 5.290067270632259e-01 5.562305898749055e-01 1
-1.690825378305155e+00 2.678004312293845e-01 5.562305898749055e-01 1
-1.711901729331276e+00 2.096474973280366e-16 5.562305898749055e-01 1
-1.690825378305155e+00 -2.678004312293841e-01 5.562305898749055e-01 1
-1.628115294937453e+00 -5.290067270632249e-01 5.562305898749055e-01 1
-1.525315609603517e+00 -7.771871216041004e-01 5.562305898749055e-01 1
-1.384957591728864e+00 -1.006230589874905e+00 5.562305898749055e-01 1
-1.210497321535123e+00 -1.210497321535123e+00 5.562305898749055e-01 1
-1.006230589874906e+00 -1.384957591728864e+00 5.562305898749055e-01 1
-7.771871216041008e-01 -1.525315609603517e+00 5.562305898749055e-01 1
-5.290067270632260e-01 -1.628115294937453e+00 5.562305898749055e-01 1
-2.678004312293846e-01 -1.690825378305155e+00 5.562305898749055e-01 1
-3.144712459920549e-16 -1.711901729331276e+00 5.562305898749055e-01 1
2.678004312293840e-01 -1.690825378305155e+00 5.562305898749055e-01 1
5.290067270632255e-01 -1.628115294937453e+00 5.562305898749055e-01 1
7.771871216041003e-01 -1.525315609603517e+00 5.562305898749055e-01 1
1.006230589874905e+00 -1.384957591728864e+00 5.562305898749055e-01 1
1.210497321535123e+00 -1.210497321535123e+00 5.562305898749055e-01 1
1.384957591728864e+00 -1.006230589874906e+00 5.562305898749055e-01 1
1.525315609603517e+00 -7.771871216041009e-01 5.562305898749055e-01 1
1.628115294937453e+00 -5.290067270632262e-01 5.562305898749055e-01 1
1.690825378305155e+00 -2.678004312293847e-01 5.562305898749055e-01 1
1.772622479943594e+00 1.360922481141769e-01 2.815820370724157e-01 1
1.731073711418861e+00 4.050868573931749e-01 2.815820370724157e-01 1
1.648950042288511e+00 6.645865740705761e-01 2.815820370724157e-01 1
1.528176381752166e+00 9.085089447292231e-01 2.815820370724157e-01 1
1.371583562049790e+00 1.131136635739892e+00 2.815820370724157e-01 1
1.182841986153286e+00 1.327251442715772e+00 2.815820370724157e-01 1
9.663755966317272e-01 1.492256600800554e+00 2.815820370724157e-01 1
7.272581821870956e-01 1.622284528940614e+00 2.815820370724157e-01 1
4.710944523474497e-01 1.714287482706913e+00 2.815820370724157e-01 1
2.038886678259225e-01 1.766108990841256e+00 2.815820370724157e-01 1
-6.809609426142334e-02 1.776534401114847e+00 2.815820370724157e-01 1
-3.384847416148541e-01 1.745319350747041e+00 2.815820370724157e-01 1
-6.009395935111966e-01 1.673195494061811e+00 2.815820370724157e-01 1
-8.493089306684168e-01 1.561853353130511e+00 2.815820370724157e-01 1
-1.077771186331639e+00 1.413902693367348e+00 2.815820370724157e-01 1
-1.280971398863746e+00 1.232811352840006e+00 2.815820370724157e-01 1
-1.454146727507498e+00 1.022823959084545e+00 2.815820370724157e-01 1
-1.593238089336088e+00 7.888624386335302e-01 2.815820370724157e-01 1
-1.694985300716626e+00 5.364106512297427e-01 2.815820370724157e-01 1
-1.757003493251290e+00 2.713858528017163e-01 2.815820370724157e-01 1
-1.777839013071248e+00 1.007241608231125e-15 2.815820370724157e-01 1
-1.757003493251290e+00 -2.713858528017159e-01 2.815820370724157e-01 1
-1.694985300716626e+00 -5.364106512297431e-01 2.815820370724157e-01 1
-1.593238089336088e+00 -7.888624386335298e-01 2.815820370724157e-01 1
-1.454146727507499e+00 -1.022823959084544e+00 2.815820370724157e-01 1
-1.280971398863746e+00 -1.232811352840006e+00 2.815820370724157e-01 1
-1.077771186331639e+00 -1.413902693367348e+00 2.815820370724157e-01 1
-8.493089306684164e-01 -1.561853353130511e+00 2.815820370724157e-01 1
-6.009395935111966e-01 -1.673195494061811e+00 2.815820370724157e-01 1
-3.384847416148553e-01 -1.745319350747041e+00 2.815820370724157e-01 1
-6.809609426142377e-02 -1.776534401114847e+00 2.815820370724157e-01 1
2.038886678259225e-01 -1.766108990841256e+00 2.815820370724157e-01 1
4.710944523474490e-01 -1.714287482706913e+00 2.815820370724157e-01 1
7.272581821870951e-01 -1.622284528940614e+00 2.815820370724157e-01 1
9.663755966317277e-01 -1.492256600800553e+00 2.815820370724157e-01 1
1.182841986153286e+00 -1.327251442715773e+00 2.815820370724157e-01 1
1.371583562049788e+00 -1.131136635739893e+00 2.815820370724157e-01 1
1.528176381752166e+00 -9.085089447292241e-01 2.815820370724157e-01 1
1.648950042288511e+00 -6.645865740705766e-01 2.815820370724157e-01 1
1.731073711418861e+00 -4.050868573931747e-01 2.815820370724157e-01 1
1.772622479943594e+00 -1.360922481141776e-01 2.815820370724157e-01 1
1.800000000000000e+00 0.000000000000000e+00 1.102182119232618e-16 1
1.779895487205231e+00 2.682760791171140e-01 1.102182119232618e-16 1
1.720031050415053e+00 5.305593139396276e-01 1.102182119232618e-16 1
1.621743962224355e+00 7.809907304116046e-01 1.102182119232618e-16 1
1.487229793768791e+00 1.013976104514520e+00 1.102182119232618e-16 1
1.319493369293687e+00 1.224310927987655e+00 1.102182119232618e-16 1
1.122281643345721e+00 1.407296668442454e+00 1.102182119232618e-16 1
9.000000000000002e-01 1.558845726811990e+00 1.102182119232618e-16 1
6.576138438595109e-01 1.675572747559568e+00 1.102182119232618e-16 1
4.005376811213660e-01 1.754870241927283e+00 1.102182119232618e-16 1
1.345141684555639e-01 1.794966834926124e+00 1.102182119232618e-16 1
-1.345141684555633e-01 1.794966834926124e+00 1.102182119232618e-16 1
-4.005376811213658e-01 1.754870241927283e+00 1.102182119232618e-16 1
-6.576138438595112e-01 1.675572747559568e+00 1.102182119232618e-16 1
-8.999999999999996e-01 1.558845726811990e+00 1.102182119232618e-16 1
-1.122281643345720e+00 1.407296668442454e+00 1.102182119232618e-16 1
-1.319493369293687e+00 1.224310927987655e+00 1.102182119232618e-16 1
-1.487229793768791e+00 1.013976104514519e+00 1.102182119232618e-16 1
-1.621743962224354e+00 7.809907304116048e-01 1.102182119232618e-16 1
-1.720031050415053e+00 5.305593139396283e-01 1.102182119232618e-16 1
-1.779895487205231e+00 2.682760791171145e-01 1.102182119232618e-16 1
-1.800000000000000e+00 2.204364238465236e-16 1.102182119232618e-16 1
-1.779895487205231e+00 -2.682760791171133e-01 1.102182119232618e-16 1
-1.720031050415054e+00 -5.305593139396271e-01 1.102182119232618e-16 1
-1.621743962224355e+00 -7.809907304116044e-01 1.102182119232618e-16 1
-1.487229793768791e+00 -1.013976104514520e+00 1.102182119232618e-16 1
-1.319493369293687e+00 -1.224310927987655e+00 1.102182119232618e-16 1
-1.122281643345721e+00 -1.407296668442453e+00 1.102182119232618e-16 1
-9.000000000000008e-01 -1.558845726811989e+00 1.102182119232618e-16 1
-6.576138438595108e-01 -1.675572747559568e+00 1.102182119232618e-16 1
-4.005376811213663e-01 -1.754870241927283e+00 1.102182119232618e-16 1
-1.345141684555645e-01 -1.794966834926124e+00 1.102182119232618e-16 1
1.345141684555639e-01 -1.794966834926124e+00 1.102182119232618e-16 1
4.005376811213656e-01 -1.754870241927283e+00 1.102182119232618e-16 1
6.576138438595117e-01 -1.675572747559567e+00 1.102182119232618e-16 1
8.999999999999988e-01 -1.558845726811990e+00 1.102182119232618e-16 1
1.122281643345720e+00 -1.407296668442454e+00 1.102182119232618e-16 1
1.319493369293688e+00 -1.224310927987655e+00 1.102182119232618e-16 1
1.487229793768790e+00 -1.013976104514521e+00 1.102182119232618e-16 1
1.621743962224354e+00 -7.809907304116050e-01 1.102182119232618e-16 1
1.720031050415053e+00 -5.305593139396285e-01 1.102182119232618e-16 1
1.779895487205231e+00 -2.682760791171155e-01 1.102182119232618e-16 1
1.772622479943594e+00 1.360922481141769e-01 -2.815820370724155e-01 1
1.731073711418861e+00 4.050868573931749e-01 -2.815820370724155e-01 1
1.648950042288511e+00 6.645865740705761e-01 -2.815820370724155e-01 1
1.528176381752166e+00 9.085089447292231e-01 -2.815820370724155e-01 1
1.371583562049790e+00 1.131136635739892e+00 -2.815820370724155e-01 1
1.182841986153286e+00 1.327251442715772e+00 -2.815820370724155e-01 1
9.663755966317272e-01 1.492256600800554e+00 -2.815820370724155e-01 1
7.272581821870956e-01 1.622284528940614e+00 -2.815820370724155e-01 1
4.710944523474497e-01 1.714287482706913e+00 -2.815820370724155e-01 1
2.038886678259225e-01 1.766108990841256e+00 -2.815820370724155e-01 1
-6.809609426142334e-02 1.776534401114847e+00 -2.815820370724155e-01 1
-3.384847416148541e-01 1.745319350747041e+00 -2.815820370724155e-01 1
-6.009395935111966e-01 1.673195494061811e+00 -2.815820370724155e-01 1
-8.493089306684168e-01 1.561853353130511e+00 -2.815820370724155e-01 1
-1.077771186331639e+00 1.413902693367348e+00 -2.815820370724155e-01 1
-1.280971398863746e+00 1.232811352840006e+00 -2.815820370724155e-01 1
-1.454146727507498e+00 1.022823959084545e+00 -2.815820370724155e-01 1
-1.593238089336088e+00 7.888624386335302e-01 -2.815820370724155e-01 1
-1.694985300716626e+00 5.364106512297427e-01 -2.815820370724155e-01 1
-1.757003493251290e+00 2.713858528017163e-01 -2.815820370724155e-01 1
-1.777839013071248e+00 1.007241608231125e-15 -2.815820370724155e-01 1
-1.757003493251290e+00 -2.713858528017159e-01 -2.815820370724155e-01 1
-1.694985300716626e+00 -5.364106512297431e-01 -2.815820370724155e-01 1
-1.593238089336088e+00 -7.888624386335298e-01 -2.815820370724155e-01 1
-1.454146727507499e+00 -1.022823959084544e+00 -2.815820370724155e-01 1
-1.280971398863746e+00 -1.232811352840006e+00 -2.815820370724155e-01 1
-1.077771186331639e+00 -1.413902693367348e+00 -2.815820370724155e-01 1
-8.493089306684164e-01 -1.561853353130511e+00 -2.815820370724155e-01 1
-6.009395935111966e-01 -1.673195494061811e+00 -2.815820370724155e-01 1
-3.384847416148553e-01 -1.745319350747041e+00 -2.815820370724155e-01 1
-6.809609426142377e-02 -1.776534401114847e+00 -2.815820370724155e-01 1
2.038886678259225e-01 -1.766108990841256e+00 -2.815820370724155e-01 1
4.710944523474490e-01 -1.714287482706913e+00 -2.815820370724155e-01 1
7.272581821870951e-01 -1.622284528940614e+00 -2.815820370724155e-01 1
9.663755966317277e-01 -1.492256600800553e+00 -2.815820370724155e-01 1
1.182841986153286e+00 -1.327251442715773e+00 -2.815820370724155e-01 1
1.371583562049788e+00 -1.131136635739893e+00 -2.815820370724155e-01 1
1.528176381752166e+00 -9.085089447292241e-01 -2.815820370724155e-01 1
1.648950042288511e+00 -6.645865740705766e-01 -2.815820370724155e-01 1
1.731073711418861e+00 -4.050868573931747e-01 -2.815820370724155e-01 1
1.772622479943594e+00 -1.360922481141776e-01 -2.815820370724155e-01 1
1.711901729331277e+00 0.000000000000000e+00 -5.562305898749053e-01 1
1.690825378305155e+00 2.678004312293844e-01 -5.562305898749053e-01 1
1.628115294937453e+00 5.290067270632258e-01 -5.562305898749053e-01 1
1.525315609603517e+00 7.771871216041005e-01 -5.562305898749053e-01 1
1.384957591728864e+00 1.006230589874906e+00 -5.562305898749053e-01 1
1.210497321535123e+00 1.210497321535123e+00 -5.562305898749053e-01 1
1.006230589874906e+00 1.384957591728864e+00 -5.562305898749053e-01 1
7.771871216041006e-01 1.525315609603517e+00 -5.562305898749053e-01 1
5.290067270632259e-01 1.628115294937453e+00 -5.562305898749053e-01 1
2.678004312293845e-01 1.690825378305155e+00 -5.562305898749053e-01 1
1.048237486640183e-16 1.711901729331277e+00 -5.562305898749053e-01 1
-2.678004312293839e-01 1.690825378305155e+00 -5.562305898749053e-01 1
-5.290067270632257e-01 1.628115294937453e+00 -5.562305898749053e-01 1
-7.771871216041004e-01 1.525315609603517e+00 -5.562305898749053e-01 1
-1.006230589874905e+00 1.384957591728864e+00 -5.562305898749053e-01 1
-1.210497321535123e+00 1.210497321535123e+00 -5.562305898749053e-01 1
-1.384957591728864e+00 1.006230589874906e+00 -5.562305898749053e-01 1
-1.525315609603517e+00 7.771871216041008e-01 -5.562305898749053e-01 1
-1.628115294937453e+00 5.290067270632260e-01 -5.562305898749053e-01 1
-1.690825378305155e+00 2.678004312293846e-01 -5.562305898749053e-01 1
-1.711901729331277e+00 2.096474973280367e-16 -5.562305898749053e-01 1
-1.690825378305155e+00 -2.678004312293841e-01 -5.562305898749053e-01 1
-1.628115294937453e+00 -5.290067270632249e-01 -5.562305898749053e-01 1
-1.525315609603517e+00 -7.771871216041004e-01 -5.562305898749053e-01 1
-1.384957591728864e+00 -1.006230589874905e+00 -5.562305898749053e-01 1
-1.210497321535124e+00 -1.210497321535123e+00 -5.562305898749053e-01 1
-1.006230589874906e+00 -1.384957591728864e+00 -5.562305898749053e-01 1
-7.771871216041009e-01 -1.525315609603517e+00 -5.562305898749053e-01 1
-5.290067270632262e-01 -1.628115294937453e+00 -5.562305898749053e-01 1
-2.678004312293846e-01 -1.690825378305155e+00 -5.562305898749053e-01 1
-3.144712459920549e-16 -1.711901729331277e+00 -5.562305898749053e-01 1
2.678004312293840e-01 -1.690825378305155e+00 -5.562305898749053e-01 1
5.290067270632255e-01 -1.628115294937453e+00 -5.562305898749053e-01 1
7.771871216041004e-01 -1.525315609603517e+00 -5.562305898749053e-01 1
1.006230589874905e+00 -1.384957591728864e+00 -5.562305898749053e-01 1
1.210497321535123e+00 -1.210497321535124e+00 -5.562305898749053e-01 1
1.384957591728864e+00 -1.006230589874906e+00 -5.562305898749053e-01 1
1.525315609603517e+00 -7.771871216041010e-01 -5.562305898749053e-01 1
1.628115294937453e+00 -5.290067270632262e-01 -5.562305898749053e-01 1
1.690825378305155e+00 -2.678004312293847e-01 -5.562305898749053e-01 1
1.598033993357332e+00 1.360127375955084e-01 -8.171828995311841e-01 1
1.552061464901610e+00 4.041253739636705e-01 -8.171828995311841e-01 1
1.461438953931864e+00 6.606120591121140e-01 -8.171828995311841e-01 1
1.328773505092703e+00 8.980941380932502e-01 -8.171828995311841e-01 1
1.157881661803857e+00 1.109739683877325e+00 -8.171828995311841e-01 1
9.536796712547486e-01 1.289460039454206e+00 -8.171828995311841e-01 1
7.220420529238476e-01 1.432084977409973e+00 -8.171828995311841e-01 1
4.696325993489844e-01 1.533511437956210e+00 -8.171828995311841e-01 1
2.037126709487718e-01 1.590821566489694e+00 -8.171828995311841e-01 1
-6.806770009590993e-02 1.602366654956805e+00 -8.171828995311841e-01 1
-3.378898873393826e-01 1.567814572182433e+00 -8.171828995311841e-01 1
-5.979915977186702e-01 1.488159318679179e+00 -8.171828995311841e-01 1
-8.408901785921530e-01 1.365692431062376e+00 -8.171828995311841e-01 1
-1.059597880032434e+00 1.203937058713859e+00 -8.171828995311841e-01 1
-1.247822879669186e+00 1.007546609188829e+00 -8.171828995311841e-01 1
-1.400150286963253e+00 7.821708781529307e-01 -8.171828995311841e-01 1
-1.512197919748598e+00 5.342935150475047e-01 -8.171828995311841e-01 1
-1.580742371634598e+00 2.710455002999166e-01 -8.171828995311841e-01 1
-1.603811743539062e+00 1.964102918160048e-16 -8.171828995311841e-01 1
-1.580742371634598e+00 -2.710455002999162e-01 -8.171828995311841e-01 1
-1.512197919748598e+00 -5.342935150475043e-01 -8.171828995311841e-01 1
-1.400150286963253e+00 -7.821708781529297e-01 -8.171828995311841e-01 1
-1.247822879669186e+00 -1.007546609188829e+00 -8.171828995311841e-01 1
-1.059597880032434e+00 -1.203937058713859e+00 -8.171828995311841e-01 1
-8.408901785921539e-01 -1.365692431062376e+00 -8.171828995311841e-01 1
-5.979915977186705e-01 -1.488159318679179e+00 -8.171828995311841e-01 1
-3.378898873393823e-01 -1.567814572182433e+00 -8.171828995311841e-01 1
-6.806770009591068e-02 -1.602366654956805e+00 -8.171828995311841e-01 1
2.037126709487707e-01 -1.590821566489694e+00 -8.171828995311841e-01 1
4.696325993489837e-01 -1.533511437956210e+00 -8.171828995311841e-01 1
7.220420529238476e-01 -1.432084977409973e+00 -8.171828995311841e-01 1
9.536796712547490e-01 -1.289460039454205e+00 -8.171828995311841e-01 1
1.157881661803857e+00 -1.109739683877325e+00 -8.171828995311841e-01 1
1.328773505092703e+00 -8.980941380932513e-01 -8.171828995311841e-01 1
1.461438953931863e+00 -6.606120591121144e-01 -8.171828995311841e-01 1
1.552061464901610e+00 -4.041253739636704e-01 -8.171828995311841e-01 1
1.598033993357332e+00 -1.360127375955091e-01 -8.171828995311841e-01 1
1.456230589874906e+00 0.000000000000000e+00 -1.058013454126451e+00 1
1.431435496783853e+00 2.675816687192537e-01 -1.058013454126451e+00 1
1.357894584667473e+00 5.260511646391114e-01 -1.058013454126451e+00 1
1.238112201085289e+00 7.666066190760140e-01 -1.058013454126451e+00 1
1.076167391447056e+00 9.810562045435801e-01 -1.058013454126451e+00 1
8.775749920136138e-01 1.162097097612640e+00 -1.058013454126451e+00 1
6.490978287623389e-01 1.303564167804344e+00 -1.058013454126451e+00 1
3.985164174595998e-01 1.400639923714365e+00 -1.058013454126451e+00 1
1.343640075280341e-01 1.450018566904721e+00 -1.058013454126451e+00 1
-1.343640075280339e-01 1.450018566904721e+00 -1.058013454126451e+00 1
-3.985164174595996e-01 1.400639923714365e+00 -1.058013454126451e+00 1
-6.490978287623381e-01 1.303564167804345e+00 -1.058013454126451e+00 1
-8.775749920136136e-01 1.162097097612640e+00 -1.058013454126451e+00 1
-1.076167391447056e+00 9.810562045435800e-01 -1.058013454126451e+00 1
-1.238112201085288e+00 7.666066190760146e-01 -1.058013454126451e+00 1
-1.357894584667473e+00 5.260511646391119e-01 -1.058013454126451e+00 1
-1.431435496783853e+00 2.675816687192537e-01 -1.058013454126451e+00 1
-1.456230589874906e+00 1.783368130710765e-16 -1.058013454126451e+00 1
-1.431435496783853e+00 -2.675816687192534e-01 -1.058013454126451e+00 1
-1.357894584667473e+00 -5.260511646391111e-01 -1.058013454126451e+00 1
-1.238112201085289e+00 -7.666066190760142e-01 -1.058013454126451e+00 1
-1.076167391447056e+00 -9.810562045435801e-01 -1.058013454126451e+00 1
-8.775749920136149e-01 -1.162097097612639e+00 -1.058013454126451e+00 1
-6.490978287623397e-01 -1.303564167804344e+00 -1.058013454126451e+00 1
-3.985164174596000e-01 -1.400639923714365e+00 -1.058013454126451e+00 1
-1.343640075280340e-01 -1.450018566904721e+00 -1.058013454126451e+00 1
1.343640075280347e-01 -1.450018566904721e+00 -1.058013454126451e+00 1
3.985164174595995e-01 -1.400639923714365e+00 -1.058013454126451e+00 1
6.490978287623380e-01 -1.303564167804345e+00 -1.058013454126451e+00 1
8.775749920136134e-01 -1.162097097612640e+00 -1.058013454126451e+00 1
1.076167391447055e+00 -9.810562045435809e-01 -1.058013454126451e+00 1
1.238112201085288e+00 -7.666066190760147e-01 -1.058013454126451e+00 1
1.357894584667473e+00 -5.260511646391116e-01 -1.058013454126451e+00 1
1.431435496783853e+00 -2.675816687192533e-01 -1.058013454126451e+00 1
1.265819717256128e+00 1.330430133664201e-01 -1.272792206135785e+00 1
1.210497321535123e+00 3.933144220039390e-01 -1.272792206135785e+00 1
1.102270384252430e+00 6.363961030678927e-01 -1.272792206135785e+00 1
9.458689418977660e-01 8.516642206604672e-01 -1.272792206135785e+00 1
7.481284879994162e-01 1.029710525071832e+00 -1.272792206135785e+00 1
5.176912292567116e-01 1.162753538438252e+00 -1.272792206135785e+00 1
2.646283796373571e-01 1.244978642664406e+00 -1.272792206135785e+00 1
3.605526876242740e-16 1.272792206135786e+00 -1.272792206135785e+00 1
-2.646283796373573e-01 1.244978642664406e+00 -1.272792206135785e+00 1
-5.176912292567112e-01 1.162753538438252e+00 -1.272792206135785e+00 1
-7.481284879994161e-01 1.029710525071832e+00 -1.272792206135785e+00 1
-9.458689418977658e-01 8.516642206604673e-01 -1.272792206135785e+00 1
-1.102270384252430e+00 6.363961030678927e-01 -1.272792206135785e+00 1
-1.210497321535123e+00 3.933144220039391e-01 -1.272792206135785e+00 1
-1.265819717256128e+00 1.330430133664199e-01 -1.272792206135785e+00 1
-1.265819717256128e+00 -1.330430133664196e-01 -1.272792206135785e+00 1
-1.210497321535123e+00 -3.933144220039388e-01 -1.272792206135785e+00 1
-1.102270384252430e+00 -6.363961030678925e-01 -1.272792206135785e+00 1
-9.458689418977660e-01 -8.516642206604672e-01 -1.272792206135785e+00 1
-7.481284879994164e-01 -1.029710525071832e+00 -1.272792206135785e+00 1
-5.176912292567123e-01 -1.162753538438251e+00 -1.272792206135785e+00 1
-2.646283796373579e-01 -1.244978642664406e+00 -1.272792206135785e+00 1
-2.338081351835832e-16 -1.272792206135786e+00 -1.272792206135785e+00 1
2.646283796373574e-01 -1.244978642664406e+00 -1.272792206135785e+00 1
5.176912292567108e-01 -1.162753538438252e+00 -1.272792206135785e+00 1
7.481284879994160e-01 -1.029710525071832e+00 -1.272792206135785e+00 1
9.458689418977660e-01 -8.516642206604670e-01 -1.272792206135785e+00 1
1.102270384252430e+00 -6.363961030678924e-01 -1.272792206135785e+00 1
1.210497321535123e+00 -3.933144220039392e-01 -1.272792206135785e+00 1
1.265819717256128e+00 -1.330430133664200e-01 -1.272792206135785e+00 1
1.058013454126452e+00 0.000000000000000e+00 -1.456230589874905e+00 1
1.024774015914421e+00 2.631172465256056e-01 -1.456230589874905e+00 1
9.271442574272916e-01 5.097018687744649e-01 -1.456230589874905e+00 1
7.712586154479462e-01 7.242600480558780e-01 -1.456230589874905e+00 1
5.669119581692343e-01 8.933103048758085e-01 -1.456230589874905e+00 1
3.269441376024125e-01 1.006230589874906e+00 -1.456230589874905e+00 1
6.643321445360344e-02 1.055925706254918e+00 -1.456230589874905e+00 1
-1.982519518835978e-01 1.039273127087836e+00 -1.456230589874905e+00 1
-4.504802189642763e-01 9.573191951666296e-01 -1.456230589874905e+00 1
-6.744031571370753e-01 8.152133774393862e-01 -1.456230589874905e+00 1
-8.559508646656383e-01 6.218847050625476e-01 -1.456230589874905e+00 1
-9.837160314001830e-01 3.894807295346713e-01 -1.456230589874905e+00 1
-1.049670702027364e+00 1.326042473602072e-01 -1.456230589874905e+00 1
-1.049670702027364e+00 -1.326042473602069e-01 -1.456230589874905e+00 1
-9.837160314001832e-01 -3.894807295346711e-01 -1.456230589874905e+00 1
-8.559508646656387e-01 -6.218847050625470e-01 -1.456230589874905e+00 1
-6.744031571370751e-01 -8.152133774393863e-01 -1.456230589874905e+00 1
-4.504802189642756e-01 -9.573191951666299e-01 -1.456230589874905e+00 1
-1.982519518835978e-01 -1.039273127087836e+00 -1.456230589874905e+00 1
6.643321445360270e-02 -1.055925706254918e+00 -1.456230589874905e+00 1
3.269441376024123e-01 -1.006230589874906e+00 -1.456230589874905e+00 1
5.669119581692346e-01 -8.933103048758084e-01 -1.456230589874905e+00 1
7.712586154479458e-01 -7.242600480558783e-01 -1.456230589874905e+00 1
9.271442574272911e-01 -5.097018687744657e-01 -1.456230589874905e+00 1
1.024774015914421e+00 -2.631172465256062e-01 -1.456230589874905e+00 1
8.071220220006787e-01 1.278355697281855e-01 -1.603811743539062e+00 1
7.281152949374529e-01 3.709932729367742e-01 -1.603811743539062e+00 1
5.778355697281857e-01 5.778355697281856e-01 -1.603811743539062e+00 1
3.709932729367743e-01 7.281152949374528e-01 -1.603811743539062e+00 1
1.278355697281856e-01 8.071220220006787e-01 -1.603811743539062e+00 1
-1.278355697281853e-01 8.071220220006787e-01 -1.603811743539062e+00 1
-3.709932729367742e-01 7.281152949374529e-01 -1.603811743539062e+00 1
-5.778355697281856e-01 5.778355697281857e-01 -1.603811743539062e+00 1
-7.281152949374528e-01 3.709932729367743e-01 -1.603811743539062e+00 1
-8.071220220006786e-01 1.278355697281857e-01 -1.603811743539062e+00 1
-8.071220220006787e-01 -1.278355697281854e-01 -1.603811743539062e+00 1
-7.281152949374529e-01 -3.709932729367742e-01 -1.603811743539062e+00 1
-5.778355697281857e-01 -5.778355697281856e-01 -1.603811743539062e+00 1
-3.709932729367744e-01 -7.281152949374528e-01 -1.603811743539062e+00 1
-1.278355697281857e-01 -8.071220220006786e-01 -1.603811743539062e+00 1
1.278355697281854e-01 -8.071220220006787e-01 -1.603811743539062e+00 1
3.709932729367741e-01 -7.281152949374529e-01 -1.603811743539062e+00 1
5.778355697281855e-01 -5.778355697281857e-01 -1.603811743539062e+00 1
7.281152949374528e-01 -3.709932729367744e-01 -1.603811743539062e+00 1
8.071220220006786e-01 -1.278355697281857e-01 -1.603811743539062e+00 1
5.562305898749055e-01 0.000000000000000e+00 -1.711901729331276e+00 1
5.011464448522884e-01 2.413394081464890e-01 -1.711901729331276e+00 1
3.468041002688713e-01 4.348785866759640e-01 -1.711901729331276e+00 1
1.237729503540357e-01 5.422847276784059e-01 -1.711901729331276e+00 1
-1.237729503540356e-01 5.422847276784059e-01 -1.711901729331276e+00 1
-3.468041002688713e-01 4.348785866759641e-01 -1.711901729331276e+00 1
-5.011464448522883e-01 2.413394081464890e-01 -1.711901729331276e+00 1
-5.562305898749055e-01 6.811860114781472e-17 -1.711901729331276e+00 1
-5.011464448522884e-01 -2.413394081464889e-01 -1.711901729331276e+00 1
-3.468041002688714e-01 -4.348785866759640e-01 -1.711901729331276e+00 1
-1.237729503540358e-01 -5.422847276784059e-01 -1.711901729331276e+00 1
1.237729503540351e-01 -5.422847276784060e-01 -1.711901729331276e+00 1
3.468041002688712e-01 -4.348785866759641e-01 -1.711901729331276e+00 1
5.011464448522885e-01 -2.413394081464886e-01 -1.711901729331276e+00 1
2.601478807740393e-01 1.077567804392260e-01 -1.777839013071248e+00 1
1.077567804392260e-01 2.601478807740393e-01 -1.777839013071248e+00 1
-1.077567804392260e-01 2.601478807740393e-01 -1.777839013071248e+00 1
-2.601478807740393e-01 1.077567804392260e-01 -1.777839013071248e+00 1
-2.601478807740393e-01 -1.077567804392260e-01 -1.777839013071248e+00 1
-1.077567804392262e-01 -2.601478807740392e-01 -1.777839013071248e+00 1
1.077567804392261e-01 -2.601478807740392e-01 -1.777839013071248e+00 1
2.601478807740392e-01 -1.077567804392262e-01 -1.777839013071248e+00 1
0.000000000000000e+00 0.000000000000000e+00 -1.800000000000000e+00 1
Triangles
1080
1 2 3 1
1 3 4 1
1 4 5 1
1 5 6 1
1 6 7 1
1 7 8 1
1 8 9 1
1 9 2 1
2 10 11 1
2 11 12 1
2 12 3 1
3 12 13 1
3 13 14 1
3 14 4 1
4 14 15 1
4 15 16 1
4 16 5 1
5 16 17 1
5 17 6 1
6 17 18 1
6 18 19 1
6 19 7 1
7 19 20 1
7 20 21 1
7 21 8 1
8 21 22 1
8 22 23 1
8 23 9 1
9 23 10 1
9 10 2 1
10 24 11 1
11 24 25 1
11 25 26 1
11 26 12 1
12 26 27 1
12 27 13 1
13 27 28 1
13 28 29 1
13 29 14 1
14 29 30 1
14 30 15 1
15 30 31 1
15 31 32 1
15 32 16 1
16 32 33 1
16 33 17 1
17 33 34 1
17 34 18 1
18 34 35 1
18 35 36 1
18 36 19 1
19 36 37 1
19 37 20 1
20 37 38 1
20 38 39 1
20 39 21 1
21 39 40 1
21 40 22 1
22 40 41 1
22 41 42 1
22 42 23 1
23 42 43 1
23 43 10 1
10 43 24 1
24 44 45 1
24 45 25 1
25 45 46 1
25 46 47 1
25 47 26 1
26 47 48 1
26 48 27 1
27 48 49 1
27 49 28 1
28 49 50 1
28 50 29 1
29 50 51 1
29 51 52 1
29 52 30 1
30 52 53 1
30 53 31 1
31 53 54 1
31 54 32 1
32 54 55 1
32 55 33 1
33 55 56 1
33 56 57 1
33 57 34 1
34 57 58 1
34 58 35 1
35 58 59 1
35 59 36 1
36 59 60 1
36 60 37 1
37 60 61 1
37 61 62 1
37 62 38 1
38 62 63 1
38 63 39 1
39 63 64 1
39 64 40 1
40 64 65 1
40 65 41 1
41 65 66 1
41 66 67 1
41 67 42 1
42 67 68 1
42 68 43 1
43 68 44 1
43 44 24 1
44 69 45 1
45 69 70 1
45 70 46 1
46 70 71 1
46 71 72 1
46 72 47 1
47 72 73 1
47 73 48 1
48 73 74 1
48 74 49 1
49 74 75 1
49 75 50 1
50 75 76 1
50 76 51 1
51 76 77 1
51 77 78 1
51 78 52 1
52 78 79 1
52 79 53 1
53 79 80 1
53 80 54 1
54 80 81 1
54 81 55 1
55 81 82 1
55 82 56 1
56 82 83 1
56 83 84 1
56 84 57 1
57 84 85 1
57 85 58 1
58 85 86 1
58 86 59 1
59 86 87 1
59 87 60 1
60 87 88 1
60 88 61 1
61 88 89 1
61 89 90 1
61 90 62 1
62 90 91 1
62 91 63 1
63 91 92 1
63 92 64 1
64 92 93 1
64 93 65 1
65 93 94 1
65 94 66 1
66 94 95 1
66 95 96 1
66 96 67 1
67 96 97 1
67 97 68 1
68 97 98 1
68 98 44 1
44 98 69 1
69 99 100 1
69 100 70 1
70 100 101 1
70 101 71 1
71 101 102 1
71 102 72 1
72 102 103 1
72 103 104 1
72 104 73 1
73 104 105 1
73 105 74 1
74 105 106 1
74 106 75 1
75 106 107 1
75 107 76 1
76 107 108 1
76 108 77 1
77 108 109 1
77 109 78 1
78 109 110 1
78 110 79 1
79 110 111 1
79 111 112 1
79 112 80 1
80 112 113 1
80 113 81 1
81 113 114 1
81 114 82 1
82 114 115 1
82 115 83 1
83 115 116 1
83 116 84 1
84 116 117 1
84 117 85 1
85 117 118 1
85 118 86 1
86 118 119 1
86 119 87 1
87 119 120 1
87 120 121 1
87 121 88 1
88 121 122 1
88 122 89 1
89 122 123 1
89 123 90 1
90 123 124 1
90 124 91 1
91 124 125 1
91 125 92 1
92 125 126 1
92 126 93 1
93 126 127 1
93 127 94 1
94 127 128 1
94 128 129 1
94 129 95 1
95 129 130 1
95 130 96 1
96 130 131 1
96 131 97 1
97 131 132 1
97 132 98 1
98 132 99 1
98 99 69 1
99 133 100 1
100 133 134 1
100 134 101 1
101 134 135 1
101 135 102 1
102 135 136 1
102 136 103 1
103 136 137 1
103 137 104 1
104 137 138 1
104 138 139 1
104 139 105 1
105 139 140 1
105 140 106 1
106 140 141 1
106 141 107 1
107 141 142 1
107 142 108 1
108 142 143 1
108 143 109 1
109 143 144 1
109 144 110 1
110 144 145 1
110 145 111 1
111 145 146 1
111 146 112 1
112 146 147 1
112 147 113 1
113 147 148 1
113 148 114 1
114 148 149 1
114 149 115 1
115 149 150 1
115 150 151 1
115 151 116 1
116 151 152 1
116 152 117 1
117 152 153 1
117 153 118 1
118 153 154 1
118 154 119 1
119 154 155 1
119 155 120 1
120 155 156 1
120 156 121 1
121 156 157 1
121 157 122 1
122 157 158 1
122 158 123 1
123 158 159 1
123 159 124 1
124 159 160 1
124 160 125 1
125 160 161 1
125 161 126 1
126 161 162 1
126 162 127 1
127 162 163 1
127 163 164 1
127 164 128 1
128 164 165 1
128 165 129 1
129 165 166 1
129 166 130 1
130 166 167 1
130 167 131 1
131 167 168 1
131 168 132 1
132 168 169 1
132 169 99 1
99 169 133 1
133 170 171 1
133 171 134 1
134 171 172 1
134 172 135 1
135 172 173 1
135 173 136 1
136 173 174 1
136 174 137 1
137 174 175 1
137 175 138 1
138 175 176 1
138 176 177 1
138 177 139 1
139 177 178 1
139 178 140 1
140 178 179 1
140 179 141 1
141 179 180 1
141 180 142 1
142 180 181 1
142 181 143 1
143 181 182 1
143 182 144 1
144 182 183 1
144 183 145 1
145 183 184 1
145 184 146 1
146 184 185 1
146 185 147 1
147 185 186 1
147 186 148 1
148 186 187 1
148 187 149 1
149 187 188 1
149 188 150 1
150 188 189 1
150 189 190 1
150 190 151 1
151 190 191 1
151 191 152 1
152 191 192 1
152 192 153 1
153 192 193 1
153 193 154 1
154 193 194 1
154 194 155 1
155 194 195 1
155 195 156 1
156 195 196 1
156 196 157 1
157 196 197 1
157 197 158 1
158 197 198 1
158 198 159 1
159 198 199 1
159 199 160 1
160 199 200 1
160 200 161 1
161 200 201 1
161 201 162 1
162 201 202 1
162 202 163 1
163 202 203 1
163 203 204 1
163 204 164 1
164 204 205 1
164 205 165 1
165 205 206 1
165 206 166 1
166 206 207 1
166 207 167 1
167 207 208 1
167 208 168 1
168 208 209 1
168 209 169 1
169 209 170 1
169 170 133 1
170 210 171 1
171 210 211 1
171 211 172 1
172 211 212 1
172 212 173 1
173 212 213 1
173 213 174 1
174 213 214 1
174 214 175 1
175 214 215 1
175 215 176 1
176 215 216 1
176 216 177 1
177 216 217 1
177 217 178 1
178 217 218 1
178 218 179 1
179 218 219 1
179 219 180 1
180 219 220 1
180 220 181 1
181 220 221 1
181 221 182 1
182 221 222 1
182 222 183 1
183 222 223 1
183 223 184 1
184 223 224 1
184 224 185 1
185 224 225 1
185 225 186 1
186 225 226 1
186 226 187 1
187 226 227 1
187 227 188 1
188 227 228 1
188 228 189 1
189 228 229 1
189 229 230 1
189 230 190 1
190 230 231 1
190 231 191 1
191 231 232 1
191 232 192 1
192 232 233 1
192 233 193 1
193 233 234 1
193 234 194 1
194 234 235 1
194 235 195 1
195 235 236 1
195 236 196 1
196 236 237 1
196 237 197 1
197 237 238 1
197 238 198 1
198 238 239 1
198 239 199 1
199 239 240 1
199 240 200 1
200 240 241 1
200 241 201 1
201 241 242 1
201 242 202 1
202 242 243 1
202 243 203 1
203 243 244 1
203 244 204 1
204 244 245 1
204 245 205 1
205 245 246 1
205 246 206 1
206 246 247 1
206 247 207 1
207 247 248 1
207 248 208 1
208 248 249 1
208 249 209 1
209 249 250 1
209 250 170 1
170 250 210 1
210 251 252 1
210 252 211 1
211 252 253 1
211 253 212 1
212 253 254 1
212 254 213 1
213 254 255 1
213 255 214 1
214 255 256 1
214 256 215 1
215 256 257 1
215 257 216 1
216 257 258 1
216 258 217 1
217 258 259 1
217 259 218 1
218 259 260 1
218 260 219 1
219 260 261 1
219 261 220 1
220 261 262 1
220 262 221 1
221 262 263 1
221 263 222 1
222 263 264 1
222 264 223 1
223 264 265 1
223 265 224 1
224 265 266 1
224 266 225 1
225 266 267 1
225 267 226 1
226 267 268 1
226 268 227 1
227 268 269 1
227 269 228 1
228 269 270 1
228 270 229 1
229 270 271 1
229 271 230 1
230 271 272 1
230 272 273 1
230 273 231 1
231 273 274 1
231 274 232 1
232 274 275 1
232 275 233 1
233 275 276 1
233 276 234 1
234 276 277 1
234 277 235 1
235 277 278 1
235 278 236 1
236 278 279 1
236 279 237 1
237 279 280 1
237 280 238 1
238 280 281 1
238 281 239 1
239 281 282 1
239 282 240 1
240 282 283 1
240 283 241 1
241 283 284 1
241 284 242 1
242 284 285 1
242 285 243 1
243 285 286 1
243 286 244 1
244 286 287 1
244 287 245 1
245 287 288 1
245 288 246 1
246 288 289 1
246 289 247 1
247 289 290 1
247 290 248 1
248 290 291 1
248 291 249 1
249 291 292 1
249 292 250 1
250 292 251 1
250 251 210 1
251 293 252 2
252 293 294 2
252 294 253 2
253 294 295 2
253 295 254 2
254 295 296 2
254 296 255 2
255 296 297 2
255 297 256 2
256 297 298 2
256 298 257 2
257 298 299 2
257 299 258 2
258 299 300 2
258 300 259 2
259 300 301 2
259 301 260 2
260 301 302 2
260 302 261 2
261 302 303 2
261 303 262 2
262 303 304 2
262 304 263 2
263 304 305 2
263 305 264 2
264 305 306 2
264 306 265 2
265 306 307 2
265 307 266 2
266 307 308 2
266 308 267 2
267 308 309 2
267 309 268 2
268 309 310 2
268 310 269 2
269 310 311 2
269 311 270 2
270 311 312 2
270 312 271 2
271 312 313 2
271 313 272 2
272 313 273 2
273 313 314 2
273 314 274 2
274 314 315 2
274 315 275 2
275 315 316 2
275 316 276 2
276 316 317 2
276 317 277 2
277 317 318 2
277 318 278 2
278 318 319 2
278 319 279 2
279 319 320 2
279 320 280 2
280 320 321 2
280 321 281 2
281 321 322 2
281 322 282 2
282 322 323 2
282 323 283 2
283 323 324 2
283 324 284 2
284 324 325 2
284 325 285 2
285 325 326 2
285 326 286 2
286 326 327 2
286 327 287 2
287 327 328 2
287 328 288 2
288 328 329 2
288 329 289 2
289 329 330 2
289 330 290 2
290 330 331 2
290 331 291 2
291 331 332 2
291 332 292 2
292 332 333 2
292 333 251 2
251 333 293 2
293 334 335 2
293 335 294 2
294 335 336 2
294 336 295 2
295 336 337 2
295 337 296 2
296 337 338 2
296 338 297 2
297 338 339 2
297 339 298 2
298 339 340 2
298 340 299 2
299 340 341 2
299 341 300 2
300 341 342 2
300 342 301 2
301 342 343 2
301 343 302 2
302 343 344 2
302 344 303 2
303 344 345 2
303 345 304 2
304 345 346 2
304 346 305 2
305 346 347 2
305 347 306 2
306 347 348 2
306 348 307 2
307 348 349 2
307 349 308 2
308 349 350 2
308 350 309 2
309 350 351 2
309 351 310 2
310 351 352 2
310 352 311 2
311 352 353 2
311 353 312 2
312 353 313 2
313 353 354 2
313 354 314 2
314 354 355 2
314 355 315 2
315 355 356 2
315 356 316 2
316 356 357 2
316 357 317 2
317 357 358 2
317 358 318 2
318 358 359 2
318 359 319 2
319 359 360 2
319 360 320 2
320 360 361 2
320 361 321 2
321 361 362 2
321 362 322 2
322 362 363 2
322 363 323 2
323 363 364 2
323 364 324 2
324 364 365 2
324 365 325 2
325 365 366 2
325 366 326 2
326 366 367 2
326 367 327 2
327 367 368 2
327 368 328 2
328 368 369 2
328 369 329 2
329 369 370 2
329 370 330 2
330 370 371 2
330 371 331 2
331 371 372 2
331 372 332 2
332 372 373 2
332 373 333 2
333 373 334 2
333 334 293 2
334 374 335 2
335 374 375 2
335 375 336 2
336 375 376 2
336 376 337 2
337 376 377 2
337 377 338 2
338 377 378 2
338 378 339 2
339 378 379 2
339 379 340 2
340 379 341 2
341 379 380 2
341 380 342 2
342 380 381 2
342 381 343 2
343 381 382 2
343 382 344 2
344 382 383 2
344 383 345 2
345 383 384 2
345 384 346 2
346 384 385 2
346 385 347 2
347 385 386 2
347 386 348 2
348 386 387 2
348 387 349 2
349 387 388 2
349 388 350 2
350 388 389 2
350 389 351 2
351 389 390 2
351 390 352 2
352 390 391 2
352 391 353 2
353 391 392 2
353 392 354 2
354 392 355 2
355 392 393 2
355 393 356 2
356 393 394 2
356 394 357 2
357 394 395 2
357 395 358 2
358 395 396 2
358 396 359 2
359 396 397 2
359 397 360 2
360 397 398 2
360 398 361 2
361 398 399 2
361 399 362 2
362 399 400 2
362 400 363 2
363 400 401 2
363 401 364 2
364 401 402 2
364 402 365 2
365 402 403 2
365 403 366 2
366 403 404 2
366 404 367 2
367 404 368 2
368 404 405 2
368 405 369 2
369 405 406 2
369 406 370 2
370 406 407 2
370 407 371 2
371 407 408 2
371 408 372 2
372 408 409 2
372 409 373 2
373 409 410 2
373 410 334 2
334 410 374 2
374 411 412 2
374 412 375 2
375 412 413 2
375 413 376 2
376 413 414 2
376 414 377 2
377 414 415 2
377 415 378 2
378 415 416 2
378 416 379 2
379 416 380 2
380 416 417 2
380 417 381 2
381 417 418 2
381 418 382 2
382 418 419 2
382 419 383 2
383 419 420 2
383 420 384 2
384 420 421 2
384 421 385 2
385 421 422 2
385 422 386 2
386 422 423 2
386 423 387 2
387 423 424 2
387 424 388 2
388 424 425 2
388 425 389 2
389 425 426 2
389 426 390 2
390 426 427 2
390 427 391 2
391 427 428 2
391 428 392 2
392 428 393 2
393 428 429 2
393 429 394 2
394 429 430 2
394 430 395 2
395 430 431 2
395 431 396 2
396 431 432 2
396 432 397 2
397 432 433 2
397 433 398 2
398 433 434 2
398 434 399 2
399 434 435 2
399 435 400 2
400 435 436 2
400 436 401 2
401 436 437 2
401 437 402 2
402 437 438 2
402 438 403 2
403 438 439 2
403 439 404 2
404 439 405 2
405 439 440 2
405 440 406 2
406 440 441 2
406 441 407 2
407 441 442 2
407 442 408 2
408 442 443 2
408 443 409 2
409 443 444 2
409 444 410 2
410 444 411 2
410 411 374 2
411 445 412 2
412 445 446 2
412 446 413 2
413 446 447 2
413 447 414 2
414 447 448 2
414 448 415 2
415 448 416 2
416 448 449 2
416 449 417 2
417 449 450 2
417 450 418 2
418 450 451 2
418 451 419 2
419 451 452 2
419 452 420 2
420 452 453 2
420 453 421 2
421 453 454 2
421 454 422 2
422 454 455 2
422 455 423 2
423 455 424 2
424 455 456 2
424 456 425 2
425 456 457 2
425 457 426 2
426 457 458 2
426 458 427 2
427 458 459 2
427 459 428 2
428 459 460 2
428 460 429 2
429 460 461 2
429 461 430 2
430 461 462 2
430 462 431 2
431 462 463 2
431 463 432 2
432 463 433 2
433 463 464 2
433 464 434 2
434 464 465 2
434 465 435 2
435 465 466 2
435 466 436 2
436 466 467 2
436 467 437 2
437 467 468 2
437 468 438 2
438 468 469 2
438 469 439 2
439 469 470 2
439 470 440 2
440 470 441 2
441 470 471 2
441 471 442 2
442 471 472 2
442 472 443 2
443 472 473 2
443 473 444 2
444 473 474 2
444 474 411 2
411 474 445 2
445 475 476 2
445 476 446 2
446 476 477 2
446 477 447 2
447 477 448 2
448 477 478 2
448 478 449 2
449 478 479 2
449 479 450 2
450 479 480 2
450 480 451 2
451 480 481 2
451 481 452 2
452 481 482 2
452 482 453 2
453 482 454 2
454 482 483 2
454 483 455 2
455 483 484 2
455 484 456 2
456 484 485 2
456 485 457 2
457 485 486 2
457 486 458 2
458 486 487 2
458 487 459 2
459 487 460 2
460 487 488 2
460 488 461 2
461 488 489 2
461 489 462 2
462 489 490 2
462 490 463 2
463 490 491 2
463 491 464 2
464 491 492 2
464 492 465 2
465 492 466 2
466 492 493 2
466 493 467 2
467 493 494 2
467 494 468 2
468 494 495 2
468 495 469 2
469 495 496 2
469 496 470 2
470 496 497 2
470 497 471 2
471 497 472 2
472 497 498 2
472 498 473 2
473 498 499 2
473 499 474 2
474 499 475 2
474 475 445 2
475 500 476 2
476 500 501 2
476 501 477 2
477 501 478 2
478 501 502 2
478 502 479 2
479 502 503 2
479 503 480 2
480 503 504 2
480 504 481 2
481 504 505 2
481 505 482 2
482 505 483 2
483 505 506 2
483 506 484 2
484 506 507 2
484 507 485 2
485 507 508 2
485 508 486 2
486 508 509 2
486 509 487 2
487 509 488 2
488 509 510 2
488 510 489 2
489 510 511 2
489 511 490 2
490 511 512 2
490 512 491 2
491 512 513 2
491 513 492 2
492 513 493 2
493 513 514 2
493 514 494 2
494 514 515 2
494 515 495 2
495 515 516 2
495 516 496 2
496 516 517 2
496 517 497 2
497 517 498 2
498 517 518 2
498 518 499 2
499 518 519 2
499 519 475 2
475 519 500 2
500 520 521 2
500 521 501 2
501 521 502 2
502 521 522 2
502 522 503 2
503 522 523 2
503 523 504 2
504 523 505 2
505 523 524 2
505 524 506 2
506 524 525 2
506 525 507 2
507 525 508 2
508 525 526 2
508 526 509 2
509 526 527 2
509 527 510 2
510 527 528 2
510 528 511 2
511 528 512 2
512 528 529 2
512 529 513 2
513 529 530 2
513 530 514 2
514 530 515 2
515 530 531 2
515 531 516 2
516 531 532 2
516 532 517 2
517 532 518 2
518 532 533 2
518 533 519 2
519 533 520 2
519 520 500 2
520 534 521 2
521 534 522 2
522 534 535 2
522 535 523 2
523 535 524 2
524 535 536 2
524 536 525 2
525 536 526 2
526 536 537 2
526 537 527 2
527 537 538 2
527 538 528 2
528 538 529 2
529 538 539 2
529 539 530 2
530 539 531 2
531 539 540 2
531 540 532 2
532 540 533 2
533 540 541 2
533 541 520 2
520 541 534 2
534 542 535 2
535 542 536 2
536 542 537 2
537 542 538 2
538 542 539 2
539 542 540 2
540 542 541 2
541 542 534 2
End
