MeshVersionFormatted 1
Dimension 
2
Vertices
403
1.080000000000000e-01  0.000000000000000e+00  2
0.000000000000000e+00  1.080000000000000e-01  2
-1.080000000000000e-01  0.000000000000000e+00  2
0.000000000000000e+00  -1.080000000000000e-01  2
6.000000000000000e-01  0.000000000000000e+00  3
0.000000000000000e+00  6.000000000000000e-01  3
-6.000000000000000e-01  0.000000000000000e+00  3
0.000000000000000e+00  -6.000000000000000e-01  3
9.200000000000000e-02  0.000000000000000e+00  1
0.000000000000000e+00  9.200000000000000e-02  1
-9.200000000000000e-02  0.000000000000000e+00  1
0.000000000000000e+00  -9.200000000000000e-02  1
6.750000000000000e-02  0.000000000000000e+00  4
5.000000000000000e-02  1.750000000000000e-02  4
3.250000000000000e-02  0.000000000000000e+00  4
5.000000000000000e-02  -1.750000000000000e-02  4
-7.499999999999989e-03  4.330127018922194e-02  5
-2.499999999999999e-02  6.080127018922194e-02  5
-4.250000000000000e-02  4.330127018922194e-02  5
-2.499999999999999e-02  2.580127018922194e-02  5
-7.499999999999989e-03  -4.330127018922194e-02  6
-2.499999999999999e-02  -2.580127018922194e-02  6
-4.250000000000000e-02  -4.330127018922194e-02  6
-2.499999999999999e-02  -6.080127018922194e-02  6
-1.052922145024082e-01  -2.403226092524098e-02  2
-9.730463767346507e-02  -4.685944394927965e-02  2
-8.443779997598024e-02  -6.733689876446905e-02  2
-6.733689843234285e-02  -8.443780024084203e-02  2
-4.685944368105096e-02  -9.730463780263721e-02  2
-2.403226078535084e-02  -1.052922145343372e-01  2
2.403226092524098e-02  -1.052922145024082e-01  2
4.685944394927965e-02  -9.730463767346507e-02  2
6.733689876446905e-02  -8.443779997598024e-02  2
8.443780024084203e-02  -6.733689843234285e-02  2
9.730463780263721e-02  -4.685944368105096e-02  2
1.052922145343372e-01  -2.403226078535084e-02  2
1.052922145024082e-01  2.403226092524098e-02  2
9.730463767346507e-02  4.685944394927965e-02  2
8.443779997598024e-02  6.733689876446905e-02  2
6.733689843234285e-02  8.443780024084203e-02  2
4.685944368105096e-02  9.730463780263721e-02  2
2.403226078535084e-02  1.052922145343372e-01  2
-2.403226092524098e-02  1.052922145024082e-01  2
-4.685944394927965e-02  9.730463767346507e-02  2
-6.733689876446905e-02  8.443779997598024e-02  2
-8.443780024084203e-02  6.733689843234285e-02  2
-9.730463780263721e-02  4.685944368105096e-02  2
-1.052922145343372e-01  2.403226078535084e-02  2
-1.335125607261435e-01  5.849567472286715e-01  3
-2.603302441432305e-01  5.405813204174983e-01  3
-3.740938820005457e-01  4.690988887748102e-01  3
-4.690988902046022e-01  3.740938802076433e-01  3
-5.405813211043221e-01  2.603302427170261e-01  3
-5.849567474076804e-01  1.335125599418539e-01  3
-5.849567472286715e-01  -1.335125607261435e-01  3
-5.405813204174983e-01  -2.603302441432305e-01  3
-4.690988887748102e-01  -3.740938820005457e-01  3
-3.740938802076433e-01  -4.690988902046022e-01  3
-2.603302427170261e-01  -5.405813211043221e-01  3
-1.335125599418539e-01  -5.849567474076804e-01  3
1.335125607261435e-01  -5.849567472286715e-01  3
2.603302441432305e-01  -5.405813204174983e-01  3
3.740938820005457e-01  -4.690988887748102e-01  3
4.690988902046022e-01  -3.740938802076433e-01  3
5.405813211043221e-01  -2.603302427170261e-01  3
5.849567474076804e-01  -1.335125599418539e-01  3
5.849567472286715e-01  1.335125607261435e-01  3
5.405813204174983e-01  2.603302441432305e-01  3
4.690988887748102e-01  3.740938820005457e-01  3
3.740938802076433e-01  4.690988902046022e-01  3
2.603302427170261e-01  5.405813211043221e-01  3
1.335125599418539e-01  5.849567474076804e-01  3
0.000000000000000e+00  1.458461555275003e-01  0
0.000000000000000e+00  2.593846153215157e-01  0
1.458461555275003e-01  0.000000000000000e+00  0
2.593846153215157e-01  0.000000000000000e+00  0
0.000000000000000e+00  -1.458461555275003e-01  0
0.000000000000000e+00  -2.593846153215157e-01  0
-1.458461555275003e-01  0.000000000000000e+00  0
-2.593846153215157e-01  0.000000000000000e+00  0
8.969336790901071e-02  2.047192597531671e-02  1
8.288913579626503e-02  3.991730410421442e-02  1
7.192849627255651e-02  5.736106191458473e-02  1
5.736106162235475e-02  7.192849650560215e-02  1
3.991730387915233e-02  8.288913590464923e-02  1
2.047192585889986e-02  8.969336793558209e-02  1
-2.047192597531671e-02  8.969336790901071e-02  1
-3.991730410421442e-02  8.288913579626503e-02  1
-5.736106191458473e-02  7.192849627255651e-02  1
-7.192849650560215e-02  5.736106162235475e-02  1
-8.288913590464923e-02  3.991730387915233e-02  1
-8.969336793558209e-02  2.047192585889986e-02  1
-8.969336790901071e-02  -2.047192597531671e-02  1
-8.288913579626503e-02  -3.991730410421442e-02  1
-7.192849627255651e-02  -5.736106191458473e-02  1
-5.736106162235475e-02  -7.192849650560215e-02  1
-3.991730387915233e-02  -8.288913590464923e-02  1
-2.047192585889986e-02  -8.969336793558209e-02  1
2.047192597531671e-02  -8.969336790901071e-02  1
3.991730410421442e-02  -8.288913579626503e-02  1
5.736106191458473e-02  -7.192849627255651e-02  1
7.192849650560215e-02  -5.736106162235475e-02  1
8.288913590464923e-02  -3.991730387915233e-02  1
8.969336793558209e-02  -2.047192585889986e-02  1
0.000000000000000e+00  9.999999999998102e-02  0
9.999999999998102e-02  0.000000000000000e+00  0
0.000000000000000e+00  -9.999999999998102e-02  0
-9.999999999998102e-02  0.000000000000000e+00  0
6.515544455529090e-02  8.750000018943042e-03  4
5.874999998093502e-02  1.515544457723485e-02  4
4.124999997479287e-02  1.515544455167433e-02  4
3.484455542201854e-02  8.749999979641850e-03  4
3.484455544501082e-02  -8.750000019465647e-03  4
4.125000001803803e-02  -1.515544457664194e-02  4
5.875000002287996e-02  -1.515544455301793e-02  4
6.515544457903244e-02  -8.749999977821514e-03  4
-9.844555442734616e-03  5.205127020474511e-02  5
-1.625000002528925e-02  5.845671477005038e-02  5
-3.375000003002160e-02  5.845671473811664e-02  5
-4.015544458228604e-02  5.205127016140802e-02  5
-4.015544455687860e-02  3.455127017302886e-02  5
-3.374999997965533e-02  2.814582561124826e-02  5
-1.624999997359746e-02  2.814582563823777e-02  5
-9.844555419782457e-03  3.455127021345308e-02  5
-9.844555444085541e-03  -3.455127017135890e-02  6
-1.625000002299519e-02  -2.814582560971798e-02  6
-3.375000002949356e-02  -2.814582564002238e-02  6
-4.015544458158380e-02  -3.455127021581954e-02  6
-4.015544455669699e-02  -5.205127020572957e-02  6
-3.374999998020366e-02  -5.845671476687904e-02  6
-1.624999997306943e-02  -5.845671473990125e-02  6
-9.844555419080218e-03  -5.205127016377448e-02  6
-1.789140544754090e-02  -1.875276914401989e-02  0
3.376506174764963e-02  -1.903660107143084e-02  0
1.239422787368968e-03  3.699960699963392e-02  0
2.560415708389033e-02  7.831085549731756e-03  0
-3.377232739073443e-02  1.897672954637667e-02  0
-1.407633110006885e-03  -3.679006722436583e-02  0
-4.003087247218200e-02  -2.425161118667546e-02  0
4.447321219911886e-02  2.647512335986110e-02  0
3.876581093210821e-02  -6.330135593242402e-02  0
-3.390742753747399e-03  -2.640562682912331e-02  0
2.716897770043436e-03  -3.223229469323509e-02  0
2.338751477838378e-03  -2.268386060998590e-02  0
8.191550586714521e-03  -3.792127546798032e-02  0
2.461930076803203e-02  -1.125525934367642e-02  0
-3.097226142495785e-02  -1.788014700454628e-02  0
-4.323770548823485e-02  -1.525694286821011e-02  0
-2.413871380707663e-02  -1.286997838642863e-02  0
-1.534658344081623e-02  -9.537665042295997e-03  0
-1.701141089720044e-02  1.962333322077836e-02  0
-1.402093352491183e-03  5.030403880440997e-02  0
5.912391782662000e-03  4.545478592551896e-02  0
9.335462032840948e-03  3.133030281532977e-02  0
1.452804588895963e-02  3.984107239268155e-02  0
4.579826226570340e-02  -2.564973570509691e-02  0
3.647686402892975e-02  -2.762617958905713e-02  0
-4.386021164585871e-02  2.330856771714103e-02  0
3.011256498846584e-02  1.392118588154160e-02  0
1.948133620667789e-02  1.282330089866010e-02  0
1.545691570864263e-02  6.563040103627544e-03  0
9.482177391242394e-03  1.146510262425104e-02  0
7.523516095552576e-03  3.498782093801451e-03  0
5.568418559391166e-02  -2.350495614981441e-02  0
1.973940690912504e-02  4.893781802822905e-02  0
2.993334853746748e-02  4.374533879309581e-02  0
-7.286731387805754e-03  6.172360919166392e-02  0
5.677410879051047e-02  2.759676950012143e-02  0
-4.772526785459678e-02  -3.712759740282699e-02  0
-3.871551647588010e-02  1.063782253721708e-02  0
-4.682461033370081e-02  1.430128474762369e-02  0
1.889547438270760e-03  7.900035782786693e-03  0
-5.222434120086981e-02  -1.602422649323485e-02  0
-2.024478012247433e-02  -2.692978160088750e-03  0
-5.185168369794124e-02  3.614301730281553e-02  0
-7.540781693192170e-03  -6.337597665271082e-02  0
2.652393116801915e-02  -1.992948226489092e-02  0
-3.663337845160341e-03  2.796923073055821e-02  0
4.975530035652516e-02  -3.525710537719339e-02  0
-4.835942246969503e-02  -7.583063573346367e-03  0
1.578352131020161e-02  -1.379902120714424e-02  0
-1.373899996014637e-04  -8.589915495546203e-04  0
-2.774286210698596e-02  -5.896193212686224e-03  0
2.713548675050842e-02  -3.078501143134738e-02  0
-3.907981910532255e-03  6.176510333081683e-03  0
4.572955885982985e-02  3.493734209180475e-02  0
3.194266776432279e-02  -3.784965243613359e-02  0
2.890818218367629e-04  -5.413446021732759e-02  0
1.002479519965794e-03  -6.365515099243499e-02  0
8.570914291857646e-03  -5.860754309724358e-02  0
2.405468286718705e-02  1.963762104732274e-02  0
-2.495193574664191e-02  1.150745998249740e-02  0
2.319821632351816e-02  5.955466519609435e-02  0
1.427109240916991e-02  6.188665948574150e-02  0
-6.215527970906079e-02  -1.231692608395174e-02  0
-5.727226075370004e-02  1.435150856505888e-03  0
-6.414581689649390e-02  -2.354615693554694e-02  0
6.510966352158692e-02  -1.871024945495300e-02  0
7.030085409639704e-02  1.858600256458018e-02  0
4.418473476287747e-03  2.235424453747361e-02  0
-5.127729506095528e-03  1.460594999720470e-02  0
-5.080243447854139e-02  5.026598282452806e-02  0
-5.012165864005894e-02  -4.977099723932278e-02  0
3.863200044936112e-02  5.399019854275211e-02  0
-7.031419074115716e-02  2.045628360467848e-02  0
-1.973648232536767e-02  -6.880987584366310e-02  0
-1.959572807202489e-02  6.837659730462924e-02  0
4.452025638323896e-03  -8.034492722515838e-03  0
-2.979719576170191e-03  -1.052517143886381e-02  0
3.499331391796132e-02  3.156189478373517e-02  0
1.812864484715183e-02  -2.387448883948634e-02  0
5.343588916229051e-02  4.047995167873927e-02  0
7.653770195665793e-02  7.000485225632304e-03  0
7.591130403947791e-02  -7.694681245745007e-03  0
6.109512321889606e-02  -3.250639096908519e-02  0
5.250423619466751e-02  -4.647641319263979e-02  0
2.072445504992400e-02  -3.928387169043121e-02  0
-6.051216264036504e-02  4.444211714810393e-02  0
-5.907080465053334e-02  -4.134977254173141e-02  0
-1.061678818705918e-02  -7.381177888939613e-02  0
-9.884114458385575e-03  7.276920641316882e-02  0
-1.003741235167026e-02  -1.864622003631123e-02  0
1.660441878574617e-02  -6.621965452141991e-02  0
-4.346669431295095e-02  6.058105507544400e-02  0
-4.337459276562840e-02  -6.049053465208763e-02  0
2.933881095326724e-02  -4.513331828998726e-02  0
-4.584929096443612e-02  5.393169383741570e-03  0
-3.253965913256818e-02  -6.714923677428911e-02  0
-3.252398247609180e-02  6.707456917046722e-02  0
-1.517711122152913e-02  1.243869352668621e-02  0
2.285009614103200e-02  7.296361788176578e-02  0
2.151409174805491e-02  -8.096788478820558e-04  0
-1.007915151472817e-02  2.250943419681992e-02  0
-7.810464911111222e-03  -4.378378877068740e-03  0
1.233995227843400e-02  -5.008510826495926e-03  0
-5.294633785882991e-02  2.567457570252051e-02  0
-7.423762062180728e-02  -8.989501970066007e-03  0
8.502368817015448e-03  7.417612693601613e-02  0
1.396701505076757e-02  -3.300113131260332e-02  0
3.998830089998190e-02  -4.755852470716234e-02  0
-3.174661221845747e-02  3.326854360956177e-03  0
7.637074456123244e-03  -1.584481169371024e-02  0
-7.251588654810701e-02  4.680149796799006e-03  0
1.268442552981961e-02  1.802185797754839e-02  0
1.725971334279450e-02  2.548274736488523e-02  0
2.450976281500936e-02  3.358395502852068e-02  0
3.612476841080662e-02  1.995722311718974e-02  0
-1.326277395124420e-02  3.296723128729023e-03  0
-5.652541480100710e-02  1.572443586711353e-02  0
5.399519766686611e-02  5.464740599336934e-02  0
1.274871049282191e-03  -4.422533027410821e-02  0
3.781367298688730e-02  6.967193062984704e-02  0
6.699568643550477e-02  2.918644929619069e-02  0
3.009272319478427e-03  1.343947574581314e-02  0
-3.573373702049340e-02  -1.040515751622309e-02  0
-4.083377808207837e-02  -2.347984733438696e-03  0
1.709431816235934e-03  5.946047286505236e-02  0
2.419780337932074e-02  -5.552347155491302e-02  0
-7.576021812745973e-02  -2.061744305827750e-02  0
3.923759410180429e-02  -3.698041347184099e-02  0
7.657887690084975e-02  2.700874414529517e-02  0
7.134715312170468e-02  -2.773970792502114e-02  0
4.420902809190360e-03  -7.552492030773880e-02  0
-6.054220594071580e-02  2.987450941100828e-02  0
-2.745898653819348e-02  -7.466034309091960e-02  0
-2.736971134203044e-02  7.446375231977849e-02  0
2.456329127677460e-02  -7.258542953832724e-02  0
-2.237408961069821e-02  3.753905991189476e-03  0
1.330560350183397e-02  -4.794637740344238e-02  0
-1.762686594296012e-03  2.052804178193072e-02  0
-1.007230296422049e-02  -2.431157931589835e-02  0
-5.329641769301619e-02  -5.837638406078623e-02  0
-5.355689602984283e-02  5.875045543293336e-02  0
3.923597625011245e-02  3.869767579342542e-02  0
1.059281587017385e-02  5.455332445374149e-02  0
6.716341336523513e-02  4.024154691330011e-02  0
-6.926222128136357e-02  3.507063776775632e-02  0
-5.293028124634817e-02  -2.734230899572990e-02  0
-7.067654781590808e-02  -3.259531013124879e-02  0
-4.167069920864794e-03  -1.872440920602818e-02  0
5.337640597473181e-02  -5.914364130673865e-02  0
1.463061307722305e-03  -1.767087332467427e-02  0
4.373124557864881e-02  4.440741849380848e-02  0
7.684043861629106e-02  -1.794297633229364e-02  0
8.053745155375144e-03  -2.505335109889928e-02  0
-4.186701282061857e-02  -6.881247628066160e-02  0
-4.189259428952915e-02  6.882708042027014e-02  0
2.996483026139077e-02  2.507257779307643e-02  0
-2.424962613761222e-02  1.999149312378299e-02  0
-9.620555332519794e-03  -1.318045641532966e-02  0
6.478654759517632e-02  -4.314727691761907e-02  0
7.853627329299512e-02  1.418037276616943e-02  0
-2.225209345027463e-02  9.749279120569095e-02  0
-4.338837402673880e-02  9.009688673484795e-02  0
-6.234898033951506e-02  7.818314812425353e-02  0
-7.818314837320725e-02  6.234898002733696e-02  0
-9.009688685362613e-02  4.338837378009341e-02  0
-9.749279123494115e-02  2.225209332212112e-02  0
-9.749279120569095e-02  -2.225209345027463e-02  0
-9.009688673484795e-02  -4.338837402673880e-02  0
-7.818314812425353e-02  -6.234898033951506e-02  0
-6.234898002733696e-02  -7.818314837320725e-02  0
-4.338837378009341e-02  -9.009688685362613e-02  0
-2.225209332212112e-02  -9.749279123494115e-02  0
2.225209345027463e-02  -9.749279120569095e-02  0
4.338837402673880e-02  -9.009688673484795e-02  0
6.234898033951506e-02  -7.818314812425353e-02  0
7.818314837320725e-02  -6.234898002733696e-02  0
9.009688685362613e-02  -4.338837378009341e-02  0
9.749279123494115e-02  -2.225209332212112e-02  0
9.749279120569095e-02  2.225209345027463e-02  0
9.009688673484795e-02  4.338837402673880e-02  0
7.818314812425353e-02  6.234898033951506e-02  0
6.234898002733696e-02  7.818314837320725e-02  0
4.338837378009341e-02  9.009688685362613e-02  0
2.225209332212112e-02  9.749279123494115e-02  0
-5.771850700378538e-02  2.528813014335870e-01  0
-3.245382282252212e-02  1.421894878897739e-01  0
-1.125427670585020e-01  2.336974630763168e-01  0
-6.328027546293861e-02  1.314028455532316e-01  0
-1.617236627977661e-01  2.027950580185946e-01  0
-9.093359083093118e-02  1.140271158134968e-01  0
-2.027950586418965e-01  1.617236620161702e-01  0
-1.140271161679686e-01  9.093359038643758e-02  0
-2.336974633770741e-01  1.125427664339731e-01  0
-1.314028457252999e-01  6.328027510563486e-02  0
-2.528813015107714e-01  5.771850666561847e-02  0
-1.421894879330167e-01  3.245382263306278e-02  0
-2.528813014335870e-01  -5.771850700378538e-02  0
-1.421894878897739e-01  -3.245382282252212e-02  0
-2.336974630763168e-01  -1.125427670585020e-01  0
-1.314028455532316e-01  -6.328027546293861e-02  0
-2.027950580185946e-01  -1.617236627977661e-01  0
-1.140271158134968e-01  -9.093359083093118e-02  0
-1.617236620161702e-01  -2.027950586418965e-01  0
-9.093359038643758e-02  -1.140271161679686e-01  0
-1.125427664339731e-01  -2.336974633770741e-01  0
-6.328027510563486e-02  -1.314028457252999e-01  0
-5.771850666561847e-02  -2.528813015107714e-01  0
-3.245382263306278e-02  -1.421894879330167e-01  0
5.771850700378538e-02  -2.528813014335870e-01  0
3.245382282252212e-02  -1.421894878897739e-01  0
1.125427670585020e-01  -2.336974630763168e-01  0
6.328027546293861e-02  -1.314028455532316e-01  0
1.617236627977661e-01  -2.027950580185946e-01  0
9.093359083093118e-02  -1.140271158134968e-01  0
2.027950586418965e-01  -1.617236620161702e-01  0
1.140271161679686e-01  -9.093359038643758e-02  0
2.336974633770741e-01  -1.125427664339731e-01  0
1.314028457252999e-01  -6.328027510563486e-02  0
2.528813015107714e-01  -5.771850666561847e-02  0
1.421894879330167e-01  -3.245382263306278e-02  0
2.528813014335870e-01  5.771850700378538e-02  0
1.421894878897739e-01  3.245382282252212e-02  0
2.336974630763168e-01  1.125427670585020e-01  0
1.314028455532316e-01  6.328027546293861e-02  0
2.027950580185946e-01  1.617236627977661e-01  0
1.140271158134968e-01  9.093359083093118e-02  0
1.617236620161702e-01  2.027950586418965e-01  0
9.093359038643758e-02  1.140271161679686e-01  0
1.125427664339731e-01  2.336974633770741e-01  0
6.328027510563486e-02  1.314028457252999e-01  0
5.771850666561847e-02  2.528813015107714e-01  0
3.245382263306278e-02  1.421894879330167e-01  0
4.017709924356738e-02  7.608430967086580e-04  0
5.846992321223467e-02  -3.426491929973540e-03  0
5.384259045151617e-02  9.257376455185295e-03  0
4.843970026158630e-02  -9.196343260002224e-03  0
4.857945332931972e-02  1.170260228735978e-02  0
4.820393300430507e-02  5.397632001447348e-03  0
5.249466025309101e-02  2.044749541175644e-03  0
5.717561624711152e-02  4.242191909792101e-03  0
4.602076440174441e-02  -4.026899911923599e-04  0
4.217641208520546e-02  -4.878967062881795e-03  0
5.118952080209586e-02  -2.365620144971190e-03  0
5.530402842909758e-02  -9.388714315134650e-03  0
4.144360636767584e-02  6.550716398669777e-03  0
-3.482290075677011e-02  4.406211328340986e-02  0
-1.653007678649300e-02  3.987477826000147e-02  0
-2.115740954949596e-02  5.255864664530274e-02  0
-2.656029973724513e-02  3.410492692869361e-02  0
-2.642054667246319e-02  5.500387247619398e-02  0
-2.679606699600724e-02  4.869890218977108e-02  0
-2.250533974629143e-02  4.534601973062884e-02  0
-1.782438375279160e-02  4.754346209933050e-02  0
-2.897923559778020e-02  4.289858019617000e-02  0
-3.282358791448041e-02  3.842230312542432e-02  0
-2.381047919699967e-02  4.093565004396419e-02  0
-1.969597156931154e-02  3.391255587479244e-02  0
-3.355639363402161e-02  4.985198658510804e-02  0
-1.902042812483413e-02  -5.053666542449334e-02  0
-3.280696668177591e-02  -3.755461863611428e-02  0
-2.886020999692181e-02  -5.122370930507936e-02  0
-1.723984323550642e-02  -3.728402904776627e-02  0
-2.937843274846889e-02  -3.250930503038033e-02  0
-2.497739817042018e-02  -3.821710060154049e-02  0
-2.178244184887532e-02  -4.302215513386899e-02  0
-1.665363678237073e-02  -4.329122358419905e-02  0
-2.785582094680997e-02  -4.340626558379553e-02  0
-3.397859456276947e-02  -4.474607348670772e-02  0
-2.459530692149645e-02  -4.643108666166056e-02  0
-2.449433185299756e-02  -5.427636110343494e-02  0
-2.064451355090558e-02  -3.252971947592958e-02  0
Edges
120
3  25  2
25  26  2
26  27  2
27  28  2
28  29  2
29  30  2
4  30  2
4  31  2
31  32  2
32  33  2
33  34  2
34  35  2
35  36  2
1  36  2
1  37  2
37  38  2
38  39  2
39  40  2
40  41  2
41  42  2
2  42  2
2  43  2
43  44  2
44  45  2
45  46  2
46  47  2
47  48  2
3  48  2
6  49  3
49  50  3
50  51  3
51  52  3
52  53  3
53  54  3
7  54  3
7  55  3
55  56  3
56  57  3
57  58  3
58  59  3
59  60  3
8  60  3
8  61  3
61  62  3
62  63  3
63  64  3
64  65  3
65  66  3
5  66  3
5  67  3
67  68  3
68  69  3
69  70  3
70  71  3
71  72  3
6  72  3
9  81  1
81  82  1
82  83  1
83  84  1
84  85  1
85  86  1
10  86  1
10  87  1
87  88  1
88  89  1
89  90  1
90  91  1
91  92  1
11  92  1
11  93  1
93  94  1
94  95  1
95  96  1
96  97  1
97  98  1
12  98  1
12  99  1
99  100  1
100  101  1
101  102  1
102  103  1
103  104  1
9  104  1
13  109  4
109  110  4
14  110  4
14  111  4
111  112  4
15  112  4
15  113  4
113  114  4
16  114  4
16  115  4
115  116  4
13  116  4
17  117  5
117  118  5
18  118  5
18  119  5
119  120  5
19  120  5
19  121  5
121  122  5
20  122  5
20  123  5
123  124  5
17  124  5
21  125  6
125  126  6
22  126  6
22  127  6
127  128  6
23  128  6
23  129  6
129  130  6
24  130  6
24  131  6
131  132  6
21  132  6
Triangles
74
219  169  278  1
184  177  211  1
209  280  282  1
149  133  150  1
11  237  243  1
161  162  163  1
114  113  134  1
22  126  133  1
15  136  232  1
123  151  233  1
137  192  289  1
200  178  270  1
145  251  269  1
12  99  263  1
197  259  279  1
192  241  268  1
170  171  227  1
117  17  152  1
101  102  281  1
173  148  180  1
84  85  252  1
128  127  139  1
83  84  250  1
88  89  287  1
96  97  286  1
89  90  273  1
95  96  272  1
87  88  266  1
97  98  265  1
188  189  190  1
121  19  175  1
23  128  169  1
132  131  176  1
118  117  167  1
81  82  261  1
129  23  203  1
19  120  202  1
102  103  291  1
82  83  276  1
239  211  285  1
131  24  206  1
18  118  207  1
110  109  199  1
130  129  225  1
120  119  224  1
119  18  229  1
24  130  228  1
116  115  198  1
109  13  213  1
13  116  214  1
236  175  264  1
253  199  261  1
174  248  268  1
198  262  284  1
210  246  288  1
205  264  277  1
114  16  368  4
116  13  366  4
14  111  369  4
111  112  377  4
373  365  374  4
367  369  370  4
122  20  381  5
124  17  379  5
18  119  382  5
119  120  390  5
386  378  387  5
380  382  383  5
131  132  391  6
23  129  400  6
22  127  395  6
126  22  403  6
395  392  396  6
396  394  403  6
Quadrilaterals
351
232  146  113  15  1
111  247  159  112  1
123  233  178  124  1
146  232  235  181  1
215  262  198  164  1
170  241  192  137  1
147  22  133  149  1
235  208  242  181  1
229  287  224  119  1
225  286  228  130  1
276  83  250  212  1
286  97  265  228  1
197  279  219  278  1
134  157  156  114  1
266  88  287  229  1
132  188  251  21  1
209  290  222  280  1
198  284  214  116  1
218  277  264  175  1
177  184  157  134  1
210  274  166  246  1
234  248  174  150  1
241  170  227  256  1
213  292  199  109  1
291  103  262  215  1
110  199  253  168  1
261  82  276  253  1
224  273  202  120  1
272  96  286  225  1
154  135  178  200  1
121  175  236  158  1
203  272  225  129  1
249  196  227  171  1
242  285  211  181  1
287  89  273  224  1
152  257  167  117  1
250  84  252  204  1
93  259  237  11  1
191  288  246  245  1
226  217  269  258  1
207  266  229  18  1
268  248  230  192  1
158  171  170  137  1
228  265  206  24  1
278  169  128  139  1
182  234  209  208  1
143  285  144  142  1
230  201  233  151  1
135  153  152  17  1
147  255  148  139  1
245  246  155  154  1
151  289  192  230  1
200  244  245  154  1
186  274  210  140  1
252  231  193  204  1
165  275  153  155  1
265  98  220  206  1
244  200  254  162  1
145  269  217  239  1
193  165  166  204  1
176  189  188  132  1
183  174  268  241  1
162  254  172  163  1
101  281  141  100  1
187  260  157  184  1
134  113  146  177  1
99  267  223  263  1
133  126  271  222  1
185  248  234  182  1
160  244  162  161  1
191  245  244  160  1
179  215  164  156  1
220  263  189  176  1
253  276  212  168  1
235  232  161  163  1
161  232  136  160  1
202  218  175  19  1
281  102  291  216  1
21  251  138  125  1
216  291  215  179  1
172  254  201  185  1
140  247  111  14  1
137  289  20  122  1
112  159  136  15  1
20  289  151  123  1
221  87  266  207  1
240  216  179  260  1
249  205  243  196  1
242  282  144  285  1
138  251  145  143  1
280  222  271  142  1
186  212  283  274  1
259  93  94  279  1
195  173  180  196  1
189  263  223  190  1
188  190  269  251  1
124  178  135  17  1
231  252  85  86  1
174  183  149  150  1
194  275  165  193  1
230  248  185  201  1
173  278  139  148  1
172  185  182  163  1
258  223  267  141  1
104  284  262  103  1
12  263  220  98  1
195  237  259  197  1
159  247  288  191  1
208  235  163  182  1
177  146  181  211  1
159  191  160  136  1
186  140  168  212  1
167  221  207  118  1
142  125  138  143  1
222  290  150  133  1
221  238  10  87  1
197  278  173  195  1
217  226  187  184  1
237  195  196  243  1
239  217  184  211  1
125  142  271  126  1
205  277  91  92  1
148  255  256  180  1
154  155  153  135  1
243  205  92  11  1
226  258  141  240  1
219  95  272  203  1
240  260  187  226  1
221  167  257  238  1
86  10  238  231  1
264  205  249  236  1
239  285  143  145  1
281  216  240  141  1
180  256  227  196  1
206  220  176  131  1
210  288  247  140  1
292  81  261  199  1
194  193  231  238  1
257  275  194  238  1
273  90  218  202  1
169  219  203  23  1
256  255  183  241  1
144  282  280  142  1
171  158  236  249  1
127  22  147  139  1
284  104  9  214  1
260  179  156  157  1
270  201  254  200  1
149  183  255  147  1
166  165  155  246  1
213  13  214  9  1
270  178  233  201  1
275  257  152  153  1
282  242  208  209  1
274  283  204  166  1
279  94  95  219  1
16  114  156  164  1
190  223  258  269  1
168  140  14  110  1
158  137  122  121  1
115  16  164  198  1
90  91  277  218  1
9  81  292  213  1
267  99  100  141  1
283  212  250  204  1
290  209  234  150  1
2  43  293  105  2
105  293  87  10  2
43  44  294  293  2
293  294  88  87  2
44  45  295  294  2
294  295  89  88  2
45  46  296  295  2
295  296  90  89  2
46  47  297  296  2
296  297  91  90  2
47  48  298  297  2
297  298  92  91  2
48  3  108  298  2
298  108  11  92  2
3  25  299  108  2
108  299  93  11  2
25  26  300  299  2
299  300  94  93  2
26  27  301  300  2
300  301  95  94  2
27  28  302  301  2
301  302  96  95  2
28  29  303  302  2
302  303  97  96  2
29  30  304  303  2
303  304  98  97  2
30  4  107  304  2
304  107  12  98  2
4  31  305  107  2
107  305  99  12  2
31  32  306  305  2
305  306  100  99  2
32  33  307  306  2
306  307  101  100  2
33  34  308  307  2
307  308  102  101  2
34  35  309  308  2
308  309  103  102  2
35  36  310  309  2
309  310  104  103  2
36  1  106  310  2
310  106  9  104  2
1  37  311  106  2
106  311  81  9  2
37  38  312  311  2
311  312  82  81  2
38  39  313  312  2
312  313  83  82  2
39  40  314  313  2
313  314  84  83  2
40  41  315  314  2
314  315  85  84  2
41  42  316  315  2
315  316  86  85  2
42  2  105  316  2
316  105  10  86  2
6  49  317  74  3
74  317  318  73  3
73  318  43  2  3
49  50  319  317  3
317  319  320  318  3
318  320  44  43  3
50  51  321  319  3
319  321  322  320  3
320  322  45  44  3
51  52  323  321  3
321  323  324  322  3
322  324  46  45  3
52  53  325  323  3
323  325  326  324  3
324  326  47  46  3
53  54  327  325  3
325  327  328  326  3
326  328  48  47  3
54  7  80  327  3
327  80  79  328  3
328  79  3  48  3
7  55  329  80  3
80  329  330  79  3
79  330  25  3  3
55  56  331  329  3
329  331  332  330  3
330  332  26  25  3
56  57  333  331  3
331  333  334  332  3
332  334  27  26  3
57  58  335  333  3
333  335  336  334  3
334  336  28  27  3
58  59  337  335  3
335  337  338  336  3
336  338  29  28  3
59  60  339  337  3
337  339  340  338  3
338  340  30  29  3
60  8  78  339  3
339  78  77  340  3
340  77  4  30  3
8  61  341  78  3
78  341  342  77  3
77  342  31  4  3
61  62  343  341  3
341  343  344  342  3
342  344  32  31  3
62  63  345  343  3
343  345  346  344  3
344  346  33  32  3
63  64  347  345  3
345  347  348  346  3
346  348  34  33  3
64  65  349  347  3
347  349  350  348  3
348  350  35  34  3
65  66  351  349  3
349  351  352  350  3
350  352  36  35  3
66  5  76  351  3
351  76  75  352  3
352  75  1  36  3
5  67  353  76  3
76  353  354  75  3
75  354  37  1  3
67  68  355  353  3
353  355  356  354  3
354  356  38  37  3
68  69  357  355  3
355  357  358  356  3
356  358  39  38  3
69  70  359  357  3
357  359  360  358  3
358  360  40  39  3
70  71  361  359  3
359  361  362  360  3
360  362  41  40  3
71  72  363  361  3
361  363  364  362  3
362  364  42  41  3
72  6  74  363  3
363  74  73  364  3
364  73  2  42  3
15  113  374  365  4
368  375  373  374  4
367  370  371  372  4
13  109  372  366  4
369  111  377  370  4
110  367  372  109  4
114  368  374  113  4
376  115  116  366  4
370  377  365  373  4
14  369  367  110  4
365  377  112  15  4
373  375  371  370  4
376  368  16  115  4
371  375  366  372  4
375  368  376  366  4
19  121  387  378  5
381  388  386  387  5
380  383  384  385  5
17  117  385  379  5
382  119  390  383  5
118  380  385  117  5
387  121  122  381  5
389  123  124  379  5
383  390  378  386  5
18  382  380  118  5
378  390  120  19  5
386  388  384  383  5
389  381  20  123  5
384  388  379  385  5
388  381  389  379  5
128  23  400  392  6
132  21  398  391  6
394  396  397  398  6
397  401  391  398  6
403  22  395  396  6
125  394  398  21  6
399  396  392  400  6
130  24  402  393  6
393  401  399  400  6
126  403  394  125  6
392  395  127  128  6
399  401  397  396  6
393  400  129  130  6
131  391  402  24  6
402  391  401  393  6
End
