MeshVersionFormatted 1
Dimension 
2
Vertices
950
0.000000000000000e+00  0.000000000000000e+00  6
5.400000000000000e-02  -9.353074360871937e-02  5
1.080000000000000e-01  0.000000000000000e+00  2
5.400000000000000e-02  9.353074360871937e-02  6
1.000000000000000e+01  -1.732050807568877e+01  5
2.000000000000000e+01  0.000000000000000e+00  1
1.000000000000000e+01  1.732050807568877e+01  6
6.750000000000000e-02  0.000000000000000e+00  4
5.000000000000000e-02  1.750000000000000e-02  4
3.250000000000000e-02  0.000000000000000e+00  4
5.000000000000000e-02  -1.750000000000000e-02  4
5.558076240129510e-02  -8.096557879803704e-02  9
5.158076240129510e-02  -7.696557879803703e-02  9
4.758076240129509e-02  -8.096557879803704e-02  9
5.158076240129510e-02  -8.496557879803704e-02  9
6.244109718483719e-02  -7.616192066795857e-02  10
5.844109718483718e-02  -7.216192066795857e-02  10
5.444109718483718e-02  -7.616192066795857e-02  10
5.844109718483718e-02  -8.016192066795857e-02  10
6.885665993110340e-02  -7.077862433377190e-02  11
6.485665993110340e-02  -6.677862433377189e-02  11
6.085665993110340e-02  -7.077862433377190e-02  11
6.485665993110340e-02  -7.477862433377190e-02  11
7.477862433377191e-02  -6.485665993110337e-02  12
7.077862433377191e-02  -6.085665993110337e-02  12
6.677862433377191e-02  -6.485665993110337e-02  12
7.077862433377191e-02  -6.885665993110338e-02  12
8.016192066795859e-02  -5.844109718483717e-02  13
7.616192066795859e-02  -5.444109718483717e-02  13
7.216192066795858e-02  -5.844109718483717e-02  13
7.616192066795859e-02  -6.244109718483717e-02  13
8.496557879803704e-02  -5.158076240129508e-02  14
8.096557879803704e-02  -4.758076240129508e-02  14
7.696557879803703e-02  -5.158076240129508e-02  14
8.096557879803704e-02  -5.558076240129509e-02  14
8.915303998510929e-02  -4.432786687056325e-02  15
8.515303998510929e-02  -4.032786687056325e-02  15
8.115303998510928e-02  -4.432786687056325e-02  15
8.515303998510929e-02  -4.832786687056324e-02  15
9.269243512108355e-02  -3.673760950704861e-02  16
8.869243512108355e-02  -3.273760950704861e-02  16
8.469243512108354e-02  -3.673760950704861e-02  16
8.869243512108355e-02  -4.073760950704861e-02  16
9.555682727182979e-02  -2.886775675241021e-02  17
9.155682727182979e-02  -2.486775675241021e-02  17
8.755682727182978e-02  -2.886775675241021e-02  17
9.155682727182979e-02  -3.286775675241021e-02  17
9.772441668351362e-02  -2.077820293805786e-02  18
9.372441668351361e-02  -1.677820293805786e-02  18
8.972441668351361e-02  -2.077820293805786e-02  18
9.372441668351361e-02  -2.477820293805786e-02  18
9.917870669188580e-02  -1.253051445312494e-02  19
9.517870669188580e-02  -8.530514453124938e-03  19
9.117870669188580e-02  -1.253051445312494e-02  19
9.517870669188580e-02  -1.653051445312494e-02  19
9.990862927185835e-02  -4.187461187072242e-03  20
9.590862927185835e-02  -1.874611870722421e-04  20
9.190862927185835e-02  -4.187461187072242e-03  20
9.590862927185835e-02  -8.187461187072243e-03  20
9.990862927185835e-02  4.187461187072270e-03  21
9.590862927185835e-02  8.187461187072271e-03  21
9.190862927185835e-02  4.187461187072270e-03  21
9.590862927185835e-02  1.874611870722699e-04  21
9.917870669188580e-02  1.253051445312496e-02  22
9.517870669188580e-02  1.653051445312496e-02  22
9.117870669188580e-02  1.253051445312496e-02  22
9.517870669188580e-02  8.530514453124964e-03  22
9.772441668351362e-02  2.077820293805789e-02  23
9.372441668351361e-02  2.477820293805789e-02  23
8.972441668351361e-02  2.077820293805789e-02  23
9.372441668351361e-02  1.677820293805789e-02  23
9.555682727182979e-02  2.886775675241023e-02  24
9.155682727182979e-02  3.286775675241023e-02  24
8.755682727182978e-02  2.886775675241023e-02  24
9.155682727182979e-02  2.486775675241023e-02  24
9.269243512108354e-02  3.673760950704863e-02  25
8.869243512108353e-02  4.073760950704863e-02  25
8.469243512108353e-02  3.673760950704863e-02  25
8.869243512108353e-02  3.273760950704863e-02  25
8.915303998510928e-02  4.432786687056327e-02  26
8.515303998510927e-02  4.832786687056327e-02  26
8.115303998510927e-02  4.432786687056327e-02  26
8.515303998510927e-02  4.032786687056328e-02  26
8.496557879803703e-02  5.158076240129510e-02  27
8.096557879803702e-02  5.558076240129510e-02  27
7.696557879803702e-02  5.158076240129510e-02  27
8.096557879803702e-02  4.758076240129509e-02  27
8.016192066795857e-02  5.844109718483719e-02  28
7.616192066795857e-02  6.244109718483719e-02  28
7.216192066795857e-02  5.844109718483719e-02  28
7.616192066795857e-02  5.444109718483719e-02  28
7.477862433377190e-02  6.485665993110340e-02  29
7.077862433377190e-02  6.885665993110340e-02  29
6.677862433377189e-02  6.485665993110340e-02  29
7.077862433377190e-02  6.085665993110340e-02  29
6.885665993110338e-02  7.077862433377191e-02  30
6.485665993110337e-02  7.477862433377191e-02  30
6.085665993110337e-02  7.077862433377191e-02  30
6.485665993110337e-02  6.677862433377191e-02  30
6.244109718483717e-02  7.616192066795859e-02  31
5.844109718483717e-02  8.016192066795859e-02  31
5.444109718483717e-02  7.616192066795859e-02  31
5.844109718483717e-02  7.216192066795858e-02  31
5.558076240129507e-02  8.096557879803704e-02  32
5.158076240129508e-02  8.496557879803704e-02  32
4.758076240129508e-02  8.096557879803704e-02  32
5.158076240129508e-02  7.696557879803703e-02  32
6.323794376156054e-02  -8.460055130657414e-02  33
5.923794376156054e-02  -8.060055130657413e-02  33
5.523794376156053e-02  -8.460055130657414e-02  33
5.923794376156054e-02  -8.860055130657414e-02  33
7.038594938710944e-02  -7.911569367986504e-02  34
6.638594938710944e-02  -7.511569367986504e-02  34
6.238594938710944e-02  -7.911569367986504e-02  34
6.638594938710944e-02  -8.311569367986504e-02  34
7.702871785289023e-02  -7.302871785289021e-02  35
7.302871785289022e-02  -6.902871785289021e-02  35
6.902871785289022e-02  -7.302871785289021e-02  35
7.302871785289022e-02  -7.702871785289021e-02  35
8.311569367986506e-02  -6.638594938710941e-02  36
7.911569367986505e-02  -6.238594938710941e-02  36
7.511569367986505e-02  -6.638594938710941e-02  36
7.911569367986505e-02  -7.038594938710942e-02  36
8.860055130657417e-02  -5.923794376156051e-02  37
8.460055130657416e-02  -5.523794376156051e-02  37
8.060055130657416e-02  -5.923794376156051e-02  37
8.460055130657416e-02  -6.323794376156051e-02  37
9.344154765463068e-02  -5.163910161513775e-02  38
8.944154765463068e-02  -4.763910161513775e-02  38
8.544154765463068e-02  -5.163910161513775e-02  38
8.944154765463068e-02  -5.563910161513774e-02  38
9.760183981875241e-02  -4.364725472488171e-02  39
9.360183981875241e-02  -3.964725472488172e-02  39
8.960183981875240e-02  -4.364725472488171e-02  39
9.360183981875241e-02  -4.764725472488171e-02  39
1.010497654635173e-01  -3.532322587123636e-02  40
9.704976546351728e-02  -3.132322587123636e-02  40
9.304976546351727e-02  -3.532322587123636e-02  40
9.704976546351728e-02  -3.932322587123636e-02  40
1.037590837928542e-01  -2.673036593996397e-02  41
9.975908379285421e-02  -2.273036593996397e-02  41
9.575908379285421e-02  -2.673036593996397e-02  41
9.975908379285421e-02  -3.073036593996397e-02  41
1.057091752583458e-01  -1.793407178365220e-02  42
1.017091752583458e-01  -1.393407178365220e-02  42
9.770917525834581e-02  -1.793407178365220e-02  42
1.017091752583458e-01  -2.193407178365220e-02  42
1.068851984864423e-01  -9.001288512178232e-03  43
1.028851984864423e-01  -5.001288512178232e-03  43
9.888519848644226e-02  -9.001288512178232e-03  43
1.028851984864423e-01  -1.300128851217823e-02  43
1.072782032302755e-01  2.006582185442942e-17  44
1.032782032302755e-01  4.000000000000020e-03  44
9.927820323027552e-02  2.006582185442942e-17  44
1.032782032302755e-01  -3.999999999999980e-03  44
1.068851984864423e-01  9.001288512178272e-03  45
1.028851984864423e-01  1.300128851217827e-02  45
9.888519848644226e-02  9.001288512178272e-03  45
1.028851984864423e-01  5.001288512178272e-03  45
1.057091752583458e-01  1.793407178365224e-02  46
1.017091752583458e-01  2.193407178365224e-02  46
9.770917525834580e-02  1.793407178365224e-02  46
1.017091752583458e-01  1.393407178365224e-02  46
1.037590837928542e-01  2.673036593996400e-02  47
9.975908379285420e-02  3.073036593996401e-02  47
9.575908379285419e-02  2.673036593996400e-02  47
9.975908379285420e-02  2.273036593996400e-02  47
1.010497654635173e-01  3.532322587123640e-02  48
9.704976546351726e-02  3.932322587123639e-02  48
9.304976546351726e-02  3.532322587123640e-02  48
9.704976546351726e-02  3.132322587123640e-02  48
9.760183981875240e-02  4.364725472488175e-02  49
9.360183981875239e-02  4.764725472488175e-02  49
8.960183981875239e-02  4.364725472488175e-02  49
9.360183981875239e-02  3.964725472488174e-02  49
9.344154765463067e-02  5.163910161513777e-02  50
8.944154765463067e-02  5.563910161513777e-02  50
8.544154765463066e-02  5.163910161513777e-02  50
8.944154765463067e-02  4.763910161513778e-02  50
8.860055130657414e-02  5.923794376156055e-02  51
8.460055130657414e-02  6.323794376156054e-02  51
8.060055130657413e-02  5.923794376156055e-02  51
8.460055130657414e-02  5.523794376156055e-02  51
8.311569367986504e-02  6.638594938710944e-02  52
7.911569367986504e-02  7.038594938710944e-02  52
7.511569367986504e-02  6.638594938710944e-02  52
7.911569367986504e-02  6.238594938710944e-02  52
7.702871785289020e-02  7.302871785289024e-02  53
7.302871785289020e-02  7.702871785289024e-02  53
6.902871785289019e-02  7.302871785289024e-02  53
7.302871785289020e-02  6.902871785289023e-02  53
7.038594938710942e-02  7.911569367986505e-02  54
6.638594938710941e-02  8.311569367986506e-02  54
6.238594938710941e-02  7.911569367986505e-02  54
6.638594938710941e-02  7.511569367986505e-02  54
6.323794376156051e-02  8.460055130657416e-02  55
5.923794376156051e-02  8.860055130657417e-02  55
5.523794376156051e-02  8.460055130657416e-02  55
5.923794376156051e-02  8.060055130657416e-02  55
5.363910161513778e-02  -9.290564926976842e-02  5
5.563910161513777e-02  -8.944154765463067e-02  7
4.963910161513777e-02  -8.597744603949291e-02  5
4.963910161513777e-02  8.597744603949291e-02  6
5.563910161513777e-02  8.944154765463067e-02  8
5.363910161513778e-02  9.290564926976842e-02  6
6.449312792404238e-02  -8.662930480254995e-02  2
7.411409693557654e-02  -7.855635324672322e-02  2
8.273279992647506e-02  -6.942106176316987e-02  2
9.023268371304113e-02  -5.934696950933786e-02  2
9.651232521600492e-02  -4.847031134003679e-02  2
1.014868030760868e-01  -3.693817539342707e-02  2
1.050888460373092e-01  -2.490651397820916e-02  2
1.072697426385290e-01  -1.253803470499858e-02  2
1.072697426329714e-01  1.253803475254741e-02  2
1.050888460101507e-01  2.490651409279968e-02  2
1.014868030150631e-01  3.693817556108839e-02  2
9.651232509581073e-02  4.847031157936312e-02  2
9.023268355910607e-02  5.934696974338477e-02  2
8.273279979739441e-02  6.942106191700220e-02  2
7.411409684941292e-02  7.855635332801440e-02  2
6.449312789648574e-02  8.662930482306512e-02  2
1.194317183706392e+01  -1.604246385286135e+01  1
1.372483276311164e+01  -1.454747282604842e+01  1
1.532088887174771e+01  -1.285575218256627e+01  1
1.670975623779778e+01  -1.099017954691270e+01  1
1.787265281481901e+01  -8.975983587381497e+00  1
1.879385242015539e+01  -6.840402854322204e+00  1
1.946089741386600e+01  -4.612317405272925e+00  1
1.986476715545068e+01  -2.321858277270199e+00  1
1.986476715423716e+01  2.321858287652476e+00  1
1.946089740941767e+01  4.612317424041934e+00  1
1.879385241077991e+01  6.840402880081137e+00  1
1.787265279645268e+01  8.975983623951864e+00  1
1.670975621661394e+01  1.099017957912116e+01  1
1.532088885230894e+01  1.285575220573248e+01  1
1.372483275122939e+01  1.454747283725875e+01  1
1.194317183192667e+01  1.604246385668590e+01  1
6.237436864465499e-02  1.237436869687418e-02  4
3.762563130028746e-02  1.237436864181662e-02  4
3.762563135408726e-02  -1.237436869561642e-02  4
6.237436869686233e-02  -1.237436864466683e-02  4
6.309980427698067e-02  -1.092920669553824e-01  5
9.039902310001184e-02  -1.565757009638131e-01  5
1.722966147447317e-01  -2.984264907099963e-01  5
4.179893572666847e-01  -7.239788038089572e-01  5
1.155067390359791e+00  -2.000635406269151e+00  5
3.366300906213768e+00  -5.830604203127399e+00  5
1.261996085539616e-01  0.000000000000000e+00  0
1.807980462000250e-01  0.000000000000000e+00  0
3.445932294894695e-01  0.000000000000000e+00  0
8.359787145332679e-01  0.000000000000000e+00  0
2.310134780719295e+00  0.000000000000000e+00  0
6.732601812426335e+00  0.000000000000000e+00  0
6.309980427698067e-02  1.092920669553824e-01  6
9.039902310001184e-02  1.565757009638131e-01  6
1.722966147447317e-01  2.984264907099963e-01  6
4.179893572666847e-01  7.239788038089572e-01  6
1.155067390359791e+00  2.000635406269151e+00  6
3.366300906213768e+00  5.830604203127399e+00  6
5.440918952851133e-02  -7.813715167576088e-02  9
4.875233526831745e-02  -7.813715168152230e-02  9
4.875233527407886e-02  -8.379400592031319e-02  9
5.440918953427275e-02  -8.379400591455177e-02  9
6.126952431205342e-02  -7.333349354568242e-02  10
5.561267005185953e-02  -7.333349355144383e-02  10
5.561267005762095e-02  -7.899034779023473e-02  10
6.126952431781484e-02  -7.899034778447331e-02  10
6.768508705520161e-02  -6.795019720837772e-02  11
6.202823279651849e-02  -6.795019721886442e-02  11
6.202823280298914e-02  -7.360705145515002e-02  11
6.768508705928679e-02  -7.360705145508090e-02  11
7.360705145040461e-02  -6.202823279824368e-02  12
6.795019721132980e-02  -6.202823280405310e-02  12
6.795019721073768e-02  -6.768508705756153e-02  12
7.360705146023007e-02  -6.768508705413760e-02  12
7.899034778274809e-02  -5.561267005013430e-02  13
7.333349354674643e-02  -5.561267005655694e-02  13
7.333349355316908e-02  -6.126952431954005e-02  13
7.899034778917075e-02  -6.126952431311740e-02  13
8.379400591455177e-02  -4.875233526831743e-02  14
7.813715167576088e-02  -4.875233527407885e-02  14
7.813715168152230e-02  -5.440918953427273e-02  14
8.379400592031319e-02  -5.440918952851131e-02  14
8.798146710022280e-02  -4.149943973618437e-02  15
8.232461285067720e-02  -4.149943975550296e-02  15
8.232461286999578e-02  -4.715629400494212e-02  15
8.798146711954137e-02  -4.715629398562353e-02  15
9.152086223619706e-02  -3.390918237266973e-02  16
8.586400798665146e-02  -3.390918239198833e-02  16
8.586400800597004e-02  -3.956603664142749e-02  16
9.152086225551563e-02  -3.956603662210889e-02  16
9.438525439022624e-02  -2.603932962131427e-02  17
8.872840013967544e-02  -2.603932963507218e-02  17
8.872840014861129e-02  -3.169618387868409e-02  17
9.438525440413384e-02  -3.169618386959853e-02  17
9.655284380030389e-02  -1.794977580535576e-02  18
9.089598955189422e-02  -1.794977582018488e-02  18
9.089598956672333e-02  -2.360663007075996e-02  18
9.655284381513300e-02  -2.360663005593085e-02  18
9.800713381009329e-02  -9.702087321840053e-03  19
9.235027955765790e-02  -9.702087337860458e-03  19
9.235027957340623e-02  -1.535894158413776e-02  19
9.800713383046822e-02  -1.535894156403490e-02  19
9.873705638832790e-02  -1.359034054049409e-03  20
9.308020213968884e-02  -1.359034069749368e-03  20
9.308020215522114e-02  -7.015888319927412e-03  20
9.873705640115911e-02  -7.015888307263860e-03  20
9.873705638849556e-02  7.015888319927440e-03  21
9.308020214255759e-02  7.015888307263888e-03  21
9.308020215538880e-02  1.359034054049437e-03  21
9.873705640402786e-02  1.359034069749396e-03  21
9.800713380731650e-02  1.535894158718664e-02  22
9.235027955988759e-02  1.535894157061914e-02  22
9.235027957573520e-02  9.702087319783184e-03  22
9.800713382458198e-02  9.702087336328763e-03  22
9.655284380030389e-02  2.360663007075999e-02  23
9.089598955189422e-02  2.360663005593088e-02  23
9.089598956672333e-02  1.794977580535579e-02  23
9.655284381513300e-02  1.794977582018490e-02  23
9.438525439452460e-02  3.169618387920781e-02  24
8.872840013930405e-02  3.169618386937687e-02  24
8.872840015343333e-02  2.603932962131430e-02  24
9.438525440398414e-02  2.603932963507220e-02  24
9.152086223587304e-02  3.956603664175150e-02  25
8.586400799987137e-02  3.956603663532886e-02  25
8.586400800629403e-02  3.390918237234575e-02  25
9.152086224229569e-02  3.390918237876840e-02  25
8.798146709849755e-02  4.715629400666738e-02  26
8.232461285397526e-02  4.715629398892163e-02  26
8.232461287172099e-02  4.149943973445917e-02  26
8.798146711624329e-02  4.149943975220492e-02  26
8.379400591282653e-02  5.440918953599797e-02  27
7.813715167682486e-02  5.440918952957532e-02  27
7.813715168324752e-02  4.875233526659222e-02  27
8.379400591924918e-02  4.875233527301487e-02  27
7.899034778307208e-02  6.126952431921607e-02  28
7.333349353352649e-02  6.126952429989747e-02  28
7.333349355284506e-02  5.561267005045831e-02  28
7.899034780239066e-02  5.561267006977691e-02  28
7.360705145508090e-02  6.768508705928679e-02  29
6.795019720837772e-02  6.768508705520161e-02  29
6.795019721886442e-02  6.202823279651849e-02  29
7.360705145515002e-02  6.202823280298914e-02  29
6.768508705413760e-02  7.360705146023007e-02  30
6.202823279824368e-02  7.360705145040461e-02  30
6.202823280405310e-02  6.795019721132980e-02  30
6.768508705756153e-02  6.795019721073768e-02  30
6.126952431311740e-02  7.899034778917075e-02  31
5.561267005013430e-02  7.899034778274809e-02  31
5.561267005655694e-02  7.333349354674643e-02  31
6.126952431954005e-02  7.333349355316908e-02  31
5.440918951635536e-02  8.379400593246912e-02  32
4.875233526691620e-02  8.379400591315055e-02  32
4.875233528623479e-02  7.813715166360495e-02  32
5.440918953567395e-02  7.813715168292353e-02  32
6.206637088981472e-02  -8.177212418533594e-02  33
5.640951662685766e-02  -8.177212419178463e-02  33
5.640951663328031e-02  -8.742897842778630e-02  33
6.206637089562476e-02  -8.742897842200230e-02  33
6.921437650841844e-02  -7.628726655168165e-02  34
6.355752226238255e-02  -7.628726655509956e-02  34
6.355752226652647e-02  -8.194412080877446e-02  34
6.921437651250362e-02  -8.194412080396325e-02  34
7.585714497698844e-02  -7.020029072749603e-02  35
7.020029072470683e-02  -7.020029073158121e-02  35
7.020029072879201e-02  -7.585714497828439e-02  35
7.585714498107361e-02  -7.585714497419921e-02  35
8.194412080290532e-02  -6.355752226065729e-02  36
7.628726655201962e-02  -6.355752226546246e-02  36
7.628726655749206e-02  -6.921437651422881e-02  36
8.194412080698445e-02  -6.921437650948241e-02  36
8.742897842136367e-02  -5.640951662685764e-02  37
8.177212418536201e-02  -5.640951663328028e-02  37
8.177212419114600e-02  -6.206637089562474e-02  37
8.742897842781236e-02  -6.206637088981470e-02  37
9.226997476801896e-02  -4.881067447903364e-02  38
8.661312052349666e-02  -4.881067449677939e-02  38
8.661312054124240e-02  -5.446752875124185e-02  38
9.226997478576469e-02  -5.446752873349611e-02  38
9.643026693214068e-02  -4.081882758877761e-02  39
9.077341268761839e-02  -4.081882760652335e-02  39
9.077341270536413e-02  -4.647568186098582e-02  39
9.643026694988642e-02  -4.647568184324007e-02  39
9.987819257830678e-02  -3.249479873653349e-02  40
9.422133834230512e-02  -3.249479874295613e-02  40
9.422133834872777e-02  -3.815165300593924e-02  40
9.987819258472944e-02  -3.815165299951659e-02  40
1.025875109079193e-01  -2.390193880553664e-02  41
9.693065666175985e-02  -2.390193882156596e-02  41
9.693065667778915e-02  -2.955879307439129e-02  41
1.025875109239486e-01  -2.955879305836197e-02  41
1.045376023750126e-01  -1.510564465082658e-02  42
9.888074812660579e-02  -1.510564466589985e-02  42
9.888074814328075e-02  -2.076249891807953e-02  42
1.045376023894402e-01  -2.076249890205021e-02  42
1.057136256035146e-01  -6.172861379758154e-03  43
1.000567713530874e-01  -6.172861396040752e-03  43
1.000567713682348e-01  -1.182971564346312e-02  43
1.057136256206702e-01  -1.182971562744271e-02  43
1.061066303467344e-01  2.828427133033534e-03  44
1.004497760978257e-01  2.828427117042583e-03  44
1.004497761138167e-01  -2.828427133033494e-03  44
1.061066303627253e-01  -2.828427117042543e-03  44
1.057136256025929e-01  1.182971564552005e-02  45
1.000567713537461e-01  1.182971562897447e-02  45
1.000567713696001e-01  6.172861379528027e-03  45
1.057136256197963e-01  6.172861396039909e-03  45
1.045376023751361e-01  2.076249891635434e-02  46
9.888074812672641e-02  2.076249890152523e-02  46
9.888074813995382e-02  1.510564465255185e-02  46
1.045376023906109e-01  1.510564466642492e-02  46
1.025875109112507e-01  2.955879307105994e-02  47
9.693065666069985e-02  2.955879305730204e-02  47
9.693065667445774e-02  2.390193880886807e-02  47
1.025875109250085e-01  2.390193882262597e-02  47
9.987819257863077e-02  3.815165300561527e-02  48
9.422133832908518e-02  3.815165298629668e-02  48
9.422133834840375e-02  3.249479873685752e-02  48
9.987819259794935e-02  3.249479875617611e-02  48
9.643026693526713e-02  4.647568185785940e-02  49
9.077341269647624e-02  4.647568185209798e-02  49
9.077341270223765e-02  4.081882759190410e-02  49
9.643026694102855e-02  4.081882759766552e-02  49
9.226997476974418e-02  5.446752874951665e-02  50
8.661312052019858e-02  5.446752873019806e-02  50
8.661312053951715e-02  4.881067448075890e-02  50
9.226997478906275e-02  4.881067450007749e-02  50
8.742897841876390e-02  6.206637089886317e-02  51
8.177212417405245e-02  6.206637087853124e-02  51
8.177212419318586e-02  5.640951662545644e-02  51
8.742897843770815e-02  5.640951664320219e-02  51
8.194412080396325e-02  6.921437651250362e-02  52
7.628726655168165e-02  6.921437650841844e-02  52
7.628726655509956e-02  6.355752226238255e-02  52
8.194412080877446e-02  6.355752226652647e-02  52
7.585714497698841e-02  7.585714497828441e-02  53
7.020029072470681e-02  7.585714497419924e-02  53
7.020029072879198e-02  7.020029072749606e-02  53
7.585714498107358e-02  7.020029073158124e-02  53
6.921437650948241e-02  8.194412080698445e-02  54
6.355752226065729e-02  8.194412080290532e-02  54
6.355752226546246e-02  7.628726655201962e-02  54
6.921437651422881e-02  7.628726655749206e-02  54
6.206637088981470e-02  8.742897842781236e-02  55
5.640951662685764e-02  8.742897842136367e-02  55
5.640951663328028e-02  8.177212418536201e-02  55
6.206637089562474e-02  8.177212419114600e-02  55
5.363910160313139e-02  -8.597744603256102e-02  7
9.927820323005839e-03  -1.719548920786097e-02  5
1.985564064600312e-02  -3.439097841570711e-02  5
2.978346096902991e-02  -5.158646762360437e-02  5
3.971128129208424e-02  -6.878195683154933e-02  5
5.363910162210024e-02  8.597744604351269e-02  8
9.927820323005839e-03  1.719548920786097e-02  6
1.985564064600312e-02  3.439097841570711e-02  6
2.978346096902991e-02  5.158646762360437e-02  6
3.971128129208424e-02  6.878195683154933e-02  6
4.405231493325688e-02  -2.478307839288007e-03  0
5.605398120354924e-02  2.492789131854705e-03  0
4.754074629274409e-02  6.029101031962165e-03  0
5.253483558437141e-02  -6.033944124409969e-03  0
1.253462919441067e-01  1.465088035020043e-02  0
1.227978817581616e-01  2.910363267500589e-02  0
1.185888408699219e-01  4.316280829952381e-02  0
1.127760893316306e-01  5.663828099648854e-02  0
1.054382346678407e-01  6.934781805725725e-02  0
9.667450878793778e-02  8.111954480754947e-02  0
8.660342602646774e-02  9.179426888238290e-02  0
7.536118050817019e-02  1.012276329447057e-01  0
1.795755544853158e-01  2.098937209727192e-02  0
1.759246114453898e-01  4.169489893901779e-02  0
1.698945898188947e-01  6.183657380560287e-02  0
1.615670352954872e-01  8.114201510668173e-02  0
1.510545638115554e-01  9.935014978069676e-02  0
1.384993385222043e-01  1.162147440674286e-01  0
1.240711472850195e-01  1.315077333130071e-01  0
1.079651066362419e-01  1.450223060731377e-01  0
3.422632133368354e-01  4.000483228718552e-02  0
3.353046743530271e-01  7.946866783199474e-02  0
3.238117148358429e-01  1.178578259813570e-01  0
3.079397573287062e-01  1.546531592510098e-01  0
2.879034429227522e-01  1.893570737078647e-01  0
2.639737284083019e-01  2.215002585104577e-01  0
2.364742220903066e-01  2.506480323017984e-01  0
2.057768075995942e-01  2.764062214641669e-01  0
8.303261255051863e-01  9.705120533126879e-02  0
8.134447999987716e-01  1.927899595613825e-01  0
7.855630289715708e-01  2.859215603373576e-01  0
7.470578654990697e-01  3.751865625908425e-01  0
6.984500260962676e-01  4.593778098677631e-01  0
6.403968484081608e-01  5.373567601712075e-01  0
5.736834020209202e-01  6.080688821165962e-01  0
4.992118717791772e-01  6.705579156400850e-01  0
2.294514475694773e+00  2.681902793097041e-01  0
2.247864798474693e+00  5.327537450525441e-01  0
2.170816605889639e+00  7.901126303781688e-01  0
2.064411842435853e+00  1.036786598051925e+00  0
1.930089450657662e+00  1.269439804618420e+00  0
1.769665910458254e+00  1.484926015144113e+00  0
1.585310674902201e+00  1.680331148652288e+00  0
1.379516832055796e+00  1.853012686185633e+00  0
6.687078367302338e+00  7.816073657819063e-01  0
6.551123658504083e+00  1.552644832431729e+00  0
6.326576240162593e+00  2.302685441414146e+00  0
6.016472730510108e+00  3.021586180753518e+00  0
5.625006749452120e+00  3.699625147675436e+00  0
5.157472202748896e+00  4.327633030025645e+00  0
4.620191692804412e+00  4.897117099522911e+00  0
4.020431016090690e+00  5.400376061864268e+00  0
7.536118054040178e-02  -1.012276329207101e-01  0
8.660342612342384e-02  -9.179426879090949e-02  0
9.667450893468524e-02  -8.111954463266263e-02  0
1.054382348410164e-01  -6.934781779395627e-02  0
1.127760894685185e-01  -5.663828072392214e-02  0
1.185888409394677e-01  -4.316280810844848e-02  0
1.227978817893651e-01  -2.910363254334804e-02  0
1.253462919507696e-01  -1.465088029319613e-02  0
1.079651066824983e-01  -1.450223060387011e-01  0
1.240711474143528e-01  -1.315077331909873e-01  0
1.384993387219517e-01  -1.162147438293786e-01  0
1.510545640424527e-01  -9.935014942963413e-02  0
1.615670354824560e-01  -8.114201473439586e-02  0
1.698945899140061e-01  -6.183657354428601e-02  0
1.759246114887282e-01  -4.169489875615830e-02  0
1.795755544952941e-01  -2.098937201190142e-02  0
2.057768076879248e-01  -2.764062213984068e-01  0
2.364742223167711e-01  -2.506480320881393e-01  0
2.639737287670492e-01  -2.215002580829183e-01  0
2.879034433268139e-01  -1.893570730935172e-01  0
3.079397576659172e-01  -1.546531585795657e-01  0
3.238117150076513e-01  -1.178578255093156e-01  0
3.353046744327702e-01  -7.946866749553043e-02  0
3.422632133567601e-01  -4.000483211671645e-02  0
4.992118719937352e-01  -6.705579154803589e-01  0
5.736834025387876e-01  -6.080688816280257e-01  0
6.403968492439195e-01  -5.373567591752078e-01  0
6.984500270198363e-01  -4.593778084635694e-01  0
7.470578662870212e-01  -3.751865610219316e-01  0
7.855630293734829e-01  -2.859215592331493e-01  0
8.134448001877385e-01  -1.927899587641083e-01  0
8.303261255549561e-01  -9.705120490550645e-02  0
1.379516832649031e+00  -1.853012685744003e+00  0
1.585310676294267e+00  -1.680331147338977e+00  0
1.769665912725033e+00  -1.484926012442724e+00  0
1.930089453139735e+00  -1.269439800844679e+00  0
2.064411844576011e+00  -1.036786593790606e+00  0
2.170816606981847e+00  -7.901126273774529e-01  0
2.247864798991321e+00  -5.327537428728355e-01  0
2.294514475834071e+00  -2.681902781180595e-01  0
4.020431017819970e+00  -5.400376060576944e+00  0
4.620191696819101e+00  -4.897117095735398e+00  0
5.157472209308771e+00  -4.327633022208112e+00  0
5.625006756609748e+00  -3.699625136793082e+00  0
6.016472736706922e+00  -3.021586168414999e+00  0
6.326576243325726e+00  -2.302685432723927e+00  0
6.551123660003719e+00  -1.552644826104732e+00  0
6.687078367710240e+00  -7.816073622926228e-01  0
5.294260851020770e-02  -8.152631483567692e-02  0
5.019939571230755e-02  -8.039000324053783e-02  0
5.100378794274194e-02  -8.233750409841181e-02  0
5.214630374581033e-02  -7.958065485955260e-02  0
5.980294329374979e-02  -7.672265670559847e-02  0
5.705973049584962e-02  -7.558634511045940e-02  0
5.786412272628403e-02  -7.753384596833338e-02  0
5.900663852935242e-02  -7.477699672947413e-02  0
6.349481382126060e-02  -7.021788829645753e-02  0
6.623802661844394e-02  -7.135419989194089e-02  0
6.543363438838487e-02  -6.940669903320437e-02  0
6.429111858542479e-02  -7.216354827268720e-02  0
7.214047043955199e-02  -6.429592389025880e-02  0
6.939725764647525e-02  -6.543223548934191e-02  0
7.020164987431964e-02  -6.348473462797240e-02  0
7.134416567866023e-02  -6.624158386996171e-02  0
7.560118462899512e-02  -5.707925107615254e-02  0
7.673749622693482e-02  -5.982246387372841e-02  0
7.478999536848506e-02  -5.901807164508126e-02  0
7.754684460565672e-02  -5.787555583870336e-02  0
8.152631483567692e-02  -5.021891629238248e-02  0
8.039000324053783e-02  -5.296212909028262e-02  0
8.233750409841181e-02  -5.215773685984823e-02  0
7.958065485955260e-02  -5.101522105677984e-02  0
8.379119387877473e-02  -4.488860291175503e-02  0
8.653440667191775e-02  -4.375229130945245e-02  0
8.573001444649626e-02  -4.569979217122323e-02  0
8.458749863801858e-02  -4.294294293177037e-02  0
8.925890548526112e-02  -3.809708037900775e-02  0
8.812265474716077e-02  -3.535384237510930e-02  0
8.731435488539700e-02  -3.729972464091833e-02  0
9.007162234923155e-02  -3.615821851535535e-02  0
9.019498116314281e-02  -2.830702071468174e-02  0
9.293819395973837e-02  -2.944333230901410e-02  0
9.213380172874316e-02  -2.749583145023400e-02  0
9.099128592770386e-02  -3.025268069134225e-02  0
9.316368064651548e-02  -2.214004904609319e-02  0
9.429999224021660e-02  -1.939683624982777e-02  0
9.235249138150298e-02  -2.020122848100634e-02  0
9.510934062350553e-02  -2.134374428097637e-02  0
9.573944273375737e-02  -1.389236055820102e-02  0
9.460313113131416e-02  -1.114914776627457e-02  0
9.655063199370231e-02  -1.195353999161767e-02  0
9.379378275282328e-02  -1.309605579932516e-02  0
9.534789323456012e-02  -5.549307295513724e-03  0
9.648420482832173e-02  -2.806094499022536e-03  0
9.453670396963372e-02  -3.610486730292385e-03  0
9.729355321130079e-02  -4.753002530520451e-03  0
9.646936531271676e-02  2.825615080612865e-03  0
9.533305371187814e-02  5.568827874726172e-03  0
9.728055457277257e-02  4.764435648165200e-03  0
9.452370533342669e-02  3.621919840794887e-03  0
9.573944272863896e-02  1.389236056147824e-02  0
9.460313113539401e-02  1.114914776500263e-02  0
9.655063199396020e-02  1.195353999647949e-02  0
9.379378275189060e-02  1.309605579603389e-02  0
9.508388755549750e-02  2.134467330171913e-02  0
9.234064955147510e-02  2.020842256464849e-02  0
9.428653181675289e-02  1.940012270205521e-02  0
9.314502569240464e-02  2.215739016652374e-02  0
9.019735639837217e-02  2.943422711219519e-02  0
9.294059440573886e-02  2.829797638213869e-02  0
9.099471214218020e-02  2.748967651531640e-02  0
9.213621826021774e-02  3.024694398083635e-02  0
8.813169908363719e-02  3.537576339769102e-02  0
8.926801067837149e-02  3.811897619633817e-02  0
8.732050982102961e-02  3.731458396558734e-02  0
9.007735905923965e-02  3.617206816245422e-02  0
8.459230394861114e-02  4.296602076179214e-02  0
8.572861554124987e-02  4.570923355926418e-02  0
8.378111468345287e-02  4.490484132732191e-02  0
8.653796392470967e-02  4.376232552776713e-02  0
8.152631483548337e-02  5.294260851065271e-02  0
8.039000324074905e-02  5.019939571200554e-02  0
8.233750409809094e-02  5.100378794275637e-02  0
7.958065485988090e-02  5.214630374588949e-02  0
7.480007456162401e-02  5.788036114364539e-02  0
7.754328735476704e-02  5.901667274594797e-02  0
7.673889512934554e-02  5.706917188417721e-02  0
7.559637932086787e-02  5.982602112363005e-02  0
7.021788829645753e-02  6.349481382126060e-02  0
7.135419989194089e-02  6.623802661844394e-02  0
6.940669903320437e-02  6.543363438838487e-02  0
7.216354827268720e-02  6.429111858542479e-02  0
6.349481382170558e-02  7.133936037127982e-02  0
6.623802661814192e-02  7.020304877539171e-02  0
6.543363438839929e-02  7.215054963466032e-02  0
6.429111858550395e-02  6.939370039452830e-02  0
5.980294329419478e-02  7.560118463051223e-02  0
5.705973049554763e-02  7.673749622524653e-02  0
5.786412272629846e-02  7.478999536790465e-02  0
5.900663852943157e-02  7.754684460611472e-02  0
5.102002636477170e-02  7.960373268989174e-02  0
5.215633795744011e-02  8.234694548627412e-02  0
5.020883709894529e-02  8.154255325444673e-02  0
5.296568634156477e-02  8.040003745569989e-02  0
5.787609765283508e-02  -8.516128734556853e-02  0
6.061931045035410e-02  -8.402497574767789e-02  0
5.981491822165987e-02  -8.597247660618335e-02  0
5.867240241538718e-02  -8.321562736890416e-02  0
6.582521334913032e-02  -8.047753978766432e-02  0
6.696152494530154e-02  -7.773432699169246e-02  0
6.501402408606012e-02  -7.853871922126662e-02  0
6.777087332660262e-02  -7.968123502415053e-02  0
7.439056396055198e-02  -7.358945389105617e-02  0
7.164735116475436e-02  -7.245314229481867e-02  0
7.245174339432339e-02  -7.440064315418460e-02  0
7.359425919715756e-02  -7.164379391346791e-02  0
7.775622280728456e-02  -6.695241974958197e-02  0
8.049946081260169e-02  -6.581616901516818e-02  0
7.855357854779640e-02  -6.500786915105614e-02  0
7.969508466977630e-02  -6.776513661593135e-02  0
8.596002217718184e-02  -5.867147339833854e-02  0
8.321678417542884e-02  -5.980772413427276e-02  0
8.516266643804134e-02  -6.061602399932253e-02  0
8.402116031691598e-02  -5.785875653112337e-02  0
8.888081161813254e-02  -5.300094772390887e-02  0
9.001712321077129e-02  -5.025773492643683e-02  0
8.806962235297426e-02  -5.106212715837910e-02  0
9.082647159423106e-02  -5.220464295793389e-02  0
9.304110378225426e-02  -4.500910083365287e-02  0
9.417741537489302e-02  -4.226588803618081e-02  0
9.222991451709599e-02  -4.307028026812309e-02  0
9.498676375835279e-02  -4.421279606767786e-02  0
9.761050150248073e-02  -3.668507197992098e-02  0
9.647418990454101e-02  -3.394185918234512e-02  0
9.842169076299077e-02  -3.474625141099227e-02  0
9.566484152581910e-02  -3.588876721737015e-02  0
9.919834775223359e-02  -2.536851983306987e-02  0
1.003346593534367e-01  -2.811173262730838e-02  0
9.838715849248300e-02  -2.730734040106850e-02  0
1.011440077313949e-01  -2.616482459313620e-02  0
1.011484392216336e-01  -1.929591789219390e-02  0
1.022847508150560e-01  -1.655270509559060e-02  0
1.003372499565212e-01  -1.735709732693385e-02  0
1.030940991982935e-01  -1.849961312681324e-02  0
1.034459345273490e-01  -1.036313461811909e-02  0
1.023096229256626e-01  -7.619921825203925e-03  0
1.042571237874323e-01  -8.424314050993909e-03  0
1.015002745472147e-01  -9.566829858509382e-03  0
1.027174671933905e-01  -1.361846108029866e-03  0
1.038537787868443e-01  1.381366688208104e-03  0
1.019062779281478e-01  5.769744568790949e-04  0
1.046631271703685e-01  -5.655413427550090e-04  0
1.042446693601169e-01  8.434818152528792e-03  0
1.015014313531914e-01  9.571068881685940e-03  0
1.034473136159078e-01  1.037936874942439e-02  0
1.023058074993490e-01  7.622101282679563e-03  0
1.011427048947399e-01  1.929354265605412e-02  0
1.022789556315996e-01  1.655030465173176e-02  0
1.030872554941025e-01  1.849618691717718e-02  0
1.003299880298504e-01  1.735468079285945e-02  0
9.839723768488447e-02  2.729110197708669e-02  0
1.011404504810550e-01  2.615479038311600e-02  0
1.003360582500515e-01  2.810229124192771e-02  0
9.919354244981209e-02  2.534544200000444e-02  0
9.841161156985183e-02  3.588396191242819e-02  0
9.566839877670880e-02  3.474765031012560e-02  0
9.647279100213030e-02  3.669515117189638e-02  0
9.761530681060798e-02  3.393830193244352e-02  0
9.416257585639226e-02  4.500910083379436e-02  0
9.302626426125318e-02  4.226588803589421e-02  0
9.497376511912717e-02  4.307028026632860e-02  0
9.221691588026794e-02  4.421279606939698e-02  0
9.000801801880823e-02  5.027963074317861e-02  0
8.887176728070788e-02  5.302286874707707e-02  0
8.806346741894411e-02  5.107698648126805e-02  0
9.082073488277867e-02  5.221849260683103e-02  0
8.596239741194618e-02  5.979867980299430e-02  0
8.321918462000702e-02  5.866236820033744e-02  0
8.402357684507561e-02  6.060986906281277e-02  0
8.516609265306467e-02  5.785301982210576e-02  0
8.047753978766432e-02  6.582521334913032e-02  0
7.773432699169246e-02  6.696152494530154e-02  0
7.853871922126662e-02  6.501402408606012e-02  0
7.968123502415053e-02  6.777087332660262e-02  0
7.439056396055194e-02  7.246798181472427e-02  0
7.164735116475433e-02  7.360429341096178e-02  0
7.245174339432334e-02  7.165679255159585e-02  0
7.359425919715752e-02  7.441364179231254e-02  0
6.581947902611129e-02  7.775622280678050e-02  0
6.695572975814573e-02  8.049946081289681e-02  0
6.776402962385702e-02  7.855357854901160e-02  0
6.500676215820836e-02  7.969508466858798e-02  0
5.787609765283503e-02  8.403981526757974e-02  0
6.061931045035406e-02  8.517612686547041e-02  0
5.981491822165985e-02  8.322862600696494e-02  0
5.867240241538715e-02  8.598547524424413e-02  0
5.186489494459569e-02  7.323838411407402e-02  0
5.296954310896560e-02  -7.271056055068260e-02  0
7.913902105762448e-02  4.146539589509897e-02  0
7.861479183500200e-02  -4.220967303527772e-02  0
8.737484438187700e-02  -1.715985284210554e-02  0
7.420902593506092e-02  4.947066369426899e-02  0
7.520349731541222e-02  -4.817450840934293e-02  0
8.745612427609335e-02  1.770705913509104e-02  0
8.202008115481942e-02  3.432277843364433e-02  0
8.307970946836193e-02  -3.339862540328333e-02  0
8.449912079169279e-02  -2.774976731642897e-02  0
8.484953582815985e-02  2.603572121334519e-02  0
8.816936091783277e-02  -1.029405489225798e-02  0
7.033185236520115e-02  5.482649706125376e-02  0
6.988584486674825e-02  -5.587260329454825e-02  0
8.865653898194703e-02  9.628219860847808e-03  0
6.547488550539807e-02  -6.173737351081292e-02  0
6.238809072398658e-02  6.425284312182029e-02  0
8.960640733378693e-02  1.598611269945468e-03  0
5.868099412898411e-02  6.440019559057661e-02  0
6.020607805342054e-02  5.997673492120070e-02  0
5.477728310949295e-02  6.454256095555541e-02  0
5.528478197423801e-02  5.685215099718113e-02  0
6.282951712845293e-02  2.714658943104961e-02  0
5.562859240661649e-02  -2.579922949650786e-02  0
5.795696193645736e-02  -6.846891424362390e-02  0
4.437749694291294e-02  -5.384765958503391e-02  0
4.717994629564848e-02  -2.991814699994784e-02  0
5.683919756707568e-02  -3.533943107320230e-02  0
6.587574149844770e-02  -3.341143713424734e-02  0
6.569026329829808e-02  -2.484367905255888e-02  0
7.598174284734341e-02  -1.318837966047500e-02  0
5.980953679283015e-02  -6.429406409619100e-02  0
5.564139396146099e-02  -6.524258531650493e-02  0
7.091557468434362e-02  1.860803754422934e-02  0
7.000765176476481e-02  3.151200027122394e-02  0
6.208853300823575e-02  -4.172894030275588e-02  0
6.652222750010310e-02  -5.868104241933597e-02  0
6.238190995933621e-02  -6.041845821863887e-02  0
6.361952675891229e-02  -5.681717833735496e-02  0
5.806130494318273e-02  -4.464214405973798e-02  0
5.071834189239037e-02  3.056817133300225e-02  0
5.608304992926021e-02  3.840483585575913e-02  0
7.941119644528291e-02  -3.596743141381590e-03  0
6.626822900706202e-02  5.342185203834369e-02  0
6.948971879905981e-02  4.915928558099075e-02  0
6.336424324939155e-02  4.902203673862078e-02  0
6.962663325841020e-02  -5.302029342597802e-02  0
7.435143295120449e-02  -2.842930392083410e-02  0
7.741512401797604e-02  -2.255342831486598e-02  0
7.591431051177762e-02  4.665128442437042e-02  0
7.603024275347187e-02  -4.591730881278023e-02  0
8.636501987782624e-02  1.174246530757351e-02  0
8.384917520649207e-02  8.758743416281391e-03  0
8.433961422089034e-02  1.435486620866681e-02  0
7.913679455434453e-02  1.080990851557398e-02  0
8.402063542549544e-02  1.849422372624920e-02  0
8.731074399638335e-02  -1.308215237351076e-02  0
8.531007825269751e-02  -1.004580579055872e-02  0
8.379932744494083e-02  -1.402037333163820e-02  0
7.351823145588192e-02  -3.515507515091652e-02  0
7.215836780768134e-02  -4.635276270510123e-02  0
8.678037495606240e-02  -2.103170244263033e-02  0
7.959864078253055e-02  -3.912178653778172e-02  0
8.073476947111301e-02  3.919814140865471e-02  0
7.660890254457647e-02  3.962996912080312e-02  0
6.630885005219476e-02  5.805412037663053e-02  0
8.387978152979884e-02  -3.059929092740254e-02  0
8.372112855412232e-02  3.053676881988308e-02  0
8.111748222962219e-02  2.719318269164761e-02  0
6.674411069008972e-02  4.543032985251907e-02  0
8.801693584272022e-02  4.790242968211597e-03  0
8.770109098820664e-02  2.299073595283822e-02  0
7.870929369735125e-02  3.667728666086655e-02  0
4.989752973785109e-02  6.125295229521103e-02  0
5.154126153177554e-02  4.954003960473024e-02  0
7.831836417749481e-02  1.791862827550998e-02  0
8.115243714834915e-02  -2.656910428253716e-02  0
8.792340214053578e-02  -6.433871107990429e-03  0
5.520328951631275e-02  -7.026039664737013e-02  0
8.498946907011994e-02  8.153406112961207e-04  0
4.931301074524985e-02  -4.305328069308548e-02  0
6.913182408964180e-02  6.909795393652933e-02  0
6.909795393618100e-02  -6.913182408998919e-02  0
9.774321340393839e-02  2.394981880940962e-05  0
5.786578851615692e-02  -5.528904023509967e-02  0
9.798426979123323e-02  -2.236234335888513e-02  0
8.509790624435569e-02  5.347277698534299e-02  0
8.509790625145290e-02  -5.347277698868054e-02  0
9.798426978631812e-02  2.236234335869400e-02  0
9.547227140850563e-02  2.505840384713931e-02  0
8.522805780926369e-02  -4.979012324089686e-02  0
8.522805781456180e-02  4.979012323806893e-02  0
9.547227140544029e-02  -2.505840384678388e-02  0
9.576535115683384e-02  3.059477661962417e-02  0
8.935010322937975e-02  -4.608255518914516e-02  0
8.935010322189681e-02  4.608255519218418e-02  0
9.576535116166601e-02  -3.059477662062086e-02  0
9.991147996064580e-02  1.383126832769120e-02  0
5.715332680712270e-02  -8.049022961612043e-02  0
8.049022957260553e-02  5.715332667437488e-02  0
8.061587159340165e-02  -5.760295758696198e-02  0
8.041012112212638e-02  -5.680779393571050e-02  0
5.760295758696197e-02  8.061587159340165e-02  0
5.680779393571050e-02  8.041012112212638e-02  0
8.041741434465352e-02  -5.984809568822341e-02  0
8.042778199762553e-02  -6.117623286618104e-02  0
5.984809568822341e-02  8.041741434465352e-02  0
6.117623286618104e-02  8.042778199762553e-02  0
9.732869213954348e-02  -1.650168222459767e-02  0
6.526660377437526e-02  6.169614834430095e-02  0
6.159835043261368e-02  -8.046536782250530e-02  0
8.925043468255997e-02  -2.704558712317219e-03  0
5.557324917548667e-02  7.011098046379904e-02  0
5.860167136096717e-02  4.567911315690305e-02  0
3.979673751369421e-02  -3.738062512973868e-02  0
7.236673661666845e-02  4.680788011230540e-02  0
7.127478269172600e-02  4.245143567172419e-02  0
7.338040774250913e-02  3.766855538596697e-02  0
7.437732588597037e-02  -4.324686288992199e-02  0
8.002466290244967e-02  -3.076039589717898e-02  0
8.230611567246247e-02  -2.294415145468598e-02  0
7.969546061939482e-02  3.176911337243705e-02  0
7.727425872484706e-02  2.914998979739146e-02  0
7.903480996072436e-02  2.326851459129874e-02  0
7.289920888204611e-02  1.013363993093866e-02  0
6.711514235719503e-02  -5.359940925260054e-02  0
6.904351998636057e-02  -5.011035363290493e-02  0
6.375276145481110e-02  -5.090842652520546e-02  0
8.622066288663210e-02  -3.129108451983070e-02  0
8.361619792550584e-02  3.903246242245077e-02  0
8.342085358930523e-02  -3.887007765378468e-02  0
8.610366088494781e-02  3.202076097888831e-02  0
8.028230798789444e-02  -9.921373455618953e-03  0
8.318808717545371e-02  -1.951396573302804e-02  0
8.391773032999993e-02  2.276062563828368e-02  0
4.829525210087376e-02  6.689454454264868e-02  0
4.800141325399716e-02  7.267725744176794e-02  0
2.435741100295443e-02  -1.138054820811744e-02  0
1.652098450210705e-02  -1.888707700844934e-04  0
8.304829721096757e-02  4.719010794933142e-03  0
5.133971255640608e-02  -6.751742947844809e-02  0
4.864080876732797e-02  -7.171007106180574e-02  0
5.323107352650742e-02  -5.993638890098384e-02  0
4.874671240175715e-02  4.178367789162244e-02  0
3.746775166440743e-02  3.303284166360450e-02  0
7.775146706923616e-02  3.023684126101246e-03  0
7.843853229044633e-02  -4.580138524314641e-02  0
7.863707872325550e-02  4.471833941057132e-02  0
7.861134820642549e-02  -3.499372442322258e-02  0
6.215793711628272e-02  5.580088341521162e-02  0
6.813977497427254e-02  3.701454065049035e-02  0
8.884672434255808e-02  -2.345745890331563e-02  0
3.125211339636914e-02  -2.685302811941669e-02  0
8.585536851346584e-02  -2.761447615981613e-03  0
6.951486643406696e-02  5.861286892289411e-02  0
6.956145006407166e-02  -5.902086773207041e-02  0
7.543200020644925e-02  4.295745786345158e-02  0
1.007908766990023e-01  1.301326146768374e-02  0
8.047394885926265e-02  -6.206926409042558e-02  0
6.206926409042558e-02  8.047394885926265e-02  0
6.209566747496021e-02  -8.045477911759839e-02  0
2.728700191922890e-02  2.186986177380023e-02  0
7.291389925786231e-02  -5.236710798932515e-02  0
7.392818765446388e-02  5.294978014353636e-02  0
9.096190600169723e-02  -7.614532571290301e-03  0
9.081697112704137e-02  7.289291117607829e-03  0
8.360359884917924e-02  -6.386992005279525e-03  0
7.615849324700916e-02  -3.983374958849964e-02  0
5.897732718426091e-02  -6.055080189929976e-02  0
8.866758161028040e-02  1.441943436352378e-02  0
8.890524927257014e-02  -1.465201197295333e-02  0
6.871326813020777e-02  -4.002947412449193e-02  0
6.298274015297028e-02  -6.364259073302704e-02  0
5.966177055480073e-02  5.249676272479319e-02  0
3.632174901949719e-02  2.225957826033564e-02  0
5.883020470508566e-02  6.891394184259907e-02  0
8.263430414204387e-02  3.731549179187059e-02  0
8.209671169057452e-02  -3.635975660804853e-02  0
7.276824366145684e-02  -7.575070435851616e-03  0
6.746181672043874e-02  -4.582903369154417e-02  0
4.649942150999729e-02  -6.263719019924181e-02  0
7.210722813040452e-02  -4.951612629563147e-02  0
6.190733211022795e-02  3.582919569913450e-02  0
7.206822485505739e-02  5.169269472116347e-02  0
7.551117302464826e-02  3.351637364347328e-02  0
7.955949301838319e-02  -1.723662840165052e-02  0
6.703944225298861e-02  -5.573645720132449e-02  0
7.737737816284884e-02  -4.361940794237335e-02  0
2.349244686411238e-02  1.055057450235433e-02  0
4.522947956502098e-02  5.546622981048074e-02  0
4.111043733394871e-02  -2.252867545435672e-02  0
5.639452006295542e-02  6.804506800469154e-02  0
5.255792156215577e-02  6.873465762000902e-02  0
8.758924561425005e-02  2.039328593097765e-02  0
7.180517614231610e-02  -1.812328370034785e-02  0
5.410704772639811e-02  -5.131730608372510e-02  0
6.376649616055068e-02  4.152184720600397e-02  0
6.363393454428601e-02  5.890599638253987e-02  0
5.084890787881684e-02  7.568742062264595e-02  0
7.227541854557454e-02  2.567227038929937e-02  0
8.635632091181954e-02  6.915529048060324e-03  0
8.545673404798312e-02  -2.449996052341916e-02  0
4.022511031825406e-02  4.545409681044287e-02  0
8.693516138628180e-02  1.568942835295972e-02  0
Edges
454
2  206  2
206  207  2
207  208  2
208  209  2
209  210  2
210  211  2
211  212  2
212  213  2
3  213  2
3  214  2
214  215  2
215  216  2
216  217  2
217  218  2
218  219  2
219  220  2
220  221  2
4  221  2
5  222  1
222  223  1
223  224  1
224  225  1
225  226  1
226  227  1
227  228  1
228  229  1
6  229  1
6  230  1
230  231  1
231  232  1
232  233  1
233  234  1
234  235  1
235  236  1
236  237  1
7  237  1
8  238  4
9  238  4
9  239  4
10  239  4
10  240  4
11  240  4
11  241  4
8  241  4
2  242  5
242  243  5
243  244  5
244  245  5
245  246  5
246  247  5
5  247  5
4  254  6
254  255  6
255  256  6
256  257  6
257  258  6
258  259  6
7  259  6
12  260  9
13  260  9
13  261  9
14  261  9
14  262  9
15  262  9
15  263  9
12  263  9
16  264  10
17  264  10
17  265  10
18  265  10
18  266  10
19  266  10
19  267  10
16  267  10
20  268  11
21  268  11
21  269  11
22  269  11
22  270  11
23  270  11
23  271  11
20  271  11
24  272  12
25  272  12
25  273  12
26  273  12
26  274  12
27  274  12
27  275  12
24  275  12
28  276  13
29  276  13
29  277  13
30  277  13
30  278  13
31  278  13
31  279  13
28  279  13
32  280  14
33  280  14
33  281  14
34  281  14
34  282  14
35  282  14
35  283  14
32  283  14
36  284  15
37  284  15
37  285  15
38  285  15
38  286  15
39  286  15
39  287  15
36  287  15
40  288  16
41  288  16
41  289  16
42  289  16
42  290  16
43  290  16
43  291  16
40  291  16
44  292  17
45  292  17
45  293  17
46  293  17
46  294  17
47  294  17
47  295  17
44  295  17
48  296  18
49  296  18
49  297  18
50  297  18
50  298  18
51  298  18
51  299  18
48  299  18
52  300  19
53  300  19
53  301  19
54  301  19
54  302  19
55  302  19
55  303  19
52  303  19
56  304  20
57  304  20
57  305  20
58  305  20
58  306  20
59  306  20
59  307  20
56  307  20
60  308  21
61  308  21
61  309  21
62  309  21
62  310  21
63  310  21
63  311  21
60  311  21
64  312  22
65  312  22
65  313  22
66  313  22
66  314  22
67  314  22
67  315  22
64  315  22
68  316  23
69  316  23
69  317  23
70  317  23
70  318  23
71  318  23
71  319  23
68  319  23
72  320  24
73  320  24
73  321  24
74  321  24
74  322  24
75  322  24
75  323  24
72  323  24
76  324  25
77  324  25
77  325  25
78  325  25
78  326  25
79  326  25
79  327  25
76  327  25
80  328  26
81  328  26
81  329  26
82  329  26
82  330  26
83  330  26
83  331  26
80  331  26
84  332  27
85  332  27
85  333  27
86  333  27
86  334  27
87  334  27
87  335  27
84  335  27
88  336  28
89  336  28
89  337  28
90  337  28
90  338  28
91  338  28
91  339  28
88  339  28
92  340  29
93  340  29
93  341  29
94  341  29
94  342  29
95  342  29
95  343  29
92  343  29
96  344  30
97  344  30
97  345  30
98  345  30
98  346  30
99  346  30
99  347  30
96  347  30
100  348  31
101  348  31
101  349  31
102  349  31
102  350  31
103  350  31
103  351  31
100  351  31
104  352  32
105  352  32
105  353  32
106  353  32
106  354  32
107  354  32
107  355  32
104  355  32
108  356  33
109  356  33
109  357  33
110  357  33
110  358  33
111  358  33
111  359  33
108  359  33
112  360  34
113  360  34
113  361  34
114  361  34
114  362  34
115  362  34
115  363  34
112  363  34
116  364  35
117  364  35
117  365  35
118  365  35
118  366  35
119  366  35
119  367  35
116  367  35
120  368  36
121  368  36
121  369  36
122  369  36
122  370  36
123  370  36
123  371  36
120  371  36
124  372  37
125  372  37
125  373  37
126  373  37
126  374  37
127  374  37
127  375  37
124  375  37
128  376  38
129  376  38
129  377  38
130  377  38
130  378  38
131  378  38
131  379  38
128  379  38
132  380  39
133  380  39
133  381  39
134  381  39
134  382  39
135  382  39
135  383  39
132  383  39
136  384  40
137  384  40
137  385  40
138  385  40
138  386  40
139  386  40
139  387  40
136  387  40
140  388  41
141  388  41
141  389  41
142  389  41
142  390  41
143  390  41
143  391  41
140  391  41
144  392  42
145  392  42
145  393  42
146  393  42
146  394  42
147  394  42
147  395  42
144  395  42
148  396  43
149  396  43
149  397  43
150  397  43
150  398  43
151  398  43
151  399  43
148  399  43
152  400  44
153  400  44
153  401  44
154  401  44
154  402  44
155  402  44
155  403  44
152  403  44
156  404  45
157  404  45
157  405  45
158  405  45
158  406  45
159  406  45
159  407  45
156  407  45
160  408  46
161  408  46
161  409  46
162  409  46
162  410  46
163  410  46
163  411  46
160  411  46
164  412  47
165  412  47
165  413  47
166  413  47
166  414  47
167  414  47
167  415  47
164  415  47
168  416  48
169  416  48
169  417  48
170  417  48
170  418  48
171  418  48
171  419  48
168  419  48
172  420  49
173  420  49
173  421  49
174  421  49
174  422  49
175  422  49
175  423  49
172  423  49
176  424  50
177  424  50
177  425  50
178  425  50
178  426  50
179  426  50
179  427  50
176  427  50
180  428  51
181  428  51
181  429  51
182  429  51
182  430  51
183  430  51
183  431  51
180  431  51
184  432  52
185  432  52
185  433  52
186  433  52
186  434  52
187  434  52
187  435  52
184  435  52
188  436  53
189  436  53
189  437  53
190  437  53
190  438  53
191  438  53
191  439  53
188  439  53
192  440  54
193  440  54
193  441  54
194  441  54
194  442  54
195  442  54
195  443  54
192  443  54
196  444  55
197  444  55
197  445  55
198  445  55
198  446  55
199  446  55
199  447  55
196  447  55
200  201  7
201  448  7
202  448  7
200  202  5
1  449  5
449  450  5
450  451  5
451  452  5
202  452  5
2  200  5
203  453  8
204  453  8
204  205  8
203  205  6
1  454  6
454  455  6
455  456  6
456  457  6
203  457  6
4  205  6
Triangles
376
10  240  458  2
8  238  459  2
9  239  460  2
11  241  461  2
263  12  558  1
261  14  559  1
262  15  560  1
260  13  561  1
267  16  562  1
265  18  563  1
266  19  564  1
264  17  565  1
269  22  566  1
271  20  567  1
270  23  569  1
268  21  568  1
24  272  570  1
26  274  571  1
27  275  573  1
25  273  572  1
29  277  574  1
31  279  575  1
30  278  576  1
28  276  577  1
280  33  578  1
282  35  579  1
283  32  580  1
281  34  581  1
38  286  582  1
36  284  583  1
39  287  584  1
37  285  585  1
43  291  586  1
41  289  587  1
42  290  588  1
40  288  589  1
293  46  590  1
295  44  591  1
292  45  592  1
294  47  593  1
298  51  594  1
296  49  595  1
297  50  596  1
299  48  597  1
55  303  598  1
53  301  599  1
52  300  600  1
54  302  601  1
306  59  602  1
304  57  603  1
305  58  604  1
307  56  605  1
63  311  606  1
61  309  607  1
60  308  608  1
62  310  609  1
312  65  610  1
314  67  611  1
315  64  612  1
313  66  613  1
68  316  614  1
70  318  615  1
71  319  616  1
69  317  617  1
321  74  618  1
323  72  619  1
320  73  621  1
322  75  620  1
326  79  622  1
324  77  623  1
325  78  624  1
327  76  625  1
330  83  626  1
328  81  627  1
329  82  628  1
331  80  629  1
332  85  630  1
334  87  631  1
335  84  632  1
333  86  633  1
90  338  634  1
88  336  635  1
91  339  636  1
89  337  637  1
342  95  638  1
340  93  639  1
343  92  641  1
341  94  640  1
345  98  642  1
347  96  643  1
346  99  645  1
344  97  644  1
351  100  646  1
349  102  647  1
350  103  648  1
348  101  649  1
354  107  650  1
352  105  651  1
353  106  652  1
355  104  653  1
110  358  654  1
108  356  655  1
111  359  656  1
109  357  657  1
362  115  658  1
360  113  659  1
361  114  660  1
363  112  661  1
367  116  662  1
365  118  663  1
366  119  664  1
364  117  665  1
122  370  666  1
120  368  667  1
121  369  668  1
123  371  669  1
124  372  670  1
126  374  671  1
127  375  672  1
125  373  673  1
378  131  674  1
376  129  675  1
377  130  676  1
379  128  677  1
382  135  678  1
380  133  679  1
381  134  680  1
383  132  681  1
139  387  682  1
137  385  683  1
136  384  684  1
138  386  685  1
141  389  686  1
143  391  687  1
142  390  688  1
140  388  689  1
394  147  690  1
392  145  691  1
393  146  692  1
395  144  693  1
151  399  694  1
149  397  695  1
148  396  696  1
150  398  697  1
402  155  698  1
400  153  699  1
401  154  700  1
403  152  701  1
407  156  702  1
405  158  703  1
406  159  705  1
404  157  704  1
161  409  706  1
163  411  707  1
160  408  708  1
162  410  709  1
413  166  710  1
415  164  711  1
412  165  712  1
414  167  713  1
168  416  714  1
170  418  715  1
169  417  716  1
171  419  717  1
420  173  718  1
422  175  719  1
423  172  720  1
421  174  721  1
179  427  722  1
177  425  723  1
178  426  724  1
176  424  725  1
180  428  726  1
182  430  727  1
181  429  728  1
183  431  729  1
435  184  730  1
433  186  731  1
434  187  732  1
432  185  733  1
439  188  734  1
437  190  735  1
438  191  736  1
436  189  737  1
442  195  738  1
440  193  739  1
441  194  741  1
443  192  740  1
198  446  742  1
196  444  743  1
199  447  744  1
197  445  745  1
28  847  848  3
101  849  850  3
748  82  894  3
781  769  946  3
241  776  941  3
894  796  903  3
831  889  915  3
273  25  902  3
281  33  893  3
95  342  901  3
62  309  912  3
306  58  911  3
874  873  926  3
770  773  774  3
889  772  927  3
750  297  917  3
831  785  874  3
795  823  867  3
346  98  922  3
350  102  746  3
812  856  944  3
806  775  918  3
8  241  925  3
802  753  940  3
762  784  919  3
824  758  911  3
26  273  762  3
34  281  752  3
58  305  858  3
240  10  884  3
99  346  763  3
310  62  764  3
22  269  771  3
322  74  757  3
342  94  856  3
864  863  897  3
787  788  890  3
752  807  928  3
929  897  943  3
789  879  913  3
103  350  859  3
239  9  921  3
749  809  914  3
814  754  868  3
755  813  866  3
796  751  862  3
457  882  883  3
11  240  937  3
168  216  416  3
387  211  136  3
107  354  945  3
10  239  935  3
895  809  924  3
766  896  944  3
764  817  826  3
880  805  932  3
785  783  933  3
869  868  931  3
768  767  820  3
763  765  766  3
860  792  920  3
918  782  926  3
78  876  923  3
877  42  924  3
799  886  947  3
436  220  189  3
207  367  119  3
184  219  432  3
208  120  371  3
196  221  444  3
359  206  108  3
109  267  19  3
19  266  845  3
268  20  829  3
32  283  834  3
44  295  843  3
48  299  832  3
303  55  855  3
311  63  830  3
316  68  835  3
328  80  842  3
332  84  833  3
88  339  846  3
341  93  828  3
362  114  907  3
121  368  905  3
126  373  847  3
379  210  128  3
130  377  837  3
142  389  839  3
144  213  392  3
405  157  904  3
214  160  411  3
410  162  312  3
414  166  836  3
217  424  176  3
426  178  838  3
194  441  906  3
199  446  849  3
260  18  13  3
264  22  17  3
29  282  34  3
36  287  841  3
285  37  877  3
134  381  43  3
294  46  875  3
297  49  302  3
397  149  56  3
60  159  406  3
313  71  318  3
320  72  840  3
77  422  174  3
83  330  876  3
86  333  91  3
102  355  107  3
108  362  356  3
201  111  358  3
360  271  113  3
370  122  275  3
138  385  288  3
392  151  145  3
157  411  163  3
163  410  844  3
418  170  327  3
186  433  340  3
344  443  195  3
447  441  196  3
445  197  204  3
109  356  857  3
857  267  109  3
349  101  850  3
850  104  349  3
276  28  848  3
848  35  276  3
152  403  3  3
3  400  152  3
219  220  436  3
436  188  219  3
367  207  208  3
208  116  367  3
210  132  383  3
383  135  210  3
420  172  217  3
217  173  420  3
215  408  160  3
160  214  215  3
144  395  212  3
212  213  144  3
215  412  164  3
164  415  215  3
140  391  212  3
212  388  140  3
440  220  221  3
221  193  440  3
206  207  363  3
363  115  206  3
424  217  218  3
218  177  424  3
209  210  379  3
379  131  209  3
444  221  4  3
4  197  444  3
2  206  359  3
359  111  2  3
375  208  209  3
209  124  375  3
218  219  428  3
428  180  218  3
213  3  148  3
148  399  213  3
156  3  214  3
214  404  156  3
15  262  202  3
202  448  15  3
203  353  105  3
105  453  203  3
262  14  452  3
452  202  262  3
457  106  353  3
353  203  457  3
336  88  182  3
182  429  336  3
52  303  393  3
393  145  52  3
Quadrilaterals
738
460  459  238  9  2
8  459  461  241  2
460  239  10  458  2
240  11  461  458  2
458  461  459  460  2
3  248  462  214  4
214  462  463  215  4
215  463  464  216  4
216  464  465  217  4
217  465  466  218  4
218  466  467  219  4
219  467  468  220  4
220  468  469  221  4
221  469  254  4  4
248  249  470  462  4
462  470  471  463  4
463  471  472  464  4
464  472  473  465  4
465  473  474  466  4
466  474  475  467  4
467  475  476  468  4
468  476  477  469  4
469  477  255  254  4
249  250  478  470  4
470  478  479  471  4
471  479  480  472  4
472  480  481  473  4
473  481  482  474  4
474  482  483  475  4
475  483  484  476  4
476  484  485  477  4
477  485  256  255  4
250  251  486  478  4
478  486  487  479  4
479  487  488  480  4
480  488  489  481  4
481  489  490  482  4
482  490  491  483  4
483  491  492  484  4
484  492  493  485  4
485  493  257  256  4
251  252  494  486  4
486  494  495  487  4
487  495  496  488  4
488  496  497  489  4
489  497  498  490  4
490  498  499  491  4
491  499  500  492  4
492  500  501  493  4
493  501  258  257  4
252  253  502  494  4
494  502  503  495  4
495  503  504  496  4
496  504  505  497  4
497  505  506  498  4
498  506  507  499  4
499  507  508  500  4
500  508  509  501  4
501  509  259  258  4
253  6  230  502  4
502  230  231  503  4
503  231  232  504  4
504  232  233  505  4
505  233  234  506  4
506  234  235  507  4
507  235  236  508  4
508  236  237  509  4
509  237  7  259  4
2  242  510  206  4
206  510  511  207  4
207  511  512  208  4
208  512  513  209  4
209  513  514  210  4
210  514  515  211  4
211  515  516  212  4
212  516  517  213  4
213  517  248  3  4
242  243  518  510  4
510  518  519  511  4
511  519  520  512  4
512  520  521  513  4
513  521  522  514  4
514  522  523  515  4
515  523  524  516  4
516  524  525  517  4
517  525  249  248  4
243  244  526  518  4
518  526  527  519  4
519  527  528  520  4
520  528  529  521  4
521  529  530  522  4
522  530  531  523  4
523  531  532  524  4
524  532  533  525  4
525  533  250  249  4
244  245  534  526  4
526  534  535  527  4
527  535  536  528  4
528  536  537  529  4
529  537  538  530  4
530  538  539  531  4
531  539  540  532  4
532  540  541  533  4
533  541  251  250  4
245  246  542  534  4
534  542  543  535  4
535  543  544  536  4
536  544  545  537  4
537  545  546  538  4
538  546  547  539  4
539  547  548  540  4
540  548  549  541  4
541  549  252  251  4
246  247  550  542  4
542  550  551  543  4
543  551  552  544  4
544  552  553  545  4
545  553  554  546  4
546  554  555  547  4
547  555  556  548  4
548  556  557  549  4
549  557  253  252  4
247  5  222  550  4
550  222  223  551  4
551  223  224  552  4
552  224  225  553  4
553  225  226  554  4
554  226  227  555  4
555  227  228  556  4
556  228  229  557  4
557  229  6  253  4
560  559  14  262  1
261  559  561  13  1
12  260  561  558  1
560  15  263  558  1
559  560  558  561  1
564  563  18  266  1
265  563  565  17  1
16  264  565  562  1
564  19  267  562  1
563  564  562  565  1
271  567  569  23  1
568  567  20  268  1
22  270  569  566  1
568  21  269  566  1
567  568  566  569  1
573  571  274  27  1
26  571  572  273  1
572  570  272  25  1
573  275  24  570  1
571  573  570  572  1
31  575  576  278  1
577  575  279  28  1
29  574  577  276  1
277  30  576  574  1
574  576  575  577  1
580  579  35  283  1
282  579  581  34  1
33  281  581  578  1
580  32  280  578  1
579  580  578  581  1
36  583  584  287  1
585  583  284  37  1
585  285  38  582  1
286  39  584  582  1
582  584  583  585  1
588  587  289  42  1
41  587  589  288  1
291  40  589  586  1
588  290  43  586  1
587  588  586  589  1
295  591  593  47  1
592  591  44  292  1
46  294  593  590  1
293  590  592  45  1
591  592  590  593  1
596  595  49  297  1
296  595  597  48  1
597  594  51  299  1
298  594  596  50  1
595  596  594  597  1
601  599  301  54  1
53  599  600  300  1
600  598  303  52  1
601  302  55  598  1
599  601  598  600  1
304  603  605  56  1
604  603  57  305  1
59  307  605  602  1
306  602  604  58  1
603  604  602  605  1
61  607  608  308  1
609  607  309  62  1
63  606  609  310  1
311  60  608  606  1
606  608  607  609  1
314  611  613  66  1
612  611  67  315  1
613  610  65  313  1
312  610  612  64  1
611  612  610  613  1
616  615  318  71  1
70  615  617  317  1
316  69  617  614  1
616  319  68  614  1
615  616  614  617  1
621  619  72  320  1
323  619  620  75  1
621  73  321  618  1
620  618  74  322  1
619  621  618  620  1
624  623  77  325  1
324  623  625  76  1
625  622  79  327  1
624  78  326  622  1
623  624  622  625  1
628  627  81  329  1
328  627  629  80  1
83  331  629  626  1
628  82  330  626  1
627  628  626  629  1
632  631  87  335  1
334  631  633  86  1
85  333  633  630  1
632  84  332  630  1
631  632  630  633  1
88  635  636  339  1
637  635  336  89  1
637  337  90  634  1
338  91  636  634  1
634  636  635  637  1
340  639  641  92  1
640  639  93  341  1
95  343  641  638  1
640  94  342  638  1
639  640  638  641  1
347  643  645  99  1
644  643  96  344  1
98  346  645  642  1
644  97  345  642  1
643  644  642  645  1
648  647  102  350  1
349  647  649  101  1
649  646  100  348  1
648  103  351  646  1
647  648  646  649  1
652  651  105  353  1
352  651  653  104  1
653  650  107  355  1
354  650  652  106  1
651  652  650  653  1
108  655  656  359  1
657  655  356  109  1
110  654  657  357  1
358  111  656  654  1
654  656  655  657  1
660  659  113  361  1
360  659  661  112  1
115  363  661  658  1
660  114  362  658  1
659  660  658  661  1
664  663  118  366  1
365  663  665  117  1
116  364  665  662  1
664  119  367  662  1
663  664  662  665  1
668  667  368  121  1
120  667  669  371  1
122  666  668  369  1
370  123  669  666  1
666  669  667  668  1
672  671  374  127  1
126  671  673  373  1
673  670  372  125  1
124  670  672  375  1
671  672  670  673  1
676  675  129  377  1
376  675  677  128  1
677  674  131  379  1
378  674  676  130  1
675  676  674  677  1
680  679  133  381  1
380  679  681  132  1
135  383  681  678  1
382  678  680  134  1
679  680  678  681  1
137  683  684  384  1
685  683  385  138  1
139  682  685  386  1
387  136  684  682  1
682  684  683  685  1
143  687  688  390  1
689  687  391  140  1
689  388  141  686  1
389  142  688  686  1
686  688  687  689  1
692  691  145  393  1
392  691  693  144  1
693  690  147  395  1
394  690  692  146  1
691  692  690  693  1
149  695  696  396  1
697  695  397  150  1
696  694  399  148  1
697  398  151  694  1
695  697  694  696  1
700  699  153  401  1
400  699  701  152  1
701  698  155  403  1
402  698  700  154  1
699  700  698  701  1
705  703  158  406  1
405  703  704  157  1
407  702  705  159  1
704  702  156  404  1
703  705  702  704  1
708  707  411  160  1
163  707  709  410  1
708  408  161  706  1
409  162  709  706  1
706  709  707  708  1
712  711  164  412  1
415  711  713  167  1
713  710  166  414  1
413  710  712  165  1
711  712  710  713  1
170  715  716  417  1
717  715  418  171  1
717  419  168  714  1
416  169  716  714  1
714  716  715  717  1
720  719  175  423  1
422  719  721  174  1
173  421  721  718  1
720  172  420  718  1
719  720  718  721  1
724  723  425  178  1
177  723  725  424  1
427  176  725  722  1
724  426  179  722  1
723  724  722  725  1
729  727  430  183  1
182  727  728  429  1
728  726  428  181  1
729  431  180  726  1
727  729  726  728  1
732  731  186  434  1
433  731  733  185  1
184  432  733  730  1
732  187  435  730  1
731  732  730  733  1
736  735  190  438  1
437  735  737  189  1
188  436  737  734  1
736  191  439  734  1
735  736  734  737  1
741  739  193  441  1
440  739  740  192  1
442  738  741  194  1
740  738  195  443  1
739  741  738  740  1
196  743  744  447  1
745  743  444  197  1
198  742  745  445  1
446  199  744  742  1
742  744  743  745  1
201  448  202  200  1
453  204  205  203  1
401  153  159  60  3
433  439  191  340  3
360  366  118  271  3
117  364  370  275  3
190  437  443  344  3
149  155  402  56  3
318  753  950  916  3
907  114  267  857  3
874  786  942  831  3
398  150  300  52  3
187  434  89  336  3
114  361  16  267  3
100  442  194  348  3
31  369  121  279  3
315  158  405  64  3
293  948  756  46  3
821  936  949  890  3
864  931  819  811  3
64  405  904  844  3
279  121  905  852  3
348  194  906  854  3
281  893  797  752  3
806  918  865  914  3
930  751  86  910  3
305  310  764  858  3
865  918  926  807  3
133  386  40  291  3
417  175  324  76  3
47  294  41  288  3
331  83  325  77  3
79  321  73  327  3
284  43  290  37  3
94  99  763  856  3
26  762  919  21  3
772  827  861  451  3
162  409  68  319  3
446  198  352  104  3
373  125  283  35  3
48  394  146  296  3
263  110  357  12  3
332  183  430  85  3
810  923  876  330  3
63  310  305  57  3
268  274  26  21  3
94  341  347  99  3
877  924  809  285  3
66  916  798  761  3
771  825  17  22  3
943  897  863  816  3
812  901  342  856  3
334  796  894  87  3
931  781  946  869  3
889  927  887  779  3
277  909  793  760  3
870  946  780  822  3
746  102  107  945  3
775  776  770  774  3
34  752  928  909  3
859  938  922  103  3
8  925  789  892  3
746  939  859  350  3
892  789  826  886  3
824  913  804  758  3
38  749  934  893  3
823  866  813  756  3
131  372  124  209  3
180  431  177  218  3
814  815  757  74  3
10  935  885  884  3
143  390  137  384  3
427  179  421  173  3
165  419  171  413  3
376  135  382  129  3
899  937  240  884  3
818  940  70  317  3
824  911  58  858  3
813  875  46  756  3
812  790  759  901  3
757  881  818  322  3
930  910  338  759  3
890  949  891  787  3
883  882  939  746  3
826  900  858  764  3
766  944  856  763  3
769  787  9  238  3
868  869  815  814  3
803  917  54  758  3
755  924  42  289  3
78  923  754  326  3
782  786  874  926  3
145  151  398  52  3
429  435  187  336  3
908  935  239  921  3
761  912  314  66  3
799  947  761  798  3
890  788  860  821  3
82  329  87  894  3
783  762  273  902  3
861  899  450  451  3
795  941  776  794  3
750  808  50  297  3
11  937  773  770  3
449  450  899  884  3
914  865  934  749  3
880  808  750  805  3
760  902  30  277  3
864  897  781  931  3
820  936  821  768  3
862  791  816  863  3
782  918  775  774  3
301  911  758  54  3
90  901  759  338  3
932  777  941  795  3
919  778  269  21  3
317  75  322  818  3
925  777  879  789  3
765  763  346  922  3
879  777  932  805  3
784  915  778  919  3
748  810  330  82  3
394  48  832  141  3
183  332  833  425  3
834  283  125  378  3
835  68  409  167  3
896  920  792  790  3
817  764  62  912  3
373  35  848  847  3
446  104  850  849  3
176  427  173  217  3
135  376  128  210  3
779  887  825  771  3
70  940  753  318  3
813  755  289  875  3
326  754  814  878  3
791  790  792  816  3
766  765  767  768  3
773  861  827  774  3
949  456  455  891  3
150  307  59  300  3
434  92  343  89  3
361  23  270  16  3
345  97  442  100  3
272  24  369  31  3
61  308  158  315  3
882  820  767  939  3
802  881  870  822  3
903  811  748  894  3
817  947  886  826  3
872  933  760  793  3
794  776  775  806  3
816  792  860  943  3
803  805  750  917  3
807  926  873  928  3
778  779  771  269  3
896  790  812  944  3
831  915  784  785  3
804  913  879  805  3
930  759  790  791  3
819  931  868  754  3
895  866  794  806  3
895  924  755  866  3
942  772  889  831  3
880  932  795  867  3
802  800  950  753  3
867  948  808  880  3
751  796  334  86  3
747  13  18  265  3
863  864  811  903  3
788  787  769  929  3
912  761  947  817  3
747  825  887  888  3
815  870  881  757  3
452  927  772  451  3
768  920  896  766  3
301  53  306  911  3
73  320  418  327  3
174  80  331  77  3
284  36  134  43  3
385  295  47  288  3
241  11  770  776  3
449  884  885  1  3
914  809  895  806  3
793  909  928  873  3
756  948  867  823  3
90  337  95  901  3
803  758  804  805  3
871  801  822  780  3
886  799  801  892  3
888  261  13  747  3
810  748  811  819  3
293  45  298  898  3
263  15  448  110  3
453  105  352  198  3
908  921  891  455  3
33  286  38  893  3
800  801  799  798  3
807  752  797  865  3
788  929  943  860  3
784  762  783  785  3
862  751  930  791  3
457  936  820  882  3
411  157  404  214  3
399  151  392  213  3
888  887  927  452  3
319  65  312  162  3
855  55  296  146  3
846  339  85  430  3
845  266  12  357  3
91  338  910  86  3
909  277  29  34  3
902  760  933  783  3
885  935  454  1  3
898  808  948  293  3
900  913  824  858  3
192  443  437  189  3
123  370  364  116  3
153  400  407  159  3
396  403  155  149  3
366  360  112  119  3
439  433  185  188  3
302  54  917  297  3
916  66  313  318  3
172  423  169  416  3
387  139  380  132  3
797  893  934  865  3
785  933  872  874  3
402  154  304  56  3
118  365  20  271  3
93  340  191  438  3
190  344  96  438  3
117  275  27  365  3
401  60  311  154  3
395  147  388  212  3
415  161  408  215  3
903  796  862  863  3
431  183  425  177  3
141  388  147  394  3
448  201  358  110  3
161  415  167  409  3
445  204  453  198  3
372  131  378  125  3
154  311  830  304  3
829  20  365  27  3
828  93  438  96  3
285  809  749  38  3
779  778  915  889  3
769  238  780  946  3
98  351  103  922  3
787  891  921  9  3
794  866  823  795  3
238  8  871  780  3
774  827  786  782  3
942  786  827  772  3
377  129  287  39  3
166  413  72  323  3
142  292  44  390  3
426  81  328  179  3
892  801  871  8  3
878  321  79  326  3
41  294  875  289  3
309  67  314  912  3
872  793  873  874  3
25  278  30  902  3
51  298  45  292  3
69  323  75  317  3
335  87  329  81  3
280  39  286  33  3
325  83  876  78  3
877  37  290  42  3
908  455  454  935  3
798  916  950  800  3
765  922  938  767  3
907  857  356  362  3
115  362  108  206  3
196  441  193  221  3
171  418  320  840  3
382  134  36  841  3
80  174  421  842  3
295  385  137  843  3
374  852  905  368  3
447  854  906  441  3
163  844  904  157  3
781  897  929  769  3
825  747  265  17  3
292  142  839  51  3
836  166  323  69  3
837  377  39  280  3
81  426  838  335  3
937  899  861  773  3
822  801  800  802  3
923  810  819  754  3
870  815  869  946  3
129  382  841  287  3
413  171  840  72  3
842  421  179  328  3
843  137  390  44  3
883  354  106  457  3
845  357  109  19  3
846  430  182  88  3
855  146  393  303  3
84  335  838  178  3
299  51  839  389  3
836  69  316  414  3
837  280  32  130  3
178  425  833  84  3
835  167  414  316  3
834  378  130  32  3
389  141  832  299  3
4  205  204  197  3
201  200  2  111  3
57  304  830  63  3
829  27  274  268  3
828  96  347  341  3
112  363  207  119  3
220  440  192  189  3
938  859  939  767  3
241  941  777  925  3
940  818  881  802  3
199  849  101  853  3
28  851  126  847  3
406  158  308  60  3
195  442  97  344  3
122  369  24  275  3
92  434  186  340  3
23  361  113  271  3
307  150  397  56  3
156  407  400  3  3
403  396  148  3  3
920  768  821  860  3
789  913  900  826  3
945  354  883  746  3
381  133  291  43  3
170  417  76  327  3
40  386  138  288  3
324  175  422  77  3
50  808  898  298  3
452  14  261  888  3
55  302  49  296  3
65  319  71  313  3
266  18  260  12  3
339  91  333  85  3
349  104  355  102  3
276  35  282  29  3
853  101  348  854  3
851  28  279  852  3
854  447  199  853  3
852  374  126  851  3
74  321  878  814  3
185  432  219  188  3
208  371  123  116  3
456  949  936  457  3
391  143  384  136  3
412  168  419  165  3
120  208  375  127  3
428  219  184  181  3
127  374  368  120  3
435  429  181  184  3
59  306  53  300  3
61  315  67  309  3
270  22  264  16  3
343  95  337  89  3
345  100  351  98  3
272  31  278  25  3
412  215  216  168  3
211  212  391  136  3
211  387  132  210  3
172  416  216  217  3
844  410  312  64  3
139  386  133  380  3
175  417  169  423  3
End
