MeshVersionFormatted 1
Dimension 
2
Vertices
654
9.200000000000000e-02  0.000000000000000e+00  3
0.000000000000000e+00  9.200000000000000e-02  3
-9.200000000000000e-02  0.000000000000000e+00  3
0.000000000000000e+00  -9.200000000000000e-02  3
1.080000000000000e-01  0.000000000000000e+00  2
0.000000000000000e+00  1.080000000000000e-01  2
-1.080000000000000e-01  0.000000000000000e+00  2
0.000000000000000e+00  -1.080000000000000e-01  2
6.750000000000000e-02  0.000000000000000e+00  5
3.250000000000000e-02  0.000000000000000e+00  5
5.000000000000000e-02  1.750000000000000e-02  5
5.000000000000000e-02  -1.750000000000000e-02  5
-7.499999999999989e-03  4.330127018922194e-02  6
-4.250000000000000e-02  4.330127018922194e-02  6
-2.499999999999999e-02  6.080127018922194e-02  6
-2.499999999999999e-02  2.580127018922194e-02  6
-7.500000000000021e-03  -4.330127018922192e-02  4
-4.250000000000002e-02  -4.330127018922192e-02  4
-2.500000000000002e-02  -2.580127018922192e-02  4
-2.500000000000002e-02  -6.080127018922192e-02  4
2.000000000000000e+01  0.000000000000000e+00  1
0.000000000000000e+00  2.000000000000000e+01  1
-2.000000000000000e+01  0.000000000000000e+00  1
0.000000000000000e+00  -2.000000000000000e+01  1
-9.060231326998724e-02  -1.597563238582729e-02  3
-8.645172108261139e-02  -3.146585326754012e-02  3
-7.967433708085243e-02  -4.600000011659459e-02  3
-7.047608864475897e-02  -5.913646023677841e-02  3
-5.913645993983925e-02  -7.047608889392053e-02  3
-4.599999986970951e-02  -7.967433722339161e-02  3
-3.146585308683786e-02  -8.645172114838164e-02  3
-1.597563230004986e-02  -9.060231328511212e-02  3
1.597563238582729e-02  -9.060231326998724e-02  3
3.146585326754012e-02  -8.645172108261139e-02  3
4.600000011659459e-02  -7.967433708085243e-02  3
5.913646023677841e-02  -7.047608864475897e-02  3
7.047608889392053e-02  -5.913645993983925e-02  3
7.967433722339161e-02  -4.599999986970951e-02  3
8.645172114838164e-02  -3.146585308683786e-02  3
9.060231328511212e-02  -1.597563230004986e-02  3
9.060231326998724e-02  1.597563238582729e-02  3
8.645172108261139e-02  3.146585326754012e-02  3
7.967433708085243e-02  4.600000011659459e-02  3
7.047608864475897e-02  5.913646023677841e-02  3
5.913645993983925e-02  7.047608889392053e-02  3
4.599999986970951e-02  7.967433722339161e-02  3
3.146585308683786e-02  8.645172114838164e-02  3
1.597563230004986e-02  9.060231328511212e-02  3
-1.597563238582729e-02  9.060231326998724e-02  3
-3.146585326754012e-02  8.645172108261139e-02  3
-4.600000011659459e-02  7.967433708085243e-02  3
-5.913646023677841e-02  7.047608864475897e-02  3
-7.047608889392053e-02  5.913645993983925e-02  3
-7.967433722339161e-02  4.599999986970951e-02  3
-8.645172114838164e-02  3.146585308683786e-02  3
-9.060231328511212e-02  1.597563230004986e-02  3
-1.875400323213776e-02  1.063592373175408e-01  2
-3.693817557664629e-02  1.014868030094004e-01  2
-5.400000013793068e-02  9.353074352908505e-02  2
-6.942106201004236e-02  8.273279971932446e-02  2
-8.273279999946068e-02  6.942106167618900e-02  2
-9.353074369841996e-02  5.399999984463402e-02  2
-1.014868030885595e-01  3.693817535915853e-02  2
-1.063592373354674e-01  1.875400313047107e-02  2
-1.063592373175408e-01  -1.875400323213776e-02  2
-1.014868030094004e-01  -3.693817557664629e-02  2
-9.353074352908505e-02  -5.400000013793068e-02  2
-8.273279971932446e-02  -6.942106201004236e-02  2
-6.942106167618900e-02  -8.273279999946068e-02  2
-5.399999984463402e-02  -9.353074369841996e-02  2
-3.693817535915853e-02  -1.014868030885595e-01  2
-1.875400313047107e-02  -1.063592373354674e-01  2
1.875400323213776e-02  -1.063592373175408e-01  2
3.693817557664629e-02  -1.014868030094004e-01  2
5.400000013793068e-02  -9.353074352908505e-02  2
6.942106201004236e-02  -8.273279971932446e-02  2
8.273279999946068e-02  -6.942106167618900e-02  2
9.353074369841996e-02  -5.399999984463402e-02  2
1.014868030885595e-01  -3.693817535915853e-02  2
1.063592373354674e-01  -1.875400313047107e-02  2
1.063592373175408e-01  1.875400323213776e-02  2
1.014868030094004e-01  3.693817557664629e-02  2
9.353074352908505e-02  5.400000013793068e-02  2
8.273279971932446e-02  6.942106201004236e-02  2
6.942106167618900e-02  8.273279999946068e-02  2
5.399999984463402e-02  9.353074369841996e-02  2
3.693817535915853e-02  1.014868030885595e-01  2
1.875400313047107e-02  1.063592373354674e-01  2
0.000000000000000e+00  9.999999999998102e-02  0
9.999999999998102e-02  0.000000000000000e+00  0
0.000000000000000e+00  -9.999999999998102e-02  0
-9.999999999998102e-02  0.000000000000000e+00  0
-3.375000003002160e-02  5.845671473811664e-02  6
-4.015544458228604e-02  5.205127016140803e-02  6
-4.015544455687860e-02  3.455127017302886e-02  6
-3.374999997965533e-02  2.814582561124826e-02  6
-1.624999997359746e-02  2.814582563823777e-02  6
-9.844555419782453e-03  3.455127021345308e-02  6
-9.844555442734614e-03  5.205127020474510e-02  6
-1.625000002528925e-02  5.845671477005038e-02  6
-3.375000002596027e-02  -2.814582563798240e-02  4
-4.015544457606489e-02  -3.455127020626043e-02  4
-4.015544455240503e-02  -5.205127021316348e-02  4
-3.374999998259611e-02  -5.845671476549775e-02  4
-1.624999997920944e-02  -5.845671474344615e-02  4
-9.844555422733830e-03  -5.205127017010265e-02  4
-9.844555446821319e-03  -3.455127016662043e-02  4
-1.625000002262402e-02  -2.814582560993226e-02  4
3.484455544501082e-02  -8.750000019465645e-03  5
4.125000001803803e-02  -1.515544457664194e-02  5
5.875000002287996e-02  -1.515544455301793e-02  5
6.515544457903244e-02  -8.749999977821514e-03  5
6.515544455529092e-02  8.750000018943041e-03  5
5.874999998093502e-02  1.515544457723485e-02  5
4.124999997479285e-02  1.515544455167432e-02  5
3.484455542201853e-02  8.749999979641836e-03  5
-1.969615505863894e+01  3.472963562442246e+00  1
-1.879385240871832e+01  6.840402885745307e+00  1
-1.732050806118768e+01  1.000000002511664e+01  1
-1.532088883607005e+01  1.285575222508524e+01  1
-1.285575216365421e+01  1.532088888761680e+01  1
-9.999999973583311e+00  1.732050809094046e+01  1
-6.840402846647059e+00  1.879385242294892e+01  1
-3.472963542951090e+00  1.969615506207576e+01  1
3.472963562442246e+00  1.969615505863894e+01  1
6.840402885745307e+00  1.879385240871832e+01  1
1.000000002511664e+01  1.732050806118768e+01  1
1.285575222508524e+01  1.532088883607005e+01  1
1.532088888761680e+01  1.285575216365421e+01  1
1.732050809094046e+01  9.999999973583311e+00  1
1.879385242294892e+01  6.840402846647059e+00  1
1.969615506207576e+01  3.472963542951090e+00  1
1.969615505863894e+01  -3.472963562442246e+00  1
1.879385240871832e+01  -6.840402885745307e+00  1
1.732050806118768e+01  -1.000000002511664e+01  1
1.532088883607005e+01  -1.285575222508524e+01  1
1.285575216365421e+01  -1.532088888761680e+01  1
9.999999973583311e+00  -1.732050809094046e+01  1
6.840402846647059e+00  -1.879385242294892e+01  1
3.472963542951090e+00  -1.969615506207576e+01  1
-3.472963562442246e+00  -1.969615505863894e+01  1
-6.840402885745307e+00  -1.879385240871832e+01  1
-1.000000002511664e+01  -1.732050806118768e+01  1
-1.285575222508524e+01  -1.532088883607005e+01  1
-1.532088888761680e+01  -1.285575216365421e+01  1
-1.732050809094046e+01  -9.999999973583311e+00  1
-1.879385242294892e+01  -6.840402846647059e+00  1
-1.969615506207576e+01  -3.472963542951090e+00  1
-1.261996085539616e-01  0.000000000000000e+00  0
-1.807980462000250e-01  0.000000000000000e+00  0
-3.445932294894695e-01  0.000000000000000e+00  0
-8.359787145332679e-01  0.000000000000000e+00  0
-2.310134780719295e+00  0.000000000000000e+00  0
-6.732601812426335e+00  0.000000000000000e+00  0
0.000000000000000e+00  1.261996085539616e-01  0
0.000000000000000e+00  1.807980462000250e-01  0
0.000000000000000e+00  3.445932294894695e-01  0
0.000000000000000e+00  8.359787145332679e-01  0
0.000000000000000e+00  2.310134780719295e+00  0
0.000000000000000e+00  6.732601812426335e+00  0
1.261996085539616e-01  0.000000000000000e+00  0
1.807980462000250e-01  0.000000000000000e+00  0
3.445932294894695e-01  0.000000000000000e+00  0
8.359787145332679e-01  0.000000000000000e+00  0
2.310134780719295e+00  0.000000000000000e+00  0
6.732601812426335e+00  0.000000000000000e+00  0
0.000000000000000e+00  -1.261996085539616e-01  0
0.000000000000000e+00  -1.807980462000250e-01  0
0.000000000000000e+00  -3.445932294894695e-01  0
0.000000000000000e+00  -8.359787145332679e-01  0
0.000000000000000e+00  -2.310134780719295e+00  0
0.000000000000000e+00  -6.732601812426335e+00  0
-2.972821448384994e-04  -3.889870927701602e-04  0
2.910955320508855e-02  4.788938404034780e-02  0
-5.610732692058409e-02  -1.332368277185426e-03  0
2.672540016659118e-02  -4.911666687901230e-02  0
1.450020974975052e-02  2.296532608828418e-02  0
-2.581411002003047e-02  1.626899300130340e-10  0
1.298912955807514e-02  -2.184346342621114e-02  0
-6.321118293103592e-02  2.391327143216686e-02  0
1.097592028637609e-02  6.667027783011631e-02  0
5.224613666459757e-02  -4.284740450723421e-02  0
4.870266718669890e-02  4.652421300372631e-02  0
-6.463993449429560e-02  -1.892443948598793e-02  0
1.576975946431135e-02  -6.560520194073372e-02  0
1.574646400833410e-02  5.028616339890038e-03  0
-1.265117993756627e-02  -1.129886424562120e-02  0
-1.317904078823016e-02  1.244816454291784e-02  0
1.048515038116963e-02  3.882041956422475e-02  0
-4.123904722133504e-02  1.095103675478643e-02  0
-4.114926544710858e-02  -9.081756221095447e-03  0
2.838753361700207e-02  3.100039562753346e-02  0
2.851322663579300e-02  -2.875216141712796e-02  0
1.158179556078221e-02  -3.816288069301569e-02  0
-1.726310404436457e-03  2.174188999421023e-02  0
1.874541332758707e-02  -8.666502111640802e-03  0
-1.720929502359397e-03  -2.141022892259163e-02  0
-6.150814416477723e-02  4.069449380732862e-02  0
-4.147324848955811e-03  7.331955361630500e-02  0
-4.354099451232761e-03  -7.308771072659638e-02  0
6.540033126854457e-02  3.274602888494082e-02  0
6.559790366165758e-02  -3.309694899019987e-02  0
-6.105688832104507e-02  -4.026436861289572e-02  0
8.718235653570550e-03  -1.281500329500201e-02  0
-2.798388911355722e-02  -1.116863225867727e-02  0
2.361632978253067e-02  1.837489096999462e-02  0
-2.812482282754892e-02  1.147817488273327e-02  0
2.973143170905350e-02  6.868172165176765e-02  0
-7.437209346562990e-02  8.568525531021779e-03  0
4.460328614682116e-02  -6.009133558678701e-02  0
5.046717870286711e-03  9.702164137184281e-03  0
-4.564230000069270e-02  -1.905956061180480e-02  0
5.169533995130028e-03  5.228038975897553e-02  0
4.266007723789729e-02  -3.074207377750647e-02  0
3.932026216561702e-02  2.999234354753419e-02  0
5.056864104328535e-03  -5.156786990186552e-02  0
-4.577546933089668e-02  2.193420268205412e-02  0
4.573430916765021e-02  5.589998484753368e-02  0
-7.127788679436761e-02  -1.166759929639653e-02  0
2.548294652748403e-02  -6.760233487117760e-02  0
1.717321903101388e-03  3.456734466309150e-02  0
1.760726002614532e-03  -3.421548161543796e-02  0
2.961914832830582e-02  -2.147513643889257e-02  0
-1.235668812183088e-02  7.464977572399911e-04  0
-3.327346276705118e-02  -7.503703303702237e-02  0
-4.586657247755230e-02  6.652363950696244e-02  0
8.159592764554657e-02  -8.693714668658991e-03  0
8.161975093901438e-02  8.702059487109282e-03  0
-4.832202208610285e-02  -6.631730020008934e-02  0
-3.462269657199355e-02  7.300480456855543e-02  0
-5.606711451705017e-02  1.253784731749092e-02  0
3.659506360554550e-02  3.902661103373656e-02  0
1.682960367295785e-02  5.456330071542225e-02  0
-5.211041981559930e-02  -1.220709533493790e-02  0
1.460900813063386e-02  -5.129695171993862e-02  0
3.880553453655278e-02  -4.189470512959840e-02  0
-5.101634505719628e-02  3.134574440887063e-02  0
5.129081603872967e-02  3.061097384981654e-02  0
6.731724957296205e-04  -6.025072675670971e-02  0
1.294429567123266e-04  6.063399669782690e-02  0
5.243122257212490e-02  -3.046313360489987e-02  0
-5.215196168799676e-02  -2.911377533837039e-02  0
-2.133945607278325e-02  6.863340882714657e-02  0
7.047206430973214e-02  -1.603058084195652e-02  0
-4.893968146532357e-02  5.307212880346010e-02  0
-4.905905954874635e-02  -5.300724476844512e-02  0
-2.137656518258128e-02  -6.902913801936790e-02  0
7.045352255851134e-02  1.599063236533544e-02  0
-3.851189848722606e-02  -4.773315390917438e-04  0
1.967254131116092e-02  3.263576761846633e-02  0
1.814562721198799e-02  -3.242827844017289e-02  0
-3.117752066619975e-03  -1.102211682066253e-02  0
1.009885925884929e-02  -4.031651560075601e-03  0
-3.712513961902872e-02  -1.692129188099915e-02  0
-3.691489660709712e-02  1.768718082622404e-02  0
3.324067753122402e-02  2.362789283801397e-02  0
-4.584561719863391e-03  8.591142759377146e-03  0
2.806202334791046e-02  9.011113029811946e-03  0
-2.016774063678031e-02  1.857125344900759e-02  0
-1.998778156553243e-02  -1.829710330761135e-02  0
6.524213188153462e-02  -4.610097264243353e-02  0
7.298725767615373e-03  7.954129193599903e-02  0
4.810902214632024e-03  -7.824683132796185e-02  0
-7.013708683632808e-02  -3.490815692403828e-02  0
-7.253874560152243e-02  3.356476015752589e-02  0
6.529980568586581e-02  4.328765752243643e-02  0
5.933317070691635e-02  5.287260932156073e-02  0
1.608462537303456e-02  -7.786658128518995e-02  0
-7.545491115396051e-02  -2.495036748594566e-02  0
-7.367655372379728e-02  2.280276235934310e-02  0
1.712921109423490e-02  7.518187039436024e-02  0
5.654344888257345e-02  -5.242870505106832e-02  0
-1.850401494522260e-02  -5.709078322310571e-03  0
-1.846863778260493e-02  6.203760317589969e-03  0
1.271275939338115e-02  1.337348421094600e-02  0
1.580199965189610e-03  4.329399313406142e-02  0
3.652468054385358e-02  -2.366960612062759e-02  0
1.640330178117003e-03  -4.301305101827343e-02  0
-1.214707951029493e-02  -2.287637700319385e-02  0
2.497193727803071e-02  3.315670171301200e-04  0
-1.230951946922948e-02  2.320337362453699e-02  0
2.041515820676143e-02  4.236435441656519e-02  0
-4.755309115738295e-02  3.509287449183201e-03  0
2.628944833148672e-02  -3.861362313396847e-02  0
-3.396447579889507e-02  5.538943740732149e-03  0
2.125466044031278e-02  2.552041119429310e-02  0
-3.285139877003729e-02  -5.449102969030342e-03  0
1.237811209059271e-02  3.029570629269004e-02  0
1.111113342585109e-02  -2.861161810393164e-02  0
2.035321164037034e-02  -2.523141196842397e-02  0
6.711426352144767e-03  -1.866645432660107e-02  0
8.187286380163507e-03  1.972877630444230e-02  0
1.435901756205178e-02  -1.569816130445252e-02  0
2.865591629159200e-02  5.693173049773616e-02  0
-6.375322183098397e-02  3.596697179101217e-03  0
3.490652577850757e-02  -5.327341981369923e-02  0
2.921312973099713e-02  3.946575154369009e-02  0
-4.894242421290791e-02  -5.581115925365301e-03  0
1.888557760008470e-02  -4.458114459420216e-02  0
-5.560426954516445e-03  2.820833908389749e-02  0
2.771983421893485e-02  -1.001930405676419e-02  0
-5.504289774119563e-03  -2.793216517003234e-02  0
-7.893419485987265e-03  1.762171559532312e-02  0
-9.933089656244102e-03  6.336836342914208e-02  0
5.988807082704742e-02  -2.312591414133443e-02  0
-5.106796544754232e-02  4.217805472031190e-02  0
-9.847618413016884e-03  -6.331451896437762e-02  0
-4.977886455134104e-02  -4.010209793581145e-02  0
5.962297271526842e-02  2.306066224012302e-02  0
4.109782929911458e-02  6.729323512215950e-02  0
-7.883843504235791e-02  -1.957226417138290e-03  0
3.771067927389329e-02  -6.924496914020624e-02  0
1.689899021519601e-02  -2.759907957843556e-03  0
-7.469304861667985e-03  -1.660082419436378e-02  0
-5.439430512621859e-02  -6.198797080635203e-02  0
-2.648766844195418e-02  -7.812431766101333e-02  0
8.088964385045132e-02  -1.614952827761136e-02  0
8.089731924497905e-02  1.612019187214930e-02  0
-2.661828738031605e-02  7.757053873663915e-02  0
-5.390524157604374e-02  6.191576670484164e-02  0
4.621088297948935e-03  -2.576181105034678e-02  0
7.362556366932555e-03  2.766286868882534e-03  0
-5.523847537152554e-02  2.206845542149030e-02  0
4.393176816339604e-02  3.618487504421829e-02  0
7.981811898785414e-03  5.844982476090661e-02  0
8.641804571218626e-03  -5.680913709892018e-02  0
4.660858708429555e-02  -3.619365036145959e-02  0
-5.330255071129292e-02  -1.996366101388148e-02  0
-6.152822743359779e-02  3.148940416400692e-02  0
3.922334339423050e-03  6.889900822504523e-02  0
5.687136192352690e-02  3.807529166360348e-02  0
4.411481101677170e-03  -6.849896244381883e-02  0
5.771091665948329e-02  -3.786573246777489e-02  0
-6.140788252466250e-02  -3.021659631267240e-02  0
7.556481589105446e-02  -2.856943312576807e-02  0
-6.227484769127579e-02  -5.124785594528597e-02  0
-1.306793400032598e-02  7.958531712326863e-02  0
-1.324796279817413e-02  -7.958751622598795e-02  0
-6.251361655763356e-02  5.135611979210990e-02  0
7.552477285773450e-02  2.831009185357232e-02  0
3.765028682238358e-02  4.761852624070251e-02  0
-6.009333274931326e-02  -8.826110596445339e-03  0
2.210389347447938e-02  -5.647991201822058e-02  0
5.097859496197259e-03  2.651866016620275e-02  0
2.207664815089261e-02  -1.698491421893833e-02  0
-3.966551472593958e-02  -6.872462886787217e-02  0
7.935044814849415e-02  9.944014051282371e-06  0
-3.867079707135976e-02  6.699914579699902e-02  0
1.318399594181023e-02  -9.850145268852056e-03  0
-6.985876822137464e-03  -5.368518161523040e-03  0
3.195081407578901e-02  1.581281352786673e-02  0
-2.932541315741243e-02  1.965080726115486e-02  0
-2.952020549304807e-02  -1.944043151226913e-02  0
1.973174873763978e-02  6.654803206674408e-02  0
-6.762141986536784e-02  1.614775398053608e-02  0
4.775201036464428e-02  -5.037311872981574e-02  0
-3.173737737826892e-02  6.660635046880854e-02  0
-4.286278349430832e-02  -6.275279015805280e-02  0
7.578302197357742e-02  -5.753564903543947e-03  0
7.583131099261001e-02  5.773558354519493e-03  0
-4.186420151999683e-02  6.085320278106181e-02  0
-3.291436042531697e-02  -6.856178383918528e-02  0
-3.504253695906742e-03  -3.882601613811269e-02  0
-3.534302031146318e-03  3.896853951784287e-02  0
3.378250312910250e-02  -1.722254504921938e-02  0
3.700272748580345e-03  -8.306798662345644e-03  0
-4.226742468158757e-02  -2.590790658909329e-02  0
4.449554528228002e-02  -2.437751355131607e-02  0
-1.361581072110974e-03  5.075814114211767e-02  0
4.359742637393805e-02  2.364235198552947e-02  0
-1.264033728193149e-03  -5.043839826634963e-02  0
-3.935430181849536e-02  2.565843244662013e-02  0
2.055665837212862e-03  1.605919483175049e-02  0
1.469515545796148e-03  -1.570588857532099e-02  0
3.856593455126896e-02  5.688882737853101e-02  0
-6.857787054215864e-02  -4.979893077797986e-03  0
2.989129971982873e-02  -6.187012638551771e-02  0
5.111921649383096e-02  6.145912965439915e-02  0
-7.878773126067992e-02  -1.354716239493165e-02  0
2.763175278024224e-02  -7.502726836621539e-02  0
-2.205291375454040e-02  -1.197587992734217e-02  0
-2.215484700327303e-02  1.235068785851477e-02  0
2.118103172763068e-02  1.135116865976373e-02  0
-2.460957369295731e-02  -6.520908148257690e-03  0
-2.464481068797095e-02  6.647360893676502e-03  0
1.686891125637151e-02  1.836108655647981e-02  0
3.508758902882932e-02  3.318151954833987e-02  0
-4.723914139516514e-02  1.496319127775951e-02  0
8.068108171534602e-03  4.702074960356893e-02  0
-4.631867907707111e-02  -1.380523622693946e-02  0
3.668703918281141e-02  -3.087018849020624e-02  0
7.819323642181162e-03  -4.626447686636076e-02  0
-2.500000000034962e-02  4.330127018911809e-02  0
-3.375424007029034e-02  4.547682926640277e-02  0
-2.581629226785196e-02  5.248193989954632e-02  0
-1.624575993038043e-02  4.112571111142228e-02  0
-2.418370773346627e-02  3.412060047877766e-02  0
-1.749554454836342e-02  4.929331717986892e-02  0
-3.250445545184599e-02  3.730922319888530e-02  0
-1.994787374105950e-02  5.300426844481224e-02  0
-3.537611405293254e-02  4.122775383402557e-02  0
-3.005212626040744e-02  3.359827193420145e-02  0
-1.462388594729266e-02  4.537478654422982e-02  0
-3.273253578109854e-02  5.132538873438310e-02  0
-1.726746422034222e-02  3.527715164286369e-02  0
-2.547787918871889e-02  -4.324569023495217e-02  0
-2.357391734287022e-02  -3.389712457026880e-02  0
-1.596810640663609e-02  -4.241802145628740e-02  0
-2.925143497267042e-02  -5.173200487348657e-02  0
-3.456127566100314e-02  -4.391093852141651e-02  0
-3.125185609325343e-02  -3.625039659217100e-02  0
-1.993592002173241e-02  -5.115035778186262e-02  0
-2.844789455615703e-02  -3.317415500023757e-02  0
-2.473489255624633e-02  -5.419101342981440e-02  0
-1.553055355436975e-02  -4.839255414331917e-02  0
-3.487943282086334e-02  -3.831349224472055e-02  0
-1.716798712144405e-02  -3.544508082189938e-02  0
-3.434652594044554e-02  -4.904708915893703e-02  0
5.029198419453887e-02  -2.790656185053683e-03  0
5.810728901468895e-02  -4.629311772812950e-03  0
4.208490867009924e-02  1.507129059786574e-03  0
4.774653464641113e-02  8.696467294841144e-03  0
5.187901547714856e-02  -9.955010129998413e-03  0
5.417791053196507e-02  5.874488488156377e-03  0
4.489716728303528e-02  -8.534429688548360e-03  0
4.079014037175787e-02  -5.421867458827586e-03  0
6.040569766585221e-02  2.189231112021966e-03  0
5.591798802637765e-02  -9.785350041719907e-03  0
4.138477894597500e-02  8.626799673602715e-03  0
4.809087236916781e-02  -1.108901940365182e-02  0
-1.736481780897923e-02  9.848077529374533e-02  0
-3.420201442208672e-02  9.396926204598807e-02  0
-5.000000012725316e-02  8.660254030495232e-02  0
-6.427876112339817e-02  7.660444418202719e-02  0
-7.660444444667605e-02  6.427876080800193e-02  0
-8.660254046088935e-02  4.999999985716229e-02  0
-9.396926211845273e-02  3.420201422299171e-02  0
-9.848077531027107e-02  1.736481771525717e-02  0
-9.848077529374533e-02  -1.736481780897923e-02  0
-9.396926204598807e-02  -3.420201442208672e-02  0
-8.660254030495232e-02  -5.000000012725316e-02  0
-7.660444418202719e-02  -6.427876112339817e-02  0
-6.427876080800193e-02  -7.660444444667605e-02  0
-4.999999985716229e-02  -8.660254046088935e-02  0
-3.420201422299171e-02  -9.396926211845273e-02  0
-1.736481771525717e-02  -9.848077531027107e-02  0
1.736481780897923e-02  -9.848077529374534e-02  0
3.420201442208672e-02  -9.396926204598807e-02  0
5.000000012725316e-02  -8.660254030495231e-02  0
6.427876112339820e-02  -7.660444418202718e-02  0
7.660444444667606e-02  -6.427876080800193e-02  0
8.660254046088936e-02  -4.999999985716228e-02  0
9.396926211845273e-02  -3.420201422299170e-02  0
9.848077531027105e-02  -1.736481771525717e-02  0
9.848077529374533e-02  1.736481780897923e-02  0
9.396926204598807e-02  3.420201442208671e-02  0
8.660254030495233e-02  5.000000012725316e-02  0
7.660444418202718e-02  6.427876112339817e-02  0
6.427876080800193e-02  7.660444444667606e-02  0
4.999999985716228e-02  8.660254046088936e-02  0
3.420201422299170e-02  9.396926211845276e-02  0
1.736481771525717e-02  9.848077531027105e-02  0
-1.169104038678287e+00  -6.630318462293684e+00  0
-4.011506957935280e-01  -2.275038642386840e+00  0
-1.451661806247559e-01  -8.232783193765738e-01  0
-5.983798638861343e-02  -3.393580840276805e-01  0
-3.139525122434532e-02  -1.780513176314812e-01  0
-2.191433199849972e-02  -1.242823529397181e-01  0
-2.302685443165447e+00  -6.326576239524843e+00  0
-7.901126308255600e-01  -2.170816605726725e+00  0
-2.859215603500777e-01  -7.855630289669140e-01  0
-1.178578258491994e-01  -3.238117148839458e-01  0
-6.183657362514136e-02  -1.698945898845777e-01  0
-4.316280810296098e-02  -1.185888409414649e-01  0
-3.366300914474097e+00  -5.830604198356911e+00  0
-1.155067393002007e+00  -2.000635404743337e+00  0
-4.179893580361363e-01  -7.239788033645972e-01  0
-1.722966148899508e-01  -2.984264906261606e-01  0
-9.039902303713354e-02  -1.565757010001174e-01  0
-6.309980414473662e-02  -1.092920670317337e-01  0
-4.327633036309355e+00  -5.157472197475254e+00  0
-1.484926017072232e+00  -1.769665908840135e+00  0
-5.373567606473931e-01  -6.403968480085107e-01  0
-2.215002585026915e-01  -2.639737284148229e-01  0
-1.162147438983221e-01  -1.384993386641026e-01  0
-8.111954458466292e-02  -9.667450897496185e-02  0
-5.157472214454947e+00  -4.327633016073746e+00  0
-1.769665914297472e+00  -1.484926010568432e+00  0
-6.403968496250605e-01  -5.373567587208643e-01  0
-2.639737287511100e-01  -2.215002581019201e-01  0
-1.384993385736354e-01  -1.162147440061367e-01  0
-9.667450874224315e-02  -8.111954486200629e-02  0
-5.830604208152490e+00  -3.366300897507654e+00  0
-2.000635407886516e+00  -1.155067387557861e+00  0
-7.239788042903087e-01  -4.179893564327571e-01  0
-2.984264908127158e-01  -1.722966145668274e-01  0
-1.565757009402874e-01  -9.039902314076217e-02  0
-1.092920668897752e-01  -6.309980439061601e-02  0
-6.326576244211241e+00  -2.302685430289676e+00  0
-2.170816607231721e+00  -7.901126266906173e-01  0
-7.855630294114426e-01  -2.859215591287448e-01  0
-3.238117149749853e-01  -1.178578255990702e-01  0
-1.698945898577875e-01  -6.183657369874672e-02  0
-1.185888408753982e-01  -4.316280828447795e-02  0
-6.630318463426287e+00  -1.169104032254987e+00  0
-2.275038642751369e+00  -4.011506937261802e-01  0
-8.232783194850790e-01  -1.451661800093927e-01  0
-3.393580840508441e-01  -5.983798625724528e-02  0
-1.780513176261979e-01  -3.139525125430885e-02  0
-1.242823529249523e-01  -2.191433208224052e-02  0
2.191433208224055e-02  -1.242823529249523e-01  0
4.316280828447799e-02  -1.185888408753982e-01  0
6.309980439061608e-02  -1.092920668897753e-01  0
8.111954486200637e-02  -9.667450874224325e-02  0
9.667450897496194e-02  -8.111954458466300e-02  0
1.092920670317338e-01  -6.309980414473669e-02  0
1.185888409414650e-01  -4.316280810296104e-02  0
1.242823529397181e-01  -2.191433199849975e-02  0
3.139525125430885e-02  -1.780513176261979e-01  0
6.183657369874672e-02  -1.698945898577875e-01  0
9.039902314076219e-02  -1.565757009402874e-01  0
1.162147440061367e-01  -1.384993385736354e-01  0
1.384993386641026e-01  -1.162147438983221e-01  0
1.565757010001174e-01  -9.039902303713357e-02  0
1.698945898845776e-01  -6.183657362514136e-02  0
1.780513176314812e-01  -3.139525122434532e-02  0
5.983798625724540e-02  -3.393580840508443e-01  0
1.178578255990704e-01  -3.238117149749856e-01  0
1.722966145668277e-01  -2.984264908127163e-01  0
2.215002581019205e-01  -2.639737287511104e-01  0
2.639737284148234e-01  -2.215002585026918e-01  0
2.984264906261609e-01  -1.722966148899512e-01  0
3.238117148839460e-01  -1.178578258491996e-01  0
3.393580840276806e-01  -5.983798638861355e-02  0
1.451661800093927e-01  -8.232783194850788e-01  0
2.859215591287447e-01  -7.855630294114422e-01  0
4.179893564327570e-01  -7.239788042903086e-01  0
5.373567587208641e-01  -6.403968496250603e-01  0
6.403968480085107e-01  -5.373567606473928e-01  0
7.239788033645970e-01  -4.179893580361362e-01  0
7.855630289669138e-01  -2.859215603500775e-01  0
8.232783193765736e-01  -1.451661806247558e-01  0
4.011506937261803e-01  -2.275038642751368e+00  0
7.901126266906175e-01  -2.170816607231721e+00  0
1.155067387557861e+00  -2.000635407886516e+00  0
1.484926010568432e+00  -1.769665914297472e+00  0
1.769665908840135e+00  -1.484926017072232e+00  0
2.000635404743336e+00  -1.155067393002007e+00  0
2.170816605726725e+00  -7.901126308255603e-01  0
2.275038642386840e+00  -4.011506957935280e-01  0
1.169104032254987e+00  -6.630318463426286e+00  0
2.302685430289677e+00  -6.326576244211241e+00  0
3.366300897507654e+00  -5.830604208152490e+00  0
4.327633016073746e+00  -5.157472214454947e+00  0
5.157472197475254e+00  -4.327633036309356e+00  0
5.830604198356911e+00  -3.366300914474097e+00  0
6.326576239524845e+00  -2.302685443165447e+00  0
6.630318462293685e+00  -1.169104038678287e+00  0
1.242823529249523e-01  2.191433208224055e-02  0
1.185888408753982e-01  4.316280828447799e-02  0
1.092920668897753e-01  6.309980439061608e-02  0
9.667450874224325e-02  8.111954486200637e-02  0
8.111954458466300e-02  9.667450897496194e-02  0
6.309980414473669e-02  1.092920670317338e-01  0
4.316280810296104e-02  1.185888409414650e-01  0
2.191433199849975e-02  1.242823529397181e-01  0
1.780513176261979e-01  3.139525125430885e-02  0
1.698945898577875e-01  6.183657369874672e-02  0
1.565757009402874e-01  9.039902314076219e-02  0
1.384993385736354e-01  1.162147440061367e-01  0
1.162147438983221e-01  1.384993386641026e-01  0
9.039902303713357e-02  1.565757010001174e-01  0
6.183657362514136e-02  1.698945898845776e-01  0
3.139525122434532e-02  1.780513176314812e-01  0
3.393580840508443e-01  5.983798625724540e-02  0
3.238117149749856e-01  1.178578255990704e-01  0
2.984264908127163e-01  1.722966145668277e-01  0
2.639737287511104e-01  2.215002581019205e-01  0
2.215002585026918e-01  2.639737284148234e-01  0
1.722966148899512e-01  2.984264906261609e-01  0
1.178578258491996e-01  3.238117148839460e-01  0
5.983798638861355e-02  3.393580840276806e-01  0
8.232783194850788e-01  1.451661800093927e-01  0
7.855630294114422e-01  2.859215591287447e-01  0
7.239788042903086e-01  4.179893564327570e-01  0
6.403968496250603e-01  5.373567587208641e-01  0
5.373567606473928e-01  6.403968480085107e-01  0
4.179893580361362e-01  7.239788033645970e-01  0
2.859215603500775e-01  7.855630289669138e-01  0
1.451661806247558e-01  8.232783193765736e-01  0
2.275038642751368e+00  4.011506937261803e-01  0
2.170816607231721e+00  7.901126266906175e-01  0
2.000635407886516e+00  1.155067387557861e+00  0
1.769665914297472e+00  1.484926010568432e+00  0
1.484926017072232e+00  1.769665908840135e+00  0
1.155067393002007e+00  2.000635404743336e+00  0
7.901126308255603e-01  2.170816605726725e+00  0
4.011506957935280e-01  2.275038642386840e+00  0
6.630318463426286e+00  1.169104032254987e+00  0
6.326576244211241e+00  2.302685430289677e+00  0
5.830604208152490e+00  3.366300897507654e+00  0
5.157472214454947e+00  4.327633016073746e+00  0
4.327633036309356e+00  5.157472197475254e+00  0
3.366300914474097e+00  5.830604198356911e+00  0
2.302685443165447e+00  6.326576239524845e+00  0
1.169104038678287e+00  6.630318462293685e+00  0
-2.191433208224055e-02  1.242823529249523e-01  0
-4.316280828447799e-02  1.185888408753982e-01  0
-6.309980439061608e-02  1.092920668897753e-01  0
-8.111954486200637e-02  9.667450874224325e-02  0
-9.667450897496194e-02  8.111954458466300e-02  0
-1.092920670317338e-01  6.309980414473669e-02  0
-1.185888409414650e-01  4.316280810296104e-02  0
-1.242823529397181e-01  2.191433199849975e-02  0
-3.139525125430885e-02  1.780513176261979e-01  0
-6.183657369874672e-02  1.698945898577875e-01  0
-9.039902314076219e-02  1.565757009402874e-01  0
-1.162147440061367e-01  1.384993385736354e-01  0
-1.384993386641026e-01  1.162147438983221e-01  0
-1.565757010001174e-01  9.039902303713357e-02  0
-1.698945898845776e-01  6.183657362514136e-02  0
-1.780513176314812e-01  3.139525122434532e-02  0
-5.983798625724540e-02  3.393580840508443e-01  0
-1.178578255990704e-01  3.238117149749856e-01  0
-1.722966145668277e-01  2.984264908127163e-01  0
-2.215002581019205e-01  2.639737287511104e-01  0
-2.639737284148234e-01  2.215002585026918e-01  0
-2.984264906261609e-01  1.722966148899512e-01  0
-3.238117148839460e-01  1.178578258491996e-01  0
-3.393580840276806e-01  5.983798638861355e-02  0
-1.451661800093927e-01  8.232783194850788e-01  0
-2.859215591287447e-01  7.855630294114422e-01  0
-4.179893564327570e-01  7.239788042903086e-01  0
-5.373567587208641e-01  6.403968496250603e-01  0
-6.403968480085107e-01  5.373567606473928e-01  0
-7.239788033645970e-01  4.179893580361362e-01  0
-7.855630289669138e-01  2.859215603500775e-01  0
-8.232783193765736e-01  1.451661806247558e-01  0
-4.011506937261803e-01  2.275038642751368e+00  0
-7.901126266906175e-01  2.170816607231721e+00  0
-1.155067387557861e+00  2.000635407886516e+00  0
-1.484926010568432e+00  1.769665914297472e+00  0
-1.769665908840135e+00  1.484926017072232e+00  0
-2.000635404743336e+00  1.155067393002007e+00  0
-2.170816605726725e+00  7.901126308255603e-01  0
-2.275038642386840e+00  4.011506957935280e-01  0
-1.169104032254987e+00  6.630318463426286e+00  0
-2.302685430289677e+00  6.326576244211241e+00  0
-3.366300897507654e+00  5.830604208152490e+00  0
-4.327633016073746e+00  5.157472214454947e+00  0
-5.157472197475254e+00  4.327633036309356e+00  0
-5.830604198356911e+00  3.366300914474097e+00  0
-6.326576239524845e+00  2.302685443165447e+00  0
-6.630318462293685e+00  1.169104038678287e+00  0
Edges
144
3  25  3
25  26  3
26  27  3
27  28  3
28  29  3
29  30  3
30  31  3
31  32  3
4  32  3
4  33  3
33  34  3
34  35  3
35  36  3
36  37  3
37  38  3
38  39  3
39  40  3
1  40  3
1  41  3
41  42  3
42  43  3
43  44  3
44  45  3
45  46  3
46  47  3
47  48  3
2  48  3
2  49  3
49  50  3
50  51  3
51  52  3
52  53  3
53  54  3
54  55  3
55  56  3
3  56  3
6  57  2
57  58  2
58  59  2
59  60  2
60  61  2
61  62  2
62  63  2
63  64  2
7  64  2
7  65  2
65  66  2
66  67  2
67  68  2
68  69  2
69  70  2
70  71  2
71  72  2
8  72  2
8  73  2
73  74  2
74  75  2
75  76  2
76  77  2
77  78  2
78  79  2
79  80  2
5  80  2
5  81  2
81  82  2
82  83  2
83  84  2
84  85  2
85  86  2
86  87  2
87  88  2
6  88  2
15  93  6
93  94  6
14  94  6
14  95  6
95  96  6
16  96  6
16  97  6
97  98  6
13  98  6
13  99  6
99  100  6
15  100  6
19  101  4
101  102  4
18  102  4
18  103  4
103  104  4
20  104  4
20  105  4
105  106  4
17  106  4
17  107  4
107  108  4
19  108  4
10  109  5
109  110  5
12  110  5
12  111  5
111  112  5
9  112  5
9  113  5
113  114  5
11  114  5
11  115  5
115  116  5
10  116  5
23  117  1
117  118  1
118  119  1
119  120  1
120  121  1
121  122  1
122  123  1
123  124  1
22  124  1
22  125  1
125  126  1
126  127  1
127  128  1
128  129  1
129  130  1
130  131  1
131  132  1
21  132  1
21  133  1
133  134  1
134  135  1
135  136  1
136  137  1
137  138  1
138  139  1
139  140  1
24  140  1
24  141  1
141  142  1
142  143  1
143  144  1
144  145  1
145  146  1
146  147  1
147  148  1
23  148  1
Triangles
74
111  12  305  3
106  105  307  3
18  102  308  3
100  99  304  3
11  114  309  3
254  212  367  3
215  256  370  3
217  255  372  3
53  54  339  3
42  43  340  3
32  4  338  3
2  49  337  3
38  39  335  3
27  28  336  3
249  191  287  3
192  250  286  3
194  251  289  3
280  186  313  3
217  237  323  3
54  55  265  3
48  2  262  3
37  38  261  3
366  252  374  3
205  254  353  3
255  207  352  3
256  206  351  3
188  257  303  3
261  202  333  3
262  199  330  3
264  203  334  3
200  263  332  3
198  265  329  3
201  266  331  3
257  211  373  3
180  270  355  3
271  181  354  3
272  182  356  3
107  17  363  3
13  98  364  3
115  11  370  3
99  13  369  3
96  95  372  3
102  101  367  3
12  110  368  3
17  106  371  3
283  175  298  3
174  282  297  3
176  284  299  3
301  196  345  3
275  186  383  3
221  276  364  3
223  277  365  3
278  222  363  3
178  274  385  3
273  178  384  3
204  293  349  3
317  244  335  3
315  246  336  3
319  243  337  3
247  316  338  3
245  320  339  3
248  318  340  3
348  226  361  3
230  348  357  3
394  14  401  2
396  13  403  2
93  94  404  2
97  98  405  2
101  411  413  5
107  108  417  5
9  113  427  6
12  423  430  6
421  422  429  6
115  116  429  6
Quadrilaterals
598
239  332  185  326  3
238  331  183  324  3
184  334  242  328  3
249  287  178  285  3
300  98  97  281  3
242  334  203  308  3
201  331  238  309  3
198  329  237  306  3
236  356  182  327  3
233  354  181  325  3
180  355  231  323  3
200  332  239  307  3
241  333  202  305  3
240  330  199  304  3
108  107  302  279  3
251  290  179  289  3
301  109  10  280  3
232  341  174  297  3
175  342  234  298  3
237  329  180  323  3
181  330  240  325  3
182  333  241  327  3
235  343  176  299  3
224  273  187  350  3
250  288  177  286  3
202  335  244  305  3
199  337  243  304  3
245  339  198  306  3
247  338  200  307  3
203  336  246  308  3
248  340  201  309  3
174  294  233  282  3
176  296  236  284  3
390  234  328  212  3
324  232  387  215  3
231  295  175  283  3
345  293  179  290  3
243  319  230  357  3
226  320  245  361  3
228  318  248  360  3
246  315  229  358  3
244  317  227  359  3
225  316  247  362  3
188  303  281  259  3
220  380  312  377  3
218  378  310  375  3
311  379  219  376  3
279  314  187  260  3
291  374  197  321  3
382  207  385  274  3
384  205  381  273  3
326  235  392  216  3
179  291  321  289  3
249  283  298  191  3
106  307  239  371  3
278  363  17  371  3
43  266  201  340  3
4  263  200  338  3
203  264  27  336  3
240  304  99  369  3
241  305  12  368  3
13  364  276  369  3
110  365  277  368  3
255  190  285  207  3
287  191  254  205  3
256  192  286  206  3
275  386  177  292  3
310  46  47  208  3
312  35  36  210  3
56  3  311  209  3
350  173  257  224  3
196  349  293  345  3
54  265  198  339  3
199  262  2  337  3
202  261  38  335  3
297  282  250  192  3
253  313  186  322  3
376  342  175  295  3
174  341  375  294  3
176  343  377  296  3
261  333  182  272  3
262  330  181  271  3
180  329  265  270  3
264  334  184  269  3
185  332  263  268  3
183  331  266  267  3
274  178  273  224  3
346  362  104  358  3
347  360  9  359  3
258  280  10  116  3
108  279  260  19  3
275  211  322  186  3
291  179  293  204  3
299  284  251  194  3
195  373  292  344  3
350  252  366  173  3
259  281  97  16  3
306  237  95  14  3
193  391  277  223  3
189  389  276  221  3
258  383  186  280  3
242  308  102  367  3
11  309  238  370  3
323  231  388  217  3
188  274  224  257  3
344  292  177  288  3
278  392  194  222  3
302  222  321  197  3
348  361  93  357  3
206  383  258  351  3
260  381  205  353  3
207  382  259  352  3
235  326  185  343  3
210  296  377  312  3
208  294  375  310  3
376  295  209  311  3
184  328  234  342  3
232  324  183  341  3
111  305  244  112  3
100  304  243  15  3
344  221  300  195  3
245  306  14  94  3
247  307  105  20  3
18  308  246  103  3
248  309  114  113  3
301  345  223  365  3
374  291  204  366  3
256  351  115  370  3
101  353  254  367  3
255  352  96  372  3
298  234  390  191  3
391  236  327  214  3
389  233  325  213  3
387  232  297  192  3
322  211  257  173  3
204  349  253  366  3
392  235  299  194  3
383  206  386  275  3
45  378  267  44  3
34  380  268  33  3
269  379  25  26  3
251  284  193  290  3
388  190  255  217  3
281  303  195  300  3
388  231  283  190  3
250  282  189  288  3
44  267  266  43  3
33  268  263  4  3
264  269  26  27  3
282  233  389  189  3
284  236  391  193  3
197  314  279  302  3
364  98  300  221  3
37  261  272  36  3
48  262  271  47  3
270  265  55  56  3
302  107  363  222  3
190  283  249  285  3
53  339  320  52  3
32  338  316  31  3
42  340  318  41  3
317  335  39  40  3
319  337  49  50  3
315  336  28  29  3
280  313  196  301  3
387  192  256  215  3
254  191  390  212  3
223  345  290  193  3
278  371  216  392  3
253  322  173  366  3
214  368  277  391  3
213  369  276  389  3
219  379  269  184  3
268  380  220  185  3
267  378  218  183  3
289  321  222  194  3
31  316  225  30  3
52  320  226  51  3
227  317  40  1  3
41  318  228  1  3
229  315  29  30  3
230  319  50  51  3
374  252  314  197  3
51  226  348  230  3
221  344  288  189  3
296  210  356  236  3
294  208  354  233  3
355  209  295  231  3
292  373  211  275  3
237  217  372  95  3
349  196  313  253  3
272  356  210  36  3
271  354  208  47  3
209  355  270  56  3
218  375  341  183  3
342  376  219  184  3
220  377  343  185  3
113  9  360  248  3
20  104  362  247  3
359  9  112  244  3
358  104  103  246  3
373  195  303  257  3
46  310  378  45  3
35  312  380  34  3
379  311  3  25  3
94  93  361  245  3
357  93  15  243  3
109  301  365  110  3
225  362  346  30  3
347  359  227  1  3
228  360  347  1  3
346  358  229  30  3
351  258  116  115  3
19  260  353  101  3
352  259  16  96  3
238  324  215  370  3
212  328  242  367  3
214  327  241  368  3
213  325  240  369  3
239  326  216  371  3
187  314  252  350  3
286  177  386  206  3
384  178  287  205  3
285  178  385  207  3
187  273  381  260  3
382  274  188  259  3
394  404  94  14  2
396  405  98  13  2
395  404  394  393  2
397  405  396  393  2
96  402  399  95  2
396  403  398  393  2
394  401  399  393  2
100  400  398  99  2
398  400  395  393  2
399  402  397  393  2
97  405  397  16  2
93  404  395  15  2
400  100  15  395  2
402  96  16  397  2
95  399  401  14  2
99  398  403  13  2
407  417  108  19  5
102  416  411  101  5
20  414  409  104  5
106  415  412  105  5
408  417  407  406  5
409  414  412  406  5
410  418  409  406  5
407  413  411  406  5
412  415  408  406  5
411  416  410  406  5
103  418  410  18  5
107  417  408  17  5
415  106  17  408  5
416  102  18  410  5
413  407  19  101  5
105  412  414  20  5
418  103  104  409  5
9  427  420  112  6
421  429  116  10  6
421  426  425  419  6
419  424  422  421  6
420  427  424  419  6
423  428  420  419  6
424  427  113  114  6
425  426  109  110  6
425  430  423  419  6
111  428  423  12  6
115  429  422  11  6
110  12  430  425  6
426  421  10  109  6
428  111  112  420  6
114  11  422  424  6
2  89  431  49  1
89  6  57  431  1
49  431  432  50  1
431  57  58  432  1
50  432  433  51  1
432  58  59  433  1
51  433  434  52  1
433  59  60  434  1
52  434  435  53  1
434  60  61  435  1
53  435  436  54  1
435  61  62  436  1
54  436  437  55  1
436  62  63  437  1
55  437  438  56  1
437  63  64  438  1
56  438  92  3  1
438  64  7  92  1
3  92  439  25  1
92  7  65  439  1
25  439  440  26  1
439  65  66  440  1
26  440  441  27  1
440  66  67  441  1
27  441  442  28  1
441  67  68  442  1
28  442  443  29  1
442  68  69  443  1
29  443  444  30  1
443  69  70  444  1
30  444  445  31  1
444  70  71  445  1
31  445  446  32  1
445  71  72  446  1
32  446  91  4  1
446  72  8  91  1
8  73  447  91  1
91  447  33  4  1
73  74  448  447  1
447  448  34  33  1
74  75  449  448  1
448  449  35  34  1
75  76  450  449  1
449  450  36  35  1
76  77  451  450  1
450  451  37  36  1
77  78  452  451  1
451  452  38  37  1
78  79  453  452  1
452  453  39  38  1
79  80  454  453  1
453  454  40  39  1
80  5  90  454  1
454  90  1  40  1
1  90  455  41  1
41  455  456  42  1
42  456  457  43  1
43  457  458  44  1
44  458  459  45  1
45  459  460  46  1
46  460  461  47  1
47  461  462  48  1
48  462  89  2  1
90  5  81  455  1
455  81  82  456  1
456  82  83  457  1
457  83  84  458  1
458  84  85  459  1
459  85  86  460  1
460  86  87  461  1
461  87  88  462  1
462  88  6  89  1
24  172  463  141  4
172  171  464  463  4
171  170  465  464  4
170  169  466  465  4
169  168  467  466  4
168  167  468  467  4
167  8  72  468  4
141  463  469  142  4
463  464  470  469  4
464  465  471  470  4
465  466  472  471  4
466  467  473  472  4
467  468  474  473  4
468  72  71  474  4
142  469  475  143  4
469  470  476  475  4
470  471  477  476  4
471  472  478  477  4
472  473  479  478  4
473  474  480  479  4
474  71  70  480  4
143  475  481  144  4
475  476  482  481  4
476  477  483  482  4
477  478  484  483  4
478  479  485  484  4
479  480  486  485  4
480  70  69  486  4
144  481  487  145  4
481  482  488  487  4
482  483  489  488  4
483  484  490  489  4
484  485  491  490  4
485  486  492  491  4
486  69  68  492  4
145  487  493  146  4
487  488  494  493  4
488  489  495  494  4
489  490  496  495  4
490  491  497  496  4
491  492  498  497  4
492  68  67  498  4
146  493  499  147  4
493  494  500  499  4
494  495  501  500  4
495  496  502  501  4
496  497  503  502  4
497  498  504  503  4
498  67  66  504  4
147  499  505  148  4
499  500  506  505  4
500  501  507  506  4
501  502  508  507  4
502  503  509  508  4
503  504  510  509  4
504  66  65  510  4
148  505  154  23  4
505  506  153  154  4
506  507  152  153  4
507  508  151  152  4
508  509  150  151  4
509  510  149  150  4
510  65  7  149  4
8  167  511  73  4
73  511  512  74  4
74  512  513  75  4
75  513  514  76  4
76  514  515  77  4
77  515  516  78  4
78  516  517  79  4
79  517  518  80  4
80  518  161  5  4
167  168  519  511  4
511  519  520  512  4
512  520  521  513  4
513  521  522  514  4
514  522  523  515  4
515  523  524  516  4
516  524  525  517  4
517  525  526  518  4
518  526  162  161  4
168  169  527  519  4
519  527  528  520  4
520  528  529  521  4
521  529  530  522  4
522  530  531  523  4
523  531  532  524  4
524  532  533  525  4
525  533  534  526  4
526  534  163  162  4
169  170  535  527  4
527  535  536  528  4
528  536  537  529  4
529  537  538  530  4
530  538  539  531  4
531  539  540  532  4
532  540  541  533  4
533  541  542  534  4
534  542  164  163  4
170  171  543  535  4
535  543  544  536  4
536  544  545  537  4
537  545  546  538  4
538  546  547  539  4
539  547  548  540  4
540  548  549  541  4
541  549  550  542  4
542  550  165  164  4
171  172  551  543  4
543  551  552  544  4
544  552  553  545  4
545  553  554  546  4
546  554  555  547  4
547  555  556  548  4
548  556  557  549  4
549  557  558  550  4
550  558  166  165  4
172  24  140  551  4
551  140  139  552  4
552  139  138  553  4
553  138  137  554  4
554  137  136  555  4
555  136  135  556  4
556  135  134  557  4
557  134  133  558  4
558  133  21  166  4
5  161  559  81  4
81  559  560  82  4
82  560  561  83  4
83  561  562  84  4
84  562  563  85  4
85  563  564  86  4
86  564  565  87  4
87  565  566  88  4
88  566  155  6  4
161  162  567  559  4
559  567  568  560  4
560  568  569  561  4
561  569  570  562  4
562  570  571  563  4
563  571  572  564  4
564  572  573  565  4
565  573  574  566  4
566  574  156  155  4
162  163  575  567  4
567  575  576  568  4
568  576  577  569  4
569  577  578  570  4
570  578  579  571  4
571  579  580  572  4
572  580  581  573  4
573  581  582  574  4
574  582  157  156  4
163  164  583  575  4
575  583  584  576  4
576  584  585  577  4
577  585  586  578  4
578  586  587  579  4
579  587  588  580  4
580  588  589  581  4
581  589  590  582  4
582  590  158  157  4
164  165  591  583  4
583  591  592  584  4
584  592  593  585  4
585  593  594  586  4
586  594  595  587  4
587  595  596  588  4
588  596  597  589  4
589  597  598  590  4
590  598  159  158  4
165  166  599  591  4
591  599  600  592  4
592  600  601  593  4
593  601  602  594  4
594  602  603  595  4
595  603  604  596  4
596  604  605  597  4
597  605  606  598  4
598  606  160  159  4
166  21  132  599  4
599  132  131  600  4
600  131  130  601  4
601  130  129  602  4
602  129  128  603  4
603  128  127  604  4
604  127  126  605  4
605  126  125  606  4
606  125  22  160  4
6  155  607  57  4
57  607  608  58  4
58  608  609  59  4
59  609  610  60  4
60  610  611  61  4
61  611  612  62  4
62  612  613  63  4
63  613  614  64  4
64  614  149  7  4
155  156  615  607  4
607  615  616  608  4
608  616  617  609  4
609  617  618  610  4
610  618  619  611  4
611  619  620  612  4
612  620  621  613  4
613  621  622  614  4
614  622  150  149  4
156  157  623  615  4
615  623  624  616  4
616  624  625  617  4
617  625  626  618  4
618  626  627  619  4
619  627  628  620  4
620  628  629  621  4
621  629  630  622  4
622  630  151  150  4
157  158  631  623  4
623  631  632  624  4
624  632  633  625  4
625  633  634  626  4
626  634  635  627  4
627  635  636  628  4
628  636  637  629  4
629  637  638  630  4
630  638  152  151  4
158  159  639  631  4
631  639  640  632  4
632  640  641  633  4
633  641  642  634  4
634  642  643  635  4
635  643  644  636  4
636  644  645  637  4
637  645  646  638  4
638  646  153  152  4
159  160  647  639  4
639  647  648  640  4
640  648  649  641  4
641  649  650  642  4
642  650  651  643  4
643  651  652  644  4
644  652  653  645  4
645  653  654  646  4
646  654  154  153  4
160  22  124  647  4
647  124  123  648  4
648  123  122  649  4
649  122  121  650  4
650  121  120  651  4
651  120  119  652  4
652  119  118  653  4
653  118  117  654  4
654  117  23  154  4
End
