MeshVersionFormatted 1
Dimension 
2
Vertices
459
1.080000000000000e-01  0.000000000000000e+00  2
0.000000000000000e+00  1.080000000000000e-01  2
-1.080000000000000e-01  0.000000000000000e+00  2
0.000000000000000e+00  -1.080000000000000e-01  2
2.000000000000000e+01  0.000000000000000e+00  3
0.000000000000000e+00  2.000000000000000e+01  3
-2.000000000000000e+01  0.000000000000000e+00  3
0.000000000000000e+00  -2.000000000000000e+01  3
9.200000000000000e-02  0.000000000000000e+00  1
0.000000000000000e+00  9.200000000000000e-02  1
-9.200000000000000e-02  0.000000000000000e+00  1
0.000000000000000e+00  -9.200000000000000e-02  1
6.750000000000000e-02  0.000000000000000e+00  4
5.000000000000000e-02  1.750000000000000e-02  4
3.250000000000000e-02  0.000000000000000e+00  4
5.000000000000000e-02  -1.750000000000000e-02  4
-7.499999999999989e-03  4.330127018922194e-02  5
-2.499999999999999e-02  6.080127018922194e-02  5
-4.250000000000000e-02  4.330127018922194e-02  5
-2.499999999999999e-02  2.580127018922194e-02  5
-7.499999999999989e-03  -4.330127018922194e-02  6
-2.499999999999999e-02  -2.580127018922194e-02  6
-4.250000000000000e-02  -4.330127018922194e-02  6
-2.499999999999999e-02  -6.080127018922194e-02  6
-1.052922145024082e-01  -2.403226092524098e-02  2
-9.730463767346507e-02  -4.685944394927965e-02  2
-8.443779997598024e-02  -6.733689876446905e-02  2
-6.733689843234285e-02  -8.443780024084203e-02  2
-4.685944368105096e-02  -9.730463780263721e-02  2
-2.403226078535084e-02  -1.052922145343372e-01  2
2.403226092524098e-02  -1.052922145024082e-01  2
4.685944394927965e-02  -9.730463767346507e-02  2
6.733689876446905e-02  -8.443779997598024e-02  2
8.443780024084203e-02  -6.733689843234285e-02  2
9.730463780263721e-02  -4.685944368105096e-02  2
1.052922145343372e-01  -2.403226078535084e-02  2
1.052922145024082e-01  2.403226092524098e-02  2
9.730463767346507e-02  4.685944394927965e-02  2
8.443779997598024e-02  6.733689876446905e-02  2
6.733689843234285e-02  8.443780024084203e-02  2
4.685944368105096e-02  9.730463780263721e-02  2
2.403226078535084e-02  1.052922145343372e-01  2
-2.403226092524098e-02  1.052922145024082e-01  2
-4.685944394927965e-02  9.730463767346507e-02  2
-6.733689876446905e-02  8.443779997598024e-02  2
-8.443780024084203e-02  6.733689843234285e-02  2
-9.730463780263721e-02  4.685944368105096e-02  2
-1.052922145343372e-01  2.403226078535084e-02  2
-4.450418691007292e+00  1.949855824092471e+01  3
-8.677674807431035e+00  1.801937734597055e+01  3
-1.246979606771126e+01  1.563662962500848e+01  3
-1.563662967261439e+01  1.246979600801534e+01  3
-1.801937736918679e+01  8.677674759222016e+00  3
-1.949855824682306e+01  4.450418665164929e+00  3
-1.949855824092471e+01  -4.450418691007292e+00  3
-1.801937734597055e+01  -8.677674807431035e+00  3
-1.563662962500848e+01  -1.246979606771126e+01  3
-1.246979600801534e+01  -1.563662967261439e+01  3
-8.677674759222016e+00  -1.801937736918679e+01  3
-4.450418665164929e+00  -1.949855824682306e+01  3
4.450418691007292e+00  -1.949855824092471e+01  3
8.677674807431035e+00  -1.801937734597055e+01  3
1.246979606771126e+01  -1.563662962500848e+01  3
1.563662967261439e+01  -1.246979600801534e+01  3
1.801937736918679e+01  -8.677674759222016e+00  3
1.949855824682306e+01  -4.450418665164929e+00  3
1.949855824092471e+01  4.450418691007292e+00  3
1.801937734597055e+01  8.677674807431035e+00  3
1.563662962500848e+01  1.246979606771126e+01  3
1.246979600801534e+01  1.563662967261439e+01  3
8.677674759222016e+00  1.801937736918679e+01  3
4.450418665164929e+00  1.949855824682306e+01  3
0.000000000000000e+00  4.086399999991001e+00  0
0.000000000000000e+00  8.064799999979591e+00  0
0.000000000000000e+00  1.204319999997908e+01  0
0.000000000000000e+00  1.602159999998919e+01  0
4.086399999991001e+00  0.000000000000000e+00  0
8.064799999979591e+00  0.000000000000000e+00  0
1.204319999997908e+01  0.000000000000000e+00  0
1.602159999998919e+01  0.000000000000000e+00  0
0.000000000000000e+00  -4.086399999991001e+00  0
0.000000000000000e+00  -8.064799999979591e+00  0
0.000000000000000e+00  -1.204319999997908e+01  0
0.000000000000000e+00  -1.602159999998919e+01  0
-4.086399999991001e+00  0.000000000000000e+00  0
-8.064799999979591e+00  0.000000000000000e+00  0
-1.204319999997908e+01  0.000000000000000e+00  0
-1.602159999998919e+01  0.000000000000000e+00  0
8.969336790901071e-02  2.047192597531671e-02  1
8.288913579626503e-02  3.991730410421442e-02  1
7.192849627255651e-02  5.736106191458473e-02  1
5.736106162235475e-02  7.192849650560215e-02  1
3.991730387915233e-02  8.288913590464923e-02  1
2.047192585889986e-02  8.969336793558209e-02  1
-2.047192597531671e-02  8.969336790901071e-02  1
-3.991730410421442e-02  8.288913579626503e-02  1
-5.736106191458473e-02  7.192849627255651e-02  1
-7.192849650560215e-02  5.736106162235475e-02  1
-8.288913590464923e-02  3.991730387915233e-02  1
-8.969336793558209e-02  2.047192585889986e-02  1
-8.969336790901071e-02  -2.047192597531671e-02  1
-8.288913579626503e-02  -3.991730410421442e-02  1
-7.192849627255651e-02  -5.736106191458473e-02  1
-5.736106162235475e-02  -7.192849650560215e-02  1
-3.991730387915233e-02  -8.288913590464923e-02  1
-2.047192585889986e-02  -8.969336793558209e-02  1
2.047192597531671e-02  -8.969336790901071e-02  1
3.991730410421442e-02  -8.288913579626503e-02  1
5.736106191458473e-02  -7.192849627255651e-02  1
7.192849650560215e-02  -5.736106162235475e-02  1
8.288913590464923e-02  -3.991730387915233e-02  1
8.969336793558209e-02  -2.047192585889986e-02  1
0.000000000000000e+00  9.999999999998102e-02  0
9.999999999998102e-02  0.000000000000000e+00  0
0.000000000000000e+00  -9.999999999998102e-02  0
-9.999999999998102e-02  0.000000000000000e+00  0
6.515544455529090e-02  8.750000018943042e-03  4
5.874999998093502e-02  1.515544457723485e-02  4
4.124999997479287e-02  1.515544455167433e-02  4
3.484455542201854e-02  8.749999979641850e-03  4
3.484455544501082e-02  -8.750000019465647e-03  4
4.125000001803803e-02  -1.515544457664194e-02  4
5.875000002287996e-02  -1.515544455301793e-02  4
6.515544457903244e-02  -8.749999977821514e-03  4
-9.844555442734616e-03  5.205127020474511e-02  5
-1.625000002528925e-02  5.845671477005038e-02  5
-3.375000003002160e-02  5.845671473811664e-02  5
-4.015544458228604e-02  5.205127016140802e-02  5
-4.015544455687860e-02  3.455127017302886e-02  5
-3.374999997965533e-02  2.814582561124826e-02  5
-1.624999997359746e-02  2.814582563823777e-02  5
-9.844555419782457e-03  3.455127021345308e-02  5
-9.844555444085541e-03  -3.455127017135890e-02  6
-1.625000002299519e-02  -2.814582560971798e-02  6
-3.375000002949356e-02  -2.814582564002238e-02  6
-4.015544458158380e-02  -3.455127021581954e-02  6
-4.015544455669699e-02  -5.205127020572957e-02  6
-3.374999998020366e-02  -5.845671476687904e-02  6
-1.624999997306943e-02  -5.845671473990125e-02  6
-9.844555419080218e-03  -5.205127016377448e-02  6
-1.789140544754090e-02  -1.875276914401989e-02  0
3.376506174764963e-02  -1.903660107143084e-02  0
1.239422787368968e-03  3.699960699963392e-02  0
2.560415708389033e-02  7.831085549731756e-03  0
-3.377232739073443e-02  1.897672954637667e-02  0
-1.407633110006885e-03  -3.679006722436583e-02  0
-4.003087247218200e-02  -2.425161118667546e-02  0
4.447321219911886e-02  2.647512335986110e-02  0
3.876581093210821e-02  -6.330135593242402e-02  0
-3.390742753747399e-03  -2.640562682912331e-02  0
2.716897770043436e-03  -3.223229469323509e-02  0
2.338751477838378e-03  -2.268386060998590e-02  0
8.191550586714521e-03  -3.792127546798032e-02  0
2.461930076803203e-02  -1.125525934367642e-02  0
-3.097226142495785e-02  -1.788014700454628e-02  0
-4.323770548823485e-02  -1.525694286821011e-02  0
-2.413871380707663e-02  -1.286997838642863e-02  0
-1.534658344081623e-02  -9.537665042295997e-03  0
-1.701141089720044e-02  1.962333322077836e-02  0
-1.402093352491183e-03  5.030403880440997e-02  0
5.912391782662000e-03  4.545478592551896e-02  0
9.335462032840948e-03  3.133030281532977e-02  0
1.452804588895963e-02  3.984107239268155e-02  0
4.579826226570340e-02  -2.564973570509691e-02  0
3.647686402892975e-02  -2.762617958905713e-02  0
-4.386021164585871e-02  2.330856771714103e-02  0
3.011256498846584e-02  1.392118588154160e-02  0
1.948133620667789e-02  1.282330089866010e-02  0
1.545691570864263e-02  6.563040103627544e-03  0
9.482177391242394e-03  1.146510262425104e-02  0
7.523516095552576e-03  3.498782093801451e-03  0
5.568418559391166e-02  -2.350495614981441e-02  0
1.973940690912504e-02  4.893781802822905e-02  0
2.993334853746748e-02  4.374533879309581e-02  0
-7.286731387805754e-03  6.172360919166392e-02  0
5.677410879051047e-02  2.759676950012143e-02  0
-4.772526785459678e-02  -3.712759740282699e-02  0
-3.871551647588010e-02  1.063782253721708e-02  0
-4.682461033370081e-02  1.430128474762369e-02  0
1.889547438270760e-03  7.900035782786693e-03  0
-5.222434120086981e-02  -1.602422649323485e-02  0
-2.024478012247433e-02  -2.692978160088750e-03  0
-5.185168369794124e-02  3.614301730281553e-02  0
-7.540781693192170e-03  -6.337597665271082e-02  0
2.652393116801915e-02  -1.992948226489092e-02  0
-3.663337845160341e-03  2.796923073055821e-02  0
4.975530035652516e-02  -3.525710537719339e-02  0
-4.835942246969503e-02  -7.583063573346367e-03  0
1.578352131020161e-02  -1.379902120714424e-02  0
-1.373899996014637e-04  -8.589915495546203e-04  0
-2.774286210698596e-02  -5.896193212686224e-03  0
2.713548675050842e-02  -3.078501143134738e-02  0
-3.907981910532255e-03  6.176510333081683e-03  0
4.572955885982985e-02  3.493734209180475e-02  0
3.194266776432279e-02  -3.784965243613359e-02  0
2.890818218367629e-04  -5.413446021732759e-02  0
1.002479519965794e-03  -6.365515099243499e-02  0
8.570914291857646e-03  -5.860754309724358e-02  0
2.405468286718705e-02  1.963762104732274e-02  0
-2.495193574664191e-02  1.150745998249740e-02  0
2.319821632351816e-02  5.955466519609435e-02  0
1.427109240916991e-02  6.188665948574150e-02  0
-6.215527970906079e-02  -1.231692608395174e-02  0
-5.727226075370004e-02  1.435150856505888e-03  0
-6.414581689649390e-02  -2.354615693554694e-02  0
6.510966352158692e-02  -1.871024945495300e-02  0
7.030085409639704e-02  1.858600256458018e-02  0
4.418473476287747e-03  2.235424453747361e-02  0
-5.127729506095528e-03  1.460594999720470e-02  0
-5.080243447854139e-02  5.026598282452806e-02  0
-5.012165864005894e-02  -4.977099723932278e-02  0
3.863200044936112e-02  5.399019854275211e-02  0
-7.031419074115716e-02  2.045628360467848e-02  0
-1.973648232536767e-02  -6.880987584366310e-02  0
-1.959572807202489e-02  6.837659730462924e-02  0
4.452025638323896e-03  -8.034492722515838e-03  0
-2.979719576170191e-03  -1.052517143886381e-02  0
3.499331391796132e-02  3.156189478373517e-02  0
1.812864484715183e-02  -2.387448883948634e-02  0
5.343588916229051e-02  4.047995167873927e-02  0
7.653770195665793e-02  7.000485225632304e-03  0
7.591130403947791e-02  -7.694681245745007e-03  0
6.109512321889606e-02  -3.250639096908519e-02  0
5.250423619466751e-02  -4.647641319263979e-02  0
2.072445504992400e-02  -3.928387169043121e-02  0
-6.051216264036504e-02  4.444211714810393e-02  0
-5.907080465053334e-02  -4.134977254173141e-02  0
-1.061678818705918e-02  -7.381177888939613e-02  0
-9.884114458385575e-03  7.276920641316882e-02  0
-1.003741235167026e-02  -1.864622003631123e-02  0
1.660441878574617e-02  -6.621965452141991e-02  0
-4.346669431295095e-02  6.058105507544400e-02  0
-4.337459276562840e-02  -6.049053465208763e-02  0
2.933881095326724e-02  -4.513331828998726e-02  0
-4.584929096443612e-02  5.393169383741570e-03  0
-3.253965913256818e-02  -6.714923677428911e-02  0
-3.252398247609180e-02  6.707456917046722e-02  0
-1.517711122152913e-02  1.243869352668621e-02  0
2.285009614103200e-02  7.296361788176578e-02  0
2.151409174805491e-02  -8.096788478820558e-04  0
-1.007915151472817e-02  2.250943419681992e-02  0
-7.810464911111222e-03  -4.378378877068740e-03  0
1.233995227843400e-02  -5.008510826495926e-03  0
-5.294633785882991e-02  2.567457570252051e-02  0
-7.423762062180728e-02  -8.989501970066007e-03  0
8.502368817015448e-03  7.417612693601613e-02  0
1.396701505076757e-02  -3.300113131260332e-02  0
3.998830089998190e-02  -4.755852470716234e-02  0
-3.174661221845747e-02  3.326854360956177e-03  0
7.637074456123244e-03  -1.584481169371024e-02  0
-7.251588654810701e-02  4.680149796799006e-03  0
1.268442552981961e-02  1.802185797754839e-02  0
1.725971334279450e-02  2.548274736488523e-02  0
2.450976281500936e-02  3.358395502852068e-02  0
3.612476841080662e-02  1.995722311718974e-02  0
-1.326277395124420e-02  3.296723128729023e-03  0
-5.652541480100710e-02  1.572443586711353e-02  0
5.399519766686611e-02  5.464740599336934e-02  0
1.274871049282191e-03  -4.422533027410821e-02  0
3.781367298688730e-02  6.967193062984704e-02  0
6.699568643550477e-02  2.918644929619069e-02  0
3.009272319478427e-03  1.343947574581314e-02  0
-3.573373702049340e-02  -1.040515751622309e-02  0
-4.083377808207837e-02  -2.347984733438696e-03  0
1.709431816235934e-03  5.946047286505236e-02  0
2.419780337932074e-02  -5.552347155491302e-02  0
-7.576021812745973e-02  -2.061744305827750e-02  0
3.923759410180429e-02  -3.698041347184099e-02  0
7.657887690084975e-02  2.700874414529517e-02  0
7.134715312170468e-02  -2.773970792502114e-02  0
4.420902809190360e-03  -7.552492030773880e-02  0
-6.054220594071580e-02  2.987450941100828e-02  0
-2.745898653819348e-02  -7.466034309091960e-02  0
-2.736971134203044e-02  7.446375231977849e-02  0
2.456329127677460e-02  -7.258542953832724e-02  0
-2.237408961069821e-02  3.753905991189476e-03  0
1.330560350183397e-02  -4.794637740344238e-02  0
-1.762686594296012e-03  2.052804178193072e-02  0
-1.007230296422049e-02  -2.431157931589835e-02  0
-5.329641769301619e-02  -5.837638406078623e-02  0
-5.355689602984283e-02  5.875045543293336e-02  0
3.923597625011245e-02  3.869767579342542e-02  0
1.059281587017385e-02  5.455332445374149e-02  0
6.716341336523513e-02  4.024154691330011e-02  0
-6.926222128136357e-02  3.507063776775632e-02  0
-5.293028124634817e-02  -2.734230899572990e-02  0
-7.067654781590808e-02  -3.259531013124879e-02  0
-4.167069920864794e-03  -1.872440920602818e-02  0
5.337640597473181e-02  -5.914364130673865e-02  0
1.463061307722305e-03  -1.767087332467427e-02  0
4.373124557864881e-02  4.440741849380848e-02  0
7.684043861629106e-02  -1.794297633229364e-02  0
8.053745155375144e-03  -2.505335109889928e-02  0
-4.186701282061857e-02  -6.881247628066160e-02  0
-4.189259428952915e-02  6.882708042027014e-02  0
2.996483026139077e-02  2.507257779307643e-02  0
-2.424962613761222e-02  1.999149312378299e-02  0
-9.620555332519794e-03  -1.318045641532966e-02  0
6.478654759517632e-02  -4.314727691761907e-02  0
7.853627329299512e-02  1.418037276616943e-02  0
-2.225209345027463e-02  9.749279120569095e-02  0
-4.338837402673880e-02  9.009688673484795e-02  0
-6.234898033951506e-02  7.818314812425353e-02  0
-7.818314837320725e-02  6.234898002733696e-02  0
-9.009688685362613e-02  4.338837378009341e-02  0
-9.749279123494115e-02  2.225209332212112e-02  0
-9.749279120569095e-02  -2.225209345027463e-02  0
-9.009688673484795e-02  -4.338837402673880e-02  0
-7.818314812425353e-02  -6.234898033951506e-02  0
-6.234898002733696e-02  -7.818314837320725e-02  0
-4.338837378009341e-02  -9.009688685362613e-02  0
-2.225209332212112e-02  -9.749279123494115e-02  0
2.225209345027463e-02  -9.749279120569095e-02  0
4.338837402673880e-02  -9.009688673484795e-02  0
6.234898033951506e-02  -7.818314812425353e-02  0
7.818314837320725e-02  -6.234898002733696e-02  0
9.009688685362613e-02  -4.338837378009341e-02  0
9.749279123494115e-02  -2.225209332212112e-02  0
9.749279120569095e-02  2.225209345027463e-02  0
9.009688673484795e-02  4.338837402673880e-02  0
7.818314812425353e-02  6.234898033951506e-02  0
6.234898002733696e-02  7.818314837320725e-02  0
4.338837378009341e-02  9.009688685362613e-02  0
2.225209332212112e-02  9.749279123494115e-02  0
-3.565141404988478e+00  1.561990503562972e+01  0
-2.679864118969816e+00  1.174125183033540e+01  0
-1.794586832953520e+00  7.862598625051429e+00  0
-9.093095469396489e-01  3.983945419778095e+00  0
-6.951511734729993e+00  1.443496280430140e+01  0
-5.225348662029256e+00  1.085054826263287e+01  0
-3.499185589333127e+00  7.266133720973913e+00  0
-1.773022516641727e+00  3.681719179324775e+00  0
-9.989304233915163e+00  1.252619125999353e+01  0
-7.508812400119498e+00  9.415752894979125e+00  0
-5.028320566330461e+00  6.305314529973023e+00  0
-2.547828732548217e+00  3.194876164975444e+00  0
-1.252619129813123e+01  9.989304186092001e+00  0
-9.415752923648611e+00  7.508812364169096e+00  0
-6.305314549174303e+00  5.028320542252816e+00  0
-3.194876174708516e+00  2.547828720343331e+00  0
-1.443496282290022e+01  6.951511696109136e+00  0
-1.085054827661428e+01  5.225348632996552e+00  0
-7.266133730337912e+00  3.499185569888582e+00  0
-3.681719184071361e+00  1.773022506785340e+00  0
-1.561990504035478e+01  3.565141384286609e+00  0
-1.174125183388718e+01  2.679864103408443e+00  0
-7.862598627429932e+00  1.794586822532641e+00  0
-3.983945420983309e+00  9.093095416592643e-01  0
-1.561990503562972e+01  -3.565141404988478e+00  0
-1.174125183033540e+01  -2.679864118969816e+00  0
-7.862598625051429e+00  -1.794586832953520e+00  0
-3.983945419778095e+00  -9.093095469396489e-01  0
-1.443496280430140e+01  -6.951511734729993e+00  0
-1.085054826263287e+01  -5.225348662029256e+00  0
-7.266133720973913e+00  -3.499185589333127e+00  0
-3.681719179324775e+00  -1.773022516641727e+00  0
-1.252619125999353e+01  -9.989304233915163e+00  0
-9.415752894979125e+00  -7.508812400119498e+00  0
-6.305314529973023e+00  -5.028320566330461e+00  0
-3.194876164975444e+00  -2.547828732548217e+00  0
-9.989304186092001e+00  -1.252619129813123e+01  0
-7.508812364169096e+00  -9.415752923648611e+00  0
-5.028320542252816e+00  -6.305314549174303e+00  0
-2.547828720343331e+00  -3.194876174708516e+00  0
-6.951511696109136e+00  -1.443496282290022e+01  0
-5.225348632996552e+00  -1.085054827661428e+01  0
-3.499185569888582e+00  -7.266133730337912e+00  0
-1.773022506785340e+00  -3.681719184071361e+00  0
-3.565141384286609e+00  -1.561990504035478e+01  0
-2.679864103408443e+00  -1.174125183388718e+01  0
-1.794586822532641e+00  -7.862598627429932e+00  0
-9.093095416592643e-01  -3.983945420983309e+00  0
3.565141404988478e+00  -1.561990503562972e+01  0
2.679864118969816e+00  -1.174125183033540e+01  0
1.794586832953520e+00  -7.862598625051429e+00  0
9.093095469396489e-01  -3.983945419778095e+00  0
6.951511734729993e+00  -1.443496280430140e+01  0
5.225348662029256e+00  -1.085054826263287e+01  0
3.499185589333127e+00  -7.266133720973913e+00  0
1.773022516641727e+00  -3.681719179324775e+00  0
9.989304233915163e+00  -1.252619125999353e+01  0
7.508812400119498e+00  -9.415752894979125e+00  0
5.028320566330461e+00  -6.305314529973023e+00  0
2.547828732548217e+00  -3.194876164975444e+00  0
1.252619129813123e+01  -9.989304186092001e+00  0
9.415752923648611e+00  -7.508812364169096e+00  0
6.305314549174303e+00  -5.028320542252816e+00  0
3.194876174708516e+00  -2.547828720343331e+00  0
1.443496282290022e+01  -6.951511696109136e+00  0
1.085054827661428e+01  -5.225348632996552e+00  0
7.266133730337912e+00  -3.499185569888582e+00  0
3.681719184071361e+00  -1.773022506785340e+00  0
1.561990504035478e+01  -3.565141384286609e+00  0
1.174125183388718e+01  -2.679864103408443e+00  0
7.862598627429932e+00  -1.794586822532641e+00  0
3.983945420983309e+00  -9.093095416592643e-01  0
1.561990503562972e+01  3.565141404988478e+00  0
1.174125183033540e+01  2.679864118969816e+00  0
7.862598625051429e+00  1.794586832953520e+00  0
3.983945419778095e+00  9.093095469396489e-01  0
1.443496280430140e+01  6.951511734729993e+00  0
1.085054826263287e+01  5.225348662029256e+00  0
7.266133720973913e+00  3.499185589333127e+00  0
3.681719179324775e+00  1.773022516641727e+00  0
1.252619125999353e+01  9.989304233915163e+00  0
9.415752894979125e+00  7.508812400119498e+00  0
6.305314529973023e+00  5.028320566330461e+00  0
3.194876164975444e+00  2.547828732548217e+00  0
9.989304186092001e+00  1.252619129813123e+01  0
7.508812364169096e+00  9.415752923648611e+00  0
5.028320542252816e+00  6.305314549174303e+00  0
2.547828720343331e+00  3.194876174708516e+00  0
6.951511696109136e+00  1.443496282290022e+01  0
5.225348632996552e+00  1.085054827661428e+01  0
3.499185569888582e+00  7.266133730337912e+00  0
1.773022506785340e+00  3.681719184071361e+00  0
3.565141384286609e+00  1.561990504035478e+01  0
2.679864103408443e+00  1.174125183388718e+01  0
1.794586822532641e+00  7.862598627429932e+00  0
9.093095416592643e-01  3.983945420983309e+00  0
4.017709924356738e-02  7.608430967086594e-04  0
5.846992321223467e-02  -3.426491929973534e-03  0
5.384259045151617e-02  9.257376455185304e-03  0
4.843970026158630e-02  -9.196343260002222e-03  0
4.857945332931972e-02  1.170260228735979e-02  0
4.820393300430507e-02  5.397632001447356e-03  0
5.249466025309101e-02  2.044749541175656e-03  0
5.717561624711152e-02  4.242191909792110e-03  0
4.602076440174441e-02  -4.026899911923546e-04  0
4.217641208520546e-02  -4.878967062881794e-03  0
5.118952080209586e-02  -2.365620144971183e-03  0
5.530402842909758e-02  -9.388714315134650e-03  0
4.144360636767584e-02  6.550716398669780e-03  0
-3.482290075677011e-02  4.406211328340986e-02  0
-1.653007678649300e-02  3.987477826000147e-02  0
-2.115740954949596e-02  5.255864664530274e-02  0
-2.656029973724513e-02  3.410492692869361e-02  0
-2.642054667246319e-02  5.500387247619398e-02  0
-2.679606699600724e-02  4.869890218977108e-02  0
-2.250533974629143e-02  4.534601973062884e-02  0
-1.782438375279160e-02  4.754346209933050e-02  0
-2.897923559778020e-02  4.289858019617000e-02  0
-3.282358791448041e-02  3.842230312542432e-02  0
-2.381047919699967e-02  4.093565004396419e-02  0
-1.969597156931154e-02  3.391255587479244e-02  0
-3.355639363402161e-02  4.985198658510804e-02  0
-1.902042812483413e-02  -5.053666542449334e-02  0
-3.280696668177591e-02  -3.755461863611428e-02  0
-2.886020999692181e-02  -5.122370930507936e-02  0
-1.723984323550642e-02  -3.728402904776627e-02  0
-2.937843274846889e-02  -3.250930503038033e-02  0
-2.497739817042018e-02  -3.821710060154049e-02  0
-2.178244184887532e-02  -4.302215513386899e-02  0
-1.665363678237073e-02  -4.329122358419905e-02  0
-2.785582094680997e-02  -4.340626558379553e-02  0
-3.397859456276947e-02  -4.474607348670772e-02  0
-2.459530692149645e-02  -4.643108666166056e-02  0
-2.449433185299756e-02  -5.427636110343494e-02  0
-2.064451355090558e-02  -3.252971947592958e-02  0
Edges
120
3  25  2
25  26  2
26  27  2
27  28  2
28  29  2
29  30  2
4  30  2
4  31  2
31  32  2
32  33  2
33  34  2
34  35  2
35  36  2
1  36  2
1  37  2
37  38  2
38  39  2
39  40  2
40  41  2
41  42  2
2  42  2
2  43  2
43  44  2
44  45  2
45  46  2
46  47  2
47  48  2
3  48  2
6  49  3
49  50  3
50  51  3
51  52  3
52  53  3
53  54  3
7  54  3
7  55  3
55  56  3
56  57  3
57  58  3
58  59  3
59  60  3
8  60  3
8  61  3
61  62  3
62  63  3
63  64  3
64  65  3
65  66  3
5  66  3
5  67  3
67  68  3
68  69  3
69  70  3
70  71  3
71  72  3
6  72  3
9  89  1
89  90  1
90  91  1
91  92  1
92  93  1
93  94  1
10  94  1
10  95  1
95  96  1
96  97  1
97  98  1
98  99  1
99  100  1
11  100  1
11  101  1
101  102  1
102  103  1
103  104  1
104  105  1
105  106  1
12  106  1
12  107  1
107  108  1
108  109  1
109  110  1
110  111  1
111  112  1
9  112  1
13  117  4
117  118  4
14  118  4
14  119  4
119  120  4
15  120  4
15  121  4
121  122  4
16  122  4
16  123  4
123  124  4
13  124  4
17  125  5
125  126  5
18  126  5
18  127  5
127  128  5
19  128  5
19  129  5
129  130  5
20  130  5
20  131  5
131  132  5
17  132  5
21  133  6
133  134  6
22  134  6
22  135  6
135  136  6
23  136  6
23  137  6
137  138  6
24  138  6
24  139  6
139  140  6
21  140  6
Triangles
74
227  177  286  1
192  185  219  1
217  288  290  1
157  141  158  1
11  245  251  1
169  170  171  1
122  121  142  1
22  134  141  1
15  144  240  1
131  159  241  1
145  200  297  1
208  186  278  1
153  259  277  1
12  107  271  1
205  267  287  1
200  249  276  1
178  179  235  1
125  17  160  1
109  110  289  1
181  156  188  1
92  93  260  1
136  135  147  1
91  92  258  1
96  97  295  1
104  105  294  1
97  98  281  1
103  104  280  1
95  96  274  1
105  106  273  1
196  197  198  1
129  19  183  1
23  136  177  1
140  139  184  1
126  125  175  1
89  90  269  1
137  23  211  1
19  128  210  1
110  111  299  1
90  91  284  1
247  219  293  1
139  24  214  1
18  126  215  1
118  117  207  1
138  137  233  1
128  127  232  1
127  18  237  1
24  138  236  1
124  123  206  1
117  13  221  1
13  124  222  1
244  183  272  1
261  207  269  1
182  256  276  1
206  270  292  1
218  254  296  1
213  272  285  1
122  16  424  4
124  13  422  4
14  119  425  4
119  120  433  4
429  421  430  4
423  425  426  4
130  20  437  5
132  17  435  5
18  127  438  5
127  128  446  5
442  434  443  5
436  438  439  5
139  140  447  6
23  137  456  6
22  135  451  6
134  22  459  6
451  448  452  6
452  450  459  6
Quadrilaterals
407
240  154  121  15  1
119  255  167  120  1
131  241  186  132  1
154  240  243  189  1
223  270  206  172  1
178  249  200  145  1
155  22  141  157  1
243  216  250  189  1
237  295  232  127  1
233  294  236  138  1
284  91  258  220  1
294  105  273  236  1
205  287  227  286  1
142  165  164  122  1
274  96  295  237  1
140  196  259  21  1
217  298  230  288  1
206  292  222  124  1
226  285  272  183  1
185  192  165  142  1
218  282  174  254  1
242  256  182  158  1
249  178  235  264  1
221  300  207  117  1
299  111  270  223  1
118  207  261  176  1
269  90  284  261  1
232  281  210  128  1
280  104  294  233  1
162  143  186  208  1
129  183  244  166  1
211  280  233  137  1
257  204  235  179  1
250  293  219  189  1
295  97  281  232  1
160  265  175  125  1
258  92  260  212  1
101  267  245  11  1
199  296  254  253  1
234  225  277  266  1
215  274  237  18  1
276  256  238  200  1
166  179  178  145  1
236  273  214  24  1
286  177  136  147  1
190  242  217  216  1
151  293  152  150  1
238  209  241  159  1
143  161  160  17  1
155  263  156  147  1
253  254  163  162  1
159  297  200  238  1
208  252  253  162  1
194  282  218  148  1
260  239  201  212  1
173  283  161  163  1
273  106  228  214  1
252  208  262  170  1
153  277  225  247  1
201  173  174  212  1
184  197  196  140  1
191  182  276  249  1
170  262  180  171  1
109  289  149  108  1
195  268  165  192  1
142  121  154  185  1
107  275  231  271  1
141  134  279  230  1
193  256  242  190  1
168  252  170  169  1
199  253  252  168  1
187  223  172  164  1
228  271  197  184  1
261  284  220  176  1
243  240  169  171  1
169  240  144  168  1
210  226  183  19  1
289  110  299  224  1
21  259  146  133  1
224  299  223  187  1
180  262  209  193  1
148  255  119  14  1
145  297  20  130  1
120  167  144  15  1
20  297  159  131  1
229  95  274  215  1
248  224  187  268  1
257  213  251  204  1
250  290  152  293  1
146  259  153  151  1
288  230  279  150  1
194  220  291  282  1
267  101  102  287  1
203  181  188  204  1
197  271  231  198  1
196  198  277  259  1
132  186  143  17  1
239  260  93  94  1
182  191  157  158  1
202  283  173  201  1
238  256  193  209  1
181  286  147  156  1
180  193  190  171  1
266  231  275  149  1
112  292  270  111  1
12  271  228  106  1
203  245  267  205  1
167  255  296  199  1
216  243  171  190  1
185  154  189  219  1
167  199  168  144  1
194  148  176  220  1
175  229  215  126  1
150  133  146  151  1
230  298  158  141  1
229  246  10  95  1
205  286  181  203  1
225  234  195  192  1
245  203  204  251  1
247  225  192  219  1
133  150  279  134  1
213  285  99  100  1
156  263  264  188  1
162  163  161  143  1
251  213  100  11  1
234  266  149  248  1
227  103  280  211  1
248  268  195  234  1
229  175  265  246  1
94  10  246  239  1
272  213  257  244  1
247  293  151  153  1
289  224  248  149  1
188  264  235  204  1
214  228  184  139  1
218  296  255  148  1
300  89  269  207  1
202  201  239  246  1
265  283  202  246  1
281  98  226  210  1
177  227  211  23  1
264  263  191  249  1
152  290  288  150  1
179  166  244  257  1
135  22  155  147  1
292  112  9  222  1
268  187  164  165  1
278  209  262  208  1
157  191  263  155  1
174  173  163  254  1
221  13  222  9  1
278  186  241  209  1
283  265  160  161  1
290  250  216  217  1
282  291  212  174  1
287  102  103  227  1
16  122  164  172  1
198  231  266  277  1
176  148  14  118  1
166  145  130  129  1
123  16  172  206  1
98  99  285  226  1
9  89  300  221  1
275  107  108  149  1
291  220  258  212  1
298  217  242  158  1
2  43  301  113  2
113  301  95  10  2
43  44  302  301  2
301  302  96  95  2
44  45  303  302  2
302  303  97  96  2
45  46  304  303  2
303  304  98  97  2
46  47  305  304  2
304  305  99  98  2
47  48  306  305  2
305  306  100  99  2
48  3  116  306  2
306  116  11  100  2
3  25  307  116  2
116  307  101  11  2
25  26  308  307  2
307  308  102  101  2
26  27  309  308  2
308  309  103  102  2
27  28  310  309  2
309  310  104  103  2
28  29  311  310  2
310  311  105  104  2
29  30  312  311  2
311  312  106  105  2
30  4  115  312  2
312  115  12  106  2
4  31  313  115  2
115  313  107  12  2
31  32  314  313  2
313  314  108  107  2
32  33  315  314  2
314  315  109  108  2
33  34  316  315  2
315  316  110  109  2
34  35  317  316  2
316  317  111  110  2
35  36  318  317  2
317  318  112  111  2
36  1  114  318  2
318  114  9  112  2
1  37  319  114  2
114  319  89  9  2
37  38  320  319  2
319  320  90  89  2
38  39  321  320  2
320  321  91  90  2
39  40  322  321  2
321  322  92  91  2
40  41  323  322  2
322  323  93  92  2
41  42  324  323  2
323  324  94  93  2
42  2  113  324  2
324  113  10  94  2
6  49  325  76  3
76  325  326  75  3
75  326  327  74  3
74  327  328  73  3
73  328  43  2  3
49  50  329  325  3
325  329  330  326  3
326  330  331  327  3
327  331  332  328  3
328  332  44  43  3
50  51  333  329  3
329  333  334  330  3
330  334  335  331  3
331  335  336  332  3
332  336  45  44  3
51  52  337  333  3
333  337  338  334  3
334  338  339  335  3
335  339  340  336  3
336  340  46  45  3
52  53  341  337  3
337  341  342  338  3
338  342  343  339  3
339  343  344  340  3
340  344  47  46  3
53  54  345  341  3
341  345  346  342  3
342  346  347  343  3
343  347  348  344  3
344  348  48  47  3
54  7  88  345  3
345  88  87  346  3
346  87  86  347  3
347  86  85  348  3
348  85  3  48  3
7  55  349  88  3
88  349  350  87  3
87  350  351  86  3
86  351  352  85  3
85  352  25  3  3
55  56  353  349  3
349  353  354  350  3
350  354  355  351  3
351  355  356  352  3
352  356  26  25  3
56  57  357  353  3
353  357  358  354  3
354  358  359  355  3
355  359  360  356  3
356  360  27  26  3
57  58  361  357  3
357  361  362  358  3
358  362  363  359  3
359  363  364  360  3
360  364  28  27  3
58  59  365  361  3
361  365  366  362  3
362  366  367  363  3
363  367  368  364  3
364  368  29  28  3
59  60  369  365  3
365  369  370  366  3
366  370  371  367  3
367  371  372  368  3
368  372  30  29  3
60  8  84  369  3
369  84  83  370  3
370  83  82  371  3
371  82  81  372  3
372  81  4  30  3
8  61  373  84  3
84  373  374  83  3
83  374  375  82  3
82  375  376  81  3
81  376  31  4  3
61  62  377  373  3
373  377  378  374  3
374  378  379  375  3
375  379  380  376  3
376  380  32  31  3
62  63  381  377  3
377  381  382  378  3
378  382  383  379  3
379  383  384  380  3
380  384  33  32  3
63  64  385  381  3
381  385  386  382  3
382  386  387  383  3
383  387  388  384  3
384  388  34  33  3
64  65  389  385  3
385  389  390  386  3
386  390  391  387  3
387  391  392  388  3
388  392  35  34  3
65  66  393  389  3
389  393  394  390  3
390  394  395  391  3
391  395  396  392  3
392  396  36  35  3
66  5  80  393  3
393  80  79  394  3
394  79  78  395  3
395  78  77  396  3
396  77  1  36  3
5  67  397  80  3
80  397  398  79  3
79  398  399  78  3
78  399  400  77  3
77  400  37  1  3
67  68  401  397  3
397  401  402  398  3
398  402  403  399  3
399  403  404  400  3
400  404  38  37  3
68  69  405  401  3
401  405  406  402  3
402  406  407  403  3
403  407  408  404  3
404  408  39  38  3
69  70  409  405  3
405  409  410  406  3
406  410  411  407  3
407  411  412  408  3
408  412  40  39  3
70  71  413  409  3
409  413  414  410  3
410  414  415  411  3
411  415  416  412  3
412  416  41  40  3
71  72  417  413  3
413  417  418  414  3
414  418  419  415  3
415  419  420  416  3
416  420  42  41  3
72  6  76  417  3
417  76  75  418  3
418  75  74  419  3
419  74  73  420  3
420  73  2  42  3
15  121  430  421  4
424  431  429  430  4
423  426  427  428  4
13  117  428  422  4
425  119  433  426  4
118  423  428  117  4
122  424  430  121  4
432  123  124  422  4
426  433  421  429  4
14  425  423  118  4
421  433  120  15  4
429  431  427  426  4
432  424  16  123  4
427  431  422  428  4
431  424  432  422  4
19  129  443  434  5
437  444  442  443  5
436  439  440  441  5
17  125  441  435  5
438  127  446  439  5
126  436  441  125  5
443  129  130  437  5
445  131  132  435  5
439  446  434  442  5
18  438  436  126  5
434  446  128  19  5
442  444  440  439  5
445  437  20  131  5
440  444  435  441  5
444  437  445  435  5
136  23  456  448  6
140  21  454  447  6
450  452  453  454  6
453  457  447  454  6
459  22  451  452  6
133  450  454  21  6
455  452  448  456  6
138  24  458  449  6
449  457  455  456  6
134  459  450  133  6
448  451  135  136  6
455  457  453  452  6
449  456  137  138  6
139  447  458  24  6
458  447  457  449  6
End
