MeshVersionFormatted 1
Dimension 
2
Vertices
300
0.000000000000000e+00  0.000000000000000e+00  6
4.600000000000000e-02  -7.967433714816835e-02  5
9.200000000000000e-02  0.000000000000000e+00  3
4.600000000000000e-02  7.967433714816835e-02  6
5.400000000000000e-02  -9.353074360871937e-02  5
1.080000000000000e-01  0.000000000000000e+00  2
5.400000000000000e-02  9.353074360871937e-02  6
1.000000000000000e+01  -1.732050807568877e+01  5
2.000000000000000e+01  0.000000000000000e+00  1
1.000000000000000e+01  1.732050807568877e+01  6
8.750000000000001e-03  -1.515544456622768e-02  5
8.750000000000001e-03  1.515544456622768e-02  6
5.493859043664144e-02  -7.379533373347510e-02  3
6.313423068388579e-02  -6.691837502475603e-02  3
7.047608876689418e-02  -5.913646009122335e-02  3
7.686487864992207e-02  -5.055482598261768e-02  3
8.221420290970349e-02  -4.128952457854293e-02  3
8.645172111227400e-02  -3.146585318604275e-02  3
8.952012809333107e-02  -2.121666010835823e-02  3
9.137792891225431e-02  -1.068054809955925e-02  3
9.137792891226196e-02  1.068054809949382e-02  3
8.952012809335702e-02  2.121666010824866e-02  3
8.645172111233208e-02  3.146585318588320e-02  3
8.221420290980661e-02  4.128952457833763e-02  3
7.686487865005757e-02  5.055482598241164e-02  3
7.047608876701282e-02  5.913646009108195e-02  3
6.313423068397732e-02  6.691837502466970e-02  3
5.493859043668256e-02  7.379533373344450e-02  3
6.449312790387794e-02  -8.662930481756180e-02  2
7.411409688978191e-02  -7.855635328992822e-02  2
8.273279985680324e-02  -6.942106184620155e-02  2
9.023268363252318e-02  -5.934696963175946e-02  2
9.651232515485564e-02  -4.847031146179501e-02  2
1.014868030448373e-01  -3.693817547928418e-02  2
1.050888460226022e-01  -2.490651404026264e-02  2
1.072697426361247e-01  -1.253803472556914e-02  2
1.072697426361338e-01  1.253803472549134e-02  2
1.050888460226371e-01  2.490651404011567e-02  2
1.014868030449135e-01  3.693817547907510e-02  2
9.651232515498961e-02  4.847031146152826e-02  2
9.023268363266919e-02  5.934696963153750e-02  2
8.273279985691277e-02  6.942106184607098e-02  2
7.411409688988402e-02  7.855635328983190e-02  2
6.449312790392941e-02  8.662930481752350e-02  2
1.194317183405218e+01  -1.604246385510351e+01  1
1.372483275736542e+01  -1.454747283146971e+01  1
1.532088886236626e+01  -1.285575219374664e+01  1
1.670975622824330e+01  -1.099017956143958e+01  1
1.787265280645574e+01  -8.975983604034148e+00  1
1.879385241571224e+01  -6.840402866529649e+00  1
1.946089741159391e+01  -4.612317414859626e+00  1
1.986476715483822e+01  -2.321858282510112e+00  1
1.986476715483941e+01  2.321858282499877e+00  1
1.946089741159881e+01  4.612317414838971e+00  1
1.879385241572347e+01  6.840402866498801e+00  1
1.787265280647810e+01  8.975983603989619e+00  1
1.670975622827085e+01  1.099017956139770e+01  1
1.532088886239166e+01  1.285575219371637e+01  1
1.372483275738445e+01  1.454747283145175e+01  1
1.194317183405952e+01  1.604246385509805e+01  1
1.200922866269607e-02  -1.272903872753475e-02  4
1.462103669971670e-02  -9.616407116253849e-03  4
1.644462086374471e-02  -5.985352508223086e-03  4
1.738167126047951e-02  -2.031625997229971e-03  4
1.738167126048841e-02  2.031625997153860e-03  4
1.644462086376255e-02  5.985352508174053e-03  4
1.462103669973113e-02  9.616407116231900e-03  4
1.200922866270356e-02  1.272903872752767e-02  4
1.806249999997801e-02  -3.128516771167475e-02  5
2.737499999994901e-02  -4.741489085710970e-02  5
3.668749999997366e-02  -6.354461400263757e-02  5
1.806249999997801e-02  3.128516771167475e-02  6
2.737499999994901e-02  4.741489085710970e-02  6
3.668749999997366e-02  6.354461400263757e-02  6
4.999999999998706e-02  -8.660254037842145e-02  5
9.999999999998102e-02  0.000000000000000e+00  0
4.999999999998706e-02  8.660254037842145e-02  6
6.309980427698067e-02  -1.092920669553824e-01  5
9.039902310001184e-02  -1.565757009638131e-01  5
1.722966147447317e-01  -2.984264907099963e-01  5
4.179893572666847e-01  -7.239788038089572e-01  5
1.155067390359791e+00  -2.000635406269151e+00  5
3.366300906213768e+00  -5.830604203127399e+00  5
1.261996085539616e-01  0.000000000000000e+00  0
1.807980462000250e-01  0.000000000000000e+00  0
3.445932294894695e-01  0.000000000000000e+00  0
8.359787145332679e-01  0.000000000000000e+00  0
2.310134780719295e+00  0.000000000000000e+00  0
6.732601812426335e+00  0.000000000000000e+00  0
6.309980427698067e-02  1.092920669553824e-01  6
9.039902310001184e-02  1.565757009638131e-01  6
1.722966147447317e-01  2.984264907099963e-01  6
4.179893572666847e-01  7.239788038089572e-01  6
1.155067390359791e+00  2.000635406269151e+00  6
3.366300906213768e+00  5.830604203127399e+00  6
5.342628994537051e-02  6.349268493717475e-04  0
3.678362853353834e-02  -9.488164994265450e-03  0
3.681674420236255e-02  1.348851162473495e-02  0
5.711999232886340e-02  -2.752102962257649e-02  0
5.644140430503754e-02  2.889039268093944e-02  0
7.181952956654694e-02  -1.168648138478044e-02  0
7.243872280849489e-02  5.872589510802111e-03  0
2.580367654022509e-02  -1.335719553799817e-02  0
3.793150667589393e-02  -2.787618472210322e-02  0
2.818222617977317e-02  5.476481235132652e-04  0
5.040116060047933e-02  -1.437240743197526e-02  0
2.692739493953354e-02  1.456605523346500e-02  0
5.991980540389746e-02  4.621062000867882e-02  0
6.007806675332066e-02  -4.545739004430229e-02  0
7.077904644687580e-02  -2.959837626344660e-02  0
6.061746939966052e-02  1.076335154502248e-02  0
4.318812362136291e-02  2.998673291283182e-02  0
7.330296758523092e-02  2.036615655247011e-02  0
6.709236600749455e-02  -3.060946158692208e-03  0
2.717175955141235e-02  6.425845803080389e-03  0
1.893480019360609e-02  1.654088989020332e-02  0
8.092524047598132e-02  -5.073274270902558e-03  0
4.163019629348913e-02  4.118001321675958e-03  0
2.446000709075011e-02  -6.192823174882713e-03  0
1.844233163219302e-02  -1.661498880315175e-02  0
4.168781950854033e-02  -3.764422251109249e-02  0
4.752451205541099e-02  1.049322361585149e-02  0
7.301518454325824e-02  3.548214301232009e-02  0
6.149887460752727e-02  -1.788686963376957e-02  0
5.096917294758587e-02  -5.498695863992880e-02  0
2.245398847143854e-02  -1.505572119477215e-03  0
1.919598459432097e-02  -1.056259302999941e-02  0
5.715386184262933e-02  -1.198847050074368e-02  0
3.037647241107934e-02  2.601244864619363e-02  0
4.782133634820379e-02  5.365422639712077e-02  0
7.070999945420803e-02  -3.861498670201286e-02  0
4.548886926707808e-02  -4.460509093920902e-03  0
7.759300447578663e-02  -2.333606353155886e-02  0
4.875036296932063e-02  2.204931897682117e-02  0
1.949712182092068e-02  9.465446737183426e-03  0
8.078441548890369e-02  1.296093613038636e-02  0
4.215991913690827e-02  -1.863931574795085e-02  0
4.759934823901795e-02  -2.590167295963875e-02  0
6.337842124867640e-02  2.649715942981718e-03  0
4.195914991873960e-02  4.411812148704408e-02  0
3.437103704646415e-02  4.980684947935176e-03  0
2.954258346045736e-02  -2.252667137363003e-02  0
4.993498706016104e-02  3.689256770634591e-02  0
6.712115034339253e-02  1.459561372569862e-02  0
8.251223894357734e-02  2.224971005319425e-03  0
7.008272438400746e-02  4.547177277303669e-02  0
6.199251727915283e-02  -3.685846458355156e-02  0
6.091175631827678e-02  -5.517261428850190e-02  0
4.241335960075725e-02  -4.882105828283578e-02  0
3.811043443123752e-02  -2.200172914289146e-03  0
6.963109423663864e-02  -1.934065818437010e-02  0
7.968970368545163e-02  -1.326440816538783e-02  0
6.098587977823074e-02  5.655135041318225e-02  0
3.451377621115047e-02  -1.565929101303322e-02  0
3.055716788137605e-02  -5.638201462586818e-03  0
7.286917858899498e-02  -3.721010820392039e-03  0
7.911378313249551e-02  -3.103455812787691e-02  0
7.930120209693975e-02  2.649175595036727e-02  0
6.833163870013130e-02  -4.706209665071836e-02  0
4.888958173290471e-02  -6.414114219861237e-02  0
4.723727894376845e-02  6.763538932663710e-02  0
6.339272688652968e-02  3.435017354463436e-02  0
3.224744068285887e-02  -3.598346003851368e-02  0
2.177286405066327e-02  4.333186086742421e-03  0
6.377361088438428e-02  -8.743677884432031e-03  0
2.025143803738017e-02  -6.600936572844616e-03  0
6.412983249907853e-02  -2.720773985104474e-02  0
5.611240938793605e-02  1.628632486416325e-02  0
5.238774570872379e-02  -4.533410017627864e-02  0
5.570553887269943e-02  5.931126260520908e-03  0
6.184086432789330e-02  2.164044059396610e-02  0
3.563547113806351e-02  3.500491310631723e-02  0
4.757001626133479e-02  1.784477735772461e-03  0
5.886443041011683e-02  -2.996026391564174e-03  0
6.785114332666874e-02  2.667988595360506e-02  0
4.319322056027846e-02  -1.074517086927927e-02  0
5.659488284857618e-02  -6.493815838864646e-02  0
5.414160264344867e-02  -2.194677947378499e-02  0
3.893554274974917e-02  2.206436839329106e-02  0
5.443602262659702e-02  6.330179958599029e-02  0
6.751591616143225e-02  5.076392554010450e-02  0
5.209403536017048e-02  -3.455049043951221e-02  0
5.276524085003067e-02  -6.461787184381568e-03  0
8.330369336948183e-02  2.042327272897180e-02  0
1.149043436866291e-02  -2.199708809861005e-03  0
1.053027438972334e-02  6.315726086403244e-03  0
1.012128406885335e-02  -7.045837702022435e-03  0
1.306657393841379e-02  2.899649414893273e-03  0
9.932383577417830e-02  1.160929141248958e-02  0
9.730448705797722e-02  2.306158707417620e-02  0
9.396926207860305e-02  3.420201433247030e-02  0
8.936326403237882e-02  4.487991801992134e-02  0
8.354878114134484e-02  5.495089780696036e-02  0
7.660444431194530e-02  6.427876096855983e-02  0
6.862416378691444e-02  7.273736415723199e-02  0
5.971585917029129e-02  8.021231927546324e-02  0
5.971585917024529e-02  -8.021231927549793e-02  0
6.862416378681814e-02  -7.273736415732367e-02  0
7.660444431183186e-02  -6.427876096869627e-02  0
8.354878114120486e-02  -5.495089780717483e-02  0
8.936326403226107e-02  -4.487991802015781e-02  0
9.396926207853672e-02  -3.420201433265498e-02  0
9.730448705794741e-02  -2.306158707430473e-02  0
9.932383577417025e-02  -1.160929141256133e-02  0
1.253462919478172e-01  1.465088031845489e-02  0
1.227978817726321e-01  2.910363261395011e-02  0
1.185888409042680e-01  4.316280820515878e-02  0
1.127760893999278e-01  5.663828086049760e-02  0
1.054382347520016e-01  6.934781792929674e-02  0
9.667450885662657e-02  8.111954472568937e-02  0
8.660342607253321e-02  9.179426883892239e-02  0
7.536118051755844e-02  1.012276329377164e-01  0
1.795755544906706e-01  2.098937205145808e-02  0
1.759246114658127e-01  4.169489885284684e-02  0
1.698945898667277e-01  6.183657367418294e-02  0
1.615670353911392e-01  8.114201491622297e-02  0
1.510545639275096e-01  9.935014960439689e-02  0
1.384993386184041e-01  1.162147439527821e-01  0
1.240711473478679e-01  1.315077332537126e-01  0
1.079651066514639e-01  1.450223060618054e-01  0
3.422632133471233e-01  4.000483219916681e-02  0
3.353046743913073e-01  7.946866767047836e-02  0
3.238117149241366e-01  1.178578257387724e-01  0
3.079397575064224e-01  1.546531588971477e-01  0
2.879034431340863e-01  1.893570733865469e-01  0
2.639737285870351e-01  2.215002582974519e-01  0
2.364742222035039e-01  2.506480321950022e-01  0
2.057768076323172e-01  2.764062214398055e-01  0
8.303261255302732e-01  9.705120511663549e-02  0
8.134448000906233e-01  1.927899591738297e-01  0
7.855630291812465e-01  2.859215597612789e-01  0
7.470578659229784e-01  3.751865617467706e-01  0
6.984500265937411e-01  4.593778091113913e-01  0
6.403968488344938e-01  5.373567596631235e-01  0
5.736834022851641e-01  6.080688818672949e-01  0
4.992118718644032e-01  6.705579155766365e-01  0
2.294514475764257e+00  2.681902787152272e-01  0
2.247864798727261e+00  5.327537439868827e-01  0
2.170816606463461e+00  7.901126288016086e-01  0
2.064411843598340e+00  1.036786595737224e+00  0
1.930089452013553e+00  1.269439802556886e+00  0
1.769665911627385e+00  1.484926013750796e+00  0
1.585310675619584e+00  1.680331147975471e+00  0
1.379516832298532e+00  1.853012686004923e+00  0
6.687078367505015e+00  7.816073640478985e-01  0
6.551123659238791e+00  1.552644829331741e+00  0
6.326576241828850e+00  2.302685436836140e+00  0
6.016472733888326e+00  3.021586174026930e+00  0
5.625006753383266e+00  3.699625141698421e+00  0
5.157472206146426e+00  4.327633025976628e+00  0
4.620191694881215e+00  4.897117097563551e+00  0
4.020431016805952e+00  5.400376061331777e+00  0
7.536118051750029e-02  -1.012276329377597e-01  0
8.660342607241375e-02  -9.179426883903503e-02  0
9.667450885649388e-02  -8.111954472584749e-02  0
1.054382347518306e-01  -6.934781792955684e-02  0
1.127760893997734e-01  -5.663828086080482e-02  0
1.185888409041817e-01  -4.316280820539588e-02  0
1.227978817725928e-01  -2.910363261411583e-02  0
1.253462919478071e-01  -1.465088031854197e-02  0
1.079651066513857e-01  -1.450223060618635e-01  0
1.240711473476965e-01  -1.315077332538743e-01  0
1.384993386182020e-01  -1.162147439530228e-01  0
1.510545639272632e-01  -9.935014960477125e-02  0
1.615670353909238e-01  -8.114201491665163e-02  0
1.698945898666106e-01  -6.183657367450407e-02  0
1.759246114657600e-01  -4.169489885306880e-02  0
1.795755544906570e-01  -2.098937205157302e-02  0
2.057768076321788e-01  -2.764062214399082e-01  0
2.364742222031762e-01  -2.506480321953106e-01  0
2.639737285866243e-01  -2.215002582979404e-01  0
2.879034431336137e-01  -1.893570733872639e-01  0
3.079397575060235e-01  -1.546531588979405e-01  0
3.238117149239272e-01  -1.178578257393455e-01  0
3.353046743912142e-01  -7.946866767086901e-02  0
3.422632133470999e-01  -4.000483219936528e-02  0
4.992118718640894e-01  -6.705579155768766e-01  0
5.736834022843769e-01  -6.080688818680503e-01  0
6.403968488334690e-01  -5.373567596643638e-01  0
6.984500265926036e-01  -4.593778091131449e-01  0
7.470578659220427e-01  -3.751865617486636e-01  0
7.855630291807728e-01  -2.859215597626148e-01  0
8.134448000904191e-01  -1.927899591747311e-01  0
8.303261255302257e-01  -9.705120511708699e-02  0
1.379516832297686e+00  -1.853012686005571e+00  0
1.585310675617408e+00  -1.680331147977560e+00  0
1.769665911624506e+00  -1.484926013754281e+00  0
1.930089452010406e+00  -1.269439802561740e+00  0
2.064411843595778e+00  -1.036786595742409e+00  0
2.170816606462180e+00  -7.901126288052249e-01  0
2.247864798726712e+00  -5.327537439893110e-01  0
2.294514475764130e+00  -2.681902787164350e-01  0
4.020431016803524e+00  -5.400376061333659e+00  0
4.620191694874900e+00  -4.897117097569658e+00  0
5.157472206138014e+00  -4.327633025986872e+00  0
5.625006753374131e+00  -3.699625141712599e+00  0
6.016472733880930e+00  -3.021586174042016e+00  0
6.326576241825187e+00  -2.302685436846617e+00  0
6.551123659237238e+00  -1.552644829338764e+00  0
6.687078367504672e+00  -7.816073640513831e-01  0
Edges
91
2  13  3
13  14  3
14  15  3
15  16  3
16  17  3
17  18  3
18  19  3
19  20  3
3  20  3
3  21  3
21  22  3
22  23  3
23  24  3
24  25  3
25  26  3
26  27  3
27  28  3
4  28  3
5  29  2
29  30  2
30  31  2
31  32  2
32  33  2
33  34  2
34  35  2
35  36  2
6  36  2
6  37  2
37  38  2
38  39  2
39  40  2
40  41  2
41  42  2
42  43  2
43  44  2
7  44  2
8  45  1
45  46  1
46  47  1
47  48  1
48  49  1
49  50  1
50  51  1
51  52  1
9  52  1
9  53  1
53  54  1
54  55  1
55  56  1
56  57  1
57  58  1
58  59  1
59  60  1
10  60  1
11  61  4
61  62  4
62  63  4
63  64  4
64  65  4
65  66  4
66  67  4
67  68  4
12  68  4
11  69  5
69  70  5
70  71  5
2  71  5
12  72  6
72  73  6
73  74  6
4  74  6
2  75  5
5  75  5
4  77  6
7  77  6
5  78  5
78  79  5
79  80  5
80  81  5
81  82  5
82  83  5
8  83  5
7  90  6
90  91  6
91  92  6
92  93  6
93  94  6
94  95  6
10  95  6
1  11  5
1  12  6
Triangles
38
118  141  150  3
20  117  152  3
118  173  122  3
66  135  67  3
102  145  136  3
73  172  140  3
122  168  134  3
106  128  183  3
124  165  128  3
105  141  115  3
69  70  163  3
104  163  121  3
103  155  119  3
103  142  154  3
70  71  149  3
106  176  137  3
104  138  137  3
108  146  181  3
124  167  151  3
109  148  159  3
112  179  134  3
13  14  177  3
27  28  180  3
123  162  175  3
97  150  155  3
111  170  139  3
119  126  166  3
107  116  135  3
125  169  149  3
103  127  120  3
96  183  174  3
2  160  71  3
4  74  161  3
65  66  188  2
1  187  185  2
61  62  187  2
63  64  185  2
67  68  186  2
Quadrilaterals
257
131  110  167  147  3
124  151  101  165  3
138  178  106  137  3
23  158  184  22  3
154  97  155  103  3
156  117  145  102  3
101  151  133  152  3
154  142  104  137  3
112  172  129  179  3
154  137  176  97  3
113  175  171  144  3
144  111  139  102  3
124  178  99  167  3
165  101  156  114  3
163  70  149  121  3
178  124  128  106  3
99  182  147  167  3
98  179  129  107  3
158  123  175  113  3
132  176  106  183  3
121  182  138  104  3
131  159  16  17  3
140  143  108  130  3
169  125  148  109  3
132  183  96  173  3
74  73  140  130  3
97  176  132  150  3
158  23  24  123  3
168  122  170  111  3
3  145  117  20  3
27  180  153  26  3
136  113  144  102  3
101  152  117  156  3
98  141  118  122  3
168  171  100  134  3
174  183  128  165  3
18  19  133  157  3
121  149  169  182  3
119  155  105  126  3
109  147  182  169  3
100  171  175  162  3
148  177  14  15  3
109  159  131  147  3
143  112  134  100  3
115  164  126  105  3
122  134  179  98  3
107  115  141  98  3
24  25  146  123  3
21  22  184  136  3
146  108  162  123  3
114  156  102  139  3
139  170  96  174  3
116  107  129  72  3
142  69  163  104  3
71  160  125  149  3
142  103  120  69  3
105  155  150  141  3
162  108  143  100  3
120  127  62  61  3
119  166  127  103  3
67  135  116  68  3
145  3  21  136  3
135  164  115  107  3
170  122  173  96  3
126  164  65  64  3
151  167  110  133  3
184  158  113  136  3
66  65  164  135  3
19  20  152  133  3
127  166  63  62  3
13  177  160  2  3
132  173  118  150  3
111  144  171  168  3
161  180  28  4  3
64  63  166  126  3
159  148  15  16  3
130  180  161  74  3
112  143  140  172  3
153  180  130  108  3
110  131  157  133  3
99  178  138  182  3
181  146  25  26  3
174  165  114  139  3
181  26  153  108  3
177  148  125  160  3
12  68  116  72  3
120  61  11  69  3
72  129  172  73  3
17  18  157  131  3
62  63  185  187  2
188  66  67  186  2
64  65  188  185  2
186  1  185  188  2
186  68  12  1  2
187  1  11  61  2
6  37  189  76  1
76  189  21  3  1
37  38  190  189  1
189  190  22  21  1
38  39  191  190  1
190  191  23  22  1
39  40  192  191  1
191  192  24  23  1
40  41  193  192  1
192  193  25  24  1
41  42  194  193  1
193  194  26  25  1
42  43  195  194  1
194  195  27  26  1
43  44  196  195  1
195  196  28  27  1
44  7  77  196  1
196  77  4  28  1
5  29  197  75  1
75  197  13  2  1
29  30  198  197  1
197  198  14  13  1
30  31  199  198  1
198  199  15  14  1
31  32  200  199  1
199  200  16  15  1
32  33  201  200  1
200  201  17  16  1
33  34  202  201  1
201  202  18  17  1
34  35  203  202  1
202  203  19  18  1
35  36  204  203  1
203  204  20  19  1
36  6  76  204  1
204  76  3  20  1
6  84  205  37  4
37  205  206  38  4
38  206  207  39  4
39  207  208  40  4
40  208  209  41  4
41  209  210  42  4
42  210  211  43  4
43  211  212  44  4
44  212  90  7  4
84  85  213  205  4
205  213  214  206  4
206  214  215  207  4
207  215  216  208  4
208  216  217  209  4
209  217  218  210  4
210  218  219  211  4
211  219  220  212  4
212  220  91  90  4
85  86  221  213  4
213  221  222  214  4
214  222  223  215  4
215  223  224  216  4
216  224  225  217  4
217  225  226  218  4
218  226  227  219  4
219  227  228  220  4
220  228  92  91  4
86  87  229  221  4
221  229  230  222  4
222  230  231  223  4
223  231  232  224  4
224  232  233  225  4
225  233  234  226  4
226  234  235  227  4
227  235  236  228  4
228  236  93  92  4
87  88  237  229  4
229  237  238  230  4
230  238  239  231  4
231  239  240  232  4
232  240  241  233  4
233  241  242  234  4
234  242  243  235  4
235  243  244  236  4
236  244  94  93  4
88  89  245  237  4
237  245  246  238  4
238  246  247  239  4
239  247  248  240  4
240  248  249  241  4
241  249  250  242  4
242  250  251  243  4
243  251  252  244  4
244  252  95  94  4
89  9  53  245  4
245  53  54  246  4
246  54  55  247  4
247  55  56  248  4
248  56  57  249  4
249  57  58  250  4
250  58  59  251  4
251  59  60  252  4
252  60  10  95  4
5  78  253  29  4
29  253  254  30  4
30  254  255  31  4
31  255  256  32  4
32  256  257  33  4
33  257  258  34  4
34  258  259  35  4
35  259  260  36  4
36  260  84  6  4
78  79  261  253  4
253  261  262  254  4
254  262  263  255  4
255  263  264  256  4
256  264  265  257  4
257  265  266  258  4
258  266  267  259  4
259  267  268  260  4
260  268  85  84  4
79  80  269  261  4
261  269  270  262  4
262  270  271  263  4
263  271  272  264  4
264  272  273  265  4
265  273  274  266  4
266  274  275  267  4
267  275  276  268  4
268  276  86  85  4
80  81  277  269  4
269  277  278  270  4
270  278  279  271  4
271  279  280  272  4
272  280  281  273  4
273  281  282  274  4
274  282  283  275  4
275  283  284  276  4
276  284  87  86  4
81  82  285  277  4
277  285  286  278  4
278  286  287  279  4
279  287  288  280  4
280  288  289  281  4
281  289  290  282  4
282  290  291  283  4
283  291  292  284  4
284  292  88  87  4
82  83  293  285  4
285  293  294  286  4
286  294  295  287  4
287  295  296  288  4
288  296  297  289  4
289  297  298  290  4
290  298  299  291  4
291  299  300  292  4
292  300  89  88  4
83  8  45  293  4
293  45  46  294  4
294  46  47  295  4
295  47  48  296  4
296  48  49  297  4
297  49  50  298  4
298  50  51  299  4
299  51  52  300  4
300  52  9  89  4
End
