MeshVersionFormatted 1
Dimension 
2
Vertices
277
0.000000000000000e+00  0.000000000000000e+00  6
4.600000000000000e-02  -7.967433714816835e-02  5
9.200000000000000e-02  0.000000000000000e+00  3
4.600000000000000e-02  7.967433714816835e-02  6
5.400000000000000e-02  -9.353074360871937e-02  5
1.080000000000000e-01  0.000000000000000e+00  2
5.400000000000000e-02  9.353074360871937e-02  6
1.000000000000000e+01  -1.732050807568877e+01  5
2.000000000000000e+01  0.000000000000000e+00  1
1.000000000000000e+01  1.732050807568877e+01  6
6.750000000000000e-02  0.000000000000000e+00  4
5.000000000000000e-02  1.750000000000000e-02  4
3.250000000000000e-02  0.000000000000000e+00  4
5.000000000000000e-02  -1.750000000000000e-02  4
5.493859043664144e-02  -7.379533373347510e-02  3
6.313423068388579e-02  -6.691837502475603e-02  3
7.047608876689418e-02  -5.913646009122335e-02  3
7.686487864992207e-02  -5.055482598261768e-02  3
8.221420290970349e-02  -4.128952457854293e-02  3
8.645172111227400e-02  -3.146585318604275e-02  3
8.952012809333107e-02  -2.121666010835823e-02  3
9.137792891225431e-02  -1.068054809955925e-02  3
9.137792891226196e-02  1.068054809949382e-02  3
8.952012809335702e-02  2.121666010824866e-02  3
8.645172111233208e-02  3.146585318588320e-02  3
8.221420290980661e-02  4.128952457833763e-02  3
7.686487865005757e-02  5.055482598241164e-02  3
7.047608876701282e-02  5.913646009108195e-02  3
6.313423068397732e-02  6.691837502466970e-02  3
5.493859043668256e-02  7.379533373344450e-02  3
6.449312790387794e-02  -8.662930481756180e-02  2
7.411409688978191e-02  -7.855635328992822e-02  2
8.273279985680324e-02  -6.942106184620155e-02  2
9.023268363252318e-02  -5.934696963175946e-02  2
9.651232515485564e-02  -4.847031146179501e-02  2
1.014868030448373e-01  -3.693817547928418e-02  2
1.050888460226022e-01  -2.490651404026264e-02  2
1.072697426361247e-01  -1.253803472556914e-02  2
1.072697426361338e-01  1.253803472549134e-02  2
1.050888460226371e-01  2.490651404011567e-02  2
1.014868030449135e-01  3.693817547907510e-02  2
9.651232515498961e-02  4.847031146152826e-02  2
9.023268363266919e-02  5.934696963153750e-02  2
8.273279985691277e-02  6.942106184607098e-02  2
7.411409688988402e-02  7.855635328983190e-02  2
6.449312790392941e-02  8.662930481752350e-02  2
1.194317183405218e+01  -1.604246385510351e+01  1
1.372483275736542e+01  -1.454747283146971e+01  1
1.532088886236626e+01  -1.285575219374664e+01  1
1.670975622824330e+01  -1.099017956143958e+01  1
1.787265280645574e+01  -8.975983604034148e+00  1
1.879385241571224e+01  -6.840402866529649e+00  1
1.946089741159391e+01  -4.612317414859626e+00  1
1.986476715483822e+01  -2.321858282510112e+00  1
1.986476715483941e+01  2.321858282499877e+00  1
1.946089741159881e+01  4.612317414838971e+00  1
1.879385241572347e+01  6.840402866498801e+00  1
1.787265280647810e+01  8.975983603989619e+00  1
1.670975622827085e+01  1.099017956139770e+01  1
1.532088886239166e+01  1.285575219371637e+01  1
1.372483275738445e+01  1.454747283145175e+01  1
1.194317183405952e+01  1.604246385509805e+01  1
6.515544456623618e-02  8.749999999985289e-03  4
5.875000000001559e-02  1.515544456621868e-02  4
4.125000000001585e-02  1.515544456623683e-02  4
3.484455543378431e-02  8.750000000020759e-03  4
3.484455543376302e-02  -8.749999999983877e-03  4
4.124999999998415e-02  -1.515544456621852e-02  4
5.874999999998158e-02  -1.515544456623831e-02  4
6.515544456621641e-02  -8.750000000019516e-03  4
9.199999999980165e-03  -1.593486742959931e-02  5
1.839999999995266e-02  -3.186973485918534e-02  5
2.759999999995060e-02  -4.780460228881545e-02  5
3.679999999997486e-02  -6.373946971849113e-02  5
9.199999999980165e-03  1.593486742959931e-02  6
1.839999999995266e-02  3.186973485918534e-02  6
2.759999999995060e-02  4.780460228881545e-02  6
3.679999999997486e-02  6.373946971849113e-02  6
4.999999999998706e-02  -8.660254037842145e-02  5
9.999999999998102e-02  0.000000000000000e+00  0
4.999999999998706e-02  8.660254037842145e-02  6
6.309980427698067e-02  -1.092920669553824e-01  5
9.039902310001184e-02  -1.565757009638131e-01  5
1.722966147447317e-01  -2.984264907099963e-01  5
4.179893572666847e-01  -7.239788038089572e-01  5
1.155067390359791e+00  -2.000635406269151e+00  5
3.366300906213768e+00  -5.830604203127399e+00  5
1.261996085539616e-01  0.000000000000000e+00  0
1.807980462000250e-01  0.000000000000000e+00  0
3.445932294894695e-01  0.000000000000000e+00  0
8.359787145332679e-01  0.000000000000000e+00  0
2.310134780719295e+00  0.000000000000000e+00  0
6.732601812426335e+00  0.000000000000000e+00  0
6.309980427698067e-02  1.092920669553824e-01  6
9.039902310001184e-02  1.565757009638131e-01  6
1.722966147447317e-01  2.984264907099963e-01  6
4.179893572666847e-01  7.239788038089572e-01  6
1.155067390359791e+00  2.000635406269151e+00  6
3.366300906213768e+00  5.830604203127399e+00  6
5.561474039551054e-02  -4.274198449039524e-02  0
5.561318880373520e-02  4.273480713277746e-02  0
6.843758931404685e-02  -2.845998366621046e-02  0
6.836805663129676e-02  2.830753377505486e-02  0
4.362832324205969e-02  3.371055755265045e-02  0
4.362543837160491e-02  -3.371598702675107e-02  0
7.879695473921793e-02  1.766867627659718e-02  0
7.867022862114789e-02  -1.826656914183074e-02  0
8.245833230956744e-02  7.197285586473314e-03  0
5.672996246969884e-02  2.783098550607913e-02  0
5.675901741340994e-02  -2.789399748067088e-02  0
5.717115643864698e-02  -5.435897407036566e-02  0
5.717110987260764e-02  5.435736418388938e-02  0
7.474997143576717e-02  -6.116927950923058e-03  0
2.428835581598120e-02  1.708650048914026e-02  0
2.425579788192412e-02  -1.708282013441509e-02  0
6.961160858697810e-02  -4.305013491710446e-02  0
6.960253312731814e-02  4.302992940071890e-02  0
2.548937713919703e-02  -7.302725860260081e-03  0
2.553839610414805e-02  7.323598593601767e-03  0
4.769626708422935e-02  5.570892491481060e-02  0
4.769626676327670e-02  -5.570892567728562e-02  0
6.859040510975048e-02  -1.925273946099644e-02  0
6.838061567449136e-02  1.855159356032389e-02  0
7.794078644409731e-02  2.795058205327849e-02  0
7.796736942497133e-02  -2.814247658082154e-02  0
5.210466044271615e-02  -6.364779922916225e-02  0
5.210466046699595e-02  6.364779910314221e-02  0
4.935428484411920e-02  6.719694078015298e-02  0
4.935428480746448e-02  -6.719694086940772e-02  0
7.479848407043148e-02  3.623911701436905e-02  0
7.481835503943608e-02  -3.629918416104867e-02  0
6.289757589285727e-02  -3.672232168180100e-02  0
6.287867810158118e-02  3.667891544562690e-02  0
8.213775161632210e-02  -8.619455243404621e-03  0
7.555035192128233e-02  8.406762677626708e-03  0
8.309439022309872e-02  1.286905119398849e-02  0
4.655790348960687e-02  2.448653075898675e-02  0
4.655780421534831e-02  -2.449720686002703e-02  0
6.446185308181586e-02  -5.020052600292191e-02  0
6.445900709123151e-02  5.019286971023573e-02  0
8.320157074153142e-02  7.869425532262939e-05  0
3.100265682614022e-02  2.878953502503413e-02  0
3.099134439226641e-02  -2.879031329603384e-02  0
3.778693045109374e-02  2.029069870809734e-02  0
3.777441969591526e-02  -2.029200488326386e-02  0
1.820426870694830e-02  3.539411837098164e-06  0
7.120103890800689e-02  -1.170991651840326e-02  0
5.171467415569110e-02  -3.487297047553675e-02  0
4.382589780245873e-02  -4.507091397543953e-02  0
5.170814554441773e-02  3.485321051598458e-02  0
4.382682492495094e-02  4.506763733672185e-02  0
7.566573261036616e-02  1.077896911280097e-03  0
3.176160170565328e-02  1.382150921979645e-02  0
3.173854553285649e-02  -1.381765082238676e-02  0
4.876999921032470e-02  1.141903541396139e-03  0
5.137236871348817e-02  -6.984549242903899e-03  0
5.847499823182369e-02  -2.058371719998683e-03  0
4.121058772227388e-02  -1.953671192746139e-03  0
4.554572933159825e-02  7.850314162563658e-03  0
5.607264890370667e-02  5.541221932663167e-03  0
4.067958436177521e-02  5.065721659013987e-03  0
4.461156747457008e-02  -8.173530130344496e-03  0
5.034344483819721e-02  1.041440439998966e-02  0
6.182584285453091e-02  5.122470858002466e-03  0
5.852403208935249e-02  -8.362198242249690e-03  0
9.932383577417830e-02  1.160929141248958e-02  0
9.730448705797722e-02  2.306158707417620e-02  0
9.396926207860305e-02  3.420201433247030e-02  0
8.936326403237882e-02  4.487991801992134e-02  0
8.354878114134484e-02  5.495089780696036e-02  0
7.660444431194530e-02  6.427876096855983e-02  0
6.862416378691444e-02  7.273736415723199e-02  0
5.971585917029129e-02  8.021231927546324e-02  0
5.971585917024529e-02  -8.021231927549793e-02  0
6.862416378681814e-02  -7.273736415732367e-02  0
7.660444431183186e-02  -6.427876096869627e-02  0
8.354878114120486e-02  -5.495089780717483e-02  0
8.936326403226107e-02  -4.487991802015781e-02  0
9.396926207853672e-02  -3.420201433265498e-02  0
9.730448705794741e-02  -2.306158707430473e-02  0
9.932383577417025e-02  -1.160929141256133e-02  0
1.253462919478172e-01  1.465088031845489e-02  0
1.227978817726321e-01  2.910363261395011e-02  0
1.185888409042680e-01  4.316280820515878e-02  0
1.127760893999278e-01  5.663828086049760e-02  0
1.054382347520016e-01  6.934781792929674e-02  0
9.667450885662657e-02  8.111954472568937e-02  0
8.660342607253321e-02  9.179426883892239e-02  0
7.536118051755844e-02  1.012276329377164e-01  0
1.795755544906706e-01  2.098937205145808e-02  0
1.759246114658127e-01  4.169489885284684e-02  0
1.698945898667277e-01  6.183657367418294e-02  0
1.615670353911392e-01  8.114201491622297e-02  0
1.510545639275096e-01  9.935014960439689e-02  0
1.384993386184041e-01  1.162147439527821e-01  0
1.240711473478679e-01  1.315077332537126e-01  0
1.079651066514639e-01  1.450223060618054e-01  0
3.422632133471233e-01  4.000483219916681e-02  0
3.353046743913073e-01  7.946866767047836e-02  0
3.238117149241366e-01  1.178578257387724e-01  0
3.079397575064224e-01  1.546531588971477e-01  0
2.879034431340863e-01  1.893570733865469e-01  0
2.639737285870351e-01  2.215002582974519e-01  0
2.364742222035039e-01  2.506480321950022e-01  0
2.057768076323172e-01  2.764062214398055e-01  0
8.303261255302732e-01  9.705120511663549e-02  0
8.134448000906233e-01  1.927899591738297e-01  0
7.855630291812465e-01  2.859215597612789e-01  0
7.470578659229784e-01  3.751865617467706e-01  0
6.984500265937411e-01  4.593778091113913e-01  0
6.403968488344938e-01  5.373567596631235e-01  0
5.736834022851641e-01  6.080688818672949e-01  0
4.992118718644032e-01  6.705579155766365e-01  0
2.294514475764257e+00  2.681902787152272e-01  0
2.247864798727261e+00  5.327537439868827e-01  0
2.170816606463461e+00  7.901126288016086e-01  0
2.064411843598340e+00  1.036786595737224e+00  0
1.930089452013553e+00  1.269439802556886e+00  0
1.769665911627385e+00  1.484926013750796e+00  0
1.585310675619584e+00  1.680331147975471e+00  0
1.379516832298532e+00  1.853012686004923e+00  0
6.687078367505015e+00  7.816073640478985e-01  0
6.551123659238791e+00  1.552644829331741e+00  0
6.326576241828850e+00  2.302685436836140e+00  0
6.016472733888326e+00  3.021586174026930e+00  0
5.625006753383266e+00  3.699625141698421e+00  0
5.157472206146426e+00  4.327633025976628e+00  0
4.620191694881215e+00  4.897117097563551e+00  0
4.020431016805952e+00  5.400376061331777e+00  0
7.536118051750029e-02  -1.012276329377597e-01  0
8.660342607241375e-02  -9.179426883903503e-02  0
9.667450885649388e-02  -8.111954472584749e-02  0
1.054382347518306e-01  -6.934781792955684e-02  0
1.127760893997734e-01  -5.663828086080482e-02  0
1.185888409041817e-01  -4.316280820539588e-02  0
1.227978817725928e-01  -2.910363261411583e-02  0
1.253462919478071e-01  -1.465088031854197e-02  0
1.079651066513857e-01  -1.450223060618635e-01  0
1.240711473476965e-01  -1.315077332538743e-01  0
1.384993386182020e-01  -1.162147439530228e-01  0
1.510545639272632e-01  -9.935014960477125e-02  0
1.615670353909238e-01  -8.114201491665163e-02  0
1.698945898666106e-01  -6.183657367450407e-02  0
1.759246114657600e-01  -4.169489885306880e-02  0
1.795755544906570e-01  -2.098937205157302e-02  0
2.057768076321788e-01  -2.764062214399082e-01  0
2.364742222031762e-01  -2.506480321953106e-01  0
2.639737285866243e-01  -2.215002582979404e-01  0
2.879034431336137e-01  -1.893570733872639e-01  0
3.079397575060235e-01  -1.546531588979405e-01  0
3.238117149239272e-01  -1.178578257393455e-01  0
3.353046743912142e-01  -7.946866767086901e-02  0
3.422632133470999e-01  -4.000483219936528e-02  0
4.992118718640894e-01  -6.705579155768766e-01  0
5.736834022843769e-01  -6.080688818680503e-01  0
6.403968488334690e-01  -5.373567596643638e-01  0
6.984500265926036e-01  -4.593778091131449e-01  0
7.470578659220427e-01  -3.751865617486636e-01  0
7.855630291807728e-01  -2.859215597626148e-01  0
8.134448000904191e-01  -1.927899591747311e-01  0
8.303261255302257e-01  -9.705120511708699e-02  0
1.379516832297686e+00  -1.853012686005571e+00  0
1.585310675617408e+00  -1.680331147977560e+00  0
1.769665911624506e+00  -1.484926013754281e+00  0
1.930089452010406e+00  -1.269439802561740e+00  0
2.064411843595778e+00  -1.036786595742409e+00  0
2.170816606462180e+00  -7.901126288052249e-01  0
2.247864798726712e+00  -5.327537439893110e-01  0
2.294514475764130e+00  -2.681902787164350e-01  0
4.020431016803524e+00  -5.400376061333659e+00  0
4.620191694874900e+00  -4.897117097569658e+00  0
5.157472206138014e+00  -4.327633025986872e+00  0
5.625006753374131e+00  -3.699625141712599e+00  0
6.016472733880930e+00  -3.021586174042016e+00  0
6.326576241825187e+00  -2.302685436846617e+00  0
6.551123659237238e+00  -1.552644829338764e+00  0
6.687078367504672e+00  -7.816073640513831e-01  0
Edges
94
2  15  3
15  16  3
16  17  3
17  18  3
18  19  3
19  20  3
20  21  3
21  22  3
3  22  3
3  23  3
23  24  3
24  25  3
25  26  3
26  27  3
27  28  3
28  29  3
29  30  3
4  30  3
5  31  2
31  32  2
32  33  2
33  34  2
34  35  2
35  36  2
36  37  2
37  38  2
6  38  2
6  39  2
39  40  2
40  41  2
41  42  2
42  43  2
43  44  2
44  45  2
45  46  2
7  46  2
8  47  1
47  48  1
48  49  1
49  50  1
50  51  1
51  52  1
52  53  1
53  54  1
9  54  1
9  55  1
55  56  1
56  57  1
57  58  1
58  59  1
59  60  1
60  61  1
61  62  1
10  62  1
11  63  4
63  64  4
12  64  4
12  65  4
65  66  4
13  66  4
13  67  4
67  68  4
14  68  4
14  69  4
69  70  4
11  70  4
1  71  5
71  72  5
72  73  5
73  74  5
2  74  5
1  75  6
75  76  6
76  77  6
77  78  6
4  78  6
2  79  5
5  79  5
4  81  6
7  81  6
5  82  5
82  83  5
83  84  5
84  85  5
85  86  5
86  87  5
8  87  5
7  94  6
94  95  6
95  96  6
96  97  6
97  98  6
98  99  6
10  99  6
Triangles
18
100  111  139  3
101  140  112  3
63  123  64  3
11  113  152  3
23  136  108  3
115  154  118  3
114  119  153  3
103  133  109  3
102  110  132  3
107  147  122  3
72  73  143  3
76  142  77  3
103  124  130  3
102  131  125  3
13  67  158  2
156  165  157  2
69  70  165  2
164  11  63  2
Quadrilaterals
244
147  107  134  113  3
120  151  101  112  3
100  149  121  111  3
11  152  135  63  3
122  102  125  107  3
22  3  141  134  3
119  146  118  13  3
124  103  123  106  3
141  3  23  108  3
68  145  138  14  3
137  144  65  12  3
101  133  117  140  3
116  132  100  139  3
145  154  115  143  3
26  27  117  130  3
116  18  19  131  3
17  139  111  16  3
112  140  28  29  3
114  153  144  142  3
147  113  11  70  3
122  147  70  69  3
123  103  109  64  3
105  143  73  149  3
77  142  104  151  3
110  102  122  69  3
24  25  124  106  3
125  20  21  107  3
135  106  123  63  3
150  101  151  104  3
149  100  148  105  3
117  133  103  130  3
102  132  116  131  3
136  106  135  108  3
109  137  12  64  3
14  138  110  69  3
121  74  129  126  3
128  78  120  127  3
75  146  119  114  3
120  78  77  151  3
73  74  121  149  3
126  129  15  16  3
30  128  127  29  3
148  110  138  105  3
137  109  150  104  3
118  146  71  115  3
133  101  150  109  3
148  100  132  110  3
154  145  68  67  3
104  142  144  137  3
145  143  105  138  3
65  144  153  66  3
130  124  25  26  3
20  125  131  19  3
152  141  108  135  3
27  28  140  117  3
139  17  18  116  3
72  143  115  71  3
114  142  76  75  3
141  152  113  134  3
21  22  134  107  3
118  154  67  13  3
66  153  119  13  3
136  23  24  106  3
112  29  127  120  3
126  16  111  121  3
146  75  1  71  3
4  78  128  30  3
129  74  2  15  3
162  158  67  68  2
161  66  13  158  2
161  159  65  66  2
156  14  69  165  2
12  65  159  163  2
63  64  160  164  2
155  156  157  160  2
70  11  157  165  2
14  156  162  68  2
159  155  160  163  2
162  156  155  158  2
161  158  155  159  2
163  160  64  12  2
164  160  157  11  2
6  39  166  80  1
80  166  23  3  1
39  40  167  166  1
166  167  24  23  1
40  41  168  167  1
167  168  25  24  1
41  42  169  168  1
168  169  26  25  1
42  43  170  169  1
169  170  27  26  1
43  44  171  170  1
170  171  28  27  1
44  45  172  171  1
171  172  29  28  1
45  46  173  172  1
172  173  30  29  1
46  7  81  173  1
173  81  4  30  1
5  31  174  79  1
79  174  15  2  1
31  32  175  174  1
174  175  16  15  1
32  33  176  175  1
175  176  17  16  1
33  34  177  176  1
176  177  18  17  1
34  35  178  177  1
177  178  19  18  1
35  36  179  178  1
178  179  20  19  1
36  37  180  179  1
179  180  21  20  1
37  38  181  180  1
180  181  22  21  1
38  6  80  181  1
181  80  3  22  1
6  88  182  39  4
39  182  183  40  4
40  183  184  41  4
41  184  185  42  4
42  185  186  43  4
43  186  187  44  4
44  187  188  45  4
45  188  189  46  4
46  189  94  7  4
88  89  190  182  4
182  190  191  183  4
183  191  192  184  4
184  192  193  185  4
185  193  194  186  4
186  194  195  187  4
187  195  196  188  4
188  196  197  189  4
189  197  95  94  4
89  90  198  190  4
190  198  199  191  4
191  199  200  192  4
192  200  201  193  4
193  201  202  194  4
194  202  203  195  4
195  203  204  196  4
196  204  205  197  4
197  205  96  95  4
90  91  206  198  4
198  206  207  199  4
199  207  208  200  4
200  208  209  201  4
201  209  210  202  4
202  210  211  203  4
203  211  212  204  4
204  212  213  205  4
205  213  97  96  4
91  92  214  206  4
206  214  215  207  4
207  215  216  208  4
208  216  217  209  4
209  217  218  210  4
210  218  219  211  4
211  219  220  212  4
212  220  221  213  4
213  221  98  97  4
92  93  222  214  4
214  222  223  215  4
215  223  224  216  4
216  224  225  217  4
217  225  226  218  4
218  226  227  219  4
219  227  228  220  4
220  228  229  221  4
221  229  99  98  4
93  9  55  222  4
222  55  56  223  4
223  56  57  224  4
224  57  58  225  4
225  58  59  226  4
226  59  60  227  4
227  60  61  228  4
228  61  62  229  4
229  62  10  99  4
5  82  230  31  4
31  230  231  32  4
32  231  232  33  4
33  232  233  34  4
34  233  234  35  4
35  234  235  36  4
36  235  236  37  4
37  236  237  38  4
38  237  88  6  4
82  83  238  230  4
230  238  239  231  4
231  239  240  232  4
232  240  241  233  4
233  241  242  234  4
234  242  243  235  4
235  243  244  236  4
236  244  245  237  4
237  245  89  88  4
83  84  246  238  4
238  246  247  239  4
239  247  248  240  4
240  248  249  241  4
241  249  250  242  4
242  250  251  243  4
243  251  252  244  4
244  252  253  245  4
245  253  90  89  4
84  85  254  246  4
246  254  255  247  4
247  255  256  248  4
248  256  257  249  4
249  257  258  250  4
250  258  259  251  4
251  259  260  252  4
252  260  261  253  4
253  261  91  90  4
85  86  262  254  4
254  262  263  255  4
255  263  264  256  4
256  264  265  257  4
257  265  266  258  4
258  266  267  259  4
259  267  268  260  4
260  268  269  261  4
261  269  92  91  4
86  87  270  262  4
262  270  271  263  4
263  271  272  264  4
264  272  273  265  4
265  273  274  266  4
266  274  275  267  4
267  275  276  268  4
268  276  277  269  4
269  277  93  92  4
87  8  47  270  4
270  47  48  271  4
271  48  49  272  4
272  49  50  273  4
273  50  51  274  4
274  51  52  275  4
275  52  53  276  4
276  53  54  277  4
277  54  9  93  4
End
