MeshVersionFormatted 1
Dimension 
2
Vertices
1265
1.080000000000000e-01  0.000000000000000e+00  2
0.000000000000000e+00  1.080000000000000e-01  2
-1.080000000000000e-01  0.000000000000000e+00  2
0.000000000000000e+00  -1.080000000000000e-01  2
2.000000000000000e+00  0.000000000000000e+00  3
0.000000000000000e+00  2.000000000000000e+00  3
-2.000000000000000e+00  0.000000000000000e+00  3
0.000000000000000e+00  -2.000000000000000e+00  3
9.200000000000000e-02  0.000000000000000e+00  1
0.000000000000000e+00  9.200000000000000e-02  1
-9.200000000000000e-02  0.000000000000000e+00  1
0.000000000000000e+00  -9.200000000000000e-02  1
6.750000000000000e-02  0.000000000000000e+00  4
5.000000000000000e-02  1.750000000000000e-02  4
3.250000000000000e-02  0.000000000000000e+00  4
5.000000000000000e-02  -1.750000000000000e-02  4
-7.499999999999989e-03  4.330127018922194e-02  5
-2.499999999999999e-02  6.080127018922194e-02  5
-4.250000000000000e-02  4.330127018922194e-02  5
-2.499999999999999e-02  2.580127018922194e-02  5
-7.499999999999989e-03  -4.330127018922194e-02  6
-2.499999999999999e-02  -2.580127018922194e-02  6
-4.250000000000000e-02  -4.330127018922194e-02  6
-2.499999999999999e-02  -6.080127018922194e-02  6
-1.052922145024082e-01  -2.403226092524098e-02  2
-9.730463767346507e-02  -4.685944394927965e-02  2
-8.443779997598024e-02  -6.733689876446905e-02  2
-6.733689843234285e-02  -8.443780024084203e-02  2
-4.685944368105096e-02  -9.730463780263721e-02  2
-2.403226078535084e-02  -1.052922145343372e-01  2
2.403226092524098e-02  -1.052922145024082e-01  2
4.685944394927965e-02  -9.730463767346507e-02  2
6.733689876446905e-02  -8.443779997598024e-02  2
8.443780024084203e-02  -6.733689843234285e-02  2
9.730463780263721e-02  -4.685944368105096e-02  2
1.052922145343372e-01  -2.403226078535084e-02  2
1.052922145024082e-01  2.403226092524098e-02  2
9.730463767346507e-02  4.685944394927965e-02  2
8.443779997598024e-02  6.733689876446905e-02  2
6.733689843234285e-02  8.443780024084203e-02  2
4.685944368105096e-02  9.730463780263721e-02  2
2.403226078535084e-02  1.052922145343372e-01  2
-2.403226092524098e-02  1.052922145024082e-01  2
-4.685944394927965e-02  9.730463767346507e-02  2
-6.733689876446905e-02  8.443779997598024e-02  2
-8.443780024084203e-02  6.733689843234285e-02  2
-9.730463780263721e-02  4.685944368105096e-02  2
-1.052922145343372e-01  2.403226078535084e-02  2
-4.450418690557986e-01  1.949855824102726e+00  3
-8.677674805380480e-01  1.801937734695805e+00  3
-1.246979606800053e+00  1.563662962477780e+00  3
-1.563662967316790e+00  1.246979600732125e+00  3
-1.801937737009894e+00  8.677674757327917e-01  3
-1.949855824686936e+00  4.450418664962098e-01  3
-1.949855824102726e+00  -4.450418690557986e-01  3
-1.801937734695805e+00  -8.677674805380480e-01  3
-1.563662962477780e+00  -1.246979606800053e+00  3
-1.246979600732125e+00  -1.563662967316790e+00  3
-8.677674757327917e-01  -1.801937737009894e+00  3
-4.450418664962098e-01  -1.949855824686936e+00  3
4.450418690557986e-01  -1.949855824102726e+00  3
8.677674805380480e-01  -1.801937734695805e+00  3
1.246979606800053e+00  -1.563662962477780e+00  3
1.563662967316790e+00  -1.246979600732125e+00  3
1.801937737009894e+00  -8.677674757327917e-01  3
1.949855824686936e+00  -4.450418664962098e-01  3
1.949855824102726e+00  4.450418690557986e-01  3
1.801937734695805e+00  8.677674805380480e-01  3
1.563662962477780e+00  1.246979606800053e+00  3
1.246979600732125e+00  1.563662967316790e+00  3
8.677674757327917e-01  1.801937737009894e+00  3
4.450418664962098e-01  1.949855824686936e+00  3
0.000000000000000e+00  2.535384680041680e-01  0
0.000000000000000e+00  6.901538459113578e-01  0
2.535384680041680e-01  0.000000000000000e+00  0
6.901538459113578e-01  0.000000000000000e+00  0
0.000000000000000e+00  -2.535384680041680e-01  0
0.000000000000000e+00  -6.901538459113578e-01  0
-2.535384680041680e-01  0.000000000000000e+00  0
-6.901538459113578e-01  0.000000000000000e+00  0
8.969336790901071e-02  2.047192597531671e-02  1
8.288913579626503e-02  3.991730410421442e-02  1
7.192849627255651e-02  5.736106191458473e-02  1
5.736106162235475e-02  7.192849650560215e-02  1
3.991730387915233e-02  8.288913590464923e-02  1
2.047192585889986e-02  8.969336793558209e-02  1
-2.047192597531671e-02  8.969336790901071e-02  1
-3.991730410421442e-02  8.288913579626503e-02  1
-5.736106191458473e-02  7.192849627255651e-02  1
-7.192849650560215e-02  5.736106162235475e-02  1
-8.288913590464923e-02  3.991730387915233e-02  1
-8.969336793558209e-02  2.047192585889986e-02  1
-8.969336790901071e-02  -2.047192597531671e-02  1
-8.288913579626503e-02  -3.991730410421442e-02  1
-7.192849627255651e-02  -5.736106191458473e-02  1
-5.736106162235475e-02  -7.192849650560215e-02  1
-3.991730387915233e-02  -8.288913590464923e-02  1
-2.047192585889986e-02  -8.969336793558209e-02  1
2.047192597531671e-02  -8.969336790901071e-02  1
3.991730410421442e-02  -8.288913579626503e-02  1
5.736106191458473e-02  -7.192849627255651e-02  1
7.192849650560215e-02  -5.736106162235475e-02  1
8.288913590464923e-02  -3.991730387915233e-02  1
8.969336793558209e-02  -2.047192585889986e-02  1
0.000000000000000e+00  9.999999999998102e-02  0
9.999999999998102e-02  0.000000000000000e+00  0
0.000000000000000e+00  -9.999999999998102e-02  0
-9.999999999998102e-02  0.000000000000000e+00  0
6.723413567674238e-02  3.038843114679562e-03  4
6.644462085883261e-02  5.985352521718964e-03  4
6.515544455529090e-02  8.750000018943046e-03  4
6.340577772955830e-02  1.124878319933667e-02  4
6.124878314666014e-02  1.340577777375915e-02  4
5.874999998093501e-02  1.515544457723486e-02  4
5.598535249159738e-02  1.644462086979597e-02  4
5.303884310435090e-02  1.723413567856361e-02  4
4.696115688252856e-02  1.723413567625010e-02  4
4.401464747513355e-02  1.644462085768702e-02  4
4.124999997479287e-02  1.515544455167433e-02  4
3.875121679885440e-02  1.340577772804042e-02  4
3.659422222602763e-02  1.124878314640603e-02  4
3.484455542201854e-02  8.749999979641850e-03  4
3.355537913072064e-02  5.985352493016728e-03  4
3.276586432088636e-02  3.038843101231510e-03  4
3.276586432340391e-02  -3.038843115509188e-03  4
3.355537914105673e-02  -5.985352521414908e-03  4
3.484455544501082e-02  -8.750000019465647e-03  4
3.659422226847098e-02  -1.124878319698804e-02  4
3.875121685212866e-02  -1.340577777274284e-02  4
4.125000001803803e-02  -1.515544457664194e-02  4
4.401464750765975e-02  -1.644462086952558e-02  4
4.696115689525984e-02  -1.723413567849497e-02  4
5.303884311658932e-02  -1.723413567640564e-02  4
5.598535252318303e-02  -1.644462085829973e-02  4
5.875000002287996e-02  -1.515544455301793e-02  4
6.124878319840092e-02  -1.340577773034348e-02  4
6.340577777120168e-02  -1.124878314970802e-02  4
6.515544457903244e-02  -8.749999977821518e-03  4
6.644462086951103e-02  -5.985352492380231e-03  4
6.723413567934683e-02  -3.038843099909025e-03  4
-7.765864323935352e-03  4.634011330774518e-02  5
-8.555379141227264e-03  4.928662271110543e-02  5
-9.844555442734616e-03  5.205127020474511e-02  5
-1.159422226776080e-02  5.455005338536364e-02  5
-1.375121685739031e-02  5.670704796637983e-02  5
-1.625000002528925e-02  5.845671477005038e-02  5
-1.901464751127211e-02  5.974589106006232e-02  5
-2.196115689944465e-02  6.053540586845481e-02  5
-2.803884311849244e-02  6.053540586529201e-02  5
-3.098535252671530e-02  5.974589104623602e-02  5
-3.375000003002160e-02  5.845671473811664e-02  5
-3.624878319827344e-02  5.670704791967238e-02  5
-3.840577778148281e-02  5.455005332667737e-02  5
-4.015544458228604e-02  5.205127016140802e-02  5
-4.144462086946461e-02  4.928662268172970e-02  5
-4.223413567810120e-02  4.634011329619522e-02  5
-4.223413567573225e-02  4.026242706881367e-02  5
-4.144462085739169e-02  3.731591766354411e-02  5
-4.015544455687860e-02  3.455127017302886e-02  5
-3.840577773275733e-02  3.205248699369774e-02  5
-3.624878314681623e-02  2.989549241559377e-02  5
-3.374999997965533e-02  2.814582561124826e-02  5
-3.098535249503275e-02  2.685664932067634e-02  5
-2.803884310154096e-02  2.606713451016287e-02  5
-2.196115688125734e-02  2.606713451319599e-02  5
-1.901464747243922e-02  2.685664933251558e-02  5
-1.624999997359746e-02  2.814582563823777e-02  5
-1.375121679947327e-02  2.989549246066222e-02  5
-1.159422222329184e-02  3.205248704607629e-02  5
-9.844555419782457e-03  3.455127021345308e-02  5
-8.555379131087632e-03  3.731591769519686e-02  5
-7.765864321887115e-03  4.026242708231481e-02  5
-7.765864324091740e-03  -4.026242706981176e-02  6
-8.555379141843324e-03  -3.731591766564584e-02  6
-9.844555444085541e-03  -3.455127017135890e-02  6
-1.159422227007642e-02  -3.205248699032059e-02  6
-1.375121685579441e-02  -2.989549241340317e-02  6
-1.625000002299519e-02  -2.814582560971798e-02  6
-1.901464750900973e-02  -2.685664931920500e-02  6
-2.196115689906045e-02  -2.606713451005682e-02  6
-2.803884311819464e-02  -2.606713451309936e-02  6
-3.098535252651498e-02  -2.685664933213494e-02  6
-3.375000002949356e-02  -2.814582564002238e-02  6
-3.624878319964960e-02  -2.989549245992623e-02  6
-3.840577778027910e-02  -3.205248705033199e-02  6
-4.015544458158380e-02  -3.455127021581954e-02  6
-4.144462086914436e-02  -3.731591769583432e-02  6
-4.223413567801990e-02  -4.026242708178760e-02  6
-4.223413567571123e-02  -4.634011330974945e-02  6
-4.144462085730888e-02  -4.928662271512731e-02  6
-4.015544455669699e-02  -5.205127020572957e-02  6
-3.840577773244604e-02  -5.455005338511712e-02  6
-3.624878314562704e-02  -5.670704796384796e-02  6
-3.374999998020366e-02  -5.845671476687904e-02  6
-3.098535249622631e-02  -5.974589105733312e-02  6
-2.803884310276255e-02  -6.053540586806562e-02  6
-2.196115688095954e-02  -6.053540586519538e-02  6
-1.901464747223889e-02  -5.974589104585539e-02  6
-1.624999997306943e-02  -5.845671473990125e-02  6
-1.375121680084943e-02  -5.670704791893640e-02  6
-1.159422222208813e-02  -5.455005333093307e-02  6
-9.844555419080218e-03  -5.205127016377448e-02  6
-8.555379130767395e-03  -4.928662268236718e-02  6
-7.765864321805822e-03  -4.634011329566802e-02  6
4.110290758878894e-02  -1.843536201135300e-02  0
-3.673741930920938e-02  -2.666832048531280e-02  0
-4.792357448387219e-03  4.489182933103297e-02  0
-3.648165708176915e-02  2.686224951859892e-02  0
-5.021963358252208e-03  -4.417525007262286e-02  0
4.154777498973240e-02  1.801597333303974e-02  0
-1.302725156240871e-02  -2.694820007035875e-02  0
2.965521211569709e-02  1.555039427169813e-03  0
-1.664340381326025e-02  2.525156576692117e-02  0
-6.622637827534060e-03  3.510139532064721e-02  0
-2.700542411911130e-02  -2.347742791592150e-02  0
3.249403773359594e-02  -1.179826139493128e-02  0
3.322502197785650e-02  1.199413927232714e-02  0
-2.684979034078082e-02  2.321859881969713e-02  0
-6.538087762045297e-03  -3.534395409629610e-02  0
3.099231476700998e-02  -5.424608593217093e-03  0
-1.053207061019829e-02  2.838778746785232e-02  0
-2.024946850542397e-02  -2.388695155082630e-02  0
-4.193435573827777e-02  3.167333722887179e-02  0
-4.118871114396903e-02  -3.077829931960994e-02  0
4.833002808100328e-02  2.077974911840521e-02  0
-7.263431513545744e-03  5.214568698563649e-02  0
4.744687279861653e-02  -2.062657516041936e-02  0
-6.468733359602165e-03  -5.196416530052630e-02  0
-4.491488764911356e-02  3.819574658313871e-02  0
-4.363683312742997e-02  -3.732447921760056e-02  0
-1.012328435312737e-02  5.759723819115346e-02  0
-1.127703815971996e-02  -5.819839893216998e-02  0
-4.511535783475848e-02  4.635749534770116e-02  0
-4.539346776263891e-02  -4.440304128952557e-02  0
-1.619024477018073e-02  -6.298486508278164e-02  0
-1.558874398559115e-02  6.141009593865867e-02  0
3.902707199163225e-02  6.255951728002733e-02  0
3.952762413952995e-02  -6.015389346075228e-02  0
-7.419204540927143e-02  8.648498840706696e-03  0
5.819647687730450e-02  -1.841472697842973e-02  0
5.819721555252538e-02  1.860791064839577e-02  0
6.588622384649188e-02  -1.382403405226566e-02  0
6.550535242270925e-02  1.411247122720020e-02  0
-4.350391933554359e-02  -5.083730596441779e-02  0
-4.547499392711519e-02  5.037989489309155e-02  0
-7.242838017922489e-02  -2.302386450761030e-02  0
-2.266297655977499e-02  -6.452080743876117e-02  0
-2.361890521621566e-02  6.468372637182621e-02  0
7.113299766644633e-02  3.401912571233721e-03  0
7.098338561756135e-02  -4.302060067450954e-03  0
-3.516594844931905e-02  -6.113020711510871e-02  0
-3.776793139946923e-02  6.076105101632898e-02  0
8.603438122687537e-03  7.230810993370054e-02  0
5.249989566106157e-03  -7.724864965159321e-02  0
-3.089687209160862e-02  -6.376730360091667e-02  0
-3.084130594397247e-02  6.442862465433681e-02  0
6.450779871440991e-02  3.838815623840349e-02  0
6.313393318994343e-02  -4.052470542636628e-02  0
-6.454885642168381e-02  4.115717807409210e-02  0
7.179059032913991e-02  -2.601693572595858e-02  0
7.224532451656930e-02  2.556548812591953e-02  0
-8.180847332292436e-03  -3.259032902758327e-02  0
-4.406769421675950e-03  -3.345919305188480e-02  0
-2.317287564865299e-03  -3.157874686614925e-02  0
-3.788642790392830e-04  -3.393262741899929e-02  0
-3.906736592155281e-03  -2.920922648057407e-02  0
-2.104972736842807e-04  -2.981901238360883e-02  0
-1.511574827535979e-03  -2.704289245547873e-02  0
7.897845678732689e-04  -2.671324222745906e-02  0
-8.900600370887104e-04  -2.389597697962688e-02  0
2.001651937910825e-03  -2.474206969611603e-02  0
-6.871559722519780e-05  -2.091847741103436e-02  0
2.727570980848973e-03  -2.191178500963006e-02  0
1.781117920493404e-03  -1.860116423167792e-02  0
4.643542988615431e-03  -2.347271545115721e-02  0
4.831505078156380e-03  -1.955412128352019e-02  0
3.801490854652927e-03  -1.612079163443661e-02  0
7.812686947201473e-04  -1.540307811522332e-02  0
1.509427855005726e-03  -1.306887339497856e-02  0
-8.694193592605182e-04  -1.281970287628165e-02  0
-3.141690699960679e-04  -1.064797973367605e-02  0
-2.955984677112358e-03  -1.064815373557320e-02  0
-2.373952533389452e-03  -8.098909348343040e-03  0
-5.246733816285865e-03  -8.051277648140474e-03  0
-5.120199103827497e-03  -5.513516712364559e-03  0
-7.301995495315518e-03  -5.584572560992672e-03  0
-2.216602307627350e-03  -5.486550552569068e-03  0
-2.775143796867665e-03  -2.827966463195257e-03  0
3.533069036834513e-04  -2.624991732340149e-03  0
-9.063816903792492e-04  1.688135806038997e-05  0
2.096723077292363e-03  2.696682867309208e-04  0
6.750434990976433e-04  2.815216366001639e-03  0
3.617162391057971e-03  3.053148882047727e-03  0
-2.330270317809619e-03  2.613712890441103e-03  0
2.207512212633051e-03  5.583405623091666e-03  0
5.074243816820622e-03  5.959111218143426e-03  0
3.534689383239987e-03  8.502265234898315e-03  0
6.052811558610712e-03  9.297056372590831e-03  0
4.395667670138027e-03  1.142585108827758e-02  0
8.450569965454258e-03  1.039351142339966e-02  0
6.476930008507720e-03  1.302388901451631e-02  0
9.398246411297426e-03  1.384061529035060e-02  0
8.270027638111238e-03  1.605080494115348e-02  0
1.035974278847108e-02  1.698291237413635e-02  0
9.155028177318546e-03  1.954951221253833e-02  0
1.266147050112917e-02  1.896288828270917e-02  0
9.830466967068094e-03  2.208373092944793e-02  0
1.249643138634832e-02  2.217007302838271e-02  0
1.205572786020861e-02  2.527170482783340e-02  0
1.506592234101927e-02  2.577290012471043e-02  0
1.338701760620143e-02  2.816160497661016e-02  0
1.804376972306740e-02  2.767334246324647e-02  0
7.129126858115848e-03  -1.539726289878980e-02  0
4.963493835007013e-03  5.870839942481861e-04  0
2.143479180151735e-03  1.090629956178697e-02  0
1.015595353431771e-02  8.314593235916379e-03  0
-8.458287778627054e-03  -7.684556152893989e-03  0
-1.099080642239779e-02  -5.713370850798116e-03  0
1.421675916328317e-02  1.622546035035967e-02  0
6.384125604605263e-03  1.808227531744389e-02  0
-1.135615089272495e-02  -8.113945043575750e-03  0
-1.383523066215006e-02  -5.893485057284264e-03  0
-1.377196299785922e-02  -8.114325491670040e-03  0
-1.573888230323642e-02  -6.055212177730604e-03  0
-1.405703081776239e-02  -3.785121632208572e-03  0
-1.662237284342255e-02  -4.072304026573110e-03  0
-1.505180439788019e-02  -1.854999100785710e-03  0
-1.859547313083073e-02  -2.358021985838545e-03  0
-1.997620913913005e-02  -4.632933337994078e-03  0
-2.121020182484013e-02  -2.137949909081227e-03  0
-2.311346810388225e-02  -4.712214038741951e-03  0
-2.434503698281280e-02  -1.804145250823582e-03  0
-2.653845398072835e-02  -4.486212650471051e-03  0
-2.790620055098070e-02  -8.135884788644422e-04  0
-3.134121916604819e-02  -3.608963802561554e-03  0
-3.263287988684749e-02  1.276893455380254e-03  0
-1.692561342107510e-02  9.681868828028777e-05  0
-2.625957541979225e-02  2.823750826252679e-03  0
1.906002285667441e-02  2.416647910249772e-02  0
9.638504691380632e-03  2.687749352021995e-02  0
1.095942979488449e-02  2.959449547969055e-02  0
-2.483835318945014e-02  -6.664327664859069e-03  0
-1.247240711019760e-02  -1.045528069356638e-02  0
-1.547353843457389e-02  -1.135245007292230e-02  0
7.614439010604638e-03  3.086950465893308e-02  0
9.752122572025148e-03  3.462247173284391e-02  0
-2.184106695564383e-03  -1.526761906093875e-02  0
1.274127372575922e-03  -5.678632239483831e-03  0
-1.369161579895298e-02  9.809018207448932e-04  0
-1.555398560542295e-02  3.246784683333995e-03  0
-1.225659305340727e-02  3.850157999415876e-03  0
-1.415213691601239e-02  6.130837088658920e-03  0
-1.085836362154395e-02  6.713458935781555e-03  0
-1.280131767935788e-02  9.021205284353930e-03  0
-1.614192679280414e-02  9.853870937839692e-03  0
-9.662091291676573e-03  9.864143990870341e-03  0
-1.172554151067663e-02  1.204575692948430e-02  0
-9.171879063558116e-03  1.340434486582550e-02  0
8.603599702696455e-03  -1.807021469081334e-02  0
9.944160596527127e-03  -1.527411555426408e-02  0
1.165735380382226e-02  -1.813782667873664e-02  0
1.215893262986156e-02  -1.590302891692928e-02  0
1.390733774752499e-02  -1.741772381482623e-02  0
1.591950399567206e-02  -1.606627507669475e-02  0
1.722045023772781e-02  -1.825383222744911e-02  0
1.507728228069480e-02  -1.956104084312204e-02  0
1.956131741467802e-02  -2.013773559263524e-02  0
1.668155384325830e-02  -2.230730970371395e-02  0
2.015549714682340e-02  -2.329247813206754e-02  0
1.994271833444024e-02  -2.654976735775393e-02  0
2.418058023678118e-02  -2.635038386857123e-02  0
1.415960917170531e-02  -1.332505547062451e-02  0
1.819571863541083e-02  -1.481002685466051e-02  0
1.955761399605841e-02  -3.050023380119849e-02  0
2.443715242276497e-02  -3.065004653240405e-02  0
-1.462957432439363e-02  -1.385043208276645e-02  0
1.878609906180391e-03  -2.834568219623065e-02  0
-1.122912544754822e-02  1.475551589646584e-02  0
-7.635844626671288e-03  1.536311675861049e-02  0
-1.369146725919703e-02  1.538150156305032e-02  0
1.290662753153689e-02  3.275846215179080e-02  0
1.117292013357792e-02  3.734728003491261e-02  0
-1.671103595632713e-02  -1.459591703634834e-02  0
2.272744271199812e-02  -1.987007751403658e-02  0
-3.482980956124729e-03  -2.302612412088730e-02  0
1.577676646859810e-02  3.734280607909505e-02  0
2.119573701440246e-02  2.792839460496419e-02  0
2.261184837858823e-02  2.484389407294281e-02  0
2.601027255062870e-02  2.719037531469045e-02  0
2.737057439017924e-02  2.438778208304418e-02  0
3.054170622912164e-02  2.932804455470489e-02  0
2.555387169184213e-02  2.203147352615488e-02  0
4.497493651450931e-03  3.314450760792731e-02  0
4.118848009479797e-03  2.989252283922161e-02  0
1.537961317062831e-02  -2.997285823733711e-02  0
1.885021746372778e-02  -3.472158096352806e-02  0
-1.003126424164864e-02  1.694845257429163e-02  0
-6.068837922399763e-03  1.747912296016024e-02  0
1.196282670462808e-02  4.254267624350788e-02  0
2.808211636285375e-02  -2.547036996143498e-02  0
3.039502596718736e-02  -2.990200624854361e-02  0
3.033273268309460e-02  -3.720578944318983e-02  0
2.733804233203081e-02  3.290670891230907e-02  0
2.002067746734861e-02  4.260558968962849e-02  0
3.363884235444126e-02  3.441690993491282e-02  0
7.379473996044429e-03  -1.272413269485185e-02  0
-8.868360804896445e-03  -3.642149240639895e-03  0
-7.503916590782074e-03  1.128764695707168e-02  0
2.833182184246586e-02  1.980842678168508e-02  0
1.335973759785262e-02  -3.413050760370566e-02  0
1.547273498964982e-02  -4.001215686950462e-02  0
-1.510375813786761e-02  -1.619894777125791e-02  0
-1.304955706781371e-02  -1.731784509198128e-02  0
2.641683922426623e-02  1.667273222740632e-02  0
-1.888947423781090e-02  4.055085146933667e-03  0
8.736584644241097e-03  -4.027132286278728e-02  0
2.289090768041641e-02  1.851470139257781e-02  0
2.510568388117952e-02  1.388568080434684e-02  0
-8.670901484469383e-03  1.987249880651948e-02  0
-5.035967568788810e-03  2.048163996927712e-02  0
-2.246740629154137e-03  1.889250779491568e-02  0
-2.074125073392691e-03  2.163249961391462e-02  0
-2.731251955548825e-03  2.460062414154533e-02  0
1.442721735526074e-02  -4.752576818540374e-02  0
2.230876839411485e-02  1.430427539467955e-02  0
2.371897421530732e-02  1.162810113321024e-02  0
2.051921617277815e-02  1.199170043187115e-02  0
2.209728826716735e-02  1.008337021371409e-02  0
1.922056405152819e-02  9.388084457782954e-03  0
2.065947784105074e-02  6.392900941955084e-03  0
1.638099181254379e-02  7.679471015935793e-03  0
1.767766850278498e-02  4.562707606298562e-03  0
1.455754147186894e-02  4.354384841792545e-03  0
1.727885613767322e-02  1.511156555745012e-03  0
1.957849125565107e-02  9.091340345220503e-04  0
1.913345918308379e-02  -1.197070924133552e-03  0
1.625621270229011e-02  -1.364579581192842e-03  0
2.146982144981440e-02  -1.556730454134312e-03  0
2.032634983609506e-02  -4.040834074739057e-03  0
2.546367959471425e-02  1.019516955174245e-02  0
3.611183925399166e-02  -3.568659931892117e-02  0
-1.828636250446323e-02  -1.596251974965690e-02  0
-1.989300415130370e-02  -1.393661173682041e-02  0
-2.203438166432279e-02  -1.614173267868398e-02  0
-2.336687951859250e-02  -1.320870677705353e-02  0
1.541803905154713e-03  3.246070994084085e-02  0
3.118770103233899e-03  3.585053226737683e-02  0
2.095585443634404e-02  -4.774693201502565e-02  0
1.332822028564971e-02  -2.296141391023697e-02  0
-9.644582036562519e-03  4.452189293755788e-03  0
-2.440875198701876e-03  -3.605273889877865e-02  0
1.478723378437320e-02  4.813773131119148e-02  0
7.894264648088713e-03  4.883628620149445e-02  0
-1.441390202427391e-02  -1.958626818086294e-02  0
-1.089072458464466e-02  -1.894239468037982e-02  0
3.561049322785334e-02  2.724462202582522e-02  0
3.834485352182590e-02  3.191850946775226e-02  0
2.311848346933386e-02  -4.421838890643226e-03  0
2.198788416056457e-02  -7.056868381662745e-03  0
1.901496954036334e-02  -6.716822981098582e-03  0
5.318106808964529e-04  2.474017293336792e-02  0
-1.933448452907641e-03  2.779009430910840e-02  0
-2.459824024882849e-02  -1.680957271422127e-02  0
-2.627777422756125e-02  -1.407549085021389e-02  0
-2.682462225139360e-02  -1.755952721783256e-02  0
-2.937908139567141e-02  -1.435981306662904e-02  0
-2.990700906585896e-02  -1.747067543472084e-02  0
-3.247168616990954e-02  -1.455975163540765e-02  0
-3.518180102477951e-02  -1.684695939791041e-02  0
-3.607467547514507e-02  -1.365020970230914e-02  0
-3.901633929868659e-02  -1.863276191520299e-02  0
-4.078434037431509e-02  -1.303247971263096e-02  0
-4.553078112544096e-02  -2.001086735184369e-02  0
-4.654649134168704e-02  -1.416008627841160e-02  0
-4.305514079438583e-02  -7.054853695473132e-03  0
-4.899820970115364e-02  -8.666085924246890e-03  0
-4.568769855060481e-02  -1.794479804939307e-03  0
3.222168650448888e-02  -2.498441224410702e-02  0
3.201767985444434e-02  -2.127039050674395e-02  0
-1.188672282552205e-02  2.057204077410950e-02  0
7.112670427710644e-03  -4.576465098454158e-02  0
2.246085546170311e-05  3.504765332039044e-02  0
1.217137443022544e-03  3.831702822387446e-02  0
2.205864174241342e-02  7.477149961382817e-04  0
3.406249460338436e-02  -4.337963340296073e-02  0
2.525429360313915e-02  -7.608097261402809e-03  0
2.329899170117841e-02  -1.005742973103410e-02  0
2.605522937015755e-02  -1.047740683575726e-02  0
2.446402350692608e-02  -1.266922509570508e-02  0
-1.175252551487808e-03  3.242739172642831e-02  0
3.090170578719261e-02  1.779125058460230e-02  0
3.481876952967045e-02  4.065187767503387e-02  0
1.998300006602854e-02  1.773329934010105e-02  0
1.084828680632117e-02  -3.004362816204648e-02  0
2.001841345218488e-03  -1.086171607319437e-02  0
1.483583985181062e-02  1.023046501001066e-02  0
-9.052705367290552e-03  -1.639432227585266e-02  0
-7.214291698877557e-03  -1.841932244087685e-02  0
-8.891850527203350e-03  -2.062240426962666e-02  0
-3.543605053109998e-02  -1.082472519309422e-02  0
-4.732742782691342e-03  2.708005578261218e-02  0
-5.219945953410388e-02  -2.001816434365873e-02  0
8.670251131148941e-03  -5.289074195626903e-02  0
4.003035936967132e-02  -3.976864616064368e-02  0
4.549260451939250e-02  -3.282419752247197e-02  0
5.893390121454356e-04  1.863348305844334e-02  0
4.251480755158714e-04  1.587191431112350e-02  0
-2.152401530812022e-02  -1.137730340320719e-02  0
-3.290719322492335e-02  -1.978080361386076e-02  0
-8.903379045915035e-03  2.321943467760856e-02  0
1.799256052559597e-03  -3.576036047907465e-02  0
1.882487375633964e-04  -3.877627285919235e-02  0
2.681523866294663e-02  -1.275554579226105e-02  0
2.636193265223285e-02  -1.513464987455161e-02  0
2.931777182251027e-02  -1.503699914319059e-02  0
-5.274849049737981e-02  -1.927242522107430e-03  0
-4.828079794332638e-02  3.496150198521848e-03  0
-4.304661781923674e-02  4.869384021730530e-03  0
-4.438311031028110e-02  1.001910397067616e-02  0
-3.897874787101377e-02  1.170374006390019e-02  0
-4.166133443871255e-02  1.568339519694278e-02  0
-4.635294135698909e-02  1.587037197009572e-02  0
-3.640311415284378e-02  1.572794995231296e-02  0
-3.480347721570563e-02  1.060520549963852e-02  0
-3.273190459682485e-02  1.370034073552195e-02  0
-2.994317237416962e-02  1.023945590666584e-02  0
-2.690108705095942e-02  1.319133809100925e-02  0
-2.543820405582429e-02  9.978646780088845e-03  0
-2.370792889505278e-02  1.373305094817258e-02  0
-3.371394294573394e-02  1.782828738496522e-02  0
-4.449008459743888e-02  2.131190944441962e-02  0
-5.216927323324434e-02  2.223267228721448e-02  0
-2.432081742743190e-02  1.670651201514440e-02  0
-2.180020865522704e-02  1.649110936800104e-02  0
-3.296822447824723e-02  6.601801421277556e-03  0
-2.240488126677559e-02  1.137355314647689e-02  0
-2.329692031207846e-02  8.377388611925453e-03  0
-2.896888322019961e-02  -1.101535529457344e-02  0
3.572050463837208e-02  -2.065858012389537e-02  0
3.625486924072135e-02  -2.457436592482134e-02  0
4.230713228385257e-02  2.804377006827748e-02  0
4.653137766778335e-02  3.150484599266992e-02  0
-2.820892485019801e-03  3.925175285861822e-02  0
-2.330952753708004e-02  -1.900020479581264e-02  0
-2.268804829399481e-04  4.168019891966324e-02  0
3.296440620062407e-02  1.987774284025643e-02  0
2.180986588213567e-02  5.220933883809779e-02  0
2.163545349811812e-03  -5.235783039031679e-02  0
1.829644471669910e-02  5.697434313303332e-02  0
-5.566342156563373e-02  1.588302724428870e-02  0
9.544127589160465e-03  -2.111748464999783e-02  0
-3.550180640252520e-02  -3.352604298276630e-03  0
-6.015111645753525e-02  -7.119082597874788e-03  0
3.281185499407948e-03  1.582300341172988e-02  0
3.555386541962362e-02  1.726746732808359e-02  0
3.633052842655925e-02  2.132208232994751e-02  0
4.439195348047163e-03  3.963391127903337e-02  0
-2.273876077920032e-02  1.963596146272239e-02  0
-2.005188864384320e-02  1.829520624546843e-02  0
-1.906107985386716e-02  1.628540160990335e-02  0
-1.727641130520874e-02  1.882255025077904e-02  0
-5.890116664443339e-02  5.860003634578073e-03  0
-5.999347996181654e-02  2.349105163917681e-02  0
-5.357222993626121e-02  3.193889914877371e-02  0
-3.669216347029573e-02  7.983803954012267e-04  0
-4.666599562163964e-02  -2.513943694730065e-02  0
-5.216480618118467e-02  -2.549028126363082e-02  0
1.827619245493118e-02  3.198374028723219e-02  0
2.891946108624879e-02  -9.673253543606618e-03  0
2.365396901220232e-02  -1.486605660766659e-02  0
3.865047212724400e-03  -3.323512615125120e-02  0
-1.168040493551270e-02  2.335178212871052e-02  0
-5.062145172197936e-02  -3.095540579336787e-02  0
-5.631119483019487e-02  -3.292037696626304e-02  0
2.598905069495493e-02  -4.705568578277407e-03  0
2.237292732425374e-02  3.718912695463380e-02  0
3.543275184747684e-02  -1.453018926661665e-02  0
-1.023504257414081e-02  -2.997316869147651e-02  0
-1.061798558040511e-02  -2.680218210016843e-02  0
-1.315269913624347e-02  -2.455326179582708e-02  0
-1.565392386374692e-02  -2.458539903771478e-02  0
2.952911496443364e-02  -2.247663288608584e-03  0
2.784732776773434e-02  -1.905309948959071e-04  0
2.757178853436271e-02  3.817469927998059e-03  0
3.002943435197814e-02  5.175178114072767e-03  0
3.067895134923819e-02  7.959911967313701e-03  0
-1.897145532842250e-02  2.421717213766713e-02  0
-3.045593510374639e-02  2.412528332151313e-02  0
-2.928229711974518e-02  2.139594052440965e-02  0
-3.269298475132321e-02  2.331977123746904e-02  0
-7.659756155953235e-03  3.139358145557339e-02  0
-4.023685532579398e-02  -2.366385723958911e-02  0
-3.373265767074748e-02  -2.509849315122098e-02  0
-3.939933324325798e-02  2.862653861282857e-02  0
-4.226635575488184e-02  2.882259676309672e-02  0
-5.120540051146796e-03  -4.167506557039327e-02  0
-7.773020623577593e-03  -2.773921848055485e-02  0
1.010715216967867e-03  2.732480632052978e-02  0
3.339782736600725e-03  2.455542768768739e-02  0
3.829267155139685e-02  -1.677433361377686e-02  0
-5.495228425444839e-02  5.319331002086976e-02  0
-3.563273151263933e-03  3.004713538751150e-02  0
-3.882884742653900e-02  2.499990974065775e-02  0
-1.441938056047736e-02  2.083888161461165e-02  0
-4.810755514354862e-03  4.152638544794697e-02  0
-2.316969387381242e-02  2.337188992412489e-02  0
-5.313198618118208e-02  -3.802335023302853e-02  0
-5.977179823133087e-02  -3.786650250344289e-02  0
-5.918107244823959e-02  -4.536411231571029e-02  0
7.455859054069590e-03  -5.950724544531985e-02  0
1.517124897142397e-02  -5.891934757896514e-02  0
6.922390123548382e-04  -5.836620119681783e-02  0
2.812146648405421e-02  -7.028351611009921e-02  0
4.901899037547244e-02  2.661046763450128e-02  0
-2.342899504273261e-02  -2.310331043391880e-02  0
8.561098912702479e-03  -3.572572225739190e-02  0
2.012206317602945e-03  -4.769191321860488e-02  0
-3.054995314302787e-02  -2.388301299190150e-02  0
-1.376766727609469e-02  2.659686935617640e-02  0
-7.930108112329630e-03  2.868015275175678e-02  0
3.848691213135406e-02  1.669284619897951e-02  0
-2.940779131641808e-02  1.628712452639165e-02  0
-5.924640850192078e-02  -1.850888033316932e-02  0
-3.939663246671642e-02  1.948655016101026e-02  0
6.394066286831766e-02  2.818849829717066e-02  0
6.187821892954626e-02  -2.958108328431281e-02  0
-3.982671088482797e-02  -2.817407798096803e-02  0
-3.641198106702440e-03  3.606586251872108e-02  0
4.421119305402232e-03  -3.951982339863999e-02  0
7.266709811788253e-03  -3.202565172635153e-02  0
8.115929800137162e-03  -2.716107830190449e-02  0
5.675403300713411e-02  4.934206886281885e-02  0
5.931790916010549e-02  -5.231449709996619e-02  0
-5.521920141653466e-03  4.851140472647798e-02  0
-2.786179472083229e-03  5.148793165841590e-02  0
-2.496041353570395e-03  4.688995003193713e-02  0
-4.763879700275179e-03  5.549613972471210e-02  0
-4.883045097003818e-04  5.683644115529903e-02  0
-3.624928593057070e-03  6.068119039257355e-02  0
-4.609887565069340e-03  7.727518140083400e-02  0
2.674208209862474e-03  4.990424721762746e-02  0
4.543487034455264e-03  6.058789054242956e-02  0
5.957158359618780e-03  5.429117781006580e-02  0
-9.021986075716547e-03  -5.571326378039206e-02  0
-4.976149030580348e-03  -4.925859470671465e-02  0
2.933745126466082e-02  1.439759141887960e-02  0
3.039192471823375e-02  7.282870653600092e-02  0
-7.686973345089008e-02  -4.772616297842772e-03  0
-3.800961470421547e-02  5.769100925608656e-03  0
5.182866280253301e-02  2.032652660258373e-02  0
4.459192177797563e-02  1.952886498102728e-02  0
5.173999635135085e-02  -2.041174830663844e-02  0
5.060908859687394e-02  -2.302679820553994e-02  0
5.539022518617868e-02  -2.463402739512441e-02  0
4.537468788408803e-02  -2.427209075063307e-02  0
5.212600721978607e-02  -2.960004303416952e-02  0
4.329022201960960e-02  -2.027311498906762e-02  0
2.728643743627882e-02  6.754176010549374e-03  0
-7.253492261707822e-02  2.610171563986089e-02  0
4.170703512032603e-02  2.116305053732341e-02  0
-3.617772968660217e-02  2.388155716820981e-02  0
-5.694162276996891e-03  3.824181414887836e-02  0
-7.356233005394273e-03  -2.434358495296743e-02  0
-2.923624641245220e-02  -2.132617553668305e-02  0
2.416549277429924e-02  4.061782840881111e-03  0
-4.401294586890696e-03  3.278155755067244e-02  0
2.908169765491860e-02  -1.784342496615361e-02  0
-2.060343062587868e-02  7.715930548303101e-03  0
-4.323270652976532e-02  3.572369211645102e-02  0
-4.579609484054477e-02  -3.979969106395287e-02  0
-4.381380780246306e-02  -3.407470702820585e-02  0
-4.804888807971896e-03  -3.799992604335927e-02  0
2.767317157736330e-02  -2.144518916582222e-02  0
4.537364377209585e-02  2.345494466797447e-02  0
6.903574787242419e-03  2.715052746367390e-02  0
2.700314477967846e-02  1.233969179311646e-02  0
-2.195387060517499e-02  4.833208203086249e-03  0
3.218772778362983e-02  -1.784294093440656e-02  0
9.322828558759471e-03  2.427383837383898e-02  0
2.071800517726468e-02  2.148611025611216e-02  0
1.852704679555283e-02  1.962457689895748e-02  0
5.434679690980346e-02  -2.002613875919485e-02  0
5.431310558551103e-02  2.003298549735216e-02  0
5.498451662803980e-02  2.415674192936790e-02  0
5.435293879797935e-02  3.202228413743483e-02  0
2.560350848027354e-02  4.543260589928535e-02  0
3.303109723779869e-02  4.827288203864238e-02  0
4.298116222517329e-02  5.065904214911510e-02  0
-3.921879746649112e-02  -4.268610409101218e-03  0
3.066110661369550e-02  1.149668600155082e-02  0
1.812005637054127e-03  4.594400382348201e-02  0
7.701282819562860e-02  -1.648272639847996e-02  0
7.660375138692711e-02  1.642490410222397e-02  0
3.307441187774655e-02  1.492134255168473e-02  0
4.011984535756077e-02  -2.296009923613422e-02  0
1.865957201251910e-02  1.488894551107560e-02  0
3.891213928176556e-02  -1.957736271989730e-02  0
-2.072175271203142e-02  1.457055064309067e-02  0
-1.784024828897371e-02  1.341256753466613e-02  0
-1.073336108785003e-03  3.023935634531133e-02  0
5.279192619505885e-02  -3.840390108124662e-02  0
-2.571840795778589e-02  -2.073645083247302e-02  0
-1.730263409073085e-02  2.148888096501244e-02  0
-2.974150227681193e-03  1.566476223584450e-02  0
-1.291860187986162e-03  1.274605240592856e-02  0
-1.983273239422978e-03  -5.136662211649383e-02  0
-2.738744830369862e-02  7.612911513198972e-03  0
-1.970682442719997e-02  -1.806078209808759e-02  0
1.370754728972434e-02  6.767327367795077e-03  0
1.191438472841616e-02  4.091501492788085e-03  0
1.373042194873552e-02  1.382602763002756e-03  0
1.155247204841849e-02  -1.434422322691173e-03  0
1.382857654156547e-02  -3.267859575362389e-03  0
9.848277456873528e-03  -3.477028888800151e-03  0
1.142812373715041e-02  -5.930734536711524e-03  0
8.295779193374229e-03  -6.517621287738348e-03  0
7.381720374354303e-03  -4.185060547932973e-03  0
5.596896233272249e-03  -7.176633172571380e-03  0
1.115899749417871e-02  -9.510456841011308e-03  0
1.025065894325179e-02  1.327620443897233e-03  0
9.341322282937653e-03  3.719293751216609e-03  0
1.566577795351426e-02  -5.917694851723982e-03  0
-1.170678241572310e-02  -1.419218205678380e-02  0
-6.321980681186117e-03  -1.390683232649277e-02  0
1.697920229922346e-02  1.170029616226924e-02  0
1.327941873909932e-02  1.261587674538680e-02  0
-1.685255546903624e-02  -1.844789955221874e-02  0
7.431041620582292e-03  -9.506191145181545e-03  0
1.775312056283572e-02  -1.239488849036691e-02  0
2.031809484524307e-02  -1.190013638714165e-02  0
8.572763596342958e-03  -1.302784058435034e-03  0
1.054268071640679e-02  -1.266970621099908e-02  0
1.470074946237689e-02  -9.543284785187279e-03  0
1.791572222038433e-02  -3.356783647350727e-03  0
-1.267927361468355e-02  -1.222887304146845e-03  0
-1.110080661039847e-02  1.581715301225620e-03  0
-8.243462102220132e-03  2.009194225625740e-03  0
-6.759234041709624e-03  4.927804167590345e-03  0
-8.259923836180997e-03  7.502046342074933e-03  0
-5.136635014614480e-03  8.469181869142150e-03  0
-2.922661334027491e-03  1.078762487664187e-02  0
-1.645273436461898e-03  7.872854712805778e-03  0
-2.513026145158865e-03  -2.107547389048596e-02  0
-8.478046746040896e-04  -1.792714783614256e-02  0
-1.746469549301297e-02  6.959496626235794e-03  0
-5.555232395734383e-03  -1.059065400011346e-02  0
9.675243926662225e-05  -8.407408136604646e-03  0
3.352933338963196e-03  -2.274116340361244e-03  0
-3.956631928039475e-03  -2.222013904844576e-04  0
4.319781305703212e-03  -1.301164097951223e-02  0
-5.845858980812460e-03  -3.060846099756834e-03  0
-8.823598801763340e-03  -1.124374609216528e-02  0
-1.930810249965204e-02  7.572630953864008e-02  0
-1.197588053454249e-02  -3.346951293658892e-03  0
5.134962575296137e-02  4.012146626664875e-02  0
-9.899517447484487e-03  -8.706929199450524e-04  0
3.595783344812126e-02  1.423486262945250e-02  0
-6.887819895098723e-04  5.430111286344141e-03  0
2.847553052517747e-02  -7.270123815015291e-03  0
-5.340613109826293e-03  1.319454601080418e-02  0
-2.148623244595608e-02  -6.725097772222392e-03  0
-3.523245713797719e-03  -1.933496908077487e-02  0
-6.978010236989320e-03  -5.422140589195478e-04  0
-5.324098194753017e-03  2.333634990158002e-03  0
-3.716515919149482e-03  5.280104290518367e-03  0
-3.276720627537438e-03  -1.303703560761334e-02  0
-4.823782812875491e-02  3.573926625356681e-02  0
-5.027383822527048e-02  3.973000401186066e-02  0
3.930206961506011e-03  -2.688105106991659e-02  0
-1.840167525065469e-02  -6.156725551310095e-03  0
9.286840546809308e-04  8.135566554991269e-03  0
-1.709285441506324e-02  -8.657498702860211e-03  0
-1.261625593022221e-02  1.791081483973488e-02  0
-5.989464596766683e-03  -2.135815729424957e-02  0
-4.850776123886867e-03  -1.687693040036440e-02  0
-3.560994958467659e-02  -2.149140328776265e-02  0
-1.788893387572443e-02  -1.232088059746619e-02  0
1.098495132833557e-03  1.329728053201173e-02  0
-6.015245958831515e-03  2.362534987257888e-02  0
9.223853821017606e-06  1.042905557426530e-02  0
-2.014920424143297e-02  1.005005051832174e-03  0
3.485696249397318e-03  1.359877682689720e-02  0
1.087905480488405e-02  1.150378470466310e-02  0
1.325072981660958e-03  2.185942183981039e-02  0
5.868782838468002e-03  1.561321773154067e-02  0
3.376419741101496e-03  1.819170050840063e-02  0
1.804108824174393e-02  -9.568124110278577e-03  0
-9.253689678872365e-03  2.575938055974957e-02  0
6.806936007436420e-03  -2.213254435868092e-02  0
-2.491435513312532e-02  -1.086957941374058e-02  0
-3.215579900418700e-02  -7.764048524987115e-03  0
-1.939793729017192e-02  -9.218762244884207e-03  0
1.241633628862980e-02  -2.043310712768407e-02  0
-4.477432995707476e-02  -4.754566744209966e-02  0
-4.802766975819881e-02  -5.104462654881767e-02  0
-4.116743758775707e-02  -1.875037499717704e-04  0
-5.133762338524447e-02  6.070136519408419e-02  0
-1.921762015023104e-02  1.060297899404652e-02  0
-1.532532704380185e-02  -2.199754901131856e-02  0
1.995664111372673e-02  -1.694429395653009e-02  0
-1.819170228212791e-03  -4.349600598599786e-02  0
7.565128900179461e-03  2.149416961838208e-02  0
8.039547282707459e-03  -2.433873733669606e-02  0
-2.323655291175074e-02  1.726149970298347e-03  0
3.075776744572703e-02  2.339095632080732e-02  0
2.410071086427372e-02  -1.890652033273823e-03  0
2.096597847987891e-02  -9.652099139186243e-03  0
-2.848771761572685e-02  -6.457675776650849e-03  0
-7.349434880356388e-03  -7.572555754505240e-02  0
-2.024190344366469e-02  -7.537555366554567e-02  0
3.246853791786333e-02  -1.475331231522621e-02  0
-5.607678581194754e-02  -5.437365647362546e-02  0
-4.798741225908241e-02  -6.332617265008091e-02  0
1.154292593327058e-02  -2.650022880163624e-02  0
4.818660157923957e-03  2.075344476918127e-02  0
6.462888364634741e-03  3.413894549090699e-03  0
-5.080912608150191e-02  -4.383902175970237e-02  0
2.833539002657016e-02  9.662889209708566e-03  0
-2.317243555832146e-02  -8.940944662542740e-03  0
-1.487555271612684e-02  1.267754665374506e-02  0
-6.428931947442856e-02  1.622656604870810e-02  0
-6.582424313306844e-02  4.255615110974741e-04  0
1.290408503319149e-03  -3.187152932457231e-02  0
-4.305041650368803e-02  6.940709571962753e-02  0
-4.414996493695093e-02  6.217505055413242e-02  0
-3.066799666865204e-02  7.381979918812985e-02  0
-1.651738213440560e-02  6.746208323374503e-02  0
2.563545993322938e-02  -1.814079831911860e-02  0
3.741111209621707e-02  -3.029090730512079e-02  0
4.224240808221827e-02  -2.656845379253405e-02  0
-2.473134774217226e-02  5.892108574972763e-03  0
-1.770463599912225e-02  -2.153126863143554e-02  0
-3.237843806578251e-02  -1.103598568131837e-02  0
1.519301386521404e-02  3.036997890649597e-02  0
-3.200147683122851e-02  2.116337808557101e-02  0
3.545619249672011e-02  -1.738119603503240e-02  0
-4.047532445736321e-02  -7.053445170467813e-02  0
-4.424278588235572e-02  -5.642213122892623e-02  0
-2.906766676152989e-02  4.449002262410997e-03  0
7.888695988419496e-02  -6.726798488194396e-03  0
7.146080931737858e-02  -1.196341098238856e-02  0
7.791928287037764e-02  6.178287659256320e-03  0
7.245884464332490e-02  1.031611057688011e-02  0
7.554242954193731e-02  -9.560662041271570e-04  0
-1.663612527762008e-02  1.629138232106691e-02  0
-6.617752304286561e-03  -6.004007970501201e-02  0
-1.193763330972138e-02  -6.276105731109137e-02  0
-4.368851387116456e-03  -6.723663244298905e-02  0
4.665699035501784e-03  -6.665448875236006e-02  0
3.617672092652022e-02  -4.986058558602724e-02  0
2.547509661340607e-02  -5.744667400630718e-02  0
6.260224043642339e-03  3.639561876832768e-02  0
6.735075245088291e-02  2.013354821496820e-02  0
6.699756518172337e-02  -2.035647563783964e-02  0
2.114894278836240e-02  3.311259896010462e-03  0
-4.508687046248974e-02  3.299212177411527e-02  0
-4.534478673075590e-02  -2.952770494998426e-02  0
1.240137263799104e-02  9.174546924574620e-03  0
1.182452317714635e-02  1.495750892479889e-02  0
3.187013683888004e-02  -8.741021160088805e-03  0
1.644555016996595e-02  1.777288045206112e-02  0
-4.632903958449887e-02  4.132854966211778e-02  0
-3.299853298376976e-02  -7.262352566680409e-02  0
-1.716444515376631e-02  -6.756239659198306e-02  0
2.132360886050505e-05  6.504545858589308e-02  0
-7.966587543323803e-03  6.715713178367549e-02  0
-4.670827840428449e-02  2.848967264402564e-02  0
1.541447260179418e-02  1.396212543309600e-02  0
3.052333292195503e-03  -8.473387274471961e-03  0
2.934996068956957e-02  -1.228695583468738e-02  0
1.131530668132843e-02  6.215409623090183e-03  0
-2.665879818513369e-02  -8.847272481122669e-03  0
2.395098597244171e-02  7.490112417732512e-03  0
3.908628884607695e-02  2.451791447770740e-02  0
8.170604615719956e-03  6.643695572386586e-03  0
2.883015602524196e-02  5.680524561552283e-02  0
-1.270223059243928e-02  -2.152097240842511e-02  0
-4.852558673959416e-02  -3.580097963804401e-02  0
-4.736979243709554e-03  -2.603861019980988e-02  0
-6.724078871400453e-02  -1.393393556932810e-02  0
4.413333030841452e-03  -1.059966853387159e-02  0
1.507396892235134e-02  1.954352982868970e-02  0
1.066992407713287e-02  6.212747322696086e-02  0
3.422293244500959e-02  2.417959694197632e-02  0
6.281462914666204e-02  -1.725368369102090e-02  0
6.296669663971842e-02  1.732772033653066e-02  0
7.653328979258543e-03  9.394616371359105e-04  0
-1.177689508715255e-02  6.006594451427757e-02  0
6.237615679647106e-02  -2.247823042663116e-02  0
6.366270267670922e-02  2.216204599736414e-02  0
-7.689060474141637e-03  5.467008473611679e-02  0
-3.851480868797891e-02  -9.464902702680507e-03  0
4.848694178291631e-03  -3.635421277619025e-02  0
-2.090169081886584e-02  -2.114936133675731e-02  0
1.537137946619206e-02  -2.603345809954380e-02  0
-2.110016672968458e-02  2.190580979627366e-02  0
2.305367339530373e-02  3.144157990758024e-02  0
-1.901555107544035e-02  -6.234587839759489e-02  0
-1.939364174946430e-02  6.328599313600353e-02  0
6.125934732763938e-03  -1.799843922602263e-03  0
-3.569820868737270e-02  6.756452660563853e-02  0
-7.732203293242013e-03  6.167680383916893e-02  0
-5.637303914016002e-02  4.568122429409036e-02  0
2.339532021765281e-02  -4.174316789507745e-02  0
4.486306327144177e-03  -4.833794793902820e-03  0
6.324407126506761e-03  2.388282011531511e-02  0
1.063792974585323e-02  -2.379546661854624e-02  0
3.162839000697170e-03  4.233077456117634e-02  0
6.833454961711692e-03  4.435837714662413e-02  0
-3.332775483289569e-02  6.103394882666597e-02  0
-2.631578861243140e-02  6.842628964966030e-02  0
-4.752959015975524e-02  5.502374825388934e-02  0
-4.982554242501183e-02  4.935211195986301e-02  0
-5.543486814680063e-02  3.888094198610453e-02  0
2.059802937387938e-03  -4.299304607083525e-02  0
-1.282957607327528e-02  -5.983704159273817e-02  0
2.261003868168377e-02  -1.204474665084585e-02  0
-5.378973284596128e-02  -1.330956504394477e-02  0
-3.417023780917115e-02  -6.672724842664676e-02  0
-2.125845073019796e-03  -4.720762106630063e-02  0
4.836702994282285e-02  -2.651098763052102e-02  0
-1.494913979141507e-02  1.865016680503401e-02  0
-2.495533615803949e-02  2.132393888362586e-02  0
-3.103363028904907e-03  4.311668238423341e-02  0
-6.057254483850215e-03  -3.072341767392127e-02  0
-3.875820095812427e-02  -2.633660714256242e-02  0
-3.711695828348834e-03  -5.462738072969351e-02  0
2.359777766326851e-02  -3.534590417226025e-02  0
2.818018146676705e-02  3.804809003809793e-02  0
-1.313706122891285e-02  6.374572201178126e-02  0
1.884036323358407e-02  -5.246651627348310e-02  0
2.832281155338846e-02  -4.849024109496269e-02  0
-5.141157584046643e-02  1.027090093498822e-02  0
-4.955140281526885e-02  4.503249269559472e-02  0
-1.472859266773127e-02  2.384821774097910e-02  0
3.926932668243596e-02  1.921076914319468e-02  0
-1.021645496643328e-02  -2.360935556004855e-02  0
-2.651834367659070e-02  -6.813319204124335e-02  0
3.910888756063708e-03  2.724741310715079e-02  0
2.108296714904990e-02  -1.412109397066803e-02  0
-6.297874928921077e-02  3.022467003588316e-02  0
4.318927058072456e-02  3.879631352593135e-02  0
5.797905374084275e-03  -2.540375326490893e-02  0
-3.597567385578173e-02  -7.201256572507095e-03  0
-6.090841394685346e-02  -2.645065961608136e-02  0
-1.162132480992787e-02  2.592425167053326e-02  0
-3.917777274404328e-02  -5.853852517163264e-02  0
-4.192924693956613e-02  -5.336502967932322e-02  0
1.284696794881562e-02  5.578431095637448e-02  0
-1.954043296037400e-02  2.067115285234710e-02  0
-7.150143912918713e-02  -3.380661279458346e-02  0
-2.990721092961502e-02  -8.259497584670570e-03  0
-3.038782982188278e-03  -4.062884517572136e-02  0
-2.998818459392755e-02  1.694737514807235e-03  0
6.932529084107557e-02  1.616822956440555e-02  0
6.845182183455985e-02  1.136016812865403e-02  0
6.971770202298870e-02  7.314338814820264e-03  0
6.950512825954050e-02  -1.630696271632739e-02  0
6.747050725993238e-02  -1.076169593365020e-02  0
6.898458448252773e-02  -7.790559700850110e-03  0
-3.293106114530858e-02  -2.297550043614021e-02  0
5.933266445071448e-02  2.321399835370164e-02  0
3.247873377502669e-02  9.744828176317591e-03  0
-3.489687384101904e-02  2.119106850695514e-02  0
-6.975066697724448e-03  2.630422407464232e-02  0
4.678800157782549e-02  -4.791347420357509e-02  0
-4.323318027388377e-02  2.521389193051351e-02  0
-2.697842929624182e-02  1.885918692730503e-02  0
-3.642449566837731e-02  -2.414440975435340e-02  0
-2.663568555138806e-02  -6.256361003076738e-02  0
1.603081282983986e-02  2.224401569853502e-02  0
8.611611317863543e-03  3.994782102829584e-02  0
-6.670466099396748e-02  -4.526869326514629e-02  0
-1.829477364033957e-02  -2.427097906862113e-02  0
5.618273704539254e-03  -2.914851867350029e-02  0
2.054772939961691e-02  6.449448103858683e-02  0
-1.135202212274597e-02  -6.775583504660188e-02  0
-4.266303156944744e-02  -2.634694181925305e-02  0
-4.298508269932733e-02  5.658953610670962e-02  0
-3.985185935693546e-02  5.718115998426477e-02  0
7.379859964708839e-02  -7.898730872922668e-03  0
2.656119729159111e-02  -2.378935404301494e-03  0
2.504594363147759e-02  1.000922010156490e-03  0
-5.557328105500027e-03  2.920329548515548e-02  0
3.285272033662181e-03  -3.035823210353633e-02  0
-7.090832883782142e-03  5.784294791000720e-02  0
5.525395354678066e-02  -3.262506800511231e-02  0
1.516102543197412e-02  -6.745418695505973e-02  0
1.657469991421930e-02  -7.741569718238138e-02  0
1.410282552566786e-03  3.001223732418426e-02  0
2.354522603017097e-02  -2.270057843815779e-02  0
-3.864019462633946e-02  -6.408982079232514e-02  0
-3.120518934436247e-02  1.883610869669328e-02  0
5.887982493301384e-02  -2.196550607251788e-02  0
2.892577001408010e-02  6.566155786979500e-03  0
3.043517833594870e-02  -7.026916615845842e-03  0
5.100432260825483e-02  2.304912495121447e-02  0
2.875168112322962e-02  -4.924568107109182e-03  0
2.279106623628411e-02  -1.719904701123119e-02  0
-3.433037116512102e-02  2.560194261512228e-02  0
-9.497245019654669e-04  4.425460375781179e-02  0
-2.225209345027463e-02  9.749279120569095e-02  0
-4.338837402673880e-02  9.009688673484795e-02  0
-6.234898033951506e-02  7.818314812425353e-02  0
-7.818314837320725e-02  6.234898002733696e-02  0
-9.009688685362613e-02  4.338837378009341e-02  0
-9.749279123494115e-02  2.225209332212112e-02  0
-9.749279120569095e-02  -2.225209345027463e-02  0
-9.009688673484795e-02  -4.338837402673880e-02  0
-7.818314812425353e-02  -6.234898033951506e-02  0
-6.234898002733696e-02  -7.818314837320725e-02  0
-4.338837378009341e-02  -9.009688685362613e-02  0
-2.225209332212112e-02  -9.749279123494115e-02  0
2.225209345027463e-02  -9.749279120569095e-02  0
4.338837402673880e-02  -9.009688673484795e-02  0
6.234898033951506e-02  -7.818314812425353e-02  0
7.818314837320725e-02  -6.234898002733696e-02  0
9.009688685362613e-02  -4.338837378009341e-02  0
9.749279123494115e-02  -2.225209332212112e-02  0
9.749279120569095e-02  2.225209345027463e-02  0
9.009688673484795e-02  4.338837402673880e-02  0
7.818314812425353e-02  6.234898033951506e-02  0
6.234898002733696e-02  7.818314837320725e-02  0
4.338837378009341e-02  9.009688685362613e-02  0
2.225209332212112e-02  9.749279123494115e-02  0
-1.535736787576077e-01  6.728502479891744e-01  0
-5.641761683557738e-02  2.471817292367995e-01  0
-2.994465320252273e-01  6.218071288464797e-01  0
-1.100062187999344e-01  2.284302663467376e-01  0
-4.303038857011520e-01  5.395840036331028e-01  0
-1.580786495677390e-01  1.982243559927499e-01  0
-5.395840053053949e-01  4.303038836041637e-01  0
-1.982243566094694e-01  1.580786487943973e-01  0
-6.218071296479339e-01  2.994465303609902e-01  0
-2.284302666439802e-01  1.100062181827036e-01  0
-6.728502481910356e-01  1.535736778731949e-01  0
-2.471817293112116e-01  5.641761650955657e-02  0
-6.728502479891744e-01  -1.535736787576077e-01  0
-2.471817292367995e-01  -5.641761683557738e-02  0
-6.218071288464797e-01  -2.994465320252273e-01  0
-2.284302663467376e-01  -1.100062187999344e-01  0
-5.395840036331028e-01  -4.303038857011520e-01  0
-1.982243559927499e-01  -1.580786495677390e-01  0
-4.303038836041637e-01  -5.395840053053949e-01  0
-1.580786487943973e-01  -1.982243566094694e-01  0
-2.994465303609902e-01  -6.218071296479339e-01  0
-1.100062181827036e-01  -2.284302666439802e-01  0
-1.535736778731949e-01  -6.728502481910356e-01  0
-5.641761650955657e-02  -2.471817293112116e-01  0
1.535736787576077e-01  -6.728502479891744e-01  0
5.641761683557738e-02  -2.471817292367995e-01  0
2.994465320252273e-01  -6.218071288464797e-01  0
1.100062187999344e-01  -2.284302663467376e-01  0
4.303038857011520e-01  -5.395840036331028e-01  0
1.580786495677390e-01  -1.982243559927499e-01  0
5.395840053053949e-01  -4.303038836041637e-01  0
1.982243566094694e-01  -1.580786487943973e-01  0
6.218071296479339e-01  -2.994465303609902e-01  0
2.284302666439802e-01  -1.100062181827036e-01  0
6.728502481910356e-01  -1.535736778731949e-01  0
2.471817293112116e-01  -5.641761650955657e-02  0
6.728502479891744e-01  1.535736787576077e-01  0
2.471817292367995e-01  5.641761683557738e-02  0
6.218071288464797e-01  2.994465320252273e-01  0
2.284302663467376e-01  1.100062187999344e-01  0
5.395840036331028e-01  4.303038857011520e-01  0
1.982243559927499e-01  1.580786495677390e-01  0
4.303038836041637e-01  5.395840053053949e-01  0
1.580786487943973e-01  1.982243566094694e-01  0
2.994465303609902e-01  6.218071296479339e-01  0
1.100062181827036e-01  2.284302666439802e-01  0
1.535736778731949e-01  6.728502481910356e-01  0
5.641761650955657e-02  2.471817293112116e-01  0
6.635205384597830e-02  1.259468397629693e-11  0
6.501476421487451e-02  -3.014952071404989e-03  0
6.325353792391417e-02  -5.923767070329284e-03  0
6.111252720919530e-02  -8.647423848281108e-03  0
5.864742388401306e-02  -1.111252718270528e-02  0
5.592376710820624e-02  -1.325353790900227e-02  0
5.301495210142801e-02  -1.501476421101255e-02  0
5.000000000889508e-02  -1.635205384728107e-02  0
6.501476420802302e-02  3.014952106313639e-03  0
6.319814244580799e-02  1.958903785709287e-11  0
6.103330884464776e-02  -2.984539804047814e-03  0
5.856939691342528e-02  -5.864627499360666e-03  0
5.586462752581199e-02  -8.569396899477257e-03  0
5.298453983985664e-02  -1.103330884128769e-02  0
5.000000001620331e-02  -1.319814245201718e-02  0
4.698504792799994e-02  -1.501476421853482e-02  0
6.325353790517703e-02  5.923767111819590e-03  0
6.103330883258445e-02  2.984539844023395e-03  0
5.854059274197666e-02  1.741063586704894e-11  0
5.582950441498857e-02  -2.960793773471959e-03  0
5.296079378507029e-02  -5.829504418030605e-03  0
5.000000000916734e-02  -8.540592753958069e-03  0
4.701546018878824e-02  -1.103330885199300e-02  0
4.407623292501299e-02  -1.325353792733205e-02  0
6.111252717338852e-02  8.647423893663091e-03  0
5.856939688390392e-02  5.864627537772588e-03  0
5.582950439762514e-02  2.960793800978858e-03  0
5.295194576892169e-02  7.090695218481269e-12  0
4.999999999039441e-02  -2.951945790220355e-03  0
4.703920621861776e-02  -5.829504428717610e-03  0
4.413537249582081e-02  -8.569396922781237e-03  0
4.135257615099866e-02  -1.111252721592124e-02  0
5.864742383611918e-02  1.111252722022493e-02  0
5.586462748086666e-02  8.569396927538107e-03  0
5.296079374945022e-02  5.829504432564162e-03  0
4.999999996889767e-02  2.951945788382625e-03  0
4.704805419028311e-02  -8.891380687270356e-12  0
4.417049557056504e-02  -2.960793796336653e-03  0
4.143060309257436e-02  -5.864627532136735e-03  0
3.888747281326251e-02  -8.647423888158919e-03  0
5.592376706534851e-02  1.325353792872133e-02  0
5.298453979370615e-02  1.103330885211492e-02  0
4.999999996661774e-02  8.540592751861946e-03  0
4.703920618373756e-02  5.829504410276763e-03  0
4.417049555395824e-02  2.960793765261200e-03  0
4.145940723537736e-02  -1.882395107843937e-11  0
3.896669115128644e-02  -2.984539844104805e-03  0
3.674646208658967e-02  -5.923767110805269e-03  0
5.301495206451787e-02  1.501476421925725e-02  0
4.999999997013906e-02  1.319814245163095e-02  0
4.701546014117228e-02  1.103330883896711e-02  0
4.413537244987103e-02  8.569396892776363e-03  0
4.143060306231357e-02  5.864627492108559e-03  0
3.896669113846865e-02  2.984539803496191e-03  0
3.680185754194952e-02  -1.926255162321144e-11  0
3.498523578560613e-02  -3.014952104743895e-03  0
4.999999998730239e-02  1.635205384665463e-02  0
4.698504789154453e-02  1.501476420887346e-02  0
4.407623288189944e-02  1.325353790492309e-02  0
4.135257610317529e-02  1.111252717549337e-02  0
3.888747277803233e-02  8.647423840192459e-03  0
3.674646206899748e-02  5.923767068411514e-03  0
3.498523577988503e-02  3.014952069738466e-03  0
3.364794615150320e-02  -1.277020915228799e-11  0
-8.647946155976008e-03  4.330127019921841e-02  0
-9.985235786575408e-03  4.028631811964448e-02  0
-1.174646207641931e-02  3.737750312313060e-02  0
-1.388747278518157e-02  3.465384635031699e-02  0
-1.635257611564463e-02  3.218874300834022e-02  0
-1.907623288900740e-02  3.004773228214509e-02  0
-2.198504789311628e-02  2.828650598062826e-02  0
-2.499999998611598e-02  2.694921634382136e-02  0
-9.985235793719077e-03  4.631622229013987e-02  0
-1.180185755609668e-02  4.330127020740721e-02  0
-1.396669115747298e-02  4.031673038563550e-02  0
-1.643060308225834e-02  3.743664269674401e-02  0
-1.913537247786166e-02  3.473187328771587e-02  0
-2.201546016175590e-02  3.226796134706799e-02  0
-2.499999998266863e-02  3.010312773906414e-02  0
-2.801495207147489e-02  2.828650597420836e-02  0
-1.174646209381819e-02  4.922503729248995e-02  0
-1.396669116613354e-02  4.628581002780489e-02  0
-1.645940725712718e-02  4.330127020214066e-02  0
-1.917049557636432e-02  4.034047641828268e-02  0
-2.203920621554752e-02  3.747176576339627e-02  0
-2.499999998880639e-02  3.476067742918780e-02  0
-2.798453980554166e-02  3.226796133549346e-02  0
-3.092376706919177e-02  3.004773226345097e-02  0
-1.388747282510003e-02  5.194869407529004e-02  0
-1.643060311469546e-02  4.916589772184305e-02  0
-1.917049560219113e-02  4.626206398526805e-02  0
-2.204805422272819e-02  4.330127019875166e-02  0
-2.500000001193544e-02  4.034932438998658e-02  0
-2.796079378100700e-02  3.747176575346088e-02  0
-3.086462749980757e-02  3.473187326481440e-02  0
-3.364742384418606e-02  3.218874297601554e-02  0
-1.635257616953454e-02  5.441379740968323e-02  0
-1.913537252530654e-02  5.187066711905900e-02  0
-2.203920625847971e-02  4.913077462369365e-02  0
-2.500000003025485e-02  4.625321598674492e-02  0
-2.795194581983317e-02  4.330127017681393e-02  0
-3.082950443589384e-02  4.034047639074982e-02  0
-3.356939690852482e-02  3.743664266020970e-02  0
-3.611252718577829e-02  3.465384630814612e-02  0
-1.907623294245025e-02  5.655480811953067e-02  0
-2.201546021472996e-02  5.433457904469059e-02  0
-2.500000004393880e-02  5.184186294377996e-02  0
-2.796079381780426e-02  4.913077460948104e-02  0
-3.082950445873772e-02  4.626206395167604e-02  0
-3.354059277332404e-02  4.330127016915446e-02  0
-3.603330885164211e-02  4.031673034981267e-02  0
-3.825353791375671e-02  3.737750308775763e-02  0
-2.198504793942143e-02  5.831603440736054e-02  0
-2.500000003421725e-02  5.649941264002326e-02  0
-2.798453986540899e-02  5.433457902547383e-02  0
-3.086462754769802e-02  5.187066708548013e-02  0
-3.356939694635176e-02  4.916589767156378e-02  0
-3.603330886626852e-02  4.628580998404699e-02  0
-3.819814245729578e-02  4.330127016728347e-02  0
-4.001476421133184e-02  4.028631808670527e-02  0
-2.500000001751225e-02  5.965332403527300e-02  0
-2.801495211381297e-02  5.831603439723783e-02  0
-3.092376712594600e-02  5.655480809105190e-02  0
-3.364742389600786e-02  5.441379736715896e-02  0
-3.611252723179064e-02  5.194869401905715e-02  0
-3.825353793688877e-02  4.922503724821865e-02  0
-4.001476422070872e-02  4.631622225565833e-02  0
-4.135205384681261e-02  4.330127017829179e-02  0
-8.647946156205601e-03  -4.330127017787645e-02  0
-9.985235786801253e-03  -4.631622225708895e-02  0
-1.174646207639586e-02  -4.922503725326448e-02  0
-1.388747278530889e-02  -5.194869402633855e-02  0
-1.635257611752769e-02  -5.441379737003461e-02  0
-1.907623288939454e-02  -5.655480809510277e-02  0
-2.198504789395441e-02  -5.831603439703310e-02  0
-2.499999998698899e-02  -5.965332403409689e-02  0
-9.985235794397043e-03  -4.028631808614559e-02  0
-1.180185755683157e-02  -4.330127016856278e-02  0
-1.396669115792760e-02  -4.628580998999368e-02  0
-1.643060308328965e-02  -4.916589767956106e-02  0
-1.913537247973403e-02  -5.187066708951111e-02  0
-2.201546016235762e-02  -5.433457902934475e-02  0
-2.499999998366161e-02  -5.649941263792376e-02  0
-2.801495207245209e-02  -5.831603440325302e-02  0
-1.174646209512806e-02  -3.737750308317186e-02  0
-1.396669116745963e-02  -4.031673034760501e-02  0
-1.645940725805267e-02  -4.330127017295557e-02  0
-1.917049557813376e-02  -4.626206395786525e-02  0
-2.203920621723493e-02  -4.913077461298677e-02  0
-2.499999998933770e-02  -5.184186294670196e-02  0
-2.798453980629374e-02  -5.433457904114138e-02  0
-3.092376706976669e-02  -5.655480811388215e-02  0
-1.388747282713269e-02  -3.465384630009125e-02  0
-1.643060311655439e-02  -3.743664265345519e-02  0
-1.917049560339268e-02  -4.034047638986186e-02  0
-2.204805422483062e-02  -4.330127017784999e-02  0
-2.500000001298257e-02  -4.625321598636770e-02  0
-2.796079378085331e-02  -4.913077462281645e-02  0
-3.086462749954496e-02  -5.187066711247325e-02  0
-3.364742384342564e-02  -5.441379740229060e-02  0
-1.635257616759166e-02  -3.218874296988925e-02  0
-1.913537252331446e-02  -3.473187326039465e-02  0
-2.203920625606404e-02  -3.747176575538263e-02  0
-2.500000002938496e-02  -4.034932439361899e-02  0
-2.795194581786683e-02  -4.330127020220215e-02  0
-3.082950443368067e-02  -4.626206398769613e-02  0
-3.356939690704536e-02  -4.916589771842869e-02  0
-3.611252718481558e-02  -5.194869407058492e-02  0
-1.907623293982845e-02  -3.004773226013305e-02  0
-2.201546021214163e-02  -3.226796133493576e-02  0
-2.500000004100538e-02  -3.476067743551704e-02  0
-2.796079381669512e-02  -3.747176577123534e-02  0
-3.082950445615055e-02  -4.034047642721226e-02  0
-3.354059277085199e-02  -4.330127020931738e-02  0
-3.603330885001931e-02  -4.628581002881556e-02  0
-3.825353791281157e-02  -4.922503729094588e-02  0
-2.198504793685521e-02  -2.828650597188542e-02  0
-2.500000003174343e-02  -3.010312773925194e-02  0
-2.798453986263773e-02  -3.226796135353797e-02  0
-3.086462754690352e-02  -3.473187329504808e-02  0
-3.356939694370981e-02  -3.743664270680336e-02  0
-3.603330886398481e-02  -4.031673039411762e-02  0
-3.819814245583684e-02  -4.330127021108303e-02  0
-4.001476421055145e-02  -4.631622229182059e-02  0
-2.500000001682498e-02  -2.694921634315527e-02  0
-2.801495211320459e-02  -2.828650598117103e-02  0
-3.092376712498345e-02  -3.004773228710009e-02  0
-3.364742389695406e-02  -3.218874301252463e-02  0
-3.611252723040146e-02  -3.465384635824912e-02  0
-3.825353793583178e-02  -3.737750312916162e-02  0
-4.001476422013607e-02  -4.028631812207875e-02  0
-4.135205384655953e-02  -4.330127019984209e-02  0
Edges
192
3  25  2
25  26  2
26  27  2
27  28  2
28  29  2
29  30  2
4  30  2
4  31  2
31  32  2
32  33  2
33  34  2
34  35  2
35  36  2
1  36  2
1  37  2
37  38  2
38  39  2
39  40  2
40  41  2
41  42  2
2  42  2
2  43  2
43  44  2
44  45  2
45  46  2
46  47  2
47  48  2
3  48  2
6  49  3
49  50  3
50  51  3
51  52  3
52  53  3
53  54  3
7  54  3
7  55  3
55  56  3
56  57  3
57  58  3
58  59  3
59  60  3
8  60  3
8  61  3
61  62  3
62  63  3
63  64  3
64  65  3
65  66  3
5  66  3
5  67  3
67  68  3
68  69  3
69  70  3
70  71  3
71  72  3
6  72  3
9  81  1
81  82  1
82  83  1
83  84  1
84  85  1
85  86  1
10  86  1
10  87  1
87  88  1
88  89  1
89  90  1
90  91  1
91  92  1
11  92  1
11  93  1
93  94  1
94  95  1
95  96  1
96  97  1
97  98  1
12  98  1
12  99  1
99  100  1
100  101  1
101  102  1
102  103  1
103  104  1
9  104  1
13  109  4
109  110  4
110  111  4
111  112  4
112  113  4
113  114  4
114  115  4
115  116  4
14  116  4
14  117  4
117  118  4
118  119  4
119  120  4
120  121  4
121  122  4
122  123  4
123  124  4
15  124  4
15  125  4
125  126  4
126  127  4
127  128  4
128  129  4
129  130  4
130  131  4
131  132  4
16  132  4
16  133  4
133  134  4
134  135  4
135  136  4
136  137  4
137  138  4
138  139  4
139  140  4
13  140  4
17  141  5
141  142  5
142  143  5
143  144  5
144  145  5
145  146  5
146  147  5
147  148  5
18  148  5
18  149  5
149  150  5
150  151  5
151  152  5
152  153  5
153  154  5
154  155  5
155  156  5
19  156  5
19  157  5
157  158  5
158  159  5
159  160  5
160  161  5
161  162  5
162  163  5
163  164  5
20  164  5
20  165  5
165  166  5
166  167  5
167  168  5
168  169  5
169  170  5
170  171  5
171  172  5
17  172  5
21  173  6
173  174  6
174  175  6
175  176  6
176  177  6
177  178  6
178  179  6
179  180  6
22  180  6
22  181  6
181  182  6
182  183  6
183  184  6
184  185  6
185  186  6
186  187  6
187  188  6
23  188  6
23  189  6
189  190  6
190  191  6
191  192  6
192  193  6
193  194  6
194  195  6
195  196  6
24  196  6
24  197  6
197  198  6
198  199  6
199  200  6
200  201  6
201  202  6
202  203  6
203  204  6
21  204  6
Triangles
248
253  883  976  1
12  254  809  1
829  505  830  1
505  656  921  1
467  509  664  1
827  248  899  1
628  214  666  1
90  91  259  1
628  543  662  1
866  827  930  1
673  667  828  1
809  848  977  1
410  395  494  1
613  238  851  1
523  525  530  1
625  257  685  1
564  532  867  1
509  776  961  1
177  176  578  1
125  15  582  1
170  169  591  1
166  165  587  1
611  851  931  1
309  340  679  1
579  578  597  1
183  182  593  1
904  448  932  1
788  221  946  1
239  648  822  1
164  163  588  1
446  482  490  1
527  529  533  1
345  393  394  1
555  694  757  1
542  614  685  1
418  425  426  1
641  453  643  1
602  462  700  1
529  536  698  1
400  401  478  1
142  141  634  1
471  473  592  1
491  646  694  1
388  339  680  1
536  528  537  1
428  427  429  1
664  215  702  1
850  238  966  1
427  425  696  1
433  710  711  1
724  746  752  1
442  708  727  1
423  462  501  1
437  434  711  1
436  437  734  1
163  162  1000  1
714  712  731  1
712  711  720  1
376  383  412  1
716  718  728  1
444  463  544  1
161  160  594  1
343  723  752  1
354  356  357  1
350  351  352  1
352  353  354  1
741  740  742  1
357  358  378  1
317  318  321  1
274  276  277  1
321  323  343  1
278  347  744  1
126  125  220  1
181  22  215  1
178  177  211  1
171  170  214  1
20  164  218  1
15  124  212  1
169  168  221  1
272  274  744  1
168  167  619  1
713  715  722  1
337  349  350  1
318  407  754  1
705  741  780  1
313  359  360  1
326  325  327  1
347  280  766  1
362  361  363  1
22  180  615  1
273  271  275  1
498  499  774  1
486  487  488  1
303  320  785  1
165  20  606  1
420  421  422  1
945  246  951  1
299  301  782  1
482  447  483  1
419  398  420  1
305  304  306  1
543  483  545  1
635  634  636  1
184  183  206  1
21  204  209  1
141  17  207  1
119  118  210  1
329  328  330  1
676  440  818  1
599  461  784  1
172  171  662  1
546  555  556  1
466  464  538  1
101  102  633  1
488  489  513  1
463  464  465  1
772  770  792  1
17  172  605  1
85  86  647  1
182  181  618  1
130  129  600  1
217  690  963  1
129  128  577  1
83  84  632  1
305  307  802  1
331  330  332  1
11  93  648  1
435  484  855  1
786  320  815  1
516  477  517  1
210  660  936  1
120  119  621  1
617  481  915  1
430  432  855  1
88  89  824  1
725  696  868  1
121  120  757  1
464  445  790  1
348  747  869  1
631  494  814  1
591  620  984  1
842  249  844  1
703  604  935  1
266  268  879  1
91  92  659  1
801  209  920  1
333  332  334  1
663  597  879  1
404  386  576  1
904  402  928  1
454  799  877  1
585  586  995  1
365  367  800  1
309  310  311  1
835  590  964  1
797  601  912  1
582  583  982  1
467  466  468  1
127  126  860  1
367  368  369  1
584  665  983  1
399  909  972  1
118  117  651  1
655  227  657  1
871  316  875  1
869  495  881  1
475  472  892  1
373  800  940  1
691  636  1001  1
447  393  852  1
160  159  223  1
424  481  503  1
854  885  889  1
890  625  962  1
691  908  909  1
396  410  411  1
143  142  226  1
203  202  228  1
522  531  532  1
148  147  899  1
886  853  890  1
117  14  225  1
16  132  227  1
892  500  944  1
815  802  906  1
469  468  470  1
234  670  817  1
813  837  992  1
159  158  669  1
193  192  947  1
631  803  943  1
561  845  922  1
571  511  893  1
192  191  948  1
877  580  937  1
24  196  970  1
368  449  895  1
645  706  920  1
917  730  940  1
312  568  834  1
503  610  611  1
850  485  932  1
595  867  967  1
610  612  849  1
863  810  938  1
115  114  241  1
135  134  240  1
589  835  993  1
519  522  933  1
642  638  643  1
552  689  944  1
660  651  674  1
837  97  863  1
629  512  915  1
19  156  233  1
637  635  638  1
842  693  843  1
644  232  846  1
384  828  999  1
692  841  958  1
155  154  245  1
639  902  986  1
405  492  929  1
607  574  608  1
753  826  911  1
823  571  985  1
236  888  930  1
623  502  918  1
474  476  918  1
448  424  931  1
955  243  956  1
846  612  927  1
151  150  910  1
251  947  992  1
903  259  914  1
557  852  972  1
566  857  978  1
244  794  795  1
924  545  1001  1
891  637  986  1
959  841  960  1
613  988  989  1
768  862  934  1
843  956  957  1
109  13  249  1
13  140  250  1
149  18  248  1
671  224  857  1
Quadrilaterals
1126
847  235  864  977  1
372  733  719  732  1
879  597  925  266  1
606  896  587  165  1
759  996  220  998  1
618  961  593  182  1
729  787  733  372  1
595  967  603  594  1
617  915  801  920  1
220  996  860  126  1
869  718  905  348  1
605  924  207  17  1
732  719  728  406  1
649  518  796  565  1
573  574  607  878  1
881  728  718  869  1
123  586  585  124  1
860  569  870  216  1
656  987  626  654  1
645  920  209  204  1
606  923  558  896  1
911  826  901  256  1
245  233  156  155  1
908  691  1001  545  1
571  893  616  630  1
572  946  619  935  1
210  936  621  119  1
961  776  969  593  1
593  969  206  183  1
874  556  936  660  1
561  922  604  703  1
730  807  787  729  1
384  991  673  828  1
855  665  873  430  1
221  620  591  169  1
543  545  924  605  1
811  678  836  577  1
791  944  500  833  1
717  905  718  716  1
229  862  768  767  1
993  622  968  589  1
530  964  624  523  1
850  966  504  485  1
588  590  835  589  1
905  717  900  748  1
924  1001  636  207  1
753  87  88  826  1
610  503  548  612  1
832  974  581  799  1
999  570  940  800  1
831  707  839  338  1
533  968  622  527  1
955  853  886  243  1
868  696  861  319  1
377  985  975  769  1
530  525  622  993  1
845  699  820  380  1
836  539  697  600  1
948  838  947  192  1
816  721  875  296  1
97  98  810  863  1
163  1000  590  588  1
577  836  600  129  1
880  246  945  623  1
355  820  699  798  1
348  905  748  289  1
564  941  563  532  1
664  509  961  618  1
885  854  958  242  1
415  745  668  677  1
639  865  866  902  1
931  424  503  611  1
549  949  452  547  1
216  811  577  128  1
745  355  798  668  1
857  224  627  978  1
951  246  93  94  1
369  991  384  367  1
701  987  656  505  1
217  963  122  121  1
725  868  726  496  1
973  95  812  609  1
360  732  406  313  1
552  944  791  335  1
907  449  793  551  1
477  796  518  517  1
588  589  218  164  1
354  357  820  355  1
584  983  583  212  1
871  875  721  710  1
384  999  800  367  1
179  974  222  180  1
380  820  357  378  1
939  599  906  675  1
570  999  828  514  1
394  939  675  345  1
513  870  569  488  1
542  942  457  541  1
339  971  681  680  1
571  823  265  511  1
677  804  781  415  1
904  932  485  402  1
477  516  476  475  1
702  544  463  465  1
487  917  489  488  1
650  997  225  14  1
585  995  658  584  1
558  923  968  533  1
308  971  310  309  1
631  975  630  494  1
582  998  220  125  1
900  731  887  314  1
773  380  378  397  1
560  845  561  559  1
264  265  823  267  1
664  702  465  467  1
482  483  543  628  1
804  332  330  781  1
819  342  872  790  1
537  831  677  668  1
222  894  615  180  1
814  895  449  907  1
936  556  555  621  1
501  965  779  423  1
769  943  275  271  1
919  863  938  255  1
745  415  350  352  1
783  726  859  302  1
579  937  580  211  1
600  697  205  130  1
238  613  100  101  1
253  86  10  640  1
599  939  598  461  1
759  486  488  569  1
544  894  708  444  1
396  374  395  410  1
373  940  730  729  1
808  872  342  333  1
748  900  314  291  1
541  457  456  874  1
374  375  371  370  1
511  265  451  512  1
293  816  296  295  1
790  872  538  464  1
733  722  715  719  1
355  745  352  354  1
298  875  316  300  1
615  894  544  702  1
720  887  731  712  1
566  567  573  857  1
806  983  484  438  1
827  753  911  248  1
668  798  536  537  1
590  1000  661  964  1
519  933  517  518  1
440  873  658  818  1
514  828  667  515  1
495  869  747  281  1
415  781  337  350  1
694  646  690  217  1
208  1000  162  161  1
672  451  263  219  1
459  807  487  486  1
548  503  481  617  1
604  922  773  480  1
424  411  416  481  1
435  855  432  434  1
731  900  717  714  1
531  522  521  624  1
698  536  798  699  1
675  906  679  340  1
263  925  262  219  1
988  613  851  611  1
801  915  512  953  1
703  935  213  587  1
304  859  319  306  1
342  819  761  331  1
917  940  570  489  1
710  721  720  711  1
555  546  491  694  1
496  858  709  431  1
447  852  557  483  1
529  698  534  533  1
859  726  868  319  1
13  250  844  249  1
465  464  466  467  1
233  934  862  19  1
334  954  336  335  1
237  876  687  688  1
454  877  455  413  1
598  990  700  462  1
266  925  263  264  1
563  821  550  532  1
306  308  307  305  1
663  937  579  597  1
385  879  268  270  1
303  304  305  320  1
750  881  495  279  1
699  845  560  698  1
719  715  716  728  1
729  372  364  373  1
303  785  301  302  1
387  312  339  388  1
709  871  710  433  1
300  783  302  301  1
807  730  917  487  1
365  800  373  364  1
498  497  455  499  1
825  797  912  979  1
496  431  429  725  1
296  875  298  297  1
486  575  458  459  1
596  209  801  953  1
428  873  440  426  1
524  535  526  525  1
705  704  760  741  1
315  780  771  297  1
508  819  790  445  1
231  986  902  888  1
399  386  404  452  1
864  810  809  977  1
316  858  783  300  1
585  584  212  124  1
434  432  433  711  1
592  473  566  978  1
430  873  428  429  1
637  891  226  635  1
782  778  315  299  1
807  459  460  787  1
521  522  519  520  1
792  761  819  508  1
726  783  858  496  1
815  906  599  784  1
891  986  231  144  1
269  271  270  268  1
596  953  672  173  1
789  551  359  276  1
554  786  506  507  1
907  803  631  814  1
434  437  436  435  1
436  734  439  438  1
778  782  554  507  1
379  760  704  398  1
778  705  780  315  1
297  771  295  296  1
387  897  568  312  1
713  722  734  437  1
786  554  785  320  1
782  301  785  554  1
721  816  887  720  1
300  301  299  298  1
484  983  665  855  1
397  379  398  419  1
771  742  758  295  1
772  792  777  344  1
802  815  320  305  1
456  457  405  391  1
302  859  304  303  1
764  294  765  738  1
413  455  497  723  1
765  758  742  740  1
777  792  508  443  1
741  760  408  740  1
761  792  770  329  1
358  408  760  379  1
758  765  294  292  1
781  330  328  337  1
766  282  746  724  1
343  344  376  723  1
356  408  358  357  1
325  754  735  327  1
738  765  740  739  1
756  763  737  736  1
347  775  762  744  1
408  356  739  740  1
321  343  752  317  1
272  270  271  273  1
712  713  437  711  1
442  443  444  708  1
763  749  764  737  1
412  383  442  727  1
281  747  283  282  1
279  495  281  280  1
754  407  756  735  1
735  756  736  349  1
356  354  353  739  1
763  756  407  751  1
744  762  743  272  1
274  272  273  276  1
284  746  282  283  1
278  744  274  277  1
737  764  738  450  1
749  763  751  288  1
323  772  344  343  1
292  294  290  291  1
280  347  278  279  1
425  417  493  696  1
329  770  326  328  1
766  724  775  347  1
344  777  383  376  1
290  749  288  289  1
786  815  784  506  1
287  348  289  288  1
294  764  749  290  1
351  450  353  352  1
288  751  285  287  1
754  325  322  318  1
362  363  364  372  1
324  772  323  322  1
277  750  279  278  1
349  736  351  350  1
286  407  318  317  1
285  284  283  287  1
276  359  313  277  1
322  323  321  318  1
480  773  397  419  1
284  285  286  317  1
349  337  327  735  1
751  407  286  285  1
450  351  736  737  1
317  752  746  284  1
325  326  324  322  1
732  360  362  372  1
282  766  280  281  1
329  330  331  761  1
376  412  413  723  1
480  419  510  572  1
716  715  714  717  1
450  738  739  353  1
421  420  398  704  1
360  359  361  362  1
328  326  327  337  1
723  497  724  752  1
770  772  324  326  1
636  691  641  635  1
368  895  370  369  1
705  778  507  704  1
774  385  743  762  1
307  308  309  679  1
714  715  713  712  1
775  724  497  498  1
742  771  780  741  1
332  804  338  334  1
270  272  743  385  1
378  358  379  397  1
421  704  507  506  1
629  893  511  512  1
578  262  925  597  1
803  907  551  789  1
311  341  340  309  1
427  696  725  429  1
267  377  269  268  1
890  962  241  886  1
383  777  443  442  1
439  460  459  458  1
295  758  292  293  1
796  477  475  689  1
568  897  576  386  1
423  779  420  422  1
576  929  686  404  1
506  784  422  421  1
474  918  502  473  1
877  937  499  455  1
85  647  237  84  1
392  417  414  409  1
791  952  808  335  1
221  168  619  946  1
299  315  297  298  1
591  666  214  170  1
582  15  212  583  1
392  388  680  417  1
443  508  445  444  1
858  316  871  709  1
427  428  426  425  1
811  216  870  515  1
331  332  333  342  1
793  366  363  361  1
787  460  722  733  1
445  464  463  444  1
446  393  447  482  1
289  748  291  290  1
346  852  393  345  1
805  884  456  391  1
461  598  462  423  1
707  831  537  528  1
366  793  449  368  1
491  409  414  646  1
401  402  441  829  1
607  608  609  817  1
546  805  409  491  1
314  887  816  293  1
499  937  663  774  1
492  942  688  687  1
679  906  802  307  1
747  348  287  283  1
256  149  248  911  1
381  834  568  386  1
479  673  400  478  1
422  784  461  423  1
551  793  361  359  1
371  400  673  991  1
930  827  899  236  1
528  536  529  527  1
389  897  387  388  1
366  368  367  365  1
501  462  602  984  1
492  405  457  942  1
662  171  214  628  1
460  439  734  722  1
580  877  799  581  1
527  622  525  526  1
620  965  501  984  1
609  812  795  817  1
211  177  578  579  1
676  418  426  440  1
602  700  490  666  1
273  275  789  276  1
750  277  313  406  1
418  676  646  414  1
431  709  433  432  1
291  314  293  292  1
467  468  469  509  1
575  982  806  458  1
258  633  102  103  1
914  564  767  768  1
514  513  489  570  1
833  468  466  538  1
269  377  769  271  1
762  775  498  774  1
399  452  453  909  1
431  432  430  429  1
831  338  804  677  1
335  808  333  334  1
882  306  319  861  1
539  836  678  479  1
949  643  453  452  1
412  727  454  413  1
641  643  638  635  1
475  476  474  472  1
390  389  388  392  1
193  947  251  194  1
341  381  346  345  1
265  264  263  451  1
490  482  628  666  1
553  880  623  918  1
417  425  418  414  1
266  264  267  268  1
601  90  259  903  1
419  420  779  510  1
438  484  435  436  1
409  805  390  392  1
468  833  500  470  1
11  648  239  92  1
518  649  520  519  1
217  121  757  694  1
83  632  257  82  1
678  811  515  667  1
363  366  365  364  1
472  474  473  471  1
375  401  400  371  1
882  861  681  971  1
938  810  864  247  1
586  963  690  818  1
955  693  261  853  1
795  812  813  838  1
825  252  901  824  1
956  243  112  111  1
137  242  959  138  1
759  998  575  486  1
904  928  396  411  1
405  929  403  391  1
240  994  889  885  1
960  841  981  250  1
206  926  627  184  1
832  727  708  894  1
483  557  908  545  1
382  972  852  346  1
550  933  522  532  1
625  685  684  962  1
524  520  649  535  1
152  252  980  153  1
565  796  689  552  1
669  856  223  159  1
560  559  534  698  1
682  654  994  240  1
676  818  690  646  1
822  553  516  562  1
251  255  195  194  1
526  707  528  527  1
262  578  176  175  1
245  154  979  912  1
547  452  404  686  1
515  870  513  514  1
223  595  594  160  1
642  643  949  883  1
670  234  23  188  1
403  897  389  391  1
618  181  215  664  1
614  542  541  674  1
458  806  438  439  1
535  839  707  526  1
680  681  493  417  1
375  928  402  401  1
727  832  799  454  1
573  878  671  857  1
211  580  581  178  1
809  254  849  848  1
663  879  385  774  1
502  567  566  473  1
867  532  531  967  1
166  587  213  167  1
700  990  446  490  1
757  120  621  555  1
215  22  615  702  1
642  865  639  638  1
659  941  259  91  1
201  200  232  644  1
470  472  471  469  1
478  540  539  479  1
390  805  391  389  1
540  829  830  695  1
244  948  191  190  1
521  520  523  624  1
198  898  235  199  1
605  172  662  543  1
659  92  239  821  1
115  241  683  116  1
523  520  524  525  1
613  989  99  100  1
850  932  851  238  1
207  636  634  141  1
888  236  146  145  1
540  695  697  539  1
945  951  608  574  1
594  603  208  161  1
572  935  604  480  1
340  341  345  675  1
197  247  898  198  1
655  921  653  227  1
312  834  311  310  1
809  810  98  12  1
606  20  218  923  1
441  504  505  829  1
616  410  494  630  1
829  540  478  401  1
139  960  250  140  1
87  753  640  10  1
89  90  601  797  1
254  989  988  849  1
794  244  190  189  1
308  306  882  971  1
701  966  633  258  1
416  411  410  616  1
691  909  453  641  1
592  969  776  471  1
612  846  848  849  1
534  559  558  533  1
607  817  670  878  1
862  229  157  19  1
640  753  827  866  1
651  660  210  118  1
892  472  470  500  1
823  985  377  267  1
655  657  695  830  1
682  240  134  133  1
395  895  814  494  1
153  980  979  154  1
657  227  132  131  1
336  954  839  535  1
557  972  909  908  1
667  673  479  678  1
175  174  219  262  1
258  103  260  626  1
371  991  369  370  1
651  117  225  674  1
310  971  339  312  1
261  693  81  82  1
104  692  260  103  1
236  899  147  146  1
261  82  257  625  1
644  228  202  201  1
632  84  237  688  1
394  393  446  990  1
913  934  233  245  1
131  130  205  657  1
767  856  669  229  1
686  929  492  687  1
441  402  485  504  1
239  822  562  821  1
654  682  652  653  1
876  976  549  547  1
671  230  187  186  1
564  867  856  767  1
652  16  227  653  1
886  241  114  113  1
881  750  406  728  1
123  122  963  586  1
642  883  253  865  1
619  167  213  935  1
251  992  919  255  1
634  635  226  142  1
229  669  158  157  1
916  232  200  199  1
988  611  610  849  1
275  943  803  789  1
755  942  542  685  1
952  538  872  808  1
234  794  189  23  1
928  375  374  396  1
665  584  658  873  1
203  228  645  204  1
116  683  650  14  1
633  966  238  101  1
706  645  228  927  1
135  240  885  136  1
138  959  960  139  1
842  844  840  9  1
644  846  927  228  1
652  682  133  16  1
955  956  843  693  1
627  224  185  184  1
806  982  583  983  1
967  531  624  603  1
661  1000  208  603  1
576  897  403  929  1
695  657  205  697  1
848  846  847  977  1
623  945  567  502  1
249  957  110  109  1
962  684  683  241  1
136  885  242  137  1
822  648  880  553  1
148  899  248  18  1
903  914  768  934  1
469  471  776  509  1
24  970  247  197  1
884  805  546  556  1
231  888  145  144  1
336  565  552  335  1
982  575  998  582  1
550  821  562  933  1
842  9  81  693  1
143  226  891  144  1
553  918  476  516  1
922  845  380  773  1
222  974  832  894  1
395  374  370  895  1
549  976  883  949  1
957  956  111  110  1
589  968  923  218  1
835  964  530  993  1
94  95  973  951  1
243  886  113  112  1
255  970  196  195  1
517  933  562  516  1
684  685  614  997  1
596  173  21  209  1
338  839  954  334  1
688  942  755  632  1
232  916  847  846  1
902  866  930  888  1
381  386  382  346  1
990  598  939  394  1
541  874  660  674  1
892  944  689  475  1
919  992  837  863  1
12  99  989  254  1
927  612  548  706  1
504  966  701  505  1
653  921  656  654  1
253  976  647  86  1
981  840  844  250  1
151  910  252  152  1
256  910  150  149  1
186  185  224  671  1
174  173  672  219  1
216  128  127  860  1
587  896  950  703  1
974  179  178  581  1
861  696  493  681  1
639  986  637  638  1
931  851  932  448  1
230  670  188  187  1
510  788  946  572  1
559  950  896  558  1
834  381  341  311  1
617  920  706  548  1
563  941  659  821  1
547  686  687  876  1
647  976  876  237  1
567  945  574  573  1
650  683  684  997  1
629  915  481  416  1
965  788  510  779  1
981  841  692  840  1
830  505  921  655  1
856  867  595  223  1
399  972  382  386  1
260  692  958  854  1
997  614  674  225  1
824  901  826  88  1
96  97  837  813  1
448  904  411  424  1
992  947  838  813  1
246  880  648  93  1
948  244  795  838  1
913  601  903  934  1
913  245  912  601  1
843  957  249  842  1
973  609  608  951  1
788  965  620  221  1
824  89  797  825  1
926  206  969  592  1
96  813  812  95  1
755  685  257  632  1
104  9  840  692  1
914  259  941  564  1
953  512  451  672  1
874  456  884  556  1
958  841  959  242  1
943  769  975  631  1
336  535  649  565  1
625  890  853  261  1
624  964  661  603  1
416  616  893  629  1
926  592  978  627  1
794  234  817  795  1
666  591  984  602  1
833  538  952  791  1
630  975  985  571  1
854  889  626  260  1
878  670  230  671  1
640  866  865  253  1
916  199  235  847  1
950  559  561  703  1
626  889  994  654  1
258  626  987  701  1
970  255  938  247  1
995  586  818  658  1
569  860  996  759  1
901  252  910  256  1
864  235  898  247  1
825  979  980  252  1
2  43  1002  105  2
105  1002  87  10  2
43  44  1003  1002  2
1002  1003  88  87  2
44  45  1004  1003  2
1003  1004  89  88  2
45  46  1005  1004  2
1004  1005  90  89  2
46  47  1006  1005  2
1005  1006  91  90  2
47  48  1007  1006  2
1006  1007  92  91  2
48  3  108  1007  2
1007  108  11  92  2
3  25  1008  108  2
108  1008  93  11  2
25  26  1009  1008  2
1008  1009  94  93  2
26  27  1010  1009  2
1009  1010  95  94  2
27  28  1011  1010  2
1010  1011  96  95  2
28  29  1012  1011  2
1011  1012  97  96  2
29  30  1013  1012  2
1012  1013  98  97  2
30  4  107  1013  2
1013  107  12  98  2
4  31  1014  107  2
107  1014  99  12  2
31  32  1015  1014  2
1014  1015  100  99  2
32  33  1016  1015  2
1015  1016  101  100  2
33  34  1017  1016  2
1016  1017  102  101  2
34  35  1018  1017  2
1017  1018  103  102  2
35  36  1019  1018  2
1018  1019  104  103  2
36  1  106  1019  2
1019  106  9  104  2
1  37  1020  106  2
106  1020  81  9  2
37  38  1021  1020  2
1020  1021  82  81  2
38  39  1022  1021  2
1021  1022  83  82  2
39  40  1023  1022  2
1022  1023  84  83  2
40  41  1024  1023  2
1023  1024  85  84  2
41  42  1025  1024  2
1024  1025  86  85  2
42  2  105  1025  2
1025  105  10  86  2
6  49  1026  74  3
74  1026  1027  73  3
73  1027  43  2  3
49  50  1028  1026  3
1026  1028  1029  1027  3
1027  1029  44  43  3
50  51  1030  1028  3
1028  1030  1031  1029  3
1029  1031  45  44  3
51  52  1032  1030  3
1030  1032  1033  1031  3
1031  1033  46  45  3
52  53  1034  1032  3
1032  1034  1035  1033  3
1033  1035  47  46  3
53  54  1036  1034  3
1034  1036  1037  1035  3
1035  1037  48  47  3
54  7  80  1036  3
1036  80  79  1037  3
1037  79  3  48  3
7  55  1038  80  3
80  1038  1039  79  3
79  1039  25  3  3
55  56  1040  1038  3
1038  1040  1041  1039  3
1039  1041  26  25  3
56  57  1042  1040  3
1040  1042  1043  1041  3
1041  1043  27  26  3
57  58  1044  1042  3
1042  1044  1045  1043  3
1043  1045  28  27  3
58  59  1046  1044  3
1044  1046  1047  1045  3
1045  1047  29  28  3
59  60  1048  1046  3
1046  1048  1049  1047  3
1047  1049  30  29  3
60  8  78  1048  3
1048  78  77  1049  3
1049  77  4  30  3
8  61  1050  78  3
78  1050  1051  77  3
77  1051  31  4  3
61  62  1052  1050  3
1050  1052  1053  1051  3
1051  1053  32  31  3
62  63  1054  1052  3
1052  1054  1055  1053  3
1053  1055  33  32  3
63  64  1056  1054  3
1054  1056  1057  1055  3
1055  1057  34  33  3
64  65  1058  1056  3
1056  1058  1059  1057  3
1057  1059  35  34  3
65  66  1060  1058  3
1058  1060  1061  1059  3
1059  1061  36  35  3
66  5  76  1060  3
1060  76  75  1061  3
1061  75  1  36  3
5  67  1062  76  3
76  1062  1063  75  3
75  1063  37  1  3
67  68  1064  1062  3
1062  1064  1065  1063  3
1063  1065  38  37  3
68  69  1066  1064  3
1064  1066  1067  1065  3
1065  1067  39  38  3
69  70  1068  1066  3
1066  1068  1069  1067  3
1067  1069  40  39  3
70  71  1070  1068  3
1068  1070  1071  1069  3
1069  1071  41  40  3
71  72  1072  1070  3
1070  1072  1073  1071  3
1071  1073  42  41  3
72  6  74  1072  3
1072  74  73  1073  3
1073  73  2  42  3
13  109  1074  140  4
140  1074  1075  139  4
139  1075  1076  138  4
138  1076  1077  137  4
137  1077  1078  136  4
136  1078  1079  135  4
135  1079  1080  134  4
134  1080  1081  133  4
133  1081  132  16  4
109  110  1082  1074  4
1074  1082  1083  1075  4
1075  1083  1084  1076  4
1076  1084  1085  1077  4
1077  1085  1086  1078  4
1078  1086  1087  1079  4
1079  1087  1088  1080  4
1080  1088  1089  1081  4
1081  1089  131  132  4
110  111  1090  1082  4
1082  1090  1091  1083  4
1083  1091  1092  1084  4
1084  1092  1093  1085  4
1085  1093  1094  1086  4
1086  1094  1095  1087  4
1087  1095  1096  1088  4
1088  1096  1097  1089  4
1089  1097  130  131  4
111  112  1098  1090  4
1090  1098  1099  1091  4
1091  1099  1100  1092  4
1092  1100  1101  1093  4
1093  1101  1102  1094  4
1094  1102  1103  1095  4
1095  1103  1104  1096  4
1096  1104  1105  1097  4
1097  1105  129  130  4
112  113  1106  1098  4
1098  1106  1107  1099  4
1099  1107  1108  1100  4
1100  1108  1109  1101  4
1101  1109  1110  1102  4
1102  1110  1111  1103  4
1103  1111  1112  1104  4
1104  1112  1113  1105  4
1105  1113  128  129  4
113  114  1114  1106  4
1106  1114  1115  1107  4
1107  1115  1116  1108  4
1108  1116  1117  1109  4
1109  1117  1118  1110  4
1110  1118  1119  1111  4
1111  1119  1120  1112  4
1112  1120  1121  1113  4
1113  1121  127  128  4
114  115  1122  1114  4
1114  1122  1123  1115  4
1115  1123  1124  1116  4
1116  1124  1125  1117  4
1117  1125  1126  1118  4
1118  1126  1127  1119  4
1119  1127  1128  1120  4
1120  1128  1129  1121  4
1121  1129  126  127  4
115  116  1130  1122  4
1122  1130  1131  1123  4
1123  1131  1132  1124  4
1124  1132  1133  1125  4
1125  1133  1134  1126  4
1126  1134  1135  1127  4
1127  1135  1136  1128  4
1128  1136  1137  1129  4
1129  1137  125  126  4
116  14  117  1130  4
1130  117  118  1131  4
1131  118  119  1132  4
1132  119  120  1133  4
1133  120  121  1134  4
1134  121  122  1135  4
1135  122  123  1136  4
1136  123  124  1137  4
1137  124  15  125  4
17  141  1138  172  5
172  1138  1139  171  5
171  1139  1140  170  5
170  1140  1141  169  5
169  1141  1142  168  5
168  1142  1143  167  5
167  1143  1144  166  5
166  1144  1145  165  5
165  1145  164  20  5
141  142  1146  1138  5
1138  1146  1147  1139  5
1139  1147  1148  1140  5
1140  1148  1149  1141  5
1141  1149  1150  1142  5
1142  1150  1151  1143  5
1143  1151  1152  1144  5
1144  1152  1153  1145  5
1145  1153  163  164  5
142  143  1154  1146  5
1146  1154  1155  1147  5
1147  1155  1156  1148  5
1148  1156  1157  1149  5
1149  1157  1158  1150  5
1150  1158  1159  1151  5
1151  1159  1160  1152  5
1152  1160  1161  1153  5
1153  1161  162  163  5
143  144  1162  1154  5
1154  1162  1163  1155  5
1155  1163  1164  1156  5
1156  1164  1165  1157  5
1157  1165  1166  1158  5
1158  1166  1167  1159  5
1159  1167  1168  1160  5
1160  1168  1169  1161  5
1161  1169  161  162  5
144  145  1170  1162  5
1162  1170  1171  1163  5
1163  1171  1172  1164  5
1164  1172  1173  1165  5
1165  1173  1174  1166  5
1166  1174  1175  1167  5
1167  1175  1176  1168  5
1168  1176  1177  1169  5
1169  1177  160  161  5
145  146  1178  1170  5
1170  1178  1179  1171  5
1171  1179  1180  1172  5
1172  1180  1181  1173  5
1173  1181  1182  1174  5
1174  1182  1183  1175  5
1175  1183  1184  1176  5
1176  1184  1185  1177  5
1177  1185  159  160  5
146  147  1186  1178  5
1178  1186  1187  1179  5
1179  1187  1188  1180  5
1180  1188  1189  1181  5
1181  1189  1190  1182  5
1182  1190  1191  1183  5
1183  1191  1192  1184  5
1184  1192  1193  1185  5
1185  1193  158  159  5
147  148  1194  1186  5
1186  1194  1195  1187  5
1187  1195  1196  1188  5
1188  1196  1197  1189  5
1189  1197  1198  1190  5
1190  1198  1199  1191  5
1191  1199  1200  1192  5
1192  1200  1201  1193  5
1193  1201  157  158  5
148  18  149  1194  5
1194  149  150  1195  5
1195  150  151  1196  5
1196  151  152  1197  5
1197  152  153  1198  5
1198  153  154  1199  5
1199  154  155  1200  5
1200  155  156  1201  5
1201  156  19  157  5
21  173  1202  204  6
204  1202  1203  203  6
203  1203  1204  202  6
202  1204  1205  201  6
201  1205  1206  200  6
200  1206  1207  199  6
199  1207  1208  198  6
198  1208  1209  197  6
197  1209  196  24  6
173  174  1210  1202  6
1202  1210  1211  1203  6
1203  1211  1212  1204  6
1204  1212  1213  1205  6
1205  1213  1214  1206  6
1206  1214  1215  1207  6
1207  1215  1216  1208  6
1208  1216  1217  1209  6
1209  1217  195  196  6
174  175  1218  1210  6
1210  1218  1219  1211  6
1211  1219  1220  1212  6
1212  1220  1221  1213  6
1213  1221  1222  1214  6
1214  1222  1223  1215  6
1215  1223  1224  1216  6
1216  1224  1225  1217  6
1217  1225  194  195  6
175  176  1226  1218  6
1218  1226  1227  1219  6
1219  1227  1228  1220  6
1220  1228  1229  1221  6
1221  1229  1230  1222  6
1222  1230  1231  1223  6
1223  1231  1232  1224  6
1224  1232  1233  1225  6
1225  1233  193  194  6
176  177  1234  1226  6
1226  1234  1235  1227  6
1227  1235  1236  1228  6
1228  1236  1237  1229  6
1229  1237  1238  1230  6
1230  1238  1239  1231  6
1231  1239  1240  1232  6
1232  1240  1241  1233  6
1233  1241  192  193  6
177  178  1242  1234  6
1234  1242  1243  1235  6
1235  1243  1244  1236  6
1236  1244  1245  1237  6
1237  1245  1246  1238  6
1238  1246  1247  1239  6
1239  1247  1248  1240  6
1240  1248  1249  1241  6
1241  1249  191  192  6
178  179  1250  1242  6
1242  1250  1251  1243  6
1243  1251  1252  1244  6
1244  1252  1253  1245  6
1245  1253  1254  1246  6
1246  1254  1255  1247  6
1247  1255  1256  1248  6
1248  1256  1257  1249  6
1249  1257  190  191  6
179  180  1258  1250  6
1250  1258  1259  1251  6
1251  1259  1260  1252  6
1252  1260  1261  1253  6
1253  1261  1262  1254  6
1254  1262  1263  1255  6
1255  1263  1264  1256  6
1256  1264  1265  1257  6
1257  1265  189  190  6
180  22  181  1258  6
1258  181  182  1259  6
1259  182  183  1260  6
1260  183  184  1261  6
1261  184  185  1262  6
1262  185  186  1263  6
1263  186  187  1264  6
1264  187  188  1265  6
1265  188  23  189  6
End
