$MeshFormat
4.1 0 8
$EndMeshFormat
$PhysicalNames
1
2 1 "OMEGA"
$EndPhysicalNames
$Entities
9 8 4 0
1 0 0 0 0 
2 10 0 0 0 
3 -10 0 0 0 
4 0.108 0 0 0 
5 -0.108 0 0 0 
6 0.092 0 0 0 
7 -0.092 0 0 0 
8 0.0175 0 0 0 
9 -0.0175 0 0 0 
1 -10 0 0 10 9.84807753012208 0 0 2 2 -3 
2 -10 -9.84807753012208 0 10 0 0 0 2 3 -2 
3 -0.108 0 0 0.108 0.1063592373253185 0 0 2 4 -5 
4 -0.108 -0.1063592373253185 0 0.108 0 0 0 2 5 -4 
5 -0.092 0 0 0.092 0.09060231327712313 0 0 2 6 -7 
6 -0.092 -0.09060231327712313 0 0.092 0 0 0 2 7 -6 
7 -0.0175 0 0 0.0175 0.01723413567771364 0 0 2 8 -9 
8 -0.0175 -0.01723413567771364 0 0.0175 0 0 0 2 9 -8 
1 -10 -9.84807753012208 0 10 9.84807753012208 0 1 1 4 1 2 -4 -3 
2 -0.108 -0.1063592373253185 0 0.108 0.1063592373253185 0 1 1 4 3 4 -6 -5 
3 -0.092 -0.09060231327712313 0 0.092 0.09060231327712313 0 1 1 4 5 6 -8 -7 
4 -0.0175 -0.01723413567771364 0 0.0175 0.01723413567771364 0 1 1 2 7 8 
$EndEntities
$Nodes
20 686 1 686
0 2 0 1
1
10 0 0
0 3 0 1
2
-10 0 0
0 4 0 1
3
0.108 0 0
0 5 0 1
4
-0.108 0 0
0 6 0 1
5
0.092 0 0
0 7 0 1
6
-0.092 0 0
0 8 0 1
7
0.0175 0 0
0 9 0 1
8
-0.0175 0 0
1 1 0 9
9
10
11
12
13
14
15
16
17
9.510565160686488 3.090169950720574 0
8.090169933355071 5.8778525372314 0
5.877852499650374 8.090169960659283 0
3.090169907716612 9.510565174659323 0
-4.710341611032577e-08 10 0
-3.090169979950669 9.510565151189054 0
-5.877852547383463 8.090169925979165 0
-8.090169954848065 5.877852507648832 0
-9.510565165890476 3.090169934704343 0
1 2 0 9
18
19
20
21
22
23
24
25
26
-9.510565160686488 -3.090169950720574 0
-8.090169933355071 -5.8778525372314 0
-5.877852499650374 -8.090169960659283 0
-3.090169907716612 -9.510565174659323 0
4.710341611032577e-08 -10 0
3.090169979950669 -9.510565151189054 0
5.877852547383463 -8.090169925979165 0
8.090169954848065 -5.877852507648832 0
9.510565165890476 -3.090169934704343 0
1 3 0 19
27
28
29
30
31
32
33
34
35
36
37
38
39
40
41
42
43
44
45
0.106670340778425 0.01689492226127956 0
0.1027141037361179 0.0333738354656161 0
0.09622870455169968 0.04903097409089168 0
0.08737383528437115 0.06348080739640588 0
0.07636753220346995 0.07636753253282431 0
0.06348080701014677 0.08737383556500482 0
0.04903097365752632 0.09622870477251036 0
0.03337383501214738 0.1027141038834588 0
0.01689492177661521 0.1066703408551883 0
-5.034870374436902e-10 0.108 0
-0.01689492267163003 0.1066703407134319 0
-0.03337383577320571 0.102714103636176 0
-0.04903097429080098 0.09622870444984082 0
-0.06348080750171545 0.08737383520785927 0
-0.07636753255323937 0.07636753218305488 0
-0.08737383550996213 0.06348080708590653 0
-0.09622870467955781 0.04903097383995598 0
-0.1027141037916955 0.0333738352945657 0
-0.1066703407932086 0.01689492216793988 0
1 4 0 19
46
47
48
49
50
51
52
53
54
55
56
57
58
59
60
61
62
63
64
-0.106670340778425 -0.01689492226127956 0
-0.1027141037361179 -0.0333738354656161 0
-0.09622870455169968 -0.04903097409089168 0
-0.08737383528437115 -0.06348080739640588 0
-0.07636753220346995 -0.07636753253282431 0
-0.06348080701014677 -0.08737383556500482 0
-0.04903097365752632 -0.09622870477251036 0
-0.03337383501214738 -0.1027141038834588 0
-0.01689492177661521 -0.1066703408551883 0
5.034870374436902e-10 -0.108 0
0.01689492267163003 -0.1066703407134319 0
0.03337383577320571 -0.102714103636176 0
0.04903097429080098 -0.09622870444984082 0
0.06348080750171545 -0.08737383520785927 0
0.07636753255323937 -0.07636753218305488 0
0.08737383550996213 -0.06348080708590653 0
0.09622870467955781 -0.04903097383995598 0
0.1027141037916955 -0.0333738352945657 0
0.1066703407932086 -0.01689492216793988 0
1 5 0 19
65
66
67
68
69
70
71
72
73
74
75
76
77
78
79
80
81
82
83
0.09086732732970762 0.01439197081555436 0
0.08749719947803974 0.02842956354747857 0
0.08197260017263604 0.0417671260794557 0
0.07442956339068207 0.05407624333727739 0
0.06505382372800546 0.06505382401031928 0
0.05407624300344959 0.07442956363322217 0
0.04176712570499939 0.08197260036343107 0
0.02842956315346889 0.08749719960606124 0
0.01439197039817648 0.09086732739581378 0
-4.32057838979268e-10 0.092 0
-0.01439197116869983 0.09086732727377489 0
-0.02842956381232491 0.08749719939198594 0
-0.04176712625413355 0.08197260008363323 0
-0.05407624343712882 0.07442956331813577 0
-0.06505382402791821 0.06505382371040654 0
-0.07442956358512344 0.05407624306965183 0
-0.08197260028253174 0.04176712586377326 0
-0.08749719952654507 0.0284295633981945 0
-0.09086732734207627 0.01439197073746185 0
1 6 0 19
84
85
86
87
88
89
90
91
92
93
94
95
96
97
98
99
100
101
102
-0.09086732732970762 -0.01439197081555436 0
-0.08749719947803974 -0.02842956354747857 0
-0.08197260017263604 -0.0417671260794557 0
-0.07442956339068207 -0.05407624333727739 0
-0.06505382372800546 -0.06505382401031928 0
-0.05407624300344959 -0.07442956363322217 0
-0.04176712570499939 -0.08197260036343107 0
-0.02842956315346889 -0.08749719960606124 0
-0.01439197039817648 -0.09086732739581378 0
4.32057838979268e-10 -0.092 0
0.01439197116869983 -0.09086732727377489 0
0.02842956381232491 -0.08749719939198594 0
0.04176712625413355 -0.08197260008363323 0
0.05407624343712882 -0.07442956331813577 0
0.06505382402791821 -0.06505382371040654 0
0.07442956358512344 -0.05407624306965183 0
0.08197260028253174 -0.04176712586377326 0
0.08749719952654507 -0.0284295633981945 0
0.09086732734207627 -0.01439197073746185 0
1 7 0 9
103
104
105
106
107
108
109
110
111
0.01664348903113146 0.00540779741397614 0
0.01415779738415145 0.01028624193908127 0
0.01028624187556039 0.01415779743030207 0
0.005407797341279388 0.01664348905475206 0
-8.011612155336323e-11 0.0175 0
-0.005407797462549786 0.01664348901534892 0
-0.01028624195488742 0.01415779737266762 0
-0.0141577974200509 0.01028624188966992 0
-0.01664348904031804 0.005407797385702726 0
1 8 0 9
112
113
114
115
116
117
118
119
120
-0.01664348903113146 -0.00540779741397614 0
-0.01415779738415145 -0.01028624193908127 0
-0.01028624187556039 -0.01415779743030207 0
-0.005407797341279388 -0.01664348905475206 0
8.011612155336323e-11 -0.0175 0
0.005407797462549786 -0.01664348901534892 0
0.01028624195488742 -0.01415779737266762 0
0.0141577974200509 -0.01028624188966992 0
0.01664348904031804 -0.005407797385702726 0
2 1 0 223
121
122
123
124
125
126
127
128
129
130
131
132
133
134
135
136
137
138
139
140
141
142
143
144
145
146
147
148
149
150
151
152
153
154
155
156
157
158
159
160
161
162
163
164
165
166
167
168
169
170
171
172
173
174
175
176
177
178
179
180
181
182
183
184
185
186
187
188
189
190
191
192
193
194
195
196
197
198
199
200
201
202
203
204
205
206
207
208
209
210
211
212
213
214
215
216
217
218
219
220
221
222
223
224
225
226
227
228
229
230
231
232
233
234
235
236
237
238
239
240
241
242
243
244
245
246
247
248
249
250
251
252
253
254
255
256
257
258
259
260
261
262
263
264
265
266
267
268
269
270
271
272
273
274
275
276
277
278
279
280
281
282
283
284
285
286
287
288
289
290
291
292
293
294
295
296
297
298
299
300
301
302
303
304
305
306
307
308
309
310
311
312
313
314
315
316
317
318
319
320
321
322
323
324
325
326
327
328
329
330
331
332
333
334
335
336
337
338
339
340
341
342
343
-5.159851084208221 5.442177229436742 0
4.83891541889804 -5.482266492775357 0
7.535881771916562 1.205835300245103 0
-7.03752985997304 -1.462334300604057 0
-1.985871999163842 -7.246676226540826 0
1.459901924824438 7.098037066787349 0
4.441328907410416 5.287073842060647 0
-5.212883828500493 -4.955978865534385 0
4.099635668171645 6.820292346794204 0
2.202679023975882 4.979532867827217 0
0.5033718002411505 4.492740322271229 0
0.9693345601160116 3.366078134215683 0
-0.6244826165703898 3.793766702183267 0
0.3118966938447671 2.364289129547288 0
4.372306946145842 3.337483697634485 0
-1.709505383632679 4.482179547765066 0
-2.299656308685397 3.273759212926111 0
-1.392281873890027 2.201805336688082 0
6.196119094313907 2.708628159991057 0
5.163941096536043 0.9241507047301541 0
3.07683349544891 0.9175051390502617 0
6.124447399256235 -0.4495164341932631 0
4.408894381840403 -0.3297923686206959 0
4.743971874217759 -1.837233063388867 0
3.090376950219638 -2.622462197935523 0
2.199799518707094 -0.6263554993777952 0
7.169447797674597 -2.370770153517773 0
3.95937816904734 -3.566914582074394 0
2.266270678991777 -3.764977206363459 0
1.83443268616323 -2.29060510946027 0
1.389793017593477 -3.110519103725967 0
0.7914340889303888 -2.46989864916351 0
0.0007239783653807274 -2.900833254612469 0
-0.8361861946835221 -2.255920642057009 0
1.123807261482996 -1.575013988817906 0
-0.1412013581811727 -1.331749775594896 0
-1.210576440580756 -2.97095250304347 0
-1.874728117862756 -2.261917694495435 0
1.640716136617193 -4.481253143111366 0
-2.45943072639504 -3.419649016125834 0
-2.799841725471998 -2.335183001066578 0
-2.717860995789644 -1.241467746816286 0
-4.143089821598557 -0.9202470464334662 0
-3.577930048771675 0.476332334247603 0
-1.961566698863227 0.1846243321480189 0
-1.467950789049411 -0.6156978979684493 0
-1.045416911835962 -4.252738556872732 0
-2.2074650884739 0.9497283008957544 0
-4.619837691568027 -2.560075646308235 0
-1.186490708919807 1.107997080600218 0
-0.8731391606210713 0.4916871817400803 0
-3.844457215140895 2.055372727007994 0
-5.521352277659037 2.116185668357429 0
-3.732538455281539 3.519051478308173 0
-3.961147399897572 -6.308093694857281 0
-2.705254613003166 -5.016588262724751 0
-6.794721021430874 -3.627457556628776 0
-3.245148661174756 5.040912566041595 0
-2.324815539267242 7.0380060942568 0
-3.708264959649 -4.033894608896175 0
-5.511402778254008 0.5760224529856534 0
-7.354977225030567 2.400725964566672 0
0.2501058980478159 -7.533905051509114 0
2.515352498854629 -7.049675294706494 0
0.362526761480816 -5.718969470678719 0
3.315993392614772 -4.613896304307353 0
5.437249368323418 -3.275181123793214 0
-0.2571344485058371 8.113875029523509 0
8.278938314089519 -0.3121350431265972 0
-5.444126339932829 3.754584388581768 0
-2.469267148950978 2.114801167868944 0
-1.341881409428638 0.6346480512235742 0
-0.6579556764582479 1.079095235951028 0
-0.838506977166864 1.435987602695941 0
-0.1913636971157215 1.485155099097876 0
-0.06533762409173925 0.8216142204646792 0
0.2273386263623113 1.002600425843243 0
0.3652700972619355 0.6613786740735397 0
0.7136237403422876 1.067296854458108 0
0.7543397358322786 0.5954704176606809 0
0.1464798479200851 0.4284086408701844 0
0.07539201899865579 0.1043150349198501 0
-0.02352728894845385 0.1230166780229814 0
-0.2055700743458125 0.593688749731191 0
1.369899464375949 1.034319948957397 0
1.239213591511483 1.747230931749441 0
1.351044410686023 0.2799299553936682 0
0.8707640983733753 0.03428181382469406 0
0.6260431565496478 0.2943594793316708 0
0.5869576618889604 -0.2977513184604614 0
0.1228503234551766 0.04897541724407875 0
0.1280111365060017 -0.04098301216156875 0
-0.02983724048181037 0.3970243032780356 0
-0.07290807203187022 0.1015157660253534 0
0.9704727536908526 -0.3651793725370032 0
0.5068022713204898 -0.6212794977474074 0
0.3139343654690463 -0.4591931515991937 0
1.488938635745757 -0.4309664354640432 0
0.266712394309589 -0.8380484478581853 0
-0.04881485380830133 -0.7284759525055918 0
0.07711683663437585 -0.418864059447683 0
0.08690428288172382 -0.09985973824823863 0
0.05236047720609278 -0.1177827349284357 0
-0.005026868854134571 -0.1219766921258572 0
-0.03633683485059078 -0.1187214278409502 0
2.247584772841727 0.1345870430754136 0
1.904307791911359 -1.388486067349127 0
2.005995471472983 1.842795844739259 0
0.0364268355703972 -0.9233497630861427 0
-0.3322579621111926 -0.9080113013164943 0
-0.3581350479555385 -0.4970507907018319 0
-0.8282113740059456 -0.6325781273094964 0
-0.7491851514510294 -0.206654771664728 0
-1.22464029479223 -0.009911531668962843 0
-0.4265328472108607 -0.220731337304973 0
-0.6371103933060223 0.1114381251888585 0
-0.1012504990844089 -0.07224969914609684 0
-0.1069149151824729 0.05287071076787129 0
-0.1909620036568182 -0.2752188803218145 0
-0.7711784913652079 -1.158500613082319 0
-0.2664077431362959 -0.2049818548271772 0
-0.1238280232246625 -0.02657788080212972 0
-0.3409732130876816 0.02271339202052387 0
-0.2489647664427403 0.3202246132811296 0
-0.5506990257150053 0.4034860557066503 0
-0.1145229753148937 -0.1693956493507189 0
-0.06858935203442044 -0.1153409283030005 0
-0.1128261629971575 0.1871289898779274 0
0.3856963212878988 -1.236047471127261 0
1.791411509966939 2.477147137983144 0
2.435728800324766 3.222381710131384 0
0.3601437018669248 0.4093324594648077 0
0.2937421256544445 0.2397031762296465 0
2.93656683747494 1.946595897307483 0
-0.07594743527424781 -0.3092608322223501 0
-0.04438346549041589 -0.2077887795746971 0
-0.09363760331250541 -0.4916977402047275 0
0.03877485330824624 -0.2884549328819144 0
0.02469369159070773 -0.2019272701555138 0
0.1355102656857652 -0.2337779525642811 0
0.2067305615687843 -0.3372795923939901 0
0.321575474346372 -0.2491375577736898 0
0.228109055058082 -0.144478205666993 0
0.08719288185461523 -0.155743974458713 0
0.1334296277140962 -0.1222576107363552 0
0.203158622971103 -0.05578563295827535 0
0.127414508660106 0.005419670279889961 0
0.1394700014174114 -0.08574803114585988 0
0.3855773744413634 -0.07366642651760366 0
0.2802900317014532 0.02883901086909643 0
0.4510839124525436 0.1306220723395152 0
0.2175128293358146 0.1342628732128769 0
0.09808130515967162 0.07904979363931407 0
0.1447509085003226 0.2816935993637477 0
0.008177009091594538 0.2685407782791235 0
0.03247236089459467 0.1126287051742897 0
0.130657746784182 0.1825220012664012 0
0.04375448431996896 0.1968819891812868 0
-0.01650349085891405 0.1672615565987128 0
0.0295614516224343 0.1359777286153663 0
0.02519346166752433 -0.1237763260840236 0
0.05080083330648257 -0.1389046169199683 0
0.02123454562878064 -0.1531792161847919 0
-0.02121070239372864 -0.1547795981198468 0
-0.05640315497841534 -0.1389257980268858 0
3.223003883463571 -0.09942111530076962 0
0.01436327534221239 0.1211419801185057 0
-0.8941454799581192 0.2182633155305736 0
-0.05116394330820512 -0.1100754006907807 0
-0.4394911843774868 2.24425737628534 0
0.1587955307529841 0.07797388816357578 0
0.1141585592461259 0.1199624010964988 0
0.06609688689030331 0.1383082584068135 0
2.782134754606876 -1.640262431397252 0
0.4012982032606004 -0.3316507023430807 0
0.3991620303437142 -0.1559076183571535 0
2.176220695108582 0.9795389285540891 0
-5.274154919957834 -0.499433609957089 0
-2.360984495849531 -0.3216204763071467 0
0.5744769129260019 -0.04890260166018844 0
-0.4698839675512998 0.6977363406534509 0
0.4924388663713908 -4.088798053031788 0
3.818364680332248 0.8762305438822292 0
0.0506533142364061 0.1132722615209627 0
-0.7884236725014162 0.8496725077180241 0
0.1783093945540573 0.02151931516639114 0
0.1731269645687121 -0.02276648495128291 0
0.532271400652067 1.674004782234965 0
1.127309008705823 2.480673776116801 0
-0.2172273299178684 -0.1171956053096582 0
-0.1109857691297312 -0.1052781285575869 0
1.433511177997126 -0.8848130934911713 0
4.057468364368827 1.741270460089053 0
0.1558980449873462 -0.6017563058018031 0
-1.532415027836899 -1.523104719180351 0
3.130768284099286 -1.04617708255879 0
-7.474461296484919 0.3840237659002174 0
-0.5641461177440443 2.791044593554282 0
0.008694478462296096 3.078085010391526 0
1.972452392159468 -5.401656004184157 0
1.249284408560159 -2.094081132529477 0
0.5260784426123974 -1.817616852899872 0
0.09636671451004371 -0.06695355331545934 0
-2.056640241637312 -4.222077664592362 0
-1.204088488850856 3.008194530040306 0
6.786761116118711 -4.654793619194462 0
-0.3639727602715186 1.004088154471386 0
-0.04873763299588027 0.5320907000118693 0
-1.581455982879964 1.411468011645213 0
-0.1587656300470054 -0.06334262509163889 0
-0.1635520686740373 0.03980681395927728 0
-0.113970011555855 0.007418071194838937 0
-0.127701294847665 -0.04971767793929941 0
-0.1079067563336929 -0.04933792925929046 0
-0.5925815577380008 -1.566102784442824 0
-0.1285282405199083 -2.069316109132434 0
0.9079616742612822 -0.9355040234717779 0
-5.785860808210121 -3.73222793845123 0
-6.894927256740734 3.849490905400194 0
-1.318585568683368 -5.560346862243263 0
-0.5127406843307253 5.687242705360829 0
0.09636255830381056 0.6095041542779915 0
-4.577068906131069 6.839321662979192 0
2 2 0 40
344
345
346
347
348
349
350
351
352
353
354
355
356
357
358
359
360
361
362
363
364
365
366
367
368
369
370
371
372
373
374
375
376
377
378
379
380
381
382
383
0.09882970084204287 0.0007736159681901727 0
-0.0988230914670805 -0.0007703664107135726 0
0.0145990290074321 0.09774547179450904 0
-0.009906224303070733 -0.09889333330774763 0
0.05882175179978622 -0.07944596773194418 0
-0.06338480373020879 0.07666009808168654 0
0.03250797310448162 -0.09349330662248956 0
0.08917637665947598 -0.04297734496389609 0
-0.088437371114566 0.04410838140260434 0
-0.07101185689690266 0.06899053033719312 0
0.09432988394143801 -0.0296690315872213 0
-0.0941569174485857 0.02993895081707829 0
0.01670874989243912 -0.09745153645015608 0
-0.0006762301344357072 0.09879378651115724 0
0.001343616543539518 -0.09897474647424399 0
0.08068500900412374 -0.0570960621502949 0
-0.08031309585373013 0.05761859445099754 0
0.07031180288090184 -0.06941325954461874 0
-0.04769793499965667 0.08674069301043721 0
0.04560035584900501 -0.0877435794793249 0
-0.09765271688328223 0.01499953119784773 0
0.09768537338990385 -0.01494936801506393 0
-0.03186269415561347 0.09353768817846694 0
-0.01606268054350369 0.09746501474844269 0
0.09372917429776266 0.03132165856178164 0
0.06854569350378668 0.07140780801017484 0
-0.06920726008637425 -0.07055751272105475 0
-0.02767946667459125 -0.09504572194353286 0
-0.09371956228601559 -0.03136182860931913 0
-0.04359995649129952 -0.08869540373147053 0
0.04411668608551577 0.08847237152575214 0
-0.08773458179132326 -0.0454297235658386 0
-0.07962064017955772 -0.05848685181863898 0
0.07925959871739324 0.05906376118271526 0
0.087747144347009 0.04540604192109468 0
-0.09750837652152715 -0.0159703746859696 0
0.09751202031450007 0.01595846550927384 0
-0.05750783291874532 -0.08034400952722384 0
0.05748315109557665 0.08046399780830474 0
0.0300275747858604 0.0941421150141558 0
2 3 0 271
384
385
386
387
388
389
390
391
392
393
394
395
396
397
398
399
400
401
402
403
404
405
406
407
408
409
410
411
412
413
414
415
416
417
418
419
420
421
422
423
424
425
426
427
428
429
430
431
432
433
434
435
436
437
438
439
440
441
442
443
444
445
446
447
448
449
450
451
452
453
454
455
456
457
458
459
460
461
462
463
464
465
466
467
468
469
470
471
472
473
474
475
476
477
478
479
480
481
482
483
484
485
486
487
488
489
490
491
492
493
494
495
496
497
498
499
500
501
502
503
504
505
506
507
508
509
510
511
512
513
514
515
516
517
518
519
520
521
522
523
524
525
526
527
528
529
530
531
532
533
534
535
536
537
538
539
540
541
542
543
544
545
546
547
548
549
550
551
552
553
554
555
556
557
558
559
560
561
562
563
564
565
566
567
568
569
570
571
572
573
574
575
576
577
578
579
580
581
582
583
584
585
586
587
588
589
590
591
592
593
594
595
596
597
598
599
600
601
602
603
604
605
606
607
608
609
610
611
612
613
614
615
616
617
618
619
620
621
622
623
624
625
626
627
628
629
630
631
632
633
634
635
636
637
638
639
640
641
642
643
644
645
646
647
648
649
650
651
652
653
654
0.01607322305484278 -0.0145443318655218 0
-0.01625614842586328 0.0141226766635242 0
0.02204168091382963 -0.002712545745591891 0
-0.022662339639956 0.004405933426753873 0
-0.003177441997484439 0.02144119536952032 0
0.003043304477171411 -0.02178824149328894 0
0.02011128520854304 0.009889400310373456 0
-0.02067039444281265 -0.007447082732406823 0
0.01087936270823108 0.01919231670994834 0
-0.01020164133128657 -0.01941409460024553 0
-0.06874519433175906 0.04084958829898087 0
0.07113227452894946 -0.03653935191814508 0
-0.04341224465615156 0.06668293670623739 0
0.04597374530256085 -0.06444195662949541 0
0.07842035315543985 0.01234459556022892 0
-0.07822538735814678 -0.007867120383593693 0
0.002689094945306295 0.0805248959159937 0
-0.0005741584764956108 -0.07959420355737309 0
-0.05939092555093335 -0.05201559225520896 0
0.05659566548254877 0.05569676995701313 0
0.02461951234553797 0.07593874507078038 0
-0.02459912815060844 -0.07451722919427974 0
-0.07804563810850787 0.01853998042494253 0
0.07872269108233571 -0.01367344028021729 0
-0.0196578302679054 0.0784177266615346 0
0.02347138154338153 -0.07565189647379179 0
0.07134955675080229 0.03604115644004811 0
-0.07239585706466339 -0.03278909259108692 0
0.01517979980418769 0.01622827055070369 0
0.01586926215274943 0.02083609701251826 0
0.02198847118487377 0.01669192263777535 0
0.02143063444082192 0.02619340069108495 0
0.01584058559797099 0.03100650489908491 0
0.02703717426486349 0.02105086070178231 0
0.02729291023012244 0.03116033757452633 0
0.0328687142973321 0.02588385948018267 0
0.03678907868175291 0.02145635141287408 0
0.03376640689422497 0.03624405032512905 0
0.0270790834559318 0.04106845819339066 0
0.04463219441818252 0.02272037457506335 0
0.04269065969383862 0.01354808809446267 0
0.03326690735840981 0.047367262635156 0
0.0244730100112867 0.05206166062662746 0
0.05123873494651191 0.0183978915066331 0
0.05065398149347473 0.01222373951527638 0
0.04046403165300839 0.006268952582475609 0
0.04979680075209973 0.002271695388544616 0
0.04178401893556792 -0.005171608129990878 0
0.04653896757869026 -0.01249475743014644 0
0.03899545153506977 -0.01674657286753182 0
0.04931997075214052 -0.02141208139961049 0
0.04087155147935835 -0.02415903264217523 0
0.03405301310015749 -0.0195236861409137 0
0.03345479082411978 -0.02526749302769465 0
0.04171473794070443 -0.03263443947282685 0
0.03296841686225534 -0.03370098565120924 0
0.02323773801807537 -0.03319525824906235 0
0.02426839610543517 -0.04116339452941942 0
0.01517431213168396 -0.03751129163618661 0
0.01847139586392601 -0.04458849222654183 0
0.00747450965540945 -0.04018584157737439 0
0.009969659938486256 -0.04811436262909275 0
-0.001177727344381549 -0.04103666074767991 0
-0.001156843867759067 -0.05106694724585126 0
-0.01179881156017535 -0.04717683062141897 0
-0.009725230218777596 -0.03983798952653528 0
-0.01773938239568081 -0.04454114511845254 0
-0.01761749279457774 -0.03871345528736362 0
-0.02551191582040627 -0.0392533915895233 0
-0.02656685206979508 -0.02942544540207524 0
-0.03604761755394349 -0.03397620903964477 0
-0.03311944411223719 -0.02235118392396849 0
-0.0405781433178217 -0.02703387534852306 0
-0.03761989546593165 -0.0159845255235767 0
-0.03326245517405639 -0.04113714308693275 0
-0.04511078362440051 -0.01970252859395671 0
-0.04822370658775871 -0.0124830221886414 0
-0.04138967279032454 -0.009588877933330384 0
-0.0455221238985387 -0.003925878422861177 0
-0.0392629768226055 0.000763590234444234 0
-0.04442492959469289 0.006585199785041731 0
-0.03907332263057114 0.01198787097786521 0
-0.0433198637711953 0.0152517957364578 0
-0.03531488438207041 0.01859628456808147 0
-0.04225604970098699 0.02099681238128737 0
-0.0317459330337104 0.02582392364711838 0
-0.04003841267033549 0.03077025085556036 0
-0.03364015772670479 0.03589463480502531 0
-0.05063298355070415 0.001223633634415492 0
-0.02797283780686961 0.03293929818287129 0
-0.02436380254864721 0.04023007963984448 0
-0.01599053187364816 0.03639129938097631 0
-0.01531683331590368 0.04333188444758297 0
-0.007844665350444095 0.03848648070056425 0
-0.009993532465190054 0.04577941554108823 0
-0.02015980658155451 0.04689296617292681 0
-0.05015564541473161 0.02072412899749336 0
-0.04444072418460837 0.04020312685365285 0
0.02338300703940491 -0.05208049224469592 0
-0.05607544360104491 -0.01400056368504626 0
0.04361298206953411 -0.0410656326637447 0
-7.18237070808764e-06 0.03906755387937828 0
-0.0003189310749511718 0.05007905250666761 0
-0.008655320377608597 0.05810018766097717 0
0.05516198595210057 -0.007786681652655066 0
0.05313015850364157 0.02775744635362975 0
-0.007304075006062569 -0.05944587823934148 0
-0.04912190590461465 -0.03295708310132522 0
0.05858512924599954 0.01173539816813553 0
0.03607844192317853 0.0003330420134341687 0
0.01835216292977606 -0.02840175440769147 0
0.005179544290558537 -0.06008618603024628 0
-0.01484070035855034 -0.0168272475732008 0
-0.002490331090649789 -0.0236973252820818 0
0.002080068458287828 -0.02650450614456104 0
0.002712070203164326 0.02360330264103338 0
0.02347015906986879 0.003154787433314426 0
0.02568934088243433 0.009954733707351063 0
-0.02165102059269336 -0.003167854498933719 0
-0.01955874530338493 0.009146753933042933 0
-0.0235970553413061 0.01239537500054093 0
0.01984198633193328 -0.008917122869567027 0
-0.01185609779029973 0.01814811622133361 0
0.01139280123903631 -0.0184732842363239 0
0.0111805602998449 0.04715394336508816 0
0.005931729508690976 0.05999383546785463 0
-0.02562929496386753 -0.009234655245979778 0
0.02461218531327818 -0.01282239370741162 0
0.04094011380992702 0.04175801260607279 0
0.03994340112655392 0.05481076303805846 0
-0.002212743246180806 0.02530489783604609 0
-0.02412719970190679 -0.01356879481796105 0
-0.05075207106675614 0.03706728245909643 0
-0.05128057925433387 0.04653740269827816 0
-0.004214870201800465 -0.02764250381090581 0
-0.01439920542824883 -0.02256049184531837 0
0.0501097009643273 -0.03773200995275908 0
0.04840456546414406 -0.04883032939139949 0
-0.00396733706371737 0.06752244086108457 0
-0.02569042146333377 0.007803045458268796 0
-0.01442506166002257 0.06188858902029853 0
0.006879767800814632 -0.02619731176947371 0
-0.007458691245256673 0.02549814946208565 0
-0.02708909251292278 -0.001655788185310449 0
-0.01998072863719407 0.01815640325816079 0
-0.0009665024355395243 -0.03465971175486399 0
0.005399794551154195 0.02947753889152109 0
0.02673500520355837 -0.0238904990764007 0
-0.04332925303423482 0.05269877413023674 0
0.0349762753371617 0.008427891045290332 0
-0.02534832921443166 0.02204453476423283 0
0.0350809097964326 -0.01082952469040857 0
-0.03127632610384221 -0.01204818945319665 0
0.02790995099807883 0.001564821694571638 0
0.0391137202712557 -0.05502414832029699 0
-0.0219150417036373 -0.02084643310222639 0
-0.01583115755424104 -0.05489830025180927 0
-0.02044488340995655 -0.06375900709641841 0
-0.02990987013512534 -0.05823709038645526 0
-0.03577482708403979 -0.06855821952098944 0
-0.03702482544851115 -0.05133500295299644 0
-0.01258871275764413 -0.07818882202342063 0
0.01954573552789536 -0.02104192103150919 0
0.0642124024519138 -0.04708073634045513 0
0.07586128690549035 0.02471389864116582 0
-0.07591134910828558 -0.02104819297603715 0
-0.0653405868116242 -0.01613911959993114 0
-0.06473662168120854 -0.002026605617408599 0
-0.07923066023363988 0.005221486724652693 0
0.06471292651270852 0.0465145349401424 0
0.05582540314799614 0.04035700638305705 0
-0.06738490430713384 -0.04290537473191242 0
-0.06162583630091083 -0.03302322869826154 0
-0.0743515554166297 0.0297629284252107 0
-0.0615234120674286 0.03204052880863276 0
0.07626487503442059 -0.02542972117804861 0
0.06124216272523389 -0.02976389286219931 0
0.07909064683082387 -0.0006798320780629787 0
-0.03256159792502544 0.07305645595557812 0
-0.03468588372377374 0.05928777517235179 0
0.03508494045185533 -0.0707399406078546 0
0.01888200139256335 -0.06544245984925282 0
-0.008896701045273332 0.07955752040020692 0
0.01153381092398608 -0.07867110595527381 0
0.01355037311836021 0.07968733481816392 0
0.01830481863262119 0.06619827581628887 0
0.02998019195750265 0.0606882225705412 0
0.03579877813234703 0.07051696053309707 0
0.01499072401976729 0.05593708163993032 0
-0.0348262815195211 -0.005635603756159569 0
-0.04707088076457863 -0.05818169921075816 0
0.05033924265418082 -0.03066686722180026 0
0.05843786971751699 -0.01782852439526723 0
0.0680830690076739 -0.01460378101282997 0
0.06554181566095243 -0.001210700314908939 0
-0.05498222211236398 -0.005707002439147296 0
-0.05546694238949407 0.00766037065947228 0
-0.02902745563889655 0.0152919807453906 0
0.05586024357145714 -0.05643258078920978 0
0.009845637567140072 0.03734704104695007 0
0.01717298700980372 0.03941861381966085 0
-0.03451721721029535 0.04409849071347012 0
0.03967971446586051 0.03029388672094654 0
0.04667213153293524 0.06381488029503359 0
0.03248103670315832 -0.0445276965878565 0
-0.02423030890646372 -0.04863404301599522 0
-0.06374390359396206 -0.02617810084568043 0
0.006800302787976471 -0.03275755420180529 0
-0.01451753958616144 0.05221986561086396 0
-0.0533410662767458 0.05885891049113145 0
-0.06187955545214105 0.05025390261829988 0
-0.04821899470367804 0.01267032127537638 0
0.014174942188015 -0.05642993865790095 0
-0.0008860071855358293 -0.06950941881426204 0
0.05702891870335642 0.01999404136602916 0
-0.04165642818686395 -0.03698109163897927 0
-0.04891394971668112 -0.04408852288152067 0
-0.05067407281285654 0.03006396009312065 0
0.03011148202017603 -0.01676954780459863 0
-0.01444184108136815 0.02452212044650096 0
-0.0009104805719736073 0.031343875368368 0
0.05806810694566196 0.004663025122273096 0
0.06738673031852992 0.01156452005158756 0
-0.03202991294170606 0.006964790602975272 0
-0.008332526870314154 -0.02628853185536276 0
-0.009100292556018937 -0.03269221562059978 0
0.01107891353046297 0.02597893186073169 0
0.008782512017897075 -0.06851437165378139 0
-0.05882432977827824 0.01708089629711629 0
0.01985472430894825 0.04464909846078653 0
-0.01045911252974611 -0.06779874290990648 0
0.02908727744316425 -0.06069850548078254 0
0.04837474140393117 0.04815595756335472 0
0.03367153173718693 0.01502562019497842 0
-0.05372415317101372 -0.02286922253686867 0
-0.007431391357747919 0.03149264852872424 0
0.006117412099391708 0.07145263411426761 0
-0.02743035485472713 -0.01723483149711491 0
-0.02126868329497357 0.02889783222582696 0
-0.02711298237712476 0.05240376362898475 0
0.02155487974026895 0.03582328011004146 0
0.03131365421402232 0.004995113598593518 0
-0.05601539782077408 -0.04355781084776975 0
0.0291794013535464 -0.00475719212999239 0
-0.05782559358870135 0.04002880215046985 0
-0.02560217975857827 0.06503601622014599 0
0.06160936748010441 0.03159727980194305 0
-0.06997932533525572 0.020039963491384 0
0.06556683152635884 0.02199351083291739 0
-0.02007511485322621 0.0581224678857054 0
0.06886472544406927 -0.0231117233307048 0
0.05574024012329076 -0.04109011107388373 0
0.01350237578010317 -0.03056045184968185 0
-0.01243103269582362 0.0308603346215079 0
-0.01673665183272248 -0.03100688272986011 0
-0.01904127944417884 -0.01379046845951865 0
-0.04959641328308989 -0.007388578201900616 0
-0.001024684501977017 -0.06283707466037505 0
-0.03177043658333324 -0.04701043767988086 0
0.01784821842344022 0.01332298285179444 0
-0.06831588568351042 0.01099338069320529 0
0.0125171515140589 -0.02410474283692275 0
0.009618025592474218 0.06566767698970213 0
0.04737332623265704 0.03499712149956377 0
-0.04053562224751442 -0.04327967886494433 0
0.006543313676079328 -0.02071410356351612 0
-0.006819135340674439 -0.02114241231088843 0
-0.00689594441019082 0.02043018957173088 0
0.01254392134770269 0.07291386351551449 0
0.007590799961860738 0.02109721767904883 0
-0.01480601401876297 0.06916467940956227 0
2 4 0 32
655
656
657
658
659
660
661
662
663
664
665
666
667
668
669
670
671
672
673
674
675
676
677
678
679
680
681
682
683
684
685
686
-0.008612168973220816 0.00882227475845534 0
0.008544093314935429 -0.009110891703221867 0
0.009620487259192779 0.008616660492462404 0
-0.008405056046545407 -0.008998916744888546 0
0.01252980320998008 -0.001740970763764251 0
0.0002020237814469215 -0.01204839520410869 0
-0.01195854260763464 -0.003227732232536179 0
0.002181409639558987 0.01217391574017846 0
-0.0009543477156229139 0.01392168586517519 0
-0.001911721865475931 0.007946934466246768 0
0.005376568445492128 0.006696671593666247 0
0.001270110002492427 0.003842545209459167 0
0.004396165640358734 -0.0002585498885618032 0
0.0004727184313504763 -0.003332612525617881 0
-0.002586839516008712 0.0003829214867044155 0
-0.002435566697198155 -0.006773761870340744 0
0.006881288038090835 -0.004563696206291865 0
-0.005500649528843139 0.00441191527662272 0
-0.01181353417255755 0.003348399362904777 0
0.00294154143000122 -0.006988270417263442 0
-0.006809976161408811 -0.003299529411338011 0
-0.004080747340821249 -0.01106985097285214 0
-0.007984185915982496 0.001638260204317052 0
0.00763320886162791 0.01152877090787231 0
-0.01145733102572356 -0.007468856062242013 0
0.01407105641532337 0.001165921494624919 0
0.01239051065794486 0.005392551420980754 0
0.008440406388342649 0.00248561640407037 0
0.0116050066005453 -0.00734138123966408 0
0.004346546213225054 -0.01121713075365242 0
-0.004994635272285768 0.01220948308929652 0
0.0002487082247470714 -0.008603418927368996 0
$EndNodes
$Elements
5 684 1 684
2 1 2 18
1 267 27 3 
2 3 64 267 
3 332 46 4 
4 4 45 332 
5 273 31 30 
6 30 29 273 
7 203 38 37 
8 37 36 203 
9 214 41 40 
10 40 39 214 
11 43 42 238 
12 238 44 43 
13 237 51 50 
14 50 49 237 
15 55 54 224 
16 224 56 55 
17 61 60 323 
18 323 62 61 
2 1 3 244
19 214 248 331 238 
20 123 9 10 139 
21 127 130 251 135 
22 275 274 201 213 
23 297 226 286 141 
24 268 222 264 265 
25 180 176 324 160 
26 227 155 321 150 
27 131 132 251 130 
28 343 15 16 121 
29 152 151 150 321 
30 217 216 210 295 
31 236 245 171 288 
32 126 130 127 129 
33 192 234 288 171 
34 233 234 166 232 
35 132 131 133 319 
36 333 330 311 237 
37 209 208 207 200 
38 171 305 170 192 
39 279 203 287 280 
40 308 134 290 195 
41 18 124 317 2 
42 145 150 151 149 
43 212 323 222 268 
44 315 162 161 158 
45 342 198 197 196 
46 274 253 252 201 
47 140 139 135 313 
48 21 22 183 125 
49 142 123 139 140 
50 133 136 137 325 
51 327 196 197 195 
52 9 123 189 1 
53 140 143 144 142 
54 180 128 175 176 
55 314 219 216 217 
56 304 280 287 276 
57 264 260 263 265 
58 212 307 306 267 
59 299 164 163 162 
60 257 231 230 220 
61 202 293 280 304 
62 241 235 231 239 
63 257 220 314 221 
64 284 256 259 283 
65 209 200 198 252 
66 212 268 266 307 
67 12 13 188 126 
68 327 195 194 193 
69 10 127 135 139 
70 24 25 326 122 
71 10 11 129 127 
72 19 20 175 128 
73 342 201 252 198 
74 168 165 234 192 
75 242 334 48 47 
76 215 218 207 208 
77 253 271 209 252 
78 249 156 336 322 
79 137 174 172 191 
80 169 124 177 338 
81 147 26 1 189 
82 305 193 194 170 
83 146 218 312 227 
84 145 294 227 150 
85 235 233 232 231 
86 170 194 138 329 
87 270 271 253 272 
88 302 167 340 185 
89 33 304 276 34 
90 300 210 215 208 
91 315 166 299 162 
92 315 158 157 154 
93 16 339 190 121 
94 179 14 15 343 
95 314 220 229 219 
96 122 186 320 184 
97 124 18 19 177 
98 125 175 20 21 
99 126 129 11 12 
100 122 184 23 24 
101 285 247 311 246 
102 2 317 182 17 
103 174 137 136 178 
104 300 271 270 269 
105 179 188 13 14 
106 319 318 290 134 
107 277 272 253 274 
108 192 170 329 168 
109 336 154 157 153 
110 296 210 300 269 
111 259 256 255 258 
112 328 342 196 204 
113 164 168 191 172 
114 130 126 341 131 
115 226 146 316 286 
116 261 217 295 262 
117 200 199 197 198 
118 22 23 184 183 
119 162 163 169 161 
120 244 213 328 204 
121 225 289 247 285 
122 121 178 179 343 
123 138 191 168 329 
124 165 168 164 299 
125 221 314 217 261 
126 243 236 233 235 
127 25 26 147 326 
128 256 246 239 255 
129 245 236 243 244 
130 297 141 254 228 
131 246 256 284 285 
132 161 160 157 158 
133 178 121 190 174 
134 208 209 271 300 
135 146 226 207 218 
136 244 204 301 245 
137 230 240 335 156 
138 240 230 231 232 
139 207 205 199 200 
140 239 246 310 241 
141 164 172 173 181 
142 281 224 284 283 
143 19 128 338 177 
144 186 122 187 148 
145 175 125 340 176 
146 241 310 243 235 
147 138 194 195 290 
148 302 185 320 159 
149 257 221 258 255 
150 145 149 186 148 
151 160 161 169 180 
152 134 309 132 319 
153 145 148 187 144 
154 154 335 240 315 
155 275 278 277 274 
156 251 254 313 135 
157 138 325 137 191 
158 172 174 190 173 
159 141 286 143 303 
160 264 282 283 259 
161 264 259 258 260 
162 309 250 251 132 
163 204 196 327 301 
164 224 225 285 284 
165 263 262 296 269 
166 210 216 337 215 
167 142 144 187 147 
168 237 49 48 334 
169 149 151 302 159 
170 228 254 251 250 
171 205 207 226 297 
172 173 182 317 181 
173 320 186 149 159 
174 123 142 147 189 
175 144 143 286 316 
176 234 233 236 288 
177 164 181 298 163 
178 178 136 341 179 
179 16 17 182 339 
180 153 152 322 336 
181 228 250 309 206 
182 232 166 315 240 
183 57 56 224 281 
184 152 153 302 151 
185 298 181 317 124 
186 330 310 246 311 
187 183 185 340 125 
188 124 169 163 298 
189 263 260 261 262 
190 206 205 297 228 
191 218 215 337 312 
192 210 296 262 295 
193 58 57 281 223 
194 157 167 302 153 
195 184 320 185 183 
196 293 278 279 280 
197 237 334 242 333 
198 167 324 176 340 
199 205 206 308 199 
200 126 188 179 341 
201 227 294 316 146 
202 165 299 166 234 
203 254 141 303 313 
204 231 257 255 239 
205 203 36 35 287 
206 270 266 263 269 
207 268 265 263 266 
208 225 53 52 289 
209 171 245 301 305 
210 248 279 278 275 
211 133 131 341 136 
212 219 249 337 216 
213 322 155 337 249 
214 221 261 260 258 
215 270 306 307 266 
216 34 276 287 35 
217 63 62 323 212 
218 290 318 325 138 
219 167 157 160 324 
220 51 247 289 52 
221 283 282 223 281 
222 128 180 169 338 
223 156 249 219 229 
224 122 326 147 187 
225 278 293 292 277 
226 173 190 339 182 
227 227 312 337 155 
228 319 133 325 318 
229 134 308 206 309 
230 213 201 342 328 
231 155 322 152 321 
232 144 316 294 145 
233 330 331 243 310 
234 277 292 291 272 
235 143 140 313 303 
236 272 291 306 270 
237 305 301 327 193 
238 156 335 154 336 
239 28 27 267 211 
240 28 211 273 29 
241 32 31 273 202 
242 202 304 33 32 
243 203 214 39 38 
244 238 42 41 214 
245 45 44 238 332 
246 47 46 332 242 
247 311 247 51 237 
248 53 225 224 54 
249 59 58 223 222 
250 59 222 323 60 
251 64 63 212 267 
252 220 230 156 229 
253 199 308 195 197 
254 293 202 273 292 
255 291 211 267 306 
256 292 273 211 291 
257 275 213 244 248 
258 203 279 248 214 
259 264 222 223 282 
260 331 330 333 242 
261 238 331 242 332 
262 243 331 248 244 
2 2 3 80
263 31 32 382 369 
264 50 51 381 370 
265 30 31 369 377 
266 49 50 370 376 
267 4 46 379 345 
268 47 48 375 372 
269 28 29 378 368 
270 46 47 372 379 
271 32 33 374 382 
272 51 52 373 381 
273 27 28 368 380 
274 52 53 371 373 
275 53 54 347 371 
276 33 34 383 374 
277 34 35 346 383 
278 48 49 376 375 
279 29 30 377 378 
280 3 27 380 344 
281 45 4 345 364 
282 35 36 357 346 
283 54 55 358 347 
284 64 3 344 365 
285 38 39 362 366 
286 57 58 363 350 
287 43 44 355 352 
288 37 38 366 367 
289 62 63 354 351 
290 56 57 350 356 
291 42 43 352 360 
292 61 62 351 359 
293 55 56 356 358 
294 36 37 367 357 
295 58 59 348 363 
296 39 40 349 362 
297 44 45 364 355 
298 63 64 365 354 
299 60 61 359 361 
300 41 42 360 353 
301 59 60 361 348 
302 40 41 353 349 
303 379 84 6 345 
304 357 74 73 346 
305 358 93 92 347 
306 380 65 5 344 
307 381 89 88 370 
308 382 70 69 369 
309 378 67 66 368 
310 375 86 85 372 
311 348 97 96 363 
312 349 78 77 362 
313 355 82 81 352 
314 347 92 91 371 
315 354 101 100 351 
316 374 71 70 382 
317 373 90 89 381 
318 346 73 72 383 
319 368 66 65 380 
320 372 85 84 379 
321 369 69 68 377 
322 370 88 87 376 
323 383 72 71 374 
324 371 91 90 373 
325 376 87 86 375 
326 363 96 95 350 
327 377 68 67 378 
328 362 77 76 366 
329 364 83 82 355 
330 365 102 101 354 
331 360 80 79 353 
332 359 99 98 361 
333 353 79 78 349 
334 361 98 97 348 
335 367 75 74 357 
336 356 94 93 358 
337 350 95 94 356 
338 352 81 80 360 
339 351 100 99 359 
340 344 5 102 365 
341 345 6 83 364 
342 366 76 75 367 
2 3 3 301
343 575 560 576 434 
344 580 551 579 472 
345 621 536 457 455 
346 575 520 635 560 
347 572 426 570 569 
348 446 529 609 449 
349 602 531 437 436 
350 601 516 628 558 
351 434 576 488 432 
352 513 570 426 425 
353 543 405 541 542 
354 433 535 602 436 
355 508 572 509 486 
356 90 543 574 89 
357 469 467 581 534 
358 607 463 573 527 
359 480 601 558 612 
360 446 444 591 529 
361 519 638 609 608 
362 602 511 546 531 
363 617 533 429 424 
364 583 530 610 416 
365 522 620 400 566 
366 600 491 556 626 
367 607 523 504 581 
368 593 532 563 396 
369 492 605 578 606 
370 574 600 626 402 
371 521 538 397 582 
372 89 574 402 88 
373 114 113 639 496 
374 105 104 643 412 
375 564 397 538 615 
376 92 545 405 91 
377 500 537 625 501 
378 545 92 93 401 
379 550 549 411 590 
380 71 571 587 70 
381 531 440 439 437 
382 387 523 607 527 
383 84 399 552 6 
384 493 431 430 429 
385 480 612 580 595 
386 433 436 437 435 
387 571 71 72 404 
388 543 90 91 405 
389 527 510 391 502 
390 627 537 500 386 
391 627 386 505 511 
392 607 581 467 465 
393 8 387 527 502 
394 103 500 501 390 
395 504 523 387 503 
396 6 552 406 83 
397 444 442 636 591 
398 497 650 608 518 
399 628 394 557 558 
400 440 531 546 494 
401 624 422 613 584 
402 539 621 455 453 
403 70 587 403 69 
404 535 433 432 431 
405 499 653 610 530 
406 451 450 448 449 
407 602 535 627 511 
408 81 394 594 80 
409 617 501 625 533 
410 424 429 430 428 
411 551 399 549 550 
412 615 565 409 564 
413 117 649 507 118 
414 115 650 497 116 
415 108 651 506 109 
416 532 593 594 517 
417 440 442 443 441 
418 571 404 569 570 
419 106 653 499 107 
420 614 541 405 545 
421 69 403 553 68 
422 88 402 555 87 
423 565 596 495 611 
424 74 400 568 73 
425 65 398 561 5 
426 78 396 562 77 
427 97 397 564 96 
428 527 573 536 510 
429 596 565 615 482 
430 505 384 546 511 
431 485 477 619 604 
432 525 498 529 591 
433 449 448 447 446 
434 67 410 548 66 
435 86 411 549 85 
436 83 406 557 82 
437 102 407 559 101 
438 100 395 547 99 
439 651 526 603 506 
440 617 420 419 417 
441 462 461 573 463 
442 475 477 478 476 
443 483 579 551 550 
444 76 408 566 75 
445 95 409 567 94 
446 576 577 578 488 
447 461 460 459 457 
448 465 467 468 466 
449 473 471 470 469 
450 435 434 432 433 
451 585 532 517 481 
452 442 444 445 443 
453 453 455 456 454 
454 617 424 423 420 
455 588 538 521 484 
456 453 638 519 539 
457 505 386 7 120 
458 503 387 8 111 
459 643 104 103 390 
460 639 113 112 391 
461 439 438 435 437 
462 444 446 447 445 
463 440 494 636 442 
464 457 536 573 461 
465 464 463 607 465 
466 477 485 486 478 
467 542 544 574 543 
468 474 473 622 475 
469 467 469 470 468 
470 385 503 111 110 
471 386 500 103 7 
472 384 505 120 119 
473 391 112 8 502 
474 541 540 589 542 
475 503 385 528 504 
476 455 457 459 456 
477 469 534 622 473 
478 452 451 638 453 
479 574 544 648 600 
480 429 533 625 493 
481 396 78 79 593 
482 486 485 583 508 
483 398 65 66 548 
484 399 84 85 549 
485 394 81 82 557 
486 395 100 101 559 
487 410 67 68 553 
488 411 86 87 555 
489 404 72 73 568 
490 400 74 75 566 
491 401 93 94 567 
492 407 102 5 561 
493 408 76 77 562 
494 409 95 96 564 
495 431 493 627 535 
496 475 476 479 474 
497 80 594 593 79 
498 417 414 501 617 
499 582 98 99 547 
500 463 464 472 462 
501 612 644 551 580 
502 428 427 423 424 
503 508 613 426 572 
504 119 118 507 384 
505 110 109 506 385 
506 453 454 458 452 
507 431 432 488 430 
508 397 97 98 582 
509 434 435 438 575 
510 486 509 522 487 
511 570 513 587 571 
512 512 425 422 421 
513 603 637 475 622 
514 447 448 540 490 
515 484 520 575 438 
516 555 556 590 411 
517 385 506 603 528 
518 105 412 413 392 
519 578 577 407 561 
520 425 426 613 422 
521 614 490 540 541 
522 419 418 415 417 
523 621 515 510 536 
524 417 415 413 414 
525 611 597 401 567 
526 581 504 528 534 
527 497 518 529 498 
528 421 422 624 418 
529 470 471 585 481 
530 473 474 585 471 
531 116 497 498 389 
532 438 439 588 484 
533 440 441 588 439 
534 114 496 519 393 
535 451 452 589 450 
536 567 409 565 611 
537 107 499 514 388 
538 465 466 595 464 
539 415 416 610 413 
540 448 450 589 540 
541 630 554 647 489 
542 449 609 638 451 
543 443 482 588 441 
544 538 588 482 615 
545 507 649 525 645 
546 420 423 586 419 
547 399 551 644 552 
548 481 516 601 470 
549 418 419 586 421 
550 404 568 652 569 
551 553 403 616 554 
552 478 592 479 476 
553 580 472 464 595 
554 445 596 482 443 
555 468 480 595 466 
556 492 428 430 605 
557 428 492 598 427 
558 423 427 598 489 
559 579 483 460 640 
560 447 495 596 445 
561 486 487 592 478 
562 578 605 430 488 
563 454 456 491 599 
564 481 517 628 516 
565 499 530 604 514 
566 514 526 651 388 
567 470 601 480 468 
568 498 525 649 389 
569 395 559 634 560 
570 561 398 606 578 
571 577 576 560 634 
572 579 640 462 472 
573 456 459 618 491 
574 582 547 635 521 
575 563 532 585 623 
576 556 555 402 626 
577 583 416 624 584 
578 484 521 635 520 
579 425 512 616 513 
580 554 616 512 647 
581 519 496 639 539 
582 522 566 408 654 
583 413 412 643 414 
584 487 524 633 592 
585 396 563 629 562 
586 530 583 485 604 
587 460 483 618 459 
588 598 492 606 632 
589 627 493 625 537 
590 410 553 554 630 
591 513 616 403 587 
592 510 515 639 391 
593 517 594 394 628 
594 583 584 613 508 
595 545 401 597 614 
596 529 518 608 609 
597 475 637 619 477 
598 639 515 621 539 
599 611 495 641 597 
600 550 590 618 483 
601 501 414 643 390 
602 558 557 406 631 
603 577 634 559 407 
604 560 635 547 395 
605 416 415 418 624 
606 544 542 589 642 
607 489 598 632 630 
608 519 608 650 393 
609 604 619 526 514 
610 384 507 645 546 
611 413 610 653 392 
612 461 462 640 460 
613 631 406 552 644 
614 509 572 569 646 
615 474 479 623 585 
616 490 641 495 447 
617 491 618 590 556 
618 491 600 648 599 
619 487 522 654 524 
620 398 548 632 606 
621 116 389 649 117 
622 114 393 650 115 
623 107 388 651 108 
624 105 392 653 106 
625 534 528 603 622 
626 548 410 630 632 
627 452 458 642 589 
628 490 614 597 641 
629 619 637 603 526 
630 633 524 654 629 
631 629 563 623 633 
632 421 586 647 512 
633 644 612 558 631 
634 423 489 647 586 
635 592 633 623 479 
636 591 636 645 525 
637 522 509 646 620 
638 454 599 648 458 
639 562 629 654 408 
640 546 645 636 494 
641 458 648 544 642 
642 568 400 620 652 
643 620 646 569 652 
2 4 3 41
644 8 673 110 111 
645 660 676 115 116 
646 672 664 685 655 
647 676 670 675 658 
648 658 114 115 676 
649 659 682 667 671 
650 671 674 684 656 
651 656 683 659 671 
652 673 8 112 661 
653 673 655 109 110 
654 664 672 669 666 
655 669 668 667 666 
656 682 665 666 667 
657 667 668 674 671 
658 666 665 662 664 
659 657 678 662 665 
660 655 673 677 672 
661 675 677 673 661 
662 661 679 658 675 
663 668 669 675 670 
664 665 682 681 657 
665 685 664 662 663 
666 106 107 663 662 
667 104 105 678 657 
668 114 658 679 113 
669 657 681 103 104 
670 105 106 662 678 
671 113 679 661 112 
672 118 119 683 656 
673 117 118 656 684 
674 119 120 659 683 
675 116 117 684 660 
676 120 7 680 659 
677 108 109 655 685 
678 660 686 670 676 
679 668 670 686 674 
680 684 674 686 660 
681 672 677 675 669 
682 659 680 681 682 
683 107 108 685 663 
684 7 103 681 680 
$EndElements
