MeshVersionFormatted 1
Dimension 
2
Vertices
245
2.000000000000000e-01  0.000000000000000e+00  1
0.000000000000000e+00  2.000000000000000e-01  1
-2.000000000000000e-01  0.000000000000000e+00  1
0.000000000000000e+00  -2.000000000000000e-01  1
0.000000000000000e+00  0.000000000000000e+00  0
2.222222222218438e-02  0.000000000000000e+00  0
4.444444444434372e-02  0.000000000000000e+00  0
6.666666666650216e-02  0.000000000000000e+00  0
8.888888888865518e-02  0.000000000000000e+00  0
1.111111111108744e-01  0.000000000000000e+00  0
1.333333333331544e-01  0.000000000000000e+00  0
1.555555555554345e-01  0.000000000000000e+00  0
1.777777777777158e-01  0.000000000000000e+00  0
0.000000000000000e+00  2.222222222218438e-02  0
0.000000000000000e+00  4.444444444434372e-02  0
0.000000000000000e+00  6.666666666650216e-02  0
0.000000000000000e+00  8.888888888865518e-02  0
0.000000000000000e+00  1.111111111108744e-01  0
0.000000000000000e+00  1.333333333331544e-01  0
0.000000000000000e+00  1.555555555554345e-01  0
0.000000000000000e+00  1.777777777777158e-01  0
-2.222222222218438e-02  0.000000000000000e+00  0
-4.444444444434372e-02  0.000000000000000e+00  0
-6.666666666650216e-02  0.000000000000000e+00  0
-8.888888888865518e-02  0.000000000000000e+00  0
-1.111111111108744e-01  0.000000000000000e+00  0
-1.333333333331544e-01  0.000000000000000e+00  0
-1.555555555554345e-01  0.000000000000000e+00  0
-1.777777777777158e-01  0.000000000000000e+00  0
0.000000000000000e+00  -2.222222222218438e-02  0
0.000000000000000e+00  -4.444444444434372e-02  0
0.000000000000000e+00  -6.666666666650216e-02  0
0.000000000000000e+00  -8.888888888865518e-02  0
0.000000000000000e+00  -1.111111111108744e-01  0
0.000000000000000e+00  -1.333333333331544e-01  0
0.000000000000000e+00  -1.555555555554345e-01  0
0.000000000000000e+00  -1.777777777777158e-01  0
1.969615505871702e-01  3.472963561999428e-02  1
1.879385240934786e-01  6.840402884015656e-02  1
1.732050806066796e-01  1.000000002601682e-01  1
1.532088883486606e-01  1.285575222652010e-01  1
1.285575216276123e-01  1.532088888836611e-01  1
9.999999972536942e-02  1.732050809154458e-01  1
6.840402846358716e-02  1.879385242305386e-01  1
3.472963543712696e-02  1.969615506194147e-01  1
-3.472963561999428e-02  1.969615505871702e-01  1
-6.840402884015656e-02  1.879385240934786e-01  1
-1.000000002601682e-01  1.732050806066796e-01  1
-1.285575222652010e-01  1.532088883486606e-01  1
-1.532088888836611e-01  1.285575216276123e-01  1
-1.732050809154458e-01  9.999999972536942e-02  1
-1.879385242305386e-01  6.840402846358716e-02  1
-1.969615506194147e-01  3.472963543712696e-02  1
-1.969615505871702e-01  -3.472963561999428e-02  1
-1.879385240934786e-01  -6.840402884015656e-02  1
-1.732050806066796e-01  -1.000000002601682e-01  1
-1.532088883486606e-01  -1.285575222652010e-01  1
-1.285575216276123e-01  -1.532088888836611e-01  1
-9.999999972536942e-02  -1.732050809154458e-01  1
-6.840402846358716e-02  -1.879385242305386e-01  1
-3.472963543712696e-02  -1.969615506194147e-01  1
3.472963561999428e-02  -1.969615505871702e-01  1
6.840402884015656e-02  -1.879385240934786e-01  1
1.000000002601682e-01  -1.732050806066796e-01  1
1.285575222652010e-01  -1.532088883486606e-01  1
1.532088888836611e-01  -1.285575216276123e-01  1
1.732050809154458e-01  -9.999999972536942e-02  1
1.879385242305386e-01  -6.840402846358716e-02  1
1.969615506194147e-01  -3.472963543712696e-02  1
6.973563244755082e-02  1.756049256342089e-02  0
1.881406165634626e-02  1.025779897860842e-01  0
1.209388068484385e-01  1.915991578957283e-02  0
1.131070453836083e-01  1.293642214571021e-01  0
2.275062537673724e-02  6.041268080188564e-02  0
2.180498175414845e-02  1.435302179554886e-01  0
1.503710628725852e-01  8.011098766261246e-02  0
6.976495173970830e-02  1.520407438261415e-01  0
3.475788190111828e-02  2.108652622558825e-02  0
1.665050055263085e-01  2.315165740483411e-02  0
2.376621539880714e-02  8.534835964393141e-02  0
3.979383492924767e-02  7.004728115715249e-02  0
3.839020613869090e-02  4.128312058144239e-02  0
5.667535279020879e-02  6.042668751158058e-02  0
5.332697041799108e-02  8.128982110167329e-02  0
8.003545546242020e-02  6.811145695056157e-02  0
7.229074360854140e-02  9.414283728955355e-02  0
5.429749174191978e-02  1.089123505482827e-01  0
1.012441206748112e-01  7.455891410916922e-02  0
1.054247132253147e-01  5.204946949832263e-02  0
8.154468018853754e-02  1.208003690095031e-01  0
9.253853343247896e-02  2.127227658156402e-02  0
5.019222799582703e-02  1.728340608212981e-02  0
8.532189560003708e-02  4.496925829433494e-02  0
1.377320023282304e-01  2.130052942237757e-02  0
1.346811113922511e-01  4.361033902165942e-02  0
1.537936381785187e-02  1.267928972074089e-01  0
4.093076899717828e-02  1.372447027568336e-01  0
4.764122647819390e-02  1.601813428831274e-01  0
2.411403455048562e-02  1.697721174653582e-01  0
1.738476277075316e-02  4.019792977378105e-02  0
9.108120340506984e-02  1.436120358277251e-01  0
1.246690077458471e-01  6.847740985352994e-02  0
1.299989897152216e-01  1.031159077708616e-01  0
1.593675191527886e-01  5.427943712768728e-02  0
4.177400462945472e-02  9.465598137857077e-02  0
3.223569134978963e-02  1.146556224194050e-01  0
9.976169952174914e-02  1.018096943649847e-01  0
6.230660436587392e-02  3.627985186527178e-02  0
1.701580890089089e-02  2.272709219360557e-02  0
1.138605627641932e-01  3.383236643730916e-02  0
6.157033732182944e-02  1.292000062414558e-01  0
1.040719282201366e-02  1.810216442638243e-01  0
1.802757014243557e-01  1.015492026370958e-02  0
-1.756049256342090e-02  6.973563244755079e-02  0
-1.025779897860842e-01  1.881406165634626e-02  0
-1.915991578957284e-02  1.209388068484384e-01  0
-1.293642214571022e-01  1.131070453836083e-01  0
-6.041268080188567e-02  2.275062537673724e-02  0
-1.435302179554886e-01  2.180498175414844e-02  0
-8.011098766261249e-02  1.503710628725852e-01  0
-1.520407438261416e-01  6.976495173970829e-02  0
-2.108652622558826e-02  3.475788190111827e-02  0
-2.315165740483412e-02  1.665050055263085e-01  0
-8.534835964393143e-02  2.376621539880714e-02  0
-7.004728115715253e-02  3.979383492924768e-02  0
-4.128312058144240e-02  3.839020613869089e-02  0
-6.042668751158062e-02  5.667535279020879e-02  0
-8.128982110167333e-02  5.332697041799107e-02  0
-6.811145695056162e-02  8.003545546242019e-02  0
-9.414283728955357e-02  7.229074360854139e-02  0
-1.089123505482827e-01  5.429749174191977e-02  0
-7.455891410916926e-02  1.012441206748112e-01  0
-5.204946949832268e-02  1.054247132253147e-01  0
-1.208003690095031e-01  8.154468018853753e-02  0
-2.127227658156403e-02  9.253853343247893e-02  0
-1.728340608212982e-02  5.019222799582702e-02  0
-4.496925829433498e-02  8.532189560003706e-02  0
-2.130052942237758e-02  1.377320023282303e-01  0
-4.361033902165944e-02  1.346811113922511e-01  0
-1.267928972074089e-01  1.537936381785187e-02  0
-1.372447027568337e-01  4.093076899717828e-02  0
-1.601813428831274e-01  4.764122647819390e-02  0
-1.697721174653583e-01  2.411403455048562e-02  0
-4.019792977378107e-02  1.738476277075316e-02  0
-1.436120358277251e-01  9.108120340506982e-02  0
-6.847740985352999e-02  1.246690077458470e-01  0
-1.031159077708617e-01  1.299989897152216e-01  0
-5.427943712768729e-02  1.593675191527885e-01  0
-9.465598137857080e-02  4.177400462945471e-02  0
-1.146556224194050e-01  3.223569134978962e-02  0
-1.018096943649847e-01  9.976169952174911e-02  0
-3.627985186527179e-02  6.230660436587392e-02  0
-2.272709219360558e-02  1.701580890089089e-02  0
-3.383236643730918e-02  1.138605627641932e-01  0
-1.292000062414558e-01  6.157033732182943e-02  0
-1.810216442638244e-01  1.040719282201366e-02  0
-1.015492026370959e-02  1.802757014243557e-01  0
-6.973563244755082e-02  -1.756049256342089e-02  0
-1.881406165634626e-02  -1.025779897860842e-01  0
-1.209388068484385e-01  -1.915991578957283e-02  0
-1.131070453836083e-01  -1.293642214571021e-01  0
-2.275062537673724e-02  -6.041268080188564e-02  0
-2.180498175414844e-02  -1.435302179554886e-01  0
-1.503710628725852e-01  -8.011098766261246e-02  0
-6.976495173970830e-02  -1.520407438261416e-01  0
-3.475788190111828e-02  -2.108652622558825e-02  0
-1.665050055263085e-01  -2.315165740483411e-02  0
-2.376621539880714e-02  -8.534835964393141e-02  0
-3.979383492924767e-02  -7.004728115715249e-02  0
-3.839020613869090e-02  -4.128312058144239e-02  0
-5.667535279020879e-02  -6.042668751158058e-02  0
-5.332697041799107e-02  -8.128982110167329e-02  0
-8.003545546242020e-02  -6.811145695056159e-02  0
-7.229074360854140e-02  -9.414283728955355e-02  0
-5.429749174191978e-02  -1.089123505482827e-01  0
-1.012441206748112e-01  -7.455891410916923e-02  0
-1.054247132253147e-01  -5.204946949832265e-02  0
-8.154468018853754e-02  -1.208003690095031e-01  0
-9.253853343247896e-02  -2.127227658156402e-02  0
-5.019222799582703e-02  -1.728340608212981e-02  0
-8.532189560003708e-02  -4.496925829433496e-02  0
-1.377320023282304e-01  -2.130052942237757e-02  0
-1.346811113922511e-01  -4.361033902165942e-02  0
-1.537936381785186e-02  -1.267928972074089e-01  0
-4.093076899717828e-02  -1.372447027568336e-01  0
-4.764122647819390e-02  -1.601813428831274e-01  0
-2.411403455048562e-02  -1.697721174653582e-01  0
-1.738476277075316e-02  -4.019792977378107e-02  0
-9.108120340506984e-02  -1.436120358277251e-01  0
-1.246690077458471e-01  -6.847740985352994e-02  0
-1.299989897152216e-01  -1.031159077708616e-01  0
-1.593675191527886e-01  -5.427943712768728e-02  0
-4.177400462945471e-02  -9.465598137857077e-02  0
-3.223569134978963e-02  -1.146556224194050e-01  0
-9.976169952174914e-02  -1.018096943649847e-01  0
-6.230660436587392e-02  -3.627985186527178e-02  0
-1.701580890089089e-02  -2.272709219360557e-02  0
-1.138605627641932e-01  -3.383236643730917e-02  0
-6.157033732182944e-02  -1.292000062414558e-01  0
-1.040719282201366e-02  -1.810216442638243e-01  0
-1.802757014243557e-01  -1.015492026370959e-02  0
1.756049256342090e-02  -6.973563244755079e-02  0
1.025779897860842e-01  -1.881406165634626e-02  0
1.915991578957284e-02  -1.209388068484384e-01  0
1.293642214571022e-01  -1.131070453836083e-01  0
6.041268080188567e-02  -2.275062537673724e-02  0
1.435302179554886e-01  -2.180498175414844e-02  0
8.011098766261249e-02  -1.503710628725852e-01  0
1.520407438261416e-01  -6.976495173970829e-02  0
2.108652622558826e-02  -3.475788190111828e-02  0
2.315165740483412e-02  -1.665050055263085e-01  0
8.534835964393143e-02  -2.376621539880714e-02  0
7.004728115715253e-02  -3.979383492924768e-02  0
4.128312058144241e-02  -3.839020613869089e-02  0
6.042668751158063e-02  -5.667535279020879e-02  0
8.128982110167333e-02  -5.332697041799107e-02  0
6.811145695056162e-02  -8.003545546242019e-02  0
9.414283728955358e-02  -7.229074360854139e-02  0
1.089123505482827e-01  -5.429749174191977e-02  0
7.455891410916926e-02  -1.012441206748112e-01  0
5.204946949832268e-02  -1.054247132253147e-01  0
1.208003690095031e-01  -8.154468018853753e-02  0
2.127227658156404e-02  -9.253853343247893e-02  0
1.728340608212982e-02  -5.019222799582702e-02  0
4.496925829433499e-02  -8.532189560003706e-02  0
2.130052942237758e-02  -1.377320023282303e-01  0
4.361033902165944e-02  -1.346811113922511e-01  0
1.267928972074089e-01  -1.537936381785186e-02  0
1.372447027568336e-01  -4.093076899717828e-02  0
1.601813428831274e-01  -4.764122647819389e-02  0
1.697721174653583e-01  -2.411403455048562e-02  0
4.019792977378109e-02  -1.738476277075316e-02  0
1.436120358277251e-01  -9.108120340506981e-02  0
6.847740985352999e-02  -1.246690077458470e-01  0
1.031159077708617e-01  -1.299989897152216e-01  0
5.427943712768729e-02  -1.593675191527885e-01  0
9.465598137857080e-02  -4.177400462945471e-02  0
1.146556224194050e-01  -3.223569134978962e-02  0
1.018096943649847e-01  -9.976169952174911e-02  0
3.627985186527181e-02  -6.230660436587392e-02  0
2.272709219360558e-02  -1.701580890089089e-02  0
3.383236643730918e-02  -1.138605627641932e-01  0
1.292000062414558e-01  -6.157033732182943e-02  0
1.810216442638244e-01  -1.040719282201366e-02  0
1.015492026370959e-02  -1.802757014243557e-01  0
Edges
36
1  38  1
38  39  1
39  40  1
40  41  1
41  42  1
42  43  1
43  44  1
44  45  1
2  45  1
2  46  1
46  47  1
47  48  1
48  49  1
49  50  1
50  51  1
51  52  1
52  53  1
3  53  1
3  54  1
54  55  1
55  56  1
56  57  1
57  58  1
58  59  1
59  60  1
60  61  1
4  61  1
4  62  1
62  63  1
63  64  1
64  65  1
65  66  1
66  67  1
67  68  1
68  69  1
1  69  1
Triangles
68
77  44  98  1
82  74  100  1
9  10  91  1
80  74  81  1
81  83  84  1
19  18  96  1
102  76  103  1
83  82  108  1
103  73  107  1
92  70  108  1
88  89  102  1
20  75  99  1
90  86  107  1
105  87  106  1
2  21  112  1
13  1  113  1
6  78  109  1
121  52  142  1
126  118  144  1
17  18  135  1
124  118  125  1
125  127  128  1
27  26  140  1
146  120  147  1
127  126  152  1
147  117  151  1
136  114  152  1
132  133  146  1
28  119  143  1
134  130  151  1
149  131  150  1
3  29  156  1
21  2  157  1
14  122  153  1
165  60  186  1
170  162  188  1
25  26  179  1
168  162  169  1
169  171  172  1
35  34  184  1
190  164  191  1
171  170  196  1
191  161  195  1
180  158  196  1
176  177  190  1
36  163  187  1
178  174  195  1
193  175  194  1
4  37  200  1
29  3  201  1
22  166  197  1
209  68  230  1
214  206  232  1
33  34  223  1
212  206  213  1
213  215  216  1
11  10  228  1
234  208  235  1
215  214  240  1
235  205  239  1
224  202  240  1
220  221  234  1
12  207  231  1
222  218  239  1
237  219  238  1
1  13  244  1
37  4  245  1
30  210  241  1
Quadrilaterals
192
95  104  76  102  1
95  102  89  110  1
90  101  77  111  1
73  101  90  107  1
87  111  97  106  1
103  76  40  41  1
45  99  98  44  1
83  108  93  85  1
38  39  104  79  1
9  91  70  8  1
72  110  91  10  1
90  111  87  86  1
8  70  92  7  1
88  107  86  85  1
89  88  85  93  1
92  108  82  78  1
71  106  96  18  1
81  84  105  80  1
16  74  80  17  1
13  113  79  12  1
99  112  21  20  1
12  79  94  11  1
19  96  75  20  1
7  92  78  6  1
87  105  84  86  1
17  80  71  18  1
82  83  81  74  1
15  100  74  16  1
14  109  100  15  1
95  110  72  94  1
85  86  84  83  1
105  106  71  80  1
88  102  103  107  1
94  79  104  95  1
11  94  72  10  1
110  89  93  91  1
77  101  43  44  1
98  99  75  97  1
41  42  73  103  1
96  106  97  75  1
100  109  78  82  1
93  108  70  91  1
109  14  5  6  1
39  40  76  104  1
111  77  98  97  1
42  43  101  73  1
38  79  113  1  1
112  99  45  2  1
139  148  120  146  1
139  146  133  154  1
134  145  121  155  1
117  145  134  151  1
131  155  141  150  1
147  120  48  49  1
53  143  142  52  1
127  152  137  129  1
46  47  148  123  1
17  135  114  16  1
116  154  135  18  1
134  155  131  130  1
16  114  136  15  1
132  151  130  129  1
133  132  129  137  1
136  152  126  122  1
115  150  140  26  1
125  128  149  124  1
24  118  124  25  1
21  157  123  20  1
20  123  138  19  1
143  156  29  28  1
27  140  119  28  1
15  136  122  14  1
131  149  128  130  1
25  124  115  26  1
126  127  125  118  1
22  153  144  23  1
23  144  118  24  1
139  154  116  138  1
129  130  128  127  1
149  150  115  124  1
132  146  147  151  1
138  123  148  139  1
19  138  116  18  1
154  133  137  135  1
121  145  51  52  1
142  143  119  141  1
49  50  117  147  1
140  150  141  119  1
144  153  122  126  1
137  152  114  135  1
153  22  5  14  1
47  48  120  148  1
155  121  142  141  1
50  51  145  117  1
46  123  157  2  1
156  143  53  3  1
183  192  164  190  1
183  190  177  198  1
178  189  165  199  1
161  189  178  195  1
175  199  185  194  1
191  164  56  57  1
61  187  186  60  1
171  196  181  173  1
54  55  192  167  1
25  179  158  24  1
160  198  179  26  1
178  199  175  174  1
24  158  180  23  1
176  195  174  173  1
177  176  173  181  1
180  196  170  166  1
159  194  184  34  1
169  172  193  168  1
32  162  168  33  1
187  200  37  36  1
29  201  167  28  1
28  167  182  27  1
35  184  163  36  1
23  180  166  22  1
175  193  172  174  1
33  168  159  34  1
170  171  169  162  1
31  188  162  32  1
30  197  188  31  1
183  198  160  182  1
173  174  172  171  1
193  194  159  168  1
176  190  191  195  1
182  167  192  183  1
27  182  160  26  1
198  177  181  179  1
165  189  59  60  1
186  187  163  185  1
57  58  161  191  1
184  194  185  163  1
188  197  166  170  1
181  196  158  179  1
197  30  5  22  1
55  56  164  192  1
199  165  186  185  1
58  59  189  161  1
54  167  201  3  1
200  187  61  4  1
227  236  208  234  1
227  234  221  242  1
222  233  209  243  1
205  233  222  239  1
219  243  229  238  1
235  208  64  65  1
69  231  230  68  1
215  240  225  217  1
62  63  236  211  1
33  223  202  32  1
204  242  223  34  1
222  243  219  218  1
32  202  224  31  1
220  239  218  217  1
221  220  217  225  1
224  240  214  210  1
203  238  228  10  1
213  216  237  212  1
8  206  212  9  1
37  245  211  36  1
36  211  226  35  1
231  244  13  12  1
11  228  207  12  1
31  224  210  30  1
219  237  216  218  1
9  212  203  10  1
214  215  213  206  1
6  241  232  7  1
7  232  206  8  1
227  242  204  226  1
217  218  216  215  1
237  238  203  212  1
220  234  235  239  1
226  211  236  227  1
35  226  204  34  1
242  221  225  223  1
209  233  67  68  1
230  231  207  229  1
65  66  205  235  1
228  238  229  207  1
232  241  210  214  1
225  240  202  223  1
241  6  5  30  1
63  64  208  236  1
243  209  230  229  1
66  67  233  205  1
62  211  245  4  1
244  231  69  1  1
End
