MeshVersionFormatted 1
Dimension 
2
Vertices
253
0.000000000000000e+00  0.000000000000000e+00  0
1.000000000000000e-02  0.000000000000000e+00  1
0.000000000000000e+00  1.000000000000000e-02  1
-1.000000000000000e-02  0.000000000000000e+00  1
0.000000000000000e+00  -1.000000000000000e-02  1
1.500000000000000e-02  0.000000000000000e+00  2
0.000000000000000e+00  1.500000000000000e-02  2
-1.500000000000000e-02  0.000000000000000e+00  2
0.000000000000000e+00  -1.500000000000000e-02  2
-9.749279120597785e-03  -2.225209344910291e-03  1
-9.009688673431252e-03  -4.338837402789443e-03  1
-7.818314811911866e-03  -6.234898034598443e-03  1
-6.234898003832551e-03  -7.818314836446846e-03  1
-4.338837378457274e-03  -9.009688685149005e-03  1
-2.225209332490117e-03  -9.749279123432609e-03  1
2.225209344910291e-03  -9.749279120597785e-03  1
4.338837402789443e-03  -9.009688673431252e-03  1
6.234898034598443e-03  -7.818314811911866e-03  1
7.818314836446846e-03  -6.234898003832551e-03  1
9.009688685149005e-03  -4.338837378457274e-03  1
9.749279123432609e-03  -2.225209332490117e-03  1
9.749279120597785e-03  2.225209344910291e-03  1
9.009688673431252e-03  4.338837402789443e-03  1
7.818314811911866e-03  6.234898034598443e-03  1
6.234898003832551e-03  7.818314836446846e-03  1
4.338837378457274e-03  9.009688685149005e-03  1
2.225209332490117e-03  9.749279123432609e-03  1
-2.225209344910291e-03  9.749279120597785e-03  1
-4.338837402789443e-03  9.009688673431252e-03  1
-6.234898034598443e-03  7.818314811911866e-03  1
-7.818314836446846e-03  6.234898003832551e-03  1
-9.009688685149005e-03  4.338837378457274e-03  1
-9.749279123432609e-03  2.225209332490117e-03  1
-3.337814017835746e-03  1.462391868078933e-02  2
-6.508256104475013e-03  1.351453301000681e-02  2
-9.352347051822191e-03  1.172747221792799e-02  2
-1.172747225486298e-02  9.352347005507173e-03  2
-1.351453302779379e-02  6.508256067539962e-03  2
-1.462391868520330e-02  3.337813998496883e-03  2
-1.462391868078933e-02  -3.337814017835746e-03  2
-1.351453301000681e-02  -6.508256104475013e-03  2
-1.172747221792799e-02  -9.352347051822191e-03  2
-9.352347005507173e-03  -1.172747225486298e-02  2
-6.508256067539962e-03  -1.351453302779379e-02  2
-3.337813998496883e-03  -1.462391868520330e-02  2
3.337814017835746e-03  -1.462391868078933e-02  2
6.508256104475013e-03  -1.351453301000681e-02  2
9.352347051822191e-03  -1.172747221792799e-02  2
1.172747225486298e-02  -9.352347005507173e-03  2
1.351453302779379e-02  -6.508256067539962e-03  2
1.462391868520330e-02  -3.337813998496883e-03  2
1.462391868078933e-02  3.337814017835746e-03  2
1.351453301000681e-02  6.508256104475013e-03  2
1.172747221792799e-02  9.352347051822191e-03  2
9.352347005507173e-03  1.172747225486298e-02  2
6.508256067539962e-03  1.351453302779379e-02  2
3.337813998496883e-03  1.462391868520330e-02  2
0.000000000000000e+00  1.166666667287095e-02  0
1.166666667287095e-02  0.000000000000000e+00  0
0.000000000000000e+00  -1.166666667287095e-02  0
-1.166666667287095e-02  0.000000000000000e+00  0
0.000000000000000e+00  1.428571428568661e-03  0
0.000000000000000e+00  2.857142857135982e-03  0
0.000000000000000e+00  4.285714285702679e-03  0
0.000000000000000e+00  5.714285714274059e-03  0
0.000000000000000e+00  7.142857142849937e-03  0
0.000000000000000e+00  8.571428571425479e-03  0
1.428571428568661e-03  0.000000000000000e+00  0
2.857142857135982e-03  0.000000000000000e+00  0
4.285714285702679e-03  0.000000000000000e+00  0
5.714285714274059e-03  0.000000000000000e+00  0
7.142857142849937e-03  0.000000000000000e+00  0
8.571428571425479e-03  0.000000000000000e+00  0
0.000000000000000e+00  -1.428571428568661e-03  0
0.000000000000000e+00  -2.857142857135982e-03  0
0.000000000000000e+00  -4.285714285702679e-03  0
0.000000000000000e+00  -5.714285714274059e-03  0
0.000000000000000e+00  -7.142857142849937e-03  0
0.000000000000000e+00  -8.571428571425479e-03  0
-1.428571428568661e-03  0.000000000000000e+00  0
-2.857142857135982e-03  0.000000000000000e+00  0
-4.285714285702679e-03  0.000000000000000e+00  0
-5.714285714274059e-03  0.000000000000000e+00  0
-7.142857142849937e-03  0.000000000000000e+00  0
-8.571428571425479e-03  0.000000000000000e+00  0
1.392754160082700e-03  3.178870492722830e-04  0
1.287098381916257e-03  6.198339146830055e-04  0
1.116902115985246e-03  8.906997192266238e-04  0
8.906997148314962e-04  1.116902119490243e-03  0
6.198339112069814e-04  1.287098383590222e-03  0
3.178870474979724e-04  1.392754160487675e-03  0
2.785508320164093e-03  6.357740985442674e-04  0
2.574196763831305e-03  1.239667829365429e-03  0
2.233804231969443e-03  1.781399438452411e-03  0
1.781399429662156e-03  2.233804238979437e-03  0
1.239667822413381e-03  2.574196767179235e-03  0
6.357740949956463e-04  2.785508320974042e-03  0
4.178262480244877e-03  9.536611478161135e-04  0
3.861295145745793e-03  1.859501744047583e-03  0
3.350706347953153e-03  2.672099157677810e-03  0
2.672099144492427e-03  3.350706358468145e-03  0
1.859501733619510e-03  3.861295150767687e-03  0
9.536611424931818e-04  4.178262481459803e-03  0
5.571016640330228e-03  1.271548197089001e-03  0
5.148393527664499e-03  2.479335658731768e-03  0
4.467608463940525e-03  3.562798876906128e-03  0
3.562798859325619e-03  4.467608477960513e-03  0
2.479335644827671e-03  5.148393534360358e-03  0
1.271548189991759e-03  5.571016641950126e-03  0
6.963770800419966e-03  1.589435246362890e-03  0
6.435491909587259e-03  3.099169573417904e-03  0
5.584510579931415e-03  4.453498596137253e-03  0
4.453498574161615e-03  5.584510597456399e-03  0
3.099169556037783e-03  6.435491917957083e-03  0
1.589435237491337e-03  6.963770802444840e-03  0
8.356524960509374e-03  1.907322295636704e-03  0
7.722590291509715e-03  3.719003488103895e-03  0
6.701412695922037e-03  5.344198315368165e-03  0
5.344198288997400e-03  6.701412716952020e-03  0
3.719003467247750e-03  7.722590301553504e-03  0
1.907322284990841e-03  8.356524962939222e-03  0
-3.178870492722830e-04  1.392754160082700e-03  0
-6.198339146830055e-04  1.287098381916257e-03  0
-8.906997192266238e-04  1.116902115985246e-03  0
-1.116902119490243e-03  8.906997148314962e-04  0
-1.287098383590222e-03  6.198339112069814e-04  0
-1.392754160487675e-03  3.178870474979724e-04  0
-6.357740985442674e-04  2.785508320164093e-03  0
-1.239667829365429e-03  2.574196763831305e-03  0
-1.781399438452411e-03  2.233804231969443e-03  0
-2.233804238979437e-03  1.781399429662156e-03  0
-2.574196767179235e-03  1.239667822413381e-03  0
-2.785508320974042e-03  6.357740949956463e-04  0
-9.536611478161135e-04  4.178262480244877e-03  0
-1.859501744047583e-03  3.861295145745793e-03  0
-2.672099157677810e-03  3.350706347953153e-03  0
-3.350706358468145e-03  2.672099144492427e-03  0
-3.861295150767687e-03  1.859501733619510e-03  0
-4.178262481459803e-03  9.536611424931818e-04  0
-1.271548197089001e-03  5.571016640330228e-03  0
-2.479335658731768e-03  5.148393527664499e-03  0
-3.562798876906128e-03  4.467608463940525e-03  0
-4.467608477960513e-03  3.562798859325619e-03  0
-5.148393534360358e-03  2.479335644827671e-03  0
-5.571016641950126e-03  1.271548189991759e-03  0
-1.589435246362890e-03  6.963770800419966e-03  0
-3.099169573417904e-03  6.435491909587259e-03  0
-4.453498596137253e-03  5.584510579931415e-03  0
-5.584510597456399e-03  4.453498574161615e-03  0
-6.435491917957083e-03  3.099169556037783e-03  0
-6.963770802444840e-03  1.589435237491337e-03  0
-1.907322295636704e-03  8.356524960509374e-03  0
-3.719003488103895e-03  7.722590291509715e-03  0
-5.344198315368165e-03  6.701412695922037e-03  0
-6.701412716952020e-03  5.344198288997400e-03  0
-7.722590301553504e-03  3.719003467247750e-03  0
-8.356524962939222e-03  1.907322284990841e-03  0
-1.392754160082700e-03  -3.178870492722830e-04  0
-1.287098381916257e-03  -6.198339146830055e-04  0
-1.116902115985246e-03  -8.906997192266238e-04  0
-8.906997148314962e-04  -1.116902119490243e-03  0
-6.198339112069814e-04  -1.287098383590222e-03  0
-3.178870474979724e-04  -1.392754160487675e-03  0
-2.785508320164093e-03  -6.357740985442674e-04  0
-2.574196763831305e-03  -1.239667829365429e-03  0
-2.233804231969443e-03  -1.781399438452411e-03  0
-1.781399429662156e-03  -2.233804238979437e-03  0
-1.239667822413381e-03  -2.574196767179235e-03  0
-6.357740949956463e-04  -2.785508320974042e-03  0
-4.178262480244877e-03  -9.536611478161135e-04  0
-3.861295145745793e-03  -1.859501744047583e-03  0
-3.350706347953153e-03  -2.672099157677810e-03  0
-2.672099144492427e-03  -3.350706358468145e-03  0
-1.859501733619510e-03  -3.861295150767687e-03  0
-9.536611424931818e-04  -4.178262481459803e-03  0
-5.571016640330228e-03  -1.271548197089001e-03  0
-5.148393527664499e-03  -2.479335658731768e-03  0
-4.467608463940525e-03  -3.562798876906128e-03  0
-3.562798859325619e-03  -4.467608477960513e-03  0
-2.479335644827671e-03  -5.148393534360358e-03  0
-1.271548189991759e-03  -5.571016641950126e-03  0
-6.963770800419966e-03  -1.589435246362890e-03  0
-6.435491909587259e-03  -3.099169573417904e-03  0
-5.584510579931415e-03  -4.453498596137253e-03  0
-4.453498574161615e-03  -5.584510597456399e-03  0
-3.099169556037783e-03  -6.435491917957083e-03  0
-1.589435237491337e-03  -6.963770802444840e-03  0
-8.356524960509374e-03  -1.907322295636704e-03  0
-7.722590291509715e-03  -3.719003488103895e-03  0
-6.701412695922037e-03  -5.344198315368165e-03  0
-5.344198288997400e-03  -6.701412716952020e-03  0
-3.719003467247750e-03  -7.722590301553504e-03  0
-1.907322284990841e-03  -8.356524962939222e-03  0
3.178870492722830e-04  -1.392754160082700e-03  0
6.198339146830055e-04  -1.287098381916257e-03  0
8.906997192266238e-04  -1.116902115985246e-03  0
1.116902119490243e-03  -8.906997148314962e-04  0
1.287098383590222e-03  -6.198339112069814e-04  0
1.392754160487675e-03  -3.178870474979724e-04  0
6.357740985442674e-04  -2.785508320164093e-03  0
1.239667829365429e-03  -2.574196763831305e-03  0
1.781399438452411e-03  -2.233804231969443e-03  0
2.233804238979437e-03  -1.781399429662156e-03  0
2.574196767179235e-03  -1.239667822413381e-03  0
2.785508320974042e-03  -6.357740949956463e-04  0
9.536611478161135e-04  -4.178262480244877e-03  0
1.859501744047583e-03  -3.861295145745793e-03  0
2.672099157677810e-03  -3.350706347953153e-03  0
3.350706358468145e-03  -2.672099144492427e-03  0
3.861295150767687e-03  -1.859501733619510e-03  0
4.178262481459803e-03  -9.536611424931818e-04  0
1.271548197089001e-03  -5.571016640330228e-03  0
2.479335658731768e-03  -5.148393527664499e-03  0
3.562798876906128e-03  -4.467608463940525e-03  0
4.467608477960513e-03  -3.562798859325619e-03  0
5.148393534360358e-03  -2.479335644827671e-03  0
5.571016641950126e-03  -1.271548189991759e-03  0
1.589435246362890e-03  -6.963770800419966e-03  0
3.099169573417904e-03  -6.435491909587259e-03  0
4.453498596137253e-03  -5.584510579931415e-03  0
5.584510597456399e-03  -4.453498574161615e-03  0
6.435491917957083e-03  -3.099169556037783e-03  0
6.963770802444840e-03  -1.589435237491337e-03  0
1.907322295636704e-03  -8.356524960509374e-03  0
3.719003488103895e-03  -7.722590291509715e-03  0
5.344198315368165e-03  -6.701412695922037e-03  0
6.701412716952020e-03  -5.344198288997400e-03  0
7.722590301553504e-03  -3.719003467247750e-03  0
8.356524962939222e-03  -1.907322284990841e-03  0
-2.596077570599360e-03  1.137415898004369e-02  0
-5.061976972709905e-03  1.051130345787964e-02  0
-7.274047710874667e-03  9.121367285434612e-03  0
-9.121367314102931e-03  7.274047674925734e-03  0
-1.051130347162047e-02  5.061976944176776e-03  0
-1.137415898340490e-02  2.596077555872956e-03  0
-1.137415898004369e-02  -2.596077570599360e-03  0
-1.051130345787964e-02  -5.061976972709905e-03  0
-9.121367285434612e-03  -7.274047710874667e-03  0
-7.274047674925734e-03  -9.121367314102931e-03  0
-5.061976944176776e-03  -1.051130347162047e-02  0
-2.596077555872956e-03  -1.137415898340490e-02  0
2.596077570599360e-03  -1.137415898004369e-02  0
5.061976972709905e-03  -1.051130345787964e-02  0
7.274047710874667e-03  -9.121367285434612e-03  0
9.121367314102931e-03  -7.274047674925734e-03  0
1.051130347162047e-02  -5.061976944176776e-03  0
1.137415898340490e-02  -2.596077555872956e-03  0
1.137415898004369e-02  2.596077570599360e-03  0
1.051130345787964e-02  5.061976972709905e-03  0
9.121367285434612e-03  7.274047710874667e-03  0
7.274047674925734e-03  9.121367314102931e-03  0
5.061976944176776e-03  1.051130347162047e-02  0
2.596077555872956e-03  1.137415898340490e-02  0
Edges
56
4  10  1
10  11  1
11  12  1
12  13  1
13  14  1
14  15  1
5  15  1
5  16  1
16  17  1
17  18  1
18  19  1
19  20  1
20  21  1
2  21  1
2  22  1
22  23  1
23  24  1
24  25  1
25  26  1
26  27  1
3  27  1
3  28  1
28  29  1
29  30  1
30  31  1
31  32  1
32  33  1
4  33  1
7  34  2
34  35  2
35  36  2
36  37  2
37  38  2
38  39  2
8  39  2
8  40  2
40  41  2
41  42  2
42  43  2
43  44  2
44  45  2
9  45  2
9  46  2
46  47  2
47  48  2
48  49  2
49  50  2
50  51  2
6  51  2
6  52  2
52  53  2
53  54  2
54  55  2
55  56  2
56  57  2
7  57  2
Triangles
28
1  68  86  1
1  86  87  1
1  87  88  1
1  88  89  1
1  89  90  1
1  90  91  1
1  91  62  1
1  62  122  1
1  122  123  1
1  123  124  1
1  124  125  1
1  125  126  1
1  126  127  1
1  127  80  1
1  80  158  1
1  158  159  1
1  159  160  1
1  160  161  1
1  161  162  1
1  162  163  1
1  163  74  1
1  74  194  1
1  194  195  1
1  195  196  1
1  196  197  1
1  197  198  1
1  198  199  1
1  199  68  1
Quadrilaterals
224
68  69  92  86  1
86  92  93  87  1
87  93  94  88  1
88  94  95  89  1
89  95  96  90  1
90  96  97  91  1
91  97  63  62  1
69  70  98  92  1
92  98  99  93  1
93  99  100  94  1
94  100  101  95  1
95  101  102  96  1
96  102  103  97  1
97  103  64  63  1
70  71  104  98  1
98  104  105  99  1
99  105  106  100  1
100  106  107  101  1
101  107  108  102  1
102  108  109  103  1
103  109  65  64  1
71  72  110  104  1
104  110  111  105  1
105  111  112  106  1
106  112  113  107  1
107  113  114  108  1
108  114  115  109  1
109  115  66  65  1
72  73  116  110  1
110  116  117  111  1
111  117  118  112  1
112  118  119  113  1
113  119  120  114  1
114  120  121  115  1
115  121  67  66  1
73  2  22  116  1
116  22  23  117  1
117  23  24  118  1
118  24  25  119  1
119  25  26  120  1
120  26  27  121  1
121  27  3  67  1
62  63  128  122  1
122  128  129  123  1
123  129  130  124  1
124  130  131  125  1
125  131  132  126  1
126  132  133  127  1
127  133  81  80  1
63  64  134  128  1
128  134  135  129  1
129  135  136  130  1
130  136  137  131  1
131  137  138  132  1
132  138  139  133  1
133  139  82  81  1
64  65  140  134  1
134  140  141  135  1
135  141  142  136  1
136  142  143  137  1
137  143  144  138  1
138  144  145  139  1
139  145  83  82  1
65  66  146  140  1
140  146  147  141  1
141  147  148  142  1
142  148  149  143  1
143  149  150  144  1
144  150  151  145  1
145  151  84  83  1
66  67  152  146  1
146  152  153  147  1
147  153  154  148  1
148  154  155  149  1
149  155  156  150  1
150  156  157  151  1
151  157  85  84  1
67  3  28  152  1
152  28  29  153  1
153  29  30  154  1
154  30  31  155  1
155  31  32  156  1
156  32  33  157  1
157  33  4  85  1
80  81  164  158  1
158  164  165  159  1
159  165  166  160  1
160  166  167  161  1
161  167  168  162  1
162  168  169  163  1
163  169  75  74  1
81  82  170  164  1
164  170  171  165  1
165  171  172  166  1
166  172  173  167  1
167  173  174  168  1
168  174  175  169  1
169  175  76  75  1
82  83  176  170  1
170  176  177  171  1
171  177  178  172  1
172  178  179  173  1
173  179  180  174  1
174  180  181  175  1
175  181  77  76  1
83  84  182  176  1
176  182  183  177  1
177  183  184  178  1
178  184  185  179  1
179  185  186  180  1
180  186  187  181  1
181  187  78  77  1
84  85  188  182  1
182  188  189  183  1
183  189  190  184  1
184  190  191  185  1
185  191  192  186  1
186  192  193  187  1
187  193  79  78  1
85  4  10  188  1
188  10  11  189  1
189  11  12  190  1
190  12  13  191  1
191  13  14  192  1
192  14  15  193  1
193  15  5  79  1
74  75  200  194  1
194  200  201  195  1
195  201  202  196  1
196  202  203  197  1
197  203  204  198  1
198  204  205  199  1
199  205  69  68  1
75  76  206  200  1
200  206  207  201  1
201  207  208  202  1
202  208  209  203  1
203  209  210  204  1
204  210  211  205  1
205  211  70  69  1
76  77  212  206  1
206  212  213  207  1
207  213  214  208  1
208  214  215  209  1
209  215  216  210  1
210  216  217  211  1
211  217  71  70  1
77  78  218  212  1
212  218  219  213  1
213  219  220  214  1
214  220  221  215  1
215  221  222  216  1
216  222  223  217  1
217  223  72  71  1
78  79  224  218  1
218  224  225  219  1
219  225  226  220  1
220  226  227  221  1
221  227  228  222  1
222  228  229  223  1
223  229  73  72  1
79  5  16  224  1
224  16  17  225  1
225  17  18  226  1
226  18  19  227  1
227  19  20  228  1
228  20  21  229  1
229  21  2  73  1
7  34  230  58  2
58  230  28  3  2
34  35  231  230  2
230  231  29  28  2
35  36  232  231  2
231  232  30  29  2
36  37  233  232  2
232  233  31  30  2
37  38  234  233  2
233  234  32  31  2
38  39  235  234  2
234  235  33  32  2
39  8  61  235  2
235  61  4  33  2
8  40  236  61  2
61  236  10  4  2
40  41  237  236  2
236  237  11  10  2
41  42  238  237  2
237  238  12  11  2
42  43  239  238  2
238  239  13  12  2
43  44  240  239  2
239  240  14  13  2
44  45  241  240  2
240  241  15  14  2
45  9  60  241  2
241  60  5  15  2
9  46  242  60  2
60  242  16  5  2
46  47  243  242  2
242  243  17  16  2
47  48  244  243  2
243  244  18  17  2
48  49  245  244  2
244  245  19  18  2
49  50  246  245  2
245  246  20  19  2
50  51  247  246  2
246  247  21  20  2
51  6  59  247  2
247  59  2  21  2
6  52  248  59  2
59  248  22  2  2
52  53  249  248  2
248  249  23  22  2
53  54  250  249  2
249  250  24  23  2
54  55  251  250  2
250  251  25  24  2
55  56  252  251  2
251  252  26  25  2
56  57  253  252  2
252  253  27  26  2
57  7  58  253  2
253  58  3  27  2
End
