MeshVersionFormatted 1
Dimension 
2
Vertices
179
2.000000000000000e-01  0.000000000000000e+00  1
0.000000000000000e+00  2.000000000000000e-01  1
-2.000000000000000e-01  0.000000000000000e+00  1
0.000000000000000e+00  -2.000000000000000e-01  1
4.000000000000000e-01  0.000000000000000e+00  2
0.000000000000000e+00  4.000000000000000e-01  2
-4.000000000000000e-01  0.000000000000000e+00  2
0.000000000000000e+00  -4.000000000000000e-01  2
-1.949855824105597e-01  -4.450418690432184e-02  1
-1.801937734677461e-01  -8.677674805761390e-02  1
-1.563662962383485e-01  -1.246979606918294e-01  1
-1.246979600734415e-01  -1.563662967314965e-01  1
-8.677674757153037e-02  -1.801937737018316e-01  1
-4.450418665315178e-02  -1.949855824678877e-01  1
4.450418690432184e-02  -1.949855824105597e-01  1
8.677674805761390e-02  -1.801937734677461e-01  1
1.246979606918294e-01  -1.563662962383485e-01  1
1.563662967314965e-01  -1.246979600734415e-01  1
1.801937737018316e-01  -8.677674757153037e-02  1
1.949855824678877e-01  -4.450418665315178e-02  1
1.949855824105597e-01  4.450418690432184e-02  1
1.801937734677461e-01  8.677674805761390e-02  1
1.563662962383485e-01  1.246979606918294e-01  1
1.246979600734415e-01  1.563662967314965e-01  1
8.677674757153037e-02  1.801937737018316e-01  1
4.450418665315178e-02  1.949855824678877e-01  1
-4.450418690432184e-02  1.949855824105597e-01  1
-8.677674805761390e-02  1.801937734677461e-01  1
-1.246979606918294e-01  1.563662962383485e-01  1
-1.563662967314965e-01  1.246979600734415e-01  1
-1.801937737018316e-01  8.677674757153037e-02  1
-1.949855824678877e-01  4.450418665315178e-02  1
-8.900837380864368e-02  3.899711648211195e-01  2
-1.735534961152278e-01  3.603875469354922e-01  2
-2.493959213836588e-01  3.127325924766970e-01  2
-3.127325934629930e-01  2.493959201468829e-01  2
-3.603875474036632e-01  1.735534951430607e-01  2
-3.899711649357754e-01  8.900837330630355e-02  2
-3.899711648211195e-01  -8.900837380864368e-02  2
-3.603875469354922e-01  -1.735534961152278e-01  2
-3.127325924766970e-01  -2.493959213836588e-01  2
-2.493959201468829e-01  -3.127325934629930e-01  2
-1.735534951430607e-01  -3.603875474036632e-01  2
-8.900837330630355e-02  -3.899711649357754e-01  2
8.900837380864368e-02  -3.899711648211195e-01  2
1.735534961152278e-01  -3.603875469354922e-01  2
2.493959213836588e-01  -3.127325924766970e-01  2
3.127325934629930e-01  -2.493959201468829e-01  2
3.603875474036632e-01  -1.735534951430607e-01  2
3.899711649357754e-01  -8.900837330630355e-02  2
3.899711648211195e-01  8.900837380864368e-02  2
3.603875469354922e-01  1.735534961152278e-01  2
3.127325924766970e-01  2.493959213836588e-01  2
2.493959201468829e-01  3.127325934629930e-01  2
1.735534951430607e-01  3.603875474036632e-01  2
8.900837330630355e-02  3.899711649357754e-01  2
0.000000000000000e+00  2.153846160680856e-01  0
0.000000000000000e+00  2.615384615128076e-01  0
2.153846160680856e-01  0.000000000000000e+00  0
2.615384615128076e-01  0.000000000000000e+00  0
0.000000000000000e+00  -2.153846160680856e-01  0
0.000000000000000e+00  -2.615384615128076e-01  0
-2.153846160680856e-01  0.000000000000000e+00  0
-2.615384615128076e-01  0.000000000000000e+00  0
-1.491582276263843e-01  1.277498663016334e-02  0
1.592656126183823e-01  -2.602426431788319e-02  0
-9.521420495381896e-03  -1.583883852436127e-01  0
2.546529251583463e-02  1.536618994099204e-01  0
8.829943393506531e-02  -1.348668963538771e-01  0
1.393367781791582e-01  8.258179286869809e-02  0
-7.131595084043768e-02  1.398719771008549e-01  0
-1.370985710536583e-01  -8.550870891918518e-02  0
-9.268968705166596e-02  -1.295123856132275e-01  0
1.366930902409968e-01  -8.800138333436616e-02  0
8.466177227987363e-02  1.281330383907154e-01  0
-1.413115925308022e-01  8.018714100890281e-02  0
5.469467987510811e-02  -1.470920092780099e-01  0
6.333361499777271e-02  -1.134923093484425e-01  0
9.219227609654737e-02  -8.837230510741989e-02  0
4.702238369719027e-02  -7.480965856862005e-02  0
7.530934264399651e-02  -5.123408260345460e-02  0
3.770349241557948e-02  -4.250658590880792e-02  0
1.970494420451591e-03  -5.697133779105025e-02  0
-1.490556134943305e-02  -1.275700850380853e-02  0
4.077240416922187e-02  2.062799149654987e-03  0
-2.232446480250622e-02  3.025881226627848e-02  0
-5.622217655737557e-02  6.290845758427857e-03  0
2.330019767083620e-02  5.875713295753501e-02  0
-2.331414627331594e-02  8.027095066358157e-02  0
7.216063295912407e-02  4.073453875887371e-02  0
9.079135326225368e-03  1.024513783838600e-01  0
-1.366679099547128e-02  1.288258821489849e-01  0
-4.964596088268210e-02  1.071833469695116e-01  0
1.860664209520257e-02  -1.032765292814975e-01  0
-3.377934015457695e-02  -7.352379302877880e-02  0
-5.454444825097027e-02  -4.432612517302607e-02  0
-8.280808452541574e-02  -2.037151472234909e-02  0
-8.509746656940892e-02  2.639289384929360e-02  0
-8.382909930313373e-02  -6.674938692315235e-02  0
-1.103644937159358e-01  -4.889399414168905e-02  0
8.630192084045404e-02  -1.173808320092876e-02  0
9.985563070849418e-02  2.147953474046880e-02  0
6.256626736433914e-02  9.168243514293690e-02  0
-5.346143352976560e-02  5.423741170068649e-02  0
-9.210161580986653e-02  7.889088762310788e-02  0
1.207796161961150e-01  -2.294607873182482e-02  0
-1.102807529328079e-01  -1.014265913689867e-03  0
-1.154741912691274e-01  4.295938786478602e-02  0
-2.806679052836247e-02  -1.166375739263452e-01  0
-1.437158779854486e-01  -2.894339320081689e-02  0
2.770704966167116e-02  -1.514516301143238e-01  0
9.189462222065829e-02  7.199915819799761e-02  0
-4.302426439429773e-03  1.709256549459334e-01  0
-6.982489644002521e-02  -9.716039215768588e-02  0
1.618435985179277e-01  5.461092536802940e-02  0
1.173941609968918e-01  -1.160934368707926e-01  0
1.144825235778032e-01  1.015465870208559e-01  0
-1.226124418967693e-01  -1.092670180602807e-01  0
-1.147340095557596e-01  1.179508072221144e-01  0
1.643025329579179e-01  2.230441800788709e-02  0
-5.521608161052050e-02  -1.550425701599960e-01  0
1.520793426833303e-01  -5.533991569248623e-02  0
6.679767868132466e-02  1.552192299112307e-01  0
-1.525717175486320e-01  4.822773771106282e-02  0
-1.554956643873977e-01  -5.656767698894605e-02  0
-3.220443581056321e-02  1.588385841259975e-01  0
1.208417886703967e-01  -6.056307848348917e-02  0
-1.026982090634246e-01  -8.960091419204178e-02  0
4.023795138058538e-02  1.181130608195020e-01  0
1.374848075716160e-01  1.044104171719315e-02  0
1.243327153661999e-01  4.987004701729188e-02  0
-5.819778286917388e-02  2.549811462041828e-01  0
-4.792758604904842e-02  2.099844740315524e-01  0
-1.134772859103643e-01  2.356380114347085e-01  0
-9.345188282013084e-02  1.940548335810505e-01  0
-1.630665639656282e-01  2.044790027531679e-01  0
-1.342901119404146e-01  1.683944734064262e-01  0
-2.044790033980537e-01  1.630665631569669e-01  0
-1.683944739375086e-01  1.342901112744583e-01  0
-2.356380117408203e-01  1.134772852747166e-01  0
-1.940548338331426e-01  9.345188229665624e-02  0
-2.549811462791501e-01  5.819778254072071e-02  0
-2.099844740932902e-01  4.792758577855757e-02  0
-2.549811462041828e-01  -5.819778286917388e-02  0
-2.099844740315524e-01  -4.792758604904842e-02  0
-2.356380114347085e-01  -1.134772859103643e-01  0
-1.940548335810505e-01  -9.345188282013084e-02  0
-2.044790027531679e-01  -1.630665639656282e-01  0
-1.683944734064262e-01  -1.342901119404146e-01  0
-1.630665631569669e-01  -2.044790033980537e-01  0
-1.342901112744583e-01  -1.683944739375086e-01  0
-1.134772852747166e-01  -2.356380117408203e-01  0
-9.345188229665624e-02  -1.940548338331426e-01  0
-5.819778254072071e-02  -2.549811462791501e-01  0
-4.792758577855757e-02  -2.099844740932902e-01  0
5.819778286917388e-02  -2.549811462041828e-01  0
4.792758604904842e-02  -2.099844740315524e-01  0
1.134772859103643e-01  -2.356380114347085e-01  0
9.345188282013084e-02  -1.940548335810505e-01  0
1.630665639656282e-01  -2.044790027531679e-01  0
1.342901119404146e-01  -1.683944734064262e-01  0
2.044790033980537e-01  -1.630665631569669e-01  0
1.683944739375086e-01  -1.342901112744583e-01  0
2.356380117408203e-01  -1.134772852747166e-01  0
1.940548338331426e-01  -9.345188229665624e-02  0
2.549811462791501e-01  -5.819778254072071e-02  0
2.099844740932902e-01  -4.792758577855757e-02  0
2.549811462041828e-01  5.819778286917388e-02  0
2.099844740315524e-01  4.792758604904842e-02  0
2.356380114347085e-01  1.134772859103643e-01  0
1.940548335810505e-01  9.345188282013084e-02  0
2.044790027531679e-01  1.630665639656282e-01  0
1.683944734064262e-01  1.342901119404146e-01  0
1.630665631569669e-01  2.044790033980537e-01  0
1.342901112744583e-01  1.683944739375086e-01  0
1.134772852747166e-01  2.356380117408203e-01  0
9.345188229665624e-02  1.940548338331426e-01  0
5.819778254072071e-02  2.549811462791501e-01  0
4.792758577855757e-02  2.099844740932902e-01  0
Edges
56
3  9  1
9  10  1
10  11  1
11  12  1
12  13  1
13  14  1
4  14  1
4  15  1
15  16  1
16  17  1
17  18  1
18  19  1
19  20  1
1  20  1
1  21  1
21  22  1
22  23  1
23  24  1
24  25  1
25  26  1
2  26  1
2  27  1
27  28  1
28  29  1
29  30  1
30  31  1
31  32  1
3  32  1
6  33  2
33  34  2
34  35  2
35  36  2
36  37  2
37  38  2
7  38  2
7  39  2
39  40  2
40  41  2
41  42  2
42  43  2
43  44  2
8  44  2
8  45  2
45  46  2
46  47  2
47  48  2
48  49  2
49  50  2
5  50  2
5  51  2
51  52  2
52  53  2
53  54  2
54  55  2
55  56  2
6  56  2
Triangles
24
76  105  119  1
103  75  129  1
20  1  66  1
89  88  91  1
88  85  90  1
84  86  87  1
80  81  82  1
78  80  94  1
110  9  125  1
81  79  127  1
67  109  121  1
109  95  114  1
107  65  110  1
70  23  117  1
17  18  116  1
29  30  119  1
21  22  115  1
13  14  121  1
65  108  124  1
102  130  131  1
106  66  130  1
72  118  128  1
114  99  128  1
115  70  131  1
Quadrilaterals
152
109  114  73  121  1
120  115  131  130  1
105  93  71  119  1
109  67  111  94  1
111  67  4  15  1
102  131  112  90  1
2  113  68  26  1
73  114  128  118  1
74  127  79  116  1
91  129  68  92  1
122  66  106  127  1
110  65  3  9  1
90  112  103  88  1
106  130  102  101  1
28  71  126  27  1
76  119  30  31  1
81  127  106  101  1
117  75  103  112  1
13  121  73  12  1
101  102  90  85  1
80  82  83  94  1
24  75  117  23  1
98  107  97  87  1
96  95  83  84  1
80  78  79  81  1
84  83  82  85  1
87  97  96  84  1
87  86  104  98  1
86  84  85  88  1
17  116  69  16  1
29  119  71  28  1
89  104  86  88  1
99  114  95  96  1
82  81  101  85  1
11  118  72  10  1
107  98  108  65  1
105  108  98  104  1
74  116  18  19  1
93  92  126  71  1
89  91  92  93  1
20  66  122  19  1
95  109  94  83  1
25  123  75  24  1
103  129  91  88  1
107  110  100  97  1
65  124  32  3  1
128  99  100  72  1
67  121  14  4  1
70  115  22  23  1
112  131  70  117  1
120  130  66  1  1
111  77  78  94  1
69  116  79  78  1
93  105  104  89  1
99  96  97  100  1
76  124  108  105  1
21  115  120  1  1
74  19  122  127  1
129  75  123  68  1
100  110  125  72  1
113  2  27  126  1
77  16  69  78  1
113  126  92  68  1
31  32  124  76  1
12  73  118  11  1
10  72  125  9  1
26  68  123  25  1
15  16  77  111  1
6  33  132  58  2
58  132  133  57  2
57  133  27  2  2
33  34  134  132  2
132  134  135  133  2
133  135  28  27  2
34  35  136  134  2
134  136  137  135  2
135  137  29  28  2
35  36  138  136  2
136  138  139  137  2
137  139  30  29  2
36  37  140  138  2
138  140  141  139  2
139  141  31  30  2
37  38  142  140  2
140  142  143  141  2
141  143  32  31  2
38  7  64  142  2
142  64  63  143  2
143  63  3  32  2
7  39  144  64  2
64  144  145  63  2
63  145  9  3  2
39  40  146  144  2
144  146  147  145  2
145  147  10  9  2
40  41  148  146  2
146  148  149  147  2
147  149  11  10  2
41  42  150  148  2
148  150  151  149  2
149  151  12  11  2
42  43  152  150  2
150  152  153  151  2
151  153  13  12  2
43  44  154  152  2
152  154  155  153  2
153  155  14  13  2
44  8  62  154  2
154  62  61  155  2
155  61  4  14  2
8  45  156  62  2
62  156  157  61  2
61  157  15  4  2
45  46  158  156  2
156  158  159  157  2
157  159  16  15  2
46  47  160  158  2
158  160  161  159  2
159  161  17  16  2
47  48  162  160  2
160  162  163  161  2
161  163  18  17  2
48  49  164  162  2
162  164  165  163  2
163  165  19  18  2
49  50  166  164  2
164  166  167  165  2
165  167  20  19  2
50  5  60  166  2
166  60  59  167  2
167  59  1  20  2
5  51  168  60  2
60  168  169  59  2
59  169  21  1  2
51  52  170  168  2
168  170  171  169  2
169  171  22  21  2
52  53  172  170  2
170  172  173  171  2
171  173  23  22  2
53  54  174  172  2
172  174  175  173  2
173  175  24  23  2
54  55  176  174  2
174  176  177  175  2
175  177  25  24  2
55  56  178  176  2
176  178  179  177  2
177  179  26  25  2
56  6  58  178  2
178  58  57  179  2
179  57  2  26  2
End
