MeshVersionFormatted 1
Dimension 
2
Vertices
442
2.000000000000000e-01  0.000000000000000e+00  2
0.000000000000000e+00  2.000000000000000e-01  2
-2.000000000000000e-01  0.000000000000000e+00  2
0.000000000000000e+00  -2.000000000000000e-01  2
2.000000000000000e+01  0.000000000000000e+00  3
0.000000000000000e+00  2.000000000000000e+01  3
-2.000000000000000e+01  0.000000000000000e+00  3
0.000000000000000e+00  -2.000000000000000e+01  3
1.800000000000000e-01  0.000000000000000e+00  1
0.000000000000000e+00  1.800000000000000e-01  1
-1.800000000000000e-01  0.000000000000000e+00  1
0.000000000000000e+00  -1.800000000000000e-01  1
1.300000000000000e-01  0.000000000000000e+00  4
1.000000000000000e-01  3.000000000000000e-02  4
7.000000000000001e-02  0.000000000000000e+00  4
1.000000000000000e-01  -3.000000000000000e-02  4
-1.999999999999998e-02  8.660254037844388e-02  5
-4.999999999999998e-02  1.166025403784439e-01  5
-7.999999999999999e-02  8.660254037844388e-02  5
-4.999999999999998e-02  5.660254037844388e-02  5
-1.999999999999998e-02  -8.660254037844388e-02  6
-4.999999999999998e-02  -5.660254037844388e-02  6
-7.999999999999999e-02  -8.660254037844388e-02  6
-4.999999999999998e-02  -1.166025403784439e-01  6
-1.949855824105597e-01  -4.450418690432184e-02  2
-1.801937734677461e-01  -8.677674805761390e-02  2
-1.563662962383485e-01  -1.246979606918294e-01  2
-1.246979600734415e-01  -1.563662967314965e-01  2
-8.677674757153037e-02  -1.801937737018316e-01  2
-4.450418665315178e-02  -1.949855824678877e-01  2
4.450418690432184e-02  -1.949855824105597e-01  2
8.677674805761390e-02  -1.801937734677461e-01  2
1.246979606918294e-01  -1.563662962383485e-01  2
1.563662967314965e-01  -1.246979600734415e-01  2
1.801937737018316e-01  -8.677674757153037e-02  2
1.949855824678877e-01  -4.450418665315178e-02  2
1.949855824105597e-01  4.450418690432184e-02  2
1.801937734677461e-01  8.677674805761390e-02  2
1.563662962383485e-01  1.246979606918294e-01  2
1.246979600734415e-01  1.563662967314965e-01  2
8.677674757153037e-02  1.801937737018316e-01  2
4.450418665315178e-02  1.949855824678877e-01  2
-4.450418690432184e-02  1.949855824105597e-01  2
-8.677674805761390e-02  1.801937734677461e-01  2
-1.246979606918294e-01  1.563662962383485e-01  2
-1.563662967314965e-01  1.246979600734415e-01  2
-1.801937737018316e-01  8.677674757153037e-02  2
-1.949855824678877e-01  4.450418665315178e-02  2
-4.450418691007292e+00  1.949855824092471e+01  3
-8.677674807431035e+00  1.801937734597055e+01  3
-1.246979606771126e+01  1.563662962500848e+01  3
-1.563662967261439e+01  1.246979600801534e+01  3
-1.801937736918679e+01  8.677674759222016e+00  3
-1.949855824682306e+01  4.450418665164929e+00  3
-1.949855824092471e+01  -4.450418691007292e+00  3
-1.801937734597055e+01  -8.677674807431035e+00  3
-1.563662962500848e+01  -1.246979606771126e+01  3
-1.246979600801534e+01  -1.563662967261439e+01  3
-8.677674759222016e+00  -1.801937736918679e+01  3
-4.450418665164929e+00  -1.949855824682306e+01  3
4.450418691007292e+00  -1.949855824092471e+01  3
8.677674807431035e+00  -1.801937734597055e+01  3
1.246979606771126e+01  -1.563662962500848e+01  3
1.563662967261439e+01  -1.246979600801534e+01  3
1.801937736918679e+01  -8.677674759222016e+00  3
1.949855824682306e+01  -4.450418665164929e+00  3
1.949855824092471e+01  4.450418691007292e+00  3
1.801937734597055e+01  8.677674807431035e+00  3
1.563662962500848e+01  1.246979606771126e+01  3
1.246979600801534e+01  1.563662967261439e+01  3
8.677674759222016e+00  1.801937736918679e+01  3
4.450418665164929e+00  1.949855824682306e+01  3
0.000000000000000e+00  1.723076990741584e+00  0
0.000000000000000e+00  6.292307689769905e+00  0
1.723076990741584e+00  0.000000000000000e+00  0
6.292307689769905e+00  0.000000000000000e+00  0
0.000000000000000e+00  -1.723076990741584e+00  0
0.000000000000000e+00  -6.292307689769905e+00  0
-1.723076990741584e+00  0.000000000000000e+00  0
-6.292307689769905e+00  0.000000000000000e+00  0
1.754870241688528e-01  4.005376821674136e-02  1
1.621743961146959e-01  7.809907326488373e-02  1
1.407296666028080e-01  1.122281646373249e-01  1
1.122281640579459e-01  1.407296670648472e-01  1
7.809907281610942e-02  1.621743963308143e-01  1
4.005376798917950e-02  1.754870242207924e-01  1
-4.005376821674136e-02  1.754870241688528e-01  1
-7.809907326488373e-02  1.621743961146959e-01  1
-1.122281646373249e-01  1.407296666028080e-01  1
-1.407296670648472e-01  1.122281640579459e-01  1
-1.621743963308143e-01  7.809907281610942e-02  1
-1.754870242207924e-01  4.005376798917950e-02  1
-1.754870241688528e-01  -4.005376821674136e-02  1
-1.621743961146959e-01  -7.809907326488373e-02  1
-1.407296666028080e-01  -1.122281646373249e-01  1
-1.122281640579459e-01  -1.407296670648472e-01  1
-7.809907281610942e-02  -1.621743963308143e-01  1
-4.005376798917950e-02  -1.754870242207924e-01  1
4.005376821674136e-02  -1.754870241688528e-01  1
7.809907326488373e-02  -1.621743961146959e-01  1
1.122281646373249e-01  -1.407296666028080e-01  1
1.407296670648472e-01  -1.122281640579459e-01  1
1.621743963308143e-01  -7.809907281610942e-02  1
1.754870242207924e-01  -4.005376798917950e-02  1
0.000000000000000e+00  1.899999999999566e-01  0
1.899999999999566e-01  0.000000000000000e+00  0
0.000000000000000e+00  -1.899999999999566e-01  0
-1.899999999999566e-01  0.000000000000000e+00  0
1.259807620911216e-01  1.500000003881798e-02  4
1.149999999501442e-01  2.598076214231742e-02  4
8.499999994545482e-02  2.598076208204148e-02  4
7.401923785549129e-02  1.499999994634875e-02  4
7.401923790816442e-02  -1.500000003758130e-02  4
8.500000004959889e-02  -2.598076214216909e-02  4
1.150000000523499e-01  -2.598076208330890e-02  4
1.259807621437129e-01  -1.499999994772716e-02  4
-2.401923791213350e-02  1.016025404228999e-01  5
-3.500000004678416e-02  1.125833025189879e-01  5
-6.500000004265317e-02  1.125833024673512e-01  5
-7.598076214685680e-02  1.016025403207256e-01  5
-7.598076209175250e-02  7.160254034071870e-02  5
-6.499999994447779e-02  6.062177823285496e-02  5
-3.499999995705202e-02  6.062177828970674e-02  5
-2.401923785318278e-02  7.160254043609354e-02  5
-2.401923791197771e-02  -7.160254033425772e-02  6
-3.500000004661530e-02  -6.062177823799736e-02  6
-6.500000004149395e-02  -6.062177828886727e-02  6
-7.598076214685005e-02  -7.160254043615047e-02  6
-7.598076209209997e-02  -1.016025404155672e-01  6
-6.499999994383777e-02  -1.125833025244023e-01  6
-3.499999995589279e-02  -1.125833024665117e-01  6
-2.401923785317603e-02  -1.016025403207825e-01  6
-6.167118233707292e-02  4.608207003524601e-02  0
-1.939301661924931e-02  -5.773504659332351e-02  0
-9.620504688931046e-03  7.645432454549038e-02  0
5.815731466707583e-02  1.136782205618788e-02  0
7.104992522519038e-02  -3.008685526026706e-02  0
-6.069466518312220e-02  -4.629853235860214e-02  0
-3.256070612509120e-03  -1.014008542916314e-01  0
8.900213136935120e-02  4.152980513019421e-02  0
7.191786458098208e-02  -1.329395956459689e-01  0
-1.423041144052989e-01  1.322708011710750e-02  0
7.736742286446188e-02  1.265915994626957e-01  0
-7.878431506100014e-02  -5.742466969288759e-02  0
-7.538361046715432e-02  -3.946775782779811e-02  0
-6.396122471250297e-02  -2.916978499277728e-02  0
-8.034481648197384e-02  -2.049093081122987e-02  0
-6.465757935491202e-02  -1.725374854408683e-02  0
-5.108557996347174e-02  -1.784469008033402e-02  0
-4.566748335821691e-02  -5.164340113545191e-03  0
-3.179447548211042e-02  -1.187743432262523e-02  0
-3.670702597802450e-02  7.153330943598097e-03  0
-2.310146515680288e-02  -1.425874643516221e-03  0
-2.604271155702881e-02  1.759818671081023e-02  0
-1.413520842304933e-02  8.664532028634830e-03  0
-1.115072395722803e-02  -1.220970363279133e-02  0
4.160990156587646e-03  1.951438764870175e-04  0
4.006112038785214e-03  -1.645564045120115e-02  0
-1.709027642369947e-03  1.880641096391113e-02  0
-8.413454660209523e-02  -5.393346342756239e-04  0
1.932791129824649e-02  -9.202221488597945e-03  0
1.558553201336108e-02  -2.101087388519048e-02  0
8.783810816729896e-02  -4.523169122566138e-02  0
7.204904203319823e-02  -4.589128209695480e-02  0
-1.014573040518130e-02  9.806461949496501e-02  0
2.686821059338986e-03  8.750187115668277e-02  0
1.123927860314152e-02  7.145543845949298e-02  0
1.980362514867086e-02  8.355862828038102e-02  0
2.366704129623833e-02  6.204857692311323e-02  0
3.326949787889918e-02  7.576710210089165e-02  0
-7.593623431029810e-02  5.212476993447594e-02  0
6.087749841680884e-02  2.690611745097965e-02  0
4.490176033170104e-02  2.244686902373641e-02  0
-9.847367669838185e-02  -4.345634649972598e-02  0
2.381109346818727e-02  9.759978758199095e-02  0
5.462426991425921e-02  -4.451405299139059e-02  0
5.550207125421636e-02  -6.451809475346383e-02  0
9.154948423739655e-02  -6.221655222350464e-02  0
-8.922426702955988e-02  5.935348487346413e-02  0
-9.168119810694797e-02  3.902840988914471e-02  0
-1.986303390824377e-02  1.172375276548352e-01  0
-1.066968687668683e-02  -6.874018336595979e-02  0
-1.324872364210617e-02  -1.140508011352039e-01  0
6.959090978871117e-03  -1.115616902493586e-01  0
5.990952374515499e-02  -1.380648068046459e-02  0
1.108540737192732e-01  4.866912787500403e-02  0
3.667057076407415e-02  -5.032509702198623e-02  0
-3.926609897814450e-02  1.270455763590329e-01  0
4.078464205394750e-02  -6.804607564680935e-02  0
-1.877961561383667e-02  5.806201320540507e-02  0
-1.011782602145847e-01  -9.147793149121316e-03  0
-5.031774674295759e-03  -5.475713994025801e-02  0
9.164398094530826e-02  5.466014278237221e-02  0
1.151255302913398e-01  -4.062212521358824e-02  0
1.319317948915290e-01  -3.092022103280373e-02  0
-1.597818507429201e-02  -4.161674460586853e-02  0
-9.050526362610747e-02  -7.522579954591639e-02  0
-9.102097198901116e-02  -9.594473873948185e-02  0
-4.865043830813216e-02  4.116299501101118e-02  0
-5.693530113040163e-02  3.136612921243294e-02  0
1.177777815670481e-02  4.906843950137166e-02  0
9.067561627253031e-03  -8.974264960233258e-02  0
1.979387429937772e-02  -1.049717976542835e-01  0
4.509120562147329e-02  -1.448001943307429e-03  0
6.898326371106789e-02  5.545009444818706e-02  0
7.530166251650075e-02  7.818634166959695e-02  0
-1.011590036112225e-01  7.902404504415143e-03  0
-1.108375596318251e-01  5.597437975847647e-02  0
-9.526877181798524e-02  9.654228737240171e-02  0
2.626694224151264e-02  3.936620172953787e-02  0
1.364072411257747e-01  3.245347320531056e-02  0
-4.148621438287468e-02  -4.388200709527151e-02  0
7.353481318886152e-03  -6.712243329001108e-02  0
9.171624313541358e-03  -4.851019156418852e-02  0
3.292008567912448e-02  1.463337212122507e-02  0
-3.962474050336229e-02  -1.257073863122317e-01  0
5.982315730132295e-02  -8.255907123088363e-02  0
5.116513444737154e-02  4.140980476833956e-02  0
1.133291262116944e-01  6.616783415672008e-02  0
2.757233081573355e-02  -1.272153187845937e-01  0
-4.963416374245598e-03  1.124694097737037e-01  0
2.250195819580451e-02  1.175362904614821e-01  0
-2.051729227295639e-02  1.360820999927971e-01  0
4.064553496461921e-02  -3.282023867461382e-02  0
1.404360389026718e-01  9.030641263860904e-03  0
1.401176255809878e-01  -1.067612897301279e-02  0
-1.390044898344871e-01  -4.237623314064771e-02  0
-1.058074120733214e-01  -8.569273600956669e-02  0
-3.755276558824009e-02  -2.465261451767129e-02  0
1.287977452370186e-01  -5.175430690298471e-02  0
-8.314171359785733e-02  1.173963624961630e-01  0
-8.366131702494312e-02  -1.165208429644550e-01  0
-1.111000589394332e-01  3.281442591795926e-02  0
-8.151957312653396e-02  1.826943035603874e-02  0
-3.767061047010317e-02  2.753708950055998e-02  0
-2.926975321858099e-02  3.354137112126082e-02  0
-1.193745323148727e-01  -1.106730531520913e-02  0
-6.270532056398595e-02  -1.288000455702750e-01  0
-6.258670043300257e-02  1.292606920922906e-01  0
-7.784604894289363e-03  -2.607875298222805e-02  0
3.155489767431171e-02  -1.476786371562583e-02  0
4.630633929705342e-02  1.126964103503086e-01  0
5.749543263383062e-02  1.361303580882699e-01  0
-1.372262332714517e-01  4.268891869828227e-02  0
-1.119975632871365e-01  7.366926444466768e-02  0
1.089746442717139e-01  -6.097935336113166e-02  0
8.834685298991063e-02  -8.128289132709213e-02  0
1.103942975170691e-02  3.399652716398947e-02  0
-4.124902558539353e-03  4.482867197053166e-02  0
-1.150729897028093e-01  -6.289978191958967e-02  0
-5.131606590935559e-02  1.866899738467456e-02  0
-6.275039637948873e-02  1.217863326358214e-03  0
-1.427712814768013e-01  -1.295698088129055e-02  0
-1.699565931106409e-02  2.966362351307842e-02  0
-4.202775401490828e-03  -3.768109556797871e-02  0
3.801927190743395e-02  5.243320212750766e-02  0
-2.213457358831730e-02  -1.727359733152055e-02  0
1.861279260253592e-02  9.899634412310182e-03  0
1.944595181979451e-02  -5.573343813946530e-02  0
4.919365430507382e-02  -1.375591143561120e-01  0
2.705077126395655e-02  2.568971947123266e-02  0
-5.220167469046762e-02  -3.374346446297947e-02  0
-1.573035621803704e-02  -1.500225182866270e-01  0
1.802868468079682e-03  1.281532287144908e-01  0
-7.189718609442727e-02  3.600929769681731e-02  0
-3.206791294249402e-02  4.414728805211680e-02  0
-4.923073842155243e-02  -1.426821654194899e-01  0
-4.779145764307428e-02  1.438565519603263e-01  0
4.887370480551494e-02  6.705845287272727e-02  0
2.226563601396596e-02  -7.532022808693441e-02  0
5.899849092778201e-02  -2.770908427160357e-02  0
1.145418577142367e-01  -8.800458930845023e-02  0
-1.148442833654775e-01  -3.012957225614789e-02  0
-1.042665836313096e-01  -1.093370726616690e-01  0
7.221415336020187e-02  1.037394057904278e-01  0
9.963027031553781e-02  1.040208862247871e-01  0
-2.560169667359844e-03  6.168432258811790e-02  0
2.520691340320716e-03  -1.306664203163798e-01  0
1.736708189048149e-02  -1.514497192418621e-01  0
-3.232210382567654e-03  -7.734702084795932e-02  0
9.551158932046239e-02  -1.163938719108334e-01  0
7.703162744594906e-02  3.672940774799770e-02  0
3.909694137972403e-02  -9.080627449975143e-02  0
4.786984902960337e-02  -1.123741003508164e-01  0
-1.179191442255219e-01  9.534937279673911e-02  0
4.591067492241372e-02  -1.803986924857872e-02  0
2.347795496074684e-02  -3.988873747006732e-02  0
-1.012410331854699e-01  1.135603900815583e-01  0
-6.765611345916674e-02  1.799519855761108e-02  0
-1.291026155503064e-01  -8.299710915258919e-02  0
4.023287190347510e-02  9.242314786236185e-02  0
3.911044633902706e-02  3.199634020270450e-02  0
-9.432066510683675e-02  7.977874934520883e-02  0
-1.349432837799439e-01  7.191392649716495e-02  0
-2.193371227017047e-02  -2.867458856803065e-02  0
1.311291621314508e-01  5.230783044312487e-02  0
1.492776989338711e-01  4.978906547287296e-02  0
9.016558181887225e-03  -3.484323102775794e-02  0
5.650708175720236e-02  8.401659079336747e-02  0
7.168846896671956e-02  -1.022964939910015e-01  0
1.531165548644099e-01  -2.631318722535408e-02  0
-1.768508074773275e-02  4.494924936496435e-02  0
1.203621255508203e-01  9.241506251467163e-02  0
-8.104982537359563e-02  -1.329873566703977e-01  0
-8.056077883510979e-02  1.336424911724752e-01  0
-2.783220587717922e-02  -1.348399646204609e-01  0
1.294732204424474e-01  7.216568778322505e-02  0
2.998598032458143e-02  -5.631890020527101e-04  0
1.035936618462706e-01  -4.338429461319464e-02  0
-2.780504594313101e-02  -4.937445050261308e-02  0
-9.292919848485828e-02  -6.139048092736129e-02  0
2.793071674688753e-02  -2.738170349993951e-02  0
1.479983720288099e-01  -5.077921943542758e-02  0
1.345252761514300e-01  -7.330703598454977e-02  0
2.349743064288588e-02  1.446796534917013e-01  0
-9.523910750429607e-02  2.209555642855660e-02  0
9.009753037464879e-03  1.038409863082579e-01  0
-1.187144015899389e-01  1.075523880031080e-02  0
1.428411602009419e-02  2.195012338768647e-02  0
9.858839420321064e-02  7.654446655863488e-02  0
7.298965223004225e-02  -6.645054575387066e-02  0
1.549051430438475e-01  -1.153708431297506e-03  0
-9.689782571794296e-02  -2.371380254556393e-02  0
-1.352172255808761e-03  3.345098386241092e-02  0
-7.391063210328059e-03  1.566112252574501e-01  0
1.349573979988637e-03  -2.495902076107447e-02  0
1.518944545815659e-01  2.048153468923120e-02  0
-3.253427047295152e-02  -3.676728259988476e-02  0
5.879650700388850e-02  -1.167828638481488e-03  0
4.646023185267397e-02  1.085305547591658e-02  0
-4.227897756052195e-02  1.852363032896640e-01  0
-8.243791066122999e-02  1.711840847911819e-01  0
-1.184630626645501e-01  1.485479814205443e-01  0
-1.485479818981380e-01  1.184630620656667e-01  0
-1.711840850162838e-01  8.243791019380108e-02  0
-1.852363033442977e-01  4.227897732115599e-02  0
-1.852363032896640e-01  -4.227897756052195e-02  0
-1.711840847911819e-01  -8.243791066122999e-02  0
-1.485479814205443e-01  -1.184630626645501e-01  0
-1.184630620656667e-01  -1.485479818981380e-01  0
-8.243791019380108e-02  -1.711840850162838e-01  0
-4.227897732115599e-02  -1.852363033442977e-01  0
4.227897756052195e-02  -1.852363032896640e-01  0
8.243791066122999e-02  -1.711840847911819e-01  0
1.184630626645501e-01  -1.485479814205443e-01  0
1.485479818981380e-01  -1.184630620656667e-01  0
1.711840850162838e-01  -8.243791019380108e-02  0
1.852363033442977e-01  -4.227897732115599e-02  0
1.852363032896640e-01  4.227897756052195e-02  0
1.711840847911819e-01  8.243791066122999e-02  0
1.485479814205443e-01  1.184630626645501e-01  0
1.184630620656667e-01  1.485479818981380e-01  0
8.243791019380108e-02  1.711840850162838e-01  0
4.227897732115599e-02  1.852363033442977e-01  0
-1.400170187602064e+00  6.134546397940755e+00  0
-3.834207022767384e-01  1.679875852879814e+00  0
-2.730129995994485e+00  5.669173331951376e+00  0
-7.476150896757039e-01  1.552438724624023e+00  0
-3.923189684346292e+00  4.919524241568114e+00  0
-1.074320934189242e+00  1.347155835969182e+00  0
-4.919524256557496e+00  3.923189665550202e+00  0
-1.347155840086389e+00  1.074320929026428e+00  0
-5.669173339256891e+00  2.730129980824421e+00  0
-1.552438726625966e+00  7.476150855186251e-01  0
-6.134546399795321e+00  1.400170179476680e+00  0
-1.679875853386452e+00  3.834207000570150e-01  0
-6.134546397940755e+00  -1.400170187602064e+00  0
-1.679875852879814e+00  -3.834207022767384e-01  0
-5.669173331951376e+00  -2.730129995994485e+00  0
-1.552438724624023e+00  -7.476150896757039e-01  0
-4.919524241568114e+00  -3.923189684346292e+00  0
-1.347155835969182e+00  -1.074320934189242e+00  0
-3.923189665550202e+00  -4.919524256557496e+00  0
-1.074320929026428e+00  -1.347155840086389e+00  0
-2.730129980824421e+00  -5.669173339256891e+00  0
-7.476150855186251e-01  -1.552438726625966e+00  0
-1.400170179476680e+00  -6.134546399795321e+00  0
-3.834207000570150e-01  -1.679875853386452e+00  0
1.400170187602064e+00  -6.134546397940755e+00  0
3.834207022767384e-01  -1.679875852879814e+00  0
2.730129995994485e+00  -5.669173331951376e+00  0
7.476150896757039e-01  -1.552438724624023e+00  0
3.923189684346292e+00  -4.919524241568114e+00  0
1.074320934189242e+00  -1.347155835969182e+00  0
4.919524256557496e+00  -3.923189665550202e+00  0
1.347155840086389e+00  -1.074320929026428e+00  0
5.669173339256891e+00  -2.730129980824421e+00  0
1.552438726625966e+00  -7.476150855186251e-01  0
6.134546399795321e+00  -1.400170179476680e+00  0
1.679875853386452e+00  -3.834207000570150e-01  0
6.134546397940755e+00  1.400170187602064e+00  0
1.679875852879814e+00  3.834207022767384e-01  0
5.669173331951376e+00  2.730129995994485e+00  0
1.552438724624023e+00  7.476150896757039e-01  0
4.919524241568114e+00  3.923189684346292e+00  0
1.347155835969182e+00  1.074320934189242e+00  0
3.923189665550202e+00  4.919524256557496e+00  0
1.074320929026428e+00  1.347155840086389e+00  0
2.730129980824421e+00  5.669173339256891e+00  0
7.476150855186251e-01  1.552438726625966e+00  0
1.400170179476680e+00  6.134546399795321e+00  0
3.834207000570150e-01  1.679875853386452e+00  0
8.316074155930046e-02  1.304302442528730e-03  0
1.145198683682347e-01  -5.873986161414570e-03  0
9.732520045515579e-02  -1.576515987838398e-02  0
1.065872979123420e-01  1.586978821306716e-02  0
9.756477713010767e-02  2.006160392063696e-02  0
9.692102800527355e-02  9.253083428478815e-03  0
1.042765604350239e-01  3.505284928479390e-03  0
1.123010564221594e-01  7.272328992045298e-03  0
9.317845326154629e-02  -6.903257060274121e-04  0
8.658813500718750e-02  -8.363943543249425e-03  0
1.020391785212652e-01  -4.055348821429003e-03  0
1.090926201709752e-01  -1.609493882291339e-02  0
8.533189662501710e-02  1.122979953296762e-02  0
-5.587398615902968e-02  7.208267201058066e-02  0
-4.869569755462366e-02  1.034417988142925e-01  0
-6.576515987838299e-02  8.927733992177606e-02  0
-3.413021178218068e-02  8.001524246557676e-02  0
-2.993839607516534e-02  8.903776324481995e-02  0
-4.074691656647662e-02  8.968151236851962e-02  0
-4.649471506652827e-02  8.232597994084641e-02  0
-4.272767100374788e-02  7.430148395620259e-02  0
-5.069032570231328e-02  9.342408711238637e-02  0
-5.836394354270127e-02  1.000144053675753e-01  0
-5.405534881836426e-02  8.456336185505073e-02  0
-6.609493882336241e-02  7.750992020993036e-02  0
-3.877020046250930e-02  1.012706437477447e-01  0
-3.963819380807483e-02  -9.819312002556235e-02  0
-6.045836864715250e-02  -7.280185602624543e-02  0
-5.958137216498906e-02  -1.005862973898468e-01  0
-4.068750986718150e-02  -7.340652188455486e-02  0
-3.368119492886790e-02  -8.100387902148114e-02  0
-6.706747218006824e-02  -9.376952550889200e-02  0
-5.952114139041040e-02  -8.450301274841535e-02  0
-5.114922666477482e-02  -8.034638815149300e-02  0
-5.060963540848021e-02  -7.149601978322406e-02  0
-5.288944429471171e-02  -9.275583092642825e-02  0
-4.975779193467818e-02  -1.025424413296494e-01  0
-4.453590731708986e-02  -8.586637605179548e-02  0
-6.848608026524650e-02  -7.863509419968696e-02  0
-3.065241077885466e-02  -9.138138465475194e-02  0
Edges
120
3  25  2
25  26  2
26  27  2
27  28  2
28  29  2
29  30  2
4  30  2
4  31  2
31  32  2
32  33  2
33  34  2
34  35  2
35  36  2
1  36  2
1  37  2
37  38  2
38  39  2
39  40  2
40  41  2
41  42  2
2  42  2
2  43  2
43  44  2
44  45  2
45  46  2
46  47  2
47  48  2
3  48  2
6  49  3
49  50  3
50  51  3
51  52  3
52  53  3
53  54  3
7  54  3
7  55  3
55  56  3
56  57  3
57  58  3
58  59  3
59  60  3
8  60  3
8  61  3
61  62  3
62  63  3
63  64  3
64  65  3
65  66  3
5  66  3
5  67  3
67  68  3
68  69  3
69  70  3
70  71  3
71  72  3
6  72  3
9  81  1
81  82  1
82  83  1
83  84  1
84  85  1
85  86  1
10  86  1
10  87  1
87  88  1
88  89  1
89  90  1
90  91  1
91  92  1
11  92  1
11  93  1
93  94  1
94  95  1
95  96  1
96  97  1
97  98  1
12  98  1
12  99  1
99  100  1
100  101  1
101  102  1
102  103  1
103  104  1
9  104  1
13  109  4
109  110  4
14  110  4
14  111  4
111  112  4
15  112  4
15  113  4
113  114  4
16  114  4
16  115  4
115  116  4
13  116  4
17  117  5
117  118  5
18  118  5
18  119  5
119  120  5
19  120  5
19  121  5
121  122  5
20  122  5
20  123  5
123  124  5
17  124  5
21  125  6
125  126  6
22  126  6
22  127  6
127  128  6
23  128  6
23  129  6
129  130  6
24  130  6
24  131  6
131  132  6
21  132  6
Triangles
96
216  267  306  1
132  131  183  1
14  110  186  1
93  94  227  1
259  213  270  1
249  201  277  1
187  176  224  1
188  223  268  1
210  201  248  1
142  11  253  1
141  281  300  1
157  156  158  1
155  157  159  1
127  22  138  1
114  113  137  1
17  124  135  1
247  178  321  1
196  192  255  1
124  123  190  1
175  222  317  1
220  260  284  1
229  149  262  1
173  215  330  1
97  98  267  1
98  12  263  1
136  112  172  1
87  88  268  1
189  270  283  1
215  258  308  1
226  301  322  1
128  127  144  1
117  17  165  1
265  234  289  1
12  99  279  1
94  95  290  1
273  174  323  1
81  82  297  1
259  187  287  1
96  97  304  1
88  89  305  1
174  250  311  1
166  167  168  1
95  96  274  1
210  261  292  1
10  87  325  1
191  160  207  1
252  251  289  1
271  185  286  1
118  117  181  1
23  128  197  1
264  222  315  1
245  285  294  1
129  23  198  1
131  24  216  1
206  275  299  1
161  241  308  1
18  118  188  1
233  208  244  1
110  109  211  1
130  129  232  1
120  119  231  1
116  115  195  1
119  18  239  1
24  130  238  1
254  159  324  1
109  13  225  1
13  116  226  1
228  250  290  1
303  276  320  1
220  278  279  1
180  233  316  1
285  209  288  1
296  211  297  1
198  228  274  1
177  217  321  1
225  322  327  1
295  229  328  1
212  310  328  1
114  16  405  4
116  13  404  4
14  111  407  4
111  112  415  4
411  403  412  4
406  407  408  4
122  20  416  5
120  19  418  5
17  117  420  5
117  118  428  5
424  417  425  5
419  420  421  5
23  129  434  6
128  23  441  6
132  21  442  6
438  431  439  6
433  432  440  6
435  430  441  6
Quadrilaterals
379
111  282  172  112  1
20  199  266  123  1
212  262  138  22  1
235  236  266  199  1
292  261  215  173  1
204  330  215  308  1
232  304  238  130  1
249  277  190  302  1
124  190  277  135  1
319  248  324  159  1
180  316  234  265  1
110  211  296  186  1
206  320  276  275  1
226  322  225  13  1
240  295  196  255  1
330  204  329  136  1
275  242  291  299  1
280  182  125  21  1
254  324  249  302  1
131  216  306  183  1
286  241  312  224  1
194  115  16  309  1
311  197  128  144  1
175  317  166  168  1
196  295  328  310  1
266  302  190  123  1
221  264  223  181  1
230  313  301  195  1
209  285  245  293  1
165  221  181  117  1
261  319  258  215  1
206  299  269  205  1
224  176  271  286  1
197  311  250  228  1
136  329  15  112  1
180  179  208  233  1
135  166  165  17  1
197  228  198  23  1
113  185  271  137  1
170  269  299  291  1
268  88  305  239  1
240  326  158  156  1
135  277  167  166  1
185  329  204  286  1
290  95  274  228  1
143  243  242  275  1
231  288  209  120  1
312  162  298  287  1
174  311  144  145  1
301  104  9  322  1
291  175  168  170  1
239  305  231  119  1
235  251  152  154  1
294  244  208  245  1
246  272  314  230  1
247  321  217  300  1
251  252  150  152  1
234  316  207  160  1
16  114  163  309  1
162  312  241  161  1
247  272  246  178  1
327  81  297  211  1
92  11  142  244  1
138  145  144  127  1
147  145  146  148  1
134  310  126  125  1
153  155  154  152  1
316  233  318  207  1
202  270  213  280  1
287  187  224  312  1
252  289  234  160  1
267  98  263  306  1
207  318  237  191  1
218  292  173  172  1
141  300  284  260  1
121  179  171  122  1
214  298  255  192  1
258  319  159  157  1
191  323  147  160  1
304  97  267  238  1
253  227  273  237  1
151  153  152  150  1
167  277  201  169  1
137  271  176  164  1
243  315  222  242  1
254  154  155  159  1
196  310  134  192  1
259  270  189  187  1
203  283  270  202  1
223  325  87  268  1
256  269  170  169  1
263  12  279  278  1
249  324  248  201  1
173  330  136  172  1
164  321  178  163  1
194  230  195  115  1
155  153  156  157  1
140  282  111  14  1
15  329  185  113  1
169  170  168  167  1
210  256  169  201  1
184  203  202  139  1
189  283  217  177  1
307  82  83  303  1
237  318  142  253  1
229  295  257  151  1
187  189  177  176  1
269  256  218  205  1
248  319  261  210  1
150  252  148  149  1
305  89  288  231  1
188  268  239  18  1
211  109  225  327  1
133  265  200  199  1
290  250  227  94  1
238  267  216  24  1
281  272  247  300  1
158  162  161  157  1
177  321  164  176  1
283  284  300  217  1
303  83  84  276  1
195  301  226  116  1
292  218  256  210  1
101  281  141  100  1
160  147  148  252  1
149  229  151  150  1
205  282  140  193  1
171  265  133  122  1
175  291  242  222  1
179  293  245  208  1
146  262  149  148  1
137  164  163  114  1
257  156  153  151  1
284  283  203  220  1
307  296  297  82  1
213  259  214  192  1
219  320  193  186  1
219  307  303  320  1
257  295  240  156  1
142  318  233  244  1
181  223  188  118  1
279  99  260  220  1
314  103  313  230  1
132  183  139  21  1
200  251  235  199  1
193  320  206  205  1
102  272  281  101  1
133  199  20  122  1
232  274  96  304  1
126  310  212  22  1
143  84  85  243  1
328  229  262  212  1
161  308  258  157  1
244  294  91  92  1
241  286  204  308  1
273  227  250  174  1
140  14  186  193  1
288  89  90  285  1
280  21  139  202  1
10  325  315  86  1
184  139  183  278  1
326  298  162  158  1
184  278  220  203  1
287  298  214  259  1
146  145  138  262  1
253  11  93  227  1
222  264  221  317  1
86  315  243  85  1
273  323  191  237  1
218  172  282  205  1
296  307  219  186  1
232  129  198  274  1
134  125  182  192  1
323  174  145  147  1
171  179  180  265  1
260  99  100  141  1
102  103  314  272  1
200  265  289  251  1
327  322  9  81  1
294  285  90  91  1
278  183  306  263  1
325  223  264  315  1
317  221  165  166  1
143  275  276  84  1
302  266  236  254  1
194  309  246  230  1
293  179  121  19  1
154  254  236  235  1
19  120  209  293  1
309  163  178  246  1
255  298  326  240  1
213  192  182  280  1
104  301  313  103  1
2  43  331  105  2
105  331  87  10  2
43  44  332  331  2
331  332  88  87  2
44  45  333  332  2
332  333  89  88  2
45  46  334  333  2
333  334  90  89  2
46  47  335  334  2
334  335  91  90  2
47  48  336  335  2
335  336  92  91  2
48  3  108  336  2
336  108  11  92  2
3  25  337  108  2
108  337  93  11  2
25  26  338  337  2
337  338  94  93  2
26  27  339  338  2
338  339  95  94  2
27  28  340  339  2
339  340  96  95  2
28  29  341  340  2
340  341  97  96  2
29  30  342  341  2
341  342  98  97  2
30  4  107  342  2
342  107  12  98  2
4  31  343  107  2
107  343  99  12  2
31  32  344  343  2
343  344  100  99  2
32  33  345  344  2
344  345  101  100  2
33  34  346  345  2
345  346  102  101  2
34  35  347  346  2
346  347  103  102  2
35  36  348  347  2
347  348  104  103  2
36  1  106  348  2
348  106  9  104  2
1  37  349  106  2
106  349  81  9  2
37  38  350  349  2
349  350  82  81  2
38  39  351  350  2
350  351  83  82  2
39  40  352  351  2
351  352  84  83  2
40  41  353  352  2
352  353  85  84  2
41  42  354  353  2
353  354  86  85  2
42  2  105  354  2
354  105  10  86  2
6  49  355  74  3
74  355  356  73  3
73  356  43  2  3
49  50  357  355  3
355  357  358  356  3
356  358  44  43  3
50  51  359  357  3
357  359  360  358  3
358  360  45  44  3
51  52  361  359  3
359  361  362  360  3
360  362  46  45  3
52  53  363  361  3
361  363  364  362  3
362  364  47  46  3
53  54  365  363  3
363  365  366  364  3
364  366  48  47  3
54  7  80  365  3
365  80  79  366  3
366  79  3  48  3
7  55  367  80  3
80  367  368  79  3
79  368  25  3  3
55  56  369  367  3
367  369  370  368  3
368  370  26  25  3
56  57  371  369  3
369  371  372  370  3
370  372  27  26  3
57  58  373  371  3
371  373  374  372  3
372  374  28  27  3
58  59  375  373  3
373  375  376  374  3
374  376  29  28  3
59  60  377  375  3
375  377  378  376  3
376  378  30  29  3
60  8  78  377  3
377  78  77  378  3
378  77  4  30  3
8  61  379  78  3
78  379  380  77  3
77  380  31  4  3
61  62  381  379  3
379  381  382  380  3
380  382  32  31  3
62  63  383  381  3
381  383  384  382  3
382  384  33  32  3
63  64  385  383  3
383  385  386  384  3
384  386  34  33  3
64  65  387  385  3
385  387  388  386  3
386  388  35  34  3
65  66  389  387  3
387  389  390  388  3
388  390  36  35  3
66  5  76  389  3
389  76  75  390  3
390  75  1  36  3
5  67  391  76  3
76  391  392  75  3
75  392  37  1  3
67  68  393  391  3
391  393  394  392  3
392  394  38  37  3
68  69  395  393  3
393  395  396  394  3
394  396  39  38  3
69  70  397  395  3
395  397  398  396  3
396  398  40  39  3
70  71  399  397  3
397  399  400  398  3
398  400  41  40  3
71  72  401  399  3
399  401  402  400  3
400  402  42  41  3
72  6  74  401  3
401  74  73  402  3
402  73  2  42  3
15  113  412  403  4
405  413  411  412  4
406  408  409  410  4
13  109  410  404  4
407  111  415  408  4
110  406  410  109  4
114  405  412  113  4
414  115  116  404  4
408  415  403  411  4
14  407  406  110  4
403  415  112  15  4
411  413  409  408  4
414  405  16  115  4
409  413  404  410  4
413  405  414  404  4
18  119  425  417  5
418  426  424  425  5
419  421  422  423  5
20  123  423  416  5
420  117  428  421  5
124  419  423  123  5
120  418  425  119  5
427  121  122  416  5
421  428  417  424  5
17  420  419  124  5
417  428  118  18  5
424  426  422  421  5
427  418  19  121  5
422  426  416  423  5
426  418  427  416  5
429  440  438  439  6
130  24  439  431  6
126  22  437  432  6
430  435  436  437  6
441  23  434  435  6
131  429  439  24  6
127  430  437  22  6
436  440  432  437  6
132  442  429  131  6
432  433  125  126  6
435  434  431  438  6
128  441  430  127  6
438  440  436  435  6
431  434  129  130  6
440  429  442  433  6
433  442  21  125  6
End
