MeshVersionFormatted 1
Dimension 
2
Vertices
123
2.000000000000000e-01  0.000000000000000e+00  1
0.000000000000000e+00  2.000000000000000e-01  1
-2.000000000000000e-01  0.000000000000000e+00  1
0.000000000000000e+00  -2.000000000000000e-01  1
2.100000000000000e-01  0.000000000000000e+00  2
0.000000000000000e+00  2.100000000000000e-01  2
-2.100000000000000e-01  0.000000000000000e+00  2
0.000000000000000e+00  -2.100000000000000e-01  2
-1.949855824105597e-01  -4.450418690432184e-02  1
-1.801937734677461e-01  -8.677674805761390e-02  1
-1.563662962383485e-01  -1.246979606918294e-01  1
-1.246979600734415e-01  -1.563662967314965e-01  1
-8.677674757153037e-02  -1.801937737018316e-01  1
-4.450418665315178e-02  -1.949855824678877e-01  1
4.450418690432184e-02  -1.949855824105597e-01  1
8.677674805761390e-02  -1.801937734677461e-01  1
1.246979606918294e-01  -1.563662962383485e-01  1
1.563662967314965e-01  -1.246979600734415e-01  1
1.801937737018316e-01  -8.677674757153037e-02  1
1.949855824678877e-01  -4.450418665315178e-02  1
1.949855824105597e-01  4.450418690432184e-02  1
1.801937734677461e-01  8.677674805761390e-02  1
1.563662962383485e-01  1.246979606918294e-01  1
1.246979600734415e-01  1.563662967314965e-01  1
8.677674757153037e-02  1.801937737018316e-01  1
4.450418665315178e-02  1.949855824678877e-01  1
-4.450418690432184e-02  1.949855824105597e-01  1
-8.677674805761390e-02  1.801937734677461e-01  1
-1.246979606918294e-01  1.563662962383485e-01  1
-1.563662967314965e-01  1.246979600734415e-01  1
-1.801937737018316e-01  8.677674757153037e-02  1
-1.949855824678877e-01  4.450418665315178e-02  1
-4.672939624045343e-02  2.047348615331612e-01  2
-9.111558544295667e-02  1.892034621495792e-01  2
-1.309328586989645e-01  1.641846110721617e-01  2
-1.641846115735140e-01  1.309328580702886e-01  2
-1.892034623883892e-01  9.111558494706272e-02  2
-2.047348615939430e-01  4.672939597415093e-02  2
-2.047348615331612e-01  -4.672939624045343e-02  2
-1.892034621495792e-01  -9.111558544295667e-02  2
-1.641846110721617e-01  -1.309328586989645e-01  2
-1.309328580702886e-01  -1.641846115735140e-01  2
-9.111558494706272e-02  -1.892034623883892e-01  2
-4.672939597415093e-02  -2.047348615939430e-01  2
4.672939624045343e-02  -2.047348615331612e-01  2
9.111558544295667e-02  -1.892034621495792e-01  2
1.309328586989645e-01  -1.641846110721617e-01  2
1.641846115735140e-01  -1.309328580702886e-01  2
1.892034623883892e-01  -9.111558494706272e-02  2
2.047348615939430e-01  -4.672939597415093e-02  2
2.047348615331612e-01  4.672939624045343e-02  2
1.892034621495792e-01  9.111558544295667e-02  2
1.641846110721617e-01  1.309328586989645e-01  2
1.309328580702886e-01  1.641846115735140e-01  2
9.111558494706272e-02  1.892034623883892e-01  2
4.672939597415093e-02  2.047348615939430e-01  2
-1.491582276263843e-01  1.277498663016334e-02  0
1.592656126183823e-01  -2.602426431788319e-02  0
-9.521420495381896e-03  -1.583883852436127e-01  0
2.546529251583463e-02  1.536618994099204e-01  0
8.829943393506531e-02  -1.348668963538771e-01  0
1.393367781791582e-01  8.258179286869809e-02  0
-7.131595084043768e-02  1.398719771008549e-01  0
-1.370985710536583e-01  -8.550870891918518e-02  0
-9.268968705166596e-02  -1.295123856132275e-01  0
1.366930902409968e-01  -8.800138333436616e-02  0
8.466177227987363e-02  1.281330383907154e-01  0
-1.413115925308022e-01  8.018714100890281e-02  0
5.469467987510811e-02  -1.470920092780099e-01  0
6.333361499777271e-02  -1.134923093484425e-01  0
9.219227609654737e-02  -8.837230510741989e-02  0
4.702238369719027e-02  -7.480965856862005e-02  0
7.530934264399651e-02  -5.123408260345460e-02  0
3.770349241557948e-02  -4.250658590880792e-02  0
1.970494420451591e-03  -5.697133779105025e-02  0
-1.490556134943305e-02  -1.275700850380853e-02  0
4.077240416922187e-02  2.062799149654987e-03  0
-2.232446480250622e-02  3.025881226627848e-02  0
-5.622217655737557e-02  6.290845758427857e-03  0
2.330019767083620e-02  5.875713295753501e-02  0
-2.331414627331594e-02  8.027095066358157e-02  0
7.216063295912407e-02  4.073453875887371e-02  0
9.079135326225368e-03  1.024513783838600e-01  0
-1.366679099547128e-02  1.288258821489849e-01  0
-4.964596088268210e-02  1.071833469695116e-01  0
1.860664209520257e-02  -1.032765292814975e-01  0
-3.377934015457695e-02  -7.352379302877880e-02  0
-5.454444825097027e-02  -4.432612517302607e-02  0
-8.280808452541574e-02  -2.037151472234909e-02  0
-8.509746656940892e-02  2.639289384929360e-02  0
-8.382909930313373e-02  -6.674938692315235e-02  0
-1.103644937159358e-01  -4.889399414168905e-02  0
8.630192084045404e-02  -1.173808320092876e-02  0
9.985563070849418e-02  2.147953474046880e-02  0
6.256626736433914e-02  9.168243514293690e-02  0
-5.346143352976560e-02  5.423741170068649e-02  0
-9.210161580986653e-02  7.889088762310788e-02  0
1.207796161961150e-01  -2.294607873182482e-02  0
-1.102807529328079e-01  -1.014265913689867e-03  0
-1.154741912691274e-01  4.295938786478602e-02  0
-2.806679052836247e-02  -1.166375739263452e-01  0
-1.437158779854486e-01  -2.894339320081689e-02  0
2.770704966167116e-02  -1.514516301143238e-01  0
9.189462222065829e-02  7.199915819799761e-02  0
-4.302426439429773e-03  1.709256549459334e-01  0
-6.982489644002521e-02  -9.716039215768588e-02  0
1.618435985179277e-01  5.461092536802940e-02  0
1.173941609968918e-01  -1.160934368707926e-01  0
1.144825235778032e-01  1.015465870208559e-01  0
-1.226124418967693e-01  -1.092670180602807e-01  0
-1.147340095557596e-01  1.179508072221144e-01  0
1.643025329579179e-01  2.230441800788709e-02  0
-5.521608161052050e-02  -1.550425701599960e-01  0
1.520793426833303e-01  -5.533991569248623e-02  0
6.679767868132466e-02  1.552192299112307e-01  0
-1.525717175486320e-01  4.822773771106282e-02  0
-1.554956643873977e-01  -5.656767698894605e-02  0
-3.220443581056321e-02  1.588385841259975e-01  0
1.208417886703967e-01  -6.056307848348917e-02  0
-1.026982090634246e-01  -8.960091419204178e-02  0
4.023795138058538e-02  1.181130608195020e-01  0
1.374848075716160e-01  1.044104171719315e-02  0
1.243327153661999e-01  4.987004701729188e-02  0
Edges
56
3  9  1
9  10  1
10  11  1
11  12  1
12  13  1
13  14  1
4  14  1
4  15  1
15  16  1
16  17  1
17  18  1
18  19  1
19  20  1
1  20  1
1  21  1
21  22  1
22  23  1
23  24  1
24  25  1
25  26  1
2  26  1
2  27  1
27  28  1
28  29  1
29  30  1
30  31  1
31  32  1
3  32  1
6  33  2
33  34  2
34  35  2
35  36  2
36  37  2
37  38  2
7  38  2
7  39  2
39  40  2
40  41  2
41  42  2
42  43  2
43  44  2
8  44  2
8  45  2
45  46  2
46  47  2
47  48  2
48  49  2
49  50  2
5  50  2
5  51  2
51  52  2
52  53  2
53  54  2
54  55  2
55  56  2
6  56  2
Triangles
24
68  97  111  1
95  67  121  1
20  1  58  1
81  80  83  1
80  77  82  1
76  78  79  1
72  73  74  1
70  72  86  1
102  9  117  1
73  71  119  1
59  101  113  1
101  87  106  1
99  57  102  1
62  23  109  1
17  18  108  1
29  30  111  1
21  22  107  1
13  14  113  1
57  100  116  1
94  122  123  1
98  58  122  1
64  110  120  1
106  91  120  1
107  62  123  1
Quadrilaterals
96
101  106  65  113  1
112  107  123  122  1
97  85  63  111  1
101  59  103  86  1
103  59  4  15  1
94  123  104  82  1
2  105  60  26  1
65  106  120  110  1
66  119  71  108  1
83  121  60  84  1
114  58  98  119  1
102  57  3  9  1
82  104  95  80  1
98  122  94  93  1
28  63  118  27  1
68  111  30  31  1
73  119  98  93  1
109  67  95  104  1
13  113  65  12  1
93  94  82  77  1
72  74  75  86  1
24  67  109  23  1
90  99  89  79  1
88  87  75  76  1
72  70  71  73  1
76  75  74  77  1
79  89  88  76  1
79  78  96  90  1
78  76  77  80  1
17  108  61  16  1
29  111  63  28  1
81  96  78  80  1
91  106  87  88  1
74  73  93  77  1
11  110  64  10  1
99  90  100  57  1
97  100  90  96  1
66  108  18  19  1
85  84  118  63  1
81  83  84  85  1
20  58  114  19  1
87  101  86  75  1
25  115  67  24  1
95  121  83  80  1
99  102  92  89  1
57  116  32  3  1
120  91  92  64  1
59  113  14  4  1
62  107  22  23  1
104  123  62  109  1
112  122  58  1  1
103  69  70  86  1
61  108  71  70  1
85  97  96  81  1
91  88  89  92  1
68  116  100  97  1
21  107  112  1  1
66  19  114  119  1
121  67  115  60  1
92  102  117  64  1
105  2  27  118  1
69  16  61  70  1
105  118  84  60  1
31  32  116  68  1
12  65  110  11  1
10  64  117  9  1
26  60  115  25  1
15  16  69  103  1
6  33  27  2  2
33  34  28  27  2
34  35  29  28  2
35  36  30  29  2
36  37  31  30  2
37  38  32  31  2
38  7  3  32  2
7  39  9  3  2
39  40  10  9  2
40  41  11  10  2
41  42  12  11  2
42  43  13  12  2
43  44  14  13  2
44  8  4  14  2
8  45  15  4  2
45  46  16  15  2
46  47  17  16  2
47  48  18  17  2
48  49  19  18  2
49  50  20  19  2
50  5  1  20  2
5  51  21  1  2
51  52  22  21  2
52  53  23  22  2
53  54  24  23  2
54  55  25  24  2
55  56  26  25  2
56  6  2  26  2
End
