MeshVersionFormatted 1
Dimension 
2
Vertices
169
1.750000000000000e-02  0.000000000000000e+00  4
1.225000000000000e-02  0.000000000000000e+00  0
1.237436867076458e-02  1.237436867076458e-02  4
7.636753236814714e-02  7.636753236814714e-02  3
0.000000000000000e+00  1.750000000000000e-02  4
0.000000000000000e+00  1.080000000000000e-01  3
0.000000000000000e+00  0.000000000000000e+00  0
8.750000000000001e-03  8.750000000000001e-03  0
0.000000000000000e+00  1.225000000000000e-02  0
1.080000000000000e-01  0.000000000000000e+00  3
9.200000000000000e-02  0.000000000000000e+00  1
6.505382386916238e-02  6.505382386916238e-02  1
0.000000000000000e+00  9.200000000000000e-02  1
2.000000000000000e+00  0.000000000000000e+00  5
1.414213562373095e+00  1.414213562373095e+00  5
0.000000000000000e+00  2.000000000000000e+00  5
1.487500000000949e-02  0.000000000000000e+00  0
7.071067811864122e-02  7.071067811864122e-02  0
0.000000000000000e+00  9.999999999998102e-02  0
6.125000000016262e-03  0.000000000000000e+00  0
4.132981058750733e-02  9.977898955592186e-02  3
1.616789181196726e-02  6.696960083240899e-03  4
6.696960049254986e-03  1.616789182604469e-02  4
4.375000000011626e-03  1.049999999999535e-02  0
1.049999999999535e-02  4.375000000011626e-03  0
0.000000000000000e+00  6.124999999983751e-03  0
0.000000000000000e+00  1.487499999999254e-02  0
1.056218433537688e-02  1.056218433537688e-02  0
9.999999999998102e-02  0.000000000000000e+00  0
9.977898946387101e-02  4.132981080973778e-02  3
8.499691694945657e-02  3.520687587797562e-02  1
3.520687569114705e-02  8.499691702684349e-02  1
5.474999999989977e-02  0.000000000000000e+00  0
3.871409626988488e-02  3.871409626988488e-02  0
0.000000000000000e+00  5.474999999989977e-02  0
0.000000000000000e+00  2.535384680041680e-01  0
0.000000000000000e+00  6.901538459113578e-01  0
1.792787700174368e-01  1.792787700174368e-01  0
4.880124645059307e-01  4.880124645059307e-01  0
2.535384680041680e-01  0.000000000000000e+00  0
6.901538459113578e-01  0.000000000000000e+00  0
7.653668667688903e-01  1.847759064178112e+00  5
1.847759065723944e+00  7.653668630369230e-01  5
9.238795320664621e-02  3.826834334384937e-02  0
3.826834313931986e-02  9.238795329136507e-02  0
1.333394590598557e-02  5.535980041624476e-03  0
5.535980024629874e-03  1.333394591301184e-02  0
5.250000000011620e-03  5.249999999995363e-03  0
5.058240438061545e-02  2.095191798056604e-02  0
2.095191787015848e-02  5.058240442634686e-02  0
9.702497122964532e-02  2.342390012696447e-01  0
2.641104431659228e-01  6.376190122925827e-01  0
2.342390013035889e-01  9.702497114770837e-02  0
6.376190127044992e-01  2.641104421714785e-01  0
-1.750000000000000e-02  0.000000000000000e+00  4
-1.225000000000000e-02  0.000000000000000e+00  0
-1.237436867076458e-02  1.237436867076458e-02  4
-7.636753236814714e-02  7.636753236814714e-02  3
-8.750000000000001e-03  8.750000000000001e-03  0
-1.080000000000000e-01  0.000000000000000e+00  3
-9.200000000000000e-02  0.000000000000000e+00  1
-6.505382386916238e-02  6.505382386916238e-02  1
-2.000000000000000e+00  0.000000000000000e+00  5
-1.414213562373095e+00  1.414213562373095e+00  5
-1.487500000000949e-02  0.000000000000000e+00  0
-7.071067811864122e-02  7.071067811864122e-02  0
-6.125000000016262e-03  0.000000000000000e+00  0
-4.132981058750733e-02  9.977898955592186e-02  3
-1.616789181196726e-02  6.696960083240899e-03  4
-6.696960049254986e-03  1.616789182604469e-02  4
-4.375000000011626e-03  1.049999999999535e-02  0
-1.049999999999535e-02  4.375000000011626e-03  0
-1.056218433537688e-02  1.056218433537688e-02  0
-9.999999999998102e-02  0.000000000000000e+00  0
-9.977898946387101e-02  4.132981080973778e-02  3
-8.499691694945657e-02  3.520687587797562e-02  1
-3.520687569114705e-02  8.499691702684349e-02  1
-5.474999999989977e-02  0.000000000000000e+00  0
-3.871409626988488e-02  3.871409626988488e-02  0
-1.792787700174368e-01  1.792787700174368e-01  0
-4.880124645059307e-01  4.880124645059307e-01  0
-2.535384680041680e-01  0.000000000000000e+00  0
-6.901538459113578e-01  0.000000000000000e+00  0
-7.653668667688903e-01  1.847759064178112e+00  5
-1.847759065723944e+00  7.653668630369230e-01  5
-9.238795320664621e-02  3.826834334384937e-02  0
-3.826834313931986e-02  9.238795329136507e-02  0
-1.333394590598557e-02  5.535980041624476e-03  0
-5.535980024629874e-03  1.333394591301184e-02  0
-5.250000000011620e-03  5.249999999995363e-03  0
-5.058240438061545e-02  2.095191798056604e-02  0
-2.095191787015848e-02  5.058240442634686e-02  0
-9.702497122964532e-02  2.342390012696447e-01  0
-2.641104431659228e-01  6.376190122925827e-01  0
-2.342390013035889e-01  9.702497114770837e-02  0
-6.376190127044992e-01  2.641104421714785e-01  0
1.237436867076458e-02  -1.237436867076458e-02  4
7.636753236814714e-02  -7.636753236814714e-02  3
0.000000000000000e+00  -1.750000000000000e-02  4
0.000000000000000e+00  -1.080000000000000e-01  3
8.750000000000001e-03  -8.750000000000001e-03  0
0.000000000000000e+00  -1.225000000000000e-02  0
6.505382386916238e-02  -6.505382386916238e-02  1
0.000000000000000e+00  -9.200000000000000e-02  1
1.414213562373095e+00  -1.414213562373095e+00  5
0.000000000000000e+00  -2.000000000000000e+00  5
7.071067811864122e-02  -7.071067811864122e-02  0
0.000000000000000e+00  -9.999999999998102e-02  0
4.132981058750733e-02  -9.977898955592186e-02  3
1.616789181196726e-02  -6.696960083240899e-03  4
6.696960049254986e-03  -1.616789182604469e-02  4
4.375000000011626e-03  -1.049999999999535e-02  0
1.049999999999535e-02  -4.375000000011626e-03  0
0.000000000000000e+00  -6.124999999983751e-03  0
0.000000000000000e+00  -1.487499999999254e-02  0
1.056218433537688e-02  -1.056218433537688e-02  0
9.977898946387101e-02  -4.132981080973778e-02  3
8.499691694945657e-02  -3.520687587797562e-02  1
3.520687569114705e-02  -8.499691702684349e-02  1
3.871409626988488e-02  -3.871409626988488e-02  0
0.000000000000000e+00  -5.474999999989977e-02  0
0.000000000000000e+00  -2.535384680041680e-01  0
0.000000000000000e+00  -6.901538459113578e-01  0
1.792787700174368e-01  -1.792787700174368e-01  0
4.880124645059307e-01  -4.880124645059307e-01  0
7.653668667688903e-01  -1.847759064178112e+00  5
1.847759065723944e+00  -7.653668630369230e-01  5
9.238795320664621e-02  -3.826834334384937e-02  0
3.826834313931986e-02  -9.238795329136507e-02  0
1.333394590598557e-02  -5.535980041624476e-03  0
5.535980024629874e-03  -1.333394591301184e-02  0
5.250000000011620e-03  -5.249999999995363e-03  0
5.058240438061545e-02  -2.095191798056604e-02  0
2.095191787015848e-02  -5.058240442634686e-02  0
9.702497122964532e-02  -2.342390012696447e-01  0
2.641104431659228e-01  -6.376190122925827e-01  0
2.342390013035889e-01  -9.702497114770837e-02  0
6.376190127044992e-01  -2.641104421714785e-01  0
-1.237436867076458e-02  -1.237436867076458e-02  4
-7.636753236814714e-02  -7.636753236814714e-02  3
-8.750000000000001e-03  -8.750000000000001e-03  0
-6.505382386916238e-02  -6.505382386916238e-02  1
-1.414213562373095e+00  -1.414213562373095e+00  5
-7.071067811864122e-02  -7.071067811864122e-02  0
-4.132981058750733e-02  -9.977898955592186e-02  3
-1.616789181196726e-02  -6.696960083240899e-03  4
-6.696960049254986e-03  -1.616789182604469e-02  4
-4.375000000011626e-03  -1.049999999999535e-02  0
-1.049999999999535e-02  -4.375000000011626e-03  0
-1.056218433537688e-02  -1.056218433537688e-02  0
-9.977898946387101e-02  -4.132981080973778e-02  3
-8.499691694945657e-02  -3.520687587797562e-02  1
-3.520687569114705e-02  -8.499691702684349e-02  1
-3.871409626988488e-02  -3.871409626988488e-02  0
-1.792787700174368e-01  -1.792787700174368e-01  0
-4.880124645059307e-01  -4.880124645059307e-01  0
-7.653668667688903e-01  -1.847759064178112e+00  5
-1.847759065723944e+00  -7.653668630369230e-01  5
-9.238795320664621e-02  -3.826834334384937e-02  0
-3.826834313931986e-02  -9.238795329136507e-02  0
-1.333394590598557e-02  -5.535980041624476e-03  0
-5.535980024629874e-03  -1.333394591301184e-02  0
-5.250000000011620e-03  -5.249999999995363e-03  0
-5.058240438061545e-02  -2.095191798056604e-02  0
-2.095191787015848e-02  -5.058240442634686e-02  0
-9.702497122964532e-02  -2.342390012696447e-01  0
-2.641104431659228e-01  -6.376190122925827e-01  0
-2.342390013035889e-01  -9.702497114770837e-02  0
-6.376190127044992e-01  -2.641104421714785e-01  0
Edges
64
4  21  3
98  109  3
58  68  3
140  145  3
6  21  3
100  109  3
6  68  3
100  145  3
1  22  4
1  110  4
55  69  4
55  146  4
3  22  4
97  110  4
57  69  4
139  146  4
3  23  4
97  111  4
57  70  4
139  147  4
5  23  4
99  111  4
5  70  4
99  147  4
10  30  3
10  117  3
60  75  3
60  151  3
4  30  3
98  117  3
58  75  3
140  151  3
11  31  1
11  118  1
61  76  1
61  152  1
12  31  1
103  118  1
62  76  1
142  152  1
12  32  1
103  119  1
62  77  1
142  153  1
13  32  1
104  119  1
13  77  1
104  153  1
16  42  5
106  126  5
16  84  5
106  157  5
15  42  5
105  126  5
64  84  5
143  157  5
15  43  5
105  127  5
64  85  5
143  158  5
14  43  5
14  127  5
63  85  5
63  158  5
Quadrilaterals
160
11  29  44  31  1
31  44  18  12  1
29  10  30  44  1
44  30  4  18  1
12  18  45  32  1
32  45  19  13  1
18  4  21  45  1
45  21  6  19  1
1  22  46  17  2
22  3  28  46  2
17  46  25  2  2
46  28  8  25  2
8  28  47  24  2
28  3  23  47  2
24  47  27  9  2
47  23  5  27  2
7  20  48  26  2
26  48  24  9  2
20  2  25  48  2
48  25  8  24  2
1  33  49  22  3
22  49  34  3  3
33  11  31  49  3
49  31  12  34  3
3  34  50  23  3
23  50  35  5  3
34  12  32  50  3
50  32  13  35  3
6  21  51  36  4
21  4  38  51  4
36  51  52  37  4
51  38  39  52  4
37  52  42  16  4
52  39  15  42  4
10  40  53  30  4
40  41  54  53  4
41  14  43  54  4
30  53  38  4  4
53  54  39  38  4
54  43  15  39  4
61  76  86  74  1
76  62  66  86  1
74  86  75  60  1
86  66  58  75  1
62  77  87  66  1
77  13  19  87  1
66  87  68  58  1
87  19  6  68  1
55  65  88  69  2
69  88  73  57  2
65  56  72  88  2
88  72  59  73  2
59  71  89  73  2
73  89  70  57  2
71  9  27  89  2
89  27  5  70  2
7  26  90  67  2
26  9  71  90  2
67  90  72  56  2
90  71  59  72  2
55  69  91  78  3
69  57  79  91  3
78  91  76  61  3
91  79  62  76  3
57  70  92  79  3
70  5  35  92  3
79  92  77  62  3
92  35  13  77  3
6  36  93  68  4
68  93  80  58  4
36  37  94  93  4
93  94  81  80  4
37  16  84  94  4
94  84  64  81  4
60  75  95  82  4
82  95  96  83  4
83  96  85  63  4
75  58  80  95  4
95  80  81  96  4
96  81  64  85  4
11  118  128  29  1
118  103  107  128  1
29  128  117  10  1
128  107  98  117  1
103  119  129  107  1
119  104  108  129  1
107  129  109  98  1
129  108  100  109  1
1  17  130  110  2
110  130  116  97  2
17  2  113  130  2
130  113  101  116  2
101  112  131  116  2
116  131  111  97  2
112  102  115  131  2
131  115  99  111  2
7  114  132  20  2
114  102  112  132  2
20  132  113  2  2
132  112  101  113  2
1  110  133  33  3
110  97  120  133  3
33  133  118  11  3
133  120  103  118  3
97  111  134  120  3
111  99  121  134  3
120  134  119  103  3
134  121  104  119  3
100  122  135  109  4
109  135  124  98  4
122  123  136  135  4
135  136  125  124  4
123  106  126  136  4
136  126  105  125  4
10  117  137  40  4
40  137  138  41  4
41  138  127  14  4
117  98  124  137  4
137  124  125  138  4
138  125  105  127  4
61  74  159  152  1
152  159  144  142  1
74  60  151  159  1
159  151  140  144  1
142  144  160  153  1
153  160  108  104  1
144  140  145  160  1
160  145  100  108  1
55  146  161  65  2
146  139  150  161  2
65  161  149  56  2
161  150  141  149  2
141  150  162  148  2
150  139  147  162  2
148  162  115  102  2
162  147  99  115  2
7  67  163  114  2
114  163  148  102  2
67  56  149  163  2
163  149  141  148  2
55  78  164  146  3
146  164  154  139  3
78  61  152  164  3
164  152  142  154  3
139  154  165  147  3
147  165  121  99  3
154  142  153  165  3
165  153  104  121  3
100  145  166  122  4
145  140  155  166  4
122  166  167  123  4
166  155  156  167  4
123  167  157  106  4
167  156  143  157  4
60  82  168  151  4
82  83  169  168  4
83  63  158  169  4
151  168  155  140  4
168  169  156  155  4
169  158  143  156  4
End
