MeshVersionFormatted 1
Dimension 
2
Vertices
169
2.000000000000000e-02  0.000000000000000e+00  4
1.400000000000000e-02  0.000000000000000e+00  0
1.414213562373095e-02  1.414213562373095e-02  4
1.414213562373095e-01  1.414213562373095e-01  3
0.000000000000000e+00  2.000000000000000e-02  4
0.000000000000000e+00  2.000000000000000e-01  3
0.000000000000000e+00  0.000000000000000e+00  0
1.000000000000000e-02  1.000000000000000e-02  0
0.000000000000000e+00  1.400000000000000e-02  0
2.000000000000000e-01  0.000000000000000e+00  3
1.700000000000745e-02  0.000000000000000e+00  0
5.656854249482228e-02  5.656854249482228e-02  0
9.899494936601225e-02  9.899494936601225e-02  0
0.000000000000000e+00  7.999999999985272e-02  0
0.000000000000000e+00  1.399999999998441e-01  0
9.333333333345319e-03  0.000000000000000e+00  0
4.666666666678542e-03  0.000000000000000e+00  0
1.000000000001011e-01  1.732050807568294e-01  3
5.176380902061181e-02  1.931851652577849e-01  3
1.931851652578426e-02  5.176380902039628e-03  4
1.732050807569589e-02  9.999999999987682e-03  4
1.000000000001038e-02  1.732050807568278e-02  4
5.176380902058774e-03  1.931851652577913e-02  4
6.666666666675414e-03  1.133333333332983e-02  0
3.333333333342236e-03  1.266666666666310e-02  0
1.133333333332983e-02  6.666666666675414e-03  0
1.266666666666310e-02  3.333333333342236e-03  0
0.000000000000000e+00  4.666666666654887e-03  0
0.000000000000000e+00  9.333333333321569e-03  0
0.000000000000000e+00  1.699999999999221e-02  0
1.207106781186005e-02  1.207106781186005e-02  0
7.999999999985272e-02  0.000000000000000e+00  0
1.399999999998441e-01  0.000000000000000e+00  0
1.931851652578507e-01  5.176380902036606e-02  3
1.732050807569577e-01  9.999999999987885e-02  3
7.727406610299833e-02  2.070552360811120e-02  0
6.928203230265732e-02  3.999999999987950e-02  0
1.352296156803466e-01  3.623466631421884e-02  0
1.212435565297393e-01  6.999999999984104e-02  0
3.999999999996881e-02  6.928203230260607e-02  0
2.070552360820595e-02  7.727406610297323e-02  0
6.999999999999702e-02  1.212435565296499e-01  0
3.623466631438924e-02  1.352296156803015e-01  0
1.599259159622841e-02  4.254857117689699e-03  0
1.432692070451325e-02  8.333333333328643e-03  0
8.333333333338536e-03  1.432692070449850e-02  0
4.254857117698097e-03  1.599259159621247e-02  0
4.222222222231919e-03  4.222222222216149e-03  0
3.777777777786505e-03  8.444444444437142e-03  0
8.444444444452977e-03  3.777777777778620e-03  0
7.555555555563051e-03  7.555555555555133e-03  0
-2.000000000000000e-02  0.000000000000000e+00  4
-1.400000000000000e-02  0.000000000000000e+00  0
-1.414213562373095e-02  1.414213562373095e-02  4
-1.414213562373095e-01  1.414213562373095e-01  3
-1.000000000000000e-02  1.000000000000000e-02  0
-2.000000000000000e-01  0.000000000000000e+00  3
-1.700000000000745e-02  0.000000000000000e+00  0
-5.656854249482228e-02  5.656854249482228e-02  0
-9.899494936601225e-02  9.899494936601225e-02  0
-9.333333333345319e-03  0.000000000000000e+00  0
-4.666666666678542e-03  0.000000000000000e+00  0
-1.000000000001011e-01  1.732050807568294e-01  3
-5.176380902061181e-02  1.931851652577849e-01  3
-1.931851652578426e-02  5.176380902039628e-03  4
-1.732050807569589e-02  9.999999999987682e-03  4
-1.000000000001038e-02  1.732050807568278e-02  4
-5.176380902058774e-03  1.931851652577913e-02  4
-6.666666666675414e-03  1.133333333332983e-02  0
-3.333333333342236e-03  1.266666666666310e-02  0
-1.133333333332983e-02  6.666666666675414e-03  0
-1.266666666666310e-02  3.333333333342236e-03  0
-1.207106781186005e-02  1.207106781186005e-02  0
-7.999999999985272e-02  0.000000000000000e+00  0
-1.399999999998441e-01  0.000000000000000e+00  0
-1.931851652578507e-01  5.176380902036606e-02  3
-1.732050807569577e-01  9.999999999987885e-02  3
-7.727406610299833e-02  2.070552360811120e-02  0
-6.928203230265732e-02  3.999999999987950e-02  0
-1.352296156803466e-01  3.623466631421884e-02  0
-1.212435565297393e-01  6.999999999984104e-02  0
-3.999999999996881e-02  6.928203230260607e-02  0
-2.070552360820595e-02  7.727406610297323e-02  0
-6.999999999999702e-02  1.212435565296499e-01  0
-3.623466631438924e-02  1.352296156803015e-01  0
-1.599259159622841e-02  4.254857117689699e-03  0
-1.432692070451325e-02  8.333333333328643e-03  0
-8.333333333338536e-03  1.432692070449850e-02  0
-4.254857117698097e-03  1.599259159621247e-02  0
-4.222222222231919e-03  4.222222222216149e-03  0
-3.777777777786505e-03  8.444444444437142e-03  0
-8.444444444452977e-03  3.777777777778620e-03  0
-7.555555555563051e-03  7.555555555555133e-03  0
1.414213562373095e-02  -1.414213562373095e-02  4
1.414213562373095e-01  -1.414213562373095e-01  3
0.000000000000000e+00  -2.000000000000000e-02  4
0.000000000000000e+00  -2.000000000000000e-01  3
1.000000000000000e-02  -1.000000000000000e-02  0
0.000000000000000e+00  -1.400000000000000e-02  0
5.656854249482228e-02  -5.656854249482228e-02  0
9.899494936601225e-02  -9.899494936601225e-02  0
0.000000000000000e+00  -7.999999999985272e-02  0
0.000000000000000e+00  -1.399999999998441e-01  0
1.000000000001011e-01  -1.732050807568294e-01  3
5.176380902061181e-02  -1.931851652577849e-01  3
1.931851652578426e-02  -5.176380902039628e-03  4
1.732050807569589e-02  -9.999999999987682e-03  4
1.000000000001038e-02  -1.732050807568278e-02  4
5.176380902058774e-03  -1.931851652577913e-02  4
6.666666666675414e-03  -1.133333333332983e-02  0
3.333333333342236e-03  -1.266666666666310e-02  0
1.133333333332983e-02  -6.666666666675414e-03  0
1.266666666666310e-02  -3.333333333342236e-03  0
0.000000000000000e+00  -4.666666666654887e-03  0
0.000000000000000e+00  -9.333333333321569e-03  0
0.000000000000000e+00  -1.699999999999221e-02  0
1.207106781186005e-02  -1.207106781186005e-02  0
1.931851652578507e-01  -5.176380902036606e-02  3
1.732050807569577e-01  -9.999999999987885e-02  3
7.727406610299833e-02  -2.070552360811120e-02  0
6.928203230265732e-02  -3.999999999987950e-02  0
1.352296156803466e-01  -3.623466631421884e-02  0
1.212435565297393e-01  -6.999999999984104e-02  0
3.999999999996881e-02  -6.928203230260607e-02  0
2.070552360820595e-02  -7.727406610297323e-02  0
6.999999999999702e-02  -1.212435565296499e-01  0
3.623466631438924e-02  -1.352296156803015e-01  0
1.599259159622841e-02  -4.254857117689699e-03  0
1.432692070451325e-02  -8.333333333328643e-03  0
8.333333333338536e-03  -1.432692070449850e-02  0
4.254857117698097e-03  -1.599259159621247e-02  0
4.222222222231919e-03  -4.222222222216149e-03  0
3.777777777786505e-03  -8.444444444437142e-03  0
8.444444444452977e-03  -3.777777777778620e-03  0
7.555555555563051e-03  -7.555555555555133e-03  0
-1.414213562373095e-02  -1.414213562373095e-02  4
-1.414213562373095e-01  -1.414213562373095e-01  3
-1.000000000000000e-02  -1.000000000000000e-02  0
-5.656854249482228e-02  -5.656854249482228e-02  0
-9.899494936601225e-02  -9.899494936601225e-02  0
-1.000000000001011e-01  -1.732050807568294e-01  3
-5.176380902061181e-02  -1.931851652577849e-01  3
-1.931851652578426e-02  -5.176380902039628e-03  4
-1.732050807569589e-02  -9.999999999987682e-03  4
-1.000000000001038e-02  -1.732050807568278e-02  4
-5.176380902058774e-03  -1.931851652577913e-02  4
-6.666666666675414e-03  -1.133333333332983e-02  0
-3.333333333342236e-03  -1.266666666666310e-02  0
-1.133333333332983e-02  -6.666666666675414e-03  0
-1.266666666666310e-02  -3.333333333342236e-03  0
-1.207106781186005e-02  -1.207106781186005e-02  0
-1.931851652578507e-01  -5.176380902036606e-02  3
-1.732050807569577e-01  -9.999999999987885e-02  3
-7.727406610299833e-02  -2.070552360811120e-02  0
-6.928203230265732e-02  -3.999999999987950e-02  0
-1.352296156803466e-01  -3.623466631421884e-02  0
-1.212435565297393e-01  -6.999999999984104e-02  0
-3.999999999996881e-02  -6.928203230260607e-02  0
-2.070552360820595e-02  -7.727406610297323e-02  0
-6.999999999999702e-02  -1.212435565296499e-01  0
-3.623466631438924e-02  -1.352296156803015e-01  0
-1.599259159622841e-02  -4.254857117689699e-03  0
-1.432692070451325e-02  -8.333333333328643e-03  0
-8.333333333338536e-03  -1.432692070449850e-02  0
-4.254857117698097e-03  -1.599259159621247e-02  0
-4.222222222231919e-03  -4.222222222216149e-03  0
-3.777777777786505e-03  -8.444444444437142e-03  0
-8.444444444452977e-03  -3.777777777778620e-03  0
-7.555555555563051e-03  -7.555555555555133e-03  0
Edges
48
4  18  3
95  104  3
55  63  3
137  141  3
18  19  3
104  105  3
63  64  3
141  142  3
6  19  3
97  105  3
6  64  3
97  142  3
1  20  4
1  106  4
52  65  4
52  143  4
20  21  4
106  107  4
65  66  4
143  144  4
3  21  4
94  107  4
54  66  4
136  144  4
3  22  4
94  108  4
54  67  4
136  145  4
22  23  4
108  109  4
67  68  4
145  146  4
5  23  4
96  109  4
5  68  4
96  146  4
10  34  3
10  118  3
57  76  3
57  152  3
34  35  3
118  119  3
76  77  3
152  153  3
4  35  3
95  119  3
55  77  3
137  153  3
Quadrilaterals
156
1  32  36  20  1
20  36  37  21  1
21  37  12  3  1
32  33  38  36  1
36  38  39  37  1
37  39  13  12  1
33  10  34  38  1
38  34  35  39  1
39  35  4  13  1
3  12  40  22  1
22  40  41  23  1
23  41  14  5  1
12  13  42  40  1
40  42  43  41  1
41  43  15  14  1
13  4  18  42  1
42  18  19  43  1
43  19  6  15  1
1  20  44  11  2
20  21  45  44  2
21  3  31  45  2
11  44  27  2  2
44  45  26  27  2
45  31  8  26  2
8  31  46  24  2
31  3  22  46  2
24  46  47  25  2
46  22  23  47  2
25  47  30  9  2
47  23  5  30  2
7  17  48  28  2
28  48  49  29  2
29  49  25  9  2
17  16  50  48  2
48  50  51  49  2
49  51  24  25  2
16  2  27  50  2
50  27  26  51  2
51  26  8  24  2
52  65  78  74  1
65  66  79  78  1
66  54  59  79  1
74  78  80  75  1
78  79  81  80  1
79  59  60  81  1
75  80  76  57  1
80  81  77  76  1
81  60  55  77  1
54  67  82  59  1
67  68  83  82  1
68  5  14  83  1
59  82  84  60  1
82  83  85  84  1
83  14  15  85  1
60  84  63  55  1
84  85  64  63  1
85  15  6  64  1
52  58  86  65  2
65  86  87  66  2
66  87  73  54  2
58  53  72  86  2
86  72  71  87  2
87  71  56  73  2
56  69  88  73  2
73  88  67  54  2
69  70  89  88  2
88  89  68  67  2
70  9  30  89  2
89  30  5  68  2
7  28  90  62  2
28  29  91  90  2
29  9  70  91  2
62  90  92  61  2
90  91  93  92  2
91  70  69  93  2
61  92  72  53  2
92  93  71  72  2
93  69  56  71  2
1  106  120  32  1
106  107  121  120  1
107  94  100  121  1
32  120  122  33  1
120  121  123  122  1
121  100  101  123  1
33  122  118  10  1
122  123  119  118  1
123  101  95  119  1
94  108  124  100  1
108  109  125  124  1
109  96  102  125  1
100  124  126  101  1
124  125  127  126  1
125  102  103  127  1
101  126  104  95  1
126  127  105  104  1
127  103  97  105  1
1  11  128  106  2
106  128  129  107  2
107  129  117  94  2
11  2  113  128  2
128  113  112  129  2
129  112  98  117  2
98  110  130  117  2
117  130  108  94  2
110  111  131  130  2
130  131  109  108  2
111  99  116  131  2
131  116  96  109  2
7  114  132  17  2
114  115  133  132  2
115  99  111  133  2
17  132  134  16  2
132  133  135  134  2
133  111  110  135  2
16  134  113  2  2
134  135  112  113  2
135  110  98  112  2
52  74  154  143  1
143  154  155  144  1
144  155  139  136  1
74  75  156  154  1
154  156  157  155  1
155  157  140  139  1
75  57  152  156  1
156  152  153  157  1
157  153  137  140  1
136  139  158  145  1
145  158  159  146  1
146  159  102  96  1
139  140  160  158  1
158  160  161  159  1
159  161  103  102  1
140  137  141  160  1
160  141  142  161  1
161  142  97  103  1
52  143  162  58  2
143  144  163  162  2
144  136  151  163  2
58  162  150  53  2
162  163  149  150  2
163  151  138  149  2
138  151  164  147  2
151  136  145  164  2
147  164  165  148  2
164  145  146  165  2
148  165  116  99  2
165  146  96  116  2
7  62  166  114  2
114  166  167  115  2
115  167  148  99  2
62  61  168  166  2
166  168  169  167  2
167  169  147  148  2
61  53  150  168  2
168  150  149  169  2
169  149  138  147  2
End
