MeshVersionFormatted 1
Dimension 
2
Vertices
137
1.750000000000000e-02  0.000000000000000e+00  4
1.225000000000000e-02  0.000000000000000e+00  0
1.237436867076458e-02  1.237436867076458e-02  4
1.414213562373095e+00  1.414213562373095e+00  3
0.000000000000000e+00  1.750000000000000e-02  4
0.000000000000000e+00  2.000000000000000e+00  3
0.000000000000000e+00  0.000000000000000e+00  0
8.750000000000001e-03  8.750000000000001e-03  0
0.000000000000000e+00  1.225000000000000e-02  0
2.000000000000000e+00  0.000000000000000e+00  3
1.000000000000000e-01  0.000000000000000e+00  1
7.071067811865477e-02  7.071067811865477e-02  1
0.000000000000000e+00  1.000000000000000e-01  1
1.487500000000949e-02  0.000000000000000e+00  0
1.740570584218488e-01  1.740570584218488e-01  0
4.840961807940519e-01  4.840961807940519e-01  0
0.000000000000000e+00  2.461538526469199e-01  0
0.000000000000000e+00  6.846153843718733e-01  0
6.125000000016262e-03  0.000000000000000e+00  0
7.653668630369230e-01  1.847759065723944e+00  3
1.616789181196726e-02  6.696960083240899e-03  4
6.696960049254986e-03  1.616789182604469e-02  4
4.375000000011626e-03  1.049999999999535e-02  0
1.049999999999535e-02  4.375000000011626e-03  0
0.000000000000000e+00  6.124999999983751e-03  0
0.000000000000000e+00  1.487499999999254e-02  0
1.056218433537688e-02  1.056218433537688e-02  0
2.461538526469199e-01  0.000000000000000e+00  0
6.846153843718733e-01  0.000000000000000e+00  0
1.847759064178112e+00  7.653668667688903e-01  3
9.238795320591242e-02  3.826834334567067e-02  1
3.826834314736359e-02  9.238795328805392e-02  1
5.874999999989839e-02  0.000000000000000e+00  0
4.154252339464462e-02  4.154252339464462e-02  0
0.000000000000000e+00  5.874999999989839e-02  0
2.274165062026006e-01  9.419900147841118e-02  0
6.325021409724160e-01  2.619909658442756e-01  0
9.419900100828482e-02  2.274165063973354e-01  0
2.619909645586911e-01  6.325021415049301e-01  0
1.333394590598557e-02  5.535980041624476e-03  0
5.535980024629874e-03  1.333394591301184e-02  0
5.250000000011620e-03  5.249999999995363e-03  0
5.427792250884936e-02  2.248265171442029e-02  0
2.248265159827408e-02  5.427792255695951e-02  0
-1.750000000000000e-02  0.000000000000000e+00  4
-1.225000000000000e-02  0.000000000000000e+00  0
-1.237436867076458e-02  1.237436867076458e-02  4
-1.414213562373095e+00  1.414213562373095e+00  3
-8.750000000000001e-03  8.750000000000001e-03  0
-2.000000000000000e+00  0.000000000000000e+00  3
-1.000000000000000e-01  0.000000000000000e+00  1
-7.071067811865477e-02  7.071067811865477e-02  1
-1.487500000000949e-02  0.000000000000000e+00  0
-1.740570584218488e-01  1.740570584218488e-01  0
-4.840961807940519e-01  4.840961807940519e-01  0
-6.125000000016262e-03  0.000000000000000e+00  0
-7.653668630369230e-01  1.847759065723944e+00  3
-1.616789181196726e-02  6.696960083240899e-03  4
-6.696960049254986e-03  1.616789182604469e-02  4
-4.375000000011626e-03  1.049999999999535e-02  0
-1.049999999999535e-02  4.375000000011626e-03  0
-1.056218433537688e-02  1.056218433537688e-02  0
-2.461538526469199e-01  0.000000000000000e+00  0
-6.846153843718733e-01  0.000000000000000e+00  0
-1.847759064178112e+00  7.653668667688903e-01  3
-9.238795320591242e-02  3.826834334567067e-02  1
-3.826834314736359e-02  9.238795328805392e-02  1
-5.874999999989839e-02  0.000000000000000e+00  0
-4.154252339464462e-02  4.154252339464462e-02  0
-2.274165062026006e-01  9.419900147841118e-02  0
-6.325021409724160e-01  2.619909658442756e-01  0
-9.419900100828482e-02  2.274165063973354e-01  0
-2.619909645586911e-01  6.325021415049301e-01  0
-1.333394590598557e-02  5.535980041624476e-03  0
-5.535980024629874e-03  1.333394591301184e-02  0
-5.250000000011620e-03  5.249999999995363e-03  0
-5.427792250884936e-02  2.248265171442029e-02  0
-2.248265159827408e-02  5.427792255695951e-02  0
1.237436867076458e-02  -1.237436867076458e-02  4
1.414213562373095e+00  -1.414213562373095e+00  3
0.000000000000000e+00  -1.750000000000000e-02  4
0.000000000000000e+00  -2.000000000000000e+00  3
8.750000000000001e-03  -8.750000000000001e-03  0
0.000000000000000e+00  -1.225000000000000e-02  0
7.071067811865477e-02  -7.071067811865477e-02  1
0.000000000000000e+00  -1.000000000000000e-01  1
1.740570584218488e-01  -1.740570584218488e-01  0
4.840961807940519e-01  -4.840961807940519e-01  0
0.000000000000000e+00  -2.461538526469199e-01  0
0.000000000000000e+00  -6.846153843718733e-01  0
7.653668630369230e-01  -1.847759065723944e+00  3
1.616789181196726e-02  -6.696960083240899e-03  4
6.696960049254986e-03  -1.616789182604469e-02  4
4.375000000011626e-03  -1.049999999999535e-02  0
1.049999999999535e-02  -4.375000000011626e-03  0
0.000000000000000e+00  -6.124999999983751e-03  0
0.000000000000000e+00  -1.487499999999254e-02  0
1.056218433537688e-02  -1.056218433537688e-02  0
1.847759064178112e+00  -7.653668667688903e-01  3
9.238795320591242e-02  -3.826834334567067e-02  1
3.826834314736359e-02  -9.238795328805392e-02  1
4.154252339464462e-02  -4.154252339464462e-02  0
0.000000000000000e+00  -5.874999999989839e-02  0
2.274165062026006e-01  -9.419900147841118e-02  0
6.325021409724160e-01  -2.619909658442756e-01  0
9.419900100828482e-02  -2.274165063973354e-01  0
2.619909645586911e-01  -6.325021415049301e-01  0
1.333394590598557e-02  -5.535980041624476e-03  0
5.535980024629874e-03  -1.333394591301184e-02  0
5.250000000011620e-03  -5.249999999995363e-03  0
5.427792250884936e-02  -2.248265171442029e-02  0
2.248265159827408e-02  -5.427792255695951e-02  0
-1.237436867076458e-02  -1.237436867076458e-02  4
-1.414213562373095e+00  -1.414213562373095e+00  3
-8.750000000000001e-03  -8.750000000000001e-03  0
-7.071067811865477e-02  -7.071067811865477e-02  1
-1.740570584218488e-01  -1.740570584218488e-01  0
-4.840961807940519e-01  -4.840961807940519e-01  0
-7.653668630369230e-01  -1.847759065723944e+00  3
-1.616789181196726e-02  -6.696960083240899e-03  4
-6.696960049254986e-03  -1.616789182604469e-02  4
-4.375000000011626e-03  -1.049999999999535e-02  0
-1.049999999999535e-02  -4.375000000011626e-03  0
-1.056218433537688e-02  -1.056218433537688e-02  0
-1.847759064178112e+00  -7.653668667688903e-01  3
-9.238795320591242e-02  -3.826834334567067e-02  1
-3.826834314736359e-02  -9.238795328805392e-02  1
-4.154252339464462e-02  -4.154252339464462e-02  0
-2.274165062026006e-01  -9.419900147841118e-02  0
-6.325021409724160e-01  -2.619909658442756e-01  0
-9.419900100828482e-02  -2.274165063973354e-01  0
-2.619909645586911e-01  -6.325021415049301e-01  0
-1.333394590598557e-02  -5.535980041624476e-03  0
-5.535980024629874e-03  -1.333394591301184e-02  0
-5.250000000011620e-03  -5.249999999995363e-03  0
-5.427792250884936e-02  -2.248265171442029e-02  0
-2.248265159827408e-02  -5.427792255695951e-02  0
Edges
48
4  20  3
80  91  3
48  57  3
114  119  3
6  20  3
82  91  3
6  57  3
82  119  3
1  21  4
1  92  4
45  58  4
45  120  4
3  21  4
79  92  4
47  58  4
113  120  4
3  22  4
79  93  4
47  59  4
113  121  4
5  22  4
81  93  4
5  59  4
81  121  4
10  30  3
10  99  3
50  65  3
50  125  3
4  30  3
80  99  3
48  65  3
114  125  3
11  31  1
11  100  1
51  66  1
51  126  1
12  31  1
85  100  1
52  66  1
116  126  1
12  32  1
85  101  1
52  67  1
116  127  1
13  32  1
86  101  1
13  67  1
86  127  1
Quadrilaterals
128
11  28  36  31  1
31  36  15  12  1
28  29  37  36  1
36  37  16  15  1
29  10  30  37  1
37  30  4  16  1
12  15  38  32  1
32  38  17  13  1
15  16  39  38  1
38  39  18  17  1
16  4  20  39  1
39  20  6  18  1
1  21  40  14  2
21  3  27  40  2
14  40  24  2  2
40  27  8  24  2
8  27  41  23  2
27  3  22  41  2
23  41  26  9  2
41  22  5  26  2
7  19  42  25  2
25  42  23  9  2
19  2  24  42  2
42  24  8  23  2
1  33  43  21  3
21  43  34  3  3
33  11  31  43  3
43  31  12  34  3
3  34  44  22  3
22  44  35  5  3
34  12  32  44  3
44  32  13  35  3
51  66  70  63  1
66  52  54  70  1
63  70  71  64  1
70  54  55  71  1
64  71  65  50  1
71  55  48  65  1
52  67  72  54  1
67  13  17  72  1
54  72  73  55  1
72  17  18  73  1
55  73  57  48  1
73  18  6  57  1
45  53  74  58  2
58  74  62  47  2
53  46  61  74  2
74  61  49  62  2
49  60  75  62  2
62  75  59  47  2
60  9  26  75  2
75  26  5  59  2
7  25  76  56  2
25  9  60  76  2
56  76  61  46  2
76  60  49  61  2
45  58  77  68  3
58  47  69  77  3
68  77  66  51  3
77  69  52  66  3
47  59  78  69  3
59  5  35  78  3
69  78  67  52  3
78  35  13  67  3
11  100  104  28  1
100  85  87  104  1
28  104  105  29  1
104  87  88  105  1
29  105  99  10  1
105  88  80  99  1
85  101  106  87  1
101  86  89  106  1
87  106  107  88  1
106  89  90  107  1
88  107  91  80  1
107  90  82  91  1
1  14  108  92  2
92  108  98  79  2
14  2  95  108  2
108  95  83  98  2
83  94  109  98  2
98  109  93  79  2
94  84  97  109  2
109  97  81  93  2
7  96  110  19  2
96  84  94  110  2
19  110  95  2  2
110  94  83  95  2
1  92  111  33  3
92  79  102  111  3
33  111  100  11  3
111  102  85  100  3
79  93  112  102  3
93  81  103  112  3
102  112  101  85  3
112  103  86  101  3
51  63  129  126  1
126  129  117  116  1
63  64  130  129  1
129  130  118  117  1
64  50  125  130  1
130  125  114  118  1
116  117  131  127  1
127  131  89  86  1
117  118  132  131  1
131  132  90  89  1
118  114  119  132  1
132  119  82  90  1
45  120  133  53  2
120  113  124  133  2
53  133  123  46  2
133  124  115  123  2
115  124  134  122  2
124  113  121  134  2
122  134  97  84  2
134  121  81  97  2
7  56  135  96  2
96  135  122  84  2
56  46  123  135  2
135  123  115  122  2
45  68  136  120  3
120  136  128  113  3
68  51  126  136  3
136  126  116  128  3
113  128  137  121  3
121  137  103  81  3
128  116  127  137  3
137  127  86  103  3
End
