MeshVersionFormatted 1
Dimension 
2
Vertices
649
2.000000000000000e+00  0.000000000000000e+00  5
-2.000000000000000e+00  0.000000000000000e+00  5
1.080000000000000e-01  0.000000000000000e+00  3
-1.080000000000000e-01  0.000000000000000e+00  3
9.200000000000000e-02  0.000000000000000e+00  2
-9.200000000000000e-02  0.000000000000000e+00  2
1.750000000000000e-02  0.000000000000000e+00  1
-1.750000000000000e-02  0.000000000000000e+00  1
1.956295201280964e+00  4.158233825136267e-01  5
1.827090914402621e+00  8.134732881339100e-01  5
1.618033986720288e+00  1.175570507378460e+00  5
1.338261209095946e+00  1.486289654215846e+00  5
9.999999947586812e-01  1.732050810594954e+00  5
6.180339817055022e-01  1.902113034879169e+00  5
2.090569179398409e-01  1.989043791639967e+00  5
-2.090569352050800e-01  1.989043789825317e+00  5
-6.180339958584891e-01  1.902113030280585e+00  5
-1.000000005565291e+00  1.732050804355755e+00  5
-1.338261216662049e+00  1.486289647403296e+00  5
-1.618033990917734e+00  1.175570501601172e+00  5
-1.827090916347041e+00  8.134732837666709e-01  5
-1.956295201717714e+00  4.158233804588779e-01  5
-1.956295201280964e+00  -4.158233825136267e-01  5
-1.827090914402621e+00  -8.134732881339100e-01  5
-1.618033986720288e+00  -1.175570507378460e+00  5
-1.338261209095946e+00  -1.486289654215846e+00  5
-9.999999947586812e-01  -1.732050810594954e+00  5
-6.180339817055022e-01  -1.902113034879169e+00  5
-2.090569179398409e-01  -1.989043791639967e+00  5
2.090569352050800e-01  -1.989043789825317e+00  5
6.180339958584891e-01  -1.902113030280585e+00  5
1.000000005565291e+00  -1.732050804355755e+00  5
1.338261216662049e+00  -1.486289647403296e+00  5
1.618033990917734e+00  -1.175570501601172e+00  5
1.827090916347041e+00  -8.134732837666709e-01  5
1.956295201717714e+00  -4.158233804588779e-01  5
1.056399408690049e-01  2.245446265652199e-02  3
9.866290937757582e-02  4.392755755960327e-02  3
8.737383528336315e-02  6.348080739779326e-02  3
7.226610529566665e-02  8.025964132361682e-02  3
5.399999972392212e-02  9.353074376811302e-02  3
3.337383501895437e-02  1.027141038812471e-01  3
1.128907357231480e-02  1.074083647481837e-01  3
-1.128907449734673e-02  1.074083646509589e-01  3
-3.337383577096231e-02  1.027141036369049e-01  3
-5.400000029815233e-02  9.353074343658105e-02  3
-7.226610569634782e-02  8.025964096284187e-02  3
-8.737383550931349e-02  6.348080708679929e-02  3
-9.866290948158377e-02  4.392755732599764e-02  3
-1.056399408928465e-01  2.245446254435648e-02  3
-1.056399408690049e-01  -2.245446265652199e-02  3
-9.866290937757582e-02  -4.392755755960327e-02  3
-8.737383528336315e-02  -6.348080739779326e-02  3
-7.226610529566665e-02  -8.025964132361682e-02  3
-5.399999972392212e-02  -9.353074376811302e-02  3
-3.337383501895437e-02  -1.027141038812471e-01  3
-1.128907357231480e-02  -1.074083647481837e-01  3
1.128907449734673e-02  -1.074083646509589e-01  3
3.337383577096231e-02  -1.027141036369049e-01  3
5.400000029815233e-02  -9.353074343658105e-02  3
7.226610569634782e-02  -8.025964096284187e-02  3
8.737383550931349e-02  -6.348080708679929e-02  3
9.866290948158377e-02  -4.392755732599764e-02  3
1.056399408928465e-01  -2.245446254435648e-02  3
8.998957925866095e-02  1.912787559686590e-02  2
8.404618206319081e-02  3.741977125265442e-02  2
7.442956339178970e-02  5.407624333575287e-02  2
6.156001562285787e-02  6.836932408992717e-02  2
4.599999976145261e-02  7.967433728589375e-02  2
2.842956316055132e-02  8.749719960376003e-02  2
9.616618227208797e-03  9.149601441523075e-02  2
-9.616619016605344e-03  9.149601433226184e-02  2
-2.842956380639219e-02  8.749719939391359e-02  2
-4.600000025204756e-02  7.967433700264862e-02  2
-6.156001596521964e-02  6.836932378166324e-02  2
-7.442956358147984e-02  5.407624307466682e-02  2
-8.404618215084650e-02  3.741977105577653e-02  2
-8.998957927893841e-02  1.912787550146797e-02  2
-8.998957925866095e-02  -1.912787559686590e-02  2
-8.404618206319081e-02  -3.741977125265442e-02  2
-7.442956339178970e-02  -5.407624333575287e-02  2
-6.156001562285787e-02  -6.836932408992717e-02  2
-4.599999976145261e-02  -7.967433728589375e-02  2
-2.842956316055132e-02  -8.749719960376003e-02  2
-9.616618227208797e-03  -9.149601441523075e-02  2
9.616619016605344e-03  -9.149601433226184e-02  2
2.842956380639219e-02  -8.749719939391359e-02  2
4.600000025204756e-02  -7.967433700264862e-02  2
6.156001596521964e-02  -6.836932378166324e-02  2
7.442956358147984e-02  -5.407624307466682e-02  2
8.404618215084650e-02  -3.741977105577653e-02  2
8.998957927893841e-02  -1.912787550146797e-02  2
1.711758301111951e-02  3.638454597412564e-03  1
1.598704550090098e-02  7.117891271445628e-03  1
1.415779738412539e-02  1.028624193911714e-02  1
1.170978557986610e-02  1.300503447413962e-02  1
8.749999955123124e-03  1.515544459213736e-02  1
5.407797341939403e-03  1.664348905453761e-02  1
1.829248033582358e-03  1.740413317668062e-02  1
-1.829248181540938e-03  1.740413316112955e-02  1
-5.407797462749555e-03  1.664348901528401e-02  1
-8.750000047015236e-03  1.515544453908342e-02  1
-1.170978564424818e-02  1.300503441616973e-02  1
-1.415779741993592e-02  1.028624188982818e-02  1
-1.598704551783211e-02  7.117891233417686e-03  1
-1.711758301501063e-02  3.638454579106319e-03  1
-1.711758301111951e-02  -3.638454597412564e-03  1
-1.598704550090098e-02  -7.117891271445628e-03  1
-1.415779738412539e-02  -1.028624193911714e-02  1
-1.170978557986610e-02  -1.300503447413962e-02  1
-8.749999955123124e-03  -1.515544459213736e-02  1
-5.407797341939403e-03  -1.664348905453761e-02  1
-1.829248033582358e-03  -1.740413317668062e-02  1
1.829248181540938e-03  -1.740413316112955e-02  1
5.407797462749555e-03  -1.664348901528401e-02  1
8.750000047015236e-03  -1.515544453908342e-02  1
1.170978564424818e-02  -1.300503441616973e-02  1
1.415779741993592e-02  -1.028624188982818e-02  1
1.598704551783211e-02  -7.117891233417686e-03  1
1.711758301501063e-02  -3.638454579106319e-03  1
1.789777777778153e+00  0.000000000000000e+00  0
1.579555555556567e+00  0.000000000000000e+00  0
1.369333333334894e+00  0.000000000000000e+00  0
1.159111111113308e+00  0.000000000000000e+00  0
9.488888888909270e-01  0.000000000000000e+00  0
7.386666666681558e-01  0.000000000000000e+00  0
5.284444444455094e-01  0.000000000000000e+00  0
3.182222222228293e-01  0.000000000000000e+00  0
1.047999999999870e-01  0.000000000000000e+00  0
1.015999999999799e-01  0.000000000000000e+00  0
9.840000000002602e-02  0.000000000000000e+00  0
9.520000000001301e-02  0.000000000000000e+00  0
7.337500000003858e-02  0.000000000000000e+00  0
5.475000000010020e-02  0.000000000000000e+00  0
3.612500000005212e-02  0.000000000000000e+00  0
-1.789777777778153e+00  0.000000000000000e+00  0
-1.579555555556567e+00  0.000000000000000e+00  0
-1.369333333334894e+00  0.000000000000000e+00  0
-1.159111111113308e+00  0.000000000000000e+00  0
-9.488888888909270e-01  0.000000000000000e+00  0
-7.386666666681558e-01  0.000000000000000e+00  0
-5.284444444455094e-01  0.000000000000000e+00  0
-3.182222222228293e-01  0.000000000000000e+00  0
-1.047999999999870e-01  0.000000000000000e+00  0
-1.015999999999799e-01  0.000000000000000e+00  0
-9.840000000002602e-02  0.000000000000000e+00  0
-9.520000000001301e-02  0.000000000000000e+00  0
-7.337500000003858e-02  0.000000000000000e+00  0
-5.475000000010020e-02  0.000000000000000e+00  0
-3.612500000005212e-02  0.000000000000000e+00  0
1.750666839404207e+00  -3.721157229128980e-01  0
1.635043360028999e+00  -7.279682030511933e-01  0
1.447960640317102e+00  -1.052004979988684e+00  0
1.197595093221667e+00  -1.330064091132413e+00  0
8.948888938691304e-01  -1.549993019809505e+00  0
5.530717558488799e-01  -1.702179816209422e+00  0
1.870827284598157e-01  -1.779973187028539e+00  0
-1.870827130101551e-01  -1.779973188652364e+00  0
-5.530717431848905e-01  -1.702179820324202e+00  0
-8.948888841994512e-01  -1.549993025392297e+00  0
-1.197595086451721e+00  -1.330064097228099e+00  0
-1.447960636560934e+00  -1.052004985158606e+00  0
-1.635043358289070e+00  -7.279682069591398e-01  0
-1.750666839013336e+00  -3.721157247518043e-01  0
1.545038477090956e+00  -3.284080653669724e-01  0
1.442995803711197e+00  -6.424631223358217e-01  0
1.277887289716681e+00  -9.284394583763503e-01  0
1.056928969781459e+00  -1.173838534861724e+00  0
7.897777821730994e-01  -1.367935235263481e+00  0
4.881095158393514e-01  -1.502246602138507e+00  0
1.651085217145785e-01  -1.570902584232021e+00  0
-1.651085080804964e-01  -1.570902585665021e+00  0
-4.881095046643598e-01  -1.502246605769482e+00  0
-7.897777736403515e-01  -1.367935240189865e+00  0
-1.056928963807672e+00  -1.173838540240547e+00  0
-1.277887286401790e+00  -9.284394629389062e-01  0
-1.442995802175757e+00  -6.424631257844755e-01  0
-1.545038476745962e+00  -3.284080669900360e-01  0
1.339410114777619e+00  -2.847004078210286e-01  0
1.250948247393314e+00  -5.569580416204147e-01  0
1.107813939116190e+00  -8.048739367639650e-01  0
9.162628463411930e-01  -1.017612978590971e+00  0
6.846666704770255e-01  -1.185877450717382e+00  0
4.231472758297959e-01  -1.302313388067509e+00  0
1.431343149693319e-01  -1.361831981435417e+00  0
-1.431343031508285e-01  -1.361831982677591e+00  0
-4.231472661438017e-01  -1.302313391214680e+00  0
-6.846666630812084e-01  -1.185877454987359e+00  0
-9.162628411635636e-01  -1.017612983252929e+00  0
-1.107813936242576e+00  -8.048739407191551e-01  0
-1.250948246062365e+00  -5.569580446097759e-01  0
-1.339410114478504e+00  -2.847004092282496e-01  0
1.133781752464366e+00  -2.409927502751029e-01  0
1.058900691075511e+00  -4.714529609050431e-01  0
9.377405885157687e-01  -6.813084151516309e-01  0
7.755967229009852e-01  -8.613874223202822e-01  0
5.795555587809949e-01  -1.003819666171358e+00  0
3.581850358202673e-01  -1.102380173996594e+00  0
1.211601082240947e-01  -1.152761378638898e+00  0
-1.211600982211700e-01  -1.152761379690248e+00  0
-3.581850276232710e-01  -1.102380176659960e+00  0
-5.795555525221090e-01  -1.003819669784927e+00  0
-7.755967185195140e-01  -8.613874262653767e-01  0
-9.377405860834322e-01  -6.813084184994549e-01  0
-1.058900689949052e+00  -4.714529634351117e-01  0
-1.133781752211131e+00  -2.409927514664814e-01  0
9.281533901503369e-01  -1.972850927290120e-01  0
8.668531347569823e-01  -3.859478801893481e-01  0
7.676672379147047e-01  -5.577428935388296e-01  0
6.349305994602453e-01  -7.051618660490027e-01  0
4.744444470845665e-01  -8.217618816246455e-01  0
2.932227958104929e-01  -9.024469599249232e-01  0
9.918590147877454e-02  -9.436907758415893e-01  0
-9.918589329142830e-02  -9.436907767021141e-01  0
-2.932227891024943e-01  -9.024469621044842e-01  0
-4.744444419626118e-01  -8.217618845818074e-01  0
-6.349305958749321e-01  -7.051618692772331e-01  0
-7.676672359236454e-01  -5.577428962792874e-01  0
-8.668531338350132e-01  -3.859478822601241e-01  0
-9.281533899429801e-01  -1.972850937045478e-01  0
7.225250278359258e-01  -1.535774351828399e-01  0
6.748055784380966e-01  -3.004427994734944e-01  0
5.975938873133249e-01  -4.341773719257987e-01  0
4.942644760192446e-01  -5.489363097774331e-01  0
3.693333353879433e-01  -6.397040970775952e-01  0
2.282605558005981e-01  -7.025137458528812e-01  0
7.721169473341344e-02  -7.346201730438926e-01  0
-7.721168836164577e-02  -7.346201737135923e-01  0
-2.282605505815971e-01  -7.025137475486374e-01  0
-3.693333314029197e-01  -6.397040993783497e-01  0
-4.942644732300895e-01  -5.489363122887998e-01  0
-5.975938857635430e-01  -4.341773740588907e-01  0
-6.748055777206179e-01  -3.004428010849778e-01  0
-7.225250276744477e-01  -1.535774359425332e-01  0
5.168966655216365e-01  -1.098697776366938e-01  0
4.827580221193249e-01  -2.149377187576915e-01  0
4.275205367120463e-01  -3.106118503128413e-01  0
3.535983525783273e-01  -3.927107535059563e-01  0
2.642222236913824e-01  -4.576463125306530e-01  0
1.632983157907418e-01  -5.025805317809577e-01  0
5.523748798806544e-02  -5.255495702463198e-01  0
-5.523748343187637e-02  -5.255495707251946e-01  0
-1.632983120607385e-01  -5.025805329929093e-01  0
-2.642222208432900e-01  -4.576463141750000e-01  0
-3.535983505853302e-01  -3.927107553004591e-01  0
-4.275205356035415e-01  -3.106118518385673e-01  0
-4.827580216063365e-01  -2.149377199098824e-01  0
-5.168966654060374e-01  -1.098697781805445e-01  0
3.112683032073144e-01  -6.616212009054061e-02  0
2.907104658005224e-01  -1.294326380418749e-01  0
2.574471861107402e-01  -1.870463286998641e-01  0
2.129322291373875e-01  -2.364851972344544e-01  0
1.591111119948047e-01  -2.755885279836815e-01  0
9.833607578087505e-02  -3.026473177090021e-01  0
3.326328124271387e-02  -3.164789674487134e-01  0
-3.326327850210335e-02  -3.164789677367632e-01  0
-9.833607353986949e-02  -3.026473184371490e-01  0
-1.591111102836433e-01  -2.755885289716210e-01  0
-2.129322279405483e-01  -2.364851983120933e-01  0
-2.574471854435126e-01  -1.870463296182241e-01  0
-2.907104654920242e-01  -1.294326387347731e-01  0
-3.112683031375941e-01  -6.616212041854871e-02  0
1.750666839013336e+00  3.721157247518043e-01  0
1.635043358289070e+00  7.279682069591398e-01  0
1.447960636560934e+00  1.052004985158606e+00  0
1.197595086451721e+00  1.330064097228099e+00  0
8.948888841994510e-01  1.549993025392297e+00  0
5.530717431848907e-01  1.702179820324202e+00  0
1.870827130101550e-01  1.779973188652364e+00  0
-1.870827284598157e-01  1.779973187028539e+00  0
-5.530717558488799e-01  1.702179816209422e+00  0
-8.948888938691303e-01  1.549993019809505e+00  0
-1.197595093221667e+00  1.330064091132413e+00  0
-1.447960640317102e+00  1.052004979988684e+00  0
-1.635043360029000e+00  7.279682030511933e-01  0
-1.750666839404207e+00  3.721157229128980e-01  0
1.545038476745962e+00  3.284080669900360e-01  0
1.442995802175757e+00  6.424631257844755e-01  0
1.277887286401790e+00  9.284394629389062e-01  0
1.056928963807672e+00  1.173838540240547e+00  0
7.897777736403516e-01  1.367935240189865e+00  0
4.881095046643598e-01  1.502246605769482e+00  0
1.651085080804963e-01  1.570902585665021e+00  0
-1.651085217145783e-01  1.570902584232021e+00  0
-4.881095158393512e-01  1.502246602138507e+00  0
-7.897777821730996e-01  1.367935235263481e+00  0
-1.056928969781459e+00  1.173838534861724e+00  0
-1.277887289716681e+00  9.284394583763503e-01  0
-1.442995803711197e+00  6.424631223358217e-01  0
-1.545038477090956e+00  3.284080653669724e-01  0
1.339410114478504e+00  2.847004092282496e-01  0
1.250948246062365e+00  5.569580446097759e-01  0
1.107813936242576e+00  8.048739407191551e-01  0
9.162628411635636e-01  1.017612983252929e+00  0
6.846666630812085e-01  1.185877454987359e+00  0
4.231472661438018e-01  1.302313391214680e+00  0
1.431343031508286e-01  1.361831982677591e+00  0
-1.431343149693319e-01  1.361831981435417e+00  0
-4.231472758297959e-01  1.302313388067509e+00  0
-6.846666704770256e-01  1.185877450717382e+00  0
-9.162628463411928e-01  1.017612978590971e+00  0
-1.107813939116190e+00  8.048739367639650e-01  0
-1.250948247393314e+00  5.569580416204147e-01  0
-1.339410114777619e+00  2.847004078210286e-01  0
1.133781752211131e+00  2.409927514664814e-01  0
1.058900689949052e+00  4.714529634351117e-01  0
9.377405860834324e-01  6.813084184994549e-01  0
7.755967185195141e-01  8.613874262653767e-01  0
5.795555525221090e-01  1.003819669784927e+00  0
3.581850276232708e-01  1.102380176659960e+00  0
1.211600982211700e-01  1.152761379690248e+00  0
-1.211601082240946e-01  1.152761378638898e+00  0
-3.581850358202672e-01  1.102380173996594e+00  0
-5.795555587809947e-01  1.003819666171358e+00  0
-7.755967229009852e-01  8.613874223202822e-01  0
-9.377405885157690e-01  6.813084151516309e-01  0
-1.058900691075511e+00  4.714529609050431e-01  0
-1.133781752464366e+00  2.409927502751029e-01  0
9.281533899429801e-01  1.972850937045478e-01  0
8.668531338350132e-01  3.859478822601241e-01  0
7.676672359236456e-01  5.577428962792874e-01  0
6.349305958749321e-01  7.051618692772331e-01  0
4.744444419626118e-01  8.217618845818074e-01  0
2.932227891024943e-01  9.024469621044842e-01  0
9.918589329142846e-02  9.436907767021141e-01  0
-9.918590147877460e-02  9.436907758415893e-01  0
-2.932227958104929e-01  9.024469599249232e-01  0
-4.744444470845666e-01  8.217618816246455e-01  0
-6.349305994602454e-01  7.051618660490027e-01  0
-7.676672379147049e-01  5.577428935388296e-01  0
-8.668531347569821e-01  3.859478801893481e-01  0
-9.281533901503368e-01  1.972850927290120e-01  0
7.225250276744479e-01  1.535774359425332e-01  0
6.748055777206179e-01  3.004428010849778e-01  0
5.975938857635430e-01  4.341773740588907e-01  0
4.942644732300893e-01  5.489363122887998e-01  0
3.693333314029198e-01  6.397040993783497e-01  0
2.282605505815972e-01  7.025137475486374e-01  0
7.721168836164582e-02  7.346201737135923e-01  0
-7.721169473341344e-02  7.346201730438926e-01  0
-2.282605558005981e-01  7.025137458528812e-01  0
-3.693333353879432e-01  6.397040970775952e-01  0
-4.942644760192446e-01  5.489363097774331e-01  0
-5.975938873133251e-01  4.341773719257987e-01  0
-6.748055784380966e-01  3.004427994734944e-01  0
-7.225250278359255e-01  1.535774351828399e-01  0
5.168966654060375e-01  1.098697781805445e-01  0
4.827580216063365e-01  2.149377199098824e-01  0
4.275205356035415e-01  3.106118518385673e-01  0
3.535983505853301e-01  3.927107553004591e-01  0
2.642222208432898e-01  4.576463141750000e-01  0
1.632983120607385e-01  5.025805329929093e-01  0
5.523748343187634e-02  5.255495707251946e-01  0
-5.523748798806541e-02  5.255495702463198e-01  0
-1.632983157907418e-01  5.025805317809577e-01  0
-2.642222236913825e-01  4.576463125306530e-01  0
-3.535983525783273e-01  3.927107535059563e-01  0
-4.275205367120463e-01  3.106118503128413e-01  0
-4.827580221193248e-01  2.149377187576915e-01  0
-5.168966655216365e-01  1.098697776366938e-01  0
3.112683031375940e-01  6.616212041854871e-02  0
2.907104654920243e-01  1.294326387347731e-01  0
2.574471854435126e-01  1.870463296182241e-01  0
2.129322279405483e-01  2.364851983120933e-01  0
1.591111102836433e-01  2.755885289716210e-01  0
9.833607353986951e-02  3.026473184371490e-01  0
3.326327850210339e-02  3.164789677367632e-01  0
-3.326328124271385e-02  3.164789674487134e-01  0
-9.833607578087504e-02  3.026473177090021e-01  0
-1.591111119948046e-01  2.755885279836815e-01  0
-2.129322291373875e-01  2.364851972344544e-01  0
-2.574471861107401e-01  1.870463286998641e-01  0
-2.907104658005223e-01  1.294326380418749e-01  0
-3.112683032073144e-01  6.616212009054061e-02  0
1.025098685700521e-01  -2.178914513577607e-02  0
9.573956401542440e-02  -4.262600007194812e-02  0
8.478498112373624e-02  -6.159989428436514e-02  0
7.012488775011350e-02  -7.788157752659647e-02  0
5.240000028892489e-02  -9.075946214978330e-02  0
3.238498137804427e-02  -9.967072278829425e-02  0
1.095458340119709e-02  -1.042258945872065e-01  0
-1.095458250329224e-02  -1.042258946815801e-01  0
-3.238498064726974e-02  -9.967072302573728e-02  0
-5.239999973142172e-02  -9.075946247165789e-02  0
-7.012488736109621e-02  -7.788157787686921e-02  0
-8.478498090503793e-02  -6.159989458537753e-02  0
-9.573956391468694e-02  -4.262600029820821e-02  0
-1.025098685469234e-01  -2.178914524458807e-02  0
9.937979624726365e-02  -2.112382772719691e-02  0
9.281621854927054e-02  -4.132444281790103e-02  0
8.219612673816379e-02  -5.971898148193451e-02  0
6.798366980388312e-02  -7.550351409035551e-02  0
5.080000027970042e-02  -8.798818086299071e-02  0
3.139612698512805e-02  -9.662734193968928e-02  0
1.062009230504806e-02  -1.010434245234601e-01  0
-1.062009143427030e-02  -1.010434246149826e-01  0
-3.139612627558695e-02  -9.662734217023318e-02  0
-5.079999973892429e-02  -8.798818117520793e-02  0
-6.798366942652972e-02  -7.550351443012605e-02  0
-8.219612652671754e-02  -5.971898177296531e-02  0
-9.281621845180349e-02  -4.132444303681557e-02  0
-9.937979622484773e-02  -2.112382783265538e-02  0
9.624972392452709e-02  -2.045851031862879e-02  0
8.989287308316517e-02  -4.002288556387556e-02  0
7.960727235263435e-02  -5.783806867953510e-02  0
6.584245185768833e-02  -7.312545065415403e-02  0
4.920000027050248e-02  -8.521689957624412e-02  0
3.040727259222828e-02  -9.358396109113486e-02  0
1.028560120890460e-02  -9.786095445976654e-02  0
-1.028560036525391e-02  -9.786095454843780e-02  0
-3.040727190392057e-02  -9.358396131477960e-02  0
-4.919999974645341e-02  -8.521689987880399e-02  0
-6.584245149199880e-02  -7.312545098342238e-02  0
-7.960727214844013e-02  -5.783806896058433e-02  0
-8.989287298896857e-02  -4.002288577544455e-02  0
-9.624972390282399e-02  -2.045851042073375e-02  0
9.311965160173274e-02  -1.979319291004838e-02  0
8.696952761700585e-02  -3.872132830982604e-02  0
7.701841796705711e-02  -5.595715587710096e-02  0
6.370123391145399e-02  -7.074738721790864e-02  0
4.760000026127501e-02  -8.244561828944638e-02  0
2.941841819931024e-02  -9.054058024252423e-02  0
9.951110112754976e-03  -9.467848439601420e-02  0
-9.951109296231360e-03  -9.467848448183427e-02  0
-2.941841753223596e-02  -9.054058045926981e-02  0
-4.759999975395302e-02  -8.244561858234888e-02  0
-6.370123355742832e-02  -7.074738753667477e-02  0
-7.701841777011492e-02  -5.595715614816860e-02  0
-8.696952752607970e-02  -3.872132851404948e-02  0
-9.311965158074245e-02  -1.979319300879983e-02  0
1.025098685469234e-01  2.178914524458807e-02  0
9.573956391468692e-02  4.262600029820821e-02  0
8.478498090503794e-02  6.159989458537753e-02  0
7.012488736109622e-02  7.788157787686921e-02  0
5.239999973142170e-02  9.075946247165789e-02  0
3.238498064726973e-02  9.967072302573728e-02  0
1.095458250329225e-02  1.042258946815801e-01  0
-1.095458340119709e-02  1.042258945872065e-01  0
-3.238498137804427e-02  9.967072278829425e-02  0
-5.240000028892486e-02  9.075946214978330e-02  0
-7.012488775011347e-02  7.788157752659647e-02  0
-8.478498112373621e-02  6.159989428436514e-02  0
-9.573956401542441e-02  4.262600007194812e-02  0
-1.025098685700521e-01  2.178914513577607e-02  0
9.937979622484774e-02  2.112382783265538e-02  0
9.281621845180349e-02  4.132444303681557e-02  0
8.219612652671754e-02  5.971898177296531e-02  0
6.798366942652972e-02  7.550351443012605e-02  0
5.079999973892429e-02  8.798818117520793e-02  0
3.139612627558696e-02  9.662734217023318e-02  0
1.062009143427030e-02  1.010434246149826e-01  0
-1.062009230504808e-02  1.010434245234601e-01  0
-3.139612698512807e-02  9.662734193968928e-02  0
-5.080000027970040e-02  8.798818086299071e-02  0
-6.798366980388312e-02  7.550351409035551e-02  0
-8.219612673816380e-02  5.971898148193451e-02  0
-9.281621854927052e-02  4.132444281790103e-02  0
-9.937979624726362e-02  2.112382772719691e-02  0
9.624972390282402e-02  2.045851042073375e-02  0
8.989287298896859e-02  4.002288577544455e-02  0
7.960727214844013e-02  5.783806896058433e-02  0
6.584245149199881e-02  7.312545098342238e-02  0
4.919999974645339e-02  8.521689987880399e-02  0
3.040727190392059e-02  9.358396131477960e-02  0
1.028560036525392e-02  9.786095454843780e-02  0
-1.028560120890462e-02  9.786095445976654e-02  0
-3.040727259222828e-02  9.358396109113486e-02  0
-4.920000027050249e-02  8.521689957624412e-02  0
-6.584245185768833e-02  7.312545065415403e-02  0
-7.960727235263433e-02  5.783806867953510e-02  0
-8.989287308316518e-02  4.002288556387556e-02  0
-9.624972392452708e-02  2.045851031862879e-02  0
9.311965158074244e-02  1.979319300879983e-02  0
8.696952752607971e-02  3.872132851404948e-02  0
7.701841777011492e-02  5.595715614816860e-02  0
6.370123355742835e-02  7.074738753667477e-02  0
4.759999975395302e-02  8.244561858234888e-02  0
2.941841753223595e-02  9.054058045926981e-02  0
9.951109296231355e-03  9.467848448183427e-02  0
-9.951110112754980e-03  9.467848439601420e-02  0
-2.941841819931024e-02  9.054058024252423e-02  0
-4.760000026127503e-02  8.244561828944638e-02  0
-6.370123391145399e-02  7.074738721790864e-02  0
-7.701841796705709e-02  5.595715587710096e-02  0
-8.696952761700585e-02  3.872132830982604e-02  0
-9.311965160173274e-02  1.979319291004838e-02  0
7.177158021299419e-02  -1.525552027088558e-02  0
6.703139799262813e-02  -2.984430110020251e-02  0
5.936162204112507e-02  -4.312874277847983e-02  0
4.909745838500258e-02  -5.452825144031853e-02  0
3.668750020080877e-02  -6.354461388679072e-02  0
2.267412222049345e-02  -6.978377179929289e-02  0
7.669776307843275e-03  -7.297304403951714e-02  0
-7.669775678806220e-03  -7.297304410563159e-02  0
-2.267412170591026e-02  -6.978377196649110e-02  0
-3.668749980988952e-02  -6.354461411248806e-02  0
-4.909745811213573e-02  -5.452825168600895e-02  0
-5.936162188990483e-02  -4.312874298661661e-02  0
-6.703139792265358e-02  -2.984430125736791e-02  0
-7.177158019681334e-02  -1.525552034701059e-02  0
5.355358114707252e-02  -1.138316504030798e-02  0
5.001661383443083e-02  -2.226883114463786e-02  0
4.429368050078893e-02  -3.218124248230640e-02  0
3.663490080480095e-02  -4.068717909899095e-02  0
2.737500014958149e-02  -4.741489077095279e-02  0
1.691868063460182e-02  -5.207034420469409e-02  0
5.722933599083612e-03  -5.445007374679534e-02  0
-5.722933130406050e-03  -5.445007379605533e-02  0
-1.691868025127632e-02  -5.207034432924411e-02  0
-2.737499985833796e-02  -4.741489093910232e-02  0
-3.663490060142904e-02  -4.068717928210786e-02  0
-4.429368038803860e-02  -3.218124263749390e-02  0
-5.001661378213744e-02  -2.226883126209078e-02  0
-5.355358113498824e-02  -1.138316509716007e-02  0
3.533558208104354e-02  -7.510809809707570e-03  0
3.300182967613331e-02  -1.469336118902860e-02  0
2.922573896036406e-02  -2.123374218606848e-02  0
2.417234322452592e-02  -2.684610675758185e-02  0
1.806250009829938e-02  -3.128516765501986e-02  0
1.116323904867632e-02  -3.435691660999098e-02  0
3.776090890312488e-03  -3.592710345396446e-02  0
-3.776090581994416e-03  -3.592710348636999e-02  0
-1.116323879660849e-02  -3.435691669189279e-02  0
-1.806249990673156e-02  -3.128516776562160e-02  0
-2.417234309064892e-02  -2.684610687812525e-02  0
-2.922573888608363e-02  -2.123374228830671e-02  0
-3.300182964152105e-02  -1.469336126676903e-02  0
-3.533558207305586e-02  -7.510809847286737e-03  0
7.177158019681332e-02  1.525552034701059e-02  0
6.703139792265361e-02  2.984430125736791e-02  0
5.936162188990484e-02  4.312874298661661e-02  0
4.909745811213573e-02  5.452825168600895e-02  0
3.668749980988951e-02  6.354461411248806e-02  0
2.267412170591025e-02  6.978377196649110e-02  0
7.669775678806216e-03  7.297304410563159e-02  0
-7.669776307843275e-03  7.297304403951714e-02  0
-2.267412222049345e-02  6.978377179929289e-02  0
-3.668750020080876e-02  6.354461388679072e-02  0
-4.909745838500258e-02  5.452825144031853e-02  0
-5.936162204112506e-02  4.312874277847983e-02  0
-6.703139799262814e-02  2.984430110020251e-02  0
-7.177158021299421e-02  1.525552027088558e-02  0
5.355358113498824e-02  1.138316509716007e-02  0
5.001661378213742e-02  2.226883126209078e-02  0
4.429368038803860e-02  3.218124263749390e-02  0
3.663490060142902e-02  4.068717928210786e-02  0
2.737499985833797e-02  4.741489093910232e-02  0
1.691868025127632e-02  5.207034432924411e-02  0
5.722933130406047e-03  5.445007379605533e-02  0
-5.722933599083612e-03  5.445007374679534e-02  0
-1.691868063460183e-02  5.207034420469409e-02  0
-2.737500014958150e-02  4.741489077095279e-02  0
-3.663490080480096e-02  4.068717909899095e-02  0
-4.429368050078893e-02  3.218124248230640e-02  0
-5.001661383443083e-02  2.226883114463786e-02  0
-5.355358114707252e-02  1.138316504030798e-02  0
3.533558207305585e-02  7.510809847286737e-03  0
3.300182964152105e-02  1.469336126676903e-02  0
2.922573888608364e-02  2.123374228830671e-02  0
2.417234309064891e-02  2.684610687812525e-02  0
1.806249990673156e-02  3.128516776562160e-02  0
1.116323879660848e-02  3.435691669189279e-02  0
3.776090581994417e-03  3.592710348636999e-02  0
-3.776090890312486e-03  3.592710345396446e-02  0
-1.116323904867632e-02  3.435691660999098e-02  0
-1.806250009829938e-02  3.128516765501986e-02  0
-2.417234322452592e-02  2.684610675758185e-02  0
-2.922573896036406e-02  2.123374218606848e-02  0
-3.300182967613333e-02  1.469336118902860e-02  0
-3.533558208104355e-02  7.510809809707570e-03  0
-1.089967138561178e-02  9.616662621289643e-03  0
1.008073580579546e-02  -9.866845682618688e-03  0
1.027138884133563e-02  9.436584138103273e-03  0
-8.623183387623003e-03  -1.106346289457414e-02  0
-6.747186234438818e-05  1.399519889515836e-02  0
-1.447361929617867e-02  -1.393774391224094e-03  0
1.403082557544332e-02  -2.577581219074389e-03  0
2.773325720546666e-03  -1.413885459491569e-02  0
-4.112946472643423e-03  -1.325593680670190e-02  0
-5.390770960884800e-03  1.331315209938051e-02  0
-1.324034748761893e-02  5.038310945792362e-03  0
1.361452554492796e-02  3.669072560677800e-03  0
-1.270562648651573e-02  -6.977838211499610e-03  0
5.101295967957989e-03  1.355173179584675e-02  0
1.278167169350566e-02  7.196726309744442e-03  0
9.651387628673964e-03  6.457493222336765e-03  0
9.698387780713342e-03  2.947978489747073e-03  0
5.895833580267709e-03  3.844610158603469e-03  0
7.370850933355221e-03  -5.605381256548834e-05  0
4.564585300432237e-03  1.332564658630703e-03  0
5.728413770733683e-03  -2.813677284209050e-03  0
2.345165491461454e-03  -1.532621192031208e-03  0
7.111867996720163e-04  1.961155660440313e-03  0
-2.661477949828035e-03  -3.504876380776365e-04  0
-1.101607151101579e-03  -2.763786818624000e-03  0
-1.775763103950588e-03  4.149724866146526e-03  0
-4.813374100435334e-03  -1.826338732560182e-03  0
9.335833253673451e-05  6.219532413541523e-03  0
-4.348744112878382e-03  -5.152652702598422e-03  0
-5.102642418331522e-04  -6.767106319666310e-03  0
8.054987817077201e-03  -3.739680769162347e-03  0
4.297505696262320e-03  -6.214897548186123e-03  0
6.423544097360181e-03  7.144722857624079e-03  0
-2.645214272076549e-03  7.375455854734778e-03  0
-5.897562628785465e-03  5.340096227758918e-03  0
-8.187576844424057e-03  -3.727264645197285e-03  0
-7.238266952588978e-03  -1.781800278448146e-04  0
-2.795367214358305e-03  -8.834371351990139e-03  0
-4.655210462723872e-04  -1.114431893020905e-02  0
-1.693477905710284e-04  1.005467209850596e-02  0
-7.214209646486990e-03  8.514231855550678e-03  0
-7.121381590520694e-03  -8.099178735410033e-03  0
-4.288943978774666e-03  2.381028286786003e-03  0
-8.719553451296713e-03  3.682044329609563e-03  0
1.204702906569240e-03  -4.626767372649758e-03  0
1.670556439346715e-03  -8.541864223909280e-03  0
5.953691739288169e-03  -9.439044756201302e-03  0
2.878682479877216e-03  5.422824209534279e-03  0
1.832367410423761e-03  8.226348980307016e-03  0
1.047636608781992e-02  -2.121869993533844e-03  0
1.112759435451579e-02  -5.403750959339528e-03  0
-1.117104207974902e-02  -3.389506570154788e-03  0
-1.044539519664379e-02  6.876182546567552e-03  0
-1.187753840085746e-02  6.464135573308462e-04  0
8.270528579251807e-03  -6.683527248915693e-03  0
7.515786442033765e-03  -1.191133218541503e-02  0
1.670116599739590e-03  1.196520125282696e-02  0
-1.995554410964523e-03  1.228211482422607e-02  0
7.730637206586821e-03  1.018837848150079e-02  0
-7.237440952336437e-03  -1.325059857102157e-02  0
1.412864517988144e-02  5.294845108310051e-04  0
-1.078622656795952e-02  -9.376430493347595e-03  0
-2.510155496154275e-07  -1.472537686774399e-02  0
-1.403814366121790e-02  -4.391800590051840e-03  0
-1.277003123663316e-02  7.508391738061105e-03  0
-8.734281872539624e-03  1.167199353685976e-02  0
2.310057625477516e-03  1.438427983481814e-02  0
1.222391732220120e-02  -8.022691669137071e-03  0
5.606863141883738e-03  -1.319157510787628e-02  0
3.464800355493266e-03  -1.157831855473371e-02  0
1.353667081126204e-02  -5.606431336911546e-03  0
-1.499253241072327e-02  2.399154919038787e-03  0
-4.381039115756100e-03  1.035315250175712e-02  0
-1.007221634840691e-02  -6.727229531591761e-03  0
4.226438889206694e-03  1.033015216821261e-02  0
-3.146867273093841e-03  1.412676142054610e-02  0
7.905099976347358e-03  1.273495916894256e-02  0
-5.219399808830886e-03  -1.023718222216192e-02  0
1.155766052402545e-02  4.725020307155084e-04  0
Edges
120
1  9  5
9  10  5
10  11  5
11  12  5
12  13  5
13  14  5
14  15  5
15  16  5
16  17  5
17  18  5
18  19  5
19  20  5
20  21  5
21  22  5
2  22  5
2  23  5
23  24  5
24  25  5
25  26  5
26  27  5
27  28  5
28  29  5
29  30  5
30  31  5
31  32  5
32  33  5
33  34  5
34  35  5
35  36  5
1  36  5
3  37  3
37  38  3
38  39  3
39  40  3
40  41  3
41  42  3
42  43  3
43  44  3
44  45  3
45  46  3
46  47  3
47  48  3
48  49  3
49  50  3
4  50  3
4  51  3
51  52  3
52  53  3
53  54  3
54  55  3
55  56  3
56  57  3
57  58  3
58  59  3
59  60  3
60  61  3
61  62  3
62  63  3
63  64  3
3  64  3
5  65  2
65  66  2
66  67  2
67  68  2
68  69  2
69  70  2
70  71  2
71  72  2
72  73  2
73  74  2
74  75  2
75  76  2
76  77  2
77  78  2
6  78  2
6  79  2
79  80  2
80  81  2
81  82  2
82  83  2
83  84  2
84  85  2
85  86  2
86  87  2
87  88  2
88  89  2
89  90  2
90  91  2
91  92  2
5  92  2
7  93  1
93  94  1
94  95  1
95  96  1
96  97  1
97  98  1
98  99  1
99  100  1
100  101  1
101  102  1
102  103  1
103  104  1
104  105  1
105  106  1
8  106  1
8  107  1
107  108  1
108  109  1
109  110  1
110  111  1
111  112  1
112  113  1
113  114  1
114  115  1
115  116  1
116  117  1
117  118  1
118  119  1
119  120  1
7  120  1
Triangles
24
609  579  633  2
581  623  635  2
607  614  624  2
592  590  593  2
596  598  604  2
600  599  608  2
592  595  615  2
598  618  619  2
588  603  618  2
602  617  625  2
616  609  640  2
585  573  586  2
606  622  644  2
612  574  648  2
113  114  633  2
107  108  634  2
94  95  585  2
102  103  636  2
106  8  642  2
624  581  642  2
603  629  645  2
96  97  647  2
575  627  637  2
621  638  641  2
Quadrilaterals
621
1  121  151  36  4
36  151  152  35  4
35  152  153  34  4
34  153  154  33  4
33  154  155  32  4
32  155  156  31  4
31  156  157  30  4
30  157  158  29  4
29  158  159  28  4
28  159  160  27  4
27  160  161  26  4
26  161  162  25  4
25  162  163  24  4
24  163  164  23  4
23  164  136  2  4
121  122  165  151  4
151  165  166  152  4
152  166  167  153  4
153  167  168  154  4
154  168  169  155  4
155  169  170  156  4
156  170  171  157  4
157  171  172  158  4
158  172  173  159  4
159  173  174  160  4
160  174  175  161  4
161  175  176  162  4
162  176  177  163  4
163  177  178  164  4
164  178  137  136  4
122  123  179  165  4
165  179  180  166  4
166  180  181  167  4
167  181  182  168  4
168  182  183  169  4
169  183  184  170  4
170  184  185  171  4
171  185  186  172  4
172  186  187  173  4
173  187  188  174  4
174  188  189  175  4
175  189  190  176  4
176  190  191  177  4
177  191  192  178  4
178  192  138  137  4
123  124  193  179  4
179  193  194  180  4
180  194  195  181  4
181  195  196  182  4
182  196  197  183  4
183  197  198  184  4
184  198  199  185  4
185  199  200  186  4
186  200  201  187  4
187  201  202  188  4
188  202  203  189  4
189  203  204  190  4
190  204  205  191  4
191  205  206  192  4
192  206  139  138  4
124  125  207  193  4
193  207  208  194  4
194  208  209  195  4
195  209  210  196  4
196  210  211  197  4
197  211  212  198  4
198  212  213  199  4
199  213  214  200  4
200  214  215  201  4
201  215  216  202  4
202  216  217  203  4
203  217  218  204  4
204  218  219  205  4
205  219  220  206  4
206  220  140  139  4
125  126  221  207  4
207  221  222  208  4
208  222  223  209  4
209  223  224  210  4
210  224  225  211  4
211  225  226  212  4
212  226  227  213  4
213  227  228  214  4
214  228  229  215  4
215  229  230  216  4
216  230  231  217  4
217  231  232  218  4
218  232  233  219  4
219  233  234  220  4
220  234  141  140  4
126  127  235  221  4
221  235  236  222  4
222  236  237  223  4
223  237  238  224  4
224  238  239  225  4
225  239  240  226  4
226  240  241  227  4
227  241  242  228  4
228  242  243  229  4
229  243  244  230  4
230  244  245  231  4
231  245  246  232  4
232  246  247  233  4
233  247  248  234  4
234  248  142  141  4
127  128  249  235  4
235  249  250  236  4
236  250  251  237  4
237  251  252  238  4
238  252  253  239  4
239  253  254  240  4
240  254  255  241  4
241  255  256  242  4
242  256  257  243  4
243  257  258  244  4
244  258  259  245  4
245  259  260  246  4
246  260  261  247  4
247  261  262  248  4
248  262  143  142  4
128  3  64  249  4
249  64  63  250  4
250  63  62  251  4
251  62  61  252  4
252  61  60  253  4
253  60  59  254  4
254  59  58  255  4
255  58  57  256  4
256  57  56  257  4
257  56  55  258  4
258  55  54  259  4
259  54  53  260  4
260  53  52  261  4
261  52  51  262  4
262  51  4  143  4
1  9  263  121  4
9  10  264  263  4
10  11  265  264  4
11  12  266  265  4
12  13  267  266  4
13  14  268  267  4
14  15  269  268  4
15  16  270  269  4
16  17  271  270  4
17  18  272  271  4
18  19  273  272  4
19  20  274  273  4
20  21  275  274  4
21  22  276  275  4
22  2  136  276  4
121  263  277  122  4
263  264  278  277  4
264  265  279  278  4
265  266  280  279  4
266  267  281  280  4
267  268  282  281  4
268  269  283  282  4
269  270  284  283  4
270  271  285  284  4
271  272  286  285  4
272  273  287  286  4
273  274  288  287  4
274  275  289  288  4
275  276  290  289  4
276  136  137  290  4
122  277  291  123  4
277  278  292  291  4
278  279  293  292  4
279  280  294  293  4
280  281  295  294  4
281  282  296  295  4
282  283  297  296  4
283  284  298  297  4
284  285  299  298  4
285  286  300  299  4
286  287  301  300  4
287  288  302  301  4
288  289  303  302  4
289  290  304  303  4
290  137  138  304  4
123  291  305  124  4
291  292  306  305  4
292  293  307  306  4
293  294  308  307  4
294  295  309  308  4
295  296  310  309  4
296  297  311  310  4
297  298  312  311  4
298  299  313  312  4
299  300  314  313  4
300  301  315  314  4
301  302  316  315  4
302  303  317  316  4
303  304  318  317  4
304  138  139  318  4
124  305  319  125  4
305  306  320  319  4
306  307  321  320  4
307  308  322  321  4
308  309  323  322  4
309  310  324  323  4
310  311  325  324  4
311  312  326  325  4
312  313  327  326  4
313  314  328  327  4
314  315  329  328  4
315  316  330  329  4
316  317  331  330  4
317  318  332  331  4
318  139  140  332  4
125  319  333  126  4
319  320  334  333  4
320  321  335  334  4
321  322  336  335  4
322  323  337  336  4
323  324  338  337  4
324  325  339  338  4
325  326  340  339  4
326  327  341  340  4
327  328  342  341  4
328  329  343  342  4
329  330  344  343  4
330  331  345  344  4
331  332  346  345  4
332  140  141  346  4
126  333  347  127  4
333  334  348  347  4
334  335  349  348  4
335  336  350  349  4
336  337  351  350  4
337  338  352  351  4
338  339  353  352  4
339  340  354  353  4
340  341  355  354  4
341  342  356  355  4
342  343  357  356  4
343  344  358  357  4
344  345  359  358  4
345  346  360  359  4
346  141  142  360  4
127  347  361  128  4
347  348  362  361  4
348  349  363  362  4
349  350  364  363  4
350  351  365  364  4
351  352  366  365  4
352  353  367  366  4
353  354  368  367  4
354  355  369  368  4
355  356  370  369  4
356  357  371  370  4
357  358  372  371  4
358  359  373  372  4
359  360  374  373  4
360  142  143  374  4
128  361  37  3  4
361  362  38  37  4
362  363  39  38  4
363  364  40  39  4
364  365  41  40  4
365  366  42  41  4
366  367  43  42  4
367  368  44  43  4
368  369  45  44  4
369  370  46  45  4
370  371  47  46  4
371  372  48  47  4
372  373  49  48  4
373  374  50  49  4
374  143  4  50  4
3  129  375  64  1
64  375  376  63  1
63  376  377  62  1
62  377  378  61  1
61  378  379  60  1
60  379  380  59  1
59  380  381  58  1
58  381  382  57  1
57  382  383  56  1
56  383  384  55  1
55  384  385  54  1
54  385  386  53  1
53  386  387  52  1
52  387  388  51  1
51  388  144  4  1
129  130  389  375  1
375  389  390  376  1
376  390  391  377  1
377  391  392  378  1
378  392  393  379  1
379  393  394  380  1
380  394  395  381  1
381  395  396  382  1
382  396  397  383  1
383  397  398  384  1
384  398  399  385  1
385  399  400  386  1
386  400  401  387  1
387  401  402  388  1
388  402  145  144  1
130  131  403  389  1
389  403  404  390  1
390  404  405  391  1
391  405  406  392  1
392  406  407  393  1
393  407  408  394  1
394  408  409  395  1
395  409  410  396  1
396  410  411  397  1
397  411  412  398  1
398  412  413  399  1
399  413  414  400  1
400  414  415  401  1
401  415  416  402  1
402  416  146  145  1
131  132  417  403  1
403  417  418  404  1
404  418  419  405  1
405  419  420  406  1
406  420  421  407  1
407  421  422  408  1
408  422  423  409  1
409  423  424  410  1
410  424  425  411  1
411  425  426  412  1
412  426  427  413  1
413  427  428  414  1
414  428  429  415  1
415  429  430  416  1
416  430  147  146  1
132  5  92  417  1
417  92  91  418  1
418  91  90  419  1
419  90  89  420  1
420  89  88  421  1
421  88  87  422  1
422  87  86  423  1
423  86  85  424  1
424  85  84  425  1
425  84  83  426  1
426  83  82  427  1
427  82  81  428  1
428  81  80  429  1
429  80  79  430  1
430  79  6  147  1
3  37  431  129  1
37  38  432  431  1
38  39  433  432  1
39  40  434  433  1
40  41  435  434  1
41  42  436  435  1
42  43  437  436  1
43  44  438  437  1
44  45  439  438  1
45  46  440  439  1
46  47  441  440  1
47  48  442  441  1
48  49  443  442  1
49  50  444  443  1
50  4  144  444  1
129  431  445  130  1
431  432  446  445  1
432  433  447  446  1
433  434  448  447  1
434  435  449  448  1
435  436  450  449  1
436  437  451  450  1
437  438  452  451  1
438  439  453  452  1
439  440  454  453  1
440  441  455  454  1
441  442  456  455  1
442  443  457  456  1
443  444  458  457  1
444  144  145  458  1
130  445  459  131  1
445  446  460  459  1
446  447  461  460  1
447  448  462  461  1
448  449  463  462  1
449  450  464  463  1
450  451  465  464  1
451  452  466  465  1
452  453  467  466  1
453  454  468  467  1
454  455  469  468  1
455  456  470  469  1
456  457  471  470  1
457  458  472  471  1
458  145  146  472  1
131  459  473  132  1
459  460  474  473  1
460  461  475  474  1
461  462  476  475  1
462  463  477  476  1
463  464  478  477  1
464  465  479  478  1
465  466  480  479  1
466  467  481  480  1
467  468  482  481  1
468  469  483  482  1
469  470  484  483  1
470  471  485  484  1
471  472  486  485  1
472  146  147  486  1
132  473  65  5  1
473  474  66  65  1
474  475  67  66  1
475  476  68  67  1
476  477  69  68  1
477  478  70  69  1
478  479  71  70  1
479  480  72  71  1
480  481  73  72  1
481  482  74  73  1
482  483  75  74  1
483  484  76  75  1
484  485  77  76  1
485  486  78  77  1
486  147  6  78  1
5  133  487  92  3
92  487  488  91  3
91  488  489  90  3
90  489  490  89  3
89  490  491  88  3
88  491  492  87  3
87  492  493  86  3
86  493  494  85  3
85  494  495  84  3
84  495  496  83  3
83  496  497  82  3
82  497  498  81  3
81  498  499  80  3
80  499  500  79  3
79  500  148  6  3
133  134  501  487  3
487  501  502  488  3
488  502  503  489  3
489  503  504  490  3
490  504  505  491  3
491  505  506  492  3
492  506  507  493  3
493  507  508  494  3
494  508  509  495  3
495  509  510  496  3
496  510  511  497  3
497  511  512  498  3
498  512  513  499  3
499  513  514  500  3
500  514  149  148  3
134  135  515  501  3
501  515  516  502  3
502  516  517  503  3
503  517  518  504  3
504  518  519  505  3
505  519  520  506  3
506  520  521  507  3
507  521  522  508  3
508  522  523  509  3
509  523  524  510  3
510  524  525  511  3
511  525  526  512  3
512  526  527  513  3
513  527  528  514  3
514  528  150  149  3
135  7  120  515  3
515  120  119  516  3
516  119  118  517  3
517  118  117  518  3
518  117  116  519  3
519  116  115  520  3
520  115  114  521  3
521  114  113  522  3
522  113  112  523  3
523  112  111  524  3
524  111  110  525  3
525  110  109  526  3
526  109  108  527  3
527  108  107  528  3
528  107  8  150  3
5  65  529  133  3
65  66  530  529  3
66  67  531  530  3
67  68  532  531  3
68  69  533  532  3
69  70  534  533  3
70  71  535  534  3
71  72  536  535  3
72  73  537  536  3
73  74  538  537  3
74  75  539  538  3
75  76  540  539  3
76  77  541  540  3
77  78  542  541  3
78  6  148  542  3
133  529  543  134  3
529  530  544  543  3
530  531  545  544  3
531  532  546  545  3
532  533  547  546  3
533  534  548  547  3
534  535  549  548  3
535  536  550  549  3
536  537  551  550  3
537  538  552  551  3
538  539  553  552  3
539  540  554  553  3
540  541  555  554  3
541  542  556  555  3
542  148  149  556  3
134  543  557  135  3
543  544  558  557  3
544  545  559  558  3
545  546  560  559  3
546  547  561  560  3
547  548  562  561  3
548  549  563  562  3
549  550  564  563  3
550  551  565  564  3
551  552  566  565  3
552  553  567  566  3
553  554  568  567  3
554  555  569  568  3
555  556  570  569  3
556  149  150  570  3
135  557  93  7  3
557  558  94  93  3
558  559  95  94  3
559  560  96  95  3
560  561  97  96  3
561  562  98  97  3
562  563  99  98  3
563  564  100  99  3
564  565  101  100  3
565  566  102  101  3
566  567  103  102  3
567  568  104  103  3
568  569  105  104  3
569  570  106  105  3
570  150  8  106  3
575  628  610  627  2
627  645  584  637  2
611  643  580  636  2
113  633  579  112  2
617  626  572  625  2
578  640  609  633  2
584  645  629  647  2
625  572  638  621  2
621  641  577  620  2
606  644  612  599  2
582  585  586  587  2
622  634  583  644  2
94  585  582  93  2
7  631  577  120  2
616  640  617  602  2
581  624  614  623  2
106  642  581  105  2
118  638  572  117  2
603  645  619  618  2
612  644  632  574  2
102  636  580  101  2
604  643  611  605  2
609  616  600  608  2
620  649  587  589  2
588  590  589  587  2
613  605  614  607  2
575  637  99  100  2
590  592  591  589  2
601  620  589  591  2
596  613  594  593  2
618  593  590  588  2
605  613  596  604  2
584  647  97  98  2
615  602  591  592  2
594  595  592  593  2
597  599  595  594  2
571  636  103  104  2
593  618  598  596  2
600  615  595  599  2
616  602  615  600  2
608  648  579  609  2
622  606  607  624  2
110  574  632  109  2
613  607  597  594  2
116  626  639  115  2
107  634  576  8  2
578  633  114  115  2
586  573  629  603  2
598  619  610  604  2
601  625  621  620  2
602  625  601  591  2
623  614  605  611  2
612  648  608  599  2
639  626  617  640  2
583  634  108  109  2
111  630  574  110  2
619  645  627  610  2
576  634  622  624  2
573  585  95  96  2
119  641  638  118  2
597  607  606  599  2
586  603  588  587  2
610  628  643  604  2
611  636  571  623  2
632  644  583  109  2
578  115  639  640  2
649  631  582  587  2
647  629  573  96  2
580  643  628  646  2
576  624  642  8  2
648  574  630  579  2
571  104  635  623  2
646  628  575  100  2
117  572  626  116  2
98  99  637  584  2
105  581  635  104  2
577  631  649  620  2
93  582  631  7  2
630  111  112  579  2
641  119  120  577  2
646  100  101  580  2
End
