MeshVersionFormatted 1
Dimension 
2
Vertices
253
0.000000000000000e+00  0.000000000000000e+00  0
2.000000000000000e-01  0.000000000000000e+00  1
0.000000000000000e+00  2.000000000000000e-01  1
-2.000000000000000e-01  0.000000000000000e+00  1
0.000000000000000e+00  -2.000000000000000e-01  1
4.000000000000000e-01  0.000000000000000e+00  2
0.000000000000000e+00  4.000000000000000e-01  2
-4.000000000000000e-01  0.000000000000000e+00  2
0.000000000000000e+00  -4.000000000000000e-01  2
-1.949855824105597e-01  -4.450418690432184e-02  1
-1.801937734677461e-01  -8.677674805761390e-02  1
-1.563662962383485e-01  -1.246979606918294e-01  1
-1.246979600734415e-01  -1.563662967314965e-01  1
-8.677674757153037e-02  -1.801937737018316e-01  1
-4.450418665315178e-02  -1.949855824678877e-01  1
4.450418690432184e-02  -1.949855824105597e-01  1
8.677674805761390e-02  -1.801937734677461e-01  1
1.246979606918294e-01  -1.563662962383485e-01  1
1.563662967314965e-01  -1.246979600734415e-01  1
1.801937737018316e-01  -8.677674757153037e-02  1
1.949855824678877e-01  -4.450418665315178e-02  1
1.949855824105597e-01  4.450418690432184e-02  1
1.801937734677461e-01  8.677674805761390e-02  1
1.563662962383485e-01  1.246979606918294e-01  1
1.246979600734415e-01  1.563662967314965e-01  1
8.677674757153037e-02  1.801937737018316e-01  1
4.450418665315178e-02  1.949855824678877e-01  1
-4.450418690432184e-02  1.949855824105597e-01  1
-8.677674805761390e-02  1.801937734677461e-01  1
-1.246979606918294e-01  1.563662962383485e-01  1
-1.563662967314965e-01  1.246979600734415e-01  1
-1.801937737018316e-01  8.677674757153037e-02  1
-1.949855824678877e-01  4.450418665315178e-02  1
-8.900837380864368e-02  3.899711648211195e-01  2
-1.735534961152278e-01  3.603875469354922e-01  2
-2.493959213836588e-01  3.127325924766970e-01  2
-3.127325934629930e-01  2.493959201468829e-01  2
-3.603875474036632e-01  1.735534951430607e-01  2
-3.899711649357754e-01  8.900837330630355e-02  2
-3.899711648211195e-01  -8.900837380864368e-02  2
-3.603875469354922e-01  -1.735534961152278e-01  2
-3.127325924766970e-01  -2.493959213836588e-01  2
-2.493959201468829e-01  -3.127325934629930e-01  2
-1.735534951430607e-01  -3.603875474036632e-01  2
-8.900837330630355e-02  -3.899711649357754e-01  2
8.900837380864368e-02  -3.899711648211195e-01  2
1.735534961152278e-01  -3.603875469354922e-01  2
2.493959213836588e-01  -3.127325924766970e-01  2
3.127325934629930e-01  -2.493959201468829e-01  2
3.603875474036632e-01  -1.735534951430607e-01  2
3.899711649357754e-01  -8.900837330630355e-02  2
3.899711648211195e-01  8.900837380864368e-02  2
3.603875469354922e-01  1.735534961152278e-01  2
3.127325924766970e-01  2.493959213836588e-01  2
2.493959201468829e-01  3.127325934629930e-01  2
1.735534951430607e-01  3.603875474036632e-01  2
8.900837330630355e-02  3.899711649357754e-01  2
0.000000000000000e+00  2.666666669148375e-01  0
2.666666669148375e-01  0.000000000000000e+00  0
0.000000000000000e+00  -2.666666669148375e-01  0
-2.666666669148375e-01  0.000000000000000e+00  0
0.000000000000000e+00  2.857142857137611e-02  0
0.000000000000000e+00  5.714285714271997e-02  0
0.000000000000000e+00  8.571428571406110e-02  0
0.000000000000000e+00  1.142857142854874e-01  0
0.000000000000000e+00  1.428571428569919e-01  0
0.000000000000000e+00  1.714285714284932e-01  0
2.857142857137611e-02  0.000000000000000e+00  0
5.714285714271997e-02  0.000000000000000e+00  0
8.571428571406110e-02  0.000000000000000e+00  0
1.142857142854874e-01  0.000000000000000e+00  0
1.428571428569919e-01  0.000000000000000e+00  0
1.714285714284932e-01  0.000000000000000e+00  0
0.000000000000000e+00  -2.857142857137611e-02  0
0.000000000000000e+00  -5.714285714271997e-02  0
0.000000000000000e+00  -8.571428571406110e-02  0
0.000000000000000e+00  -1.142857142854874e-01  0
0.000000000000000e+00  -1.428571428569919e-01  0
0.000000000000000e+00  -1.714285714284932e-01  0
-2.857142857137611e-02  0.000000000000000e+00  0
-5.714285714271997e-02  0.000000000000000e+00  0
-8.571428571406110e-02  0.000000000000000e+00  0
-1.142857142854874e-01  0.000000000000000e+00  0
-1.428571428569919e-01  0.000000000000000e+00  0
-1.714285714284932e-01  0.000000000000000e+00  0
2.785508320145739e-02  6.357740986320016e-03  0
2.574196763820218e-02  1.239667829392208e-02  0
2.233804231972306e-02  1.781399438451435e-02  0
1.781399429617321e-02  2.233804239017276e-02  0
1.239667822448158e-02  2.574196767164296e-02  0
6.357740950438581e-03  2.785508320964709e-02  0
5.571016640288333e-02  1.271548197263285e-02  0
5.148393527637530e-02  2.479335658783016e-02  0
4.467608463942090e-02  3.562798876900859e-02  0
3.562798859232631e-02  4.467608478032031e-02  0
2.479335644894916e-02  5.148393534325686e-02  0
1.271548190086998e-02  5.571016641926272e-02  0
8.356524960430661e-02  1.907322295894508e-02  0
7.722590291454598e-02  3.719003488173706e-02  0
6.701412695911660e-02  5.344198315350113e-02  0
5.344198288847773e-02  6.701412717046570e-02  0
3.719003467341556e-02  7.722590301486831e-02  0
1.907322285130078e-02  8.356524962887572e-02  0
1.114203328058129e-01  2.543096394527626e-02  0
1.029678705527933e-01  4.958671317568090e-02  0
8.935216927887889e-02  7.125597753804673e-02  0
7.125597718468221e-02  8.935216956067768e-02  0
4.958671289791890e-02  1.029678706865565e-01  0
2.543096380175052e-02  1.114203328385717e-01  0
1.392754160073955e-01  3.178870493162484e-02  0
1.287098381911112e-01  6.198339146965866e-02  0
1.116902115987023e-01  8.906997192264113e-02  0
8.906997148093543e-02  1.116902119509508e-01  0
6.198339112245617e-02  1.287098383583150e-01  0
3.178870475221766e-02  1.392754160483439e-01  0
1.671304992089749e-01  3.814644591797272e-02  0
1.544518058294262e-01  7.438006976363508e-02  0
1.340282539185232e-01  1.068839663072335e-01  0
1.068839657771867e-01  1.340282543412215e-01  0
7.438006934699207e-02  1.544518060300708e-01  0
3.814644570268411e-02  1.671304992581131e-01  0
-6.357740986320018e-03  2.785508320145738e-02  0
-1.239667829392208e-02  2.574196763820217e-02  0
-1.781399438451435e-02  2.233804231972305e-02  0
-2.233804239017277e-02  1.781399429617321e-02  0
-2.574196767164297e-02  1.239667822448157e-02  0
-2.785508320964709e-02  6.357740950438577e-03  0
-1.271548197263286e-02  5.571016640288332e-02  0
-2.479335658783017e-02  5.148393527637529e-02  0
-3.562798876900859e-02  4.467608463942088e-02  0
-4.467608478032031e-02  3.562798859232631e-02  0
-5.148393534325686e-02  2.479335644894914e-02  0
-5.571016641926275e-02  1.271548190086998e-02  0
-1.907322295894509e-02  8.356524960430660e-02  0
-3.719003488173707e-02  7.722590291454594e-02  0
-5.344198315350113e-02  6.701412695911659e-02  0
-6.701412717046573e-02  5.344198288847771e-02  0
-7.722590301486831e-02  3.719003467341555e-02  0
-8.356524962887574e-02  1.907322285130077e-02  0
-2.543096394527627e-02  1.114203328058129e-01  0
-4.958671317568091e-02  1.029678705527933e-01  0
-7.125597753804676e-02  8.935216927887889e-02  0
-8.935216956067774e-02  7.125597718468220e-02  0
-1.029678706865565e-01  4.958671289791888e-02  0
-1.114203328385717e-01  2.543096380175052e-02  0
-3.178870493162485e-02  1.392754160073954e-01  0
-6.198339146965870e-02  1.287098381911111e-01  0
-8.906997192264116e-02  1.116902115987023e-01  0
-1.116902119509509e-01  8.906997148093543e-02  0
-1.287098383583151e-01  6.198339112245615e-02  0
-1.392754160483440e-01  3.178870475221766e-02  0
-3.814644591797274e-02  1.671304992089749e-01  0
-7.438006976363511e-02  1.544518058294262e-01  0
-1.068839663072336e-01  1.340282539185232e-01  0
-1.340282543412215e-01  1.068839657771867e-01  0
-1.544518060300709e-01  7.438006934699205e-02  0
-1.671304992581132e-01  3.814644570268410e-02  0
-2.785508320145739e-02  -6.357740986320016e-03  0
-2.574196763820218e-02  -1.239667829392208e-02  0
-2.233804231972306e-02  -1.781399438451435e-02  0
-1.781399429617321e-02  -2.233804239017276e-02  0
-1.239667822448158e-02  -2.574196767164296e-02  0
-6.357740950438581e-03  -2.785508320964709e-02  0
-5.571016640288333e-02  -1.271548197263285e-02  0
-5.148393527637530e-02  -2.479335658783016e-02  0
-4.467608463942090e-02  -3.562798876900859e-02  0
-3.562798859232631e-02  -4.467608478032031e-02  0
-2.479335644894916e-02  -5.148393534325686e-02  0
-1.271548190086998e-02  -5.571016641926272e-02  0
-8.356524960430661e-02  -1.907322295894508e-02  0
-7.722590291454598e-02  -3.719003488173706e-02  0
-6.701412695911660e-02  -5.344198315350113e-02  0
-5.344198288847773e-02  -6.701412717046570e-02  0
-3.719003467341556e-02  -7.722590301486831e-02  0
-1.907322285130078e-02  -8.356524962887572e-02  0
-1.114203328058129e-01  -2.543096394527626e-02  0
-1.029678705527933e-01  -4.958671317568090e-02  0
-8.935216927887889e-02  -7.125597753804673e-02  0
-7.125597718468221e-02  -8.935216956067768e-02  0
-4.958671289791890e-02  -1.029678706865565e-01  0
-2.543096380175052e-02  -1.114203328385717e-01  0
-1.392754160073955e-01  -3.178870493162484e-02  0
-1.287098381911112e-01  -6.198339146965866e-02  0
-1.116902115987023e-01  -8.906997192264113e-02  0
-8.906997148093543e-02  -1.116902119509508e-01  0
-6.198339112245617e-02  -1.287098383583150e-01  0
-3.178870475221766e-02  -1.392754160483439e-01  0
-1.671304992089749e-01  -3.814644591797272e-02  0
-1.544518058294262e-01  -7.438006976363508e-02  0
-1.340282539185232e-01  -1.068839663072335e-01  0
-1.068839657771867e-01  -1.340282543412215e-01  0
-7.438006934699207e-02  -1.544518060300708e-01  0
-3.814644570268411e-02  -1.671304992581131e-01  0
6.357740986320018e-03  -2.785508320145738e-02  0
1.239667829392208e-02  -2.574196763820217e-02  0
1.781399438451435e-02  -2.233804231972305e-02  0
2.233804239017277e-02  -1.781399429617321e-02  0
2.574196767164297e-02  -1.239667822448157e-02  0
2.785508320964709e-02  -6.357740950438577e-03  0
1.271548197263286e-02  -5.571016640288332e-02  0
2.479335658783017e-02  -5.148393527637529e-02  0
3.562798876900859e-02  -4.467608463942088e-02  0
4.467608478032031e-02  -3.562798859232631e-02  0
5.148393534325686e-02  -2.479335644894914e-02  0
5.571016641926275e-02  -1.271548190086998e-02  0
1.907322295894509e-02  -8.356524960430660e-02  0
3.719003488173707e-02  -7.722590291454594e-02  0
5.344198315350113e-02  -6.701412695911659e-02  0
6.701412717046573e-02  -5.344198288847771e-02  0
7.722590301486831e-02  -3.719003467341555e-02  0
8.356524962887574e-02  -1.907322285130077e-02  0
2.543096394527627e-02  -1.114203328058129e-01  0
4.958671317568091e-02  -1.029678705527933e-01  0
7.125597753804676e-02  -8.935216927887889e-02  0
8.935216956067774e-02  -7.125597718468220e-02  0
1.029678706865565e-01  -4.958671289791888e-02  0
1.114203328385717e-01  -2.543096380175052e-02  0
3.178870493162485e-02  -1.392754160073954e-01  0
6.198339146965870e-02  -1.287098381911111e-01  0
8.906997192264116e-02  -1.116902115987023e-01  0
1.116902119509509e-01  -8.906997148093543e-02  0
1.287098383583151e-01  -6.198339112245615e-02  0
1.392754160483440e-01  -3.178870475221766e-02  0
3.814644591797274e-02  -1.671304992089749e-01  0
7.438006976363511e-02  -1.544518058294262e-01  0
1.068839663072336e-01  -1.340282539185232e-01  0
1.340282543412215e-01  -1.068839657771867e-01  0
1.544518060300709e-01  -7.438006934699205e-02  0
1.671304992581132e-01  -3.814644570268410e-02  0
-5.933891592765232e-02  2.599807767893617e-01  0
-1.157023308511625e-01  2.402583648472557e-01  0
-1.662639477438379e-01  2.084883951784925e-01  0
-2.084883958360231e-01  1.662639469193206e-01  0
-2.402583651593697e-01  1.157023302030511e-01  0
-2.599807768657990e-01  5.933891559275891e-02  0
-2.599807767893617e-01  -5.933891592765232e-02  0
-2.402583648472557e-01  -1.157023308511625e-01  0
-2.084883951784925e-01  -1.662639477438379e-01  0
-1.662639469193206e-01  -2.084883958360231e-01  0
-1.157023302030511e-01  -2.402583651593697e-01  0
-5.933891559275891e-02  -2.599807768657990e-01  0
5.933891592765232e-02  -2.599807767893617e-01  0
1.157023308511625e-01  -2.402583648472557e-01  0
1.662639477438379e-01  -2.084883951784925e-01  0
2.084883958360231e-01  -1.662639469193206e-01  0
2.402583651593697e-01  -1.157023302030511e-01  0
2.599807768657990e-01  -5.933891559275891e-02  0
2.599807767893617e-01  5.933891592765232e-02  0
2.402583648472557e-01  1.157023308511625e-01  0
2.084883951784925e-01  1.662639477438379e-01  0
1.662639469193206e-01  2.084883958360231e-01  0
1.157023302030511e-01  2.402583651593697e-01  0
5.933891559275891e-02  2.599807768657990e-01  0
Edges
56
4  10  1
10  11  1
11  12  1
12  13  1
13  14  1
14  15  1
5  15  1
5  16  1
16  17  1
17  18  1
18  19  1
19  20  1
20  21  1
2  21  1
2  22  1
22  23  1
23  24  1
24  25  1
25  26  1
26  27  1
3  27  1
3  28  1
28  29  1
29  30  1
30  31  1
31  32  1
32  33  1
4  33  1
7  34  2
34  35  2
35  36  2
36  37  2
37  38  2
38  39  2
8  39  2
8  40  2
40  41  2
41  42  2
42  43  2
43  44  2
44  45  2
9  45  2
9  46  2
46  47  2
47  48  2
48  49  2
49  50  2
50  51  2
6  51  2
6  52  2
52  53  2
53  54  2
54  55  2
55  56  2
56  57  2
7  57  2
Triangles
28
1  68  86  1
1  86  87  1
1  87  88  1
1  88  89  1
1  89  90  1
1  90  91  1
1  91  62  1
1  62  122  1
1  122  123  1
1  123  124  1
1  124  125  1
1  125  126  1
1  126  127  1
1  127  80  1
1  80  158  1
1  158  159  1
1  159  160  1
1  160  161  1
1  161  162  1
1  162  163  1
1  163  74  1
1  74  194  1
1  194  195  1
1  195  196  1
1  196  197  1
1  197  198  1
1  198  199  1
1  199  68  1
Quadrilaterals
224
68  69  92  86  1
86  92  93  87  1
87  93  94  88  1
88  94  95  89  1
89  95  96  90  1
90  96  97  91  1
91  97  63  62  1
69  70  98  92  1
92  98  99  93  1
93  99  100  94  1
94  100  101  95  1
95  101  102  96  1
96  102  103  97  1
97  103  64  63  1
70  71  104  98  1
98  104  105  99  1
99  105  106  100  1
100  106  107  101  1
101  107  108  102  1
102  108  109  103  1
103  109  65  64  1
71  72  110  104  1
104  110  111  105  1
105  111  112  106  1
106  112  113  107  1
107  113  114  108  1
108  114  115  109  1
109  115  66  65  1
72  73  116  110  1
110  116  117  111  1
111  117  118  112  1
112  118  119  113  1
113  119  120  114  1
114  120  121  115  1
115  121  67  66  1
73  2  22  116  1
116  22  23  117  1
117  23  24  118  1
118  24  25  119  1
119  25  26  120  1
120  26  27  121  1
121  27  3  67  1
62  63  128  122  1
122  128  129  123  1
123  129  130  124  1
124  130  131  125  1
125  131  132  126  1
126  132  133  127  1
127  133  81  80  1
63  64  134  128  1
128  134  135  129  1
129  135  136  130  1
130  136  137  131  1
131  137  138  132  1
132  138  139  133  1
133  139  82  81  1
64  65  140  134  1
134  140  141  135  1
135  141  142  136  1
136  142  143  137  1
137  143  144  138  1
138  144  145  139  1
139  145  83  82  1
65  66  146  140  1
140  146  147  141  1
141  147  148  142  1
142  148  149  143  1
143  149  150  144  1
144  150  151  145  1
145  151  84  83  1
66  67  152  146  1
146  152  153  147  1
147  153  154  148  1
148  154  155  149  1
149  155  156  150  1
150  156  157  151  1
151  157  85  84  1
67  3  28  152  1
152  28  29  153  1
153  29  30  154  1
154  30  31  155  1
155  31  32  156  1
156  32  33  157  1
157  33  4  85  1
80  81  164  158  1
158  164  165  159  1
159  165  166  160  1
160  166  167  161  1
161  167  168  162  1
162  168  169  163  1
163  169  75  74  1
81  82  170  164  1
164  170  171  165  1
165  171  172  166  1
166  172  173  167  1
167  173  174  168  1
168  174  175  169  1
169  175  76  75  1
82  83  176  170  1
170  176  177  171  1
171  177  178  172  1
172  178  179  173  1
173  179  180  174  1
174  180  181  175  1
175  181  77  76  1
83  84  182  176  1
176  182  183  177  1
177  183  184  178  1
178  184  185  179  1
179  185  186  180  1
180  186  187  181  1
181  187  78  77  1
84  85  188  182  1
182  188  189  183  1
183  189  190  184  1
184  190  191  185  1
185  191  192  186  1
186  192  193  187  1
187  193  79  78  1
85  4  10  188  1
188  10  11  189  1
189  11  12  190  1
190  12  13  191  1
191  13  14  192  1
192  14  15  193  1
193  15  5  79  1
74  75  200  194  1
194  200  201  195  1
195  201  202  196  1
196  202  203  197  1
197  203  204  198  1
198  204  205  199  1
199  205  69  68  1
75  76  206  200  1
200  206  207  201  1
201  207  208  202  1
202  208  209  203  1
203  209  210  204  1
204  210  211  205  1
205  211  70  69  1
76  77  212  206  1
206  212  213  207  1
207  213  214  208  1
208  214  215  209  1
209  215  216  210  1
210  216  217  211  1
211  217  71  70  1
77  78  218  212  1
212  218  219  213  1
213  219  220  214  1
214  220  221  215  1
215  221  222  216  1
216  222  223  217  1
217  223  72  71  1
78  79  224  218  1
218  224  225  219  1
219  225  226  220  1
220  226  227  221  1
221  227  228  222  1
222  228  229  223  1
223  229  73  72  1
79  5  16  224  1
224  16  17  225  1
225  17  18  226  1
226  18  19  227  1
227  19  20  228  1
228  20  21  229  1
229  21  2  73  1
7  34  230  58  2
58  230  28  3  2
34  35  231  230  2
230  231  29  28  2
35  36  232  231  2
231  232  30  29  2
36  37  233  232  2
232  233  31  30  2
37  38  234  233  2
233  234  32  31  2
38  39  235  234  2
234  235  33  32  2
39  8  61  235  2
235  61  4  33  2
8  40  236  61  2
61  236  10  4  2
40  41  237  236  2
236  237  11  10  2
41  42  238  237  2
237  238  12  11  2
42  43  239  238  2
238  239  13  12  2
43  44  240  239  2
239  240  14  13  2
44  45  241  240  2
240  241  15  14  2
45  9  60  241  2
241  60  5  15  2
9  46  242  60  2
60  242  16  5  2
46  47  243  242  2
242  243  17  16  2
47  48  244  243  2
243  244  18  17  2
48  49  245  244  2
244  245  19  18  2
49  50  246  245  2
245  246  20  19  2
50  51  247  246  2
246  247  21  20  2
51  6  59  247  2
247  59  2  21  2
6  52  248  59  2
59  248  22  2  2
52  53  249  248  2
248  249  23  22  2
53  54  250  249  2
249  250  24  23  2
54  55  251  250  2
250  251  25  24  2
55  56  252  251  2
251  252  26  25  2
56  57  253  252  2
252  253  27  26  2
57  7  58  253  2
253  58  3  27  2
End
