MeshVersionFormatted 1
Dimension 
2
Vertices
235
2.000000000000000e-01  0.000000000000000e+00  2
0.000000000000000e+00  2.000000000000000e-01  2
-2.000000000000000e-01  0.000000000000000e+00  2
0.000000000000000e+00  -2.000000000000000e-01  2
4.000000000000000e-01  0.000000000000000e+00  3
0.000000000000000e+00  4.000000000000000e-01  3
-4.000000000000000e-01  0.000000000000000e+00  3
0.000000000000000e+00  -4.000000000000000e-01  3
1.800000000000000e-01  0.000000000000000e+00  1
0.000000000000000e+00  1.800000000000000e-01  1
-1.800000000000000e-01  0.000000000000000e+00  1
0.000000000000000e+00  -1.800000000000000e-01  1
-1.949855824105597e-01  -4.450418690432184e-02  2
-1.801937734677461e-01  -8.677674805761390e-02  2
-1.563662962383485e-01  -1.246979606918294e-01  2
-1.246979600734415e-01  -1.563662967314965e-01  2
-8.677674757153037e-02  -1.801937737018316e-01  2
-4.450418665315178e-02  -1.949855824678877e-01  2
4.450418690432184e-02  -1.949855824105597e-01  2
8.677674805761390e-02  -1.801937734677461e-01  2
1.246979606918294e-01  -1.563662962383485e-01  2
1.563662967314965e-01  -1.246979600734415e-01  2
1.801937737018316e-01  -8.677674757153037e-02  2
1.949855824678877e-01  -4.450418665315178e-02  2
1.949855824105597e-01  4.450418690432184e-02  2
1.801937734677461e-01  8.677674805761390e-02  2
1.563662962383485e-01  1.246979606918294e-01  2
1.246979600734415e-01  1.563662967314965e-01  2
8.677674757153037e-02  1.801937737018316e-01  2
4.450418665315178e-02  1.949855824678877e-01  2
-4.450418690432184e-02  1.949855824105597e-01  2
-8.677674805761390e-02  1.801937734677461e-01  2
-1.246979606918294e-01  1.563662962383485e-01  2
-1.563662967314965e-01  1.246979600734415e-01  2
-1.801937737018316e-01  8.677674757153037e-02  2
-1.949855824678877e-01  4.450418665315178e-02  2
-8.900837380864368e-02  3.899711648211195e-01  3
-1.735534961152278e-01  3.603875469354922e-01  3
-2.493959213836588e-01  3.127325924766970e-01  3
-3.127325934629930e-01  2.493959201468829e-01  3
-3.603875474036632e-01  1.735534951430607e-01  3
-3.899711649357754e-01  8.900837330630355e-02  3
-3.899711648211195e-01  -8.900837380864368e-02  3
-3.603875469354922e-01  -1.735534961152278e-01  3
-3.127325924766970e-01  -2.493959213836588e-01  3
-2.493959201468829e-01  -3.127325934629930e-01  3
-1.735534951430607e-01  -3.603875474036632e-01  3
-8.900837330630355e-02  -3.899711649357754e-01  3
8.900837380864368e-02  -3.899711648211195e-01  3
1.735534961152278e-01  -3.603875469354922e-01  3
2.493959213836588e-01  -3.127325924766970e-01  3
3.127325934629930e-01  -2.493959201468829e-01  3
3.603875474036632e-01  -1.735534951430607e-01  3
3.899711649357754e-01  -8.900837330630355e-02  3
3.899711648211195e-01  8.900837380864368e-02  3
3.603875469354922e-01  1.735534961152278e-01  3
3.127325924766970e-01  2.493959213836588e-01  3
2.493959201468829e-01  3.127325934629930e-01  3
1.735534951430607e-01  3.603875474036632e-01  3
8.900837330630355e-02  3.899711649357754e-01  3
0.000000000000000e+00  2.153846160680856e-01  0
0.000000000000000e+00  2.615384615128076e-01  0
2.153846160680856e-01  0.000000000000000e+00  0
2.615384615128076e-01  0.000000000000000e+00  0
0.000000000000000e+00  -2.153846160680856e-01  0
0.000000000000000e+00  -2.615384615128076e-01  0
-2.153846160680856e-01  0.000000000000000e+00  0
-2.615384615128076e-01  0.000000000000000e+00  0
1.754870241688528e-01  4.005376821674136e-02  1
1.621743961146959e-01  7.809907326488373e-02  1
1.407296666028080e-01  1.122281646373249e-01  1
1.122281640579459e-01  1.407296670648472e-01  1
7.809907281610942e-02  1.621743963308143e-01  1
4.005376798917950e-02  1.754870242207924e-01  1
-4.005376821674136e-02  1.754870241688528e-01  1
-7.809907326488373e-02  1.621743961146959e-01  1
-1.122281646373249e-01  1.407296666028080e-01  1
-1.407296670648472e-01  1.122281640579459e-01  1
-1.621743963308143e-01  7.809907281610942e-02  1
-1.754870242207924e-01  4.005376798917950e-02  1
-1.754870241688528e-01  -4.005376821674136e-02  1
-1.621743961146959e-01  -7.809907326488373e-02  1
-1.407296666028080e-01  -1.122281646373249e-01  1
-1.122281640579459e-01  -1.407296670648472e-01  1
-7.809907281610942e-02  -1.621743963308143e-01  1
-4.005376798917950e-02  -1.754870242207924e-01  1
4.005376821674136e-02  -1.754870241688528e-01  1
7.809907326488373e-02  -1.621743961146959e-01  1
1.122281646373249e-01  -1.407296666028080e-01  1
1.407296670648472e-01  -1.122281640579459e-01  1
1.621743963308143e-01  -7.809907281610942e-02  1
1.754870242207924e-01  -4.005376798917950e-02  1
0.000000000000000e+00  1.899999999999566e-01  0
1.899999999999566e-01  0.000000000000000e+00  0
0.000000000000000e+00  -1.899999999999566e-01  0
-1.899999999999566e-01  0.000000000000000e+00  0
1.223905941777477e-01  -6.827307139026724e-02  0
-1.163128783606084e-01  8.233065297644701e-02  0
7.116729909590859e-02  1.266411610600185e-01  0
-7.547944774103582e-02  -1.124053469436777e-01  0
-3.736005012376818e-02  1.412571868554850e-01  0
1.362965928216501e-01  5.173236882127825e-02  0
-1.370521037721001e-01  -4.852756024017396e-02  0
5.832414275748828e-02  -1.286336158346146e-01  0
-1.425732751878803e-01  7.305598735461246e-03  0
1.683096857659663e-02  1.447957342765421e-01  0
-2.304888989936201e-02  -1.444073564412217e-01  0
1.376507138263380e-01  -1.227534410475629e-02  0
-6.517555499244737e-02  1.276831932994101e-01  0
-3.833901426494330e-02  1.053443588104886e-01  0
-6.970900021228937e-03  1.135280394309468e-01  0
-2.437184096354790e-02  7.447551045492862e-02  0
7.595106426269066e-03  8.137518523966066e-02  0
-7.542379407274172e-03  5.105733473468002e-02  0
-3.664639163173100e-02  3.490694832138556e-02  0
-1.249511038605308e-02  5.045026740813984e-03  0
2.504224121272192e-02  2.914962260487402e-02  0
3.126101885487943e-03  -2.883688694599365e-02  0
-3.582480414254304e-02  -4.128384411692369e-02  0
5.394638131238200e-02  -1.530052007324210e-02  0
4.247299256632599e-02  -6.074274267040296e-02  0
6.922201916291196e-02  2.845468866005262e-02  0
7.692249316660409e-02  -5.072925885529941e-02  0
8.283096314581995e-02  -8.176591004648982e-02  0
4.716980936636197e-02  -9.484819821536870e-02  0
-5.994012406998395e-02  7.142110492409771e-02  0
-6.689275939781242e-02  1.868635681604536e-02  0
4.067291238667074e-02  6.757450850849701e-02  0
7.131300312180361e-02  5.848618485754468e-02  0
-4.999596621036308e-02  -1.025296759285525e-02  0
-6.787547437789170e-02  -5.243924089811678e-02  0
-3.239668599904515e-02  -7.459176147089033e-02  0
-8.593995251200418e-02  -2.596808949485397e-02  0
-9.959869619319528e-02  -5.566564663639661e-02  0
5.772682114343617e-03  -6.705940106305518e-02  0
3.061552412819836e-03  -1.088623780539378e-01  0
9.951554106297041e-02  -7.093201257389718e-03  0
5.201260147450163e-02  9.783328843150646e-02  0
-6.575854004791025e-02  -7.848854634686712e-02  0
-3.583692961396834e-02  -1.053871084618818e-01  0
-9.635294254714323e-02  4.602488440438813e-02  0
-1.026175701411163e-01  -8.640950372455952e-02  0
-8.886916899679294e-02  1.054275148231530e-01  0
-1.045077409562687e-01  5.013300774070281e-03  0
1.021997613866440e-01  2.452008338231113e-02  0
1.178348649013145e-01  -9.891851425113557e-02  0
1.292496984189389e-01  8.324950121980934e-02  0
1.079124296730452e-01  1.031053813884145e-01  0
-1.451074967808037e-01  -2.521089600476891e-02  0
-6.150788657726185e-03  1.443463335289435e-01  0
1.845597650285563e-02  -1.468693052618604e-01  0
1.356802137669199e-01  2.365597080302590e-02  0
-1.395527883839650e-01  4.815896210186859e-02  0
4.683591059960504e-02  1.379146963189379e-01  0
1.466903439754356e-01  -4.007022891218932e-02  0
-5.208323050565546e-02  -1.344454782901698e-01  0
-1.277494639533539e-01  -7.907679509481011e-02  0
9.363168523374610e-02  -1.117453985349300e-01  0
2.682060041966340e-02  1.185157856755353e-01  0
-1.187559593418414e-01  -2.344617111081717e-02  0
1.055766829962544e-01  -3.772750959715841e-02  0
8.461489596708455e-02  9.093700584883918e-02  0
1.048974780872926e-01  5.962523330423440e-02  0
-4.227897756052195e-02  1.852363032896640e-01  0
-8.243791066122999e-02  1.711840847911819e-01  0
-1.184630626645501e-01  1.485479814205443e-01  0
-1.485479818981380e-01  1.184630620656667e-01  0
-1.711840850162838e-01  8.243791019380108e-02  0
-1.852363033442977e-01  4.227897732115599e-02  0
-1.852363032896640e-01  -4.227897756052195e-02  0
-1.711840847911819e-01  -8.243791066122999e-02  0
-1.485479814205443e-01  -1.184630626645501e-01  0
-1.184630620656667e-01  -1.485479818981380e-01  0
-8.243791019380108e-02  -1.711840850162838e-01  0
-4.227897732115599e-02  -1.852363033442977e-01  0
4.227897756052195e-02  -1.852363032896640e-01  0
8.243791066122999e-02  -1.711840847911819e-01  0
1.184630626645501e-01  -1.485479814205443e-01  0
1.485479818981380e-01  -1.184630620656667e-01  0
1.711840850162838e-01  -8.243791019380108e-02  0
1.852363033442977e-01  -4.227897732115599e-02  0
1.852363032896640e-01  4.227897756052195e-02  0
1.711840847911819e-01  8.243791066122999e-02  0
1.485479814205443e-01  1.184630626645501e-01  0
1.184630620656667e-01  1.485479818981380e-01  0
8.243791019380108e-02  1.711840850162838e-01  0
4.227897732115599e-02  1.852363033442977e-01  0
-5.819778286917388e-02  2.549811462041828e-01  0
-4.792758604904842e-02  2.099844740315524e-01  0
-1.134772859103643e-01  2.356380114347085e-01  0
-9.345188282013084e-02  1.940548335810505e-01  0
-1.630665639656282e-01  2.044790027531679e-01  0
-1.342901119404146e-01  1.683944734064262e-01  0
-2.044790033980537e-01  1.630665631569669e-01  0
-1.683944739375086e-01  1.342901112744583e-01  0
-2.356380117408203e-01  1.134772852747166e-01  0
-1.940548338331426e-01  9.345188229665624e-02  0
-2.549811462791501e-01  5.819778254072071e-02  0
-2.099844740932902e-01  4.792758577855757e-02  0
-2.549811462041828e-01  -5.819778286917388e-02  0
-2.099844740315524e-01  -4.792758604904842e-02  0
-2.356380114347085e-01  -1.134772859103643e-01  0
-1.940548335810505e-01  -9.345188282013084e-02  0
-2.044790027531679e-01  -1.630665639656282e-01  0
-1.683944734064262e-01  -1.342901119404146e-01  0
-1.630665631569669e-01  -2.044790033980537e-01  0
-1.342901112744583e-01  -1.683944739375086e-01  0
-1.134772852747166e-01  -2.356380117408203e-01  0
-9.345188229665624e-02  -1.940548338331426e-01  0
-5.819778254072071e-02  -2.549811462791501e-01  0
-4.792758577855757e-02  -2.099844740932902e-01  0
5.819778286917388e-02  -2.549811462041828e-01  0
4.792758604904842e-02  -2.099844740315524e-01  0
1.134772859103643e-01  -2.356380114347085e-01  0
9.345188282013084e-02  -1.940548335810505e-01  0
1.630665639656282e-01  -2.044790027531679e-01  0
1.342901119404146e-01  -1.683944734064262e-01  0
2.044790033980537e-01  -1.630665631569669e-01  0
1.683944739375086e-01  -1.342901112744583e-01  0
2.356380117408203e-01  -1.134772852747166e-01  0
1.940548338331426e-01  -9.345188229665624e-02  0
2.549811462791501e-01  -5.819778254072071e-02  0
2.099844740932902e-01  -4.792758577855757e-02  0
2.549811462041828e-01  5.819778286917388e-02  0
2.099844740315524e-01  4.792758604904842e-02  0
2.356380114347085e-01  1.134772859103643e-01  0
1.940548335810505e-01  9.345188282013084e-02  0
2.044790027531679e-01  1.630665639656282e-01  0
1.683944734064262e-01  1.342901119404146e-01  0
1.630665631569669e-01  2.044790033980537e-01  0
1.342901112744583e-01  1.683944739375086e-01  0
1.134772852747166e-01  2.356380117408203e-01  0
9.345188229665624e-02  1.940548338331426e-01  0
5.819778254072071e-02  2.549811462791501e-01  0
4.792758577855757e-02  2.099844740932902e-01  0
Edges
84
3  13  2
13  14  2
14  15  2
15  16  2
16  17  2
17  18  2
4  18  2
4  19  2
19  20  2
20  21  2
21  22  2
22  23  2
23  24  2
1  24  2
1  25  2
25  26  2
26  27  2
27  28  2
28  29  2
29  30  2
2  30  2
2  31  2
31  32  2
32  33  2
33  34  2
34  35  2
35  36  2
3  36  2
6  37  3
37  38  3
38  39  3
39  40  3
40  41  3
41  42  3
7  42  3
7  43  3
43  44  3
44  45  3
45  46  3
46  47  3
47  48  3
8  48  3
8  49  3
49  50  3
50  51  3
51  52  3
52  53  3
53  54  3
5  54  3
5  55  3
55  56  3
56  57  3
57  58  3
58  59  3
59  60  3
6  60  3
9  69  1
69  70  1
70  71  1
71  72  1
72  73  1
73  74  1
10  74  1
10  75  1
75  76  1
76  77  1
77  78  1
78  79  1
79  80  1
11  80  1
11  81  1
81  82  1
82  83  1
83  84  1
84  85  1
85  86  1
12  86  1
12  87  1
87  88  1
88  89  1
89  90  1
90  91  1
91  92  1
9  92  1
Triangles
24
136  107  151  1
108  137  161  1
112  110  126  1
131  133  134  1
72  73  99  1
120  121  123  1
117  120  122  1
113  112  114  1
83  142  157  1
111  113  159  1
141  98  153  1
127  141  144  1
101  109  110  1
100  139  142  1
70  71  147  1
69  102  152  1
12  87  151  1
79  80  153  1
140  100  156  1
162  129  163  1
99  138  162  1
149  103  160  1
133  144  160  1
102  147  163  1
Quadrilaterals
208
105  144  141  153  1
163  147  148  162  1
104  125  136  151  1
143  98  141  126  1
78  98  143  77  1
145  163  129  122  1
97  146  90  91  1
111  159  106  150  1
160  144  105  149  1
97  161  123  124  1
138  99  154  159  1
84  100  142  83  1
137  145  122  120  1
129  162  138  128  1
158  104  88  89  1
12  151  107  86  1
138  159  113  128  1
137  108  152  145  1
105  153  80  11  1
115  114  112  126  1
122  129  128  117  1
152  108  9  69  1
115  127  130  116  1
111  110  112  113  1
114  115  116  117  1
131  139  132  119  1
119  118  116  130  1
117  116  118  120  1
76  109  101  75  1
104  151  87  88  1
121  120  118  135  1
127  144  133  130  1
119  132  135  118  1
103  149  81  82  1
130  133  131  119  1
128  113  114  117  1
140  132  139  100  1
132  140  136  135  1
10  150  106  74  1
158  124  125  104  1
124  123  121  125  1
126  141  127  115  1
73  74  154  99  1
108  155  92  9  1
123  161  137  120  1
134  142  139  131  1
85  156  100  84  1
134  133  160  103  1
79  153  98  78  1
70  147  102  69  1
102  163  145  152  1
99  162  148  72  1
111  150  101  110  1
110  109  143  126  1
125  121  135  136  1
140  156  107  136  1
148  147  71  72  1
154  74  106  159  1
155  108  161  97  1
157  142  134  103  1
89  90  146  158  1
150  10  75  101  1
124  158  146  97  1
149  105  11  81  1
156  85  86  107  1
157  103  82  83  1
155  97  91  92  1
109  76  77  143  1
2  31  164  93  2
93  164  75  10  2
31  32  165  164  2
164  165  76  75  2
32  33  166  165  2
165  166  77  76  2
33  34  167  166  2
166  167  78  77  2
34  35  168  167  2
167  168  79  78  2
35  36  169  168  2
168  169  80  79  2
36  3  96  169  2
169  96  11  80  2
3  13  170  96  2
96  170  81  11  2
13  14  171  170  2
170  171  82  81  2
14  15  172  171  2
171  172  83  82  2
15  16  173  172  2
172  173  84  83  2
16  17  174  173  2
173  174  85  84  2
17  18  175  174  2
174  175  86  85  2
18  4  95  175  2
175  95  12  86  2
4  19  176  95  2
95  176  87  12  2
19  20  177  176  2
176  177  88  87  2
20  21  178  177  2
177  178  89  88  2
21  22  179  178  2
178  179  90  89  2
22  23  180  179  2
179  180  91  90  2
23  24  181  180  2
180  181  92  91  2
24  1  94  181  2
181  94  9  92  2
1  25  182  94  2
94  182  69  9  2
25  26  183  182  2
182  183  70  69  2
26  27  184  183  2
183  184  71  70  2
27  28  185  184  2
184  185  72  71  2
28  29  186  185  2
185  186  73  72  2
29  30  187  186  2
186  187  74  73  2
30  2  93  187  2
187  93  10  74  2
6  37  188  62  3
62  188  189  61  3
61  189  31  2  3
37  38  190  188  3
188  190  191  189  3
189  191  32  31  3
38  39  192  190  3
190  192  193  191  3
191  193  33  32  3
39  40  194  192  3
192  194  195  193  3
193  195  34  33  3
40  41  196  194  3
194  196  197  195  3
195  197  35  34  3
41  42  198  196  3
196  198  199  197  3
197  199  36  35  3
42  7  68  198  3
198  68  67  199  3
199  67  3  36  3
7  43  200  68  3
68  200  201  67  3
67  201  13  3  3
43  44  202  200  3
200  202  203  201  3
201  203  14  13  3
44  45  204  202  3
202  204  205  203  3
203  205  15  14  3
45  46  206  204  3
204  206  207  205  3
205  207  16  15  3
46  47  208  206  3
206  208  209  207  3
207  209  17  16  3
47  48  210  208  3
208  210  211  209  3
209  211  18  17  3
48  8  66  210  3
210  66  65  211  3
211  65  4  18  3
8  49  212  66  3
66  212  213  65  3
65  213  19  4  3
49  50  214  212  3
212  214  215  213  3
213  215  20  19  3
50  51  216  214  3
214  216  217  215  3
215  217  21  20  3
51  52  218  216  3
216  218  219  217  3
217  219  22  21  3
52  53  220  218  3
218  220  221  219  3
219  221  23  22  3
53  54  222  220  3
220  222  223  221  3
221  223  24  23  3
54  5  64  222  3
222  64  63  223  3
223  63  1  24  3
5  55  224  64  3
64  224  225  63  3
63  225  25  1  3
55  56  226  224  3
224  226  227  225  3
225  227  26  25  3
56  57  228  226  3
226  228  229  227  3
227  229  27  26  3
57  58  230  228  3
228  230  231  229  3
229  231  28  27  3
58  59  232  230  3
230  232  233  231  3
231  233  29  28  3
59  60  234  232  3
232  234  235  233  3
233  235  30  29  3
60  6  62  234  3
234  62  61  235  3
235  61  2  30  3
End
