MeshVersionFormatted 1
Dimension 
2
Vertices
495
2.000000000000000e-01  0.000000000000000e+00  1
0.000000000000000e+00  2.000000000000000e-01  1
-2.000000000000000e-01  0.000000000000000e+00  1
0.000000000000000e+00  -2.000000000000000e-01  1
4.000000000000000e-01  0.000000000000000e+00  2
0.000000000000000e+00  4.000000000000000e-01  2
-4.000000000000000e-01  0.000000000000000e+00  2
0.000000000000000e+00  -4.000000000000000e-01  2
-1.989043790683833e-01  -2.090569270368413e-02  1
-1.956295201244588e-01  -4.158233826847609e-02  1
-1.902113032067562e-01  -6.180339903587398e-02  1
-1.827090914319749e-01  -8.134732883200430e-02  1
-1.732050806066796e-01  -1.000000002601682e-01  1
-1.618033986553715e-01  -1.175570507607729e-01  1
-1.486289647956338e-01  -1.338261216047833e-01  1
-1.338261209450038e-01  -1.486289653897019e-01  1
-1.175570501746842e-01  -1.618033990811899e-01  1
-9.999999972536942e-02  -1.732050809154458e-01  1
-8.134732837062497e-02  -1.827090916373942e-01  1
-6.180339869565232e-02  -1.902113033173009e-01  1
-4.158233803562049e-02  -1.956295201739538e-01  1
-2.090569259510842e-02  -1.989043790797951e-01  1
2.090569270368413e-02  -1.989043790683833e-01  1
4.158233826847609e-02  -1.956295201244588e-01  1
6.180339903587398e-02  -1.902113032067562e-01  1
8.134732883200430e-02  -1.827090914319749e-01  1
1.000000002601682e-01  -1.732050806066796e-01  1
1.175570507607729e-01  -1.618033986553715e-01  1
1.338261216047833e-01  -1.486289647956338e-01  1
1.486289653897019e-01  -1.338261209450038e-01  1
1.618033990811899e-01  -1.175570501746842e-01  1
1.732050809154458e-01  -9.999999972536942e-02  1
1.827090916373942e-01  -8.134732837062497e-02  1
1.902113033173009e-01  -6.180339869565232e-02  1
1.956295201739538e-01  -4.158233803562049e-02  1
1.989043790797951e-01  -2.090569259510842e-02  1
1.989043790683833e-01  2.090569270368413e-02  1
1.956295201244588e-01  4.158233826847609e-02  1
1.902113032067562e-01  6.180339903587398e-02  1
1.827090914319749e-01  8.134732883200430e-02  1
1.732050806066796e-01  1.000000002601682e-01  1
1.618033986553715e-01  1.175570507607729e-01  1
1.486289647956338e-01  1.338261216047833e-01  1
1.338261209450038e-01  1.486289653897019e-01  1
1.175570501746842e-01  1.618033990811899e-01  1
9.999999972536942e-02  1.732050809154458e-01  1
8.134732837062497e-02  1.827090916373942e-01  1
6.180339869565232e-02  1.902113033173009e-01  1
4.158233803562049e-02  1.956295201739538e-01  1
2.090569259510842e-02  1.989043790797951e-01  1
-2.090569270368413e-02  1.989043790683833e-01  1
-4.158233826847609e-02  1.956295201244588e-01  1
-6.180339903587398e-02  1.902113032067562e-01  1
-8.134732883200430e-02  1.827090914319749e-01  1
-1.000000002601682e-01  1.732050806066796e-01  1
-1.175570507607729e-01  1.618033986553715e-01  1
-1.338261216047833e-01  1.486289647956338e-01  1
-1.486289653897019e-01  1.338261209450038e-01  1
-1.618033990811899e-01  1.175570501746842e-01  1
-1.732050809154458e-01  9.999999972536942e-02  1
-1.827090916373942e-01  8.134732837062497e-02  1
-1.902113033173009e-01  6.180339869565232e-02  1
-1.956295201739538e-01  4.158233803562049e-02  1
-1.989043790797951e-01  2.090569259510842e-02  1
-4.181138540736826e-02  3.978087581367666e-01  2
-8.316467653695217e-02  3.912590402489176e-01  2
-1.236067980717480e-01  3.804226064135123e-01  2
-1.626946576640086e-01  3.654181828639498e-01  2
-2.000000005203365e-01  3.464101612133591e-01  2
-2.351141015215458e-01  3.236067973107430e-01  2
-2.676522432095665e-01  2.972579295912677e-01  2
-2.972579307794038e-01  2.676522418900076e-01  2
-3.236067981623797e-01  2.351141003493683e-01  2
-3.464101618308916e-01  1.999999994507388e-01  2
-3.654181832747884e-01  1.626946567412499e-01  2
-3.804226066346018e-01  1.236067973913046e-01  2
-3.912590403479076e-01  8.316467607124098e-02  2
-3.978087581595902e-01  4.181138519021685e-02  2
-3.978087581367666e-01  -4.181138540736826e-02  2
-3.912590402489176e-01  -8.316467653695217e-02  2
-3.804226064135123e-01  -1.236067980717480e-01  2
-3.654181828639498e-01  -1.626946576640086e-01  2
-3.464101612133591e-01  -2.000000005203365e-01  2
-3.236067973107430e-01  -2.351141015215458e-01  2
-2.972579295912677e-01  -2.676522432095665e-01  2
-2.676522418900076e-01  -2.972579307794038e-01  2
-2.351141003493683e-01  -3.236067981623797e-01  2
-1.999999994507388e-01  -3.464101618308916e-01  2
-1.626946567412499e-01  -3.654181832747884e-01  2
-1.236067973913046e-01  -3.804226066346018e-01  2
-8.316467607124098e-02  -3.912590403479076e-01  2
-4.181138519021685e-02  -3.978087581595902e-01  2
4.181138540736826e-02  -3.978087581367666e-01  2
8.316467653695217e-02  -3.912590402489176e-01  2
1.236067980717480e-01  -3.804226064135123e-01  2
1.626946576640086e-01  -3.654181828639498e-01  2
2.000000005203365e-01  -3.464101612133591e-01  2
2.351141015215458e-01  -3.236067973107430e-01  2
2.676522432095665e-01  -2.972579295912677e-01  2
2.972579307794038e-01  -2.676522418900076e-01  2
3.236067981623797e-01  -2.351141003493683e-01  2
3.464101618308916e-01  -1.999999994507388e-01  2
3.654181832747884e-01  -1.626946567412499e-01  2
3.804226066346018e-01  -1.236067973913046e-01  2
3.912590403479076e-01  -8.316467607124098e-02  2
3.978087581595902e-01  -4.181138519021685e-02  2
3.978087581367666e-01  4.181138540736826e-02  2
3.912590402489176e-01  8.316467653695217e-02  2
3.804226064135123e-01  1.236067980717480e-01  2
3.654181828639498e-01  1.626946576640086e-01  2
3.464101612133591e-01  2.000000005203365e-01  2
3.236067973107430e-01  2.351141015215458e-01  2
2.972579295912677e-01  2.676522432095665e-01  2
2.676522418900076e-01  2.972579307794038e-01  2
2.351141003493683e-01  3.236067981623797e-01  2
1.999999994507388e-01  3.464101618308916e-01  2
1.626946567412499e-01  3.654181832747884e-01  2
1.236067973913046e-01  3.804226066346018e-01  2
8.316467607124098e-02  3.912590403479076e-01  2
4.181138519021685e-02  3.978087581595902e-01  2
0.000000000000000e+00  2.500000009931378e-01  0
2.500000009931378e-01  0.000000000000000e+00  0
0.000000000000000e+00  -2.500000009931378e-01  0
-2.500000009931378e-01  0.000000000000000e+00  0
-1.201515141171371e-01  -1.419601386026941e-01  0
1.173823805084937e-01  1.402422630794060e-01  0
1.367484129782916e-01  -1.166263777071886e-01  0
-1.362609481494708e-01  1.202930410643361e-01  0
3.114837890740071e-02  -1.773075138502920e-01  0
1.773191170421306e-01  2.835882170154154e-02  0
-3.326569184469415e-02  1.799413462380081e-01  0
-1.810675586665838e-01  -1.035584791988685e-02  0
-1.591221167977911e-01  -7.875633893639875e-02  0
1.768596916966499e-01  -4.363157591476686e-02  0
4.622286794413294e-02  1.765332170490475e-01  0
-5.022821326646060e-02  -1.742613003447141e-01  0
-1.674957556836388e-01  6.749683116093629e-02  0
9.491749706911634e-02  -1.513188731964928e-01  0
1.555543790512180e-01  9.481386638771086e-02  0
-9.536569182995434e-02  1.571103539888134e-01  0
-1.805733317527596e-01  2.202280500381420e-02  0
-1.366416907429544e-01  -1.147421573083265e-01  0
1.788994186500919e-01  -8.434334631809213e-03  0
1.297943271963452e-02  1.807547966603643e-01  0
1.655659555502692e-01  -8.295506380631247e-02  0
8.309866188621319e-02  1.640921881767392e-01  0
-1.247294259751398e-02  -1.802563102567628e-01  0
1.697677466002489e-01  6.124156536292553e-02  0
6.738290439153455e-02  -1.734045839256697e-01  0
-6.363734417409238e-02  1.650678223456404e-01  0
-8.769914404681570e-02  -1.564149596957499e-01  0
-1.770741852716976e-01  -4.533718039690191e-02  0
1.414572877674712e-01  1.111068740195878e-01  0
1.338217545933947e-01  9.169807078396490e-02  0
1.451465804914848e-01  7.462310021555073e-02  0
1.226561006768837e-01  7.246075716061758e-02  0
1.298564092408468e-01  5.284954679703047e-02  0
1.083735256554347e-01  5.595409269523102e-02  0
1.023297244181927e-01  8.071649617703755e-02  0
9.082024982131318e-02  6.103794096158918e-02  0
1.012672889383573e-01  3.898521107849788e-02  0
8.068449129048023e-02  4.116743338599119e-02  0
6.882448947296861e-02  6.690560801903445e-02  0
5.915448387508294e-02  4.292568082827897e-02  0
7.107927332664124e-02  2.162429524582976e-02  0
4.983732724462090e-02  2.291715493862193e-02  0
3.711185306974479e-02  4.241642100785691e-02  0
2.867656714154519e-02  2.294377551706158e-02  0
4.038536166997617e-02  4.024017543097573e-03  0
1.982100449035846e-02  4.316465279384937e-03  0
7.812476819922861e-03  2.225168506417193e-02  0
-5.750361568263207e-04  3.753875647067847e-03  0
1.108368294449491e-02  -1.363962255048932e-02  0
-6.554351419402295e-03  -1.268826585292765e-02  0
-2.111697922754747e-02  2.675822857978197e-03  0
2.016261574082597e-03  -3.134073290082195e-02  0
-2.874576603014659e-02  -1.859193226307786e-02  0
-4.206883716880414e-02  1.749935075999952e-03  0
-4.868300007743909e-02  -1.595109040106235e-02  0
-6.346717308008032e-02  1.006246409904844e-03  0
-5.456054987128388e-02  2.034956648024290e-02  0
-7.249823944653828e-02  -2.096646414607278e-02  0
-5.903722617821371e-02  -3.367403940918923e-02  0
-7.590656685319018e-02  2.028096850385396e-02  0
-6.807407049540018e-02  4.007687200365849e-02  0
2.175313625664978e-02  -3.411325904877908e-02  0
1.146699848498287e-02  -5.289244110064085e-02  0
2.973437067823220e-02  -5.901998849171720e-02  0
2.037939026881894e-02  -7.397566596236452e-02  0
4.521449908466271e-02  -6.803807256957047e-02  0
3.526098444562230e-03  -7.103668963200221e-02  0
1.856694841614451e-02  -8.994890086839101e-02  0
-5.966935939565233e-05  -8.916562286366057e-02  0
5.863909760493968e-02  -5.772168573848034e-02  0
6.989728130441875e-02  -7.066257423671794e-02  0
7.386128541069345e-02  -5.063936107768620e-02  0
-8.767103267569927e-02  -3.942242770331917e-02  0
-7.432457948581062e-02  -5.251447747845387e-02  0
-9.438953683105838e-02  -1.791316500027466e-02  0
-9.003075735004504e-02  3.974118736872654e-02  0
-8.763331292268264e-02  5.810161683828542e-02  0
-6.297912209487792e-02  6.473861834414242e-02  0
-7.509168058646859e-02  8.118765241674893e-02  0
-4.950398825610243e-02  8.449626041839194e-02  0
5.964044955484149e-02  -8.329306793404136e-02  0
-7.321565517969665e-04  -1.100979806101213e-01  0
-2.472472796585175e-02  -1.065314331265052e-01  0
-6.383094658290338e-02  9.696011997400880e-02  0
-3.866999341471632e-02  9.960487544750050e-02  0
-1.070259502950739e-01  5.653514640300847e-02  0
-1.089073000547354e-01  4.138051481868660e-02  0
8.259204866872358e-02  -6.480850768183127e-02  0
9.397191577212727e-02  -5.247672947834602e-02  0
-9.647415071483370e-02  -5.638451584243500e-02  0
-8.244521814919252e-02  -7.727722880757375e-02  0
-8.171792908873159e-02  9.582441521993590e-02  0
-3.066735740040276e-02  8.237459665904158e-02  0
-1.262930515157943e-02  9.870602813845675e-02  0
-2.733686019785820e-02  1.130886952093940e-01  0
-3.652518453831254e-03  1.177507543187933e-01  0
1.062505601590627e-02  1.021913298381115e-01  0
1.872367603695071e-02  1.215255786863565e-01  0
1.034699693149884e-01  -6.589705903602441e-02  0
9.714273104721012e-02  -7.915834808685918e-02  0
1.114794300177412e-01  -4.726238505534616e-02  0
1.071654036868728e-01  -3.189382750026652e-02  0
1.214749854786011e-01  -2.575058206738173e-02  0
-1.302179382140890e-02  -1.280283204439442e-01  0
9.515758832029536e-03  -1.307718856805358e-01  0
-3.107987530427926e-02  -1.243398031857145e-01  0
-1.000700665815926e-01  -7.185930666640601e-02  0
-1.127981235581891e-01  -5.381920412615486e-02  0
-9.529025080232761e-02  -9.451116157158902e-02  0
-7.022076904787582e-02  1.104503044031866e-01  0
1.160043335941270e-01  -1.116362228392333e-02  0
3.020103673027997e-02  9.907083857849557e-02  0
3.740954928932255e-02  1.191747957512686e-01  0
-3.967826158152316e-02  -1.048205125319471e-01  0
-5.374027217581519e-02  -5.917729732427104e-02  0
-1.228730308462104e-01  5.763635071323076e-02  0
-1.286259437522375e-01  4.287105770006391e-02  0
-1.653359413878404e-02  1.270762348881430e-01  0
2.764624436031707e-02  1.358197721576240e-01  0
-8.294836638522519e-02  1.103821298392332e-01  0
-5.137233857872815e-02  -1.186741798349148e-01  0
1.300421075356744e-01  -2.821385434641802e-03  0
5.075897468861857e-02  1.362095292783527e-01  0
5.468480772965990e-02  1.087919882790210e-01  0
1.205488770449572e-01  9.413410427271148e-03  0
9.506870164962161e-02  -1.470798887289547e-02  0
-9.735474934571822e-02  9.200780155895164e-02  0
7.747708125430942e-03  7.879798732027300e-02  0
-4.217139341541384e-02  1.268305855612466e-01  0
-1.208840700920002e-01  2.407073871400976e-02  0
-1.438857186882469e-01  2.114417875987473e-02  0
7.152320277879451e-02  -3.489347341577968e-02  0
-1.249662666202192e-01  4.789085403808111e-03  0
-1.151323029298036e-03  -1.471846246549352e-01  0
1.979469964705512e-02  -1.487439920870936e-01  0
3.125674705176371e-02  -1.249423897701622e-01  0
1.348296159620780e-01  -4.513326448013025e-02  0
1.143005122549705e-01  -8.250800344822597e-02  0
1.016783934574839e-01  -9.847943192561402e-02  0
8.415458177813896e-02  -1.006294557990208e-01  0
1.435892168586395e-01  8.522190462367404e-03  0
-1.187726127431333e-01  -7.324342818433670e-02  0
-1.284756258582647e-01  -4.997713535610195e-02  0
3.929047073184563e-02  -1.422369365561670e-01  0
1.317962282927737e-01  1.944222258276999e-02  0
2.873099686829433e-02  7.881504947700695e-02  0
-6.115773273793893e-02  -1.021625090141214e-01  0
-7.500681468459712e-02  -1.180564712582496e-01  0
-4.413391193811028e-02  -8.795800496317933e-02  0
-1.548966043396123e-02  -6.846758556822714e-02  0
5.163002981825481e-02  -1.218022338691254e-01  0
-1.204194063636152e-01  -3.340604520316819e-02  0
-1.443191482498889e-01  4.068036485889374e-03  0
5.673214263907288e-02  -1.378555282997643e-01  0
-3.810888844964859e-02  -1.420588442398767e-01  0
6.512603915621908e-02  1.255199789531871e-01  0
7.967067988216613e-02  1.161893670903808e-01  0
6.909989838846073e-02  9.878688036818509e-02  0
-8.165627672092196e-02  1.256168335138310e-01  0
-1.448270952977553e-01  3.758330356107149e-02  0
-1.400292902527199e-01  -3.731999787701350e-02  0
-1.004482551948761e-01  1.093300932042429e-01  0
-1.159453768623065e-01  8.678894987907702e-02  0
8.899367005804941e-02  -1.169465610883819e-01  0
-2.861815455787468e-02  1.433869589624999e-01  0
-8.072468449717443e-03  1.449954738313956e-01  0
-4.717685616786767e-02  1.467516039790384e-01  0
3.818265541008784e-02  1.461315379660265e-01  0
8.666447189168433e-02  1.289646622068673e-01  0
9.504640822431570e-02  1.080957661808917e-01  0
1.549241482801484e-01  -4.425038265050393e-03  0
1.169802387001492e-02  -1.650187866123864e-01  0
1.090521605912357e-01  -1.173335997390410e-01  0
1.584456488109891e-01  2.254962659101624e-02  0
1.204002915141684e-01  1.170159787487003e-01  0
-6.078320062841504e-03  -1.630830050791256e-01  0
1.390231469516277e-01  3.441198173277879e-02  0
1.129286790398697e-01  9.990621926290782e-02  0
9.507296125642294e-02  1.689632856814574e-02  0
1.190353875038769e-01  3.596053051042390e-02  0
7.951820815658771e-02  -1.041276984792610e-03  0
6.109127871725300e-02  2.398587224359236e-03  0
-8.387417041778802e-02  -1.028897578376151e-01  0
-9.588625487124813e-02  -1.162620935105335e-01  0
-1.076240984537877e-01  7.134767796613530e-02  0
-1.234054591676162e-01  7.115544658299315e-02  0
-1.341172777392405e-01  9.302526423879080e-02  0
-1.360923525289681e-01  5.645510445397708e-02  0
5.255074990485398e-02  -1.667286700058752e-02  0
4.246015337721865e-02  6.397216873164778e-02  0
-1.008849520319059e-01  1.291630350912850e-01  0
-1.158184046361882e-01  1.243126087212508e-01  0
2.051518775036070e-02  5.857957102362889e-02  0
2.270782796546046e-03  5.898980485363611e-02  0
1.195069469131829e-01  -6.749917904477459e-02  0
1.372791767331905e-01  -8.283504736268515e-02  0
-6.164442601611898e-02  -7.750519095718660e-02  0
6.051820527897336e-02  1.503457067584373e-01  0
3.153918969727755e-02  -1.521677763725523e-02  0
-9.172851839497877e-02  7.558002455968746e-02  0
6.285638483359875e-03  1.320599350304381e-01  0
-3.350782524167892e-02  2.079831835258960e-02  0
-1.275864766544832e-02  2.143876652908910e-02  0
-2.515364323514094e-02  3.992100677047069e-02  0
-1.868148119257714e-02  -1.442251046079077e-01  0
-3.470068423842611e-02  -6.467628592419274e-02  0
-2.512027443784481e-02  -4.523415891238382e-02  0
-5.885502030601981e-02  -1.402554840083209e-01  0
1.688611534727701e-02  1.448918588374169e-01  0
3.778410941969856e-02  -8.490687826380916e-02  0
4.473081709504437e-02  -1.039869092089810e-01  0
-2.507125784203009e-02  -1.608112205788501e-01  0
-7.211948128443360e-02  -9.275957948910178e-02  0
-8.492324939461091e-02  1.170812455978996e-03  0
1.409981748624031e-01  -1.929708387456175e-02  0
1.647697823586702e-01  -2.262086498743898e-02  0
1.673309184987026e-01  4.971167298460403e-03  0
1.566279187725908e-01  4.262104609256891e-02  0
-6.902122627628405e-03  -4.953986827473792e-02  0
-1.445701633559270e-02  -2.894758906936707e-02  0
-9.760475193562135e-02  2.144059934156234e-02  0
-2.031839153429618e-02  -8.787221916098070e-02  0
-4.233213387681482e-02  -3.953094197670783e-02  0
1.528003906644417e-01  -6.481589829239043e-02  0
2.382727573889599e-02  -1.068811685387797e-01  0
4.655651701854428e-02  -4.027707364337943e-02  0
-4.646928846070630e-02  4.032189678750515e-02  0
-1.625953261336355e-01  2.118342855343603e-02  0
-5.088542631238371e-02  1.093306656823241e-01  0
-3.864242880368716e-02  6.095939792273598e-02  0
-1.080555533600506e-01  -8.726068800580958e-02  0
-1.335230775247363e-01  -8.831063553993759e-02  0
-1.028662130190197e-01  -1.048019519035789e-01  0
7.905049533161107e-02  -8.485320056803101e-02  0
4.484875911762954e-02  9.266202645577298e-02  0
-4.933587662451885e-03  4.018964923604108e-02  0
-1.156245560074270e-02  7.792412641422204e-02  0
9.003487080744041e-02  -3.457900771952900e-02  0
6.486728952819634e-02  -1.020496839267917e-01  0
2.903056847431464e-02  -1.632181484921515e-01  0
-1.037332677627247e-01  -3.607200485754868e-02  0
-6.379801765224964e-02  1.239281076871499e-01  0
-1.061206483822212e-01  2.633849736362323e-03  0
-1.806468283099461e-02  5.959227965896642e-02  0
1.534651981858618e-02  4.110482909943548e-02  0
-6.388719266629922e-02  1.451935330566285e-01  0
-1.372831720987036e-01  -1.438146018904701e-02  0
7.126870532266179e-02  -1.196916475764501e-01  0
-1.143068534876493e-01  -1.622381312288201e-02  0
-1.602340633214494e-01  -2.034271027183994e-02  0
5.646907495939083e-02  8.352261681123778e-02  0
1.163968066636937e-01  2.210150047787171e-02  0
7.210198932546472e-02  -1.845317547932039e-02  0
1.071608975951252e-01  1.948867621222551e-03  0
8.429405147511380e-02  8.909036596493532e-02  0
2.839102762284615e-02  1.602699285431735e-01  0
-1.404887704419543e-01  7.412316554833738e-02  0
-1.530686945912387e-01  -5.331393263102664e-02  0
-4.679073954153368e-02  1.637688388960950e-01  0
1.243809895516416e-01  -1.000306879895439e-01  0
1.593179919248637e-01  -4.226265157867411e-02  0
7.747627285368811e-02  -1.382781333112039e-01  0
-1.401895133288521e-01  -6.731898672405870e-02  0
-8.000370696766193e-02  -1.379477344020596e-01  0
-6.579798452093737e-02  -1.620680210574534e-01  0
-1.185889070738497e-01  -1.032861495937483e-01  0
1.134847068243035e-01  -1.415645852147208e-01  0
1.628914930184440e-01  7.825528421036861e-02  0
-7.948633587819653e-02  1.642846183488135e-01  0
8.497853441802251e-02  -1.624956522532490e-01  0
-1.514876884556240e-01  -9.900602446800363e-02  0
4.830353079594006e-02  -1.742067437469717e-01  0
1.501862308791336e-01  -9.991786603009319e-02  0
9.709070094335996e-02  1.489992785046527e-01  0
-1.777529563189812e-01  -2.488395945135621e-02  0
-1.074139444509375e-02  1.835382646338595e-01  0
-1.776562340655761e-01  4.579512156675535e-02  0
1.734421711376228e-01  -6.113193397401766e-02  0
6.453781883307702e-02  1.670069674977472e-01  0
1.053082670362137e-02  -1.830325855887653e-01  0
-3.246189654034602e-02  -1.776942611901371e-01  0
-1.014978869725285e-01  -1.515998316283717e-01  0
-1.264887034342564e-01  -1.286505967508743e-01  0
-1.830296182250732e-01  4.078014080774221e-03  0
-1.196451461693119e-02  1.647084954742965e-01  0
-1.668819480322389e-01  -6.232343432746847e-02  0
1.502229158601500e-01  5.809548614961422e-02  0
-1.576227399985179e-01  8.645110010505692e-02  0
7.882612197774294e-03  1.606341592722933e-01  0
4.531889235637701e-02  -1.586588182927493e-01  0
-1.644991964313268e-01  3.718335757998063e-05  0
-1.513139159762014e-01  5.548335069064118e-02  0
-1.131690635641067e-01  -1.212706544897873e-01  0
-1.093122846021173e-01  1.461807856455327e-01  0
1.232173354573382e-01  -1.316020610110474e-01  0
1.312615247087472e-01  1.316477523554069e-01  0
1.845151120679911e-01  1.039646953115656e-02  0
-4.258137187609586e-02  -1.582680770732691e-01  0
1.794754877905590e-01  -2.971208293190683e-02  0
3.289884135352728e-02  1.783938568832551e-01  0
-1.200322241916457e-01  1.089797258979282e-01  0
-1.586565334319164e-01  -3.771790444699673e-02  0
7.743008102277145e-02  1.419023623392248e-01  0
-8.314352699766996e-02  1.444549733554182e-01  0
-1.605745029477356e-01  3.902995192100389e-02  0
-1.470805544024097e-01  1.042364200190707e-01  0
9.873309070637970e-02  -1.342569381979740e-01  0
1.726971814546550e-01  4.474732117139246e-02  0
6.538396148215053e-02  -1.545072693923110e-01  0
-4.651743349620788e-02  1.769692858077224e-01  0
1.035065505986116e-01  1.293082882299446e-01  0
-2.949325488562239e-02  1.631003497458814e-01  0
-1.019371310622232e-01  -1.361472251200651e-01  0
-1.233823733583172e-01  1.343211307799306e-01  0
4.765824809708954e-02  1.621118082678821e-01  0
-2.613211598341634e-02  2.486304748231765e-01  0
-5.197792304208006e-02  2.445369011270089e-01  0
-7.725424910173893e-02  2.377641299529754e-01  0
-1.016841614439509e-01  2.283863651972451e-01  0
-1.250000008217792e-01  2.165063516184319e-01  0
-1.469463140347178e-01  2.022542491226798e-01  0
-1.672826526705180e-01  1.857862067325875e-01  0
-1.857862074751725e-01  1.672826518457937e-01  0
-2.022542496549526e-01  1.469463133021069e-01  0
-2.165063520043897e-01  1.250000001532807e-01  0
-2.283863654540192e-01  1.016841608672267e-01  0
-2.377641300911563e-01  7.725424867646186e-02  0
-2.445369011888776e-01  5.197792275101057e-02  0
-2.486304748374412e-01  2.613211584769669e-02  0
-2.486304748231765e-01  -2.613211598341634e-02  0
-2.445369011270089e-01  -5.197792304208006e-02  0
-2.377641299529754e-01  -7.725424910173893e-02  0
-2.283863651972451e-01  -1.016841614439509e-01  0
-2.165063516184319e-01  -1.250000008217792e-01  0
-2.022542491226798e-01  -1.469463140347178e-01  0
-1.857862067325875e-01  -1.672826526705180e-01  0
-1.672826518457937e-01  -1.857862074751725e-01  0
-1.469463133021069e-01  -2.022542496549526e-01  0
-1.250000001532807e-01  -2.165063520043897e-01  0
-1.016841608672267e-01  -2.283863654540192e-01  0
-7.725424867646186e-02  -2.377641300911563e-01  0
-5.197792275101057e-02  -2.445369011888776e-01  0
-2.613211584769669e-02  -2.486304748374412e-01  0
2.613211598341634e-02  -2.486304748231765e-01  0
5.197792304208006e-02  -2.445369011270089e-01  0
7.725424910173893e-02  -2.377641299529754e-01  0
1.016841614439509e-01  -2.283863651972451e-01  0
1.250000008217792e-01  -2.165063516184319e-01  0
1.469463140347178e-01  -2.022542491226798e-01  0
1.672826526705180e-01  -1.857862067325875e-01  0
1.857862074751725e-01  -1.672826518457937e-01  0
2.022542496549526e-01  -1.469463133021069e-01  0
2.165063520043897e-01  -1.250000001532807e-01  0
2.283863654540192e-01  -1.016841608672267e-01  0
2.377641300911563e-01  -7.725424867646186e-02  0
2.445369011888776e-01  -5.197792275101057e-02  0
2.486304748374412e-01  -2.613211584769669e-02  0
2.486304748231765e-01  2.613211598341634e-02  0
2.445369011270089e-01  5.197792304208006e-02  0
2.377641299529754e-01  7.725424910173893e-02  0
2.283863651972451e-01  1.016841614439509e-01  0
2.165063516184319e-01  1.250000008217792e-01  0
2.022542491226798e-01  1.469463140347178e-01  0
1.857862067325875e-01  1.672826526705180e-01  0
1.672826518457937e-01  1.857862074751725e-01  0
1.469463133021069e-01  2.022542496549526e-01  0
1.250000001532807e-01  2.165063520043897e-01  0
1.016841608672267e-01  2.283863654540192e-01  0
7.725424867646186e-02  2.377641300911563e-01  0
5.197792275101057e-02  2.445369011888776e-01  0
2.613211584769669e-02  2.486304748374412e-01  0
Edges
120
3  9  1
9  10  1
10  11  1
11  12  1
12  13  1
13  14  1
14  15  1
15  16  1
16  17  1
17  18  1
18  19  1
19  20  1
20  21  1
21  22  1
4  22  1
4  23  1
23  24  1
24  25  1
25  26  1
26  27  1
27  28  1
28  29  1
29  30  1
30  31  1
31  32  1
32  33  1
33  34  1
34  35  1
35  36  1
1  36  1
1  37  1
37  38  1
38  39  1
39  40  1
40  41  1
41  42  1
42  43  1
43  44  1
44  45  1
45  46  1
46  47  1
47  48  1
48  49  1
49  50  1
2  50  1
2  51  1
51  52  1
52  53  1
53  54  1
54  55  1
55  56  1
56  57  1
57  58  1
58  59  1
59  60  1
60  61  1
61  62  1
62  63  1
63  64  1
3  64  1
6  65  2
65  66  2
66  67  2
67  68  2
68  69  2
69  70  2
70  71  2
71  72  2
72  73  2
73  74  2
74  75  2
75  76  2
76  77  2
77  78  2
7  78  2
7  79  2
79  80  2
80  81  2
81  82  2
82  83  2
83  84  2
84  85  2
85  86  2
86  87  2
87  88  2
88  89  2
89  90  2
90  91  2
91  92  2
8  92  2
8  93  2
93  94  2
94  95  2
95  96  2
96  97  2
97  98  2
98  99  2
99  100  2
100  101  2
101  102  2
102  103  2
103  104  2
104  105  2
105  106  2
5  106  2
5  107  2
107  108  2
108  109  2
109  110  2
110  111  2
111  112  2
112  113  2
113  114  2
114  115  2
115  116  2
116  117  2
117  118  2
118  119  2
119  120  2
6  120  2
Triangles
82
348  145  402  1
301  298  342  1
301  157  304  1
250  305  377  1
314  163  375  1
314  270  317  1
309  287  310  1
241  240  312  1
25  26  149  1
321  215  337  1
10  11  152  1
261  225  319  1
32  33  145  1
46  47  146  1
227  261  339  1
222  237  243  1
203  208  216  1
196  212  213  1
220  218  221  1
295  339  340  1
289  242  290  1
209  204  217  1
245  271  272  1
174  177  344  1
272  307  308  1
267  276  285  1
189  192  334  1
198  197  214  1
218  217  361  1
179  182  183  1
195  205  358  1
206  228  229  1
211  241  254  1
229  258  259  1
253  289  291  1
236  270  359  1
205  190  334  1
226  250  362  1
353  253  366  1
231  266  355  1
259  296  364  1
257  277  371  1
16  17  125  1
250  235  378  1
249  269  376  1
157  156  158  1
155  154  156  1
322  403  439  1
263  297  384  1
261  348  385  1
356  266  387  1
398  146  427  1
297  288  431  1
312  381  416  1
333  380  413  1
139  153  154  1
341  143  421  1
311  287  425  1
315  283  428  1
380  292  439  1
129  24  396  1
2  51  400  1
4  23  404  1
142  15  407  1
13  14  395  1
62  63  401  1
132  9  399  1
382  285  426  1
12  133  410  1
386  278  433  1
308  417  437  1
299  153  420  1
130  38  432  1
409  290  413  1
408  132  415  1
43  44  420  1
1  37  421  1
393  140  428  1
389  136  422  1
386  138  431  1
149  394  433  1
284  416  429  1
Quadrilaterals
423
128  430  311  425  1
133  395  356  387  1
322  427  146  403  1
388  151  389  332  1
336  405  147  300  1
291  383  150  370  1
413  144  400  409  1
316  438  128  425  1
297  419  127  384  1
407  417  390  142  1
299  420  126  435  1
322  439  292  247  1
386  431  288  372  1
408  415  352  141  1
412  60  61  137  1
384  127  397  320  1
32  145  397  31  1
129  364  296  404  1
4  404  147  22  1
414  433  278  268  1
410  133  387  382  1
54  393  150  53  1
135  424  380  439  1
47  48  403  146  1
152  410  382  426  1
308  437  388  272  1
386  433  394  138  1
352  415  277  255  1
11  12  410  152  1
59  430  128  58  1
20  136  389  19  1
131  400  51  52  1
279  422  336  329  1
374  426  285  371  1
356  395  142  390  1
320  397  145  348  1
286  425  287  251  1
380  424  144  413  1
294  435  293  281  1
46  146  398  45  1
374  415  132  399  1
319  320  348  261  1
392  40  41  139  1
296  259  258  300  1
62  401  137  61  1
411  148  392  155  1
157  411  155  156  1
370  428  283  366  1
372  288  264  363  1
315  428  140  418  1
339  261  385  340  1
333  413  290  325  1
310  381  312  240  1
154  153  299  302  1
409  436  289  290  1
131  436  409  400  1
268  278  275  260  1
2  400  144  50  1
388  437  406  151  1
364  414  268  259  1
245  332  279  230  1
143  341  295  340  1
134  423  340  385  1
312  416  284  241  1
357  308  307  233  1
293  427  280  281  1
406  437  125  17  1
263  384  262  224  1
137  416  381  412  1
269  265  298  301  1
33  34  402  145  1
329  228  230  279  1
242  220  325  290  1
1  421  143  36  1
149  433  414  396  1
276  373  371  285  1
342  432  148  411  1
240  210  309  310  1
249  246  265  269  1
411  157  301  342  1
309  324  251  287  1
158  161  304  157  1
248  282  281  280  1
275  372  363  335  1
257  371  373  367  1
365  199  373  276  1
379  294  281  282  1
130  421  37  38  1
232  365  276  267  1
304  376  269  301  1
363  264  358  205  1
307  272  271  337  1
396  414  364  129  1
210  201  324  309  1
161  158  160  162  1
264  263  224  358  1
161  303  376  304  1
243  333  325  222  1
335  363  205  334  1
335  349  260  275  1
379  282  375  163  1
337  215  233  307  1
303  161  162  165  1
349  335  334  192  1
162  160  163  164  1
375  359  270  314  1
164  163  314  167  1
165  306  305  303  1
165  162  164  166  1
166  164  167  168  1
317  369  167  314  1
306  165  166  169  1
306  313  377  305  1
169  323  313  306  1
168  170  169  166  1
318  360  369  317  1
313  350  256  377  1
360  318  368  328  1
323  186  350  313  1
323  169  170  173  1
246  235  227  339  1
217  354  368  361  1
173  170  172  174  1
196  213  362  256  1
173  176  186  323  1
327  175  172  171  1
328  326  327  360  1
226  227  235  250  1
175  327  326  178  1
176  173  174  344  1
176  343  187  186  1
343  176  344  331  1
175  177  174  172  1
188  350  186  187  1
328  368  354  351  1
178  179  177  175  1
343  274  191  187  1
326  328  351  181  1
231  355  233  215  1
189  334  190  188  1
178  326  181  180  1
179  183  347  177  1
367  373  199  338  1
199  365  197  182  1
291  370  366  253  1
180  182  179  178  1
251  216  244  286  1
353  366  234  208  1
254  257  367  345  1
260  229  259  268  1
361  252  221  218  1
255  254  241  284  1
231  214  232  266  1
209  353  208  204  1
181  351  185  184  1
345  367  338  184  1
184  338  180  181  1
222  325  220  221  1
227  226  225  261  1
202  185  351  354  1
240  241  211  210  1
331  347  239  330  1
226  362  213  225  1
200  345  184  185  1
219  253  353  209  1
204  208  203  202  1
330  273  346  274  1
190  205  195  194  1
218  219  209  217  1
206  349  192  193  1
183  182  197  198  1
214  231  215  198  1
238  273  271  245  1
187  191  189  188  1
193  346  207  206  1
192  189  191  193  1
182  180  338  199  1
346  273  238  207  1
274  346  193  191  1
201  202  203  324  1
237  236  359  248  1
211  254  345  200  1
225  213  223  319  1
274  343  331  330  1
216  208  234  244  1
255  277  257  254  1
230  207  238  245  1
258  229  228  329  1
200  201  210  211  1
222  221  236  237  1
228  206  207  230  1
247  292  243  237  1
212  224  223  213  1
220  242  219  218  1
239  347  183  198  1
42  153  139  41  1
321  239  198  215  1
185  202  201  200  1
354  217  204  202  1
196  194  195  212  1
142  395  14  15  1
347  331  344  177  1
330  239  321  273  1
236  221  252  270  1
369  171  168  167  1
194  350  188  190  1
171  172  170  168  1
171  369  360  327  1
256  350  194  196  1
361  368  318  252  1
317  270  252  318  1
362  250  377  256  1
249  378  235  246  1
305  250  378  303  1
349  206  229  260  1
358  224  212  195  1
337  271  273  321  1
365  232  214  197  1
378  249  376  303  1
160  159  379  163  1
324  203  216  251  1
359  375  282  248  1
158  156  159  160  1
155  392  139  154  1
156  154  302  159  1
295  265  246  339  1
141  401  63  64  1
336  422  136  405  1
13  395  133  12  1
223  224  262  319  1
302  294  379  159  1
391  431  138  28  1
402  134  385  348  1
138  394  27  28  1
341  421  130  298  1
262  384  320  319  1
267  387  266  232  1
26  27  394  149  1
355  390  357  233  1
399  9  10  152  1
247  237  248  280  1
382  387  267  285  1
265  295  341  298  1
396  24  25  149  1
401  429  416  137  1
284  429  352  255  1
272  388  332  245  1
132  408  3  9  1
356  390  355  266  1
393  54  55  140  1
253  219  242  289  1
129  404  23  24  1
292  380  333  243  1
56  418  140  55  1
311  430  412  381  1
21  405  136  20  1
263  264  288  297  1
31  397  127  30  1
357  390  417  308  1
277  415  374  371  1
383  436  131  434  1
135  439  403  48  1
244  283  315  286  1
311  381  310  287  1
234  366  283  244  1
126  45  398  435  1
417  407  125  437  1
134  402  34  35  1
43  420  153  42  1
278  386  372  275  1
130  432  342  298  1
40  392  148  39  1
393  428  370  150  1
329  336  300  258  1
408  141  64  3  1
16  125  407  15  1
391  419  297  431  1
29  419  391  28  1
18  151  406  17  1
436  383  291  289  1
299  435  294  302  1
280  427  322  247  1
57  438  418  56  1
49  424  135  48  1
418  438  316  315  1
398  427  293  435  1
126  420  44  45  1
60  412  430  59  1
316  425  286  315  1
332  389  422  279  1
150  383  434  53  1
35  36  423  134  1
151  18  19  389  1
419  29  30  127  1
22  147  405  21  1
432  38  39  148  1
424  49  50  144  1
399  152  426  374  1
429  401  141  352  1
423  36  143  340  1
52  53  434  131  1
438  57  58  128  1
147  404  296  300  1
6  65  440  121  2
121  440  51  2  2
65  66  441  440  2
440  441  52  51  2
66  67  442  441  2
441  442  53  52  2
67  68  443  442  2
442  443  54  53  2
68  69  444  443  2
443  444  55  54  2
69  70  445  444  2
444  445  56  55  2
70  71  446  445  2
445  446  57  56  2
71  72  447  446  2
446  447  58  57  2
72  73  448  447  2
447  448  59  58  2
73  74  449  448  2
448  449  60  59  2
74  75  450  449  2
449  450  61  60  2
75  76  451  450  2
450  451  62  61  2
76  77  452  451  2
451  452  63  62  2
77  78  453  452  2
452  453  64  63  2
78  7  124  453  2
453  124  3  64  2
7  79  454  124  2
124  454  9  3  2
79  80  455  454  2
454  455  10  9  2
80  81  456  455  2
455  456  11  10  2
81  82  457  456  2
456  457  12  11  2
82  83  458  457  2
457  458  13  12  2
83  84  459  458  2
458  459  14  13  2
84  85  460  459  2
459  460  15  14  2
85  86  461  460  2
460  461  16  15  2
86  87  462  461  2
461  462  17  16  2
87  88  463  462  2
462  463  18  17  2
88  89  464  463  2
463  464  19  18  2
89  90  465  464  2
464  465  20  19  2
90  91  466  465  2
465  466  21  20  2
91  92  467  466  2
466  467  22  21  2
92  8  123  467  2
467  123  4  22  2
8  93  468  123  2
123  468  23  4  2
93  94  469  468  2
468  469  24  23  2
94  95  470  469  2
469  470  25  24  2
95  96  471  470  2
470  471  26  25  2
96  97  472  471  2
471  472  27  26  2
97  98  473  472  2
472  473  28  27  2
98  99  474  473  2
473  474  29  28  2
99  100  475  474  2
474  475  30  29  2
100  101  476  475  2
475  476  31  30  2
101  102  477  476  2
476  477  32  31  2
102  103  478  477  2
477  478  33  32  2
103  104  479  478  2
478  479  34  33  2
104  105  480  479  2
479  480  35  34  2
105  106  481  480  2
480  481  36  35  2
106  5  122  481  2
481  122  1  36  2
5  107  482  122  2
122  482  37  1  2
107  108  483  482  2
482  483  38  37  2
108  109  484  483  2
483  484  39  38  2
109  110  485  484  2
484  485  40  39  2
110  111  486  485  2
485  486  41  40  2
111  112  487  486  2
486  487  42  41  2
112  113  488  487  2
487  488  43  42  2
113  114  489  488  2
488  489  44  43  2
114  115  490  489  2
489  490  45  44  2
115  116  491  490  2
490  491  46  45  2
116  117  492  491  2
491  492  47  46  2
117  118  493  492  2
492  493  48  47  2
118  119  494  493  2
493  494  49  48  2
119  120  495  494  2
494  495  50  49  2
120  6  121  495  2
495  121  2  50  2
End
