MeshVersionFormatted 1
Dimension 
2
Vertices
129
6.000000000000000e-01  0.000000000000000e+00  5
-6.000000000000000e-01  0.000000000000000e+00  5
1.080000000000000e-01  0.000000000000000e+00  3
-1.080000000000000e-01  0.000000000000000e+00  3
9.200000000000000e-02  0.000000000000000e+00  2
-9.200000000000000e-02  0.000000000000000e+00  2
1.750000000000000e-02  0.000000000000000e+00  1
-1.750000000000000e-02  0.000000000000000e+00  1
5.405813204516698e-01  2.603302440722727e-01  5
3.740938798860365e-01  4.690988904610750e-01  5
1.335125580157496e-01  5.849567478473011e-01  5
-1.335125627510499e-01  5.849567467664998e-01  5
-3.740938824498186e-01  4.690988884165270e-01  5
-5.405813211064341e-01  2.603302427126407e-01  5
-5.405813204516698e-01  -2.603302440722727e-01  5
-3.740938798860365e-01  -4.690988904610750e-01  5
-1.335125580157496e-01  -5.849567478473011e-01  5
1.335125627510499e-01  -5.849567467664998e-01  5
3.740938824498186e-01  -4.690988884165270e-01  5
5.405813211064341e-01  -2.603302427126407e-01  5
9.730463767831897e-02  4.685944393920043e-02  3
6.733689838592158e-02  8.443780027786177e-02  3
2.403226045266442e-02  1.052922146102707e-01  3
-2.403226128779261e-02  1.052922144196581e-01  3
-6.733689883113982e-02  8.443779992281206e-02  3
-9.730463779784175e-02  4.685944369100883e-02  3
-9.730463767831897e-02  -4.685944393920043e-02  3
-6.733689838592158e-02  -8.443780027786177e-02  3
-2.403226045266442e-02  -1.052922146102707e-01  3
2.403226128779261e-02  -1.052922144196581e-01  3
6.733689883113982e-02  -8.443779992281206e-02  3
9.730463779784175e-02  -4.685944369100883e-02  3
8.288913580020486e-02  3.991730409603327e-02  2
5.736106158816463e-02  7.192849653286787e-02  2
2.047192556921605e-02  8.969336800170054e-02  2
-2.047192628165858e-02  8.969336783909017e-02  2
-5.736106197094433e-02  7.192849622761123e-02  2
-8.288913590102304e-02  3.991730388668219e-02  2
-8.288913580020486e-02  -3.991730409603327e-02  2
-5.736106158816463e-02  -7.192849653286787e-02  2
-2.047192556921605e-02  -8.969336800170054e-02  2
2.047192628165858e-02  -8.969336783909017e-02  2
5.736106197094433e-02  -7.192849622761123e-02  2
8.288913590102304e-02  -3.991730388668219e-02  2
1.576695517915809e-02  7.592965453524717e-03  1
1.091107149702957e-02  1.368205097149944e-02  1
3.894116277906417e-03  1.706123847832109e-02  1
-3.894116411413705e-03  1.706123844784893e-02  1
-1.091107156883847e-02  1.368205091423376e-02  1
-1.576695519878264e-02  7.592965412773922e-03  1
-1.576695517915809e-02  -7.592965453524717e-03  1
-1.091107149702957e-02  -1.368205097149944e-02  1
-3.894116277906417e-03  -1.706123847832109e-02  1
3.894116411413705e-03  -1.706123844784893e-02  1
1.091107156883847e-02  -1.368205091423376e-02  1
1.576695519878264e-02  -7.592965412773922e-03  1
2.593846161369895e-01  0.000000000000000e+00  0
1.458461556633905e-01  0.000000000000000e+00  0
1.000000000000217e-01  0.000000000000000e+00  0
5.475000000010020e-02  0.000000000000000e+00  0
-2.593846161369895e-01  0.000000000000000e+00  0
-1.458461556633905e-01  0.000000000000000e+00  0
-1.000000000000217e-01  0.000000000000000e+00  0
-5.475000000010020e-02  0.000000000000000e+00  0
2.336974641091203e-01  -1.125427667933385e-01  0
1.617236634906001e-01  -2.027950585091080e-01  0
5.771850805929074e-02  -2.528813020291199e-01  0
-5.771850602410961e-02  -2.528813024936367e-01  0
-1.617236623935160e-01  -2.027950593840033e-01  0
-2.336974638249080e-01  -1.125427673835117e-01  0
1.314028458434687e-01  -6.328027517344996e-02  0
9.093359101175905e-02  -1.140271158431014e-01  0
3.245382334318562e-02  -1.421894879103207e-01  0
-3.245382220804419e-02  -1.421894881694094e-01  0
-9.093359040357435e-02  -1.140271163281126e-01  0
-1.314028456827735e-01  -6.328027550713697e-02  0
2.336974638249080e-01  1.125427673835117e-01  0
1.617236623935161e-01  2.027950593840033e-01  0
5.771850602410959e-02  2.528813024936367e-01  0
-5.771850805929075e-02  2.528813020291199e-01  0
-1.617236634906001e-01  2.027950585091080e-01  0
-2.336974641091204e-01  1.125427667933385e-01  0
1.314028456827735e-01  6.328027550713697e-02  0
9.093359040357436e-02  1.140271163281126e-01  0
3.245382220804417e-02  1.421894881694094e-01  0
-3.245382334318563e-02  1.421894879103207e-01  0
-9.093359101175905e-02  1.140271158431014e-01  0
-1.314028458434687e-01  6.328027517344996e-02  0
9.009688684945193e-02  -4.338837378885492e-02  0
6.234898040105560e-02  -7.818314807522861e-02  0
2.225209378473042e-02  -9.749279112939530e-02  0
-2.225209301094506e-02  -9.749279130600677e-02  0
-6.234897998705663e-02  -7.818314840538178e-02  0
-9.009688673928147e-02  -4.338837401762626e-02  0
9.009688673928144e-02  4.338837401762626e-02  0
6.234897998705662e-02  7.818314840538178e-02  0
2.225209301094507e-02  9.749279130600677e-02  0
-2.225209378473043e-02  9.749279112939530e-02  0
-6.234898040105558e-02  7.818314807522861e-02  0
-9.009688684945195e-02  4.338837378885492e-02  0
4.932804554999311e-02  -2.375513464977153e-02  0
3.413606676995388e-02  -4.280527357100083e-02  0
1.218302134655844e-02  -5.337730314356724e-02  0
-1.218302092358352e-02  -5.337730324010850e-02  0
-3.413606654265956e-02  -4.280527375226199e-02  0
-4.932804548977174e-02  -2.375513477482247e-02  0
4.932804548977175e-02  2.375513477482247e-02  0
3.413606654265956e-02  4.280527375226199e-02  0
1.218302092358353e-02  5.337730324010850e-02  0
-1.218302134655844e-02  5.337730314356724e-02  0
-3.413606676995387e-02  4.280527357100083e-02  0
-4.932804554999311e-02  2.375513464977153e-02  0
-9.104957394899445e-03  1.545541428041536e-03  0
9.575740962431935e-03  -4.797985679675869e-03  0
5.399156399740681e-03  9.395049543719806e-03  0
-5.091937183548496e-03  -7.349194942393052e-03  0
3.212585883374250e-03  -1.048571267000217e-02  0
-4.476129940764247e-03  9.294782843562274e-03  0
1.142241578888024e-02  7.251573450395796e-04  0
6.237388244801701e-03  2.503674833244246e-03  0
9.739459434014106e-04  4.862555402775447e-03  0
2.892292913286916e-03  -3.971791507759424e-03  0
-2.727811350272879e-03  -2.882175998071959e-04  0
-1.014651513025904e-02  -4.563174808106208e-03  0
8.682076338469791e-03  6.545448192003614e-03  0
7.835021359472014e-03  -9.523169417461454e-03  0
-1.705192958475966e-03  -1.163367750610723e-02  0
1.909718672021491e-03  1.193346539858106e-02  0
-1.020322960793326e-02  8.127511779924941e-03  0
Edges
56
1  9  5
9  10  5
10  11  5
11  12  5
12  13  5
13  14  5
2  14  5
2  15  5
15  16  5
16  17  5
17  18  5
18  19  5
19  20  5
1  20  5
3  21  3
21  22  3
22  23  3
23  24  3
24  25  3
25  26  3
4  26  3
4  27  3
27  28  3
28  29  3
29  30  3
30  31  3
31  32  3
3  32  3
5  33  2
33  34  2
34  35  2
35  36  2
36  37  2
37  38  2
6  38  2
6  39  2
39  40  2
40  41  2
41  42  2
42  43  2
43  44  2
5  44  2
7  45  1
45  46  1
46  47  1
47  48  1
48  49  1
49  50  1
8  50  1
8  51  1
51  52  1
52  53  1
53  54  1
54  55  1
55  56  1
7  56  1
Triangles
4
113  118  129  2
116  122  123  2
7  45  119  2
49  50  129  2
Quadrilaterals
119
1  57  65  20  4
20  65  66  19  4
19  66  67  18  4
18  67  68  17  4
17  68  69  16  4
16  69  70  15  4
15  70  61  2  4
57  58  71  65  4
65  71  72  66  4
66  72  73  67  4
67  73  74  68  4
68  74  75  69  4
69  75  76  70  4
70  76  62  61  4
58  3  32  71  4
71  32  31  72  4
72  31  30  73  4
73  30  29  74  4
74  29  28  75  4
75  28  27  76  4
76  27  4  62  4
1  9  77  57  4
9  10  78  77  4
10  11  79  78  4
11  12  80  79  4
12  13  81  80  4
13  14  82  81  4
14  2  61  82  4
57  77  83  58  4
77  78  84  83  4
78  79  85  84  4
79  80  86  85  4
80  81  87  86  4
81  82  88  87  4
82  61  62  88  4
58  83  21  3  4
83  84  22  21  4
84  85  23  22  4
85  86  24  23  4
86  87  25  24  4
87  88  26  25  4
88  62  4  26  4
3  59  89  32  1
32  89  90  31  1
31  90  91  30  1
30  91  92  29  1
29  92  93  28  1
28  93  94  27  1
27  94  63  4  1
59  5  44  89  1
89  44  43  90  1
90  43  42  91  1
91  42  41  92  1
92  41  40  93  1
93  40  39  94  1
94  39  6  63  1
3  21  95  59  1
21  22  96  95  1
22  23  97  96  1
23  24  98  97  1
24  25  99  98  1
25  26  100  99  1
26  4  63  100  1
59  95  33  5  1
95  96  34  33  1
96  97  35  34  1
97  98  36  35  1
98  99  37  36  1
99  100  38  37  1
100  63  6  38  1
5  60  101  44  3
44  101  102  43  3
43  102  103  42  3
42  103  104  41  3
41  104  105  40  3
40  105  106  39  3
39  106  64  6  3
60  7  56  101  3
101  56  55  102  3
102  55  54  103  3
103  54  53  104  3
104  53  52  105  3
105  52  51  106  3
106  51  8  64  3
5  33  107  60  3
33  34  108  107  3
34  35  109  108  3
35  36  110  109  3
36  37  111  110  3
37  38  112  111  3
38  6  64  112  3
60  107  45  7  3
107  108  46  45  3
108  109  47  46  3
109  110  48  47  3
110  111  49  48  3
111  112  50  49  3
112  64  8  50  3
121  118  113  123  2
121  115  128  118  2
117  126  114  122  2
116  127  117  122  2
124  51  52  116  2
7  119  114  56  2
55  126  117  54  2
49  129  118  48  2
53  127  116  52  2
113  129  50  8  2
47  128  115  46  2
8  51  124  113  2
120  125  115  121  2
119  45  125  120  2
122  120  121  123  2
114  119  120  122  2
124  116  123  113  2
125  45  46  115  2
48  118  128  47  2
54  117  127  53  2
56  114  126  55  2
End
