MeshVersionFormatted 1
Dimension 
2
Vertices
249
2.000000000000000e+00  0.000000000000000e+00  5
-2.000000000000000e+00  0.000000000000000e+00  5
1.080000000000000e-01  0.000000000000000e+00  3
-1.080000000000000e-01  0.000000000000000e+00  3
9.200000000000000e-02  0.000000000000000e+00  2
-9.200000000000000e-02  0.000000000000000e+00  2
1.750000000000000e-02  0.000000000000000e+00  1
-1.750000000000000e-02  0.000000000000000e+00  1
1.847759064266733e+00  7.653668665549389e-01  5
1.414213559178213e+00  1.414213565567977e+00  5
7.653668583131839e-01  1.847759067680580e+00  5
-9.250120991059621e-09  2.000000000000000e+00  5
-7.653668712076844e-01  1.847759062339503e+00  5
-1.414213565790807e+00  1.414213558955383e+00  5
-1.847759065937685e+00  7.653668625209061e-01  5
-1.847759064266733e+00  -7.653668665549389e-01  5
-1.414213559178213e+00  -1.414213565567977e+00  5
-7.653668583131839e-01  -1.847759067680580e+00  5
9.250120991059621e-09  -2.000000000000000e+00  5
7.653668712076844e-01  -1.847759062339503e+00  5
1.414213565790807e+00  -1.414213558955383e+00  5
1.847759065937685e+00  -7.653668625209061e-01  5
9.977898947024492e-02  4.132981079434980e-02  3
7.636753220016348e-02  7.636753253613078e-02  3
4.132981035501981e-02  9.977898965222136e-02  3
-4.959706099632650e-10  1.080000000000000e-01  3
-4.132981104155289e-02  9.977898936785004e-02  3
-7.636753255282923e-02  7.636753218346505e-02  3
-9.977898956014708e-02  4.132981057730680e-02  3
-9.977898947024492e-02  -4.132981079434980e-02  3
-7.636753220016348e-02  -7.636753253613078e-02  3
-4.132981035501981e-02  -9.977898965222136e-02  3
4.959706099632650e-10  -1.080000000000000e-01  3
4.132981104155289e-02  -9.977898936785004e-02  3
7.636753255282923e-02  -7.636753218346505e-02  3
9.977898956014708e-02  -4.132981057730680e-02  3
8.499691695694978e-02  3.520687585988543e-02  2
6.505382372757976e-02  6.505382401074498e-02  2
3.520687548216242e-02  8.499691711340776e-02  2
-4.229807132615300e-10  9.200000000000000e-02  2
-3.520687607079989e-02  8.499691686958614e-02  2
-6.505382402316329e-02  6.505382371516145e-02  2
-8.499691703248585e-02  3.520687567752521e-02  2
-8.499691695694978e-02  -3.520687585988543e-02  2
-6.505382372757976e-02  -6.505382401074498e-02  2
-3.520687548216242e-02  -8.499691711340776e-02  2
4.229807132615300e-10  -9.200000000000000e-02  2
3.520687607079989e-02  -8.499691686958614e-02  2
6.505382402316329e-02  -6.505382371516145e-02  2
8.499691703248585e-02  -3.520687567752521e-02  2
1.616789181221567e-02  6.696960082641190e-03  1
1.237436864326763e-02  1.237436869826154e-02  1
6.696960011774316e-03  1.616789184156969e-02  1
-7.936535765786701e-11  1.750000000000000e-02  1
-6.696960122164446e-03  1.616789179584460e-02  1
-1.237436869954037e-02  1.237436864198880e-02  1
-1.616789182676972e-02  6.696960047504604e-03  1
-1.616789181221567e-02  -6.696960082641190e-03  1
-1.237436864326763e-02  -1.237436869826154e-02  1
-6.696960011774316e-03  -1.616789184156969e-02  1
7.936535765786701e-11  -1.750000000000000e-02  1
6.696960122164446e-03  -1.616789179584460e-02  1
1.237436869954037e-02  -1.237436864198880e-02  1
1.616789182676972e-02  -6.696960047504604e-03  1
1.789777777778153e+00  0.000000000000000e+00  0
1.579555555556567e+00  0.000000000000000e+00  0
1.369333333334894e+00  0.000000000000000e+00  0
1.159111111113308e+00  0.000000000000000e+00  0
9.488888888909270e-01  0.000000000000000e+00  0
7.386666666681558e-01  0.000000000000000e+00  0
5.284444444455094e-01  0.000000000000000e+00  0
3.182222222228293e-01  0.000000000000000e+00  0
1.000000000000217e-01  0.000000000000000e+00  0
5.475000000010020e-02  0.000000000000000e+00  0
-1.789777777778153e+00  0.000000000000000e+00  0
-1.579555555556567e+00  0.000000000000000e+00  0
-1.369333333334894e+00  0.000000000000000e+00  0
-1.159111111113308e+00  0.000000000000000e+00  0
-9.488888888909270e-01  0.000000000000000e+00  0
-7.386666666681558e-01  0.000000000000000e+00  0
-5.284444444455094e-01  0.000000000000000e+00  0
-3.182222222228293e-01  0.000000000000000e+00  0
-1.000000000000217e-01  0.000000000000000e+00  0
-5.475000000010020e-02  0.000000000000000e+00  0
1.653539057451638e+00  -6.849183011939832e-01  0
1.265564006542408e+00  -1.265564000425436e+00  0
6.849183089671470e-01  -1.653539054231889e+00  0
8.277437624215622e-09  -1.789777777778153e+00  0
-6.849182974290872e-01  -1.653539059011109e+00  0
-1.265564000625362e+00  -1.265564006342482e+00  0
-1.653539055956360e+00  -6.849183048039060e-01  0
1.459319048965833e+00  -6.044697398671601e-01  0
1.116914447294194e+00  -1.116914441895672e+00  0
6.044697467267093e-01  -1.459319046124515e+00  0
7.304754245929246e-09  -1.579555555556567e+00  0
-6.044697365450901e-01  -1.459319050341879e+00  0
-1.116914442072695e+00  -1.116914447117171e+00  0
-1.459319047646226e+00  -6.044697430529730e-01  0
1.265099040479947e+00  -5.240211785403037e-01  0
9.682648880459179e-01  -9.682648833658476e-01  0
5.240211844862377e-01  -1.265099038017061e+00  0
6.332070978665172e-09  -1.369333333334894e+00  0
-5.240211756610598e-01  -1.265099041672569e+00  0
-9.682648835199668e-01  -9.682648878917987e-01  0
-1.265099039336013e+00  -5.240211813020066e-01  0
1.070879031994142e+00  -4.435726172134805e-01  0
8.196153287977036e-01  -8.196153248360842e-01  0
4.435726222458001e-01  -1.070879029909687e+00  0
5.359387489356493e-09  -1.159111111113308e+00  0
-4.435726147770629e-01  -1.070879033003339e+00  0
-8.196153249672999e-01  -8.196153286664878e-01  0
-1.070879031025879e+00  -4.435726195510734e-01  0
8.766590235076024e-01  -3.631240558863531e-01  0
6.709657695489273e-01  -6.709657663057587e-01  0
3.631240600050581e-01  -8.766590218015788e-01  0
4.386704166581268e-09  -9.488888888909270e-01  0
-3.631240538927617e-01  -8.766590243333749e-01  0
-6.709657664140711e-01  -6.709657694406148e-01  0
-8.766590227150118e-01  -3.631240577998360e-01  0
6.824390150207020e-01  -2.826754945590764e-01  0
5.223162102998749e-01  -5.223162077751574e-01  0
2.826754977641667e-01  -6.824390136931102e-01  0
3.414020732783740e-09  -7.386666666681558e-01  0
-2.826754930083110e-01  -6.824390156630501e-01  0
-5.223162078605663e-01  -5.223162102144658e-01  0
-6.824390144037834e-01  -2.826754960484494e-01  0
4.882190065339171e-01  -2.022269332318475e-01  0
3.736666510509107e-01  -3.736666492446443e-01  0
2.022269355233229e-01  -4.882190055847568e-01  0
2.441337354497364e-09  -5.284444444455094e-01  0
-2.022269321239082e-01  -4.882190069928405e-01  0
-3.736666493071497e-01  -3.736666509884052e-01  0
-4.882190060926707e-01  -2.022269342971105e-01  0
2.939989980471009e-01  -1.217783719046057e-01  0
2.250170918019226e-01  -2.250170907141074e-01  0
1.217783732824664e-01  -2.939989974763722e-01  0
1.468653990088775e-09  -3.182222222228291e-01  0
-1.217783712394926e-01  -2.939989983225997e-01  0
-2.250170907537093e-01  -2.250170917623207e-01  0
-2.939989977815267e-01  -1.217783725457586e-01  0
1.653539055956359e+00  6.849183048039060e-01  0
1.265564000625362e+00  1.265564006342482e+00  0
6.849182974290873e-01  1.653539059011109e+00  0
-8.277437624215622e-09  1.789777777778153e+00  0
-6.849183089671469e-01  1.653539054231889e+00  0
-1.265564006542408e+00  1.265564000425436e+00  0
-1.653539057451639e+00  6.849183011939832e-01  0
1.459319047646226e+00  6.044697430529730e-01  0
1.116914442072695e+00  1.116914447117171e+00  0
6.044697365450902e-01  1.459319050341879e+00  0
-7.304754245929246e-09  1.579555555556567e+00  0
-6.044697467267091e-01  1.459319046124515e+00  0
-1.116914447294194e+00  1.116914441895672e+00  0
-1.459319048965833e+00  6.044697398671601e-01  0
1.265099039336013e+00  5.240211813020066e-01  0
9.682648835199665e-01  9.682648878917987e-01  0
5.240211756610600e-01  1.265099041672569e+00  0
-6.332070978665172e-09  1.369333333334894e+00  0
-5.240211844862381e-01  1.265099038017061e+00  0
-9.682648880459181e-01  9.682648833658476e-01  0
-1.265099040479947e+00  5.240211785403037e-01  0
1.070879031025879e+00  4.435726195510734e-01  0
8.196153249673002e-01  8.196153286664878e-01  0
4.435726147770629e-01  1.070879033003339e+00  0
-5.359387489356493e-09  1.159111111113308e+00  0
-4.435726222458001e-01  1.070879029909687e+00  0
-8.196153287977037e-01  8.196153248360842e-01  0
-1.070879031994142e+00  4.435726172134805e-01  0
8.766590227150118e-01  3.631240577998360e-01  0
6.709657664140711e-01  6.709657694406148e-01  0
3.631240538927616e-01  8.766590243333749e-01  0
-4.386704166581268e-09  9.488888888909270e-01  0
-3.631240600050581e-01  8.766590218015788e-01  0
-6.709657695489271e-01  6.709657663057587e-01  0
-8.766590235076024e-01  3.631240558863531e-01  0
6.824390144037835e-01  2.826754960484494e-01  0
5.223162078605662e-01  5.223162102144658e-01  0
2.826754930083112e-01  6.824390156630501e-01  0
-3.414020788294891e-09  7.386666666681558e-01  0
-2.826754977641667e-01  6.824390136931102e-01  0
-5.223162102998747e-01  5.223162077751574e-01  0
-6.824390150207020e-01  2.826754945590764e-01  0
4.882190060926707e-01  2.022269342971105e-01  0
3.736666493071498e-01  3.736666509884052e-01  0
2.022269321239083e-01  4.882190069928405e-01  0
-2.441337382252939e-09  5.284444444455094e-01  0
-2.022269355233230e-01  4.882190055847568e-01  0
-3.736666510509106e-01  3.736666492446443e-01  0
-4.882190065339171e-01  2.022269332318475e-01  0
2.939989977815266e-01  1.217783725457586e-01  0
2.250170907537093e-01  2.250170917623207e-01  0
1.217783712394925e-01  2.939989983225997e-01  0
-1.468653962333200e-09  3.182222222228291e-01  0
-1.217783732824665e-01  2.939989974763722e-01  0
-2.250170918019226e-01  2.250170907141074e-01  0
-2.939989980471009e-01  1.217783719046057e-01  0
9.238795329633651e-02  -3.826834312742430e-02  0
7.071067828801156e-02  -7.071067794932859e-02  0
3.826834355618469e-02  -9.238795311873813e-02  0
4.594756623788054e-10  -1.000000000000217e-01  0
-3.826834291859942e-02  -9.238795338283459e-02  0
-7.071067796388694e-02  -7.071067827345320e-02  0
-9.238795321361740e-02  -3.826834332712591e-02  0
9.238795321361738e-02  3.826834332712591e-02  0
7.071067796388691e-02  7.071067827345320e-02  0
3.826834291859942e-02  9.238795338283459e-02  0
-4.594756589093585e-10  1.000000000000217e-01  0
-3.826834355618469e-02  9.238795311873813e-02  0
-7.071067828801157e-02  7.071067794932859e-02  0
-9.238795329633651e-02  3.826834312742430e-02  0
5.058240442972035e-02  -2.095191786255325e-02  0
3.871409636142267e-02  -3.871409617864598e-02  0
2.095191809652051e-02  -5.058240433280794e-02  0
2.511730302912074e-10  -5.475000000010020e-02  0
-2.095191774700671e-02  -5.058240447758129e-02  0
-3.871409618549455e-02  -3.871409635457411e-02  0
-5.058240438467528e-02  -2.095191797130165e-02  0
5.058240438467530e-02  2.095191797130165e-02  0
3.871409618549454e-02  3.871409635457411e-02  0
2.095191774700671e-02  5.058240447758129e-02  0
-2.511730302912074e-10  5.475000000010020e-02  0
-2.095191809652051e-02  5.058240433280794e-02  0
-3.871409636142268e-02  3.871409617864598e-02  0
-5.058240442972036e-02  2.095191786255325e-02  0
8.418023220549979e-03  -6.277330325143955e-03  0
-1.057420182292879e-02  4.688999212941403e-03  0
6.615984466482393e-03  9.569906617907090e-03  0
-5.444295526001048e-03  -9.155449500567450e-03  0
-2.410367411517581e-03  1.102773172314667e-02  0
2.194842503606819e-03  -1.103420776400579e-02  0
-1.060512554439963e-02  -6.910371204372748e-04  0
1.201827684322700e-02  1.855594367382648e-03  0
2.617727529137981e-03  1.296119463049223e-02  0
1.338950786593395e-03  5.321360744156552e-03  0
7.476649291660344e-03  3.019464316092213e-03  0
2.323934286386635e-03  -1.054109769241680e-03  0
-4.275779573861949e-03  -1.869702063021482e-03  0
-1.352038720630350e-03  -6.844211157690384e-03  0
-5.183791630713917e-03  4.752026326297888e-03  0
-1.390395325167751e-02  4.284721017096562e-03  0
-6.213842301120436e-03  9.200409825248300e-03  0
-1.084380670927066e-02  -5.637773114417325e-03  0
-2.445870562402413e-03  -1.300381675178196e-02  0
1.186784431099043e-02  5.771466368750562e-03  0
1.182293274169051e-02  -1.862325464955031e-03  0
8.041132054456250e-03  -9.823590812112246e-03  0
3.242420500368556e-03  -5.818028375699992e-03  0
-7.225551605908717e-03  -5.872288785828577e-03  0
7.940253059155918e-03  -1.652091120724890e-03  0
Edges
64
1  9  5
9  10  5
10  11  5
11  12  5
12  13  5
13  14  5
14  15  5
2  15  5
2  16  5
16  17  5
17  18  5
18  19  5
19  20  5
20  21  5
21  22  5
1  22  5
3  23  3
23  24  3
24  25  3
25  26  3
26  27  3
27  28  3
28  29  3
4  29  3
4  30  3
30  31  3
31  32  3
32  33  3
33  34  3
34  35  3
35  36  3
3  36  3
5  37  2
37  38  2
38  39  2
39  40  2
40  41  2
41  42  2
42  43  2
6  43  2
6  44  2
44  45  2
45  46  2
46  47  2
47  48  2
48  49  2
49  50  2
5  50  2
7  51  1
51  52  1
52  53  1
53  54  1
54  55  1
55  56  1
56  57  1
8  57  1
8  58  1
58  59  1
59  60  1
60  61  1
61  62  1
62  63  1
63  64  1
7  64  1
Triangles
6
227  234  235  2
53  54  233  2
60  61  243  2
58  59  242  2
57  8  240  2
238  230  247  2
Quadrilaterals
237
1  65  85  22  4
22  85  86  21  4
21  86  87  20  4
20  87  88  19  4
19  88  89  18  4
18  89  90  17  4
17  90  91  16  4
16  91  75  2  4
65  66  92  85  4
85  92  93  86  4
86  93  94  87  4
87  94  95  88  4
88  95  96  89  4
89  96  97  90  4
90  97  98  91  4
91  98  76  75  4
66  67  99  92  4
92  99  100  93  4
93  100  101  94  4
94  101  102  95  4
95  102  103  96  4
96  103  104  97  4
97  104  105  98  4
98  105  77  76  4
67  68  106  99  4
99  106  107  100  4
100  107  108  101  4
101  108  109  102  4
102  109  110  103  4
103  110  111  104  4
104  111  112  105  4
105  112  78  77  4
68  69  113  106  4
106  113  114  107  4
107  114  115  108  4
108  115  116  109  4
109  116  117  110  4
110  117  118  111  4
111  118  119  112  4
112  119  79  78  4
69  70  120  113  4
113  120  121  114  4
114  121  122  115  4
115  122  123  116  4
116  123  124  117  4
117  124  125  118  4
118  125  126  119  4
119  126  80  79  4
70  71  127  120  4
120  127  128  121  4
121  128  129  122  4
122  129  130  123  4
123  130  131  124  4
124  131  132  125  4
125  132  133  126  4
126  133  81  80  4
71  72  134  127  4
127  134  135  128  4
128  135  136  129  4
129  136  137  130  4
130  137  138  131  4
131  138  139  132  4
132  139  140  133  4
133  140  82  81  4
72  3  36  134  4
134  36  35  135  4
135  35  34  136  4
136  34  33  137  4
137  33  32  138  4
138  32  31  139  4
139  31  30  140  4
140  30  4  82  4
1  9  141  65  4
9  10  142  141  4
10  11  143  142  4
11  12  144  143  4
12  13  145  144  4
13  14  146  145  4
14  15  147  146  4
15  2  75  147  4
65  141  148  66  4
141  142  149  148  4
142  143  150  149  4
143  144  151  150  4
144  145  152  151  4
145  146  153  152  4
146  147  154  153  4
147  75  76  154  4
66  148  155  67  4
148  149  156  155  4
149  150  157  156  4
150  151  158  157  4
151  152  159  158  4
152  153  160  159  4
153  154  161  160  4
154  76  77  161  4
67  155  162  68  4
155  156  163  162  4
156  157  164  163  4
157  158  165  164  4
158  159  166  165  4
159  160  167  166  4
160  161  168  167  4
161  77  78  168  4
68  162  169  69  4
162  163  170  169  4
163  164  171  170  4
164  165  172  171  4
165  166  173  172  4
166  167  174  173  4
167  168  175  174  4
168  78  79  175  4
69  169  176  70  4
169  170  177  176  4
170  171  178  177  4
171  172  179  178  4
172  173  180  179  4
173  174  181  180  4
174  175  182  181  4
175  79  80  182  4
70  176  183  71  4
176  177  184  183  4
177  178  185  184  4
178  179  186  185  4
179  180  187  186  4
180  181  188  187  4
181  182  189  188  4
182  80  81  189  4
71  183  190  72  4
183  184  191  190  4
184  185  192  191  4
185  186  193  192  4
186  187  194  193  4
187  188  195  194  4
188  189  196  195  4
189  81  82  196  4
72  190  23  3  4
190  191  24  23  4
191  192  25  24  4
192  193  26  25  4
193  194  27  26  4
194  195  28  27  4
195  196  29  28  4
196  82  4  29  4
3  73  197  36  1
36  197  198  35  1
35  198  199  34  1
34  199  200  33  1
33  200  201  32  1
32  201  202  31  1
31  202  203  30  1
30  203  83  4  1
73  5  50  197  1
197  50  49  198  1
198  49  48  199  1
199  48  47  200  1
200  47  46  201  1
201  46  45  202  1
202  45  44  203  1
203  44  6  83  1
3  23  204  73  1
23  24  205  204  1
24  25  206  205  1
25  26  207  206  1
26  27  208  207  1
27  28  209  208  1
28  29  210  209  1
29  4  83  210  1
73  204  37  5  1
204  205  38  37  1
205  206  39  38  1
206  207  40  39  1
207  208  41  40  1
208  209  42  41  1
209  210  43  42  1
210  83  6  43  1
5  74  211  50  3
50  211  212  49  3
49  212  213  48  3
48  213  214  47  3
47  214  215  46  3
46  215  216  45  3
45  216  217  44  3
44  217  84  6  3
74  7  64  211  3
211  64  63  212  3
212  63  62  213  3
213  62  61  214  3
214  61  60  215  3
215  60  59  216  3
216  59  58  217  3
217  58  8  84  3
5  37  218  74  3
37  38  219  218  3
38  39  220  219  3
39  40  221  220  3
40  41  222  221  3
41  42  223  222  3
42  43  224  223  3
43  6  84  224  3
74  218  51  7  3
218  219  52  51  3
219  220  53  52  3
220  221  54  53  3
221  222  55  54  3
222  223  56  55  3
223  224  57  56  3
224  84  8  57  3
234  239  237  236  2
58  242  231  8  2
243  230  238  228  2
229  241  239  234  2
238  247  236  237  2
249  245  232  235  2
229  233  54  55  2
234  227  233  229  2
249  236  247  225  2
231  237  239  226  2
60  243  228  59  2
57  240  226  56  2
230  243  61  62  2
53  233  227  52  2
51  244  232  7  2
247  230  246  225  2
236  249  235  234  2
244  227  235  232  2
225  246  63  64  2
228  248  242  59  2
241  56  226  239  2
245  249  225  64  2
238  237  248  228  2
241  229  55  56  2
231  242  248  237  2
245  64  7  232  2
244  51  52  227  2
246  230  62  63  2
240  8  231  226  2
End
