MeshVersionFormatted 1
Dimension 
2
Vertices
185
1.900000000000000e+00  0.000000000000000e+00  0
-1.900000000000000e+00  0.000000000000000e+00  0
1.080000000000000e-01  0.000000000000000e+00  3
-1.080000000000000e-01  0.000000000000000e+00  3
9.200000000000000e-02  0.000000000000000e+00  2
-9.200000000000000e-02  0.000000000000000e+00  2
1.750000000000000e-02  0.000000000000000e+00  1
-1.750000000000000e-02  0.000000000000000e+00  1
2.000000000000000e+00  0.000000000000000e+00  5
-2.000000000000000e+00  0.000000000000000e+00  5
1.755371111019515e+00  7.270985233089891e-01  0
1.343502881158736e+00  1.343502887350144e+00  0
7.270985153979547e-01  1.755371114296373e+00  0
-8.853238692384456e-09  1.900000000000000e+00  0
-7.270985277812770e-01  1.755371109167033e+00  0
-1.343502887509905e+00  1.343502880998975e+00  0
-1.755371112634700e+00  7.270985194095870e-01  0
-1.755371111019515e+00  -7.270985233089891e-01  0
-1.343502881158736e+00  -1.343502887350144e+00  0
-7.270985153979547e-01  -1.755371114296373e+00  0
8.853238692384456e-09  -1.900000000000000e+00  0
7.270985277812770e-01  -1.755371109167033e+00  0
1.343502887509905e+00  -1.343502880998975e+00  0
1.755371112634700e+00  -7.270985194095870e-01  0
9.977898947024492e-02  4.132981079434980e-02  3
7.636753220016348e-02  7.636753253613078e-02  3
4.132981035501981e-02  9.977898965222136e-02  3
-4.959706099632650e-10  1.080000000000000e-01  3
-4.132981104155289e-02  9.977898936785004e-02  3
-7.636753255282923e-02  7.636753218346505e-02  3
-9.977898956014708e-02  4.132981057730680e-02  3
-9.977898947024492e-02  -4.132981079434980e-02  3
-7.636753220016348e-02  -7.636753253613078e-02  3
-4.132981035501981e-02  -9.977898965222136e-02  3
4.959706099632650e-10  -1.080000000000000e-01  3
4.132981104155289e-02  -9.977898936785004e-02  3
7.636753255282923e-02  -7.636753218346505e-02  3
9.977898956014708e-02  -4.132981057730680e-02  3
8.499691695694978e-02  3.520687585988543e-02  2
6.505382372757976e-02  6.505382401074498e-02  2
3.520687548216242e-02  8.499691711340776e-02  2
-4.229807132615300e-10  9.200000000000000e-02  2
-3.520687607079989e-02  8.499691686958614e-02  2
-6.505382402316329e-02  6.505382371516145e-02  2
-8.499691703248585e-02  3.520687567752521e-02  2
-8.499691695694978e-02  -3.520687585988543e-02  2
-6.505382372757976e-02  -6.505382401074498e-02  2
-3.520687548216242e-02  -8.499691711340776e-02  2
4.229807132615300e-10  -9.200000000000000e-02  2
3.520687607079989e-02  -8.499691686958614e-02  2
6.505382402316329e-02  -6.505382371516145e-02  2
8.499691703248585e-02  -3.520687567752521e-02  2
1.616789181221567e-02  6.696960082641190e-03  1
1.237436864326763e-02  1.237436869826154e-02  1
6.696960011774316e-03  1.616789184156969e-02  1
-7.936535765786701e-11  1.750000000000000e-02  1
-6.696960122164446e-03  1.616789179584460e-02  1
-1.237436869954037e-02  1.237436864198880e-02  1
-1.616789182676972e-02  6.696960047504604e-03  1
-1.616789181221567e-02  -6.696960082641190e-03  1
-1.237436864326763e-02  -1.237436869826154e-02  1
-6.696960011774316e-03  -1.616789184156969e-02  1
7.936535765786701e-11  -1.750000000000000e-02  1
6.696960122164446e-03  -1.616789179584460e-02  1
1.237436869954037e-02  -1.237436864198880e-02  1
1.616789182676972e-02  -6.696960047504604e-03  1
6.593846181250351e-01  0.000000000000000e+00  0
2.458461604650279e-01  0.000000000000000e+00  0
1.000000000000217e-01  0.000000000000000e+00  0
5.475000000010020e-02  0.000000000000000e+00  0
-6.593846181250351e-01  0.000000000000000e+00  0
-2.458461604650279e-01  0.000000000000000e+00  0
-1.000000000000217e-01  0.000000000000000e+00  0
-5.475000000010020e-02  0.000000000000000e+00  0
1.847759064266733e+00  7.653668665549389e-01  5
1.414213559178213e+00  1.414213565567977e+00  5
7.653668583131839e-01  1.847759067680580e+00  5
-9.250120991059621e-09  2.000000000000000e+00  5
-7.653668712076844e-01  1.847759062339503e+00  5
-1.414213565790807e+00  1.414213558955383e+00  5
-1.847759065937685e+00  7.653668625209061e-01  5
-1.847759064266733e+00  -7.653668665549389e-01  5
-1.414213559178213e+00  -1.414213565567977e+00  5
-7.653668583131839e-01  -1.847759067680580e+00  5
9.250120991059621e-09  -2.000000000000000e+00  5
7.653668712076844e-01  -1.847759062339503e+00  5
1.414213565790807e+00  -1.414213558955383e+00  5
1.847759065937685e+00  -7.653668625209061e-01  5
1.949999999999870e+00  0.000000000000000e+00  0
-1.949999999999870e+00  0.000000000000000e+00  0
6.091919530379810e-01  -2.523355681897986e-01  0
4.662553360158526e-01  -4.662553337567760e-01  0
2.523355710871044e-01  -6.091919518378778e-01  0
3.067437803760953e-09  -6.593846181250350e-01  0
-2.523355668015591e-01  -6.091919536130086e-01  0
-4.662553338174936e-01  -4.662553359551350e-01  0
-6.091919524787610e-01  -2.523355695398751e-01  0
2.271322359116934e-01  -9.408125225118484e-02  0
1.738394876143935e-01  -1.738394867726011e-01  0
9.408125332369587e-02  -2.271322354674447e-01  0
1.138837413261484e-09  -2.458461604650278e-01  0
-9.408125173740975e-02  -2.271322361245059e-01  0
-1.738394868003044e-01  -1.738394875866902e-01  0
-2.271322357044618e-01  -9.408125275148624e-02  0
6.091919524787610e-01  2.523355695398751e-01  0
4.662553338174936e-01  4.662553359551350e-01  0
2.523355668015591e-01  6.091919536130086e-01  0
-3.067437692738650e-09  6.593846181250350e-01  0
-2.523355710871044e-01  6.091919518378778e-01  0
-4.662553360158526e-01  4.662553337567760e-01  0
-6.091919530379812e-01  2.523355681897986e-01  0
2.271322357044618e-01  9.408125275148624e-02  0
1.738394868003044e-01  1.738394875866902e-01  0
9.408125173740975e-02  2.271322361245059e-01  0
-1.138837413261484e-09  2.458461604650278e-01  0
-9.408125332369588e-02  2.271322354674447e-01  0
-1.738394876143934e-01  1.738394867726011e-01  0
-2.271322359116934e-01  9.408125225118484e-02  0
9.238795329633651e-02  -3.826834312742430e-02  0
7.071067828801156e-02  -7.071067794932859e-02  0
3.826834355618469e-02  -9.238795311873813e-02  0
4.594756623788054e-10  -1.000000000000217e-01  0
-3.826834291859942e-02  -9.238795338283459e-02  0
-7.071067796388694e-02  -7.071067827345320e-02  0
-9.238795321361740e-02  -3.826834332712591e-02  0
9.238795321361738e-02  3.826834332712591e-02  0
7.071067796388691e-02  7.071067827345320e-02  0
3.826834291859942e-02  9.238795338283459e-02  0
-4.594756589093585e-10  1.000000000000217e-01  0
-3.826834355618469e-02  9.238795311873813e-02  0
-7.071067828801157e-02  7.071067794932859e-02  0
-9.238795329633651e-02  3.826834312742430e-02  0
5.058240442972035e-02  -2.095191786255325e-02  0
3.871409636142267e-02  -3.871409617864598e-02  0
2.095191809652051e-02  -5.058240433280794e-02  0
2.511730302912074e-10  -5.475000000010020e-02  0
-2.095191774700671e-02  -5.058240447758129e-02  0
-3.871409618549455e-02  -3.871409635457411e-02  0
-5.058240438467528e-02  -2.095191797130165e-02  0
5.058240438467530e-02  2.095191797130165e-02  0
3.871409618549454e-02  3.871409635457411e-02  0
2.095191774700671e-02  5.058240447758129e-02  0
-2.511730302912074e-10  5.475000000010020e-02  0
-2.095191809652051e-02  5.058240433280794e-02  0
-3.871409636142268e-02  3.871409617864598e-02  0
-5.058240442972036e-02  2.095191786255325e-02  0
8.418023220549979e-03  -6.277330325143955e-03  0
-1.057420182292879e-02  4.688999212941403e-03  0
6.615984466482393e-03  9.569906617907090e-03  0
-5.444295526001048e-03  -9.155449500567450e-03  0
-2.410367411517581e-03  1.102773172314667e-02  0
2.194842503606819e-03  -1.103420776400579e-02  0
-1.060512554439963e-02  -6.910371204372748e-04  0
1.201827684322700e-02  1.855594367382648e-03  0
2.617727529137981e-03  1.296119463049223e-02  0
1.338950786593395e-03  5.321360744156552e-03  0
7.476649291660344e-03  3.019464316092213e-03  0
2.323934286386635e-03  -1.054109769241680e-03  0
-4.275779573861949e-03  -1.869702063021482e-03  0
-1.352038720630350e-03  -6.844211157690384e-03  0
-5.183791630713917e-03  4.752026326297888e-03  0
-1.390395325167751e-02  4.284721017096562e-03  0
-6.213842301120436e-03  9.200409825248300e-03  0
-1.084380670927066e-02  -5.637773114417325e-03  0
-2.445870562402413e-03  -1.300381675178196e-02  0
1.186784431099043e-02  5.771466368750562e-03  0
1.182293274169051e-02  -1.862325464955031e-03  0
8.041132054456250e-03  -9.823590812112246e-03  0
3.242420500368556e-03  -5.818028375699992e-03  0
-7.225551605908717e-03  -5.872288785828577e-03  0
7.940253059155918e-03  -1.652091120724890e-03  0
1.801565087643004e+00  7.462326949319142e-01  0
1.378858220168382e+00  1.378858226458969e+00  0
7.462326868555196e-01  1.801565090988356e+00  0
-9.051679794591649e-09  1.949999999999870e+00  0
-7.462326994944311e-01  1.801565085753148e+00  0
-1.378858226650264e+00  1.378858219977087e+00  0
-1.801565089286072e+00  7.462326909651968e-01  0
1.801565089286072e+00  -7.462326909651968e-01  0
1.378858226650263e+00  -1.378858219977087e+00  0
7.462326994944308e-01  -1.801565085753148e+00  0
9.051679794591649e-09  -1.949999999999870e+00  0
-7.462326868555194e-01  -1.801565090988356e+00  0
-1.378858220168382e+00  -1.378858226458969e+00  0
-1.801565087643004e+00  -7.462326949319142e-01  0
Edges
64
3  25  3
25  26  3
26  27  3
27  28  3
28  29  3
29  30  3
30  31  3
4  31  3
4  32  3
32  33  3
33  34  3
34  35  3
35  36  3
36  37  3
37  38  3
3  38  3
5  39  2
39  40  2
40  41  2
41  42  2
42  43  2
43  44  2
44  45  2
6  45  2
6  46  2
46  47  2
47  48  2
48  49  2
49  50  2
50  51  2
51  52  2
5  52  2
7  53  1
53  54  1
54  55  1
55  56  1
56  57  1
57  58  1
58  59  1
8  59  1
8  60  1
60  61  1
61  62  1
62  63  1
63  64  1
64  65  1
65  66  1
7  66  1
9  75  5
75  76  5
76  77  5
77  78  5
78  79  5
79  80  5
80  81  5
10  81  5
10  82  5
82  83  5
83  84  5
84  85  5
85  86  5
86  87  5
87  88  5
9  88  5
Triangles
6
149  156  157  2
55  56  155  2
62  63  165  2
60  61  164  2
59  8  162  2
160  152  169  2
Quadrilaterals
173
1  67  91  24  4
24  91  92  23  4
23  92  93  22  4
22  93  94  21  4
21  94  95  20  4
20  95  96  19  4
19  96  97  18  4
18  97  71  2  4
67  68  98  91  4
91  98  99  92  4
92  99  100  93  4
93  100  101  94  4
94  101  102  95  4
95  102  103  96  4
96  103  104  97  4
97  104  72  71  4
68  3  38  98  4
98  38  37  99  4
99  37  36  100  4
100  36  35  101  4
101  35  34  102  4
102  34  33  103  4
103  33  32  104  4
104  32  4  72  4
1  11  105  67  4
11  12  106  105  4
12  13  107  106  4
13  14  108  107  4
14  15  109  108  4
15  16  110  109  4
16  17  111  110  4
17  2  71  111  4
67  105  112  68  4
105  106  113  112  4
106  107  114  113  4
107  108  115  114  4
108  109  116  115  4
109  110  117  116  4
110  111  118  117  4
111  71  72  118  4
68  112  25  3  4
112  113  26  25  4
113  114  27  26  4
114  115  28  27  4
115  116  29  28  4
116  117  30  29  4
117  118  31  30  4
118  72  4  31  4
3  69  119  38  1
38  119  120  37  1
37  120  121  36  1
36  121  122  35  1
35  122  123  34  1
34  123  124  33  1
33  124  125  32  1
32  125  73  4  1
69  5  52  119  1
119  52  51  120  1
120  51  50  121  1
121  50  49  122  1
122  49  48  123  1
123  48  47  124  1
124  47  46  125  1
125  46  6  73  1
3  25  126  69  1
25  26  127  126  1
26  27  128  127  1
27  28  129  128  1
28  29  130  129  1
29  30  131  130  1
30  31  132  131  1
31  4  73  132  1
69  126  39  5  1
126  127  40  39  1
127  128  41  40  1
128  129  42  41  1
129  130  43  42  1
130  131  44  43  1
131  132  45  44  1
132  73  6  45  1
5  70  133  52  3
52  133  134  51  3
51  134  135  50  3
50  135  136  49  3
49  136  137  48  3
48  137  138  47  3
47  138  139  46  3
46  139  74  6  3
70  7  66  133  3
133  66  65  134  3
134  65  64  135  3
135  64  63  136  3
136  63  62  137  3
137  62  61  138  3
138  61  60  139  3
139  60  8  74  3
5  39  140  70  3
39  40  141  140  3
40  41  142  141  3
41  42  143  142  3
42  43  144  143  3
43  44  145  144  3
44  45  146  145  3
45  6  74  146  3
70  140  53  7  3
140  141  54  53  3
141  142  55  54  3
142  143  56  55  3
143  144  57  56  3
144  145  58  57  3
145  146  59  58  3
146  74  8  59  3
156  161  159  158  2
60  164  153  8  2
165  152  160  150  2
151  163  161  156  2
160  169  158  159  2
171  167  154  157  2
151  155  56  57  2
156  149  155  151  2
171  158  169  147  2
153  159  161  148  2
62  165  150  61  2
59  162  148  58  2
152  165  63  64  2
55  155  149  54  2
53  166  154  7  2
169  152  168  147  2
158  171  157  156  2
166  149  157  154  2
147  168  65  66  2
150  170  164  61  2
163  58  148  161  2
167  171  147  66  2
160  159  170  150  2
163  151  57  58  2
153  164  170  159  2
167  66  7  154  2
166  53  54  149  2
168  152  64  65  2
162  8  153  148  2
1  89  172  11  4
11  172  173  12  4
12  173  174  13  4
13  174  175  14  4
14  175  176  15  4
15  176  177  16  4
16  177  178  17  4
17  178  90  2  4
89  9  75  172  4
172  75  76  173  4
173  76  77  174  4
174  77  78  175  4
175  78  79  176  4
176  79  80  177  4
177  80  81  178  4
178  81  10  90  4
1  24  179  89  4
24  23  180  179  4
23  22  181  180  4
22  21  182  181  4
21  20  183  182  4
20  19  184  183  4
19  18  185  184  4
18  2  90  185  4
89  179  88  9  4
179  180  87  88  4
180  181  86  87  4
181  182  85  86  4
182  183  84  85  4
183  184  83  84  4
184  185  82  83  4
185  90  10  82  4
End
