MeshVersionFormatted 1
Dimension 
2
Vertices
44
-4.000000000000000e+00  -4.000000000000000e+00  4
4.000000000000000e+00  -4.000000000000000e+00  2
4.000000000000000e+00  4.000000000000000e+00  3
-4.000000000000000e+00  4.000000000000000e+00  4
-2.400000000004441e+00  -4.000000000000000e+00  1
-8.000000000072163e-01  -4.000000000000000e+00  1
7.999999999927834e-01  -4.000000000000000e+00  1
2.399999999995559e+00  -4.000000000000000e+00  1
4.000000000000000e+00  -2.400000000004441e+00  2
4.000000000000000e+00  -8.000000000072163e-01  2
4.000000000000000e+00  7.999999999927834e-01  2
4.000000000000000e+00  2.399999999995559e+00  2
2.400000000004441e+00  4.000000000000000e+00  3
8.000000000072163e-01  4.000000000000000e+00  3
-7.999999999927834e-01  4.000000000000000e+00  3
-2.399999999995559e+00  4.000000000000000e+00  3
-4.000000000000000e+00  2.400000000004441e+00  4
-4.000000000000000e+00  8.000000000072163e-01  4
-4.000000000000000e+00  -7.999999999927834e-01  4
-4.000000000000000e+00  -2.399999999995559e+00  4
2.709345927719607e+00  -1.617534355658093e+00  0
-1.248088450586336e+00  -2.766979293393375e+00  0
1.250553825173722e+00  2.779163879646210e+00  0
-2.712249049250606e+00  1.615367051629393e+00  0
-1.090305818621912e+00  2.105301263335303e+00  0
1.080858936331199e+00  -2.111594185033821e+00  0
-2.028830648707663e+00  -1.122289371999782e+00  0
2.017440352427674e+00  1.119307476098327e+00  0
1.776595102278300e+00  -9.861069647793594e-01  0
-1.781825980704913e+00  9.997349493848844e-01  0
6.094994470383376e-01  1.584411536123642e+00  0
-6.258255890809756e-01  -1.591364684793854e+00  0
2.727131209028703e+00  -5.492041415585774e-01  0
-2.520690957323403e-01  -2.470144283375639e+00  0
2.455389749641730e-01  2.468952553312368e+00  0
-2.739726324244977e+00  5.342691871484756e-01  0
9.166114916579218e-01  -5.314651469203358e-02  0
-9.351540625609805e-01  4.742293991844404e-02  0
2.958566209929600e-02  -9.260736786917821e-01  0
-4.675089126757852e-02  9.228154444719131e-01  0
-2.569148675794142e+00  -2.679773446715080e+00  0
2.568118390221697e+00  2.681436797908238e+00  0
2.454204106438307e+00  -2.665275920428537e+00  0
-2.456589307597993e+00  2.665106999767245e+00  0
Edges
20
1  5  1
5  6  1
6  7  1
7  8  1
2  8  1
2  9  2
9  10  2
10  11  2
11  12  2
3  12  2
3  13  3
13  14  3
14  15  3
15  16  3
4  16  3
4  17  4
17  18  4
18  19  4
19  20  4
1  20  4
Triangles
8
34  7  26  1
35  15  25  1
24  36  30  1
21  33  29  1
23  28  42  1
22  27  41  1
44  17  24  1
43  9  21  1
Quadrilaterals
29
25  40  31  35  1
37  40  38  39  1
26  39  32  34  1
12  42  28  11  1
20  41  27  19  1
43  26  7  8  1
44  25  15  16  1
25  44  24  30  1
26  43  21  29  1
2  9  43  8  1
44  16  4  17  1
27  38  30  36  1
28  37  29  33  1
23  42  13  14  1
22  41  5  6  1
10  33  21  9  1
18  36  24  17  1
23  35  31  28  1
22  34  32  27  1
32  39  38  27  1
42  12  3  13  1
41  20  1  5  1
31  40  37  28  1
19  27  36  18  1
11  28  33  10  1
34  22  6  7  1
35  23  14  15  1
30  38  40  25  1
29  37  39  26  1
End
