MeshVersionFormatted 1

Dimension
3

Vertices
108
3.999997139000000e+00 0.000000000000000e+00 0.000000000000000e+00 1
2.999572753900000e+00 0.000000000000000e+00 0.000000000000000e+00 1
3.999997139000000e+00 9.999992847400000e-01 0.000000000000000e+00 1
2.827979087800000e+00 9.999992847400000e-01 0.000000000000000e+00 1
3.999997139000000e+00 1.999998569500000e+00 0.000000000000000e+00 1
2.999997854200000e+00 1.999998569500000e+00 0.000000000000000e+00 1
1.999998569500000e+00 2.235515832900000e+00 0.000000000000000e+00 1
2.999997854200000e+00 2.999997854200000e+00 0.000000000000000e+00 1
1.999998569500000e+00 2.999997854200000e+00 0.000000000000000e+00 1
3.999997139000000e+00 2.999997854200000e+00 0.000000000000000e+00 1
3.999997139000000e+00 3.999997139000000e+00 0.000000000000000e+00 1
2.999997854200000e+00 3.999997139000000e+00 0.000000000000000e+00 1
1.999998569500000e+00 3.999997139000000e+00 0.000000000000000e+00 1
9.999992847400000e-01 2.828321456900000e+00 0.000000000000000e+00 1
9.999992847400000e-01 3.999997139000000e+00 0.000000000000000e+00 1
0.000000000000000e+00 3.000000000000000e+00 0.000000000000000e+00 1
0.000000000000000e+00 3.999997139000000e+00 0.000000000000000e+00 1
0.000000000000000e+00 0.000000000000000e+00 3.000000000000000e+00 1
0.000000000000000e+00 0.000000000000000e+00 3.999997139000000e+00 1
3.999997139000000e+00 0.000000000000000e+00 9.999992847400000e-01 1
2.828351974500000e+00 0.000000000000000e+00 9.999992847400000e-01 1
3.999997139000000e+00 0.000000000000000e+00 1.999998569500000e+00 1
2.999997854200000e+00 0.000000000000000e+00 1.999998569500000e+00 1
3.999997139000000e+00 0.000000000000000e+00 2.999997854200000e+00 1
2.999997854200000e+00 0.000000000000000e+00 2.999997854200000e+00 1
2.234771966900000e+00 0.000000000000000e+00 1.999998569500000e+00 1
1.999998569500000e+00 0.000000000000000e+00 2.999997854200000e+00 1
3.999997139000000e+00 0.000000000000000e+00 3.999997139000000e+00 1
2.999997854200000e+00 0.000000000000000e+00 3.999997139000000e+00 1
1.999998569500000e+00 0.000000000000000e+00 3.999997139000000e+00 1
9.999992847400000e-01 0.000000000000000e+00 2.827751159700000e+00 1
9.999992847400000e-01 0.000000000000000e+00 3.999997139000000e+00 1
3.999997139000000e+00 9.999992847400000e-01 9.999992847400000e-01 1
2.645286560100000e+00 9.999992847400000e-01 9.999992847400000e-01 1
3.999997139000000e+00 1.999998569500000e+00 9.999992847400000e-01 1
2.999997854200000e+00 1.999998569500000e+00 9.999992847400000e-01 1
3.999997139000000e+00 9.999992847400000e-01 1.999998569500000e+00 1
2.999997854200000e+00 9.999992847400000e-01 1.999998569500000e+00 1
3.999997139000000e+00 1.999998569500000e+00 1.999998569500000e+00 1
2.999997854200000e+00 1.999998569500000e+00 1.999998569500000e+00 1
1.999998569500000e+00 1.999284267400000e+00 9.999992847400000e-01 1
2.999997854200000e+00 2.999997854200000e+00 9.999992847400000e-01 1
1.999998569500000e+00 2.999997854200000e+00 9.999992847400000e-01 1
3.999997139000000e+00 2.999997854200000e+00 9.999992847400000e-01 1
3.999997139000000e+00 3.999997139000000e+00 9.999992847400000e-01 1
2.999997854200000e+00 3.999997139000000e+00 9.999992847400000e-01 1
1.999998569500000e+00 3.999997139000000e+00 9.999992847400000e-01 1
1.999998569500000e+00 1.999998569500000e+00 1.999998569500000e+00 1
2.999997854200000e+00 2.999997854200000e+00 1.999998569500000e+00 1
1.999998569500000e+00 2.999997854200000e+00 1.999998569500000e+00 1
3.999997139000000e+00 2.999997854200000e+00 1.999998569500000e+00 1
3.999997139000000e+00 3.999997139000000e+00 1.999998569500000e+00 1
2.999997854200000e+00 3.999997139000000e+00 1.999998569500000e+00 1
1.999998569500000e+00 3.999997139000000e+00 1.999998569500000e+00 1
9.999992847400000e-01 2.645277977000000e+00 9.999992847400000e-01 1
9.999992847400000e-01 3.999997139000000e+00 9.999992847400000e-01 1
0.000000000000000e+00 2.827796936000000e+00 9.999992847400000e-01 1
0.000000000000000e+00 3.999997139000000e+00 9.999992847400000e-01 1
9.999992847400000e-01 2.999997854200000e+00 1.999998569500000e+00 1
9.999992847400000e-01 3.999997139000000e+00 1.999998569500000e+00 1
0.000000000000000e+00 2.999997854200000e+00 1.999998569500000e+00 1
0.000000000000000e+00 3.999997139000000e+00 1.999998569500000e+00 1
9.999992847400000e-01 9.999992847400000e-01 2.645360946700000e+00 1
0.000000000000000e+00 9.999992847400000e-01 2.827912330600000e+00 1
9.999992847400000e-01 9.999992847400000e-01 3.999997139000000e+00 1
0.000000000000000e+00 9.999992847400000e-01 3.999997139000000e+00 1
1.999998569500000e+00 9.999992847400000e-01 2.999997854200000e+00 1
1.999998569500000e+00 9.999992847400000e-01 3.999997139000000e+00 1
1.999998569500000e+00 1.999998569500000e+00 2.999997854200000e+00 1
9.999992847400000e-01 1.999998569500000e+00 2.999997854200000e+00 1
1.999998569500000e+00 1.999998569500000e+00 3.999997139000000e+00 1
9.999992847400000e-01 1.999998569500000e+00 3.999997139000000e+00 1
0.000000000000000e+00 1.999998569500000e+00 2.999997854200000e+00 1
0.000000000000000e+00 1.999998569500000e+00 3.999997139000000e+00 1
1.999411225300000e+00 9.999992847400000e-01 1.999998569500000e+00 1
2.999997854200000e+00 9.999992847400000e-01 2.999997854200000e+00 1
3.999997139000000e+00 9.999992847400000e-01 2.999997854200000e+00 1
3.999997139000000e+00 1.999998569500000e+00 2.999997854200000e+00 1
2.999997854200000e+00 1.999998569500000e+00 2.999997854200000e+00 1
2.999997854200000e+00 9.999992847400000e-01 3.999997139000000e+00 1
3.999997139000000e+00 9.999992847400000e-01 3.999997139000000e+00 1
3.999997139000000e+00 1.999998569500000e+00 3.999997139000000e+00 1
2.999997854200000e+00 1.999998569500000e+00 3.999997139000000e+00 1
2.999997854200000e+00 2.999997854200000e+00 2.999997854200000e+00 1
1.999998569500000e+00 2.999997854200000e+00 2.999997854200000e+00 1
3.999997139000000e+00 2.999997854200000e+00 2.999997854200000e+00 1
3.999997139000000e+00 3.999997139000000e+00 2.999997854200000e+00 1
2.999997854200000e+00 3.999997139000000e+00 2.999997854200000e+00 1
1.999998569500000e+00 3.999997139000000e+00 2.999997854200000e+00 1
2.999997854200000e+00 2.999997854200000e+00 3.999997139000000e+00 1
1.999998569500000e+00 2.999997854200000e+00 3.999997139000000e+00 1
3.999997139000000e+00 2.999997854200000e+00 3.999997139000000e+00 1
3.999997139000000e+00 3.999997139000000e+00 3.999997139000000e+00 1
2.999997854200000e+00 3.999997139000000e+00 3.999997139000000e+00 1
1.999998569500000e+00 3.999997139000000e+00 3.999997139000000e+00 1
0.000000000000000e+00 2.235071659100000e+00 1.999998569500000e+00 1
9.999992847400000e-01 1.999998569500000e+00 1.999445557600000e+00 1
9.999992847400000e-01 2.999997854200000e+00 2.999997854200000e+00 1
0.000000000000000e+00 2.999997854200000e+00 2.999997854200000e+00 1
9.999992847400000e-01 3.999997139000000e+00 2.999997854200000e+00 1
0.000000000000000e+00 3.999997139000000e+00 2.999997854200000e+00 1
9.999992847400000e-01 2.999997854200000e+00 3.999997139000000e+00 1
0.000000000000000e+00 2.999997854200000e+00 3.999997139000000e+00 1
9.999992847400000e-01 3.999997139000000e+00 3.999997139000000e+00 1
0.000000000000000e+00 3.999997139000000e+00 3.999997139000000e+00 1
2.520669221900000e+00 1.571325302100000e+00 1.571427226100000e+00 1
1.571427226100000e+00 2.520650148400000e+00 1.571349144000000e+00 1
1.571343421900000e+00 1.571427226100000e+00 2.520684480700000e+00 1
Quadrilaterals
81
2 4 34 21 7
14 16 57 55 7
18 31 63 64 7
4 7 41 34 7
21 26 75 34 7
7 14 55 41 7
55 57 96 97 7
26 31 63 75 7
63 64 96 97 7
1 3 33 20 1
3 5 35 33 1
20 22 37 33 1
33 35 39 37 1
5 10 44 35 1
10 11 45 44 1
35 39 51 44 1
44 45 52 51 1
22 24 77 37 1
37 39 78 77 1
24 28 81 77 1
77 78 82 81 1
39 51 86 78 1
51 52 87 86 1
78 82 92 86 1
86 87 93 92 1
11 12 46 45 2
12 13 47 46 2
45 46 53 52 2
46 47 54 53 2
13 15 56 47 2
15 17 58 56 2
47 54 60 56 2
56 58 62 60 2
52 53 88 87 2
53 54 89 88 2
87 88 94 93 2
88 89 95 94 2
54 60 100 89 2
60 62 101 100 2
89 95 104 100 2
100 101 105 104 2
19 32 65 66 3
30 32 65 68 3
65 68 71 72 3
65 66 74 72 3
29 30 68 80 3
28 29 80 81 3
80 81 82 83 3
68 71 83 80 3
71 83 90 91 3
82 83 90 92 3
90 92 93 94 3
90 91 95 94 3
72 74 103 102 3
71 72 102 91 3
91 95 104 102 3
102 103 105 104 3
16 17 58 57 4
57 58 62 61 4
18 19 66 64 4
64 66 74 73 4
61 96 73 99 4
61 62 101 99 4
73 74 103 99 4
99 101 105 103 4
1 2 21 20 5
20 21 23 22 5
18 19 32 31 5
27 30 32 31 5
23 25 27 26 5
22 23 25 24 5
25 27 30 29 5
24 25 29 28 5
1 3 4 2 6
3 5 6 4 6
6 8 9 7 6
5 10 8 6 6
8 10 11 12 6
8 12 13 9 6
9 13 15 14 6
14 15 17 16 6
Triangles
10
41 75 97 7
34 41 75 7
41 55 97 7
63 75 97 7
57 61 96 4
64 73 96 4
21 23 26 5
26 27 31 5
4 6 7 6
7 9 14 6
Tetrahedra
13
75 41 97 48 1
75 34 41 106 1
106 41 75 48 1
106 75 34 38 1
106 34 41 36 1
97 41 55 107 1
107 55 97 59 1
107 97 41 48 1
107 41 55 43 1
63 75 97 108 1
108 97 63 70 1
108 63 75 67 1
108 75 97 48 1
Hexahedra
59
34 38 40 36 106 106 106 106 1
41 36 40 48 106 106 106 106 1
38 75 48 40 106 106 106 106 1
41 48 50 43 107 107 107 107 1
55 43 50 59 107 107 107 107 1
48 97 59 50 107 107 107 107 1
75 67 69 48 108 108 108 108 1
97 48 69 70 108 108 108 108 1
67 63 70 69 108 108 108 108 1
6 7 4 4 36 41 34 34 1
23 21 26 26 38 34 75 75 1
9 14 7 7 43 55 41 41 1
61 96 57 57 59 97 55 55 1
27 26 31 31 67 75 63 63 1
73 64 96 96 70 63 97 97 1
2 1 3 4 21 20 33 34 1
4 3 5 6 34 33 35 36 1
21 20 33 34 23 22 37 38 1
34 33 35 36 38 37 39 40 1
7 6 8 9 41 36 42 43 1
6 5 10 8 36 35 44 42 1
8 10 11 12 42 44 45 46 1
9 8 12 13 43 42 46 47 1
41 36 42 43 48 40 49 50 1
36 35 44 42 40 39 51 49 1
42 44 45 46 49 51 52 53 1
43 42 46 47 50 49 53 54 1
14 9 13 15 55 43 47 56 1
16 14 15 17 57 55 56 58 1
55 43 47 56 59 50 54 60 1
57 55 56 58 61 59 60 62 1
18 31 63 64 19 32 65 66 1
31 27 67 63 32 30 68 65 1
63 67 69 70 65 68 71 72 1
64 63 70 73 66 65 72 74 1
26 23 38 75 27 25 76 67 1
23 22 37 38 25 24 77 76 1
38 37 39 40 76 77 78 79 1
75 38 40 48 67 76 79 69 1
27 25 76 67 30 29 80 68 1
25 24 77 76 29 28 81 80 1
76 77 78 79 80 81 82 83 1
67 76 79 69 68 80 83 71 1
48 40 49 50 69 79 84 85 1
40 39 51 49 79 78 86 84 1
49 51 52 53 84 86 87 88 1
50 49 53 54 85 84 88 89 1
69 79 84 85 71 83 90 91 1
79 78 86 84 83 82 92 90 1
84 86 87 88 90 92 93 94 1
85 84 88 89 91 90 94 95 1
96 97 59 61 73 70 98 99 1
97 48 50 59 70 69 85 98 1
59 50 54 60 98 85 89 100 1
61 59 60 62 99 98 100 101 1
73 70 98 99 74 72 102 103 1
70 69 85 98 72 71 91 102 1
98 85 89 100 102 91 95 104 1
99 98 100 101 103 102 104 105 1
End
