MeshVersionFormatted 1
Dimension 
2
Vertices
57
1.500000000000000e+00  0.000000000000000e+00  1
1.050000000000000e+00  0.000000000000000e+00  0
1.060660171779821e+00  1.060660171779821e+00  1
0.000000000000000e+00  1.500000000000000e+00  1
0.000000000000000e+00  0.000000000000000e+00  0
7.500000000000000e-01  7.500000000000000e-01  0
0.000000000000000e+00  1.050000000000000e+00  0
2.500000000000000e+00  0.000000000000000e+00  3
1.767766952966369e+00  1.767766952966369e+00  3
0.000000000000000e+00  2.500000000000000e+00  3
5.250000000011921e-01  0.000000000000000e+00  0
1.385819298767518e+00  5.740251485462144e-01  1
5.740251485490830e-01  1.385819298766330e+00  1
3.750000000010626e-01  8.999999999995749e-01  0
8.999999999995749e-01  3.750000000010626e-01  0
0.000000000000000e+00  5.249999999987623e-01  0
2.309698831278962e+00  9.567085809109253e-01  3
9.567085809142584e-01  2.309698831277582e+00  3
4.500000000009150e-01  4.499999999997000e-01  0
-1.500000000000000e+00  0.000000000000000e+00  1
-1.050000000000000e+00  0.000000000000000e+00  0
-1.060660171779821e+00  1.060660171779821e+00  1
-7.500000000000000e-01  7.500000000000000e-01  0
-2.500000000000000e+00  0.000000000000000e+00  3
-1.767766952966369e+00  1.767766952966369e+00  3
-5.250000000011921e-01  0.000000000000000e+00  0
-1.385819298767518e+00  5.740251485462144e-01  1
-5.740251485490830e-01  1.385819298766330e+00  1
-3.750000000010626e-01  8.999999999995749e-01  0
-8.999999999995749e-01  3.750000000010626e-01  0
-2.309698831278962e+00  9.567085809109253e-01  3
-9.567085809142584e-01  2.309698831277582e+00  3
-4.500000000009150e-01  4.499999999997000e-01  0
1.060660171779821e+00  -1.060660171779821e+00  1
0.000000000000000e+00  -1.500000000000000e+00  1
7.500000000000000e-01  -7.500000000000000e-01  0
0.000000000000000e+00  -1.050000000000000e+00  0
1.767766952966369e+00  -1.767766952966369e+00  3
0.000000000000000e+00  -2.500000000000000e+00  3
1.385819298767518e+00  -5.740251485462144e-01  1
5.740251485490830e-01  -1.385819298766330e+00  1
3.750000000010626e-01  -8.999999999995749e-01  0
8.999999999995749e-01  -3.750000000010626e-01  0
0.000000000000000e+00  -5.249999999987623e-01  0
2.309698831278962e+00  -9.567085809109253e-01  3
9.567085809142584e-01  -2.309698831277582e+00  3
4.500000000009150e-01  -4.499999999997000e-01  0
-1.060660171779821e+00  -1.060660171779821e+00  1
-7.500000000000000e-01  -7.500000000000000e-01  0
-1.767766952966369e+00  -1.767766952966369e+00  3
-1.385819298767518e+00  -5.740251485462144e-01  1
-5.740251485490830e-01  -1.385819298766330e+00  1
-3.750000000010626e-01  -8.999999999995749e-01  0
-8.999999999995749e-01  -3.750000000010626e-01  0
-2.309698831278962e+00  -9.567085809109253e-01  3
-9.567085809142584e-01  -2.309698831277582e+00  3
-4.500000000009150e-01  -4.499999999997000e-01  0
Edges
32
1  12  1
1  40  1
20  27  1
20  51  1
3  12  1
34  40  1
22  27  1
48  51  1
3  13  1
34  41  1
22  28  1
48  52  1
4  13  1
35  41  1
4  28  1
35  52  1
8  17  3
8  45  3
24  31  3
24  55  3
9  17  3
38  45  3
25  31  3
50  55  3
9  18  3
38  46  3
25  32  3
50  56  3
10  18  3
39  46  3
10  32  3
39  56  3
Quadrilaterals
48
1  12  15  2  1
12  3  6  15  1
6  3  13  14  1
14  13  4  7  1
5  11  19  16  1
16  19  14  7  1
11  2  15  19  1
19  15  6  14  1
1  8  17  12  2
12  17  9  3  2
3  9  18  13  2
13  18  10  4  2
20  21  30  27  1
27  30  23  22  1
23  29  28  22  1
29  7  4  28  1
5  16  33  26  1
16  7  29  33  1
26  33  30  21  1
33  29  23  30  1
20  27  31  24  2
27  22  25  31  2
22  28  32  25  2
28  4  10  32  2
1  2  43  40  1
40  43  36  34  1
36  42  41  34  1
42  37  35  41  1
5  44  47  11  1
44  37  42  47  1
11  47  43  2  1
47  42  36  43  1
1  40  45  8  2
40  34  38  45  2
34  41  46  38  2
41  35  39  46  2
20  51  54  21  1
51  48  49  54  1
49  48  52  53  1
53  52  35  37  1
5  26  57  44  1
44  57  53  37  1
26  21  54  57  1
57  54  49  53  1
20  24  55  51  2
51  55  50  48  2
48  50  56  52  2
52  56  39  35  2
End
